<?xml version="1.0" encoding="UTF-8" standalone="no"?>
<!DOCTYPE svg PUBLIC "-//W3C//DTD SVG 1.1//EN" "http://www.w3.org/Graphics/SVG/1.1/DTD/svg11.dtd">
<svg version="1.1" xmlns="http://www.w3.org/2000/svg" xmlns:xlink="http://www.w3.org/1999/xlink" preserveAspectRatio="xMidYMid meet" viewBox="0 0 81 103" width="81" height="103"><defs><path d="M71.38 5.65L71.54 5.66L71.7 5.68L71.85 5.71L72 5.75L72.15 5.79L72.3 5.83L72.45 5.88L72.59 5.94L72.73 6L72.86 6.07L73 6.14L73.13 6.22L73.25 6.3L73.38 6.39L73.5 6.48L73.61 6.58L73.73 6.68L73.84 6.78L73.94 6.89L74.04 7L74.14 7.12L74.23 7.24L74.32 7.36L74.4 7.49L74.48 7.62L74.55 7.75L74.62 7.89L74.68 8.03L74.73 8.17L74.79 8.32L74.83 8.47L74.87 8.62L74.91 8.77L74.94 8.92L74.96 9.08L74.97 9.24L74.98 9.4L74.99 9.56L74.99 77.26L74.98 77.42L74.97 77.59L74.96 77.74L74.94 77.9L74.91 78.05L74.87 78.21L74.83 78.36L74.79 78.5L74.73 78.65L74.72 78.69L42.87 96.7L42.43 96.92L42.32 96.98L42.21 97.03L42.09 97.08L41.97 97.12L41.86 97.16L41.74 97.2L41.62 97.23L41.5 97.26L41.38 97.29L41.26 97.31L41.14 97.33L41.02 97.35L40.9 97.36L40.77 97.36L40.65 97.37L40.53 97.37L40.41 97.36L40.28 97.36L40.16 97.35L40.04 97.33L39.92 97.31L39.8 97.29L39.68 97.26L39.56 97.23L39.44 97.2L39.32 97.16L39.2 97.12L39.09 97.08L38.97 97.03L38.86 96.98L38.75 96.92L6.37 78.89L6.32 78.79L6.27 78.65L6.21 78.5L6.17 78.36L6.13 78.21L6.09 78.05L6.06 77.9L6.04 77.74L6.03 77.59L6.02 77.42L6.01 77.26L6.01 9.56L6.02 9.4L6.03 9.24L6.04 9.08L6.06 8.92L6.09 8.77L6.13 8.62L6.17 8.47L6.21 8.32L6.27 8.17L6.32 8.03L6.38 7.89L6.45 7.75L6.52 7.62L6.6 7.49L6.68 7.36L6.77 7.24L6.86 7.12L6.96 7L7.06 6.89L7.16 6.78L7.27 6.68L7.39 6.58L7.5 6.48L7.62 6.39L7.75 6.3L7.87 6.22L8 6.14L8.14 6.07L8.27 6L8.41 5.94L8.55 5.88L8.7 5.83L8.85 5.79L9 5.75L9.15 5.71L9.3 5.68L9.46 5.66L9.62 5.65L9.78 5.64L9.94 5.63L71.06 5.63L71.22 5.64L71.38 5.65Z" id="d5BiW2czrg"></path><path d="M40.5 6.58L6.43 6.58L6.43 78.75L40.5 97.37L40.5 6.58Z" id="i498MoCmuj"></path><path d="" id="bppCVGa7h"></path><path d="M54.46 28.37L54.63 28.41L54.79 28.46L54.94 28.52L55.09 28.58L55.24 28.66L55.38 28.74L55.51 28.83L55.64 28.93L55.76 29.04L55.87 29.15L55.98 29.28L56.08 29.4L56.17 29.54L56.26 29.68L56.33 29.82L56.4 29.97L56.46 30.13L56.5 30.29L56.54 30.45L56.57 30.62L56.58 30.79L56.59 30.96L56.59 78.55L56.58 78.72L56.57 78.89L56.54 79.06L56.5 79.22L56.46 79.38L56.4 79.54L56.33 79.69L56.26 79.83L56.17 79.97L56.08 80.11L55.98 80.23L55.87 80.35L55.76 80.47L55.64 80.58L55.51 80.68L55.38 80.77L55.24 80.85L55.09 80.93L54.94 80.99L54.79 81.05L54.63 81.1L54.46 81.14L54.3 81.16L54.13 81.18L53.95 81.18L27.71 81.18L27.54 81.18L27.37 81.16L27.2 81.14L27.04 81.1L26.88 81.05L26.72 80.99L26.57 80.93L26.43 80.85L26.29 80.77L26.16 80.68L26.03 80.58L25.91 80.47L25.79 80.35L25.69 80.23L25.59 80.11L25.49 79.97L25.41 79.83L25.33 79.69L25.27 79.54L25.21 79.38L25.16 79.22L25.13 79.06L25.1 78.89L25.08 78.72L25.08 78.55L25.08 62.66L36.47 62.66L36.47 68.42L36.52 69L36.67 69.55L36.91 70.05L37.22 70.5L37.61 70.89L38.06 71.2L38.56 71.44L39.11 71.59L39.69 71.64L43.25 71.64L43.83 71.59L44.37 71.44L44.87 71.2L45.32 70.89L45.71 70.5L46.03 70.05L46.27 69.55L46.42 69L46.47 68.42L46.47 59.29L46.42 58.71L46.27 58.17L46.03 57.67L45.71 57.22L45.32 56.83L44.87 56.51L44.37 56.27L43.83 56.12L43.34 56.08L36.58 56.08L36.58 46.83L43.34 46.83L43.83 46.79L44.37 46.64L44.87 46.4L45.32 46.08L45.71 45.69L46.03 45.24L46.27 44.74L46.42 44.2L46.47 43.62L46.47 41.09L46.42 40.51L46.27 39.96L46.03 39.46L45.71 39.01L45.32 38.62L44.87 38.31L44.37 38.07L43.83 37.92L43.25 37.87L39.69 37.87L39.11 37.92L38.56 38.07L38.06 38.31L37.61 38.62L37.22 39.01L36.91 39.46L36.67 39.96L36.52 40.51L36.47 41.09L36.47 41.2L25.08 41.2L25.08 30.96L25.08 30.79L25.1 30.62L25.13 30.45L25.16 30.29L25.21 30.13L25.27 29.97L25.33 29.82L25.41 29.68L25.49 29.54L25.59 29.4L25.69 29.28L25.79 29.15L25.91 29.04L26.03 28.93L26.16 28.83L26.29 28.74L26.43 28.66L26.57 28.58L26.72 28.52L26.88 28.46L27.04 28.41L27.2 28.37L27.37 28.35L27.54 28.33L27.71 28.32L53.95 28.32L54.13 28.33L54.3 28.35L54.3 28.35L54.46 28.37Z" id="an9FCTF9G"></path><path d="M47.27 19.05L47.34 19.05L47.34 22.87L46.24 22.87L46.17 22.98L46.03 22.87L34.33 22.87L34.33 19.05L40.81 19.05L34.33 14.31L34.34 14.29L34.33 14.29L34.33 10.47L47.34 10.47L47.34 14.29L40.77 14.29L40.77 14.29L47.27 19.05Z" id="hgancOWRK"></path><path d="M61.77 19.05L61.84 19.05L61.84 22.87L60.74 22.87L60.67 22.98L60.53 22.87L48.83 22.87L48.83 19.05L55.31 19.05L48.83 14.31L48.84 14.29L48.83 14.29L48.83 10.47L61.84 10.47L61.84 14.29L55.27 14.29L55.27 14.29L61.77 19.05Z" id="a1BpsYayIn"></path><path d="M19.16 10.47L32.17 10.47L32.17 14.13L19.16 14.13L19.16 10.47Z" id="a159fJYrAq"></path><path d="M19.16 19.31L32.17 19.31L32.17 22.98L19.16 22.98L19.16 19.31Z" id="a1kr4fFxyB"></path><path d="M19.16 13.69L22.78 13.69L22.78 20.72L19.16 20.72L19.16 13.69Z" id="b4ZUHRd7ET"></path></defs><g><g><g><g><filter id="shadow7789918" x="-9.99" y="-10.37" width="100.97" height="124.74" filterUnits="userSpaceOnUse" primitiveUnits="userSpaceOnUse"><feFlood></feFlood><feComposite in2="SourceAlpha" operator="in"></feComposite><feGaussianBlur stdDeviation="2"></feGaussianBlur><feOffset dx="0" dy="1" result="afterOffset"></feOffset><feFlood flood-color="#000000" flood-opacity="0.5"></feFlood><feComposite in2="afterOffset" operator="in"></feComposite><feMorphology operator="dilate" radius="2"></feMorphology><feComposite in2="SourceAlpha" operator="out"></feComposite></filter><path d="M71.38 5.65L71.54 5.66L71.7 5.68L71.85 5.71L72 5.75L72.15 5.79L72.3 5.83L72.45 5.88L72.59 5.94L72.73 6L72.86 6.07L73 6.14L73.13 6.22L73.25 6.3L73.38 6.39L73.5 6.48L73.61 6.58L73.73 6.68L73.84 6.78L73.94 6.89L74.04 7L74.14 7.12L74.23 7.24L74.32 7.36L74.4 7.49L74.48 7.62L74.55 7.75L74.62 7.89L74.68 8.03L74.73 8.17L74.79 8.32L74.83 8.47L74.87 8.62L74.91 8.77L74.94 8.92L74.96 9.08L74.97 9.24L74.98 9.4L74.99 9.56L74.99 77.26L74.98 77.42L74.97 77.59L74.96 77.74L74.94 77.9L74.91 78.05L74.87 78.21L74.83 78.36L74.79 78.5L74.73 78.65L74.72 78.69L42.87 96.7L42.43 96.92L42.32 96.98L42.21 97.03L42.09 97.08L41.97 97.12L41.86 97.16L41.74 97.2L41.62 97.23L41.5 97.26L41.38 97.29L41.26 97.31L41.14 97.33L41.02 97.35L40.9 97.36L40.77 97.36L40.65 97.37L40.53 97.37L40.41 97.36L40.28 97.36L40.16 97.35L40.04 97.33L39.92 97.31L39.8 97.29L39.68 97.26L39.56 97.23L39.44 97.2L39.32 97.16L39.2 97.12L39.09 97.08L38.97 97.03L38.86 96.98L38.75 96.92L6.37 78.89L6.32 78.79L6.27 78.65L6.21 78.5L6.17 78.36L6.13 78.21L6.09 78.05L6.06 77.9L6.04 77.74L6.03 77.59L6.02 77.42L6.01 77.26L6.01 9.56L6.02 9.4L6.03 9.24L6.04 9.08L6.06 8.92L6.09 8.77L6.13 8.62L6.17 8.47L6.21 8.32L6.27 8.17L6.32 8.03L6.38 7.89L6.45 7.75L6.52 7.62L6.6 7.49L6.68 7.36L6.77 7.24L6.86 7.12L6.96 7L7.06 6.89L7.16 6.78L7.27 6.68L7.39 6.58L7.5 6.48L7.62 6.39L7.75 6.3L7.87 6.22L8 6.14L8.14 6.07L8.27 6L8.41 5.94L8.55 5.88L8.7 5.83L8.85 5.79L9 5.75L9.15 5.71L9.3 5.68L9.46 5.66L9.62 5.65L9.78 5.64L9.94 5.63L71.06 5.63L71.22 5.64L71.38 5.65Z" id="fKtdGsgNt" fill="white" fill-opacity="1" filter="url(#shadow7789918)"></path></g><use xlink:href="#d5BiW2czrg" opacity="1" fill="#9acbf9" fill-opacity="1"></use><g><use xlink:href="#d5BiW2czrg" opacity="1" fill-opacity="0" stroke="#709bfe" stroke-width="7" stroke-opacity="1"></use></g></g><g><use xlink:href="#i498MoCmuj" opacity="1" fill="#709bfe" fill-opacity="1"></use></g><g><g><use xlink:href="#bppCVGa7h" opacity="1" fill-opacity="0" stroke="#d7a546" stroke-width="7" stroke-opacity="1"></use></g></g><g><use xlink:href="#an9FCTF9G" opacity="1" fill="#545454" fill-opacity="1"></use></g><g><use xlink:href="#hgancOWRK" opacity="1" fill="#545454" fill-opacity="1"></use></g><g><use xlink:href="#a1BpsYayIn" opacity="1" fill="#545454" fill-opacity="1"></use></g><g><use xlink:href="#a159fJYrAq" opacity="1" fill="#545454" fill-opacity="1"></use></g><g><use xlink:href="#a1kr4fFxyB" opacity="1" fill="#545454" fill-opacity="1"></use></g><g><use xlink:href="#b4ZUHRd7ET" opacity="1" fill="#545454" fill-opacity="1"></use></g></g></g></svg>