<?xml version="1.0" encoding="UTF-8" standalone="no"?>
<!DOCTYPE svg PUBLIC "-//W3C//DTD SVG 1.1//EN" "http://www.w3.org/Graphics/SVG/1.1/DTD/svg11.dtd">
<svg version="1.1" xmlns="http://www.w3.org/2000/svg" xmlns:xlink="http://www.w3.org/1999/xlink" preserveAspectRatio="xMidYMid meet" viewBox="0 0 256 256" width="256" height="256"><defs><path d="M226.43 255.14L227.13 254.57L227.77 253.96L228.35 253.32L228.86 252.63L229.31 251.91L229.69 251.15L230 250.35L230.23 249.54L230.39 248.7L230.48 247.83L230.5 246.95L230.45 246.05L230.32 245.14L230.14 244.21L229.88 243.26L229.56 242.3L229.17 241.32L228.72 240.34L228.21 239.34L227.64 238.34L227.01 237.33L226.32 236.31L225.57 235.29L224.76 234.27L223.9 233.24L222.99 232.21L222.02 231.18L221 230.15L219.93 229.12L218.81 228.1L217.64 227.08L216.43 226.07L215.16 225.07L213.85 224.07L212.5 223.08L211.1 222.11L209.67 221.14L208.19 220.19L206.67 219.26L205.11 218.34L203.52 217.43L201.89 216.55L200.22 215.68L198.52 214.84L196.79 214.02L195.02 213.22L193.24 212.45L191.47 211.72L189.7 211.03L187.93 210.38L186.18 209.77L184.44 209.2L182.71 208.67L181 208.17L179.3 207.72L177.62 207.3L177.61 207.3L176.96 204.27L175.98 200.21L174.87 195.98L173.61 191.61L172.23 187.08L170.71 182.4L169.06 177.59L167.28 172.65L165.37 167.57L163.34 162.38L161.18 157.07L158.91 151.65L156.51 146.12L154 140.49L151.37 134.77L148.63 128.97L145.77 123.08L142.81 117.11L139.74 111.07L136.56 104.97L133.28 98.81L129.89 92.59L126.4 86.32L126.04 85.68L58.6 126.02L59 126.64L62.87 132.68L66.74 138.6L70.62 144.41L74.5 150.1L78.36 155.66L82.22 161.09L86.06 166.39L89.88 171.56L93.67 176.58L97.44 181.45L101.18 186.18L104.88 190.75L108.54 195.16L112.15 199.4L115.72 203.48L119.24 207.39L122.7 211.12L126.09 214.67L129.43 218.04L132.69 221.21L135.89 224.19L139 226.98L142.04 229.56L144.99 231.93L147.85 234.09L150.62 236.04L153.29 237.77L155.86 239.27L158.33 240.55L160.68 241.59L162.24 242.15L163.66 243.1L165.13 244.05L166.65 244.99L168.21 245.91L169.8 246.81L171.44 247.69L173.1 248.56L174.8 249.4L176.54 250.23L178.3 251.03L180.08 251.79L181.86 252.52L183.63 253.21L185.39 253.86L187.14 254.47L188.88 255.05L190.61 255.58L192.07 256L4 256L3.84 256L3.67 255.99L3.51 255.97L3.35 255.95L3.19 255.92L3.04 255.88L2.89 255.84L2.74 255.8L2.59 255.74L2.44 255.69L2.3 255.62L2.16 255.55L2.03 255.48L1.89 255.4L1.76 255.32L1.64 255.23L1.52 255.13L1.4 255.04L1.28 254.93L1.17 254.83L1.07 254.72L0.96 254.6L0.87 254.48L0.77 254.36L0.68 254.24L0.6 254.11L0.52 253.97L0.45 253.84L0.38 253.7L0.31 253.56L0.26 253.41L0.2 253.26L0.16 253.11L0.12 252.96L0.08 252.81L0.05 252.65L0.03 252.49L0.01 252.33L0 252.16L0 252L0 4L0 3.84L0.01 3.67L0.03 3.51L0.05 3.35L0.08 3.19L0.12 3.04L0.16 2.89L0.2 2.74L0.26 2.59L0.31 2.44L0.38 2.3L0.45 2.16L0.52 2.03L0.6 1.89L0.68 1.76L0.77 1.64L0.87 1.52L0.96 1.4L1.07 1.28L1.17 1.17L1.28 1.07L1.4 0.96L1.52 0.87L1.64 0.77L1.76 0.68L1.89 0.6L2.03 0.52L2.16 0.45L2.3 0.38L2.44 0.31L2.59 0.26L2.74 0.2L2.89 0.16L3.04 0.12L3.19 0.08L3.35 0.05L3.51 0.03L3.67 0.01L3.84 0L4 0L252 0L252.16 0L252.33 0.01L252.49 0.03L252.65 0.05L252.81 0.08L252.96 0.12L253.11 0.16L253.26 0.2L253.41 0.26L253.56 0.31L253.7 0.38L253.84 0.45L253.97 0.52L254.11 0.6L254.24 0.68L254.36 0.77L254.48 0.87L254.6 0.96L254.72 1.07L254.83 1.17L254.93 1.28L255.04 1.4L255.13 1.52L255.23 1.64L255.32 1.76L255.4 1.89L255.48 2.03L255.55 2.16L255.62 2.3L255.69 2.44L255.74 2.59L255.8 2.74L255.84 2.89L255.88 3.04L255.92 3.19L255.95 3.35L255.97 3.51L255.99 3.67L256 3.84L256 4L256 252L256 252.16L255.99 252.33L255.97 252.49L255.95 252.65L255.92 252.81L255.88 252.96L255.84 253.11L255.8 253.26L255.74 253.41L255.69 253.56L255.62 253.7L255.55 253.84L255.48 253.97L255.4 254.11L255.32 254.24L255.23 254.36L255.13 254.48L255.04 254.6L254.93 254.72L254.83 254.83L254.72 254.93L254.6 255.04L254.48 255.13L254.36 255.23L254.24 255.32L254.11 255.4L253.97 255.48L253.84 255.55L253.7 255.62L253.56 255.69L253.41 255.74L253.26 255.8L253.11 255.84L252.96 255.88L252.81 255.92L252.65 255.95L252.49 255.97L252.33 255.99L252.16 256L252 256L225.1 256L225.67 255.66L226.43 255.14ZM61.73 50.65L61.42 50.71L61.12 50.79L60.82 50.89L60.52 51.02L60.23 51.18L59.33 51.72L59.05 51.9L58.8 52.1L58.56 52.31L58.35 52.54L58.15 52.79L57.98 53.05L57.83 53.32L57.7 53.6L57.59 53.88L57.5 54.18L57.44 54.48L57.4 54.78L57.38 55.09L57.39 55.4L57.42 55.71L57.47 56.02L57.55 56.32L57.66 56.62L57.79 56.92L57.95 57.21L77.29 89.53L77.46 89.81L77.54 89.91L39.06 112.93L38.92 113.02L38.78 113.11L38.65 113.21L38.53 113.31L38.41 113.42L38.29 113.53L38.18 113.64L38.08 113.76L37.98 113.88L37.88 114L37.79 114.13L37.71 114.26L37.63 114.39L37.56 114.53L37.49 114.67L37.43 114.81L37.37 114.95L37.32 115.1L37.27 115.24L37.23 115.39L37.2 115.54L37.17 115.69L37.14 115.84L37.13 116L37.12 116.15L37.11 116.3L37.11 116.46L37.12 116.61L37.13 116.77L37.15 116.92L37.17 117.08L37.2 117.23L37.24 117.38L37.28 117.53L37.33 117.69L37.39 117.84L37.45 117.98L37.52 118.13L37.6 118.28L37.68 118.42L40.44 123.04L40.53 123.18L40.62 123.32L40.72 123.45L40.82 123.57L40.93 123.69L41.04 123.81L41.15 123.92L41.27 124.02L41.39 124.12L41.51 124.22L41.64 124.31L41.77 124.39L41.9 124.47L42.04 124.54L42.18 124.61L42.32 124.67L42.46 124.73L42.6 124.78L42.75 124.83L42.9 124.87L43.05 124.9L43.2 124.93L43.35 124.95L43.5 124.97L43.66 124.98L43.81 124.99L43.97 124.99L44.12 124.98L44.28 124.97L44.43 124.95L44.58 124.93L44.74 124.89L44.89 124.86L45.04 124.81L45.19 124.76L45.34 124.71L45.49 124.65L45.64 124.58L45.78 124.5L45.93 124.42L130.62 73.76L130.76 73.67L130.9 73.58L131.03 73.48L131.15 73.38L131.28 73.27L131.39 73.16L131.5 73.05L131.61 72.93L131.71 72.81L131.8 72.69L131.89 72.56L131.97 72.43L132.05 72.3L132.13 72.16L132.19 72.02L132.26 71.88L132.31 71.74L132.36 71.6L132.41 71.45L132.45 71.3L132.49 71.15L132.51 71L132.54 70.85L132.55 70.7L132.57 70.54L132.57 70.39L132.57 70.23L132.56 70.08L132.55 69.92L132.53 69.77L132.51 69.62L132.48 69.46L132.44 69.31L132.4 69.16L132.35 69.01L132.29 68.86L132.23 68.71L132.16 68.56L132.09 68.42L132 68.27L129.24 63.65L129.15 63.51L129.06 63.38L128.96 63.25L128.86 63.12L128.76 63L128.65 62.88L128.53 62.77L128.42 62.67L128.29 62.57L128.17 62.48L128.04 62.39L127.91 62.3L127.78 62.22L127.64 62.15L127.51 62.08L127.36 62.02L127.22 61.96L127.08 61.91L126.93 61.86L126.78 61.82L126.63 61.79L126.48 61.76L126.33 61.74L126.18 61.72L126.02 61.71L125.87 61.7L125.71 61.7L125.56 61.71L125.41 61.72L125.25 61.74L125.1 61.77L124.94 61.8L124.79 61.83L124.64 61.88L124.49 61.93L124.34 61.98L124.19 62.04L124.04 62.11L123.9 62.19L123.75 62.27L85.27 85.29L85.21 85.17L85.06 84.89L65.72 52.56L65.54 52.28L65.34 52.03L65.13 51.79L64.89 51.58L64.65 51.38L64.39 51.21L64.12 51.06L63.84 50.93L63.56 50.82L63.26 50.73L62.96 50.67L62.66 50.63L62.35 50.61L62.04 50.62L61.73 50.65Z" id="m4QHn5EMCQ"></path></defs><g><g><g><use xlink:href="#m4QHn5EMCQ" opacity="1" fill="#65332a" fill-opacity="1"></use></g></g></g></svg>