<?xml version="1.0" encoding="UTF-8" standalone="no"?>
<!DOCTYPE svg PUBLIC "-//W3C//DTD SVG 1.1//EN" "http://www.w3.org/Graphics/SVG/1.1/DTD/svg11.dtd">
<svg version="1.1" xmlns="http://www.w3.org/2000/svg" xmlns:xlink="http://www.w3.org/1999/xlink" preserveAspectRatio="xMidYMid meet" viewBox="0 0 81 103" width="81" height="103"><defs><path d="M40.48 6.16L6.41 6.16L6.41 78.32L40.48 96.95L40.48 6.16Z" id="c3SIevG8Go"></path><path d="M40.48 6.16L74.55 6.16L74.55 78.32L40.48 96.95L40.48 6.16Z" id="c63IGBmq8d"></path><path d="M71.77 5.22L71.93 5.24L72.09 5.26L72.24 5.29L72.39 5.32L72.54 5.36L72.69 5.41L72.84 5.46L72.98 5.52L73.12 5.58L73.26 5.65L73.39 5.72L73.52 5.8L73.65 5.88L73.77 5.97L73.89 6.06L74.01 6.16L74.12 6.26L74.23 6.36L74.33 6.47L74.43 6.58L74.53 6.7L74.62 6.82L74.71 6.94L74.79 7.07L74.87 7.2L74.94 7.33L75.01 7.47L75.07 7.61L75.13 7.75L75.18 7.9L75.22 8.04L75.26 8.19L75.3 8.35L75.33 8.5L75.35 8.66L75.36 8.82L75.37 8.98L75.38 9.14L75.38 76.84L75.37 77L75.36 77.16L75.35 77.32L75.33 77.48L75.3 77.63L75.26 77.78L75.22 77.93L75.18 78.08L75.13 78.23L75.11 78.27L43.26 96.27L42.82 96.5L42.71 96.55L42.6 96.61L42.48 96.65L42.37 96.7L42.25 96.74L42.13 96.78L42.01 96.81L41.89 96.84L41.77 96.87L41.65 96.89L41.53 96.91L41.41 96.92L41.29 96.93L41.16 96.94L41.04 96.95L40.92 96.95L40.8 96.94L40.67 96.93L40.55 96.92L40.43 96.91L40.31 96.89L40.19 96.87L40.07 96.84L39.95 96.81L39.83 96.78L39.71 96.74L39.6 96.7L39.48 96.65L39.36 96.61L39.25 96.55L39.14 96.5L6.76 78.47L6.76 78.47L6.71 78.37L6.66 78.23L6.61 78.08L6.56 77.93L6.52 77.78L6.48 77.63L6.46 77.48L6.43 77.32L6.42 77.16L6.41 77L6.41 76.84L6.41 9.14L6.41 8.98L6.42 8.82L6.43 8.66L6.46 8.5L6.48 8.35L6.52 8.19L6.56 8.04L6.61 7.9L6.66 7.75L6.71 7.61L6.78 7.47L6.84 7.33L6.92 7.2L6.99 7.07L7.08 6.94L7.16 6.82L7.25 6.7L7.35 6.58L7.45 6.47L7.56 6.36L7.66 6.26L7.78 6.16L7.89 6.06L8.01 5.97L8.14 5.88L8.26 5.8L8.39 5.72L8.53 5.65L8.66 5.58L8.8 5.52L8.95 5.46L9.09 5.41L9.24 5.36L9.39 5.32L9.54 5.29L9.7 5.26L9.85 5.24L10.01 5.22L10.17 5.21L10.33 5.21L71.45 5.21L71.61 5.21L71.77 5.22Z" id="aIjFjGfV7"></path><path d="M61.89 18.72L69.92 18.72L69.92 23.14L58.04 23.14L58.04 10.87L61.89 10.87L61.89 10.87L61.89 18.72Z" id="lDqhO54XT"></path><path d="" id="b5RqxezxOi"></path><path d="M21.07 15.25L21.07 10.87L24.95 10.87L24.95 23.14L21.07 23.14L21.07 18.76L16.25 18.76L16.25 23.14L12.37 23.14L12.37 10.87L16.25 10.87L16.25 15.25L21.07 15.25Z" id="p3o0UelKz"></path><path d="M34.71 14.89L34.71 23.14L30.83 23.14L30.83 14.89L26.48 14.89L26.48 10.87L39.06 10.87L39.06 14.89L34.71 14.89Z" id="a61l1fVj"></path><path d="M48.8 15.15L52.59 10.99L52.59 10.87L56.47 10.87L56.47 23.14L52.59 23.14L52.59 17L48.83 21.13L48.8 21.09L48.77 21.13L45.15 17.16L45.15 23.14L41.27 23.14L41.27 10.87L45.15 10.87L45.15 11.15L48.8 15.15Z" id="d2dneeHAH"></path><path d="M36.2 41.83L36.2 47.14L53.6 47.14L53.77 47.14L53.94 47.16L54.11 47.19L54.27 47.22L54.43 47.27L54.59 47.33L54.74 47.4L54.88 47.47L55.02 47.55L55.16 47.65L55.28 47.75L55.4 47.85L55.52 47.97L55.63 48.09L55.73 48.22L55.82 48.35L55.9 48.49L55.98 48.64L56.04 48.79L56.1 48.94L56.15 49.1L56.19 49.26L56.21 49.43L56.23 49.6L56.24 49.77L56.24 78.88L56.23 79.06L56.21 79.23L56.19 79.39L56.15 79.56L56.1 79.72L56.04 79.87L55.98 80.02L55.9 80.17L55.82 80.3L55.73 80.44L55.63 80.57L55.52 80.69L55.4 80.8L55.28 80.91L55.16 81.01L55.02 81.1L54.88 81.19L54.74 81.26L54.59 81.33L54.43 81.38L54.27 81.43L54.11 81.47L53.94 81.5L53.77 81.51L53.6 81.52L27.36 81.52L27.18 81.51L27.01 81.5L26.85 81.47L26.68 81.43L26.52 81.38L26.37 81.33L26.22 81.26L26.07 81.19L25.93 81.1L25.8 81.01L25.67 80.91L25.55 80.8L25.44 80.69L25.33 80.57L25.23 80.44L25.14 80.3L25.05 80.17L24.98 80.02L24.91 79.87L24.86 79.72L24.81 79.56L24.77 79.39L24.74 79.23L24.73 79.06L24.72 78.88L24.72 63L36.11 63L36.11 68.76L36.16 69.34L36.31 69.88L36.55 70.38L36.87 70.83L37.26 71.22L37.71 71.54L38.21 71.78L38.75 71.93L39.33 71.98L42.89 71.98L43.47 71.93L44.02 71.78L44.52 71.54L44.97 71.22L45.36 70.83L45.67 70.38L45.91 69.88L46.06 69.34L46.11 68.76L46.11 59.63L46.06 59.05L45.91 58.5L45.67 58L45.36 57.55L44.97 57.16L44.52 56.84L44.02 56.61L43.47 56.46L42.89 56.41L41.21 56.41L41.21 56.38L24.72 56.38L24.72 28.66L56.24 28.66L56.24 41.83L36.2 41.83Z" id="g2IigFpzYS"></path></defs><g><g><g><use xlink:href="#c3SIevG8Go" opacity="1" fill="#fe7070" fill-opacity="1"></use></g><g><use xlink:href="#c63IGBmq8d" opacity="1" fill="#fbb0b0" fill-opacity="1"></use></g><g><g><filter id="shadow8263237" x="-9.59" y="-10.79" width="100.97" height="124.74" filterUnits="userSpaceOnUse" primitiveUnits="userSpaceOnUse"><feFlood></feFlood><feComposite in2="SourceAlpha" operator="in"></feComposite><feGaussianBlur stdDeviation="2"></feGaussianBlur><feOffset dx="0" dy="1" result="afterOffset"></feOffset><feFlood flood-color="#000000" flood-opacity="0.5"></feFlood><feComposite in2="afterOffset" operator="in"></feComposite><feMorphology operator="dilate" radius="2"></feMorphology><feComposite in2="SourceAlpha" operator="out"></feComposite></filter><path d="M71.77 5.22L71.93 5.24L72.09 5.26L72.24 5.29L72.39 5.32L72.54 5.36L72.69 5.41L72.84 5.46L72.98 5.52L73.12 5.58L73.26 5.65L73.39 5.72L73.52 5.8L73.65 5.88L73.77 5.97L73.89 6.06L74.01 6.16L74.12 6.26L74.23 6.36L74.33 6.47L74.43 6.58L74.53 6.7L74.62 6.82L74.71 6.94L74.79 7.07L74.87 7.2L74.94 7.33L75.01 7.47L75.07 7.61L75.13 7.75L75.18 7.9L75.22 8.04L75.26 8.19L75.3 8.35L75.33 8.5L75.35 8.66L75.36 8.82L75.37 8.98L75.38 9.14L75.38 76.84L75.37 77L75.36 77.16L75.35 77.32L75.33 77.48L75.3 77.63L75.26 77.78L75.22 77.93L75.18 78.08L75.13 78.23L75.11 78.27L43.26 96.27L42.82 96.5L42.71 96.55L42.6 96.61L42.48 96.65L42.37 96.7L42.25 96.74L42.13 96.78L42.01 96.81L41.89 96.84L41.77 96.87L41.65 96.89L41.53 96.91L41.41 96.92L41.29 96.93L41.16 96.94L41.04 96.95L40.92 96.95L40.8 96.94L40.67 96.93L40.55 96.92L40.43 96.91L40.31 96.89L40.19 96.87L40.07 96.84L39.95 96.81L39.83 96.78L39.71 96.74L39.6 96.7L39.48 96.65L39.36 96.61L39.25 96.55L39.14 96.5L6.76 78.47L6.76 78.47L6.71 78.37L6.66 78.23L6.61 78.08L6.56 77.93L6.52 77.78L6.48 77.63L6.46 77.48L6.43 77.32L6.42 77.16L6.41 77L6.41 76.84L6.41 9.14L6.41 8.98L6.42 8.82L6.43 8.66L6.46 8.5L6.48 8.35L6.52 8.19L6.56 8.04L6.61 7.9L6.66 7.75L6.71 7.61L6.78 7.47L6.84 7.33L6.92 7.2L6.99 7.07L7.08 6.94L7.16 6.82L7.25 6.7L7.35 6.58L7.45 6.47L7.56 6.36L7.66 6.26L7.78 6.16L7.89 6.06L8.01 5.97L8.14 5.88L8.26 5.8L8.39 5.72L8.53 5.65L8.66 5.58L8.8 5.52L8.95 5.46L9.09 5.41L9.24 5.36L9.39 5.32L9.54 5.29L9.7 5.26L9.85 5.24L10.01 5.22L10.17 5.21L10.33 5.21L71.45 5.21L71.61 5.21L71.77 5.22Z" id="a6cG4PhHi" fill="white" fill-opacity="1" filter="url(#shadow8263237)"></path></g><g><use xlink:href="#aIjFjGfV7" opacity="1" fill-opacity="0" stroke="#fe7070" stroke-width="7" stroke-opacity="1"></use></g></g><g><use xlink:href="#lDqhO54XT" opacity="1" fill="#545454" fill-opacity="1"></use></g><g><g><use xlink:href="#b5RqxezxOi" opacity="1" fill-opacity="0" stroke="#d7a546" stroke-width="7" stroke-opacity="1"></use></g></g><g><use xlink:href="#p3o0UelKz" opacity="1" fill="#545454" fill-opacity="1"></use></g><g><use xlink:href="#a61l1fVj" opacity="1" fill="#545454" fill-opacity="1"></use></g><g><use xlink:href="#d2dneeHAH" opacity="1" fill="#545454" fill-opacity="1"></use></g><g><use xlink:href="#g2IigFpzYS" opacity="1" fill="#545454" fill-opacity="1"></use></g></g></g></svg>