<?xml version="1.0" encoding="UTF-8" standalone="no"?>
<!DOCTYPE svg PUBLIC "-//W3C//DTD SVG 1.1//EN" "http://www.w3.org/Graphics/SVG/1.1/DTD/svg11.dtd">
<svg version="1.1" xmlns="http://www.w3.org/2000/svg" xmlns:xlink="http://www.w3.org/1999/xlink" preserveAspectRatio="xMidYMid meet" viewBox="0 0 80 103" width="80" height="103"><defs><path d="" id="d3PjjKNUvs"></path><path d="M39.59 6.58L73.66 6.58L73.66 78.75L39.59 97.37L39.59 6.58Z" id="a4CApxX9U"></path><path d="M70.95 5.65L71.11 5.66L71.27 5.68L71.42 5.71L71.58 5.75L71.73 5.79L71.87 5.83L72.02 5.88L72.16 5.94L72.3 6L72.44 6.07L72.57 6.14L72.7 6.22L72.83 6.3L72.95 6.39L73.07 6.48L73.19 6.58L73.3 6.68L73.41 6.78L73.51 6.89L73.61 7L73.71 7.12L73.8 7.24L73.89 7.36L73.97 7.49L74.05 7.62L74.12 7.75L74.19 7.89L74.25 8.03L74.31 8.17L74.36 8.32L74.41 8.47L74.45 8.62L74.48 8.77L74.51 8.92L74.53 9.08L74.55 9.24L74.56 9.4L74.56 9.56L74.56 77.26L74.56 77.42L74.55 77.59L74.53 77.74L74.51 77.9L74.48 78.05L74.45 78.21L74.41 78.36L74.36 78.5L74.31 78.65L74.29 78.69L42.44 96.7L42.01 96.92L41.89 96.98L41.78 97.03L41.66 97.08L41.55 97.12L41.43 97.16L41.31 97.2L41.19 97.23L41.07 97.26L40.95 97.29L40.83 97.31L40.71 97.33L40.59 97.35L40.47 97.36L40.35 97.36L40.22 97.37L40.1 97.37L39.98 97.36L39.86 97.36L39.74 97.35L39.61 97.33L39.49 97.31L39.37 97.29L39.25 97.26L39.13 97.23L39.01 97.2L38.89 97.16L38.78 97.12L38.66 97.08L38.55 97.03L38.43 96.98L38.33 96.92L5.94 78.89L5.9 78.79L5.84 78.65L5.79 78.5L5.74 78.36L5.7 78.21L5.67 78.05L5.64 77.9L5.62 77.74L5.6 77.59L5.59 77.42L5.59 77.26L5.59 9.56L5.59 9.4L5.6 9.24L5.62 9.08L5.64 8.92L5.67 8.77L5.7 8.62L5.74 8.47L5.79 8.32L5.84 8.17L5.9 8.03L5.96 7.89L6.03 7.75L6.1 7.62L6.18 7.49L6.26 7.36L6.35 7.24L6.44 7.12L6.53 7L6.63 6.89L6.74 6.78L6.85 6.68L6.96 6.58L7.08 6.48L7.2 6.39L7.32 6.3L7.45 6.22L7.58 6.14L7.71 6.07L7.85 6L7.99 5.94L8.13 5.88L8.27 5.83L8.42 5.79L8.57 5.75L8.72 5.71L8.88 5.68L9.03 5.66L9.19 5.65L9.35 5.64L9.51 5.63L70.63 5.63L70.79 5.64L70.95 5.65Z" id="e7Pu5ugTU"></path><path d="M39.59 6.58L5.51 6.58L5.51 78.75L39.59 97.37L39.59 6.58Z" id="d2L4sxGOxW"></path><path d="M26.09 19.14L34.89 19.14L34.89 11.3L39.1 11.3L39.1 23.56L26.09 23.56L26.09 19.14Z" id="c2vIG0dkxc"></path><path d="M46.51 15.12L53.02 19.88L53.09 19.88L53.09 23.7L51.99 23.7L51.91 23.81L51.77 23.7L40.07 23.7L40.07 19.88L46.56 19.88L40.07 15.14L40.09 15.12L40.07 15.12L40.07 11.3L53.09 11.3L53.09 15.12L46.51 15.12Z" id="akvkiH2eF"></path><path d="M41.17 86.04L28.87 81.61L41.4 46.8L23.83 46.8L23.83 33.18L55.34 33.18L55.34 46.8L55.3 46.8L41.17 86.04Z" id="c3oXzVeHZx"></path><path d="" id="acgM0FSsw"></path></defs><g><g><g><g><use xlink:href="#d3PjjKNUvs" opacity="1" fill-opacity="0" stroke="#d7a546" stroke-width="7" stroke-opacity="1"></use></g></g><g><use xlink:href="#a4CApxX9U" opacity="1" fill="#fff3c3" fill-opacity="1"></use></g><g><g><filter id="shadow2307363" x="-10.41" y="-10.37" width="100.97" height="124.74" filterUnits="userSpaceOnUse" primitiveUnits="userSpaceOnUse"><feFlood></feFlood><feComposite in2="SourceAlpha" operator="in"></feComposite><feGaussianBlur stdDeviation="2"></feGaussianBlur><feOffset dx="0" dy="1" result="afterOffset"></feOffset><feFlood flood-color="#000000" flood-opacity="0.5"></feFlood><feComposite in2="afterOffset" operator="in"></feComposite><feMorphology operator="dilate" radius="2"></feMorphology><feComposite in2="SourceAlpha" operator="out"></feComposite></filter><path d="M70.95 5.65L71.11 5.66L71.27 5.68L71.42 5.71L71.58 5.75L71.73 5.79L71.87 5.83L72.02 5.88L72.16 5.94L72.3 6L72.44 6.07L72.57 6.14L72.7 6.22L72.83 6.3L72.95 6.39L73.07 6.48L73.19 6.58L73.3 6.68L73.41 6.78L73.51 6.89L73.61 7L73.71 7.12L73.8 7.24L73.89 7.36L73.97 7.49L74.05 7.62L74.12 7.75L74.19 7.89L74.25 8.03L74.31 8.17L74.36 8.32L74.41 8.47L74.45 8.62L74.48 8.77L74.51 8.92L74.53 9.08L74.55 9.24L74.56 9.4L74.56 9.56L74.56 77.26L74.56 77.42L74.55 77.59L74.53 77.74L74.51 77.9L74.48 78.05L74.45 78.21L74.41 78.36L74.36 78.5L74.31 78.65L74.29 78.69L42.44 96.7L42.01 96.92L41.89 96.98L41.78 97.03L41.66 97.08L41.55 97.12L41.43 97.16L41.31 97.2L41.19 97.23L41.07 97.26L40.95 97.29L40.83 97.31L40.71 97.33L40.59 97.35L40.47 97.36L40.35 97.36L40.22 97.37L40.1 97.37L39.98 97.36L39.86 97.36L39.74 97.35L39.61 97.33L39.49 97.31L39.37 97.29L39.25 97.26L39.13 97.23L39.01 97.2L38.89 97.16L38.78 97.12L38.66 97.08L38.55 97.03L38.43 96.98L38.33 96.92L5.94 78.89L5.9 78.79L5.84 78.65L5.79 78.5L5.74 78.36L5.7 78.21L5.67 78.05L5.64 77.9L5.62 77.74L5.6 77.59L5.59 77.42L5.59 77.26L5.59 9.56L5.59 9.4L5.6 9.24L5.62 9.08L5.64 8.92L5.67 8.77L5.7 8.62L5.74 8.47L5.79 8.32L5.84 8.17L5.9 8.03L5.96 7.89L6.03 7.75L6.1 7.62L6.18 7.49L6.26 7.36L6.35 7.24L6.44 7.12L6.53 7L6.63 6.89L6.74 6.78L6.85 6.68L6.96 6.58L7.08 6.48L7.2 6.39L7.32 6.3L7.45 6.22L7.58 6.14L7.71 6.07L7.85 6L7.99 5.94L8.13 5.88L8.27 5.83L8.42 5.79L8.57 5.75L8.72 5.71L8.88 5.68L9.03 5.66L9.19 5.65L9.35 5.64L9.51 5.63L70.63 5.63L70.79 5.64L70.95 5.65Z" id="d3kfDMlieW" fill="white" fill-opacity="1" filter="url(#shadow2307363)"></path></g><use xlink:href="#e7Pu5ugTU" opacity="1" fill="#fbd2b1" fill-opacity="1"></use><g><use xlink:href="#e7Pu5ugTU" opacity="1" fill-opacity="0" stroke="#ffa054" stroke-width="7" stroke-opacity="1"></use></g></g><g><use xlink:href="#d2L4sxGOxW" opacity="1" fill="#ffa054" fill-opacity="1"></use></g><g><use xlink:href="#c2vIG0dkxc" opacity="1" fill="#545454" fill-opacity="1"></use></g><g><use xlink:href="#akvkiH2eF" opacity="1" fill="#545454" fill-opacity="1"></use></g><g><use xlink:href="#c3oXzVeHZx" opacity="1" fill="#545454" fill-opacity="1"></use></g><g><g><use xlink:href="#acgM0FSsw" opacity="1" fill-opacity="0" stroke="#d7a546" stroke-width="7" stroke-opacity="1"></use></g></g></g></g></svg>