<?xml version="1.0" encoding="UTF-8" standalone="no"?>
<!DOCTYPE svg PUBLIC "-//W3C//DTD SVG 1.1//EN" "http://www.w3.org/Graphics/SVG/1.1/DTD/svg11.dtd">
<svg version="1.1" xmlns="http://www.w3.org/2000/svg" xmlns:xlink="http://www.w3.org/1999/xlink" preserveAspectRatio="xMidYMid meet" viewBox="0 0 136 98" width="136" height="98"><defs><path d="M89.61 2.23L89.85 2.26L90.09 2.29L90.33 2.34L90.56 2.39L90.79 2.46L91.01 2.53L91.24 2.61L91.45 2.7L91.67 2.8L91.87 2.9L92.08 3.01L92.28 3.14L92.47 3.27L92.66 3.4L92.84 3.55L93.01 3.7L93.18 3.85L93.35 4.02L93.5 4.19L93.65 4.36L93.8 4.54L93.93 4.73L94.06 4.92L94.19 5.12L94.3 5.33L94.4 5.53L94.5 5.75L94.59 5.96L94.67 6.19L94.74 6.41L94.81 6.64L94.86 6.87L94.91 7.11L94.94 7.35L94.97 7.59L94.98 7.84L94.99 8.09L94.99 41.01L94.98 41.26L94.97 41.51L94.94 41.75L94.91 41.99L94.86 42.23L94.81 42.46L94.74 42.69L94.67 42.92L94.59 43.14L94.5 43.35L94.4 43.57L94.3 43.78L94.19 43.98L94.06 44.18L93.93 44.37L93.8 44.56L93.65 44.74L93.5 44.92L93.35 45.09L93.18 45.25L93.01 45.41L92.84 45.56L92.66 45.7L92.47 45.84L92.28 45.96L92.08 46.09L91.87 46.2L91.67 46.31L91.45 46.4L91.24 46.49L91.01 46.57L90.79 46.65L90.56 46.71L90.33 46.76L90.09 46.81L89.85 46.84L89.61 46.87L89.36 46.88L89.11 46.89L45.73 46.89L45.73 46.89L38.45 46.89L38.22 46.9L38 46.92L37.79 46.96L37.58 47.02L37.38 47.1L37.18 47.18L36.99 47.28L36.81 47.4L36.64 47.52L36.48 47.66L36.34 47.81L36.2 47.97L36.07 48.14L35.96 48.32L35.86 48.51L35.77 48.7L35.7 48.9L35.64 49.11L35.6 49.33L35.57 49.55L35.56 49.78L35.56 67.07L10.07 67.07L9.8 67.07L9.52 67.05L9.25 67.02L8.98 66.99L8.71 66.94L8.45 66.88L8.19 66.81L7.94 66.73L7.69 66.64L7.45 66.54L7.21 66.44L6.97 66.32L6.74 66.2L6.52 66.06L6.3 65.92L6.09 65.77L5.88 65.62L5.68 65.45L5.49 65.28L5.3 65.1L5.12 64.91L4.95 64.72L4.78 64.52L4.63 64.31L4.48 64.1L4.34 63.88L4.2 63.66L4.08 63.43L3.96 63.19L3.86 62.95L3.76 62.71L3.67 62.46L3.59 62.21L3.52 61.95L3.46 61.69L3.41 61.42L3.38 61.15L3.35 60.88L3.33 60.6L3.33 60.33L3.33 35.83L3.33 35.6L3.34 35.38L3.37 35.15L3.4 34.93L3.45 34.72L3.5 34.5L3.56 34.3L3.63 34.09L3.71 33.89L3.79 33.69L3.89 33.5L3.99 33.31L4.1 33.13L4.21 32.95L4.34 32.77L4.47 32.61L4.61 32.44L4.75 32.29L4.9 32.14L5.06 31.99L5.22 31.86L5.39 31.73L5.56 31.6L5.74 31.49L5.92 31.38L6.11 31.27L6.3 31.18L6.5 31.09L6.7 31.02L6.91 30.95L7.12 30.89L7.33 30.83L7.55 30.79L7.77 30.76L7.99 30.73L8.21 30.72L8.44 30.71L66.87 30.71L67.11 30.7L67.34 30.67L67.56 30.61L67.77 30.53L67.97 30.43L68.16 30.32L68.34 30.19L68.51 30.04L68.66 29.87L68.79 29.69L68.9 29.5L69 29.3L69.08 29.09L69.14 28.87L69.17 28.64L69.18 28.4L69.17 28.17L69.14 27.94L69.08 27.71L69 27.5L68.9 27.3L68.79 27.11L68.66 26.93L68.51 26.77L68.34 26.62L68.16 26.49L67.97 26.37L67.77 26.27L67.56 26.2L67.34 26.14L67.11 26.1L66.87 26.09L35.68 26.09L35.68 8.09L35.68 7.84L35.7 7.59L35.72 7.35L35.76 7.11L35.8 6.87L35.86 6.64L35.92 6.41L35.99 6.19L36.07 5.96L36.16 5.75L36.26 5.53L36.36 5.33L36.48 5.12L36.6 4.92L36.73 4.73L36.87 4.54L37.01 4.36L37.16 4.19L37.32 4.02L37.48 3.85L37.65 3.7L37.83 3.55L38.01 3.4L38.2 3.27L38.39 3.14L38.59 3.01L38.79 2.9L39 2.8L39.21 2.7L39.43 2.61L39.65 2.53L39.88 2.46L40.1 2.39L40.34 2.34L40.57 2.29L40.81 2.26L41.06 2.23L41.3 2.22L41.55 2.21L89.11 2.21L89.36 2.22L89.61 2.23ZM45.09 10.63L44.08 11.44L43.29 12.49L42.79 13.73L42.61 15.11L42.79 16.5L43.29 17.74L44.08 18.79L45.09 19.6L46.29 20.13L47.62 20.31L48.95 20.13L50.14 19.6L51.16 18.79L51.94 17.74L52.44 16.5L52.62 15.11L52.44 13.73L51.94 12.49L51.16 11.44L50.14 10.63L48.95 10.1L47.62 9.92L46.29 10.1L45.09 10.63Z" id="awrg84mKp"></path><path d="M126.48 31.11L126.75 31.14L127.02 31.18L127.29 31.22L127.55 31.28L127.81 31.35L128.06 31.43L128.31 31.52L128.55 31.62L128.79 31.73L129.03 31.84L129.26 31.97L129.48 32.1L129.7 32.24L129.91 32.39L130.12 32.55L130.32 32.71L130.51 32.88L130.7 33.06L130.88 33.25L131.05 33.44L131.22 33.64L131.37 33.85L131.52 34.06L131.66 34.28L131.8 34.51L131.92 34.73L132.04 34.97L132.14 35.21L132.24 35.45L132.33 35.7L132.41 35.96L132.48 36.21L132.54 36.48L132.59 36.74L132.62 37.01L132.65 37.28L132.67 37.56L132.67 37.84L132.67 62.33L132.67 62.56L132.66 62.79L132.63 63.01L132.6 63.23L132.55 63.45L132.5 63.66L132.44 63.87L132.37 64.07L132.29 64.28L132.21 64.47L132.11 64.67L132.01 64.85L131.9 65.04L131.79 65.22L131.66 65.39L131.53 65.56L131.39 65.72L131.25 65.88L131.1 66.03L130.94 66.17L130.78 66.31L130.61 66.44L130.44 66.56L130.26 66.68L130.08 66.79L129.89 66.89L129.7 66.98L129.5 67.07L129.3 67.15L129.09 67.22L128.88 67.28L128.67 67.33L128.45 67.37L128.23 67.41L128.01 67.43L127.79 67.45L127.56 67.45L69.13 67.45L68.89 67.46L68.66 67.5L68.44 67.55L68.23 67.63L68.03 67.73L67.84 67.84L67.66 67.98L67.49 68.13L67.34 68.29L67.21 68.47L67.1 68.66L67 68.86L66.92 69.07L66.86 69.3L66.83 69.52L66.82 69.76L66.83 70L66.86 70.23L66.92 70.45L67 70.66L67.1 70.86L67.21 71.05L67.34 71.23L67.49 71.39L67.66 71.54L67.84 71.68L68.03 71.79L68.23 71.89L68.44 71.97L68.66 72.02L68.89 72.06L69.13 72.07L100.32 72.07L100.32 90.07L100.32 90.32L100.3 90.57L100.28 90.81L100.24 91.05L100.2 91.29L100.14 91.52L100.08 91.75L100.01 91.98L99.93 92.2L99.84 92.42L99.74 92.63L99.64 92.84L99.52 93.04L99.4 93.24L99.27 93.43L99.13 93.62L98.99 93.8L98.84 93.98L98.68 94.15L98.52 94.31L98.35 94.47L98.17 94.62L97.99 94.76L97.8 94.9L97.61 95.03L97.41 95.15L97.21 95.26L97 95.37L96.79 95.47L96.57 95.55L96.35 95.64L96.12 95.71L95.9 95.77L95.66 95.82L95.43 95.87L95.19 95.9L94.94 95.93L94.7 95.94L94.45 95.95L46.89 95.95L46.64 95.94L46.39 95.93L46.15 95.9L45.91 95.87L45.67 95.82L45.44 95.77L45.21 95.71L44.99 95.64L44.76 95.55L44.55 95.47L44.33 95.37L44.13 95.26L43.92 95.15L43.72 95.03L43.53 94.9L43.34 94.76L43.16 94.62L42.99 94.47L42.82 94.31L42.65 94.15L42.5 93.98L42.35 93.8L42.2 93.62L42.07 93.43L41.94 93.24L41.81 93.04L41.7 92.84L41.6 92.63L41.5 92.42L41.41 92.2L41.33 91.98L41.26 91.75L41.19 91.52L41.14 91.29L41.09 91.05L41.06 90.81L41.03 90.57L41.02 90.32L41.01 90.07L41.01 57.15L41.02 56.9L41.03 56.66L41.06 56.41L41.09 56.17L41.14 55.94L41.19 55.7L41.26 55.47L41.33 55.25L41.41 55.03L41.5 54.81L41.6 54.6L41.7 54.39L41.81 54.18L41.94 53.99L42.07 53.79L42.2 53.61L42.35 53.42L42.5 53.25L42.65 53.08L42.82 52.91L42.99 52.76L43.16 52.61L43.34 52.46L43.53 52.33L43.72 52.2L43.92 52.08L44.13 51.96L44.33 51.86L44.55 51.76L44.76 51.67L44.99 51.59L45.21 51.52L45.44 51.45L45.67 51.4L45.91 51.36L46.15 51.32L46.39 51.29L46.64 51.28L46.89 51.27L90.27 51.27L90.27 51.27L97.55 51.27L97.78 51.27L98 51.24L98.21 51.2L98.42 51.14L98.62 51.07L98.82 50.98L99.01 50.88L99.19 50.77L99.36 50.64L99.52 50.5L99.66 50.35L99.8 50.19L99.93 50.02L100.04 49.84L100.14 49.66L100.23 49.46L100.3 49.26L100.36 49.05L100.4 48.83L100.43 48.61L100.44 48.39L100.44 31.09L125.93 31.09L126.2 31.09L126.48 31.11ZM85.86 78.56L84.84 79.37L84.06 80.42L83.56 81.67L83.38 83.05L83.56 84.43L84.06 85.67L84.84 86.72L85.86 87.54L87.05 88.06L88.38 88.25L89.71 88.06L90.91 87.54L91.92 86.72L92.71 85.67L93.21 84.43L93.39 83.05L93.21 81.67L92.71 80.42L91.92 79.37L90.91 78.56L89.71 78.03L88.38 77.85L87.05 78.03L85.86 78.56Z" id="ckNo4kwEN"></path></defs><g><g><g><g><filter id="shadow13890721" x="-3.67" y="-4.79" width="105.66" height="78.86" filterUnits="userSpaceOnUse" primitiveUnits="userSpaceOnUse"><feFlood></feFlood><feComposite in2="SourceAlpha" operator="in"></feComposite><feGaussianBlur stdDeviation="1"></feGaussianBlur><feOffset dx="0" dy="0" result="afterOffset"></feOffset><feFlood flood-color="#000000" flood-opacity="0.3"></feFlood><feComposite in2="afterOffset" operator="in"></feComposite><feMorphology operator="dilate" radius="0"></feMorphology><feComposite in2="SourceAlpha" operator="out"></feComposite></filter><path d="M89.61 2.23L89.85 2.26L90.09 2.29L90.33 2.34L90.56 2.39L90.79 2.46L91.01 2.53L91.24 2.61L91.45 2.7L91.67 2.8L91.87 2.9L92.08 3.01L92.28 3.14L92.47 3.27L92.66 3.4L92.84 3.55L93.01 3.7L93.18 3.85L93.35 4.02L93.5 4.19L93.65 4.36L93.8 4.54L93.93 4.73L94.06 4.92L94.19 5.12L94.3 5.33L94.4 5.53L94.5 5.75L94.59 5.96L94.67 6.19L94.74 6.41L94.81 6.64L94.86 6.87L94.91 7.11L94.94 7.35L94.97 7.59L94.98 7.84L94.99 8.09L94.99 41.01L94.98 41.26L94.97 41.51L94.94 41.75L94.91 41.99L94.86 42.23L94.81 42.46L94.74 42.69L94.67 42.92L94.59 43.14L94.5 43.35L94.4 43.57L94.3 43.78L94.19 43.98L94.06 44.18L93.93 44.37L93.8 44.56L93.65 44.74L93.5 44.92L93.35 45.09L93.18 45.25L93.01 45.41L92.84 45.56L92.66 45.7L92.47 45.84L92.28 45.96L92.08 46.09L91.87 46.2L91.67 46.31L91.45 46.4L91.24 46.49L91.01 46.57L90.79 46.65L90.56 46.71L90.33 46.76L90.09 46.81L89.85 46.84L89.61 46.87L89.36 46.88L89.11 46.89L45.73 46.89L45.73 46.89L38.45 46.89L38.22 46.9L38 46.92L37.79 46.96L37.58 47.02L37.38 47.1L37.18 47.18L36.99 47.28L36.81 47.4L36.64 47.52L36.48 47.66L36.34 47.81L36.2 47.97L36.07 48.14L35.96 48.32L35.86 48.51L35.77 48.7L35.7 48.9L35.64 49.11L35.6 49.33L35.57 49.55L35.56 49.78L35.56 67.07L10.07 67.07L9.8 67.07L9.52 67.05L9.25 67.02L8.98 66.99L8.71 66.94L8.45 66.88L8.19 66.81L7.94 66.73L7.69 66.64L7.45 66.54L7.21 66.44L6.97 66.32L6.74 66.2L6.52 66.06L6.3 65.92L6.09 65.77L5.88 65.62L5.68 65.45L5.49 65.28L5.3 65.1L5.12 64.91L4.95 64.72L4.78 64.52L4.63 64.31L4.48 64.1L4.34 63.88L4.2 63.66L4.08 63.43L3.96 63.19L3.86 62.95L3.76 62.71L3.67 62.46L3.59 62.21L3.52 61.95L3.46 61.69L3.41 61.42L3.38 61.15L3.35 60.88L3.33 60.6L3.33 60.33L3.33 35.83L3.33 35.6L3.34 35.38L3.37 35.15L3.4 34.93L3.45 34.72L3.5 34.5L3.56 34.3L3.63 34.09L3.71 33.89L3.79 33.69L3.89 33.5L3.99 33.31L4.1 33.13L4.21 32.95L4.34 32.77L4.47 32.61L4.61 32.44L4.75 32.29L4.9 32.14L5.06 31.99L5.22 31.86L5.39 31.73L5.56 31.6L5.74 31.49L5.92 31.38L6.11 31.27L6.3 31.18L6.5 31.09L6.7 31.02L6.91 30.95L7.12 30.89L7.33 30.83L7.55 30.79L7.77 30.76L7.99 30.73L8.21 30.72L8.44 30.71L66.87 30.71L67.11 30.7L67.34 30.67L67.56 30.61L67.77 30.53L67.97 30.43L68.16 30.32L68.34 30.19L68.51 30.04L68.66 29.87L68.79 29.69L68.9 29.5L69 29.3L69.08 29.09L69.14 28.87L69.17 28.64L69.18 28.4L69.17 28.17L69.14 27.94L69.08 27.71L69 27.5L68.9 27.3L68.79 27.11L68.66 26.93L68.51 26.77L68.34 26.62L68.16 26.49L67.97 26.37L67.77 26.27L67.56 26.2L67.34 26.14L67.11 26.1L66.87 26.09L35.68 26.09L35.68 8.09L35.68 7.84L35.7 7.59L35.72 7.35L35.76 7.11L35.8 6.87L35.86 6.64L35.92 6.41L35.99 6.19L36.07 5.96L36.16 5.75L36.26 5.53L36.36 5.33L36.48 5.12L36.6 4.92L36.73 4.73L36.87 4.54L37.01 4.36L37.16 4.19L37.32 4.02L37.48 3.85L37.65 3.7L37.83 3.55L38.01 3.4L38.2 3.27L38.39 3.14L38.59 3.01L38.79 2.9L39 2.8L39.21 2.7L39.43 2.61L39.65 2.53L39.88 2.46L40.1 2.39L40.34 2.34L40.57 2.29L40.81 2.26L41.06 2.23L41.3 2.22L41.55 2.21L89.11 2.21L89.36 2.22L89.61 2.23ZM45.09 10.63L44.08 11.44L43.29 12.49L42.79 13.73L42.61 15.11L42.79 16.5L43.29 17.74L44.08 18.79L45.09 19.6L46.29 20.13L47.62 20.31L48.95 20.13L50.14 19.6L51.16 18.79L51.94 17.74L52.44 16.5L52.62 15.11L52.44 13.73L51.94 12.49L51.16 11.44L50.14 10.63L48.95 10.1L47.62 9.92L46.29 10.1L45.09 10.63Z" id="a2f3NA8rK8" fill="white" fill-opacity="1" filter="url(#shadow13890721)"></path></g><use xlink:href="#awrg84mKp" opacity="1" fill="#7080ea" fill-opacity="1"></use></g><g><g><filter id="shadow5927745" x="34.01" y="24.09" width="105.66" height="78.86" filterUnits="userSpaceOnUse" primitiveUnits="userSpaceOnUse"><feFlood></feFlood><feComposite in2="SourceAlpha" operator="in"></feComposite><feGaussianBlur stdDeviation="1"></feGaussianBlur><feOffset dx="0" dy="0" result="afterOffset"></feOffset><feFlood flood-color="#000000" flood-opacity="0.3"></feFlood><feComposite in2="afterOffset" operator="in"></feComposite><feMorphology operator="dilate" radius="0"></feMorphology><feComposite in2="SourceAlpha" operator="out"></feComposite></filter><path d="M126.48 31.11L126.75 31.14L127.02 31.18L127.29 31.22L127.55 31.28L127.81 31.35L128.06 31.43L128.31 31.52L128.55 31.62L128.79 31.73L129.03 31.84L129.26 31.97L129.48 32.1L129.7 32.24L129.91 32.39L130.12 32.55L130.32 32.71L130.51 32.88L130.7 33.06L130.88 33.25L131.05 33.44L131.22 33.64L131.37 33.85L131.52 34.06L131.66 34.28L131.8 34.51L131.92 34.73L132.04 34.97L132.14 35.21L132.24 35.45L132.33 35.7L132.41 35.96L132.48 36.21L132.54 36.48L132.59 36.74L132.62 37.01L132.65 37.28L132.67 37.56L132.67 37.84L132.67 62.33L132.67 62.56L132.66 62.79L132.63 63.01L132.6 63.23L132.55 63.45L132.5 63.66L132.44 63.87L132.37 64.07L132.29 64.28L132.21 64.47L132.11 64.67L132.01 64.85L131.9 65.04L131.79 65.22L131.66 65.39L131.53 65.56L131.39 65.72L131.25 65.88L131.1 66.03L130.94 66.17L130.78 66.31L130.61 66.44L130.44 66.56L130.26 66.68L130.08 66.79L129.89 66.89L129.7 66.98L129.5 67.07L129.3 67.15L129.09 67.22L128.88 67.28L128.67 67.33L128.45 67.37L128.23 67.41L128.01 67.43L127.79 67.45L127.56 67.45L69.13 67.45L68.89 67.46L68.66 67.5L68.44 67.55L68.23 67.63L68.03 67.73L67.84 67.84L67.66 67.98L67.49 68.13L67.34 68.29L67.21 68.47L67.1 68.66L67 68.86L66.92 69.07L66.86 69.3L66.83 69.52L66.82 69.76L66.83 70L66.86 70.23L66.92 70.45L67 70.66L67.1 70.86L67.21 71.05L67.34 71.23L67.49 71.39L67.66 71.54L67.84 71.68L68.03 71.79L68.23 71.89L68.44 71.97L68.66 72.02L68.89 72.06L69.13 72.07L100.32 72.07L100.32 90.07L100.32 90.32L100.3 90.57L100.28 90.81L100.24 91.05L100.2 91.29L100.14 91.52L100.08 91.75L100.01 91.98L99.93 92.2L99.84 92.42L99.74 92.63L99.64 92.84L99.52 93.04L99.4 93.24L99.27 93.43L99.13 93.62L98.99 93.8L98.84 93.98L98.68 94.15L98.52 94.31L98.35 94.47L98.17 94.62L97.99 94.76L97.8 94.9L97.61 95.03L97.41 95.15L97.21 95.26L97 95.37L96.79 95.47L96.57 95.55L96.35 95.64L96.12 95.71L95.9 95.77L95.66 95.82L95.43 95.87L95.19 95.9L94.94 95.93L94.7 95.94L94.45 95.95L46.89 95.95L46.64 95.94L46.39 95.93L46.15 95.9L45.91 95.87L45.67 95.82L45.44 95.77L45.21 95.71L44.99 95.64L44.76 95.55L44.55 95.47L44.33 95.37L44.13 95.26L43.92 95.15L43.72 95.03L43.53 94.9L43.34 94.76L43.16 94.62L42.99 94.47L42.82 94.31L42.65 94.15L42.5 93.98L42.35 93.8L42.2 93.62L42.07 93.43L41.94 93.24L41.81 93.04L41.7 92.84L41.6 92.63L41.5 92.42L41.41 92.2L41.33 91.98L41.26 91.75L41.19 91.52L41.14 91.29L41.09 91.05L41.06 90.81L41.03 90.57L41.02 90.32L41.01 90.07L41.01 57.15L41.02 56.9L41.03 56.66L41.06 56.41L41.09 56.17L41.14 55.94L41.19 55.7L41.26 55.47L41.33 55.25L41.41 55.03L41.5 54.81L41.6 54.6L41.7 54.39L41.81 54.18L41.94 53.99L42.07 53.79L42.2 53.61L42.35 53.42L42.5 53.25L42.65 53.08L42.82 52.91L42.99 52.76L43.16 52.61L43.34 52.46L43.53 52.33L43.72 52.2L43.92 52.08L44.13 51.96L44.33 51.86L44.55 51.76L44.76 51.67L44.99 51.59L45.21 51.52L45.44 51.45L45.67 51.4L45.91 51.36L46.15 51.32L46.39 51.29L46.64 51.28L46.89 51.27L90.27 51.27L90.27 51.27L97.55 51.27L97.78 51.27L98 51.24L98.21 51.2L98.42 51.14L98.62 51.07L98.82 50.98L99.01 50.88L99.19 50.77L99.36 50.64L99.52 50.5L99.66 50.35L99.8 50.19L99.93 50.02L100.04 49.84L100.14 49.66L100.23 49.46L100.3 49.26L100.36 49.05L100.4 48.83L100.43 48.61L100.44 48.39L100.44 31.09L125.93 31.09L126.2 31.09L126.48 31.11ZM85.86 78.56L84.84 79.37L84.06 80.42L83.56 81.67L83.38 83.05L83.56 84.43L84.06 85.67L84.84 86.72L85.86 87.54L87.05 88.06L88.38 88.25L89.71 88.06L90.91 87.54L91.92 86.72L92.71 85.67L93.21 84.43L93.39 83.05L93.21 81.67L92.71 80.42L91.92 79.37L90.91 78.56L89.71 78.03L88.38 77.85L87.05 78.03L85.86 78.56Z" id="cqczhBQ3A" fill="white" fill-opacity="1" filter="url(#shadow5927745)"></path></g><use xlink:href="#ckNo4kwEN" opacity="1" fill="#f5d06c" fill-opacity="1"></use></g></g></g></svg>