<?xml version="1.0" encoding="UTF-8" standalone="no"?>
<!DOCTYPE svg PUBLIC "-//W3C//DTD SVG 1.1//EN" "http://www.w3.org/Graphics/SVG/1.1/DTD/svg11.dtd">
<svg version="1.1" xmlns="http://www.w3.org/2000/svg" xmlns:xlink="http://www.w3.org/1999/xlink" preserveAspectRatio="xMidYMid meet" viewBox="0 0 256 256" width="256" height="256"><defs><path d="M152.74 247.43L151.46 243.14L150.37 238.78L149.48 234.35L148.78 229.84L148.29 225.28L148 220.65L147.91 215.97L148.03 211.24L148.36 206.47L148.9 201.65L149.66 196.79L150.64 191.91L151.84 186.99L153.27 182.06L154.92 177.1L156.79 172.18L158.84 167.34L161.08 162.58L163.5 157.91L166.1 153.34L168.86 148.86L171.79 144.48L174.87 140.2L178.11 136.03L181.5 131.96L185.03 128.01L188.69 124.17L192.48 120.45L196.4 116.85L200.44 113.37L204.6 110.03L208.86 106.81L213.23 103.73L217.69 100.79L222.25 97.98L226.9 95.32L231.62 92.81L236.42 90.45L241.3 88.24L246.23 86.19L251.23 84.3L256 82.68L256 252L256 252.16L255.99 252.33L255.97 252.49L255.95 252.65L255.92 252.81L255.88 252.96L255.84 253.11L255.8 253.26L255.74 253.41L255.69 253.56L255.62 253.7L255.55 253.84L255.48 253.97L255.4 254.11L255.32 254.24L255.23 254.36L255.13 254.48L255.04 254.6L254.93 254.72L254.83 254.83L254.72 254.93L254.6 255.04L254.48 255.13L254.36 255.23L254.24 255.32L254.11 255.4L253.97 255.48L253.84 255.55L253.7 255.62L253.56 255.69L253.41 255.74L253.26 255.8L253.11 255.84L252.96 255.88L252.81 255.92L252.65 255.95L252.49 255.97L252.33 255.99L252.16 256L252 256L155.97 256L155.86 255.75L154.21 251.63L152.74 247.43ZM49.17 171.67L46.06 178.98L43.11 186.4L41.24 191.48L77.71 201.78L78.05 200.69L80.37 193.87L82.89 187.08L83.92 184.53L52.53 164.28L52.44 164.48L49.17 171.67ZM83.41 111.81L79.12 117.87L77.37 120.48L106.9 139.53L108.66 136.75L112.5 131.02L116.45 125.44L116.84 124.92L91.57 101.11L87.8 105.92L83.41 111.81ZM141.12 53.51L136 57.23L130.92 61.18L126.55 64.79L150.57 87.44L151.65 86.46L156.41 82.37L161.23 78.46L166.11 74.76L166.32 74.6L147.2 49.42L146.26 50.01L141.12 53.51ZM249.47 61.32L244.15 62.15L238.85 63.18L233.57 64.41L228.31 65.83L223.09 67.44L217.9 69.24L212.76 71.23L207.66 73.39L202.62 75.73L197.64 78.24L192.73 80.92L187.88 83.77L183.11 86.77L178.43 89.94L173.83 93.26L169.33 96.72L164.92 100.34L160.62 104.1L156.43 107.99L152.36 112.02L148.4 116.19L144.58 120.48L140.89 124.9L137.33 129.44L133.92 134.09L130.66 138.86L127.56 143.74L124.61 148.72L121.84 153.81L119.23 159L116.8 164.28L114.56 169.65L112.5 175.11L110.66 180.61L109.05 186.07L107.66 191.51L106.49 196.92L105.55 202.29L104.83 207.61L104.32 212.88L104.02 218.1L103.94 223.27L104.06 228.36L104.4 233.39L104.93 238.35L105.66 243.23L106.6 248.02L107.72 252.73L108.66 256L4 256L3.84 256L3.67 255.99L3.51 255.97L3.35 255.95L3.19 255.92L3.04 255.88L2.89 255.84L2.74 255.8L2.59 255.74L2.44 255.69L2.3 255.62L2.16 255.55L2.03 255.48L1.89 255.4L1.76 255.32L1.64 255.23L1.52 255.13L1.4 255.04L1.28 254.93L1.17 254.83L1.07 254.72L0.96 254.6L0.87 254.48L0.77 254.36L0.68 254.24L0.6 254.11L0.52 253.97L0.45 253.84L0.38 253.7L0.31 253.56L0.26 253.41L0.2 253.26L0.16 253.11L0.12 252.96L0.08 252.81L0.05 252.65L0.03 252.49L0.01 252.33L0 252.16L0 252L0 4L0 3.84L0.01 3.67L0.03 3.51L0.05 3.35L0.08 3.19L0.12 3.04L0.16 2.89L0.2 2.74L0.26 2.59L0.31 2.44L0.38 2.3L0.45 2.16L0.52 2.03L0.6 1.89L0.68 1.76L0.77 1.64L0.87 1.52L0.96 1.4L1.07 1.28L1.17 1.17L1.28 1.07L1.4 0.96L1.52 0.87L1.64 0.77L1.76 0.68L1.89 0.6L2.03 0.52L2.16 0.45L2.3 0.38L2.44 0.31L2.59 0.26L2.74 0.2L2.89 0.16L3.04 0.12L3.19 0.08L3.35 0.05L3.51 0.03L3.67 0.01L3.84 0L4 0L252 0L252.16 0L252.33 0.01L252.49 0.03L252.65 0.05L252.81 0.08L252.96 0.12L253.11 0.16L253.26 0.2L253.41 0.26L253.56 0.31L253.7 0.38L253.84 0.45L253.97 0.52L254.11 0.6L254.24 0.68L254.36 0.77L254.48 0.87L254.6 0.96L254.72 1.07L254.83 1.17L254.93 1.28L255.04 1.4L255.13 1.52L255.23 1.64L255.32 1.76L255.4 1.89L255.48 2.03L255.55 2.16L255.62 2.3L255.69 2.44L255.74 2.59L255.8 2.74L255.84 2.89L255.88 3.04L255.92 3.19L255.95 3.35L255.97 3.51L255.99 3.67L256 3.84L256 4L256 42.95L253.38 40.93L249.55 38.37L245.56 36.07L241.4 34.04L237.09 32.29L232.61 30.81L227.97 29.63L223.18 28.74L218.28 28.15L213.32 27.88L208.3 27.9L203.25 28.23L198.15 28.85L195.45 29.33L211.79 50.84L216.65 49.4L221.76 48.15L226.85 47.14L231.93 46.39L236.98 45.9L242 45.67L246.99 45.72L251.93 46.04L255.82 46.52L256 44.94L256 60.6L254.79 60.69L249.47 61.32Z" id="aKoYOlLGf"></path></defs><g><g><g><use xlink:href="#aKoYOlLGf" opacity="1" fill="#d76363" fill-opacity="1"></use></g></g></g></svg>