<?xml version="1.0" encoding="UTF-8" standalone="no"?>
<!DOCTYPE svg PUBLIC "-//W3C//DTD SVG 1.1//EN" "http://www.w3.org/Graphics/SVG/1.1/DTD/svg11.dtd">
<svg version="1.1" xmlns="http://www.w3.org/2000/svg" xmlns:xlink="http://www.w3.org/1999/xlink" preserveAspectRatio="xMidYMid meet" viewBox="0 0 324 324" width="324" height="324"><defs><path d="M204.28 101.2L246.56 137.96L162 137.96L77.44 137.96L119.72 101.2L162 64.43L204.28 101.2Z" id="eONF8lpo8"></path><path d="M77.44 137.96L162 64.43L77.44 64.43L77.44 137.96Z" id="a2TNFIlEpy"></path><path d="M246.56 137.96L162 64.43L246.56 64.43L246.56 137.96Z" id="f2m60jOc8X"></path><path d="M204.28 208.92L246.56 137.96L162 137.96L77.44 137.96L119.72 208.92L162 279.88L204.28 208.92Z" id="bmmhO5Uf5"></path><path d="M246.56 64.43L319.35 137.96L246.56 137.96L246.56 64.43Z" id="l4AXMz2lIa"></path><path d="M319.35 137.96L246.56 137.96L162 279.88L319.35 137.96Z" id="bVUpXnlXx"></path><path d="M77.44 64.43L4.65 137.96L77.44 137.96L77.44 64.43Z" id="hZMFUMuUQ"></path><path d="M4.65 137.96L77.44 137.96L162 279.88L4.65 137.96Z" id="a1HxQoATq8"></path></defs><g><g><g><use xlink:href="#eONF8lpo8" opacity="1" fill="#eb5c5c" fill-opacity="1"></use></g><g><use xlink:href="#a2TNFIlEpy" opacity="1" fill="#fd9e9e" fill-opacity="1"></use></g><g><use xlink:href="#f2m60jOc8X" opacity="1" fill="#fd9e9e" fill-opacity="1"></use></g><g><use xlink:href="#bmmhO5Uf5" opacity="1" fill="#eb5c5c" fill-opacity="1"></use></g><g><use xlink:href="#l4AXMz2lIa" opacity="1" fill="#d13c2f" fill-opacity="1"></use></g><g><use xlink:href="#bVUpXnlXx" opacity="1" fill="#d13c2f" fill-opacity="1"></use></g><g><use xlink:href="#hZMFUMuUQ" opacity="1" fill="#fdc5c0" fill-opacity="1"></use></g><g><use xlink:href="#a1HxQoATq8" opacity="1" fill="#fd9e9e" fill-opacity="1"></use></g></g></g></svg>