<?xml version="1.0" encoding="UTF-8" standalone="no"?>
<!DOCTYPE svg PUBLIC "-//W3C//DTD SVG 1.1//EN" "http://www.w3.org/Graphics/SVG/1.1/DTD/svg11.dtd">
<svg version="1.1" xmlns="http://www.w3.org/2000/svg" xmlns:xlink="http://www.w3.org/1999/xlink" preserveAspectRatio="xMidYMid meet" viewBox="0 0 640 381" width="640" height="381"><defs><path d="M305.16 202.25C305.16 202.25 305.16 202.25 305.16 202.25C305.16 182.43 320.83 166.33 340.13 166.33C340.13 166.33 595.24 166.33 595.24 166.33C614.55 166.33 630.21 182.43 630.21 202.25C630.21 202.25 630.21 202.25 630.21 202.25C630.21 222.09 614.55 238.18 595.24 238.18C595.24 238.18 340.13 238.18 340.13 238.18C320.83 238.18 305.16 222.09 305.16 202.25Z" id="bkNhqAlXd"></path><path d="M110.39 277.81C110.39 277.81 110.39 277.81 110.39 277.81C110.39 253.14 129.17 233.1 152.3 233.1C152.3 233.1 458.02 233.1 458.02 233.1C481.15 233.1 499.93 253.14 499.93 277.81C499.93 277.81 499.93 277.81 499.93 277.81C499.93 302.48 481.15 322.51 458.02 322.51C458.02 322.51 152.3 322.51 152.3 322.51C129.17 322.51 110.39 302.48 110.39 277.81Z" id="b7AyYVulU"></path><path d="M30.21 116.94C30.21 116.94 30.21 116.94 30.21 116.94C30.21 82.9 56.73 55.27 89.38 55.27C89.38 55.27 520.94 55.27 520.94 55.27C553.59 55.27 580.11 82.9 580.11 116.94C580.11 116.94 580.11 116.94 580.11 116.94C580.11 150.98 553.59 178.62 520.94 178.62C520.94 178.62 89.38 178.62 89.38 178.62C56.73 178.62 30.21 150.98 30.21 116.94Z" id="a14aZs8JNf"></path><path d="M322.13 364.29C231.37 364.29 157.68 285.62 157.68 188.72C157.68 91.82 231.37 13.15 322.13 13.15C412.9 13.15 486.58 91.82 486.58 188.72C486.58 285.62 412.9 364.29 322.13 364.29Z" id="a3PcHbHmxp"></path><path d="" id="aP2tgFNdD"></path><path d="M322.13 364.29C231.37 364.29 157.68 285.62 157.68 188.72C157.68 91.82 231.37 13.15 322.13 13.15C412.9 13.15 486.58 91.82 486.58 188.72C486.58 285.62 412.9 364.29 322.13 364.29Z" id="g1Up1PaC1J"></path><path d="M373.8 205.91L373.75 205.76L373.71 205.61L373.68 205.46L373.65 205.3L373.63 205.15L373.61 204.99L373.6 204.83L373.6 204.67L373.6 136.96L373.6 136.8L373.61 136.64L373.63 136.48L373.65 136.32L373.68 136.17L373.71 136.02L373.75 135.87L373.8 135.72L373.85 135.58L373.91 135.43L373.97 135.29L374.04 135.16L374.11 135.02L374.19 134.89L374.27 134.77L374.36 134.64L374.45 134.52L374.55 134.41L374.65 134.29L374.75 134.18L374.86 134.08L374.97 133.98L375.09 133.88L375.21 133.79L375.33 133.71L375.46 133.62L375.59 133.55L375.72 133.47L375.86 133.41L376 133.34L376.14 133.29L376.29 133.23L376.43 133.19L376.58 133.15L376.74 133.11L376.89 133.09L377.05 133.06L377.21 133.05L377.37 133.04L377.53 133.03L438.64 133.03L438.81 133.04L438.97 133.05L439.13 133.06L439.28 133.09L439.44 133.11L439.59 133.15L439.74 133.19L439.89 133.23L440.03 133.29L440.17 133.34L440.31 133.41L440.45 133.47L440.58 133.55L440.71 133.62L440.84 133.71L440.96 133.79L441.08 133.88L441.2 133.98L441.31 134.08L441.42 134.18L441.53 134.29L441.63 134.41L441.72 134.52L441.81 134.64L441.9 134.77L441.98 134.89L442.06 135.02L442.13 135.16L442.2 135.29L442.26 135.43L442.32 135.58L442.37 135.72L442.42 135.87L442.46 136.02L442.49 136.17L442.52 136.32L442.54 136.48L442.56 136.64L442.57 136.8L442.57 136.96L442.57 204.67L442.57 204.83L442.56 204.99L442.54 205.15L442.52 205.3L442.49 205.46L442.46 205.61L442.42 205.76L442.37 205.91L442.32 206.05L442.3 206.1L410.46 224.1L410.02 224.32L409.91 224.38L409.79 224.43L409.68 224.48L409.56 224.52L409.44 224.57L409.33 224.6L409.21 224.64L409.09 224.67L408.97 224.69L408.85 224.71L408.72 224.73L408.6 224.75L408.48 224.76L408.36 224.77L408.24 224.77L408.11 224.77L407.99 224.77L407.87 224.76L407.75 224.75L407.63 224.73L407.5 224.71L407.38 224.69L407.26 224.67L407.14 224.64L407.02 224.6L406.91 224.57L406.79 224.52L406.67 224.48L406.56 224.43L406.44 224.38L406.34 224.33L373.95 206.29L373.91 206.19L373.85 206.05L373.8 205.91Z" id="a3opHbCmt"></path><path d="M408.09 133.98L374.01 133.98L374.01 206.15L408.09 224.77L408.09 133.98Z" id="bAlD28bR9"></path><path d="" id="a7v4gI9tgH"></path><path d="M422.05 155.78L422.21 155.81L422.37 155.86L422.53 155.92L422.68 155.98L422.82 156.06L422.96 156.14L423.1 156.24L423.22 156.34L423.35 156.44L423.46 156.56L423.57 156.68L423.67 156.81L423.76 156.94L423.84 157.08L423.92 157.22L423.98 157.37L424.04 157.53L424.09 157.69L424.13 157.85L424.15 158.02L424.17 158.19L424.18 158.36L424.18 205.95L424.17 206.12L424.15 206.29L424.13 206.46L424.09 206.62L424.04 206.78L423.98 206.94L423.92 207.09L423.84 207.23L423.76 207.37L423.67 207.51L423.57 207.64L423.46 207.76L423.35 207.87L423.22 207.98L423.1 208.08L422.96 208.17L422.82 208.25L422.68 208.33L422.53 208.4L422.37 208.45L422.21 208.5L422.05 208.54L421.88 208.56L421.71 208.58L421.54 208.59L395.3 208.59L395.13 208.58L394.96 208.56L394.79 208.54L394.63 208.5L394.47 208.45L394.31 208.4L394.16 208.33L394.02 208.25L393.88 208.17L393.74 208.08L393.61 207.98L393.49 207.87L393.38 207.76L393.27 207.64L393.17 207.51L393.08 207.37L393 207.23L392.92 207.09L392.85 206.94L392.8 206.78L392.75 206.62L392.71 206.46L392.68 206.29L392.67 206.12L392.66 205.95L392.66 190.06L404.05 190.06L404.05 195.83L404.11 196.4L404.26 196.95L404.49 197.45L404.81 197.9L405.2 198.29L405.65 198.61L406.15 198.84L406.7 198.99L407.27 199.05L410.83 199.05L411.41 198.99L411.96 198.84L412.46 198.61L412.91 198.29L413.3 197.9L413.61 197.45L413.85 196.95L414 196.4L414.05 195.83L414.05 186.69L414 186.12L413.85 185.57L413.61 185.07L413.3 184.62L412.91 184.23L412.46 183.91L411.96 183.68L411.41 183.53L410.92 183.48L404.16 183.48L404.16 174.23L410.92 174.23L411.41 174.19L411.96 174.04L412.46 173.8L412.91 173.48L413.3 173.1L413.61 172.65L413.85 172.14L414 171.6L414.05 171.02L414.05 168.49L414 167.91L413.85 167.36L413.61 166.86L413.3 166.41L412.91 166.03L412.46 165.71L411.96 165.47L411.41 165.32L410.83 165.27L407.27 165.27L406.7 165.32L406.15 165.47L405.65 165.71L405.2 166.03L404.81 166.41L404.49 166.86L404.26 167.36L404.11 167.91L404.05 168.49L404.05 168.61L392.66 168.61L392.66 158.36L392.67 158.19L392.68 158.02L392.71 157.85L392.75 157.69L392.8 157.53L392.85 157.37L392.92 157.22L393 157.08L393.08 156.94L393.17 156.81L393.27 156.68L393.38 156.56L393.49 156.44L393.61 156.34L393.74 156.24L393.88 156.14L394.02 156.06L394.16 155.98L394.31 155.92L394.47 155.86L394.63 155.81L394.79 155.78L394.96 155.75L395.13 155.73L395.3 155.73L421.54 155.73L421.71 155.73L421.88 155.75L421.88 155.75L422.05 155.78Z" id="b1lrWQM4h5"></path><path d="M414.86 146.45L414.93 146.45L414.93 150.27L413.83 150.27L413.75 150.38L413.61 150.27L401.91 150.27L401.91 146.45L408.39 146.45L401.91 141.71L401.93 141.69L401.91 141.69L401.91 137.87L414.93 137.87L414.93 141.69L408.35 141.69L408.35 141.69L414.86 146.45Z" id="b1RWib1AaZ"></path><path d="M429.36 146.45L429.43 146.45L429.43 150.27L428.33 150.27L428.25 150.38L428.11 150.27L416.41 150.27L416.41 146.45L422.89 146.45L416.41 141.71L416.43 141.69L416.41 141.69L416.41 137.87L429.43 137.87L429.43 141.69L422.85 141.69L422.85 141.69L429.36 146.45Z" id="aDwevj7U7"></path><path d="M386.75 137.87L399.76 137.87L399.76 141.53L386.75 141.53L386.75 137.87Z" id="bu2PJmdBz"></path><path d="M386.75 146.71L399.76 146.71L399.76 150.38L386.75 150.38L386.75 146.71Z" id="hj6ygrU7N"></path><path d="M386.75 141.1L390.36 141.1L390.36 148.12L386.75 148.12L386.75 141.1Z" id="b2pQXMIG7H"></path><path d="M236.34 133.98L202.27 133.98L202.27 206.15L236.34 224.77L236.34 133.98Z" id="aUgVL2TUF"></path><path d="M236.34 133.98L270.41 133.98L270.41 206.15L236.34 224.77L236.34 133.98Z" id="b1raR3aDCx"></path><path d="M267.63 133.05L267.79 133.06L267.95 133.09L268.1 133.11L268.26 133.15L268.41 133.19L268.55 133.23L268.7 133.29L268.84 133.34L268.98 133.41L269.12 133.47L269.25 133.55L269.38 133.62L269.51 133.71L269.63 133.79L269.75 133.88L269.87 133.98L269.98 134.08L270.09 134.18L270.19 134.29L270.29 134.41L270.39 134.52L270.48 134.64L270.57 134.77L270.65 134.89L270.73 135.02L270.8 135.16L270.87 135.29L270.93 135.43L270.99 135.58L271.04 135.72L271.09 135.87L271.13 136.02L271.16 136.17L271.19 136.32L271.21 136.48L271.23 136.64L271.24 136.8L271.24 136.96L271.24 204.67L271.24 204.83L271.23 204.99L271.21 205.15L271.19 205.3L271.16 205.46L271.13 205.61L271.09 205.76L271.04 205.91L270.99 206.05L270.97 206.1L239.12 224.1L238.69 224.32L238.57 224.38L238.46 224.43L238.34 224.48L238.23 224.52L238.11 224.57L237.99 224.6L237.87 224.64L237.75 224.67L237.63 224.69L237.51 224.71L237.39 224.73L237.27 224.75L237.15 224.76L237.03 224.77L236.9 224.77L236.78 224.77L236.66 224.77L236.54 224.76L236.41 224.75L236.29 224.73L236.17 224.71L236.05 224.69L235.93 224.67L235.81 224.64L235.69 224.6L235.57 224.57L235.46 224.52L235.34 224.48L235.23 224.43L235.11 224.38L235.01 224.33L202.62 206.29L202.58 206.19L202.52 206.05L202.47 205.91L202.42 205.76L202.38 205.61L202.35 205.46L202.32 205.3L202.3 205.15L202.28 204.99L202.27 204.83L202.27 204.67L202.27 136.96L202.27 136.8L202.28 136.64L202.3 136.48L202.32 136.32L202.35 136.17L202.38 136.02L202.42 135.87L202.47 135.72L202.52 135.58L202.58 135.43L202.64 135.29L202.71 135.16L202.78 135.02L202.86 134.89L202.94 134.77L203.02 134.64L203.12 134.52L203.21 134.41L203.31 134.29L203.42 134.18L203.53 134.08L203.64 133.98L203.76 133.88L203.88 133.79L204 133.71L204.13 133.62L204.26 133.55L204.39 133.47L204.53 133.41L204.67 133.34L204.81 133.29L204.95 133.23L205.1 133.19L205.25 133.15L205.4 133.11L205.56 133.09L205.71 133.06L205.87 133.05L206.03 133.04L206.19 133.03L267.31 133.03L267.47 133.04L267.63 133.05Z" id="a1IylM4OBm"></path><path d="M257.75 146.54L265.78 146.54L265.78 150.96L253.91 150.96L253.91 138.7L257.75 138.7L257.75 138.7L257.75 146.54Z" id="bvflUX8K8"></path><path d="" id="b2hh0eYfpg"></path><path d="M216.94 143.07L216.94 138.7L220.82 138.7L220.82 150.96L216.94 150.96L216.94 146.59L212.12 146.59L212.12 150.96L208.24 150.96L208.24 138.7L212.12 138.7L212.12 143.07L216.94 143.07Z" id="a363D7IltM"></path><path d="M230.57 142.71L230.57 150.96L226.69 150.96L226.69 142.71L222.34 142.71L222.34 138.7L234.92 138.7L234.92 142.71L230.57 142.71Z" id="a2PiRWqfBV"></path><path d="M244.66 142.98L248.46 138.82L248.46 138.7L252.33 138.7L252.33 150.96L248.46 150.96L248.46 144.83L244.69 148.95L244.66 148.92L244.63 148.95L241.01 144.99L241.01 150.96L237.13 150.96L237.13 138.7L241.01 138.7L241.01 138.98L244.66 142.98Z" id="a6AEIkPM3A"></path><path d="M249.46 174.96L249.63 174.97L249.8 174.98L249.97 175.01L250.13 175.05L250.29 175.1L250.45 175.15L250.6 175.22L250.74 175.3L250.88 175.38L251.02 175.47L251.15 175.57L251.27 175.68L251.38 175.79L251.49 175.91L251.59 176.04L251.68 176.18L251.76 176.32L251.84 176.46L251.91 176.61L251.96 176.77L252.01 176.92L252.05 177.09L252.08 177.26L252.09 177.43L252.1 177.6L252.1 206.71L252.09 206.88L252.08 207.05L252.05 207.22L252.01 207.38L251.96 207.54L251.91 207.69L251.84 207.84L251.76 207.99L251.68 208.13L251.59 208.26L251.49 208.39L251.38 208.51L251.27 208.63L251.15 208.73L251.02 208.83L250.88 208.93L250.74 209.01L250.6 209.08L250.45 209.15L250.29 209.21L250.13 209.26L249.97 209.29L249.8 209.32L249.63 209.34L249.46 209.34L223.22 209.34L223.05 209.34L222.88 209.32L222.71 209.29L222.55 209.26L222.39 209.21L222.23 209.15L222.08 209.08L221.94 209.01L221.8 208.93L221.66 208.83L221.54 208.73L221.41 208.63L221.3 208.51L221.19 208.39L221.09 208.26L221 208.13L220.92 207.99L220.84 207.84L220.78 207.69L220.72 207.54L220.67 207.38L220.63 207.22L220.61 207.05L220.59 206.88L220.58 206.71L220.58 190.82L231.97 190.82L231.97 196.58L232.03 197.16L232.18 197.71L232.41 198.21L232.73 198.66L233.12 199.04L233.57 199.36L234.07 199.6L234.62 199.75L235.19 199.8L238.75 199.8L239.33 199.75L239.88 199.6L240.38 199.36L240.83 199.04L241.22 198.66L241.53 198.21L241.77 197.71L241.92 197.16L241.97 196.58L241.97 187.45L241.92 186.87L241.77 186.33L241.53 185.82L241.22 185.38L240.83 184.99L240.38 184.67L239.88 184.43L239.33 184.28L238.75 184.23L237.07 184.23L237.07 184.2L220.58 184.2L220.58 169.65L232.07 169.65L232.07 174.96L249.46 174.96ZM220.58 169.65L220.58 156.48L252.1 156.48L252.1 169.65L220.58 169.65Z" id="a2ndMQfNFo"></path><path d="" id="cmzwT3aQC"></path><path d="M321.05 109.29L376.32 109.29L376.32 226.35L321.05 256.56L321.05 109.29Z" id="bxA4sweKX"></path><path d="M371.94 107.78L372.19 107.8L372.45 107.84L372.7 107.89L372.94 107.94L373.19 108.01L373.43 108.08L373.66 108.17L373.89 108.26L374.12 108.36L374.34 108.47L374.56 108.59L374.77 108.71L374.97 108.84L375.18 108.99L375.37 109.13L375.56 109.29L375.74 109.45L375.92 109.62L376.09 109.8L376.25 109.98L376.41 110.17L376.55 110.37L376.7 110.57L376.83 110.77L376.95 110.98L377.07 111.2L377.18 111.42L377.28 111.65L377.38 111.88L377.46 112.11L377.53 112.35L377.6 112.6L377.65 112.84L377.7 113.09L377.74 113.35L377.76 113.61L377.78 113.87L377.78 114.13L377.78 223.95L377.78 224.21L377.76 224.47L377.74 224.72L377.7 224.98L377.65 225.23L377.6 225.48L377.53 225.72L377.46 225.96L377.38 226.19L377.35 226.27L325.69 255.47L324.98 255.83L324.84 255.9L324.69 255.97L324.55 256.03L324.41 256.09L324.26 256.15L324.11 256.2L323.96 256.25L323.82 256.3L323.67 256.34L323.52 256.38L323.37 256.41L323.21 256.44L323.06 256.47L322.91 256.49L322.76 256.51L322.6 256.53L322.45 256.54L322.3 256.55L322.14 256.56L321.99 256.56L321.83 256.56L321.68 256.55L321.53 256.54L321.37 256.53L321.22 256.51L321.07 256.49L320.91 256.47L320.76 256.44L320.61 256.41L320.46 256.38L320.31 256.34L320.16 256.3L320.01 256.25L319.86 256.2L319.72 256.15L319.57 256.09L319.43 256.03L319.28 255.97L319.14 255.9L319.01 255.84L266.48 226.59L266.48 226.59L266.4 226.42L266.31 226.19L266.23 225.96L266.15 225.72L266.09 225.48L266.03 225.23L265.99 224.98L265.95 224.72L265.92 224.47L265.91 224.21L265.9 223.95L265.9 114.13L265.91 113.87L265.92 113.61L265.95 113.35L265.99 113.09L266.03 112.84L266.09 112.6L266.15 112.35L266.23 112.11L266.31 111.88L266.4 111.65L266.5 111.42L266.61 111.2L266.73 110.98L266.86 110.77L266.99 110.57L267.13 110.37L267.28 110.17L267.44 109.98L267.6 109.8L267.77 109.62L267.95 109.45L268.13 109.29L268.32 109.13L268.51 108.99L268.71 108.84L268.92 108.71L269.13 108.59L269.35 108.47L269.57 108.36L269.79 108.26L270.03 108.17L270.26 108.08L270.5 108.01L270.74 107.94L270.99 107.89L271.24 107.84L271.49 107.8L271.75 107.78L272.01 107.76L272.27 107.76L371.41 107.76L371.68 107.76L371.94 107.78Z" id="e2R1yPxTet"></path><path d="M321.05 109.29L265.78 109.29L265.78 226.35L321.05 256.56L321.05 109.29Z" id="c3W4E4N18f"></path><path d="M299.16 129.67L313.43 129.67L313.43 116.94L320.26 116.94L320.26 136.84L299.16 136.84L299.16 129.67Z" id="a4AT3aLz6n"></path><path d="M332.29 123.14L342.85 130.87L342.95 130.87L342.95 137.07L341.17 137.07L341.05 137.24L340.82 137.07L321.84 137.07L321.84 130.87L332.36 130.87L321.84 123.17L321.87 123.14L321.84 123.14L321.84 116.94L342.95 116.94L342.95 123.14L332.29 123.14Z" id="a3Um8eUK6l"></path><path d="M323.63 238.18L303.66 231L323.99 174.53L295.49 174.53L295.49 152.44L346.61 152.44L346.61 174.53L346.55 174.53L323.63 238.18Z" id="bMDgJSXo"></path><path d="" id="j1Ul7SodU"></path></defs><g><g><g><g><filter id="shadow1602782" x="297.16" y="158.33" width="341.05" height="87.85" filterUnits="userSpaceOnUse" primitiveUnits="userSpaceOnUse"><feFlood></feFlood><feComposite in2="SourceAlpha" operator="in"></feComposite><feGaussianBlur stdDeviation="1"></feGaussianBlur><feOffset dx="0" dy="0" result="afterOffset"></feOffset><feFlood flood-color="#000000" flood-opacity="0.5"></feFlood><feComposite in2="afterOffset" operator="in"></feComposite><feMorphology operator="dilate" radius="1"></feMorphology><feComposite in2="SourceAlpha" operator="out"></feComposite></filter><path d="M305.16 202.25C305.16 202.25 305.16 202.25 305.16 202.25C305.16 182.43 320.83 166.33 340.13 166.33C340.13 166.33 595.24 166.33 595.24 166.33C614.55 166.33 630.21 182.43 630.21 202.25C630.21 202.25 630.21 202.25 630.21 202.25C630.21 222.09 614.55 238.18 595.24 238.18C595.24 238.18 340.13 238.18 340.13 238.18C320.83 238.18 305.16 222.09 305.16 202.25Z" id="bCMt116s" fill="white" fill-opacity="1" filter="url(#shadow1602782)"></path></g><use xlink:href="#bkNhqAlXd" opacity="1" fill="#9642f5" fill-opacity="1"></use><g><use xlink:href="#bkNhqAlXd" opacity="1" fill-opacity="0" stroke="#000000" stroke-width="1" stroke-opacity="0"></use></g></g><g><g><filter id="shadow15332132" x="102.39" y="225.1" width="405.54" height="105.41" filterUnits="userSpaceOnUse" primitiveUnits="userSpaceOnUse"><feFlood></feFlood><feComposite in2="SourceAlpha" operator="in"></feComposite><feGaussianBlur stdDeviation="1"></feGaussianBlur><feOffset dx="0" dy="0" result="afterOffset"></feOffset><feFlood flood-color="#000000" flood-opacity="0.5"></feFlood><feComposite in2="afterOffset" operator="in"></feComposite><feMorphology operator="dilate" radius="1"></feMorphology><feComposite in2="SourceAlpha" operator="out"></feComposite></filter><path d="M110.39 277.81C110.39 277.81 110.39 277.81 110.39 277.81C110.39 253.14 129.17 233.1 152.3 233.1C152.3 233.1 458.02 233.1 458.02 233.1C481.15 233.1 499.93 253.14 499.93 277.81C499.93 277.81 499.93 277.81 499.93 277.81C499.93 302.48 481.15 322.51 458.02 322.51C458.02 322.51 152.3 322.51 152.3 322.51C129.17 322.51 110.39 302.48 110.39 277.81Z" id="ebwQej68t" fill="white" fill-opacity="1" filter="url(#shadow15332132)"></path></g><use xlink:href="#b7AyYVulU" opacity="1" fill="#9642f5" fill-opacity="1"></use><g><use xlink:href="#b7AyYVulU" opacity="1" fill-opacity="0" stroke="#000000" stroke-width="1" stroke-opacity="0"></use></g></g><g><g><filter id="shadow15604308" x="22.21" y="47.27" width="565.89" height="139.35" filterUnits="userSpaceOnUse" primitiveUnits="userSpaceOnUse"><feFlood></feFlood><feComposite in2="SourceAlpha" operator="in"></feComposite><feGaussianBlur stdDeviation="1"></feGaussianBlur><feOffset dx="0" dy="0" result="afterOffset"></feOffset><feFlood flood-color="#000000" flood-opacity="0.5"></feFlood><feComposite in2="afterOffset" operator="in"></feComposite><feMorphology operator="dilate" radius="1"></feMorphology><feComposite in2="SourceAlpha" operator="out"></feComposite></filter><path d="M30.21 116.94C30.21 116.94 30.21 116.94 30.21 116.94C30.21 82.9 56.73 55.27 89.38 55.27C89.38 55.27 520.94 55.27 520.94 55.27C553.59 55.27 580.11 82.9 580.11 116.94C580.11 116.94 580.11 116.94 580.11 116.94C580.11 150.98 553.59 178.62 520.94 178.62C520.94 178.62 89.38 178.62 89.38 178.62C56.73 178.62 30.21 150.98 30.21 116.94Z" id="a3wuebSAG" fill="white" fill-opacity="1" filter="url(#shadow15604308)"></path></g><use xlink:href="#a14aZs8JNf" opacity="1" fill="#9642f5" fill-opacity="1"></use><g><use xlink:href="#a14aZs8JNf" opacity="1" fill-opacity="0" stroke="#000000" stroke-width="1" stroke-opacity="0"></use></g></g><g><g><filter id="shadow2562414" x="149.68" y="5.15" width="344.9" height="367.14" filterUnits="userSpaceOnUse" primitiveUnits="userSpaceOnUse"><feFlood></feFlood><feComposite in2="SourceAlpha" operator="in"></feComposite><feGaussianBlur stdDeviation="1"></feGaussianBlur><feOffset dx="0" dy="0" result="afterOffset"></feOffset><feFlood flood-color="#000000" flood-opacity="0.5"></feFlood><feComposite in2="afterOffset" operator="in"></feComposite><feMorphology operator="dilate" radius="1"></feMorphology><feComposite in2="SourceAlpha" operator="out"></feComposite></filter><path d="M322.13 364.29C231.37 364.29 157.68 285.62 157.68 188.72C157.68 91.82 231.37 13.15 322.13 13.15C412.9 13.15 486.58 91.82 486.58 188.72C486.58 285.62 412.9 364.29 322.13 364.29Z" id="dTuzKZlcJ" fill="white" fill-opacity="1" filter="url(#shadow2562414)"></path></g><use xlink:href="#a3PcHbHmxp" opacity="1" fill="#2d2d2d" fill-opacity="1"></use><g><use xlink:href="#a3PcHbHmxp" opacity="1" fill-opacity="0" stroke="#000000" stroke-width="1" stroke-opacity="0"></use></g></g><g><g><use xlink:href="#aP2tgFNdD" opacity="1" fill-opacity="0" stroke="#000000" stroke-width="0" stroke-opacity="0"></use></g></g><g><g><filter id="shadow15321533" x="127.68" y="-16.85" width="388.9" height="411.14" filterUnits="userSpaceOnUse" primitiveUnits="userSpaceOnUse"><feFlood></feFlood><feComposite in2="SourceAlpha" operator="in"></feComposite><feGaussianBlur stdDeviation="3.16"></feGaussianBlur><feOffset dx="0" dy="0" result="afterOffset"></feOffset><feFlood flood-color="#000000" flood-opacity="0.5"></feFlood><feComposite in2="afterOffset" operator="in"></feComposite><feMorphology operator="dilate" radius="5"></feMorphology><feComposite in2="SourceAlpha" operator="out"></feComposite></filter><path d="M322.13 364.29C231.37 364.29 157.68 285.62 157.68 188.72C157.68 91.82 231.37 13.15 322.13 13.15C412.9 13.15 486.58 91.82 486.58 188.72C486.58 285.62 412.9 364.29 322.13 364.29Z" id="d1jXvS1Sp" fill="white" fill-opacity="1" filter="url(#shadow15321533)"></path></g><use xlink:href="#g1Up1PaC1J" opacity="1" fill="#000000" fill-opacity="0"></use><g><use xlink:href="#g1Up1PaC1J" opacity="1" fill-opacity="0" stroke="#9642f5" stroke-width="10" stroke-opacity="1"></use></g></g><g><g><filter id="shadow15887159" x="357.6" y="117.03" width="100.97" height="124.74" filterUnits="userSpaceOnUse" primitiveUnits="userSpaceOnUse"><feFlood></feFlood><feComposite in2="SourceAlpha" operator="in"></feComposite><feGaussianBlur stdDeviation="2"></feGaussianBlur><feOffset dx="0" dy="1" result="afterOffset"></feOffset><feFlood flood-color="#000000" flood-opacity="0.5"></feFlood><feComposite in2="afterOffset" operator="in"></feComposite><feMorphology operator="dilate" radius="2"></feMorphology><feComposite in2="SourceAlpha" operator="out"></feComposite></filter><path d="M373.8 205.91L373.75 205.76L373.71 205.61L373.68 205.46L373.65 205.3L373.63 205.15L373.61 204.99L373.6 204.83L373.6 204.67L373.6 136.96L373.6 136.8L373.61 136.64L373.63 136.48L373.65 136.32L373.68 136.17L373.71 136.02L373.75 135.87L373.8 135.72L373.85 135.58L373.91 135.43L373.97 135.29L374.04 135.16L374.11 135.02L374.19 134.89L374.27 134.77L374.36 134.64L374.45 134.52L374.55 134.41L374.65 134.29L374.75 134.18L374.86 134.08L374.97 133.98L375.09 133.88L375.21 133.79L375.33 133.71L375.46 133.62L375.59 133.55L375.72 133.47L375.86 133.41L376 133.34L376.14 133.29L376.29 133.23L376.43 133.19L376.58 133.15L376.74 133.11L376.89 133.09L377.05 133.06L377.21 133.05L377.37 133.04L377.53 133.03L438.64 133.03L438.81 133.04L438.97 133.05L439.13 133.06L439.28 133.09L439.44 133.11L439.59 133.15L439.74 133.19L439.89 133.23L440.03 133.29L440.17 133.34L440.31 133.41L440.45 133.47L440.58 133.55L440.71 133.62L440.84 133.71L440.96 133.79L441.08 133.88L441.2 133.98L441.31 134.08L441.42 134.18L441.53 134.29L441.63 134.41L441.72 134.52L441.81 134.64L441.9 134.77L441.98 134.89L442.06 135.02L442.13 135.16L442.2 135.29L442.26 135.43L442.32 135.58L442.37 135.72L442.42 135.87L442.46 136.02L442.49 136.17L442.52 136.32L442.54 136.48L442.56 136.64L442.57 136.8L442.57 136.96L442.57 204.67L442.57 204.83L442.56 204.99L442.54 205.15L442.52 205.3L442.49 205.46L442.46 205.61L442.42 205.76L442.37 205.91L442.32 206.05L442.3 206.1L410.46 224.1L410.02 224.32L409.91 224.38L409.79 224.43L409.68 224.48L409.56 224.52L409.44 224.57L409.33 224.6L409.21 224.64L409.09 224.67L408.97 224.69L408.85 224.71L408.72 224.73L408.6 224.75L408.48 224.76L408.36 224.77L408.24 224.77L408.11 224.77L407.99 224.77L407.87 224.76L407.75 224.75L407.63 224.73L407.5 224.71L407.38 224.69L407.26 224.67L407.14 224.64L407.02 224.6L406.91 224.57L406.79 224.52L406.67 224.48L406.56 224.43L406.44 224.38L406.34 224.33L373.95 206.29L373.91 206.19L373.85 206.05L373.8 205.91Z" id="cFkZYvXrA" fill="white" fill-opacity="1" filter="url(#shadow15887159)"></path></g><use xlink:href="#a3opHbCmt" opacity="1" fill="#9acbf9" fill-opacity="1"></use><g><use xlink:href="#a3opHbCmt" opacity="1" fill-opacity="0" stroke="#709bfe" stroke-width="7" stroke-opacity="1"></use></g></g><g><use xlink:href="#bAlD28bR9" opacity="1" fill="#709bfe" fill-opacity="1"></use></g><g><g><use xlink:href="#a7v4gI9tgH" opacity="1" fill-opacity="0" stroke="#d7a546" stroke-width="7" stroke-opacity="1"></use></g></g><g><use xlink:href="#b1lrWQM4h5" opacity="1" fill="#545454" fill-opacity="1"></use></g><g><use xlink:href="#b1RWib1AaZ" opacity="1" fill="#545454" fill-opacity="1"></use></g><g><use xlink:href="#aDwevj7U7" opacity="1" fill="#545454" fill-opacity="1"></use></g><g><use xlink:href="#bu2PJmdBz" opacity="1" fill="#545454" fill-opacity="1"></use></g><g><use xlink:href="#hj6ygrU7N" opacity="1" fill="#545454" fill-opacity="1"></use></g><g><use xlink:href="#b2pQXMIG7H" opacity="1" fill="#545454" fill-opacity="1"></use></g><g><use xlink:href="#aUgVL2TUF" opacity="1" fill="#fe7070" fill-opacity="1"></use></g><g><use xlink:href="#b1raR3aDCx" opacity="1" fill="#fbb0b0" fill-opacity="1"></use></g><g><g><filter id="shadow9350578" x="186.27" y="117.03" width="100.97" height="124.74" filterUnits="userSpaceOnUse" primitiveUnits="userSpaceOnUse"><feFlood></feFlood><feComposite in2="SourceAlpha" operator="in"></feComposite><feGaussianBlur stdDeviation="2"></feGaussianBlur><feOffset dx="0" dy="1" result="afterOffset"></feOffset><feFlood flood-color="#000000" flood-opacity="0.5"></feFlood><feComposite in2="afterOffset" operator="in"></feComposite><feMorphology operator="dilate" radius="2"></feMorphology><feComposite in2="SourceAlpha" operator="out"></feComposite></filter><path d="M267.63 133.05L267.79 133.06L267.95 133.09L268.1 133.11L268.26 133.15L268.41 133.19L268.55 133.23L268.7 133.29L268.84 133.34L268.98 133.41L269.12 133.47L269.25 133.55L269.38 133.62L269.51 133.71L269.63 133.79L269.75 133.88L269.87 133.98L269.98 134.08L270.09 134.18L270.19 134.29L270.29 134.41L270.39 134.52L270.48 134.64L270.57 134.77L270.65 134.89L270.73 135.02L270.8 135.16L270.87 135.29L270.93 135.43L270.99 135.58L271.04 135.72L271.09 135.87L271.13 136.02L271.16 136.17L271.19 136.32L271.21 136.48L271.23 136.64L271.24 136.8L271.24 136.96L271.24 204.67L271.24 204.83L271.23 204.99L271.21 205.15L271.19 205.3L271.16 205.46L271.13 205.61L271.09 205.76L271.04 205.91L270.99 206.05L270.97 206.1L239.12 224.1L238.69 224.32L238.57 224.38L238.46 224.43L238.34 224.48L238.23 224.52L238.11 224.57L237.99 224.6L237.87 224.64L237.75 224.67L237.63 224.69L237.51 224.71L237.39 224.73L237.27 224.75L237.15 224.76L237.03 224.77L236.9 224.77L236.78 224.77L236.66 224.77L236.54 224.76L236.41 224.75L236.29 224.73L236.17 224.71L236.05 224.69L235.93 224.67L235.81 224.64L235.69 224.6L235.57 224.57L235.46 224.52L235.34 224.48L235.23 224.43L235.11 224.38L235.01 224.33L202.62 206.29L202.58 206.19L202.52 206.05L202.47 205.91L202.42 205.76L202.38 205.61L202.35 205.46L202.32 205.3L202.3 205.15L202.28 204.99L202.27 204.83L202.27 204.67L202.27 136.96L202.27 136.8L202.28 136.64L202.3 136.48L202.32 136.32L202.35 136.17L202.38 136.02L202.42 135.87L202.47 135.72L202.52 135.58L202.58 135.43L202.64 135.29L202.71 135.16L202.78 135.02L202.86 134.89L202.94 134.77L203.02 134.64L203.12 134.52L203.21 134.41L203.31 134.29L203.42 134.18L203.53 134.08L203.64 133.98L203.76 133.88L203.88 133.79L204 133.71L204.13 133.62L204.26 133.55L204.39 133.47L204.53 133.41L204.67 133.34L204.81 133.29L204.95 133.23L205.1 133.19L205.25 133.15L205.4 133.11L205.56 133.09L205.71 133.06L205.87 133.05L206.03 133.04L206.19 133.03L267.31 133.03L267.47 133.04L267.63 133.05Z" id="c1TAxfJ9YR" fill="white" fill-opacity="1" filter="url(#shadow9350578)"></path></g><g><use xlink:href="#a1IylM4OBm" opacity="1" fill-opacity="0" stroke="#fe7070" stroke-width="7" stroke-opacity="1"></use></g></g><g><use xlink:href="#bvflUX8K8" opacity="1" fill="#545454" fill-opacity="1"></use></g><g><g><use xlink:href="#b2hh0eYfpg" opacity="1" fill-opacity="0" stroke="#d7a546" stroke-width="7" stroke-opacity="1"></use></g></g><g><use xlink:href="#a363D7IltM" opacity="1" fill="#545454" fill-opacity="1"></use></g><g><use xlink:href="#a2PiRWqfBV" opacity="1" fill="#545454" fill-opacity="1"></use></g><g><use xlink:href="#a6AEIkPM3A" opacity="1" fill="#545454" fill-opacity="1"></use></g><g><use xlink:href="#a2ndMQfNFo" opacity="1" fill="#545454" fill-opacity="1"></use></g><g><g><use xlink:href="#cmzwT3aQC" opacity="1" fill-opacity="0" stroke="#d7a546" stroke-width="7" stroke-opacity="1"></use></g></g><g><use xlink:href="#bxA4sweKX" opacity="1" fill="#fff3c3" fill-opacity="1"></use></g><g><g><filter id="shadow10628105" x="249.9" y="91.76" width="143.88" height="181.8" filterUnits="userSpaceOnUse" primitiveUnits="userSpaceOnUse"><feFlood></feFlood><feComposite in2="SourceAlpha" operator="in"></feComposite><feGaussianBlur stdDeviation="2"></feGaussianBlur><feOffset dx="0" dy="1" result="afterOffset"></feOffset><feFlood flood-color="#000000" flood-opacity="0.5"></feFlood><feComposite in2="afterOffset" operator="in"></feComposite><feMorphology operator="dilate" radius="2"></feMorphology><feComposite in2="SourceAlpha" operator="out"></feComposite></filter><path d="M371.94 107.78L372.19 107.8L372.45 107.84L372.7 107.89L372.94 107.94L373.19 108.01L373.43 108.08L373.66 108.17L373.89 108.26L374.12 108.36L374.34 108.47L374.56 108.59L374.77 108.71L374.97 108.84L375.18 108.99L375.37 109.13L375.56 109.29L375.74 109.45L375.92 109.62L376.09 109.8L376.25 109.98L376.41 110.17L376.55 110.37L376.7 110.57L376.83 110.77L376.95 110.98L377.07 111.2L377.18 111.42L377.28 111.65L377.38 111.88L377.46 112.11L377.53 112.35L377.6 112.6L377.65 112.84L377.7 113.09L377.74 113.35L377.76 113.61L377.78 113.87L377.78 114.13L377.78 223.95L377.78 224.21L377.76 224.47L377.74 224.72L377.7 224.98L377.65 225.23L377.6 225.48L377.53 225.72L377.46 225.96L377.38 226.19L377.35 226.27L325.69 255.47L324.98 255.83L324.84 255.9L324.69 255.97L324.55 256.03L324.41 256.09L324.26 256.15L324.11 256.2L323.96 256.25L323.82 256.3L323.67 256.34L323.52 256.38L323.37 256.41L323.21 256.44L323.06 256.47L322.91 256.49L322.76 256.51L322.6 256.53L322.45 256.54L322.3 256.55L322.14 256.56L321.99 256.56L321.83 256.56L321.68 256.55L321.53 256.54L321.37 256.53L321.22 256.51L321.07 256.49L320.91 256.47L320.76 256.44L320.61 256.41L320.46 256.38L320.31 256.34L320.16 256.3L320.01 256.25L319.86 256.2L319.72 256.15L319.57 256.09L319.43 256.03L319.28 255.97L319.14 255.9L319.01 255.84L266.48 226.59L266.48 226.59L266.4 226.42L266.31 226.19L266.23 225.96L266.15 225.72L266.09 225.48L266.03 225.23L265.99 224.98L265.95 224.72L265.92 224.47L265.91 224.21L265.9 223.95L265.9 114.13L265.91 113.87L265.92 113.61L265.95 113.35L265.99 113.09L266.03 112.84L266.09 112.6L266.15 112.35L266.23 112.11L266.31 111.88L266.4 111.65L266.5 111.42L266.61 111.2L266.73 110.98L266.86 110.77L266.99 110.57L267.13 110.37L267.28 110.17L267.44 109.98L267.6 109.8L267.77 109.62L267.95 109.45L268.13 109.29L268.32 109.13L268.51 108.99L268.71 108.84L268.92 108.71L269.13 108.59L269.35 108.47L269.57 108.36L269.79 108.26L270.03 108.17L270.26 108.08L270.5 108.01L270.74 107.94L270.99 107.89L271.24 107.84L271.49 107.8L271.75 107.78L272.01 107.76L272.27 107.76L371.41 107.76L371.68 107.76L371.94 107.78Z" id="b1fpPd7glA" fill="white" fill-opacity="1" filter="url(#shadow10628105)"></path></g><use xlink:href="#e2R1yPxTet" opacity="1" fill="#fbd2b1" fill-opacity="1"></use><g><use xlink:href="#e2R1yPxTet" opacity="1" fill-opacity="0" stroke="#f9ac3c" stroke-width="7" stroke-opacity="1"></use></g></g><g><use xlink:href="#c3W4E4N18f" opacity="1" fill="#f9ac3c" fill-opacity="1"></use></g><g><use xlink:href="#a4AT3aLz6n" opacity="1" fill="#545454" fill-opacity="1"></use></g><g><use xlink:href="#a3Um8eUK6l" opacity="1" fill="#545454" fill-opacity="1"></use></g><g><use xlink:href="#bMDgJSXo" opacity="1" fill="#545454" fill-opacity="1"></use></g><g><g><use xlink:href="#j1Ul7SodU" opacity="1" fill-opacity="0" stroke="#d7a546" stroke-width="7" stroke-opacity="1"></use></g></g></g></g></svg>