<?xml version="1.0" encoding="UTF-8" standalone="no"?>
<!DOCTYPE svg PUBLIC "-//W3C//DTD SVG 1.1//EN" "http://www.w3.org/Graphics/SVG/1.1/DTD/svg11.dtd">
<svg version="1.1" xmlns="http://www.w3.org/2000/svg" xmlns:xlink="http://www.w3.org/1999/xlink" preserveAspectRatio="xMidYMid meet" viewBox="0 0 1280 200" width="1280" height="200"><defs><path d="M277.11 -166.51L278.92 -166.26L280.7 -165.91L282.46 -165.47L284.2 -164.94L285.91 -164.31L287.59 -163.59L289.24 -162.79L290.86 -161.91L292.45 -160.94L294.01 -159.88L295.53 -158.75L297.02 -157.55L298.47 -156.26L299.88 -154.91L301.25 -153.48L302.57 -151.99L303.86 -150.42L304.1 -150.11L304.42 -150.51L305.3 -151.41L306.26 -152.22L307.28 -152.94L308.37 -153.57L309.52 -154.09L310.72 -154.51L311.96 -154.82L313.25 -155.01L314.57 -155.07L315.9 -155.01L317.19 -154.82L318.43 -154.51L319.63 -154.09L320.78 -153.57L321.87 -152.94L322.89 -152.22L323.85 -151.41L324.72 -150.51L325.52 -149.54L326.23 -148.5L326.85 -147.39L327.36 -146.22L327.77 -145L328.08 -143.73L328.26 -142.42L328.32 -141.07L328.26 -139.72L328.08 -138.41L327.77 -137.14L327.36 -135.92L326.85 -134.75L326.23 -133.65L325.52 -132.6L324.72 -131.63L323.85 -130.74L322.89 -129.93L321.87 -129.2L320.78 -128.58L319.63 -128.05L318.43 -127.63L317.19 -127.32L315.9 -127.14L315.35 -127.11L315.93 -124.88L316.46 -122.58L316.92 -120.25L317.31 -117.88L317.63 -115.47L317.89 -113.04L318.01 -111.35L318.78 -111.54L319.93 -111.71L321.11 -111.77L322.29 -111.71L323.45 -111.54L324.58 -111.26L325.67 -110.88L326.74 -110.4L327.76 -109.82L328.74 -109.15L329.68 -108.39L330.56 -107.55L331.4 -106.64L332.18 -105.65L332.91 -104.59L333.57 -103.46L334.16 -102.27L334.69 -101.03L335.15 -99.73L335.53 -98.39L335.72 -97.48L336.07 -97.45L339.63 -97.09L343.14 -96.59L346.6 -95.95L350.01 -95.18L353.38 -94.27L356.69 -93.24L359.94 -92.08L362.28 -91.14L361.84 -92.39L361.46 -93.74L361.16 -95.13L360.94 -96.55L360.8 -98.02L360.76 -99.52L360.79 -100.49L360.09 -100.52L358.93 -100.69L357.8 -100.97L356.71 -101.35L355.65 -101.83L354.62 -102.41L353.64 -103.08L352.71 -103.84L351.82 -104.67L350.98 -105.59L350.2 -106.58L349.48 -107.64L348.81 -108.77L348.22 -109.95L347.69 -111.2L347.24 -112.49L346.86 -113.84L346.55 -115.23L346.33 -116.66L346.2 -118.12L346.15 -119.62L346.2 -121.12L346.33 -122.58L346.55 -124.01L346.86 -125.4L347.24 -126.74L347.69 -128.04L348.22 -129.29L348.82 -130.47L349.48 -131.6L350.2 -132.66L350.98 -133.65L351.82 -134.57L352.71 -135.4L353.64 -136.16L354.62 -136.83L355.65 -137.41L356.71 -137.89L357.8 -138.27L358.93 -138.55L360.09 -138.72L361.27 -138.78L362.45 -138.72L363.6 -138.55L364.73 -138.27L365.83 -137.89L366.89 -137.41L367.91 -136.83L368.89 -136.16L369.83 -135.4L370.72 -134.57L371.55 -133.65L372.34 -132.66L373.06 -131.6L373.72 -130.47L374.32 -129.28L374.84 -128.04L375.3 -126.74L375.68 -125.4L375.98 -124.01L376.2 -122.58L376.34 -121.12L376.38 -119.62L376.35 -118.65L377.05 -118.61L378.21 -118.44L379.33 -118.17L380.43 -117.78L380.96 -117.54L381.05 -117.97L381.64 -120.23L382.29 -122.44L383 -124.62L383.77 -126.74L384.6 -128.82L385.48 -130.85L386.42 -132.83L387.41 -134.76L388.46 -136.63L389.55 -138.44L390.7 -140.19L391.89 -141.88L393.13 -143.51L394.41 -145.08L395.74 -146.57L397.11 -148L398.52 -149.35L399.97 -150.64L401.45 -151.84L402.98 -152.97L404.53 -154.02L406.13 -154.99L407.75 -155.88L409.4 -156.68L411.08 -157.4L412.79 -158.02L414.53 -158.56L416.29 -159L418.07 -159.35L419.88 -159.6L421.7 -159.75L423.55 -159.8L425.39 -159.75L427.22 -159.6L429.02 -159.35L430.81 -159L432.57 -158.56L434.3 -158.02L436.01 -157.4L437.7 -156.68L439.35 -155.88L440.97 -154.99L442.56 -154.02L444.12 -152.97L445.64 -151.84L447.13 -150.63L448.58 -149.35L449.99 -148L451.36 -146.57L452.68 -145.07L453.97 -143.51L455.21 -141.88L456.4 -140.19L457.54 -138.44L458.64 -136.62L459.68 -134.75L460.68 -132.83L461.61 -130.85L462.5 -128.82L463.33 -126.74L464.1 -124.61L464.81 -122.44L465.45 -120.23L466.04 -117.97L466.57 -115.67L467.02 -113.34L467.42 -110.97L467.74 -108.56L467.99 -106.13L468.18 -103.66L468.29 -101.17L468.33 -98.65L468.29 -96.13L468.18 -93.63L468.17 -93.5L468.39 -93.13L469.43 -91.26L470.43 -89.34L471.37 -87.36L472.25 -85.33L473.08 -83.25L473.85 -81.12L474.09 -80.39L474.82 -80.98L475.8 -81.65L476.82 -82.23L477.89 -82.71L478.98 -83.09L480.11 -83.37L481.26 -83.54L482.45 -83.6L483.63 -83.54L484.78 -83.37L485.91 -83.09L487 -82.71L488.07 -82.23L489.09 -81.65L490.07 -80.98L491.01 -80.22L491.9 -79.39L492.73 -78.47L493.51 -77.48L494.24 -76.42L494.9 -75.29L495.49 -74.11L495.67 -73.69L496.3 -74.58L497.54 -76.21L498.82 -77.77L500.15 -79.27L501.52 -80.7L502.93 -82.05L504.38 -83.33L505.86 -84.54L507.39 -85.67L508.94 -86.72L509.82 -87.26L509.79 -87.32L509.34 -88.62L508.96 -89.96L508.65 -91.35L508.43 -92.78L508.3 -94.25L508.26 -95.74L508.3 -97.24L508.43 -98.7L508.65 -100.13L508.96 -101.52L509.34 -102.87L509.79 -104.16L510.32 -105.41L510.92 -106.6L511.58 -107.72L512.3 -108.78L513.08 -109.77L513.92 -110.69L514.81 -111.53L515.74 -112.28L516.72 -112.95L517.75 -113.53L518.81 -114.01L519.91 -114.39L521.03 -114.67L522.19 -114.84L523.37 -114.9L524.55 -114.84L525.7 -114.67L526.83 -114.39L527.93 -114.01L528.99 -113.53L530.01 -112.95L530.99 -112.28L531.93 -111.53L532.82 -110.69L533.66 -109.77L534.44 -108.78L535.16 -107.72L535.82 -106.6L536.42 -105.41L536.94 -104.16L537.4 -102.87L537.78 -101.52L538.08 -100.13L538.3 -98.7L538.44 -97.24L538.48 -95.74L538.44 -94.25L538.3 -92.78L538.08 -91.35L537.99 -90.94L538.71 -90.72L540.42 -90.1L542.11 -89.38L543.76 -88.58L545.38 -87.69L546.97 -86.72L548.53 -85.67L550.05 -84.54L551.54 -83.33L552.99 -82.05L553.15 -81.89L553.13 -82.1L553.08 -83.6L553.13 -85.09L553.26 -86.56L553.48 -87.99L553.79 -89.37L554.17 -90.72L554.62 -92.02L555.15 -93.26L555.75 -94.45L556.41 -95.57L557.13 -96.63L557.91 -97.62L558.75 -98.54L559.64 -99.38L560.57 -100.13L561.55 -100.8L562.58 -101.38L563.64 -101.86L564.73 -102.25L565.86 -102.52L567.02 -102.69L568.19 -102.75L568.22 -103L568.58 -104.45L569.07 -105.82L569.67 -107.07L570.38 -108.2L571.19 -109.2L572.08 -110.05L573.05 -110.73L574.09 -111.23L575.18 -111.55L576.32 -111.66L577.46 -111.55L578.55 -111.23L579.59 -110.73L580.56 -110.05L581.45 -109.2L582.26 -108.2L582.97 -107.07L583.57 -105.82L584.06 -104.45L584.42 -103L584.64 -101.47L584.72 -99.87L584.64 -98.27L584.42 -96.73L584.06 -95.28L583.57 -93.92L582.97 -92.66L582.26 -91.53L582.04 -91.26L582.23 -90.72L582.61 -89.37L582.91 -87.98L583.13 -86.56L583.27 -85.09L583.31 -83.59L583.26 -82.1L583.13 -80.63L582.91 -79.2L582.61 -77.81L582.23 -76.47L581.85 -75.38L582.07 -75.43L585.58 -75.93L589.14 -76.29L592.73 -76.51L594.01 -76.54L594.01 -76.58L594.05 -78.08L594.19 -79.54L594.41 -80.97L594.71 -82.36L595.09 -83.71L595.54 -85.01L596.07 -86.25L596.67 -87.44L597.33 -88.56L598.05 -89.62L598.83 -90.61L599.67 -91.53L600.56 -92.37L601.49 -93.12L602.48 -93.79L603.5 -94.37L604.56 -94.85L605.66 -95.23L606.78 -95.51L607.94 -95.68L609.12 -95.74L610.3 -95.68L611.46 -95.51L612.58 -95.23L613.68 -94.85L614.74 -94.37L615.76 -93.79L616.75 -93.12L617.48 -92.53L617.72 -93.27L618.49 -95.39L619.32 -97.47L620.2 -99.5L620.66 -100.47L620.4 -100.98L619.88 -102.12L619.41 -103.28L618.98 -104.46L618.6 -105.66L618.27 -106.89L617.99 -108.13L617.75 -109.38L617.57 -110.66L617.43 -111.95L617.35 -113.25L617.32 -114.57L617.35 -115.89L617.43 -117.2L617.57 -118.49L617.75 -119.76L617.99 -121.02L618.27 -122.26L618.6 -123.48L618.98 -124.68L619.41 -125.86L619.88 -127.02L620.4 -128.16L620.95 -129.27L621.56 -130.36L622.2 -131.42L622.88 -132.46L623.6 -133.47L624.36 -134.44L625.15 -135.39L625.98 -136.31L626.85 -137.2L627.75 -138.05L628.68 -138.87L629.64 -139.65L630.64 -140.39L631.66 -141.1L632.71 -141.78L633.79 -142.41L634.89 -143L636.02 -143.55L637.18 -144.06L638.36 -144.52L639.56 -144.94L640.78 -145.31L642.02 -145.64L643.28 -145.92L644.56 -146.15L645.85 -146.33L647.16 -146.47L648.49 -146.55L649.82 -146.57L651.16 -146.55L652.49 -146.47L653.8 -146.33L655.09 -146.15L656.37 -145.92L657.63 -145.64L658.87 -145.31L660.09 -144.94L661.29 -144.52L662.47 -144.06L663.62 -143.55L664.75 -143L665.86 -142.41L666.94 -141.78L667.99 -141.1L669.01 -140.39L670.01 -139.65L670.97 -138.87L671.9 -138.05L672.8 -137.2L673.67 -136.31L674.5 -135.39L675.29 -134.44L676.05 -133.47L676.77 -132.46L677.45 -131.42L678.09 -130.36L678.69 -129.27L679.25 -128.16L679.77 -127.02L680.24 -125.86L680.67 -124.68L681.05 -123.48L681.38 -122.26L681.66 -121.02L681.9 -119.76L681.96 -119.37L682.06 -119.4L683.63 -119.9L685.24 -120.34L686.86 -120.71L688.52 -121.02L690.19 -121.26L691.88 -121.43L693.59 -121.54L695.32 -121.57L697.05 -121.54L698.77 -121.43L700.46 -121.26L702.13 -121.02L703.69 -120.73L703.87 -121.5L704.29 -122.72L704.8 -123.89L705.42 -125L706.13 -126.04L706.92 -127.01L707.8 -127.91L708.76 -128.72L709.78 -129.44L710.87 -130.07L712.02 -130.59L713.22 -131.01L714.46 -131.32L715.75 -131.51L717.07 -131.57L718.4 -131.51L719.69 -131.32L720.93 -131.01L722.13 -130.59L723.28 -130.07L724.37 -129.44L725.39 -128.72L726.35 -127.91L727.22 -127.01L728.02 -126.04L728.73 -125L729.35 -123.89L729.86 -122.72L730.27 -121.5L730.58 -120.23L730.76 -118.92L730.82 -117.57L730.76 -116.22L730.58 -114.91L730.27 -113.64L729.86 -112.42L729.35 -111.25L728.73 -110.15L728.02 -109.1L727.22 -108.13L726.56 -107.46L727.21 -106.72L728.24 -105.46L729.22 -104.17L730.15 -102.83L731.03 -101.45L731.86 -100.04L732.63 -98.6L733.36 -97.12L734.02 -95.61L734.58 -94.21L734.94 -94.48L735.97 -95.16L737.03 -95.78L738.12 -96.35L739.25 -96.85L740.4 -97.3L741.58 -97.68L742.79 -98L744.01 -98.24L745.27 -98.43L746.54 -98.54L747.83 -98.57L749.11 -98.54L750.38 -98.43L751.63 -98.24L752.86 -98L754.07 -97.68L755.25 -97.3L756.4 -96.85L757.53 -96.35L758.62 -95.78L759.68 -95.16L760.71 -94.48L761.7 -93.75L762.65 -92.96L763.57 -92.13L764.44 -91.25L765.27 -90.32L766.05 -89.35L766.79 -88.33L767.48 -87.28L768.11 -86.19L768.7 -85.06L769.23 -83.89L769.71 -82.7L770.13 -81.47L770.48 -80.22L770.62 -79.65L771.25 -79.63L775.32 -79.57L779.4 -79.63L783.44 -79.78L787.43 -80.05L788.3 -80.13L788.12 -80.64L787.82 -81.91L787.64 -83.22L787.57 -84.57L787.64 -85.92L787.82 -87.23L788.12 -88.5L788.54 -89.72L789.05 -90.89L789.67 -92L790.38 -93.04L791.17 -94.01L792.05 -94.91L793.01 -95.72L794.03 -96.44L795.12 -97.07L796.27 -97.59L797.47 -98.01L798.71 -98.32L800 -98.51L801.32 -98.57L802.65 -98.51L803.94 -98.32L805.18 -98.01L806.38 -97.59L807.16 -97.24L807.62 -98.22L808.5 -99.92L809.43 -101.57L810.41 -103.17L811.44 -104.73L812.51 -106.24L813.63 -107.69L814.79 -109.09L816 -110.43L817.24 -111.71L818.53 -112.94L819.85 -114.1L821.21 -115.2L822.6 -116.24L824.03 -117.21L825.49 -118.11L826.98 -118.94L828.5 -119.71L830.06 -120.39L831.63 -121.01L833.24 -121.55L834.86 -122L836.52 -122.38L838.19 -122.68L839.88 -122.9L841.59 -123.03L843.32 -123.07L845.05 -123.03L846.77 -122.9L848.46 -122.68L850.13 -122.38L851.78 -122L853.41 -121.55L855.02 -121.01L856.59 -120.39L858.14 -119.71L859.67 -118.94L861.16 -118.11L862.62 -117.21L864.05 -116.24L865.44 -115.2L866.8 -114.1L868.12 -112.94L869.41 -111.71L870.65 -110.43L871.86 -109.09L873.02 -107.69L873.97 -106.45L874.38 -107.04L875.17 -108.01L876.05 -108.91L877.01 -109.72L878.03 -110.44L879.12 -111.07L880.27 -111.59L881.47 -112.01L882.71 -112.32L884 -112.51L885.32 -112.57L886.65 -112.51L887.94 -112.32L889.18 -112.01L890.38 -111.59L891.53 -111.07L892.62 -110.44L893.64 -109.72L894.6 -108.91L895.22 -108.28L895.61 -108.46L897.29 -109.18L899 -109.81L900.73 -110.34L902.49 -110.78L904.28 -111.13L906.08 -111.38L907.91 -111.53L909.75 -111.58L911.6 -111.53L913.42 -111.38L915.23 -111.13L917.01 -110.78L918.77 -110.34L920.51 -109.81L922.22 -109.18L923.9 -108.46L925.55 -107.66L927.18 -106.77L928.77 -105.8L930.32 -104.75L931.85 -103.62L933.33 -102.42L934.78 -101.13L936.19 -99.78L937.56 -98.35L938.89 -96.85L940.17 -95.29L940.73 -94.56L940.77 -94.59L942.39 -95.47L944.04 -96.28L945.72 -96.99L947.43 -97.62L948.15 -97.84L948.07 -98.25L947.85 -99.68L947.71 -101.14L947.67 -102.64L947.71 -104.13L947.85 -105.6L948.07 -107.03L948.37 -108.42L948.75 -109.76L949.2 -111.06L949.73 -112.3L950.33 -113.49L950.99 -114.62L951.71 -115.68L952.49 -116.67L953.33 -117.58L954.22 -118.42L955.15 -119.18L956.14 -119.85L957.16 -120.42L958.22 -120.91L959.32 -121.29L960.44 -121.57L961.6 -121.74L962.78 -121.8L963.96 -121.74L965.12 -121.57L966.24 -121.29L967.34 -120.91L968.4 -120.42L969.42 -119.85L970.41 -119.18L971.34 -118.42L972.23 -117.58L973.07 -116.67L973.85 -115.68L974.57 -114.62L975.23 -113.49L975.83 -112.3L976.36 -111.06L976.81 -109.76L977.19 -108.42L977.49 -107.03L977.71 -105.6L977.85 -104.13L977.89 -102.64L977.85 -101.14L977.71 -99.68L977.49 -98.25L977.19 -96.86L976.81 -95.51L976.35 -94.22L976.33 -94.15L977.2 -93.62L978.76 -92.57L980.28 -91.44L981.77 -90.23L983.22 -88.95L984.63 -87.59L985.72 -86.45L986.17 -87.01L987.05 -87.91L988.01 -88.72L989.03 -89.44L990.12 -90.07L991.27 -90.59L992.47 -91.01L993.71 -91.32L995 -91.51L996.32 -91.57L997.65 -91.51L998.94 -91.32L1000.18 -91.01L1001.38 -90.59L1002.53 -90.07L1003.62 -89.44L1004.64 -88.72L1005.6 -87.91L1006.47 -87.01L1007.27 -86.04L1007.98 -85L1008.6 -83.89L1009.11 -82.72L1009.52 -81.5L1009.83 -80.23L1009.89 -79.81L1010.49 -79.93L1012.32 -80.16L1014.16 -80.24L1016.01 -80.16L1017.83 -79.93L1018.97 -79.7L1018.67 -80.15L1018.05 -81.25L1017.54 -82.42L1017.12 -83.64L1016.82 -84.91L1016.64 -86.22L1016.57 -87.57L1016.64 -88.92L1016.82 -90.23L1017.12 -91.5L1017.54 -92.72L1018.05 -93.89L1018.67 -95L1019.38 -96.04L1020.17 -97.01L1021.05 -97.91L1022.01 -98.72L1023.03 -99.44L1024.12 -100.07L1025.27 -100.59L1026.47 -101.01L1027.71 -101.32L1029 -101.51L1030.32 -101.57L1031.65 -101.51L1032.94 -101.32L1034.18 -101.01L1035.38 -100.59L1036.53 -100.07L1037.62 -99.44L1038.64 -98.72L1039.6 -97.91L1040.47 -97.01L1041.27 -96.04L1041.98 -95L1042.2 -94.61L1042.89 -95.46L1044.42 -97.15L1045.97 -98.72L1047.56 -100.17L1049.19 -101.49L1050.84 -102.69L1052.52 -103.76L1054.23 -104.69L1055.97 -105.49L1057.73 -106.15L1059.51 -106.67L1061.32 -107.05L1063.14 -107.27L1064.99 -107.35L1066.83 -107.27L1068.66 -107.05L1070.46 -106.67L1072.25 -106.15L1074.01 -105.49L1075.74 -104.69L1077.45 -103.76L1079.14 -102.69L1080.79 -101.49L1080.94 -101.37L1081.03 -101.44L1082.12 -102.07L1083.27 -102.59L1084.47 -103.01L1085.71 -103.32L1087 -103.51L1088.32 -103.57L1089.65 -103.51L1090.94 -103.32L1092.18 -103.01L1093.38 -102.59L1094.53 -102.07L1094.56 -102.05L1095.02 -103.19L1095.79 -104.98L1096.62 -106.72L1097.5 -108.42L1098.43 -110.07L1099.41 -111.67L1100.44 -113.23L1101.51 -114.74L1102.63 -116.19L1103.79 -117.59L1105 -118.93L1106.24 -120.21L1107.53 -121.44L1108.85 -122.6L1109.96 -123.5L1109.95 -123.55L1109.81 -125.01L1109.77 -126.51L1109.81 -128L1109.95 -129.47L1110.17 -130.9L1110.47 -132.29L1110.85 -133.63L1111.31 -134.93L1111.83 -136.17L1112.43 -137.36L1113.09 -138.49L1113.81 -139.55L1114.59 -140.54L1115.43 -141.45L1116.32 -142.29L1117.26 -143.05L1118.24 -143.72L1119.26 -144.29L1120.32 -144.77L1121.42 -145.16L1122.55 -145.44L1123.7 -145.61L1124.88 -145.66L1126.06 -145.61L1127.22 -145.44L1128.35 -145.16L1129.44 -144.77L1130.5 -144.29L1131.53 -143.72L1132.51 -143.05L1133.44 -142.29L1134.33 -141.45L1135.17 -140.54L1135.95 -139.55L1136.67 -138.48L1137.33 -137.36L1137.93 -136.17L1138.46 -134.93L1138.91 -133.63L1139.29 -132.29L1139.59 -130.9L1139.61 -130.77L1140.78 -130.5L1142.41 -130.05L1144.02 -129.51L1145.59 -128.89L1147.14 -128.21L1148.67 -127.44L1150.16 -126.61L1151.62 -125.71L1153.05 -124.74L1154.44 -123.7L1155.8 -122.6L1157.12 -121.44L1158.41 -120.21L1159.65 -118.93L1160.86 -117.59L1162.02 -116.19L1163.14 -114.74L1164.21 -113.23L1165.24 -111.67L1166.22 -110.07L1167.15 -108.42L1168.03 -106.72L1168.86 -104.98L1169.63 -103.19L1170.17 -101.82L1170.87 -102.79L1171.65 -103.77L1172.48 -104.71L1173.35 -105.59L1174.26 -106.43L1175.21 -107.21L1176.2 -107.93L1177.22 -108.59L1178.28 -109.2L1179.37 -109.74L1180.48 -110.21L1181.63 -110.62L1182.8 -110.96L1183.99 -111.22L1185.21 -111.42L1186.44 -111.53L1187.7 -111.57L1188.95 -111.53L1190.19 -111.42L1191.41 -111.22L1192.6 -110.96L1193.77 -110.62L1194.92 -110.21L1196.03 -109.74L1197.12 -109.2L1198.18 -108.59L1199.2 -107.93L1200.19 -107.21L1200.34 -107.08L1200.57 -107.38L1201.41 -108.29L1202.29 -109.13L1203.23 -109.89L1204.21 -110.56L1205.24 -111.13L1206.3 -111.62L1207.39 -112L1208.52 -112.28L1209.68 -112.45L1210.86 -112.5L1212.04 -112.45L1213.19 -112.28L1214.32 -112L1215.42 -111.62L1216.48 -111.13L1217.5 -110.56L1218.48 -109.89L1219.42 -109.13L1220.31 -108.29L1221.14 -107.38L1221.92 -106.39L1222.65 -105.33L1223.31 -104.2L1223.91 -103.01L1224.43 -101.77L1224.89 -100.47L1225.27 -99.13L1225.57 -97.74L1225.79 -96.31L1225.92 -94.84L1225.97 -93.35L1225.92 -91.85L1225.79 -90.39L1225.57 -88.96L1225.27 -87.57L1224.89 -86.22L1224.43 -84.93L1223.9 -83.68L1223.59 -83.05L1224.9 -83.18L1228.5 -83.4L1232.13 -83.47L1235.76 -83.4L1239.35 -83.18L1242.9 -82.82L1245.9 -82.39L1245.98 -82.61L1246.51 -83.86L1247.1 -85.04L1247.76 -86.17L1248.49 -87.23L1249.27 -88.22L1250.1 -89.14L1250.99 -89.97L1251.93 -90.73L1252.91 -91.4L1253.93 -91.98L1254.99 -92.46L1256.09 -92.84L1257.22 -93.12L1258.37 -93.29L1259.55 -93.35L1260.73 -93.29L1261.89 -93.12L1262.95 -92.86L1263.08 -93.27L1263.79 -95.44L1264.56 -97.57L1265.38 -99.65L1266.27 -101.68L1267.21 -103.66L1268.2 -105.58L1269.24 -107.45L1270.34 -109.26L1271.48 -111.02L1272.68 -112.71L1273.91 -114.34L1275.2 -115.9L1276.53 -117.4L1277.89 -118.82L1279.3 -120.18L1280.75 -121.46L1282.24 -122.67L1283.76 -123.8L1285.32 -124.85L1286.91 -125.82L1288.53 -126.71L1290.19 -127.51L1291.87 -128.22L1293.58 -128.85L1295.31 -129.38L1297.07 -129.83L1298.86 -130.17L1300.66 -130.42L1302.49 -130.58L1304.33 -130.63L1306.18 -130.58L1308 -130.42L1309.81 -130.17L1311.59 -129.83L1313.35 -129.38L1315.09 -128.85L1316.8 -128.22L1318.48 -127.51L1320.13 -126.71L1321.76 -125.82L1323.35 -124.85L1324.91 -123.8L1326.43 -122.67L1327.91 -121.46L1329.36 -120.18L1330.77 -118.82L1332.14 -117.39L1333.47 -115.9L1334.75 -114.34L1335.99 -112.71L1337.18 -111.01L1338.33 -109.26L1339.42 -107.45L1340.47 -105.58L1341.46 -103.65L1342.4 -101.68L1343.28 -99.65L1344.11 -97.57L1344.88 -95.44L1345.59 -93.27L1346.24 -91.05L1346.83 -88.79L1347.35 -86.5L1347.81 -84.16L1348.2 -81.79L1348.53 -79.39L1348.78 -76.95L1348.96 -74.48L1349.07 -71.99L1349.11 -69.47L1349.07 -66.95L1348.96 -64.46L1348.78 -61.99L1348.53 -59.56L1348.2 -57.15L1347.81 -54.78L1347.35 -52.45L1346.83 -50.15L1346.24 -47.89L1345.59 -45.68L1344.88 -43.5L1344.11 -41.38L1343.28 -39.3L1342.4 -37.27L1341.46 -35.29L1340.47 -33.36L1339.42 -31.49L1338.33 -29.68L1337.18 -27.93L1335.99 -26.24L1334.75 -24.61L1333.47 -23.05L1332.14 -21.55L1330.77 -20.12L1329.36 -18.77L1327.91 -17.48L1326.43 -16.28L1324.9 -15.15L1323.34 -14.1L1321.75 -13.13L1320.13 -12.24L1318.68 -11.53L1319.07 -9.39L1319.57 -5.87L1319.94 -2.3L1320.15 1.3L1320.23 4.95L1320.15 8.59L1319.93 12.19L1319.57 15.76L1319.07 19.28L1318.44 22.76L1317.66 26.18L1316.76 29.56L1315.73 32.88L1314.58 36.14L1313.3 39.35L1311.9 42.49L1310.39 45.56L1308.76 48.57L1307.02 51.51L1305.17 54.37L1303.22 57.15L1301.16 59.85L1299.01 62.47L1296.75 65.01L1294.41 67.45L1291.97 69.81L1289.45 72.07L1286.83 74.23L1284.14 76.29L1281.37 78.25L1278.52 80.11L1275.59 81.85L1272.6 83.49L1269.53 85.01L1266.4 86.41L1263.21 87.69L1259.96 88.85L1256.65 89.88L1253.28 90.79L1249.87 91.56L1246.4 92.2L1242.9 92.71L1239.34 93.07L1235.75 93.29L1232.12 93.36L1228.49 93.29L1224.9 93.07L1221.35 92.7L1217.84 92.2L1214.38 91.56L1210.96 90.79L1207.6 89.88L1204.29 88.85L1201.03 87.69L1197.84 86.41L1194.71 85L1191.65 83.48L1188.65 81.85L1185.73 80.1L1182.88 78.25L1180.1 76.29L1177.41 74.23L1174.8 72.06L1172.27 69.8L1169.84 67.45L1167.49 65L1165.24 62.47L1163.08 59.85L1161.03 57.15L1159.07 54.36L1157.23 51.5L1155.49 48.57L1153.86 45.56L1152.35 42.5L1151.03 43.67L1149.55 44.87L1148.02 46L1146.47 47.05L1144.87 48.02L1143.25 48.91L1141.6 49.71L1139.92 50.43L1138.21 51.05L1136.47 51.59L1134.71 52.03L1132.93 52.38L1131.12 52.63L1129.3 52.78L1127.45 52.83L1125.61 52.78L1123.78 52.63L1121.98 52.38L1120.19 52.03L1118.43 51.59L1116.7 51.05L1114.99 50.43L1113.3 49.71L1111.65 48.91L1110.03 48.02L1108.44 47.05L1106.88 46L1105.36 44.87L1103.87 43.66L1102.42 42.38L1101.01 41.03L1100.26 40.25L1100.07 40.75L1098.98 43.46L1097.83 46.08L1096.64 48.61L1095.4 51.04L1094.12 53.37L1092.79 55.61L1091.42 57.74L1090.01 59.77L1088.56 61.68L1087.08 63.49L1085.55 65.17L1084 66.74L1082.41 68.19L1080.78 69.52L1079.13 70.72L1077.45 71.79L1075.74 72.72L1074 73.52L1072.24 74.18L1070.46 74.7L1068.65 75.08L1066.83 75.3L1064.98 75.38L1063.14 75.3L1061.31 75.07L1059.51 74.7L1057.72 74.18L1055.96 73.52L1054.23 72.72L1052.52 71.78L1050.84 70.72L1049.18 69.52L1048.73 69.15L1048.15 70.57L1047.01 73.19L1045.82 75.72L1044.58 78.15L1043.29 80.49L1041.97 82.72L1040.6 84.85L1039.19 86.88L1037.74 88.8L1036.25 90.6L1034.73 92.29L1033.17 93.86L1031.58 95.31L1029.96 96.63L1028.31 97.83L1026.62 98.9L1024.91 99.83L1023.18 100.63L1021.42 101.29L1019.63 101.81L1017.83 102.19L1016 102.42L1014.16 102.49L1012.31 102.41L1010.49 102.19L1008.68 101.81L1006.9 101.29L1005.14 100.63L1003.4 99.83L1001.69 98.9L1000.01 97.83L998.36 96.63L996.74 95.31L995.14 93.86L993.59 92.29L992.06 90.6L990.58 88.79L989.13 86.88L987.72 84.85L986.35 82.72L985.02 80.49L983.74 78.15L982.5 75.72L981.31 73.19L980.16 70.57L979.07 67.86L978.02 65.07L977.03 62.19L976.09 59.24L975.21 56.2L974.38 53.1L973.61 49.92L972.9 46.67L972.25 43.36L971.66 39.99L971.4 38.24L970.96 39.34L969.56 42.48L968.05 45.55L966.42 48.56L964.68 51.5L962.83 54.36L960.88 57.14L958.82 59.84L956.67 62.46L954.42 65L952.07 67.44L949.63 69.8L947.11 72.06L944.5 74.22L941.8 76.28L939.03 78.24L936.18 80.1L933.25 81.84L930.26 83.48L927.19 85L924.06 86.4L920.87 87.68L917.62 88.84L914.31 89.88L910.95 90.78L907.53 91.55L904.07 92.19L900.56 92.7L897.01 93.06L893.41 93.28L892.22 93.3L889.56 95.34L886.79 97.3L883.93 99.15L881.01 100.9L878.01 102.53L874.95 104.05L871.82 105.45L868.63 106.73L865.37 107.89L862.07 108.93L858.7 109.83L855.29 110.61L851.82 111.25L848.31 111.75L844.76 112.11L841.17 112.33L837.54 112.4L833.91 112.33L830.32 112.11L826.77 111.75L823.26 111.25L819.79 110.61L816.38 109.83L813.01 108.93L809.7 107.89L806.45 106.73L803.26 105.45L800.13 104.05L797.07 102.53L794.07 100.89L791.15 99.15L788.3 97.29L785.52 95.33L782.83 93.27L780.22 91.11L777.69 88.85L775.25 86.49L772.91 84.05L770.66 81.51L768.5 78.89L766.45 76.19L764.49 73.41L762.65 70.54L760.91 67.61L760.53 66.91L759.08 66.88L755.49 66.66L751.94 66.3L751.63 66.25L750.29 67.07L748.67 67.96L747.02 68.76L745.33 69.47L743.62 70.1L741.89 70.63L740.13 71.08L738.35 71.42L736.54 71.67L734.71 71.83L732.87 71.88L731.02 71.83L729.2 71.67L727.39 71.42L725.61 71.08L723.85 70.63L722.11 70.1L720.4 69.47L718.72 68.76L717.07 67.95L715.45 67.07L713.86 66.1L712.3 65.05L710.78 63.92L709.29 62.71L707.84 61.43L706.43 60.07L705.68 59.29L705.49 59.8L704.4 62.5L703.25 65.12L702.06 67.65L700.82 70.08L699.54 72.42L698.21 74.65L696.84 76.78L695.43 78.81L693.98 80.73L692.5 82.53L690.97 84.22L689.42 85.79L687.82 87.24L686.2 88.56L684.55 89.76L682.87 90.83L681.16 91.76L679.42 92.56L677.66 93.22L675.88 93.74L674.07 94.12L672.25 94.35L670.4 94.42L668.56 94.35L666.73 94.12L664.93 93.74L663.14 93.22L661.38 92.56L659.65 91.76L657.94 90.83L656.25 89.76L654.6 88.56L654.15 88.19L653.57 89.62L652.43 92.24L651.23 94.76L650 97.2L648.71 99.53L647.38 101.77L646.02 103.9L644.61 105.92L643.16 107.84L641.67 109.64L640.15 111.33L638.59 112.9L637 114.35L635.38 115.68L633.72 116.87L632.04 117.94L630.33 118.88L628.6 119.68L626.84 120.34L625.05 120.86L623.25 121.23L621.42 121.46L619.58 121.53L617.73 121.46L615.91 121.23L614.1 120.86L612.32 120.34L610.56 119.68L608.82 118.88L607.11 117.94L605.43 116.87L603.78 115.67L602.15 114.35L600.56 112.9L599.01 111.33L597.48 109.64L596 107.84L594.55 105.92L593.14 103.9L591.77 101.76L590.76 100.06L589.13 99.96L585.58 99.6L582.07 99.09L578.61 98.45L575.19 97.68L571.83 96.77L568.52 95.74L565.27 94.58L562.07 93.3L558.94 91.89L555.88 90.37L554.3 89.51L552.53 91.1L549.91 93.26L547.22 95.33L544.45 97.29L541.6 99.14L538.67 100.89L535.68 102.52L532.61 104.04L529.48 105.44L526.29 106.73L523.04 107.88L519.73 108.92L516.36 109.82L512.95 110.6L509.48 111.24L505.98 111.74L502.42 112.1L498.83 112.32L495.2 112.39L491.57 112.32L487.98 112.1L484.43 111.74L480.92 111.24L477.46 110.6L474.04 109.82L472.35 109.37L471.98 109.38L470.13 109.31L468.31 109.08L466.5 108.71L464.72 108.19L462.96 107.53L461.22 106.73L459.51 105.79L457.83 104.72L456.18 103.52L455.28 102.79L454.73 102.52L451.73 100.88L448.81 99.14L445.96 97.28L443.18 95.32L440.49 93.26L437.88 91.1L435.35 88.84L432.92 86.48L430.57 84.04L428.32 81.5L428.05 81.18L426.63 81.59L424.82 81.97L423 82.19L421.15 82.27L419.31 82.19L417.48 81.97L415.68 81.59L413.9 81.07L412.13 80.41L410.4 79.61L408.69 78.68L407.01 77.61L406.44 77.19L405.54 77.64L402.41 79.04L399.21 80.33L395.96 81.49L392.65 82.52L389.29 83.42L385.87 84.2L382.41 84.84L378.9 85.34L375.35 85.7L371.76 85.92L368.13 86L364.5 85.92L360.91 85.7L357.35 85.34L353.84 84.84L350.38 84.2L346.97 83.42L343.6 82.52L340.29 81.48L337.04 80.32L333.85 79.04L333.63 78.94L332.48 79.01L328.85 79.09L325.22 79.01L321.63 78.79L318.07 78.43L314.56 77.93L312.84 77.61L311.34 78.95L308.73 81.11L306.03 83.17L303.26 85.13L300.41 86.99L297.49 88.73L294.49 90.37L291.43 91.89L288.3 93.29L285.1 94.57L281.85 95.73L278.54 96.77L275.18 97.67L271.76 98.44L268.3 99.08L264.79 99.59L261.24 99.95L257.64 100.17L256.45 100.19L253.79 102.23L251.02 104.19L248.17 106.04L245.24 107.79L242.25 109.42L239.18 110.94L236.05 112.34L232.86 113.63L229.61 114.78L226.3 115.82L222.93 116.72L219.52 117.5L216.05 118.14L212.54 118.64L208.99 119L205.4 119.22L201.77 119.29L198.14 119.22L194.55 119L191 118.64L187.49 118.14L184.02 117.5L180.61 116.72L177.25 115.82L173.94 114.78L170.68 113.62L167.49 112.34L164.36 110.94L161.3 109.42L158.3 107.78L155.38 106.04L152.53 104.18L149.75 102.22L147.06 100.16L144.45 98L141.92 95.74L139.49 93.38L137.14 90.94L134.89 88.4L132.73 85.78L130.68 83.08L128.72 80.3L126.88 77.44L125.14 74.5L123.51 71.49L122 68.42L120.6 65.28L120.16 64.18L119.89 65.93L119.31 69.3L118.66 72.61L117.95 75.86L117.18 79.04L116.35 82.14L115.46 85.18L114.52 88.13L113.53 91.01L112.49 93.8L111.39 96.51L110.25 99.13L109.05 101.66L107.82 104.09L106.53 106.42L105.21 108.66L103.84 110.79L102.43 112.82L100.98 114.73L99.49 116.54L97.97 118.22L96.41 119.79L94.82 121.24L93.2 122.57L91.54 123.77L89.86 124.84L88.15 125.77L86.42 126.57L84.66 127.23L82.87 127.75L81.07 128.12L79.24 128.35L77.4 128.43L75.55 128.35L73.73 128.12L71.92 127.75L70.14 127.23L68.38 126.57L66.64 125.77L64.93 124.83L63.25 123.77L61.6 122.57L59.97 121.24L58.38 119.79L56.83 118.22L55.3 116.53L53.82 114.73L52.37 112.81L50.96 110.79L49.59 108.66L48.26 106.42L46.98 104.09L45.74 101.65L44.55 99.13L43.4 96.51L42.83 95.08L42.37 95.45L40.72 96.65L39.04 97.72L37.33 98.65L35.59 99.45L33.83 100.12L32.05 100.63L30.24 101.01L28.42 101.24L26.57 101.31L24.73 101.24L22.9 101.01L21.1 100.63L19.31 100.11L17.55 99.45L15.82 98.65L14.11 97.72L12.43 96.65L10.77 95.45L9.15 94.13L7.56 92.68L6 91.11L4.48 89.42L2.99 87.61L1.54 85.7L0.13 83.67L-1.23 81.54L-2.56 79.31L-3.85 76.97L-5.08 74.54L-6.28 72.01L-7.42 69.39L-8.52 66.68L-8.71 66.18L-9.45 66.96L-10.86 68.31L-12.31 69.6L-13.8 70.8L-15.32 71.93L-16.88 72.98L-18.47 73.95L-20.09 74.84L-21.75 75.64L-23.43 76.36L-25.14 76.99L-26.87 77.52L-28.63 77.96L-30.42 78.31L-32.22 78.56L-34.05 78.71L-35.89 78.76L-37.74 78.71L-39.56 78.56L-41.37 78.31L-43.15 77.96L-44.91 77.52L-46.65 76.98L-48.36 76.36L-50.04 75.64L-51.69 74.84L-53.32 73.95L-54.91 72.98L-56.46 71.93L-57.99 70.8L-59.47 69.6L-60.79 68.43L-62.3 71.49L-63.93 74.5L-65.67 77.43L-67.52 80.29L-69.47 83.07L-71.53 85.78L-73.68 88.4L-75.93 90.93L-78.28 93.38L-80.72 95.73L-83.24 97.99L-85.85 100.16L-88.55 102.22L-91.32 104.18L-94.17 106.03L-97.1 107.78L-100.09 109.41L-103.16 110.93L-106.29 112.33L-109.48 113.62L-112.73 114.78L-116.04 115.81L-119.4 116.71L-122.82 117.49L-126.28 118.13L-129.79 118.63L-133.35 118.99L-136.94 119.21L-140.57 119.29L-144.2 119.21L-147.79 118.99L-151.34 118.63L-154.85 118.13L-158.31 117.49L-161.73 116.71L-165.09 115.81L-168.4 114.77L-171.65 113.61L-174.85 112.33L-177.98 110.93L-181.04 109.41L-184.04 107.77L-186.96 106.03L-189.81 104.18L-192.58 102.22L-195.28 100.15L-197.89 97.99L-200.41 95.73L-202.85 93.37L-205.2 90.93L-207.45 88.39L-209.61 85.77L-211.66 83.07L-213.61 80.29L-215.46 77.43L-217.2 74.49L-218.83 71.48L-220.34 68.41L-221.74 65.27L-223.02 62.06L-224.17 58.8L-225.2 55.48L-226.11 52.1L-226.88 48.68L-227.51 45.2L-228.01 41.68L-228.38 38.11L-228.59 34.51L-228.67 30.87L-228.59 27.22L-228.37 23.62L-228.01 20.05L-227.51 16.53L-227.12 14.39L-228.57 13.68L-230.19 12.79L-231.78 11.82L-233.34 10.77L-234.86 9.64L-236.35 8.44L-237.8 7.15L-239.21 5.8L-240.58 4.37L-241.91 2.87L-243.19 1.31L-244.43 -0.32L-245.62 -2.01L-246.76 -3.76L-247.86 -5.58L-248.9 -7.44L-249.9 -9.37L-250.84 -11.35L-251.72 -13.38L-252.55 -15.46L-253.32 -17.59L-254.03 -19.76L-254.68 -21.97L-255.26 -24.23L-255.79 -26.53L-256.25 -28.86L-256.64 -31.23L-256.96 -33.64L-257.22 -36.07L-257.4 -38.54L-257.51 -41.03L-257.55 -43.55L-257.51 -46.07L-257.4 -48.57L-257.22 -51.03L-256.96 -53.47L-256.64 -55.87L-256.25 -58.24L-255.79 -60.58L-255.26 -62.87L-254.68 -65.13L-254.03 -67.35L-253.32 -69.52L-252.55 -71.65L-251.72 -73.73L-250.83 -75.76L-249.9 -77.74L-248.9 -79.66L-247.86 -81.53L-246.76 -83.34L-245.62 -85.1L-244.43 -86.79L-243.19 -88.42L-241.9 -89.98L-240.58 -91.48L-239.21 -92.9L-237.8 -94.26L-236.35 -95.54L-234.86 -96.75L-233.34 -97.88L-231.78 -98.93L-230.19 -99.9L-228.57 -100.79L-226.91 -101.59L-225.23 -102.3L-223.52 -102.93L-221.79 -103.46L-220.03 -103.91L-218.24 -104.25L-216.44 -104.5L-214.61 -104.66L-212.77 -104.71L-210.92 -104.66L-209.1 -104.5L-207.29 -104.25L-205.51 -103.91L-203.75 -103.46L-202.01 -102.93L-200.3 -102.3L-198.62 -101.59L-196.97 -100.78L-195.34 -99.9L-193.75 -98.93L-192.2 -97.88L-190.67 -96.75L-189.19 -95.54L-187.74 -94.26L-186.33 -92.9L-184.96 -91.47L-183.63 -89.98L-182.35 -88.41L-181.11 -86.79L-179.92 -85.09L-178.77 -83.34L-177.68 -81.53L-176.63 -79.66L-175.64 -77.73L-174.7 -75.75L-173.82 -73.72L-172.99 -71.65L-172.22 -69.52L-171.51 -67.35L-171.39 -66.93L-170.32 -67.2L-169.17 -67.37L-167.99 -67.42L-166.81 -67.37L-165.65 -67.2L-164.53 -66.92L-163.43 -66.53L-162.37 -66.05L-161.35 -65.47L-160.36 -64.81L-159.43 -64.05L-158.54 -63.21L-157.7 -62.3L-156.92 -61.31L-156.2 -60.24L-155.54 -59.12L-154.94 -57.93L-154.41 -56.69L-154.33 -56.46L-151.34 -56.89L-147.78 -57.26L-144.19 -57.48L-140.56 -57.55L-136.93 -57.48L-133.34 -57.26L-132.02 -57.12L-132.34 -57.76L-132.87 -59L-133.32 -60.3L-133.7 -61.64L-134.01 -63.03L-134.22 -64.46L-134.36 -65.93L-134.4 -67.42L-134.36 -68.92L-134.22 -70.38L-134 -71.81L-133.7 -73.2L-133.32 -74.55L-132.87 -75.84L-132.34 -77.09L-131.74 -78.28L-131.08 -79.4L-130.36 -80.46L-129.58 -81.45L-128.74 -82.37L-127.85 -83.21L-126.92 -83.96L-125.93 -84.63L-124.91 -85.21L-123.85 -85.69L-122.75 -86.07L-121.63 -86.35L-120.47 -86.52L-119.29 -86.58L-118.11 -86.52L-116.95 -86.35L-115.83 -86.07L-114.73 -85.69L-113.67 -85.21L-112.65 -84.63L-111.67 -83.96L-110.73 -83.21L-109.84 -82.37L-109.55 -82.05L-109.53 -82.43L-109.31 -83.96L-108.95 -85.42L-108.46 -86.78L-107.86 -88.03L-107.15 -89.17L-106.34 -90.16L-105.45 -91.01L-104.48 -91.69L-103.44 -92.2L-102.35 -92.51L-101.21 -92.62L-100.07 -92.51L-98.98 -92.2L-97.94 -91.69L-96.97 -91.01L-96.08 -90.16L-95.28 -89.17L-94.57 -88.03L-93.96 -86.78L-93.48 -85.42L-93.12 -83.96L-92.89 -82.43L-92.82 -80.83L-92.89 -79.23L-93.12 -77.7L-93.48 -76.24L-93.96 -74.88L-94.57 -73.63L-95.28 -72.5L-96.08 -71.5L-96.98 -70.65L-97.94 -69.97L-98.98 -69.46L-100.07 -69.15L-101.21 -69.04L-102.35 -69.15L-103.44 -69.46L-104.31 -69.89L-104.22 -68.92L-104.18 -67.42L-104.22 -65.93L-104.36 -64.46L-104.58 -63.03L-104.88 -61.64L-105.26 -60.3L-105.72 -59L-106.24 -57.76L-106.84 -56.57L-107.5 -55.44L-108.22 -54.38L-109.01 -53.39L-109.84 -52.48L-110.2 -52.14L-109.47 -51.88L-106.28 -50.6L-103.15 -49.19L-100.09 -47.67L-97.09 -46.04L-94.17 -44.29L-91.32 -42.44L-88.54 -40.48L-86.45 -38.87L-86.45 -39L-86.31 -40.47L-86.09 -41.9L-85.79 -43.29L-85.41 -44.63L-84.95 -45.93L-84.43 -47.17L-83.83 -48.36L-83.17 -49.49L-82.45 -50.55L-81.66 -51.54L-80.83 -52.45L-79.94 -53.29L-79 -54.05L-78.02 -54.71L-77 -55.29L-75.94 -55.77L-74.84 -56.16L-74.82 -56.16L-74.88 -56.42L-75.16 -57.91L-75.38 -59.43L-75.55 -60.96L-75.64 -62.51L-75.68 -64.07L-75.64 -65.64L-75.55 -67.19L-75.38 -68.72L-75.16 -70.23L-74.88 -71.73L-74.53 -73.2L-74.13 -74.65L-73.67 -76.08L-73.16 -77.48L-72.59 -78.86L-71.97 -80.21L-71.29 -81.53L-70.57 -82.82L-69.79 -84.08L-68.97 -85.31L-68.1 -86.51L-67.18 -87.67L-66.22 -88.8L-65.22 -89.89L-64.17 -90.94L-63.09 -91.95L-61.96 -92.92L-60.8 -93.85L-59.6 -94.74L-58.36 -95.58L-57.09 -96.38L-55.79 -97.13L-54.46 -97.83L-53.09 -98.48L-51.7 -99.08L-50.27 -99.64L-48.83 -100.13L-48.42 -100.26L-48.43 -100.58L-48.38 -102.07L-48.25 -103.54L-48.03 -104.97L-47.73 -106.36L-47.35 -107.7L-46.89 -109L-46.36 -110.24L-45.77 -111.43L-45.1 -112.56L-44.38 -113.62L-43.6 -114.61L-42.76 -115.52L-41.88 -116.36L-40.94 -117.12L-39.96 -117.78L-38.93 -118.36L-37.87 -118.84L-36.78 -119.23L-35.65 -119.51L-34.49 -119.68L-33.31 -119.73L-32.13 -119.68L-30.98 -119.51L-29.85 -119.23L-28.75 -118.84L-27.69 -118.36L-26.67 -117.78L-25.69 -117.12L-24.75 -116.36L-23.86 -115.52L-23.03 -114.61L-22.25 -113.61L-21.52 -112.55L-20.86 -111.43L-20.27 -110.24L-19.74 -109L-19.28 -107.7L-18.9 -106.36L-18.6 -104.97L-18.38 -103.54L-18.25 -102.07L-18.2 -100.58L-18.25 -99.08L-18.36 -97.81L-17.06 -97.13L-15.76 -96.38L-14.49 -95.58L-13.25 -94.74L-12.05 -93.85L-10.89 -92.92L-9.76 -91.95L-9.69 -91.88L-9.58 -92.01L-8.7 -92.91L-7.74 -93.72L-6.72 -94.44L-5.63 -95.07L-4.48 -95.59L-3.28 -96.01L-2.04 -96.32L-0.75 -96.51L0.57 -96.57L1.9 -96.51L3.19 -96.32L4.43 -96.01L5.63 -95.59L6.78 -95.07L7.87 -94.44L8.89 -93.72L9.85 -92.91L10.72 -92.01L11.52 -91.04L12.23 -90L12.85 -88.89L13.36 -87.72L13.77 -86.5L14.08 -85.23L14.26 -83.92L14.32 -82.57L14.26 -81.22L14.08 -79.91L13.77 -78.64L13.36 -77.42L13.32 -77.32L14.11 -77.82L15.82 -78.76L17.56 -79.56L19.32 -80.22L21.1 -80.74L22.91 -81.11L24.73 -81.34L25.71 -81.38L26.07 -82.44L26.51 -83.59L27.01 -84.72L27.55 -85.82L28.13 -86.91L28.76 -87.96L28.83 -88.06L27.79 -88.52L26.69 -89.09L25.63 -89.73L24.62 -90.43L23.64 -91.19L22.71 -92L21.83 -92.87L21 -93.8L20.22 -94.77L19.5 -95.79L18.83 -96.86L18.23 -97.97L17.68 -99.12L17.21 -100.3L16.79 -101.53L16.45 -102.78L16.18 -104.07L15.98 -105.38L15.86 -106.71L15.82 -108.07L15.86 -109.43L15.98 -110.77L16.18 -112.08L16.45 -113.36L16.79 -114.62L17.21 -115.84L17.68 -117.03L18.23 -118.18L18.83 -119.29L19.5 -120.35L20.22 -121.37L21 -122.35L21.83 -123.27L22.71 -124.14L23.64 -124.96L24.62 -125.72L25.63 -126.42L26.69 -127.05L27.79 -127.62L28.92 -128.12L30.08 -128.56L31.28 -128.92L32.5 -129.2L33.75 -129.4L35.03 -129.53L36.32 -129.57L37.62 -129.53L38.89 -129.4L40.15 -129.2L41.37 -128.92L42.57 -128.56L43.73 -128.12L44.86 -127.62L45.96 -127.05L47.02 -126.42L48.03 -125.72L49.01 -124.96L49.94 -124.14L50.82 -123.27L51.65 -122.35L52.43 -121.37L53.15 -120.35L53.82 -119.29L54.42 -118.18L54.96 -117.03L55.44 -115.84L55.86 -114.62L56.2 -113.36L56.47 -112.08L56.66 -110.77L56.78 -109.43L56.82 -108.07L56.78 -106.71L56.66 -105.38L56.47 -104.07L56.26 -103.06L56.82 -103.07L57.68 -103.06L57.82 -103.45L58.5 -105.08L59.24 -106.68L60.05 -108.25L60.91 -109.78L61.83 -111.27L62.81 -112.72L63.85 -114.14L64.94 -115.52L66.08 -116.85L67.28 -118.14L68.52 -119.39L69.82 -120.58L71.16 -121.73L72.54 -122.84L73.97 -123.89L75.24 -124.74L74.4 -125.1L73.31 -125.66L72.27 -126.29L71.27 -127L70.32 -127.79L69.43 -128.63L68.59 -129.55L67.81 -130.52L67.1 -131.55L66.46 -132.63L65.88 -133.76L65.38 -134.94L64.96 -136.16L64.62 -137.42L64.37 -138.71L64.2 -140.04L64.12 -141.4L64.14 -142.76L64.25 -144.09L64.45 -145.39L64.74 -146.67L65.1 -147.9L65.55 -149.1L66.08 -150.26L66.67 -151.37L67.34 -152.42L68.08 -153.43L68.87 -154.38L69.73 -155.26L70.64 -156.08L71.61 -156.84L72.63 -157.52L73.69 -158.12L74.8 -158.65L75.95 -159.09L77.14 -159.45L78.36 -159.72L79.61 -159.89L80.89 -159.97L82.17 -159.95L83.43 -159.83L84.66 -159.61L85.86 -159.31L87.03 -158.91L88.16 -158.43L89.25 -157.87L90.29 -157.24L91.29 -156.53L92.24 -155.74L93.13 -154.9L93.97 -153.98L94.75 -153.01L95.46 -151.98L96.1 -150.9L96.68 -149.77L97.18 -148.59L97.6 -147.37L97.94 -146.11L98.19 -144.82L98.36 -143.49L98.44 -142.13L98.42 -140.78L98.31 -139.44L98.11 -138.14L97.82 -136.86L97.46 -135.63L97.01 -134.43L96.48 -133.27L95.93 -132.25L97.74 -132.42L99.65 -132.53L101.57 -132.57L103.5 -132.53L105.41 -132.42L107.29 -132.24L109.15 -131.98L110.99 -131.66L112.8 -131.26L114.59 -130.8L116.34 -130.28L118.07 -129.69L118.07 -129.73L118.37 -131L118.79 -132.22L119.3 -133.39L119.92 -134.5L120.63 -135.54L121.42 -136.51L122.3 -137.41L123.26 -138.22L124.28 -138.94L125.37 -139.57L126.52 -140.09L127.72 -140.51L128.96 -140.82L130.25 -141.01L131.57 -141.07L132.9 -141.01L134.19 -140.82L135.43 -140.51L136.63 -140.09L137.78 -139.57L138.87 -138.94L139.89 -138.22L140.85 -137.41L141.72 -136.51L142.52 -135.54L143.23 -134.5L143.85 -133.39L144.36 -132.22L144.77 -131L145.08 -129.73L145.26 -128.42L145.32 -127.07L145.26 -125.72L145.08 -124.41L144.77 -123.14L144.36 -121.92L143.85 -120.75L143.23 -119.65L142.52 -118.6L141.72 -117.63L140.85 -116.74L139.89 -115.93L138.87 -115.2L138.59 -115.04L139.3 -114.14L140.34 -112.72L141.32 -111.27L142.24 -109.78L143.1 -108.25L143.91 -106.68L144.65 -105.08L145.33 -103.45L145.94 -101.79L146.48 -100.13L146.72 -100.57L147.82 -102.39L148.96 -104.14L150.16 -105.83L151.4 -107.46L152.68 -109.02L154.01 -110.52L155.38 -111.95L156.79 -113.3L158.23 -114.58L159.72 -115.79L161.24 -116.92L162.8 -117.97L164.39 -118.94L166.01 -119.83L167.67 -120.63L169.35 -121.35L171.06 -121.97L172.79 -122.51L174.56 -122.95L176.34 -123.3L178.14 -123.55L179.97 -123.7L181.81 -123.75L183.66 -123.7L185.48 -123.55L187.29 -123.3L189.07 -122.95L190.83 -122.51L192.57 -121.97L194.28 -121.35L195.96 -120.63L197.61 -119.83L199.24 -118.94L200.83 -117.97L202.39 -116.92L203.91 -115.79L205.39 -114.58L206.84 -113.3L208.25 -111.94L209.62 -110.52L210.95 -109.02L212.23 -107.46L213.47 -105.83L214.66 -104.14L215.81 -102.38L215.83 -102.35L216.26 -102.72L217.28 -103.44L218.37 -104.07L219.52 -104.59L220.72 -105.01L221.96 -105.32L223.25 -105.51L224.57 -105.57L225.9 -105.51L227.19 -105.32L228.43 -105.01L228.67 -104.93L228.66 -105.56L228.7 -108.08L228.81 -110.57L228.99 -113.04L229.25 -115.48L229.57 -117.88L229.96 -120.25L230.42 -122.58L230.94 -124.88L231.53 -127.14L232.18 -129.36L232.89 -131.53L233.58 -133.44L233.27 -133.55L232.12 -134.08L231.03 -134.7L230.01 -135.43L229.05 -136.24L228.17 -137.13L227.38 -138.1L226.67 -139.15L226.05 -140.25L225.54 -141.42L225.12 -142.64L224.82 -143.91L224.64 -145.22L224.57 -146.57L224.64 -147.92L224.82 -149.23L225.12 -150.5L225.54 -151.72L226.05 -152.89L226.67 -154L227.38 -155.04L228.17 -156.01L229.05 -156.91L230.01 -157.72L231.03 -158.44L232.12 -159.07L233.27 -159.59L234.47 -160.01L235.71 -160.32L237 -160.51L238.32 -160.57L239.65 -160.51L240.94 -160.32L242.18 -160.01L243.38 -159.59L244.53 -159.07L245.62 -158.44L246.64 -157.72L247.6 -156.91L248.32 -156.17L248.41 -156.27L249.86 -157.55L251.35 -158.76L252.87 -159.89L254.43 -160.94L256.02 -161.91L257.64 -162.79L259.29 -163.6L260.97 -164.31L262.68 -164.94L264.42 -165.47L266.18 -165.91L267.96 -166.26L269.77 -166.51L271.6 -166.66L273.44 -166.71L275.28 -166.66L277.11 -166.51ZM2.53 -68.73L2.53 -68.72L2.68 -67.31L3 -67.72L4.09 -69.05L3.19 -68.82L2.53 -68.73ZM1254.65 -126.03L1255.68 -125.52L1256.65 -124.84L1257.55 -123.99L1258.35 -122.99L1259.06 -121.86L1259.67 -120.61L1260.15 -119.25L1260.51 -117.79L1260.74 -116.26L1260.81 -114.66L1260.74 -113.06L1260.51 -111.53L1260.15 -110.07L1259.67 -108.71L1259.06 -107.46L1258.35 -106.32L1257.55 -105.33L1256.65 -104.48L1255.68 -103.8L1254.65 -103.29L1253.56 -102.98L1252.42 -102.87L1251.28 -102.98L1250.19 -103.29L1249.15 -103.8L1248.18 -104.48L1247.29 -105.33L1246.48 -106.32L1245.77 -107.46L1245.17 -108.71L1244.68 -110.07L1244.32 -111.53L1244.1 -113.06L1244.02 -114.66L1244.1 -116.26L1244.32 -117.79L1244.68 -119.25L1245.17 -120.61L1245.77 -121.86L1246.48 -122.99L1247.29 -123.99L1248.18 -124.84L1249.15 -125.52L1250.19 -126.03L1251.28 -126.34L1252.42 -126.45L1253.56 -126.34L1254.65 -126.03ZM488.05 -126.04L489.09 -125.53L490.05 -124.85L490.95 -124L491.75 -123.01L492.46 -121.87L493.07 -120.62L493.55 -119.26L493.91 -117.8L494.14 -116.27L494.21 -114.67L494.14 -113.07L493.91 -111.54L493.55 -110.08L493.07 -108.72L492.46 -107.47L491.75 -106.34L490.95 -105.34L490.05 -104.49L489.08 -103.81L488.05 -103.3L486.96 -102.99L485.82 -102.88L484.68 -102.99L483.59 -103.3L482.55 -103.81L481.58 -104.49L480.69 -105.34L479.88 -106.34L479.17 -107.47L478.57 -108.72L478.08 -110.09L477.72 -111.54L477.5 -113.07L477.42 -114.67L477.5 -116.27L477.72 -117.8L478.08 -119.26L478.57 -120.62L479.17 -121.87L479.88 -123.01L480.69 -124L481.58 -124.85L482.55 -125.53L483.59 -126.04L484.68 -126.35L485.82 -126.46L486.96 -126.35L488.05 -126.04ZM778.94 -135.32L780.18 -135.01L781.38 -134.59L782.53 -134.07L783.62 -133.44L784.64 -132.72L785.6 -131.91L786.47 -131.01L787.27 -130.04L787.98 -129L788.6 -127.89L789.11 -126.72L789.52 -125.5L789.83 -124.23L790.01 -122.92L790.07 -121.57L790.01 -120.22L789.83 -118.91L789.52 -117.64L789.11 -116.42L788.6 -115.25L787.98 -114.15L787.27 -113.1L786.47 -112.13L785.6 -111.24L784.64 -110.43L783.62 -109.7L782.53 -109.08L781.38 -108.55L780.18 -108.13L778.94 -107.82L777.65 -107.64L776.32 -107.57L775 -107.64L773.71 -107.82L772.47 -108.13L771.27 -108.55L770.12 -109.08L769.03 -109.7L768.01 -110.43L767.05 -111.24L766.17 -112.13L765.38 -113.1L764.67 -114.15L764.05 -115.25L763.54 -116.42L763.12 -117.64L762.82 -118.91L762.64 -120.22L762.57 -121.57L762.64 -122.92L762.82 -124.23L763.12 -125.5L763.54 -126.72L764.05 -127.89L764.67 -129L765.38 -130.04L766.17 -131.01L767.05 -131.91L768.01 -132.72L769.03 -133.44L770.12 -134.07L771.27 -134.59L772.47 -135.01L773.71 -135.32L775 -135.51L776.32 -135.57L777.65 -135.51L778.94 -135.32ZM1065.94 -159.32L1067.18 -159.01L1068.38 -158.59L1069.53 -158.07L1070.62 -157.44L1071.64 -156.72L1072.6 -155.91L1073.47 -155.01L1074.27 -154.04L1074.98 -153L1075.6 -151.89L1076.11 -150.72L1076.52 -149.5L1076.83 -148.23L1077.01 -146.92L1077.07 -145.57L1077.01 -144.22L1076.83 -142.91L1076.52 -141.64L1076.11 -140.42L1075.6 -139.25L1074.98 -138.15L1074.27 -137.1L1073.47 -136.13L1072.6 -135.24L1071.64 -134.43L1070.62 -133.7L1069.53 -133.08L1068.38 -132.55L1067.18 -132.13L1065.94 -131.82L1064.65 -131.64L1063.32 -131.57L1062 -131.64L1060.71 -131.82L1059.47 -132.13L1058.27 -132.55L1057.12 -133.08L1056.03 -133.7L1055.01 -134.43L1054.05 -135.24L1053.17 -136.13L1052.38 -137.1L1051.67 -138.15L1051.05 -139.25L1050.54 -140.42L1050.12 -141.64L1049.82 -142.91L1049.64 -144.22L1049.57 -145.57L1049.64 -146.92L1049.82 -148.23L1050.12 -149.5L1050.54 -150.72L1051.05 -151.89L1051.67 -153L1052.38 -154.04L1053.17 -155.01L1054.05 -155.91L1055.01 -156.72L1056.03 -157.44L1057.12 -158.07L1058.27 -158.59L1059.47 -159.01L1060.71 -159.32L1062 -159.51L1063.32 -159.57L1064.65 -159.51L1065.94 -159.32ZM468.84 -159.87L469.88 -159.36L470.85 -158.68L471.74 -157.83L472.55 -156.83L473.26 -155.7L473.86 -154.45L474.35 -153.09L474.71 -151.63L474.93 -150.1L475.01 -148.5L474.93 -146.9L474.71 -145.37L474.35 -143.91L473.86 -142.55L473.26 -141.3L472.55 -140.17L471.74 -139.17L470.85 -138.32L469.88 -137.64L468.84 -137.13L467.75 -136.82L466.61 -136.71L465.47 -136.82L464.38 -137.13L463.34 -137.64L462.38 -138.32L461.48 -139.17L460.68 -140.17L459.97 -141.3L459.36 -142.55L458.88 -143.91L458.52 -145.37L458.29 -146.9L458.22 -148.5L458.29 -150.1L458.52 -151.63L458.88 -153.09L459.36 -154.45L459.97 -155.7L460.68 -156.83L461.48 -157.83L462.38 -158.68L463.35 -159.36L464.38 -159.87L465.47 -160.18L466.61 -160.29L467.75 -160.18L468.84 -159.87ZM535.84 -166.29L536.87 -165.78L537.84 -165.1L538.74 -164.25L539.54 -163.25L540.25 -162.12L540.86 -160.87L541.34 -159.51L541.7 -158.05L541.93 -156.52L542 -154.92L541.93 -153.32L541.7 -151.79L541.34 -150.33L540.86 -148.97L540.25 -147.72L539.54 -146.58L538.74 -145.59L537.84 -144.74L536.87 -144.06L535.84 -143.55L534.75 -143.24L533.61 -143.13L532.47 -143.24L531.38 -143.55L530.34 -144.06L529.37 -144.74L528.48 -145.59L527.67 -146.58L526.96 -147.72L526.36 -148.97L525.87 -150.33L525.51 -151.79L525.29 -153.32L525.21 -154.92L525.29 -156.52L525.51 -158.05L525.87 -159.51L526.36 -160.87L526.96 -162.12L527.67 -163.25L528.48 -164.25L529.37 -165.1L530.34 -165.78L531.38 -166.29L532.47 -166.6L533.61 -166.71L534.75 -166.6L535.84 -166.29ZM817.76 -164.11L818.98 -163.57L820.09 -162.83L821.08 -161.94L821.93 -160.89L822.63 -159.71L823.14 -158.42L823.46 -157.03L823.57 -155.57L823.46 -154.11L823.14 -152.73L822.63 -151.44L821.93 -150.26L821.08 -149.21L820.09 -148.31L818.98 -147.58L817.76 -147.03L816.45 -146.69L815.07 -146.57L813.7 -146.69L812.39 -147.03L811.17 -147.58L810.06 -148.31L809.07 -149.21L808.22 -150.26L807.52 -151.44L807.01 -152.73L806.69 -154.11L806.57 -155.57L806.69 -157.03L807.01 -158.42L807.52 -159.71L808.22 -160.89L809.07 -161.94L810.06 -162.83L811.17 -163.57L812.39 -164.11L813.7 -164.45L815.07 -164.57L816.45 -164.45L817.76 -164.11ZM929.94 -187.32L931.18 -187.01L932.38 -186.59L933.53 -186.07L934.62 -185.44L935.64 -184.72L936.6 -183.91L937.47 -183.01L938.27 -182.04L938.98 -181L939.6 -179.89L940.11 -178.72L940.52 -177.5L940.83 -176.23L941.01 -174.92L941.07 -173.57L941.01 -172.22L940.83 -170.91L940.52 -169.64L940.11 -168.42L939.6 -167.25L938.98 -166.15L938.27 -165.1L937.47 -164.13L936.6 -163.24L935.64 -162.43L934.62 -161.7L933.53 -161.08L932.38 -160.55L931.18 -160.13L929.94 -159.82L928.65 -159.64L927.32 -159.57L926 -159.64L924.71 -159.82L923.47 -160.13L922.27 -160.55L921.12 -161.08L920.03 -161.7L919.01 -162.43L918.05 -163.24L917.17 -164.13L916.38 -165.1L915.67 -166.15L915.05 -167.25L914.54 -168.42L914.12 -169.64L913.82 -170.91L913.64 -172.22L913.57 -173.57L913.64 -174.92L913.82 -176.23L914.12 -177.5L914.54 -178.72L915.05 -179.89L915.67 -181L916.38 -182.04L917.17 -183.01L918.05 -183.91L919.01 -184.72L920.03 -185.44L921.12 -186.07L922.27 -186.59L923.47 -187.01L924.71 -187.32L926 -187.51L927.32 -187.57L928.65 -187.51L929.94 -187.32Z" id="hY4o58ru4"></path></defs><g><g><g><g><filter id="shadow9583571" x="-267.55" y="-197.57" width="1626.66" height="336" filterUnits="userSpaceOnUse" primitiveUnits="userSpaceOnUse"><feFlood></feFlood><feComposite in2="SourceAlpha" operator="in"></feComposite><feGaussianBlur stdDeviation="1.41"></feGaussianBlur><feOffset dx="0" dy="0" result="afterOffset"></feOffset><feFlood flood-color="#000000" flood-opacity="0.75"></feFlood><feComposite in2="afterOffset" operator="in"></feComposite><feMorphology operator="dilate" radius="1"></feMorphology><feComposite in2="SourceAlpha" operator="out"></feComposite></filter><path d="M277.11 -166.51L278.92 -166.26L280.7 -165.91L282.46 -165.47L284.2 -164.94L285.91 -164.31L287.59 -163.59L289.24 -162.79L290.86 -161.91L292.45 -160.94L294.01 -159.88L295.53 -158.75L297.02 -157.55L298.47 -156.26L299.88 -154.91L301.25 -153.48L302.57 -151.99L303.86 -150.42L304.1 -150.11L304.42 -150.51L305.3 -151.41L306.26 -152.22L307.28 -152.94L308.37 -153.57L309.52 -154.09L310.72 -154.51L311.96 -154.82L313.25 -155.01L314.57 -155.07L315.9 -155.01L317.19 -154.82L318.43 -154.51L319.63 -154.09L320.78 -153.57L321.87 -152.94L322.89 -152.22L323.85 -151.41L324.72 -150.51L325.52 -149.54L326.23 -148.5L326.85 -147.39L327.36 -146.22L327.77 -145L328.08 -143.73L328.26 -142.42L328.32 -141.07L328.26 -139.72L328.08 -138.41L327.77 -137.14L327.36 -135.92L326.85 -134.75L326.23 -133.65L325.52 -132.6L324.72 -131.63L323.85 -130.74L322.89 -129.93L321.87 -129.2L320.78 -128.58L319.63 -128.05L318.43 -127.63L317.19 -127.32L315.9 -127.14L315.35 -127.11L315.93 -124.88L316.46 -122.58L316.92 -120.25L317.31 -117.88L317.63 -115.47L317.89 -113.04L318.01 -111.35L318.78 -111.54L319.93 -111.71L321.11 -111.77L322.29 -111.71L323.45 -111.54L324.58 -111.26L325.67 -110.88L326.74 -110.4L327.76 -109.82L328.74 -109.15L329.68 -108.39L330.56 -107.55L331.4 -106.64L332.18 -105.65L332.91 -104.59L333.57 -103.46L334.16 -102.27L334.69 -101.03L335.15 -99.73L335.53 -98.39L335.72 -97.48L336.07 -97.45L339.63 -97.09L343.14 -96.59L346.6 -95.95L350.01 -95.18L353.38 -94.27L356.69 -93.24L359.94 -92.08L362.28 -91.14L361.84 -92.39L361.46 -93.74L361.16 -95.13L360.94 -96.55L360.8 -98.02L360.76 -99.52L360.79 -100.49L360.09 -100.52L358.93 -100.69L357.8 -100.97L356.71 -101.35L355.65 -101.83L354.62 -102.41L353.64 -103.08L352.71 -103.84L351.82 -104.67L350.98 -105.59L350.2 -106.58L349.48 -107.64L348.81 -108.77L348.22 -109.95L347.69 -111.2L347.24 -112.49L346.86 -113.84L346.55 -115.23L346.33 -116.66L346.2 -118.12L346.15 -119.62L346.2 -121.12L346.33 -122.58L346.55 -124.01L346.86 -125.4L347.24 -126.74L347.69 -128.04L348.22 -129.29L348.82 -130.47L349.48 -131.6L350.2 -132.66L350.98 -133.65L351.82 -134.57L352.71 -135.4L353.64 -136.16L354.62 -136.83L355.65 -137.41L356.71 -137.89L357.8 -138.27L358.93 -138.55L360.09 -138.72L361.27 -138.78L362.45 -138.72L363.6 -138.55L364.73 -138.27L365.83 -137.89L366.89 -137.41L367.91 -136.83L368.89 -136.16L369.83 -135.4L370.72 -134.57L371.55 -133.65L372.34 -132.66L373.06 -131.6L373.72 -130.47L374.32 -129.28L374.84 -128.04L375.3 -126.74L375.68 -125.4L375.98 -124.01L376.2 -122.58L376.34 -121.12L376.38 -119.62L376.35 -118.65L377.05 -118.61L378.21 -118.44L379.33 -118.17L380.43 -117.78L380.96 -117.54L381.05 -117.97L381.64 -120.23L382.29 -122.44L383 -124.62L383.77 -126.74L384.6 -128.82L385.48 -130.85L386.42 -132.83L387.41 -134.76L388.46 -136.63L389.55 -138.44L390.7 -140.19L391.89 -141.88L393.13 -143.51L394.41 -145.08L395.74 -146.57L397.11 -148L398.52 -149.35L399.97 -150.64L401.45 -151.84L402.98 -152.97L404.53 -154.02L406.13 -154.99L407.75 -155.88L409.4 -156.68L411.08 -157.4L412.79 -158.02L414.53 -158.56L416.29 -159L418.07 -159.35L419.88 -159.6L421.7 -159.75L423.55 -159.8L425.39 -159.75L427.22 -159.6L429.02 -159.35L430.81 -159L432.57 -158.56L434.3 -158.02L436.01 -157.4L437.7 -156.68L439.35 -155.88L440.97 -154.99L442.56 -154.02L444.12 -152.97L445.64 -151.84L447.13 -150.63L448.58 -149.35L449.99 -148L451.36 -146.57L452.68 -145.07L453.97 -143.51L455.21 -141.88L456.4 -140.19L457.54 -138.44L458.64 -136.62L459.68 -134.75L460.68 -132.83L461.61 -130.85L462.5 -128.82L463.33 -126.74L464.1 -124.61L464.81 -122.44L465.45 -120.23L466.04 -117.97L466.57 -115.67L467.02 -113.34L467.42 -110.97L467.74 -108.56L467.99 -106.13L468.18 -103.66L468.29 -101.17L468.33 -98.65L468.29 -96.13L468.18 -93.63L468.17 -93.5L468.39 -93.13L469.43 -91.26L470.43 -89.34L471.37 -87.36L472.25 -85.33L473.08 -83.25L473.85 -81.12L474.09 -80.39L474.82 -80.98L475.8 -81.65L476.82 -82.23L477.89 -82.71L478.98 -83.09L480.11 -83.37L481.26 -83.54L482.45 -83.6L483.63 -83.54L484.78 -83.37L485.91 -83.09L487 -82.71L488.07 -82.23L489.09 -81.65L490.07 -80.98L491.01 -80.22L491.9 -79.39L492.73 -78.47L493.51 -77.48L494.24 -76.42L494.9 -75.29L495.49 -74.11L495.67 -73.69L496.3 -74.58L497.54 -76.21L498.82 -77.77L500.15 -79.27L501.52 -80.7L502.93 -82.05L504.38 -83.33L505.86 -84.54L507.39 -85.67L508.94 -86.72L509.82 -87.26L509.79 -87.32L509.34 -88.62L508.96 -89.96L508.65 -91.35L508.43 -92.78L508.3 -94.25L508.26 -95.74L508.3 -97.24L508.43 -98.7L508.65 -100.13L508.96 -101.52L509.34 -102.87L509.79 -104.16L510.32 -105.41L510.92 -106.6L511.58 -107.72L512.3 -108.78L513.08 -109.77L513.92 -110.69L514.81 -111.53L515.74 -112.28L516.72 -112.95L517.75 -113.53L518.81 -114.01L519.91 -114.39L521.03 -114.67L522.19 -114.84L523.37 -114.9L524.55 -114.84L525.7 -114.67L526.83 -114.39L527.93 -114.01L528.99 -113.53L530.01 -112.95L530.99 -112.28L531.93 -111.53L532.82 -110.69L533.66 -109.77L534.44 -108.78L535.16 -107.72L535.82 -106.6L536.42 -105.41L536.94 -104.16L537.4 -102.87L537.78 -101.52L538.08 -100.13L538.3 -98.7L538.44 -97.24L538.48 -95.74L538.44 -94.25L538.3 -92.78L538.08 -91.35L537.99 -90.94L538.71 -90.72L540.42 -90.1L542.11 -89.38L543.76 -88.58L545.38 -87.69L546.97 -86.72L548.53 -85.67L550.05 -84.54L551.54 -83.33L552.99 -82.05L553.15 -81.89L553.13 -82.1L553.08 -83.6L553.13 -85.09L553.26 -86.56L553.48 -87.99L553.79 -89.37L554.17 -90.72L554.62 -92.02L555.15 -93.26L555.75 -94.45L556.41 -95.57L557.13 -96.63L557.91 -97.62L558.75 -98.54L559.64 -99.38L560.57 -100.13L561.55 -100.8L562.58 -101.38L563.64 -101.86L564.73 -102.25L565.86 -102.52L567.02 -102.69L568.19 -102.75L568.22 -103L568.58 -104.45L569.07 -105.82L569.67 -107.07L570.38 -108.2L571.19 -109.2L572.08 -110.05L573.05 -110.73L574.09 -111.23L575.18 -111.55L576.32 -111.66L577.46 -111.55L578.55 -111.23L579.59 -110.73L580.56 -110.05L581.45 -109.2L582.26 -108.2L582.97 -107.07L583.57 -105.82L584.06 -104.45L584.42 -103L584.64 -101.47L584.72 -99.87L584.64 -98.27L584.42 -96.73L584.06 -95.28L583.57 -93.92L582.97 -92.66L582.26 -91.53L582.04 -91.26L582.23 -90.72L582.61 -89.37L582.91 -87.98L583.13 -86.56L583.27 -85.09L583.31 -83.59L583.26 -82.1L583.13 -80.63L582.91 -79.2L582.61 -77.81L582.23 -76.47L581.85 -75.38L582.07 -75.43L585.58 -75.93L589.14 -76.29L592.73 -76.51L594.01 -76.54L594.01 -76.58L594.05 -78.08L594.19 -79.54L594.41 -80.97L594.71 -82.36L595.09 -83.71L595.54 -85.01L596.07 -86.25L596.67 -87.44L597.33 -88.56L598.05 -89.62L598.83 -90.61L599.67 -91.53L600.56 -92.37L601.49 -93.12L602.48 -93.79L603.5 -94.37L604.56 -94.85L605.66 -95.23L606.78 -95.51L607.94 -95.68L609.12 -95.74L610.3 -95.68L611.46 -95.51L612.58 -95.23L613.68 -94.85L614.74 -94.37L615.76 -93.79L616.75 -93.12L617.48 -92.53L617.72 -93.27L618.49 -95.39L619.32 -97.47L620.2 -99.5L620.66 -100.47L620.4 -100.98L619.88 -102.12L619.41 -103.28L618.98 -104.46L618.6 -105.66L618.27 -106.89L617.99 -108.13L617.75 -109.38L617.57 -110.66L617.43 -111.95L617.35 -113.25L617.32 -114.57L617.35 -115.89L617.43 -117.2L617.57 -118.49L617.75 -119.76L617.99 -121.02L618.27 -122.26L618.6 -123.48L618.98 -124.68L619.41 -125.86L619.88 -127.02L620.4 -128.16L620.95 -129.27L621.56 -130.36L622.2 -131.42L622.88 -132.46L623.6 -133.47L624.36 -134.44L625.15 -135.39L625.98 -136.31L626.85 -137.2L627.75 -138.05L628.68 -138.87L629.64 -139.65L630.64 -140.39L631.66 -141.1L632.71 -141.78L633.79 -142.41L634.89 -143L636.02 -143.55L637.18 -144.06L638.36 -144.52L639.56 -144.94L640.78 -145.31L642.02 -145.64L643.28 -145.92L644.56 -146.15L645.85 -146.33L647.16 -146.47L648.49 -146.55L649.82 -146.57L651.16 -146.55L652.49 -146.47L653.8 -146.33L655.09 -146.15L656.37 -145.92L657.63 -145.64L658.87 -145.31L660.09 -144.94L661.29 -144.52L662.47 -144.06L663.62 -143.55L664.75 -143L665.86 -142.41L666.94 -141.78L667.99 -141.1L669.01 -140.39L670.01 -139.65L670.97 -138.87L671.9 -138.05L672.8 -137.2L673.67 -136.31L674.5 -135.39L675.29 -134.44L676.05 -133.47L676.77 -132.46L677.45 -131.42L678.09 -130.36L678.69 -129.27L679.25 -128.16L679.77 -127.02L680.24 -125.86L680.67 -124.68L681.05 -123.48L681.38 -122.26L681.66 -121.02L681.9 -119.76L681.96 -119.37L682.06 -119.4L683.63 -119.9L685.24 -120.34L686.86 -120.71L688.52 -121.02L690.19 -121.26L691.88 -121.43L693.59 -121.54L695.32 -121.57L697.05 -121.54L698.77 -121.43L700.46 -121.26L702.13 -121.02L703.69 -120.73L703.87 -121.5L704.29 -122.72L704.8 -123.89L705.42 -125L706.13 -126.04L706.92 -127.01L707.8 -127.91L708.76 -128.72L709.78 -129.44L710.87 -130.07L712.02 -130.59L713.22 -131.01L714.46 -131.32L715.75 -131.51L717.07 -131.57L718.4 -131.51L719.69 -131.32L720.93 -131.01L722.13 -130.59L723.28 -130.07L724.37 -129.44L725.39 -128.72L726.35 -127.91L727.22 -127.01L728.02 -126.04L728.73 -125L729.35 -123.89L729.86 -122.72L730.27 -121.5L730.58 -120.23L730.76 -118.92L730.82 -117.57L730.76 -116.22L730.58 -114.91L730.27 -113.64L729.86 -112.42L729.35 -111.25L728.73 -110.15L728.02 -109.1L727.22 -108.13L726.56 -107.46L727.21 -106.72L728.24 -105.46L729.22 -104.17L730.15 -102.83L731.03 -101.45L731.86 -100.04L732.63 -98.6L733.36 -97.12L734.02 -95.61L734.58 -94.21L734.94 -94.48L735.97 -95.16L737.03 -95.78L738.12 -96.35L739.25 -96.85L740.4 -97.3L741.58 -97.68L742.79 -98L744.01 -98.24L745.27 -98.43L746.54 -98.54L747.83 -98.57L749.11 -98.54L750.38 -98.43L751.63 -98.24L752.86 -98L754.07 -97.68L755.25 -97.3L756.4 -96.85L757.53 -96.35L758.62 -95.78L759.68 -95.16L760.71 -94.48L761.7 -93.75L762.65 -92.96L763.57 -92.13L764.44 -91.25L765.27 -90.32L766.05 -89.35L766.79 -88.33L767.48 -87.28L768.11 -86.19L768.7 -85.06L769.23 -83.89L769.71 -82.7L770.13 -81.47L770.48 -80.22L770.62 -79.65L771.25 -79.63L775.32 -79.57L779.4 -79.63L783.44 -79.78L787.43 -80.05L788.3 -80.13L788.12 -80.64L787.82 -81.91L787.64 -83.22L787.57 -84.57L787.64 -85.92L787.82 -87.23L788.12 -88.5L788.54 -89.72L789.05 -90.89L789.67 -92L790.38 -93.04L791.17 -94.01L792.05 -94.91L793.01 -95.72L794.03 -96.44L795.12 -97.07L796.27 -97.59L797.47 -98.01L798.71 -98.32L800 -98.51L801.32 -98.57L802.65 -98.51L803.94 -98.32L805.18 -98.01L806.38 -97.59L807.16 -97.24L807.62 -98.22L808.5 -99.92L809.43 -101.57L810.41 -103.17L811.44 -104.73L812.51 -106.24L813.63 -107.69L814.79 -109.09L816 -110.43L817.24 -111.71L818.53 -112.94L819.85 -114.1L821.21 -115.2L822.6 -116.24L824.03 -117.21L825.49 -118.11L826.98 -118.94L828.5 -119.71L830.06 -120.39L831.63 -121.01L833.24 -121.55L834.86 -122L836.52 -122.38L838.19 -122.68L839.88 -122.9L841.59 -123.03L843.32 -123.07L845.05 -123.03L846.77 -122.9L848.46 -122.68L850.13 -122.38L851.78 -122L853.41 -121.55L855.02 -121.01L856.59 -120.39L858.14 -119.71L859.67 -118.94L861.16 -118.11L862.62 -117.21L864.05 -116.24L865.44 -115.2L866.8 -114.1L868.12 -112.94L869.41 -111.71L870.65 -110.43L871.86 -109.09L873.02 -107.69L873.97 -106.45L874.38 -107.04L875.17 -108.01L876.05 -108.91L877.01 -109.72L878.03 -110.44L879.12 -111.07L880.27 -111.59L881.47 -112.01L882.71 -112.32L884 -112.51L885.32 -112.57L886.65 -112.51L887.94 -112.32L889.18 -112.01L890.38 -111.59L891.53 -111.07L892.62 -110.44L893.64 -109.72L894.6 -108.91L895.22 -108.28L895.61 -108.46L897.29 -109.18L899 -109.81L900.73 -110.34L902.49 -110.78L904.28 -111.13L906.08 -111.38L907.91 -111.53L909.75 -111.58L911.6 -111.53L913.42 -111.38L915.23 -111.13L917.01 -110.78L918.77 -110.34L920.51 -109.81L922.22 -109.18L923.9 -108.46L925.55 -107.66L927.18 -106.77L928.77 -105.8L930.32 -104.75L931.85 -103.62L933.33 -102.42L934.78 -101.13L936.19 -99.78L937.56 -98.35L938.89 -96.85L940.17 -95.29L940.73 -94.56L940.77 -94.59L942.39 -95.47L944.04 -96.28L945.72 -96.99L947.43 -97.62L948.15 -97.84L948.07 -98.25L947.85 -99.68L947.71 -101.14L947.67 -102.64L947.71 -104.13L947.85 -105.6L948.07 -107.03L948.37 -108.42L948.75 -109.76L949.2 -111.06L949.73 -112.3L950.33 -113.49L950.99 -114.62L951.71 -115.68L952.49 -116.67L953.33 -117.58L954.22 -118.42L955.15 -119.18L956.14 -119.85L957.16 -120.42L958.22 -120.91L959.32 -121.29L960.44 -121.57L961.6 -121.74L962.78 -121.8L963.96 -121.74L965.12 -121.57L966.24 -121.29L967.34 -120.91L968.4 -120.42L969.42 -119.85L970.41 -119.18L971.34 -118.42L972.23 -117.58L973.07 -116.67L973.85 -115.68L974.57 -114.62L975.23 -113.49L975.83 -112.3L976.36 -111.06L976.81 -109.76L977.19 -108.42L977.49 -107.03L977.71 -105.6L977.85 -104.13L977.89 -102.64L977.85 -101.14L977.71 -99.68L977.49 -98.25L977.19 -96.86L976.81 -95.51L976.35 -94.22L976.33 -94.15L977.2 -93.62L978.76 -92.57L980.28 -91.44L981.77 -90.23L983.22 -88.95L984.63 -87.59L985.72 -86.45L986.17 -87.01L987.05 -87.91L988.01 -88.72L989.03 -89.44L990.12 -90.07L991.27 -90.59L992.47 -91.01L993.71 -91.32L995 -91.51L996.32 -91.57L997.65 -91.51L998.94 -91.32L1000.18 -91.01L1001.38 -90.59L1002.53 -90.07L1003.62 -89.44L1004.64 -88.72L1005.6 -87.91L1006.47 -87.01L1007.27 -86.04L1007.98 -85L1008.6 -83.89L1009.11 -82.72L1009.52 -81.5L1009.83 -80.23L1009.89 -79.81L1010.49 -79.93L1012.32 -80.16L1014.16 -80.24L1016.01 -80.16L1017.83 -79.93L1018.97 -79.7L1018.67 -80.15L1018.05 -81.25L1017.54 -82.42L1017.12 -83.64L1016.82 -84.91L1016.64 -86.22L1016.57 -87.57L1016.64 -88.92L1016.82 -90.23L1017.12 -91.5L1017.54 -92.72L1018.05 -93.89L1018.67 -95L1019.38 -96.04L1020.17 -97.01L1021.05 -97.91L1022.01 -98.72L1023.03 -99.44L1024.12 -100.07L1025.27 -100.59L1026.47 -101.01L1027.71 -101.32L1029 -101.51L1030.32 -101.57L1031.65 -101.51L1032.94 -101.32L1034.18 -101.01L1035.38 -100.59L1036.53 -100.07L1037.62 -99.44L1038.64 -98.72L1039.6 -97.91L1040.47 -97.01L1041.27 -96.04L1041.98 -95L1042.2 -94.61L1042.89 -95.46L1044.42 -97.15L1045.97 -98.72L1047.56 -100.17L1049.19 -101.49L1050.84 -102.69L1052.52 -103.76L1054.23 -104.69L1055.97 -105.49L1057.73 -106.15L1059.51 -106.67L1061.32 -107.05L1063.14 -107.27L1064.99 -107.35L1066.83 -107.27L1068.66 -107.05L1070.46 -106.67L1072.25 -106.15L1074.01 -105.49L1075.74 -104.69L1077.45 -103.76L1079.14 -102.69L1080.79 -101.49L1080.94 -101.37L1081.03 -101.44L1082.12 -102.07L1083.27 -102.59L1084.47 -103.01L1085.71 -103.32L1087 -103.51L1088.32 -103.57L1089.65 -103.51L1090.94 -103.32L1092.18 -103.01L1093.38 -102.59L1094.53 -102.07L1094.56 -102.05L1095.02 -103.19L1095.79 -104.98L1096.62 -106.72L1097.5 -108.42L1098.43 -110.07L1099.41 -111.67L1100.44 -113.23L1101.51 -114.74L1102.63 -116.19L1103.79 -117.59L1105 -118.93L1106.24 -120.21L1107.53 -121.44L1108.85 -122.6L1109.96 -123.5L1109.95 -123.55L1109.81 -125.01L1109.77 -126.51L1109.81 -128L1109.95 -129.47L1110.17 -130.9L1110.47 -132.29L1110.85 -133.63L1111.31 -134.93L1111.83 -136.17L1112.43 -137.36L1113.09 -138.49L1113.81 -139.55L1114.59 -140.54L1115.43 -141.45L1116.32 -142.29L1117.26 -143.05L1118.24 -143.72L1119.26 -144.29L1120.32 -144.77L1121.42 -145.16L1122.55 -145.44L1123.7 -145.61L1124.88 -145.66L1126.06 -145.61L1127.22 -145.44L1128.35 -145.16L1129.44 -144.77L1130.5 -144.29L1131.53 -143.72L1132.51 -143.05L1133.44 -142.29L1134.33 -141.45L1135.17 -140.54L1135.95 -139.55L1136.67 -138.48L1137.33 -137.36L1137.93 -136.17L1138.46 -134.93L1138.91 -133.63L1139.29 -132.29L1139.59 -130.9L1139.61 -130.77L1140.78 -130.5L1142.41 -130.05L1144.02 -129.51L1145.59 -128.89L1147.14 -128.21L1148.67 -127.44L1150.16 -126.61L1151.62 -125.71L1153.05 -124.74L1154.44 -123.7L1155.8 -122.6L1157.12 -121.44L1158.41 -120.21L1159.65 -118.93L1160.86 -117.59L1162.02 -116.19L1163.14 -114.74L1164.21 -113.23L1165.24 -111.67L1166.22 -110.07L1167.15 -108.42L1168.03 -106.72L1168.86 -104.98L1169.63 -103.19L1170.17 -101.82L1170.87 -102.79L1171.65 -103.77L1172.48 -104.71L1173.35 -105.59L1174.26 -106.43L1175.21 -107.21L1176.2 -107.93L1177.22 -108.59L1178.28 -109.2L1179.37 -109.74L1180.48 -110.21L1181.63 -110.62L1182.8 -110.96L1183.99 -111.22L1185.21 -111.42L1186.44 -111.53L1187.7 -111.57L1188.95 -111.53L1190.19 -111.42L1191.41 -111.22L1192.6 -110.96L1193.77 -110.62L1194.92 -110.21L1196.03 -109.74L1197.12 -109.2L1198.18 -108.59L1199.2 -107.93L1200.19 -107.21L1200.34 -107.08L1200.57 -107.38L1201.41 -108.29L1202.29 -109.13L1203.23 -109.89L1204.21 -110.56L1205.24 -111.13L1206.3 -111.62L1207.39 -112L1208.52 -112.28L1209.68 -112.45L1210.86 -112.5L1212.04 -112.45L1213.19 -112.28L1214.32 -112L1215.42 -111.62L1216.48 -111.13L1217.5 -110.56L1218.48 -109.89L1219.42 -109.13L1220.31 -108.29L1221.14 -107.38L1221.92 -106.39L1222.65 -105.33L1223.31 -104.2L1223.91 -103.01L1224.43 -101.77L1224.89 -100.47L1225.27 -99.13L1225.57 -97.74L1225.79 -96.31L1225.92 -94.84L1225.97 -93.35L1225.92 -91.85L1225.79 -90.39L1225.57 -88.96L1225.27 -87.57L1224.89 -86.22L1224.43 -84.93L1223.9 -83.68L1223.59 -83.05L1224.9 -83.18L1228.5 -83.4L1232.13 -83.47L1235.76 -83.4L1239.35 -83.18L1242.9 -82.82L1245.9 -82.39L1245.98 -82.61L1246.51 -83.86L1247.1 -85.04L1247.76 -86.17L1248.49 -87.23L1249.27 -88.22L1250.1 -89.14L1250.99 -89.97L1251.93 -90.73L1252.91 -91.4L1253.93 -91.98L1254.99 -92.46L1256.09 -92.84L1257.22 -93.12L1258.37 -93.29L1259.55 -93.35L1260.73 -93.29L1261.89 -93.12L1262.95 -92.86L1263.08 -93.27L1263.79 -95.44L1264.56 -97.57L1265.38 -99.65L1266.27 -101.68L1267.21 -103.66L1268.2 -105.58L1269.24 -107.45L1270.34 -109.26L1271.48 -111.02L1272.68 -112.71L1273.91 -114.34L1275.2 -115.9L1276.53 -117.4L1277.89 -118.82L1279.3 -120.18L1280.75 -121.46L1282.24 -122.67L1283.76 -123.8L1285.32 -124.85L1286.91 -125.82L1288.53 -126.71L1290.19 -127.51L1291.87 -128.22L1293.58 -128.85L1295.31 -129.38L1297.07 -129.83L1298.86 -130.17L1300.66 -130.42L1302.49 -130.58L1304.33 -130.63L1306.18 -130.58L1308 -130.42L1309.81 -130.17L1311.59 -129.83L1313.35 -129.38L1315.09 -128.85L1316.8 -128.22L1318.48 -127.51L1320.13 -126.71L1321.76 -125.82L1323.35 -124.85L1324.91 -123.8L1326.43 -122.67L1327.91 -121.46L1329.36 -120.18L1330.77 -118.82L1332.14 -117.39L1333.47 -115.9L1334.75 -114.34L1335.99 -112.71L1337.18 -111.01L1338.33 -109.26L1339.42 -107.45L1340.47 -105.58L1341.46 -103.65L1342.4 -101.68L1343.28 -99.65L1344.11 -97.57L1344.88 -95.44L1345.59 -93.27L1346.24 -91.05L1346.83 -88.79L1347.35 -86.5L1347.81 -84.16L1348.2 -81.79L1348.53 -79.39L1348.78 -76.95L1348.96 -74.48L1349.07 -71.99L1349.11 -69.47L1349.07 -66.95L1348.96 -64.46L1348.78 -61.99L1348.53 -59.56L1348.2 -57.15L1347.81 -54.78L1347.35 -52.45L1346.83 -50.15L1346.24 -47.89L1345.59 -45.68L1344.88 -43.5L1344.11 -41.38L1343.28 -39.3L1342.4 -37.27L1341.46 -35.29L1340.47 -33.36L1339.42 -31.49L1338.33 -29.68L1337.18 -27.93L1335.99 -26.24L1334.75 -24.61L1333.47 -23.05L1332.14 -21.55L1330.77 -20.12L1329.36 -18.77L1327.91 -17.48L1326.43 -16.28L1324.9 -15.15L1323.34 -14.1L1321.75 -13.13L1320.13 -12.24L1318.68 -11.53L1319.07 -9.39L1319.57 -5.87L1319.94 -2.3L1320.15 1.3L1320.23 4.95L1320.15 8.59L1319.93 12.19L1319.57 15.76L1319.07 19.28L1318.44 22.76L1317.66 26.18L1316.76 29.56L1315.73 32.88L1314.58 36.14L1313.3 39.35L1311.9 42.49L1310.39 45.56L1308.76 48.57L1307.02 51.51L1305.17 54.37L1303.22 57.15L1301.16 59.85L1299.01 62.47L1296.75 65.01L1294.41 67.45L1291.97 69.81L1289.45 72.07L1286.83 74.23L1284.14 76.29L1281.37 78.25L1278.52 80.11L1275.59 81.85L1272.6 83.49L1269.53 85.01L1266.4 86.41L1263.21 87.69L1259.96 88.85L1256.65 89.88L1253.28 90.79L1249.87 91.56L1246.4 92.2L1242.9 92.71L1239.34 93.07L1235.75 93.29L1232.12 93.36L1228.49 93.29L1224.9 93.07L1221.35 92.7L1217.84 92.2L1214.38 91.56L1210.96 90.79L1207.6 89.88L1204.29 88.85L1201.03 87.69L1197.84 86.41L1194.71 85L1191.65 83.48L1188.65 81.85L1185.73 80.1L1182.88 78.25L1180.1 76.29L1177.41 74.23L1174.8 72.06L1172.27 69.8L1169.84 67.45L1167.49 65L1165.24 62.47L1163.08 59.85L1161.03 57.15L1159.07 54.36L1157.23 51.5L1155.49 48.57L1153.86 45.56L1152.35 42.5L1151.03 43.67L1149.55 44.87L1148.02 46L1146.47 47.05L1144.87 48.02L1143.25 48.91L1141.6 49.71L1139.92 50.43L1138.21 51.05L1136.47 51.59L1134.71 52.03L1132.93 52.38L1131.12 52.63L1129.3 52.78L1127.45 52.83L1125.61 52.78L1123.78 52.63L1121.98 52.38L1120.19 52.03L1118.43 51.59L1116.7 51.05L1114.99 50.43L1113.3 49.71L1111.65 48.91L1110.03 48.02L1108.44 47.05L1106.88 46L1105.36 44.87L1103.87 43.66L1102.42 42.38L1101.01 41.03L1100.26 40.25L1100.07 40.75L1098.98 43.46L1097.83 46.08L1096.64 48.61L1095.4 51.04L1094.12 53.37L1092.79 55.61L1091.42 57.74L1090.01 59.77L1088.56 61.68L1087.08 63.49L1085.55 65.17L1084 66.74L1082.41 68.19L1080.78 69.52L1079.13 70.72L1077.45 71.79L1075.74 72.72L1074 73.52L1072.24 74.18L1070.46 74.7L1068.65 75.08L1066.83 75.3L1064.98 75.38L1063.14 75.3L1061.31 75.07L1059.51 74.7L1057.72 74.18L1055.96 73.52L1054.23 72.72L1052.52 71.78L1050.84 70.72L1049.18 69.52L1048.73 69.15L1048.15 70.57L1047.01 73.19L1045.82 75.72L1044.58 78.15L1043.29 80.49L1041.97 82.72L1040.6 84.85L1039.19 86.88L1037.74 88.8L1036.25 90.6L1034.73 92.29L1033.17 93.86L1031.58 95.31L1029.96 96.63L1028.31 97.83L1026.62 98.9L1024.91 99.83L1023.18 100.63L1021.42 101.29L1019.63 101.81L1017.83 102.19L1016 102.42L1014.16 102.49L1012.31 102.41L1010.49 102.19L1008.68 101.81L1006.9 101.29L1005.14 100.63L1003.4 99.83L1001.69 98.9L1000.01 97.83L998.36 96.63L996.74 95.31L995.14 93.86L993.59 92.29L992.06 90.6L990.58 88.79L989.13 86.88L987.72 84.85L986.35 82.72L985.02 80.49L983.74 78.15L982.5 75.72L981.31 73.19L980.16 70.57L979.07 67.86L978.02 65.07L977.03 62.19L976.09 59.24L975.21 56.2L974.38 53.1L973.61 49.92L972.9 46.67L972.25 43.36L971.66 39.99L971.4 38.24L970.96 39.34L969.56 42.48L968.05 45.55L966.42 48.56L964.68 51.5L962.83 54.36L960.88 57.14L958.82 59.84L956.67 62.46L954.42 65L952.07 67.44L949.63 69.8L947.11 72.06L944.5 74.22L941.8 76.28L939.03 78.24L936.18 80.1L933.25 81.84L930.26 83.48L927.19 85L924.06 86.4L920.87 87.68L917.62 88.84L914.31 89.88L910.95 90.78L907.53 91.55L904.07 92.19L900.56 92.7L897.01 93.06L893.41 93.28L892.22 93.3L889.56 95.34L886.79 97.3L883.93 99.15L881.01 100.9L878.01 102.53L874.95 104.05L871.82 105.45L868.63 106.73L865.37 107.89L862.07 108.93L858.7 109.83L855.29 110.61L851.82 111.25L848.31 111.75L844.76 112.11L841.17 112.33L837.54 112.4L833.91 112.33L830.32 112.11L826.77 111.75L823.26 111.25L819.79 110.61L816.38 109.83L813.01 108.93L809.7 107.89L806.45 106.73L803.26 105.45L800.13 104.05L797.07 102.53L794.07 100.89L791.15 99.15L788.3 97.29L785.52 95.33L782.83 93.27L780.22 91.11L777.69 88.85L775.25 86.49L772.91 84.05L770.66 81.51L768.5 78.89L766.45 76.19L764.49 73.41L762.65 70.54L760.91 67.61L760.53 66.91L759.08 66.88L755.49 66.66L751.94 66.3L751.63 66.25L750.29 67.07L748.67 67.96L747.02 68.76L745.33 69.47L743.62 70.1L741.89 70.63L740.13 71.08L738.35 71.42L736.54 71.67L734.71 71.83L732.87 71.88L731.02 71.83L729.2 71.67L727.39 71.42L725.61 71.08L723.85 70.63L722.11 70.1L720.4 69.47L718.72 68.76L717.07 67.95L715.45 67.07L713.86 66.1L712.3 65.05L710.78 63.92L709.29 62.71L707.84 61.43L706.43 60.07L705.68 59.29L705.49 59.8L704.4 62.5L703.25 65.12L702.06 67.65L700.82 70.08L699.54 72.42L698.21 74.65L696.84 76.78L695.43 78.81L693.98 80.73L692.5 82.53L690.97 84.22L689.42 85.79L687.82 87.24L686.2 88.56L684.55 89.76L682.87 90.83L681.16 91.76L679.42 92.56L677.66 93.22L675.88 93.74L674.07 94.12L672.25 94.35L670.4 94.42L668.56 94.35L666.73 94.12L664.93 93.74L663.14 93.22L661.38 92.56L659.65 91.76L657.94 90.83L656.25 89.76L654.6 88.56L654.15 88.19L653.57 89.62L652.43 92.24L651.23 94.76L650 97.2L648.71 99.53L647.38 101.77L646.02 103.9L644.61 105.92L643.16 107.84L641.67 109.64L640.15 111.33L638.59 112.9L637 114.35L635.38 115.68L633.72 116.87L632.04 117.94L630.33 118.88L628.6 119.68L626.84 120.34L625.05 120.86L623.25 121.23L621.42 121.46L619.58 121.53L617.73 121.46L615.91 121.23L614.1 120.86L612.32 120.34L610.56 119.68L608.82 118.88L607.11 117.94L605.43 116.87L603.78 115.67L602.15 114.35L600.56 112.9L599.01 111.33L597.48 109.64L596 107.84L594.55 105.92L593.14 103.9L591.77 101.76L590.76 100.06L589.13 99.96L585.58 99.6L582.07 99.09L578.61 98.45L575.19 97.68L571.83 96.77L568.52 95.74L565.27 94.58L562.07 93.3L558.94 91.89L555.88 90.37L554.3 89.51L552.53 91.1L549.91 93.26L547.22 95.33L544.45 97.29L541.6 99.14L538.67 100.89L535.68 102.52L532.61 104.04L529.48 105.44L526.29 106.73L523.04 107.88L519.73 108.92L516.36 109.82L512.95 110.6L509.48 111.24L505.98 111.74L502.42 112.1L498.83 112.32L495.2 112.39L491.57 112.32L487.98 112.1L484.43 111.74L480.92 111.24L477.46 110.6L474.04 109.82L472.35 109.37L471.98 109.38L470.13 109.31L468.31 109.08L466.5 108.71L464.72 108.19L462.96 107.53L461.22 106.73L459.51 105.79L457.83 104.72L456.18 103.52L455.28 102.79L454.73 102.52L451.73 100.88L448.81 99.14L445.96 97.28L443.18 95.32L440.49 93.26L437.88 91.1L435.35 88.84L432.92 86.48L430.57 84.04L428.32 81.5L428.05 81.18L426.63 81.59L424.82 81.97L423 82.19L421.15 82.27L419.31 82.19L417.48 81.97L415.68 81.59L413.9 81.07L412.13 80.41L410.4 79.61L408.69 78.68L407.01 77.61L406.44 77.19L405.54 77.64L402.41 79.04L399.21 80.33L395.96 81.49L392.65 82.52L389.29 83.42L385.87 84.2L382.41 84.84L378.9 85.34L375.35 85.7L371.76 85.92L368.13 86L364.5 85.92L360.91 85.7L357.35 85.34L353.84 84.84L350.38 84.2L346.97 83.42L343.6 82.52L340.29 81.48L337.04 80.32L333.85 79.04L333.63 78.94L332.48 79.01L328.85 79.09L325.22 79.01L321.63 78.79L318.07 78.43L314.56 77.93L312.84 77.61L311.34 78.95L308.73 81.11L306.03 83.17L303.26 85.13L300.41 86.99L297.49 88.73L294.49 90.37L291.43 91.89L288.3 93.29L285.1 94.57L281.85 95.73L278.54 96.77L275.18 97.67L271.76 98.44L268.3 99.08L264.79 99.59L261.24 99.95L257.64 100.17L256.45 100.19L253.79 102.23L251.02 104.19L248.17 106.04L245.24 107.79L242.25 109.42L239.18 110.94L236.05 112.34L232.86 113.63L229.61 114.78L226.3 115.82L222.93 116.72L219.52 117.5L216.05 118.14L212.54 118.64L208.99 119L205.4 119.22L201.77 119.29L198.14 119.22L194.55 119L191 118.64L187.49 118.14L184.02 117.5L180.61 116.72L177.25 115.82L173.94 114.78L170.68 113.62L167.49 112.34L164.36 110.94L161.3 109.42L158.3 107.78L155.38 106.04L152.53 104.18L149.75 102.22L147.06 100.16L144.45 98L141.92 95.74L139.49 93.38L137.14 90.94L134.89 88.4L132.73 85.78L130.68 83.08L128.72 80.3L126.88 77.44L125.14 74.5L123.51 71.49L122 68.42L120.6 65.28L120.16 64.18L119.89 65.93L119.31 69.3L118.66 72.61L117.95 75.86L117.18 79.04L116.35 82.14L115.46 85.18L114.52 88.13L113.53 91.01L112.49 93.8L111.39 96.51L110.25 99.13L109.05 101.66L107.82 104.09L106.53 106.42L105.21 108.66L103.84 110.79L102.43 112.82L100.98 114.73L99.49 116.54L97.97 118.22L96.41 119.79L94.82 121.24L93.2 122.57L91.54 123.77L89.86 124.84L88.15 125.77L86.42 126.57L84.66 127.23L82.87 127.75L81.07 128.12L79.24 128.35L77.4 128.43L75.55 128.35L73.73 128.12L71.92 127.75L70.14 127.23L68.38 126.57L66.64 125.77L64.93 124.83L63.25 123.77L61.6 122.57L59.97 121.24L58.38 119.79L56.83 118.22L55.3 116.53L53.82 114.73L52.37 112.81L50.96 110.79L49.59 108.66L48.26 106.42L46.98 104.09L45.74 101.65L44.55 99.13L43.4 96.51L42.83 95.08L42.37 95.45L40.72 96.65L39.04 97.72L37.33 98.65L35.59 99.45L33.83 100.12L32.05 100.63L30.24 101.01L28.42 101.24L26.57 101.31L24.73 101.24L22.9 101.01L21.1 100.63L19.31 100.11L17.55 99.45L15.82 98.65L14.11 97.72L12.43 96.65L10.77 95.45L9.15 94.13L7.56 92.68L6 91.11L4.48 89.42L2.99 87.61L1.54 85.7L0.13 83.67L-1.23 81.54L-2.56 79.31L-3.85 76.97L-5.08 74.54L-6.28 72.01L-7.42 69.39L-8.52 66.68L-8.71 66.18L-9.45 66.96L-10.86 68.31L-12.31 69.6L-13.8 70.8L-15.32 71.93L-16.88 72.98L-18.47 73.95L-20.09 74.84L-21.75 75.64L-23.43 76.36L-25.14 76.99L-26.87 77.52L-28.63 77.96L-30.42 78.31L-32.22 78.56L-34.05 78.71L-35.89 78.76L-37.74 78.71L-39.56 78.56L-41.37 78.31L-43.15 77.96L-44.91 77.52L-46.65 76.98L-48.36 76.36L-50.04 75.64L-51.69 74.84L-53.32 73.95L-54.91 72.98L-56.46 71.93L-57.99 70.8L-59.47 69.6L-60.79 68.43L-62.3 71.49L-63.93 74.5L-65.67 77.43L-67.52 80.29L-69.47 83.07L-71.53 85.78L-73.68 88.4L-75.93 90.93L-78.28 93.38L-80.72 95.73L-83.24 97.99L-85.85 100.16L-88.55 102.22L-91.32 104.18L-94.17 106.03L-97.1 107.78L-100.09 109.41L-103.16 110.93L-106.29 112.33L-109.48 113.62L-112.73 114.78L-116.04 115.81L-119.4 116.71L-122.82 117.49L-126.28 118.13L-129.79 118.63L-133.35 118.99L-136.94 119.21L-140.57 119.29L-144.2 119.21L-147.79 118.99L-151.34 118.63L-154.85 118.13L-158.31 117.49L-161.73 116.71L-165.09 115.81L-168.4 114.77L-171.65 113.61L-174.85 112.33L-177.98 110.93L-181.04 109.41L-184.04 107.77L-186.96 106.03L-189.81 104.18L-192.58 102.22L-195.28 100.15L-197.89 97.99L-200.41 95.73L-202.85 93.37L-205.2 90.93L-207.45 88.39L-209.61 85.77L-211.66 83.07L-213.61 80.29L-215.46 77.43L-217.2 74.49L-218.83 71.48L-220.34 68.41L-221.74 65.27L-223.02 62.06L-224.17 58.8L-225.2 55.48L-226.11 52.1L-226.88 48.68L-227.51 45.2L-228.01 41.68L-228.38 38.11L-228.59 34.51L-228.67 30.87L-228.59 27.22L-228.37 23.62L-228.01 20.05L-227.51 16.53L-227.12 14.39L-228.57 13.68L-230.19 12.79L-231.78 11.82L-233.34 10.77L-234.86 9.64L-236.35 8.44L-237.8 7.15L-239.21 5.8L-240.58 4.37L-241.91 2.87L-243.19 1.31L-244.43 -0.32L-245.62 -2.01L-246.76 -3.76L-247.86 -5.58L-248.9 -7.44L-249.9 -9.37L-250.84 -11.35L-251.72 -13.38L-252.55 -15.46L-253.32 -17.59L-254.03 -19.76L-254.68 -21.97L-255.26 -24.23L-255.79 -26.53L-256.25 -28.86L-256.64 -31.23L-256.96 -33.64L-257.22 -36.07L-257.4 -38.54L-257.51 -41.03L-257.55 -43.55L-257.51 -46.07L-257.4 -48.57L-257.22 -51.03L-256.96 -53.47L-256.64 -55.87L-256.25 -58.24L-255.79 -60.58L-255.26 -62.87L-254.68 -65.13L-254.03 -67.35L-253.32 -69.52L-252.55 -71.65L-251.72 -73.73L-250.83 -75.76L-249.9 -77.74L-248.9 -79.66L-247.86 -81.53L-246.76 -83.34L-245.62 -85.1L-244.43 -86.79L-243.19 -88.42L-241.9 -89.98L-240.58 -91.48L-239.21 -92.9L-237.8 -94.26L-236.35 -95.54L-234.86 -96.75L-233.34 -97.88L-231.78 -98.93L-230.19 -99.9L-228.57 -100.79L-226.91 -101.59L-225.23 -102.3L-223.52 -102.93L-221.79 -103.46L-220.03 -103.91L-218.24 -104.25L-216.44 -104.5L-214.61 -104.66L-212.77 -104.71L-210.92 -104.66L-209.1 -104.5L-207.29 -104.25L-205.51 -103.91L-203.75 -103.46L-202.01 -102.93L-200.3 -102.3L-198.62 -101.59L-196.97 -100.78L-195.34 -99.9L-193.75 -98.93L-192.2 -97.88L-190.67 -96.75L-189.19 -95.54L-187.74 -94.26L-186.33 -92.9L-184.96 -91.47L-183.63 -89.98L-182.35 -88.41L-181.11 -86.79L-179.92 -85.09L-178.77 -83.34L-177.68 -81.53L-176.63 -79.66L-175.64 -77.73L-174.7 -75.75L-173.82 -73.72L-172.99 -71.65L-172.22 -69.52L-171.51 -67.35L-171.39 -66.93L-170.32 -67.2L-169.17 -67.37L-167.99 -67.42L-166.81 -67.37L-165.65 -67.2L-164.53 -66.92L-163.43 -66.53L-162.37 -66.05L-161.35 -65.47L-160.36 -64.81L-159.43 -64.05L-158.54 -63.21L-157.7 -62.3L-156.92 -61.31L-156.2 -60.24L-155.54 -59.12L-154.94 -57.93L-154.41 -56.69L-154.33 -56.46L-151.34 -56.89L-147.78 -57.26L-144.19 -57.48L-140.56 -57.55L-136.93 -57.48L-133.34 -57.26L-132.02 -57.12L-132.34 -57.76L-132.87 -59L-133.32 -60.3L-133.7 -61.64L-134.01 -63.03L-134.22 -64.46L-134.36 -65.93L-134.4 -67.42L-134.36 -68.92L-134.22 -70.38L-134 -71.81L-133.7 -73.2L-133.32 -74.55L-132.87 -75.84L-132.34 -77.09L-131.74 -78.28L-131.08 -79.4L-130.36 -80.46L-129.58 -81.45L-128.74 -82.37L-127.85 -83.21L-126.92 -83.96L-125.93 -84.63L-124.91 -85.21L-123.85 -85.69L-122.75 -86.07L-121.63 -86.35L-120.47 -86.52L-119.29 -86.58L-118.11 -86.52L-116.95 -86.35L-115.83 -86.07L-114.73 -85.69L-113.67 -85.21L-112.65 -84.63L-111.67 -83.96L-110.73 -83.21L-109.84 -82.37L-109.55 -82.05L-109.53 -82.43L-109.31 -83.96L-108.95 -85.42L-108.46 -86.78L-107.86 -88.03L-107.15 -89.17L-106.34 -90.16L-105.45 -91.01L-104.48 -91.69L-103.44 -92.2L-102.35 -92.51L-101.21 -92.62L-100.07 -92.51L-98.98 -92.2L-97.94 -91.69L-96.97 -91.01L-96.08 -90.16L-95.28 -89.17L-94.57 -88.03L-93.96 -86.78L-93.48 -85.42L-93.12 -83.96L-92.89 -82.43L-92.82 -80.83L-92.89 -79.23L-93.12 -77.7L-93.48 -76.24L-93.96 -74.88L-94.57 -73.63L-95.28 -72.5L-96.08 -71.5L-96.98 -70.65L-97.94 -69.97L-98.98 -69.46L-100.07 -69.15L-101.21 -69.04L-102.35 -69.15L-103.44 -69.46L-104.31 -69.89L-104.22 -68.92L-104.18 -67.42L-104.22 -65.93L-104.36 -64.46L-104.58 -63.03L-104.88 -61.64L-105.26 -60.3L-105.72 -59L-106.24 -57.76L-106.84 -56.57L-107.5 -55.44L-108.22 -54.38L-109.01 -53.39L-109.84 -52.48L-110.2 -52.14L-109.47 -51.88L-106.28 -50.6L-103.15 -49.19L-100.09 -47.67L-97.09 -46.04L-94.17 -44.29L-91.32 -42.44L-88.54 -40.48L-86.45 -38.87L-86.45 -39L-86.31 -40.47L-86.09 -41.9L-85.79 -43.29L-85.41 -44.63L-84.95 -45.93L-84.43 -47.17L-83.83 -48.36L-83.17 -49.49L-82.45 -50.55L-81.66 -51.54L-80.83 -52.45L-79.94 -53.29L-79 -54.05L-78.02 -54.71L-77 -55.29L-75.94 -55.77L-74.84 -56.16L-74.82 -56.16L-74.88 -56.42L-75.16 -57.91L-75.38 -59.43L-75.55 -60.96L-75.64 -62.51L-75.68 -64.07L-75.64 -65.64L-75.55 -67.19L-75.38 -68.72L-75.16 -70.23L-74.88 -71.73L-74.53 -73.2L-74.13 -74.65L-73.67 -76.08L-73.16 -77.48L-72.59 -78.86L-71.97 -80.21L-71.29 -81.53L-70.57 -82.82L-69.79 -84.08L-68.97 -85.31L-68.1 -86.51L-67.18 -87.67L-66.22 -88.8L-65.22 -89.89L-64.17 -90.94L-63.09 -91.95L-61.96 -92.92L-60.8 -93.85L-59.6 -94.74L-58.36 -95.58L-57.09 -96.38L-55.79 -97.13L-54.46 -97.83L-53.09 -98.48L-51.7 -99.08L-50.27 -99.64L-48.83 -100.13L-48.42 -100.26L-48.43 -100.58L-48.38 -102.07L-48.25 -103.54L-48.03 -104.97L-47.73 -106.36L-47.35 -107.7L-46.89 -109L-46.36 -110.24L-45.77 -111.43L-45.1 -112.56L-44.38 -113.62L-43.6 -114.61L-42.76 -115.52L-41.88 -116.36L-40.94 -117.12L-39.96 -117.78L-38.93 -118.36L-37.87 -118.84L-36.78 -119.23L-35.65 -119.51L-34.49 -119.68L-33.31 -119.73L-32.13 -119.68L-30.98 -119.51L-29.85 -119.23L-28.75 -118.84L-27.69 -118.36L-26.67 -117.78L-25.69 -117.12L-24.75 -116.36L-23.86 -115.52L-23.03 -114.61L-22.25 -113.61L-21.52 -112.55L-20.86 -111.43L-20.27 -110.24L-19.74 -109L-19.28 -107.7L-18.9 -106.36L-18.6 -104.97L-18.38 -103.54L-18.25 -102.07L-18.2 -100.58L-18.25 -99.08L-18.36 -97.81L-17.06 -97.13L-15.76 -96.38L-14.49 -95.58L-13.25 -94.74L-12.05 -93.85L-10.89 -92.92L-9.76 -91.95L-9.69 -91.88L-9.58 -92.01L-8.7 -92.91L-7.74 -93.72L-6.72 -94.44L-5.63 -95.07L-4.48 -95.59L-3.28 -96.01L-2.04 -96.32L-0.75 -96.51L0.57 -96.57L1.9 -96.51L3.19 -96.32L4.43 -96.01L5.63 -95.59L6.78 -95.07L7.87 -94.44L8.89 -93.72L9.85 -92.91L10.72 -92.01L11.52 -91.04L12.23 -90L12.85 -88.89L13.36 -87.72L13.77 -86.5L14.08 -85.23L14.26 -83.92L14.32 -82.57L14.26 -81.22L14.08 -79.91L13.77 -78.64L13.36 -77.42L13.32 -77.32L14.11 -77.82L15.82 -78.76L17.56 -79.56L19.32 -80.22L21.1 -80.74L22.91 -81.11L24.73 -81.34L25.71 -81.38L26.07 -82.44L26.51 -83.59L27.01 -84.72L27.55 -85.82L28.13 -86.91L28.76 -87.96L28.83 -88.06L27.79 -88.52L26.69 -89.09L25.63 -89.73L24.62 -90.43L23.64 -91.19L22.71 -92L21.83 -92.87L21 -93.8L20.22 -94.77L19.5 -95.79L18.83 -96.86L18.23 -97.97L17.68 -99.12L17.21 -100.3L16.79 -101.53L16.45 -102.78L16.18 -104.07L15.98 -105.38L15.86 -106.71L15.82 -108.07L15.86 -109.43L15.98 -110.77L16.18 -112.08L16.45 -113.36L16.79 -114.62L17.21 -115.84L17.68 -117.03L18.23 -118.18L18.83 -119.29L19.5 -120.35L20.22 -121.37L21 -122.35L21.83 -123.27L22.71 -124.14L23.64 -124.96L24.62 -125.72L25.63 -126.42L26.69 -127.05L27.79 -127.62L28.92 -128.12L30.08 -128.56L31.28 -128.92L32.5 -129.2L33.75 -129.4L35.03 -129.53L36.32 -129.57L37.62 -129.53L38.89 -129.4L40.15 -129.2L41.37 -128.92L42.57 -128.56L43.73 -128.12L44.86 -127.62L45.96 -127.05L47.02 -126.42L48.03 -125.72L49.01 -124.96L49.94 -124.14L50.82 -123.27L51.65 -122.35L52.43 -121.37L53.15 -120.35L53.82 -119.29L54.42 -118.18L54.96 -117.03L55.44 -115.84L55.86 -114.62L56.2 -113.36L56.47 -112.08L56.66 -110.77L56.78 -109.43L56.82 -108.07L56.78 -106.71L56.66 -105.38L56.47 -104.07L56.26 -103.06L56.82 -103.07L57.68 -103.06L57.82 -103.45L58.5 -105.08L59.24 -106.68L60.05 -108.25L60.91 -109.78L61.83 -111.27L62.81 -112.72L63.85 -114.14L64.94 -115.52L66.08 -116.85L67.28 -118.14L68.52 -119.39L69.82 -120.58L71.16 -121.73L72.54 -122.84L73.97 -123.89L75.24 -124.74L74.4 -125.1L73.31 -125.66L72.27 -126.29L71.27 -127L70.32 -127.79L69.43 -128.63L68.59 -129.55L67.81 -130.52L67.1 -131.55L66.46 -132.63L65.88 -133.76L65.38 -134.94L64.96 -136.16L64.62 -137.42L64.37 -138.71L64.2 -140.04L64.12 -141.4L64.14 -142.76L64.25 -144.09L64.45 -145.39L64.74 -146.67L65.1 -147.9L65.55 -149.1L66.08 -150.26L66.67 -151.37L67.34 -152.42L68.08 -153.43L68.87 -154.38L69.73 -155.26L70.64 -156.08L71.61 -156.84L72.63 -157.52L73.69 -158.12L74.8 -158.65L75.95 -159.09L77.14 -159.45L78.36 -159.72L79.61 -159.89L80.89 -159.97L82.17 -159.95L83.43 -159.83L84.66 -159.61L85.86 -159.31L87.03 -158.91L88.16 -158.43L89.25 -157.87L90.29 -157.24L91.29 -156.53L92.24 -155.74L93.13 -154.9L93.97 -153.98L94.75 -153.01L95.46 -151.98L96.1 -150.9L96.68 -149.77L97.18 -148.59L97.6 -147.37L97.94 -146.11L98.19 -144.82L98.36 -143.49L98.44 -142.13L98.42 -140.78L98.31 -139.44L98.11 -138.14L97.82 -136.86L97.46 -135.63L97.01 -134.43L96.48 -133.27L95.93 -132.25L97.74 -132.42L99.65 -132.53L101.57 -132.57L103.5 -132.53L105.41 -132.42L107.29 -132.24L109.15 -131.98L110.99 -131.66L112.8 -131.26L114.59 -130.8L116.34 -130.28L118.07 -129.69L118.07 -129.73L118.37 -131L118.79 -132.22L119.3 -133.39L119.92 -134.5L120.63 -135.54L121.42 -136.51L122.3 -137.41L123.26 -138.22L124.28 -138.94L125.37 -139.57L126.52 -140.09L127.72 -140.51L128.96 -140.82L130.25 -141.01L131.57 -141.07L132.9 -141.01L134.19 -140.82L135.43 -140.51L136.63 -140.09L137.78 -139.57L138.87 -138.94L139.89 -138.22L140.85 -137.41L141.72 -136.51L142.52 -135.54L143.23 -134.5L143.85 -133.39L144.36 -132.22L144.77 -131L145.08 -129.73L145.26 -128.42L145.32 -127.07L145.26 -125.72L145.08 -124.41L144.77 -123.14L144.36 -121.92L143.85 -120.75L143.23 -119.65L142.52 -118.6L141.72 -117.63L140.85 -116.74L139.89 -115.93L138.87 -115.2L138.59 -115.04L139.3 -114.14L140.34 -112.72L141.32 -111.27L142.24 -109.78L143.1 -108.25L143.91 -106.68L144.65 -105.08L145.33 -103.45L145.94 -101.79L146.48 -100.13L146.72 -100.57L147.82 -102.39L148.96 -104.14L150.16 -105.83L151.4 -107.46L152.68 -109.02L154.01 -110.52L155.38 -111.95L156.79 -113.3L158.23 -114.58L159.72 -115.79L161.24 -116.92L162.8 -117.97L164.39 -118.94L166.01 -119.83L167.67 -120.63L169.35 -121.35L171.06 -121.97L172.79 -122.51L174.56 -122.95L176.34 -123.3L178.14 -123.55L179.97 -123.7L181.81 -123.75L183.66 -123.7L185.48 -123.55L187.29 -123.3L189.07 -122.95L190.83 -122.51L192.57 -121.97L194.28 -121.35L195.96 -120.63L197.61 -119.83L199.24 -118.94L200.83 -117.97L202.39 -116.92L203.91 -115.79L205.39 -114.58L206.84 -113.3L208.25 -111.94L209.62 -110.52L210.95 -109.02L212.23 -107.46L213.47 -105.83L214.66 -104.14L215.81 -102.38L215.83 -102.35L216.26 -102.72L217.28 -103.44L218.37 -104.07L219.52 -104.59L220.72 -105.01L221.96 -105.32L223.25 -105.51L224.57 -105.57L225.9 -105.51L227.19 -105.32L228.43 -105.01L228.67 -104.93L228.66 -105.56L228.7 -108.08L228.81 -110.57L228.99 -113.04L229.25 -115.48L229.57 -117.88L229.96 -120.25L230.42 -122.58L230.94 -124.88L231.53 -127.14L232.18 -129.36L232.89 -131.53L233.58 -133.44L233.27 -133.55L232.12 -134.08L231.03 -134.7L230.01 -135.43L229.05 -136.24L228.17 -137.13L227.38 -138.1L226.67 -139.15L226.05 -140.25L225.54 -141.42L225.12 -142.64L224.82 -143.91L224.64 -145.22L224.57 -146.57L224.64 -147.92L224.82 -149.23L225.12 -150.5L225.54 -151.72L226.05 -152.89L226.67 -154L227.38 -155.04L228.17 -156.01L229.05 -156.91L230.01 -157.72L231.03 -158.44L232.12 -159.07L233.27 -159.59L234.47 -160.01L235.71 -160.32L237 -160.51L238.32 -160.57L239.65 -160.51L240.94 -160.32L242.18 -160.01L243.38 -159.59L244.53 -159.07L245.62 -158.44L246.64 -157.72L247.6 -156.91L248.32 -156.17L248.41 -156.27L249.86 -157.55L251.35 -158.76L252.87 -159.89L254.43 -160.94L256.02 -161.91L257.64 -162.79L259.29 -163.6L260.97 -164.31L262.68 -164.94L264.42 -165.47L266.18 -165.91L267.96 -166.26L269.77 -166.51L271.6 -166.66L273.44 -166.71L275.28 -166.66L277.11 -166.51ZM2.53 -68.73L2.53 -68.72L2.68 -67.31L3 -67.72L4.09 -69.05L3.19 -68.82L2.53 -68.73ZM1254.65 -126.03L1255.68 -125.52L1256.65 -124.84L1257.55 -123.99L1258.35 -122.99L1259.06 -121.86L1259.67 -120.61L1260.15 -119.25L1260.51 -117.79L1260.74 -116.26L1260.81 -114.66L1260.74 -113.06L1260.51 -111.53L1260.15 -110.07L1259.67 -108.71L1259.06 -107.46L1258.35 -106.32L1257.55 -105.33L1256.65 -104.48L1255.68 -103.8L1254.65 -103.29L1253.56 -102.98L1252.42 -102.87L1251.28 -102.98L1250.19 -103.29L1249.15 -103.8L1248.18 -104.48L1247.29 -105.33L1246.48 -106.32L1245.77 -107.46L1245.17 -108.71L1244.68 -110.07L1244.32 -111.53L1244.1 -113.06L1244.02 -114.66L1244.1 -116.26L1244.32 -117.79L1244.68 -119.25L1245.17 -120.61L1245.77 -121.86L1246.48 -122.99L1247.29 -123.99L1248.18 -124.84L1249.15 -125.52L1250.19 -126.03L1251.28 -126.34L1252.42 -126.45L1253.56 -126.34L1254.65 -126.03ZM488.05 -126.04L489.09 -125.53L490.05 -124.85L490.95 -124L491.75 -123.01L492.46 -121.87L493.07 -120.62L493.55 -119.26L493.91 -117.8L494.14 -116.27L494.21 -114.67L494.14 -113.07L493.91 -111.54L493.55 -110.08L493.07 -108.72L492.46 -107.47L491.75 -106.34L490.95 -105.34L490.05 -104.49L489.08 -103.81L488.05 -103.3L486.96 -102.99L485.82 -102.88L484.68 -102.99L483.59 -103.3L482.55 -103.81L481.58 -104.49L480.69 -105.34L479.88 -106.34L479.17 -107.47L478.57 -108.72L478.08 -110.09L477.72 -111.54L477.5 -113.07L477.42 -114.67L477.5 -116.27L477.72 -117.8L478.08 -119.26L478.57 -120.62L479.17 -121.87L479.88 -123.01L480.69 -124L481.58 -124.85L482.55 -125.53L483.59 -126.04L484.68 -126.35L485.82 -126.46L486.96 -126.35L488.05 -126.04ZM778.94 -135.32L780.18 -135.01L781.38 -134.59L782.53 -134.07L783.62 -133.44L784.64 -132.72L785.6 -131.91L786.47 -131.01L787.27 -130.04L787.98 -129L788.6 -127.89L789.11 -126.72L789.52 -125.5L789.83 -124.23L790.01 -122.92L790.07 -121.57L790.01 -120.22L789.83 -118.91L789.52 -117.64L789.11 -116.42L788.6 -115.25L787.98 -114.15L787.27 -113.1L786.47 -112.13L785.6 -111.24L784.64 -110.43L783.62 -109.7L782.53 -109.08L781.38 -108.55L780.18 -108.13L778.94 -107.82L777.65 -107.64L776.32 -107.57L775 -107.64L773.71 -107.82L772.47 -108.13L771.27 -108.55L770.12 -109.08L769.03 -109.7L768.01 -110.43L767.05 -111.24L766.17 -112.13L765.38 -113.1L764.67 -114.15L764.05 -115.25L763.54 -116.42L763.12 -117.64L762.82 -118.91L762.64 -120.22L762.57 -121.57L762.64 -122.92L762.82 -124.23L763.12 -125.5L763.54 -126.72L764.05 -127.89L764.67 -129L765.38 -130.04L766.17 -131.01L767.05 -131.91L768.01 -132.72L769.03 -133.44L770.12 -134.07L771.27 -134.59L772.47 -135.01L773.71 -135.32L775 -135.51L776.32 -135.57L777.65 -135.51L778.94 -135.32ZM1065.94 -159.32L1067.18 -159.01L1068.38 -158.59L1069.53 -158.07L1070.62 -157.44L1071.64 -156.72L1072.6 -155.91L1073.47 -155.01L1074.27 -154.04L1074.98 -153L1075.6 -151.89L1076.11 -150.72L1076.52 -149.5L1076.83 -148.23L1077.01 -146.92L1077.07 -145.57L1077.01 -144.22L1076.83 -142.91L1076.52 -141.64L1076.11 -140.42L1075.6 -139.25L1074.98 -138.15L1074.27 -137.1L1073.47 -136.13L1072.6 -135.24L1071.64 -134.43L1070.62 -133.7L1069.53 -133.08L1068.38 -132.55L1067.18 -132.13L1065.94 -131.82L1064.65 -131.64L1063.32 -131.57L1062 -131.64L1060.71 -131.82L1059.47 -132.13L1058.27 -132.55L1057.12 -133.08L1056.03 -133.7L1055.01 -134.43L1054.05 -135.24L1053.17 -136.13L1052.38 -137.1L1051.67 -138.15L1051.05 -139.25L1050.54 -140.42L1050.12 -141.64L1049.82 -142.91L1049.64 -144.22L1049.57 -145.57L1049.64 -146.92L1049.82 -148.23L1050.12 -149.5L1050.54 -150.72L1051.05 -151.89L1051.67 -153L1052.38 -154.04L1053.17 -155.01L1054.05 -155.91L1055.01 -156.72L1056.03 -157.44L1057.12 -158.07L1058.27 -158.59L1059.47 -159.01L1060.71 -159.32L1062 -159.51L1063.32 -159.57L1064.65 -159.51L1065.94 -159.32ZM468.84 -159.87L469.88 -159.36L470.85 -158.68L471.74 -157.83L472.55 -156.83L473.26 -155.7L473.86 -154.45L474.35 -153.09L474.71 -151.63L474.93 -150.1L475.01 -148.5L474.93 -146.9L474.71 -145.37L474.35 -143.91L473.86 -142.55L473.26 -141.3L472.55 -140.17L471.74 -139.17L470.85 -138.32L469.88 -137.64L468.84 -137.13L467.75 -136.82L466.61 -136.71L465.47 -136.82L464.38 -137.13L463.34 -137.64L462.38 -138.32L461.48 -139.17L460.68 -140.17L459.97 -141.3L459.36 -142.55L458.88 -143.91L458.52 -145.37L458.29 -146.9L458.22 -148.5L458.29 -150.1L458.52 -151.63L458.88 -153.09L459.36 -154.45L459.97 -155.7L460.68 -156.83L461.48 -157.83L462.38 -158.68L463.35 -159.36L464.38 -159.87L465.47 -160.18L466.61 -160.29L467.75 -160.18L468.84 -159.87ZM535.84 -166.29L536.87 -165.78L537.84 -165.1L538.74 -164.25L539.54 -163.25L540.25 -162.12L540.86 -160.87L541.34 -159.51L541.7 -158.05L541.93 -156.52L542 -154.92L541.93 -153.32L541.7 -151.79L541.34 -150.33L540.86 -148.97L540.25 -147.72L539.54 -146.58L538.74 -145.59L537.84 -144.74L536.87 -144.06L535.84 -143.55L534.75 -143.24L533.61 -143.13L532.47 -143.24L531.38 -143.55L530.34 -144.06L529.37 -144.74L528.48 -145.59L527.67 -146.58L526.96 -147.72L526.36 -148.97L525.87 -150.33L525.51 -151.79L525.29 -153.32L525.21 -154.92L525.29 -156.52L525.51 -158.05L525.87 -159.51L526.36 -160.87L526.96 -162.12L527.67 -163.25L528.48 -164.25L529.37 -165.1L530.34 -165.78L531.38 -166.29L532.47 -166.6L533.61 -166.71L534.75 -166.6L535.84 -166.29ZM817.76 -164.11L818.98 -163.57L820.09 -162.83L821.08 -161.94L821.93 -160.89L822.63 -159.71L823.14 -158.42L823.46 -157.03L823.57 -155.57L823.46 -154.11L823.14 -152.73L822.63 -151.44L821.93 -150.26L821.08 -149.21L820.09 -148.31L818.98 -147.58L817.76 -147.03L816.45 -146.69L815.07 -146.57L813.7 -146.69L812.39 -147.03L811.17 -147.58L810.06 -148.31L809.07 -149.21L808.22 -150.26L807.52 -151.44L807.01 -152.73L806.69 -154.11L806.57 -155.57L806.69 -157.03L807.01 -158.42L807.52 -159.71L808.22 -160.89L809.07 -161.94L810.06 -162.83L811.17 -163.57L812.39 -164.11L813.7 -164.45L815.07 -164.57L816.45 -164.45L817.76 -164.11ZM929.94 -187.32L931.18 -187.01L932.38 -186.59L933.53 -186.07L934.62 -185.44L935.64 -184.72L936.6 -183.91L937.47 -183.01L938.27 -182.04L938.98 -181L939.6 -179.89L940.11 -178.72L940.52 -177.5L940.83 -176.23L941.01 -174.92L941.07 -173.57L941.01 -172.22L940.83 -170.91L940.52 -169.64L940.11 -168.42L939.6 -167.25L938.98 -166.15L938.27 -165.1L937.47 -164.13L936.6 -163.24L935.64 -162.43L934.62 -161.7L933.53 -161.08L932.38 -160.55L931.18 -160.13L929.94 -159.82L928.65 -159.64L927.32 -159.57L926 -159.64L924.71 -159.82L923.47 -160.13L922.27 -160.55L921.12 -161.08L920.03 -161.7L919.01 -162.43L918.05 -163.24L917.17 -164.13L916.38 -165.1L915.67 -166.15L915.05 -167.25L914.54 -168.42L914.12 -169.64L913.82 -170.91L913.64 -172.22L913.57 -173.57L913.64 -174.92L913.82 -176.23L914.12 -177.5L914.54 -178.72L915.05 -179.89L915.67 -181L916.38 -182.04L917.17 -183.01L918.05 -183.91L919.01 -184.72L920.03 -185.44L921.12 -186.07L922.27 -186.59L923.47 -187.01L924.71 -187.32L926 -187.51L927.32 -187.57L928.65 -187.51L929.94 -187.32Z" id="a21Jn20t5" fill="white" fill-opacity="1" filter="url(#shadow9583571)"></path></g><use xlink:href="#hY4o58ru4" opacity="1" fill="#9642f5" fill-opacity="1"></use></g></g></g></svg>