<?xml version="1.0" encoding="UTF-8" standalone="no"?>
<!DOCTYPE svg PUBLIC "-//W3C//DTD SVG 1.1//EN" "http://www.w3.org/Graphics/SVG/1.1/DTD/svg11.dtd">
<svg version="1.1" xmlns="http://www.w3.org/2000/svg" xmlns:xlink="http://www.w3.org/1999/xlink" preserveAspectRatio="xMidYMid meet" viewBox="0 0 640 381" width="640" height="381"><defs><path d="M305.16 203.12C305.16 203.12 305.16 203.12 305.16 203.12C305.16 183.3 320.83 167.2 340.13 167.2C340.13 167.2 595.24 167.2 595.24 167.2C614.55 167.2 630.21 183.3 630.21 203.12C630.21 203.12 630.21 203.12 630.21 203.12C630.21 222.95 614.55 239.05 595.24 239.05C595.24 239.05 340.13 239.05 340.13 239.05C320.83 239.05 305.16 222.95 305.16 203.12Z" id="bVQdfp71L"></path><path d="M30.21 117.23C30.21 117.23 30.21 117.23 30.21 117.23C30.21 83.18 56.73 55.55 89.38 55.55C89.38 55.55 520.94 55.55 520.94 55.55C553.59 55.55 580.11 83.18 580.11 117.23C580.11 117.23 580.11 117.23 580.11 117.23C580.11 151.27 553.59 178.9 520.94 178.9C520.94 178.9 89.38 178.9 89.38 178.9C56.73 178.9 30.21 151.27 30.21 117.23Z" id="a1Ji1mZPQZ"></path><path d="M110.39 277.81C110.39 277.81 110.39 277.81 110.39 277.81C110.39 253.14 129.17 233.1 152.3 233.1C152.3 233.1 458.02 233.1 458.02 233.1C481.15 233.1 499.93 253.14 499.93 277.81C499.93 277.81 499.93 277.81 499.93 277.81C499.93 302.48 481.15 322.51 458.02 322.51C458.02 322.51 152.3 322.51 152.3 322.51C129.17 322.51 110.39 302.48 110.39 277.81Z" id="eHJ4lCjeD"></path><path d="M322.13 364.29C231.37 364.29 157.68 285.62 157.68 188.72C157.68 91.82 231.37 13.15 322.13 13.15C412.9 13.15 486.58 91.82 486.58 188.72C486.58 285.62 412.9 364.29 322.13 364.29Z" id="a1Z1PBz7SF"></path><path d="M322.13 364.29C231.37 364.29 157.68 285.62 157.68 188.72C157.68 91.82 231.37 13.15 322.13 13.15C412.9 13.15 486.58 91.82 486.58 188.72C486.58 285.62 412.9 364.29 322.13 364.29Z" id="eaWNuVS5p"></path><path d="" id="a6oYOFGaU"></path><path d="M295.15 297.06C295.15 304.12 289.43 309.84 282.37 309.84C276.74 309.84 272.65 309.84 267.03 309.84C259.97 309.84 254.24 304.12 254.24 297.06C254.24 272.54 254.24 211.76 254.24 187.24C254.24 180.18 259.97 174.45 267.03 174.45C272.65 174.45 276.74 174.45 282.37 174.45C289.43 174.45 295.15 180.18 295.15 187.24C295.15 211.76 295.15 272.54 295.15 297.06Z" id="bIzZYJvGN"></path><path d="M295.15 297.06C295.15 304.12 289.43 309.84 282.37 309.84C276.74 309.84 272.65 309.84 267.03 309.84C259.97 309.84 254.24 304.12 254.24 297.06C254.24 272.54 254.24 211.76 254.24 187.24C254.24 180.18 259.97 174.45 267.03 174.45C272.65 174.45 276.74 174.45 282.37 174.45C289.43 174.45 295.15 180.18 295.15 187.24C295.15 211.76 295.15 272.54 295.15 297.06Z" id="a1VW65dzJ"></path><path d="M290.49 194.58C290.49 179.43 302.97 167.13 318.31 167.13C333.67 167.13 346.14 179.43 346.14 194.58C346.14 209.72 333.67 222.02 318.31 222.02C302.97 222.02 290.49 209.72 290.49 194.58Z" id="b21s5LHeEb"></path><path d="M290.49 194.58C290.49 179.43 302.97 167.13 318.31 167.13C333.67 167.13 346.14 179.43 346.14 194.58C346.14 209.72 333.67 222.02 318.31 222.02C302.97 222.02 290.49 209.72 290.49 194.58Z" id="aaxUzjouv"></path><path d="M204.64 194.58C204.64 179.43 217.1 167.13 232.46 167.13C247.82 167.13 260.29 179.43 260.29 194.58C260.29 209.72 247.82 222.02 232.46 222.02C217.1 222.02 204.64 209.72 204.64 194.58Z" id="aU5NBBWfq"></path><path d="M204.64 194.58C204.64 179.43 217.1 167.13 232.46 167.13C247.82 167.13 260.29 179.43 260.29 194.58C260.29 209.72 247.82 222.02 232.46 222.02C217.1 222.02 204.64 209.72 204.64 194.58Z" id="c3MbbaOtF"></path><path d="M204.64 148.22C204.64 133.08 217.1 120.79 232.46 120.79C247.82 120.79 260.29 133.08 260.29 148.22C260.29 163.37 247.82 175.67 232.46 175.67C217.1 175.67 204.64 163.37 204.64 148.22Z" id="bsA2choiR"></path><path d="M204.64 148.22C204.64 133.08 217.1 120.79 232.46 120.79C247.82 120.79 260.29 133.08 260.29 148.22C260.29 163.37 247.82 175.67 232.46 175.67C217.1 175.67 204.64 163.37 204.64 148.22Z" id="c1Vb7iJCx4"></path><path d="M316.1 254.99L316.42 255.07L316.72 255.16L316.86 255.22L317.01 255.29L317.27 255.45L317.39 255.53L317.53 255.63L317.65 255.73L317.86 255.95L317.95 256.07L318.14 256.32L318.3 256.58L318.43 256.88L318.48 257.02L318.52 257.17L318.6 257.49L318.62 257.65L318.64 257.98L318.64 258.91L318.66 258.9L318.79 258.89L318.91 258.89L319.04 258.87L388.63 258.87L388.63 257.81L388.64 257.65L388.7 257.33L388.78 257.02L388.83 256.88L388.96 256.58L389.03 256.45L389.12 256.32L389.2 256.2L389.31 256.07L389.4 255.95L389.63 255.73L389.75 255.63L389.87 255.53L389.99 255.45L390.25 255.29L390.4 255.22L390.69 255.11L390.85 255.07L391 255.03L391.16 254.99L391.32 254.98L391.65 254.95L391.68 254.95L391.85 254.96L392.17 254.99L392.49 255.07L392.78 255.16L392.94 255.22L393.47 255.53L393.59 255.63L393.71 255.73L393.92 255.95L394.03 256.07L394.22 256.32L394.38 256.58L394.43 256.73L394.5 256.88L394.6 257.17L394.64 257.33L394.67 257.49L394.7 257.81L394.71 257.98L394.71 306.82L394.7 306.98L394.68 307.15L394.67 307.3L394.64 307.47L394.6 307.62L394.55 307.78L394.5 307.93L394.38 308.21L394.22 308.47L394.03 308.72L393.92 308.84L393.82 308.95L393.71 309.07L393.47 309.26L393.34 309.35L393.07 309.51L392.94 309.57L392.78 309.64L392.63 309.69L392.49 309.73L392.33 309.77L392.01 309.83L391.85 309.84L391.49 309.84L391.32 309.83L391 309.77L390.85 309.73L390.69 309.69L390.55 309.64L390.25 309.51L389.99 309.35L389.63 309.07L389.4 308.84L389.31 308.72L389.2 308.6L389.12 308.47L389.03 308.34L388.9 308.07L388.83 307.93L388.78 307.78L388.74 307.62L388.7 307.47L388.67 307.3L388.64 307.15L388.63 306.98L388.63 292.73L318.64 292.73L318.64 306.82L318.62 307.15L318.6 307.3L318.56 307.47L318.52 307.62L318.48 307.78L318.43 307.93L318.3 308.21L318.14 308.47L317.95 308.72L317.86 308.84L317.65 309.07L317.53 309.16L317.39 309.26L317.27 309.35L317.01 309.51L316.72 309.64L316.57 309.69L316.42 309.73L316.26 309.77L315.94 309.83L315.79 309.84L315.41 309.84L315.25 309.83L314.93 309.77L314.63 309.69L314.47 309.64L314.34 309.57L314.19 309.51L313.92 309.35L313.8 309.26L313.67 309.16L313.55 309.07L313.34 308.84L313.23 308.72L313.14 308.6L313.06 308.47L312.97 308.34L312.9 308.21L312.82 308.07L312.71 307.78L312.67 307.62L312.63 307.47L312.59 307.3L312.58 307.15L312.55 306.98L312.55 257.81L312.58 257.65L312.59 257.49L312.63 257.33L312.71 257.02L312.82 256.73L312.9 256.58L312.97 256.45L313.06 256.32L313.14 256.2L313.23 256.07L313.34 255.95L313.55 255.73L313.67 255.63L313.8 255.53L313.92 255.45L314.19 255.29L314.34 255.22L314.47 255.16L314.63 255.11L314.77 255.07L315.09 254.99L315.57 254.95L315.61 254.95L315.79 254.96L316.1 254.99ZM318.64 286.62L388.63 286.62L388.63 282.16L318.64 282.16L318.64 286.62ZM318.64 276.05L388.63 276.05L388.63 273.41L318.64 273.41L318.64 276.05ZM388.63 267.3L388.63 264.98L319.04 264.98L318.66 264.96L318.64 264.95L318.64 267.32L388.63 267.3Z" id="a1GKL6Z2GM"></path><path d="M316.1 254.99L316.42 255.07L316.72 255.16L316.86 255.22L317.01 255.29L317.27 255.45L317.39 255.53L317.53 255.63L317.65 255.73L317.86 255.95L317.95 256.07L318.14 256.32L318.3 256.58L318.43 256.88L318.48 257.02L318.52 257.17L318.6 257.49L318.62 257.65L318.64 257.98L318.64 258.91L318.66 258.9L318.79 258.89L318.91 258.89L319.04 258.87L388.63 258.87L388.63 257.81L388.64 257.65L388.7 257.33L388.78 257.02L388.83 256.88L388.96 256.58L389.03 256.45L389.12 256.32L389.2 256.2L389.31 256.07L389.4 255.95L389.63 255.73L389.75 255.63L389.87 255.53L389.99 255.45L390.25 255.29L390.4 255.22L390.69 255.11L390.85 255.07L391 255.03L391.16 254.99L391.32 254.98L391.65 254.95L391.68 254.95L391.85 254.96L392.17 254.99L392.49 255.07L392.78 255.16L392.94 255.22L393.47 255.53L393.59 255.63L393.71 255.73L393.92 255.95L394.03 256.07L394.22 256.32L394.38 256.58L394.43 256.73L394.5 256.88L394.6 257.17L394.64 257.33L394.67 257.49L394.7 257.81L394.71 257.98L394.71 306.82L394.7 306.98L394.68 307.15L394.67 307.3L394.64 307.47L394.6 307.62L394.55 307.78L394.5 307.93L394.38 308.21L394.22 308.47L394.03 308.72L393.92 308.84L393.82 308.95L393.71 309.07L393.47 309.26L393.34 309.35L393.07 309.51L392.94 309.57L392.78 309.64L392.63 309.69L392.49 309.73L392.33 309.77L392.01 309.83L391.85 309.84L391.49 309.84L391.32 309.83L391 309.77L390.85 309.73L390.69 309.69L390.55 309.64L390.25 309.51L389.99 309.35L389.63 309.07L389.4 308.84L389.31 308.72L389.2 308.6L389.12 308.47L389.03 308.34L388.9 308.07L388.83 307.93L388.78 307.78L388.74 307.62L388.7 307.47L388.67 307.3L388.64 307.15L388.63 306.98L388.63 292.73L318.64 292.73L318.64 306.82L318.62 307.15L318.6 307.3L318.56 307.47L318.52 307.62L318.48 307.78L318.43 307.93L318.3 308.21L318.14 308.47L317.95 308.72L317.86 308.84L317.65 309.07L317.53 309.16L317.39 309.26L317.27 309.35L317.01 309.51L316.72 309.64L316.57 309.69L316.42 309.73L316.26 309.77L315.94 309.83L315.79 309.84L315.41 309.84L315.25 309.83L314.93 309.77L314.63 309.69L314.47 309.64L314.34 309.57L314.19 309.51L313.92 309.35L313.8 309.26L313.67 309.16L313.55 309.07L313.34 308.84L313.23 308.72L313.14 308.6L313.06 308.47L312.97 308.34L312.9 308.21L312.82 308.07L312.71 307.78L312.67 307.62L312.63 307.47L312.59 307.3L312.58 307.15L312.55 306.98L312.55 257.81L312.58 257.65L312.59 257.49L312.63 257.33L312.71 257.02L312.82 256.73L312.9 256.58L312.97 256.45L313.06 256.32L313.14 256.2L313.23 256.07L313.34 255.95L313.55 255.73L313.67 255.63L313.8 255.53L313.92 255.45L314.19 255.29L314.34 255.22L314.47 255.16L314.63 255.11L314.77 255.07L315.09 254.99L315.57 254.95L315.61 254.95L315.79 254.96L316.1 254.99ZM318.64 286.62L388.63 286.62L388.63 282.16L318.64 282.16L318.64 286.62ZM318.64 276.05L388.63 276.05L388.63 273.41L318.64 273.41L318.64 276.05ZM388.63 267.3L388.63 264.98L319.04 264.98L318.66 264.96L318.64 264.95L318.64 267.32L388.63 267.3Z" id="ee7KrFcmv"></path><path d="M411.37 92.79C422.48 95.31 430.64 103.78 430.64 113.84C430.64 113.84 430.64 113.84 430.64 113.84C430.64 125.88 418.91 135.66 404.46 135.66C397.87 135.66 345.32 135.66 338.75 135.66C324.28 135.66 312.55 125.88 312.55 113.84C312.55 113.84 312.55 113.84 312.55 113.84C312.55 103.33 321.48 94.56 333.34 92.48C334.4 81.1 343.3 72.2 354.12 72.2C356.49 72.2 358.78 72.63 360.91 73.43C365.97 65.79 374.23 60.82 383.58 60.82C398.95 60.82 411.42 74.29 411.42 90.91C411.42 91.55 411.41 92.18 411.37 92.79Z" id="f4vuqXec2"></path><path d="M411.37 92.79C422.48 95.31 430.64 103.78 430.64 113.84C430.64 113.84 430.64 113.84 430.64 113.84C430.64 125.88 418.91 135.66 404.46 135.66C397.87 135.66 345.32 135.66 338.75 135.66C324.28 135.66 312.55 125.88 312.55 113.84C312.55 113.84 312.55 113.84 312.55 113.84C312.55 103.33 321.48 94.56 333.34 92.48C334.4 81.1 343.3 72.2 354.12 72.2C356.49 72.2 358.78 72.63 360.91 73.43C365.97 65.79 374.23 60.82 383.58 60.82C398.95 60.82 411.42 74.29 411.42 90.91C411.42 91.55 411.41 92.18 411.37 92.79Z" id="c3kEFoNNEK"></path><path d="M284.19 148.22C284.19 133.08 296.66 120.79 312.01 120.79C327.37 120.79 339.84 133.08 339.84 148.22C339.84 163.37 327.37 175.67 312.01 175.67C296.66 175.67 284.19 163.37 284.19 148.22Z" id="c1nUp29I55"></path><path d="M284.19 148.22C284.19 133.08 296.66 120.79 312.01 120.79C327.37 120.79 339.84 133.08 339.84 148.22C339.84 163.37 327.37 175.67 312.01 175.67C296.66 175.67 284.19 163.37 284.19 148.22Z" id="c10VIIIPUJ"></path><path d="M246.98 120.79C246.98 105.65 259.45 93.35 274.81 93.35C290.17 93.35 302.63 105.65 302.63 120.79C302.63 135.94 290.17 148.22 274.81 148.22C259.45 148.22 246.98 135.94 246.98 120.79Z" id="a6YklLVth"></path><path d="M246.98 120.79C246.98 105.65 259.45 93.35 274.81 93.35C290.17 93.35 302.63 105.65 302.63 120.79C302.63 135.94 290.17 148.22 274.81 148.22C259.45 148.22 246.98 135.94 246.98 120.79Z" id="akTRZB6V1"></path><path d="M246.98 167.13C246.98 151.99 259.45 139.69 274.81 139.69C290.17 139.69 302.63 151.99 302.63 167.13C302.63 182.28 290.17 194.58 274.81 194.58C259.45 194.58 246.98 182.28 246.98 167.13Z" id="a1o3e3BY8"></path><path d="M246.98 167.13C246.98 151.99 259.45 139.69 274.81 139.69C290.17 139.69 302.63 151.99 302.63 167.13C302.63 182.28 290.17 194.58 274.81 194.58C259.45 194.58 246.98 182.28 246.98 167.13Z" id="aJXQ0waSA"></path><path d="M393.45 275.71L393.59 275.77L393.72 275.84L393.86 275.92L393.98 276.01L394.1 276.11L394.2 276.21L394.31 276.33L394.39 276.45L394.47 276.58L394.55 276.72L394.6 276.88L394.64 277.02L394.68 277.17L394.7 277.33L394.71 277.49L394.71 289.66L394.71 289.67L394.71 289.7L394.71 307.95L394.7 308.13L394.68 308.28L394.64 308.43L394.6 308.59L394.55 308.72L394.47 308.86L394.39 308.99L394.31 309.12L394.2 309.24L394.1 309.34L393.99 309.44L393.86 309.52L393.72 309.61L393.59 309.68L393.45 309.73L393.3 309.77L393.14 309.81L392.98 309.83L392.82 309.84L390.55 309.84L390.37 309.83L390.23 309.81L390.07 309.77L389.92 309.73L389.78 309.68L389.63 309.61L389.51 309.52L389.38 309.44L389.27 309.35L389.15 309.24L389.06 309.12L388.96 308.99L388.88 308.86L388.82 308.72L388.76 308.59L388.71 308.43L388.68 308.28L388.66 308.13L388.66 307.95L388.66 292.73L319.04 292.73L318.91 292.73L318.79 292.71L318.66 292.7L318.6 292.69L318.6 307.95L318.6 308.13L318.58 308.28L318.54 308.43L318.51 308.59L318.44 308.72L318.38 308.86L318.3 308.99L318.21 309.12L318.1 309.24L318.01 309.34L317.89 309.44L317.75 309.52L317.62 309.61L317.49 309.68L317.34 309.73L317.19 309.77L317.05 309.81L316.89 309.83L316.73 309.84L314.44 309.84L314.28 309.83L314.12 309.81L313.98 309.77L313.82 309.73L313.67 309.68L313.54 309.61L313.4 309.52L313.29 309.44L313.17 309.35L313.06 309.24L312.95 309.12L312.87 308.99L312.79 308.86L312.73 308.72L312.67 308.59L312.62 308.43L312.58 308.28L312.57 308.13L312.55 307.95L312.55 277.49L312.57 277.33L312.58 277.17L312.62 277.02L312.66 276.88L312.73 276.72L312.78 276.58L312.87 276.45L312.95 276.33L313.06 276.21L313.17 276.11L313.29 276.01L313.4 275.92L313.54 275.84L313.67 275.77L313.82 275.72L313.98 275.67L314.12 275.63L314.28 275.61L314.44 275.61L316.73 275.61L316.88 275.61L317.05 275.63L317.19 275.67L317.34 275.71L317.49 275.77L317.62 275.84L317.75 275.92L317.89 276.01L318.01 276.11L318.1 276.21L318.21 276.33L318.3 276.45L318.38 276.58L318.44 276.72L318.5 276.88L318.54 277.02L318.58 277.17L318.6 277.33L318.6 277.49L318.6 286.66L318.66 286.65L318.79 286.64L318.91 286.62L319.04 286.62L388.66 286.62L388.66 277.49L388.66 277.33L388.68 277.17L388.71 277.02L388.76 276.88L388.82 276.72L388.88 276.58L388.96 276.45L389.06 276.33L389.15 276.21L389.27 276.11L389.38 276.01L389.5 275.92L389.63 275.84L389.78 275.77L389.92 275.72L390.07 275.67L390.23 275.63L390.37 275.61L390.55 275.61L392.82 275.61L392.98 275.61L393.14 275.63L393.3 275.67L393.45 275.71Z" id="bQFX1STbC"></path><path d="M393.45 275.71L393.59 275.77L393.72 275.84L393.86 275.92L393.98 276.01L394.1 276.11L394.2 276.21L394.31 276.33L394.39 276.45L394.47 276.58L394.55 276.72L394.6 276.88L394.64 277.02L394.68 277.17L394.7 277.33L394.71 277.49L394.71 289.66L394.71 289.67L394.71 289.7L394.71 307.95L394.7 308.13L394.68 308.28L394.64 308.43L394.6 308.59L394.55 308.72L394.47 308.86L394.39 308.99L394.31 309.12L394.2 309.24L394.1 309.34L393.99 309.44L393.86 309.52L393.72 309.61L393.59 309.68L393.45 309.73L393.3 309.77L393.14 309.81L392.98 309.83L392.82 309.84L390.55 309.84L390.37 309.83L390.23 309.81L390.07 309.77L389.92 309.73L389.78 309.68L389.63 309.61L389.51 309.52L389.38 309.44L389.27 309.35L389.15 309.24L389.06 309.12L388.96 308.99L388.88 308.86L388.82 308.72L388.76 308.59L388.71 308.43L388.68 308.28L388.66 308.13L388.66 307.95L388.66 292.73L319.04 292.73L318.91 292.73L318.79 292.71L318.66 292.7L318.6 292.69L318.6 307.95L318.6 308.13L318.58 308.28L318.54 308.43L318.51 308.59L318.44 308.72L318.38 308.86L318.3 308.99L318.21 309.12L318.1 309.24L318.01 309.34L317.89 309.44L317.75 309.52L317.62 309.61L317.49 309.68L317.34 309.73L317.19 309.77L317.05 309.81L316.89 309.83L316.73 309.84L314.44 309.84L314.28 309.83L314.12 309.81L313.98 309.77L313.82 309.73L313.67 309.68L313.54 309.61L313.4 309.52L313.29 309.44L313.17 309.35L313.06 309.24L312.95 309.12L312.87 308.99L312.79 308.86L312.73 308.72L312.67 308.59L312.62 308.43L312.58 308.28L312.57 308.13L312.55 307.95L312.55 277.49L312.57 277.33L312.58 277.17L312.62 277.02L312.66 276.88L312.73 276.72L312.78 276.58L312.87 276.45L312.95 276.33L313.06 276.21L313.17 276.11L313.29 276.01L313.4 275.92L313.54 275.84L313.67 275.77L313.82 275.72L313.98 275.67L314.12 275.63L314.28 275.61L314.44 275.61L316.73 275.61L316.88 275.61L317.05 275.63L317.19 275.67L317.34 275.71L317.49 275.77L317.62 275.84L317.75 275.92L317.89 276.01L318.01 276.11L318.1 276.21L318.21 276.33L318.3 276.45L318.38 276.58L318.44 276.72L318.5 276.88L318.54 277.02L318.58 277.17L318.6 277.33L318.6 277.49L318.6 286.66L318.66 286.65L318.79 286.64L318.91 286.62L319.04 286.62L388.66 286.62L388.66 277.49L388.66 277.33L388.68 277.17L388.71 277.02L388.76 276.88L388.82 276.72L388.88 276.58L388.96 276.45L389.06 276.33L389.15 276.21L389.27 276.11L389.38 276.01L389.5 275.92L389.63 275.84L389.78 275.77L389.92 275.72L390.07 275.67L390.23 275.63L390.37 275.61L390.55 275.61L392.82 275.61L392.98 275.61L393.14 275.63L393.3 275.67L393.45 275.71Z" id="aMcvpC1xE"></path></defs><g><g><g><g><filter id="shadow12295225" x="297.16" y="159.2" width="341.05" height="87.85" filterUnits="userSpaceOnUse" primitiveUnits="userSpaceOnUse"><feFlood></feFlood><feComposite in2="SourceAlpha" operator="in"></feComposite><feGaussianBlur stdDeviation="1"></feGaussianBlur><feOffset dx="0" dy="0" result="afterOffset"></feOffset><feFlood flood-color="#000000" flood-opacity="0.5"></feFlood><feComposite in2="afterOffset" operator="in"></feComposite><feMorphology operator="dilate" radius="1"></feMorphology><feComposite in2="SourceAlpha" operator="out"></feComposite></filter><path d="M305.16 203.12C305.16 203.12 305.16 203.12 305.16 203.12C305.16 183.3 320.83 167.2 340.13 167.2C340.13 167.2 595.24 167.2 595.24 167.2C614.55 167.2 630.21 183.3 630.21 203.12C630.21 203.12 630.21 203.12 630.21 203.12C630.21 222.95 614.55 239.05 595.24 239.05C595.24 239.05 340.13 239.05 340.13 239.05C320.83 239.05 305.16 222.95 305.16 203.12Z" id="d34K29o4" fill="white" fill-opacity="1" filter="url(#shadow12295225)"></path></g><use xlink:href="#bVQdfp71L" opacity="1" fill="#4982e8" fill-opacity="1"></use><g><use xlink:href="#bVQdfp71L" opacity="1" fill-opacity="0" stroke="#000000" stroke-width="1" stroke-opacity="0"></use></g></g><g><g><filter id="shadow11373792" x="22.21" y="47.55" width="565.89" height="139.35" filterUnits="userSpaceOnUse" primitiveUnits="userSpaceOnUse"><feFlood></feFlood><feComposite in2="SourceAlpha" operator="in"></feComposite><feGaussianBlur stdDeviation="1"></feGaussianBlur><feOffset dx="0" dy="0" result="afterOffset"></feOffset><feFlood flood-color="#000000" flood-opacity="0.5"></feFlood><feComposite in2="afterOffset" operator="in"></feComposite><feMorphology operator="dilate" radius="1"></feMorphology><feComposite in2="SourceAlpha" operator="out"></feComposite></filter><path d="M30.21 117.23C30.21 117.23 30.21 117.23 30.21 117.23C30.21 83.18 56.73 55.55 89.38 55.55C89.38 55.55 520.94 55.55 520.94 55.55C553.59 55.55 580.11 83.18 580.11 117.23C580.11 117.23 580.11 117.23 580.11 117.23C580.11 151.27 553.59 178.9 520.94 178.9C520.94 178.9 89.38 178.9 89.38 178.9C56.73 178.9 30.21 151.27 30.21 117.23Z" id="a1cD8p5O9L" fill="white" fill-opacity="1" filter="url(#shadow11373792)"></path></g><use xlink:href="#a1Ji1mZPQZ" opacity="1" fill="#4982e8" fill-opacity="1"></use><g><use xlink:href="#a1Ji1mZPQZ" opacity="1" fill-opacity="0" stroke="#000000" stroke-width="1" stroke-opacity="0"></use></g></g><g><g><filter id="shadow16079421" x="102.39" y="225.1" width="405.54" height="105.41" filterUnits="userSpaceOnUse" primitiveUnits="userSpaceOnUse"><feFlood></feFlood><feComposite in2="SourceAlpha" operator="in"></feComposite><feGaussianBlur stdDeviation="1"></feGaussianBlur><feOffset dx="0" dy="0" result="afterOffset"></feOffset><feFlood flood-color="#000000" flood-opacity="0.5"></feFlood><feComposite in2="afterOffset" operator="in"></feComposite><feMorphology operator="dilate" radius="1"></feMorphology><feComposite in2="SourceAlpha" operator="out"></feComposite></filter><path d="M110.39 277.81C110.39 277.81 110.39 277.81 110.39 277.81C110.39 253.14 129.17 233.1 152.3 233.1C152.3 233.1 458.02 233.1 458.02 233.1C481.15 233.1 499.93 253.14 499.93 277.81C499.93 277.81 499.93 277.81 499.93 277.81C499.93 302.48 481.15 322.51 458.02 322.51C458.02 322.51 152.3 322.51 152.3 322.51C129.17 322.51 110.39 302.48 110.39 277.81Z" id="d4QeuBZVG5" fill="white" fill-opacity="1" filter="url(#shadow16079421)"></path></g><use xlink:href="#eHJ4lCjeD" opacity="1" fill="#4982e8" fill-opacity="1"></use><g><use xlink:href="#eHJ4lCjeD" opacity="1" fill-opacity="0" stroke="#000000" stroke-width="1" stroke-opacity="0"></use></g></g><g><g><filter id="shadow1856360" x="149.68" y="5.15" width="344.9" height="367.14" filterUnits="userSpaceOnUse" primitiveUnits="userSpaceOnUse"><feFlood></feFlood><feComposite in2="SourceAlpha" operator="in"></feComposite><feGaussianBlur stdDeviation="1"></feGaussianBlur><feOffset dx="0" dy="0" result="afterOffset"></feOffset><feFlood flood-color="#000000" flood-opacity="0.5"></feFlood><feComposite in2="afterOffset" operator="in"></feComposite><feMorphology operator="dilate" radius="1"></feMorphology><feComposite in2="SourceAlpha" operator="out"></feComposite></filter><path d="M322.13 364.29C231.37 364.29 157.68 285.62 157.68 188.72C157.68 91.82 231.37 13.15 322.13 13.15C412.9 13.15 486.58 91.82 486.58 188.72C486.58 285.62 412.9 364.29 322.13 364.29Z" id="k3jmRvPyz" fill="white" fill-opacity="1" filter="url(#shadow1856360)"></path></g><use xlink:href="#a1Z1PBz7SF" opacity="1" fill="#2d2d2d" fill-opacity="1"></use><g><use xlink:href="#a1Z1PBz7SF" opacity="1" fill-opacity="0" stroke="#000000" stroke-width="1" stroke-opacity="0"></use></g></g><g><g><filter id="shadow14597099" x="127.68" y="-16.85" width="388.9" height="411.14" filterUnits="userSpaceOnUse" primitiveUnits="userSpaceOnUse"><feFlood></feFlood><feComposite in2="SourceAlpha" operator="in"></feComposite><feGaussianBlur stdDeviation="3.16"></feGaussianBlur><feOffset dx="0" dy="0" result="afterOffset"></feOffset><feFlood flood-color="#000000" flood-opacity="0.5"></feFlood><feComposite in2="afterOffset" operator="in"></feComposite><feMorphology operator="dilate" radius="5"></feMorphology><feComposite in2="SourceAlpha" operator="out"></feComposite></filter><path d="M322.13 364.29C231.37 364.29 157.68 285.62 157.68 188.72C157.68 91.82 231.37 13.15 322.13 13.15C412.9 13.15 486.58 91.82 486.58 188.72C486.58 285.62 412.9 364.29 322.13 364.29Z" id="a4l6kDVVVI" fill="white" fill-opacity="1" filter="url(#shadow14597099)"></path></g><use xlink:href="#eaWNuVS5p" opacity="1" fill="#000000" fill-opacity="0"></use><g><use xlink:href="#eaWNuVS5p" opacity="1" fill-opacity="0" stroke="#4982e8" stroke-width="10" stroke-opacity="1"></use></g></g><g><g><use xlink:href="#a6oYOFGaU" opacity="1" fill-opacity="0" stroke="#000000" stroke-width="0" stroke-opacity="0"></use></g></g><g><g><filter id="shadow10092995" x="247.24" y="167.45" width="54.9" height="149.39" filterUnits="userSpaceOnUse" primitiveUnits="userSpaceOnUse"><feFlood></feFlood><feComposite in2="SourceAlpha" operator="in"></feComposite><feGaussianBlur stdDeviation="1"></feGaussianBlur><feOffset dx="0" dy="0" result="afterOffset"></feOffset><feFlood flood-color="#000000" flood-opacity="0.5"></feFlood><feComposite in2="afterOffset" operator="in"></feComposite><feMorphology operator="dilate" radius="0"></feMorphology><feComposite in2="SourceAlpha" operator="out"></feComposite></filter><path d="M295.15 297.06C295.15 304.12 289.43 309.84 282.37 309.84C276.74 309.84 272.65 309.84 267.03 309.84C259.97 309.84 254.24 304.12 254.24 297.06C254.24 272.54 254.24 211.76 254.24 187.24C254.24 180.18 259.97 174.45 267.03 174.45C272.65 174.45 276.74 174.45 282.37 174.45C289.43 174.45 295.15 180.18 295.15 187.24C295.15 211.76 295.15 272.54 295.15 297.06Z" id="c1njzRLfLR" fill="white" fill-opacity="1" filter="url(#shadow10092995)"></path></g><use xlink:href="#bIzZYJvGN" opacity="1" fill="#8f5933" fill-opacity="1"></use><g><use xlink:href="#bIzZYJvGN" opacity="1" fill-opacity="0" stroke="#000000" stroke-width="1" stroke-opacity="0"></use></g></g><g><g><filter id="shadow449380" x="247.24" y="167.45" width="54.9" height="149.39" filterUnits="userSpaceOnUse" primitiveUnits="userSpaceOnUse"><feFlood></feFlood><feComposite in2="SourceAlpha" operator="in"></feComposite><feGaussianBlur stdDeviation="1"></feGaussianBlur><feOffset dx="0" dy="0" result="afterOffset"></feOffset><feFlood flood-color="#000000" flood-opacity="0.5"></feFlood><feComposite in2="afterOffset" operator="in"></feComposite><feMorphology operator="dilate" radius="0"></feMorphology><feComposite in2="SourceAlpha" operator="out"></feComposite></filter><path d="M295.15 297.06C295.15 304.12 289.43 309.84 282.37 309.84C276.74 309.84 272.65 309.84 267.03 309.84C259.97 309.84 254.24 304.12 254.24 297.06C254.24 272.54 254.24 211.76 254.24 187.24C254.24 180.18 259.97 174.45 267.03 174.45C272.65 174.45 276.74 174.45 282.37 174.45C289.43 174.45 295.15 180.18 295.15 187.24C295.15 211.76 295.15 272.54 295.15 297.06Z" id="bjkMiWc0Z" fill="white" fill-opacity="1" filter="url(#shadow449380)"></path></g><use xlink:href="#a1VW65dzJ" opacity="1" fill="#000000" fill-opacity="0"></use><g><use xlink:href="#a1VW65dzJ" opacity="1" fill-opacity="0" stroke="#000000" stroke-width="1" stroke-opacity="0"></use></g></g><g><g><filter id="shadow9487183" x="283.49" y="160.13" width="69.65" height="68.89" filterUnits="userSpaceOnUse" primitiveUnits="userSpaceOnUse"><feFlood></feFlood><feComposite in2="SourceAlpha" operator="in"></feComposite><feGaussianBlur stdDeviation="1"></feGaussianBlur><feOffset dx="0" dy="0" result="afterOffset"></feOffset><feFlood flood-color="#000000" flood-opacity="0.5"></feFlood><feComposite in2="afterOffset" operator="in"></feComposite><feMorphology operator="dilate" radius="0"></feMorphology><feComposite in2="SourceAlpha" operator="out"></feComposite></filter><path d="M290.49 194.58C290.49 179.43 302.97 167.13 318.31 167.13C333.67 167.13 346.14 179.43 346.14 194.58C346.14 209.72 333.67 222.02 318.31 222.02C302.97 222.02 290.49 209.72 290.49 194.58Z" id="g1gFgDOLyA" fill="white" fill-opacity="1" filter="url(#shadow9487183)"></path></g><use xlink:href="#b21s5LHeEb" opacity="1" fill="#4ca81a" fill-opacity="1"></use><g><use xlink:href="#b21s5LHeEb" opacity="1" fill-opacity="0" stroke="#000000" stroke-width="1" stroke-opacity="0"></use></g></g><g><g><filter id="shadow10676885" x="283.49" y="160.13" width="69.65" height="68.89" filterUnits="userSpaceOnUse" primitiveUnits="userSpaceOnUse"><feFlood></feFlood><feComposite in2="SourceAlpha" operator="in"></feComposite><feGaussianBlur stdDeviation="1"></feGaussianBlur><feOffset dx="0" dy="0" result="afterOffset"></feOffset><feFlood flood-color="#000000" flood-opacity="0.5"></feFlood><feComposite in2="afterOffset" operator="in"></feComposite><feMorphology operator="dilate" radius="0"></feMorphology><feComposite in2="SourceAlpha" operator="out"></feComposite></filter><path d="M290.49 194.58C290.49 179.43 302.97 167.13 318.31 167.13C333.67 167.13 346.14 179.43 346.14 194.58C346.14 209.72 333.67 222.02 318.31 222.02C302.97 222.02 290.49 209.72 290.49 194.58Z" id="frfspn7J" fill="white" fill-opacity="1" filter="url(#shadow10676885)"></path></g><use xlink:href="#aaxUzjouv" opacity="1" fill="#000000" fill-opacity="0"></use><g><use xlink:href="#aaxUzjouv" opacity="1" fill-opacity="0" stroke="#000000" stroke-width="1" stroke-opacity="0"></use></g></g><g><g><filter id="shadow14686154" x="197.64" y="160.13" width="69.65" height="68.89" filterUnits="userSpaceOnUse" primitiveUnits="userSpaceOnUse"><feFlood></feFlood><feComposite in2="SourceAlpha" operator="in"></feComposite><feGaussianBlur stdDeviation="1"></feGaussianBlur><feOffset dx="0" dy="0" result="afterOffset"></feOffset><feFlood flood-color="#000000" flood-opacity="0.5"></feFlood><feComposite in2="afterOffset" operator="in"></feComposite><feMorphology operator="dilate" radius="0"></feMorphology><feComposite in2="SourceAlpha" operator="out"></feComposite></filter><path d="M204.64 194.58C204.64 179.43 217.1 167.13 232.46 167.13C247.82 167.13 260.29 179.43 260.29 194.58C260.29 209.72 247.82 222.02 232.46 222.02C217.1 222.02 204.64 209.72 204.64 194.58Z" id="bymWwXf3s" fill="white" fill-opacity="1" filter="url(#shadow14686154)"></path></g><use xlink:href="#aU5NBBWfq" opacity="1" fill="#4ca81a" fill-opacity="1"></use><g><use xlink:href="#aU5NBBWfq" opacity="1" fill-opacity="0" stroke="#000000" stroke-width="1" stroke-opacity="0"></use></g></g><g><g><filter id="shadow10683466" x="197.64" y="160.13" width="69.65" height="68.89" filterUnits="userSpaceOnUse" primitiveUnits="userSpaceOnUse"><feFlood></feFlood><feComposite in2="SourceAlpha" operator="in"></feComposite><feGaussianBlur stdDeviation="1"></feGaussianBlur><feOffset dx="0" dy="0" result="afterOffset"></feOffset><feFlood flood-color="#000000" flood-opacity="0.5"></feFlood><feComposite in2="afterOffset" operator="in"></feComposite><feMorphology operator="dilate" radius="0"></feMorphology><feComposite in2="SourceAlpha" operator="out"></feComposite></filter><path d="M204.64 194.58C204.64 179.43 217.1 167.13 232.46 167.13C247.82 167.13 260.29 179.43 260.29 194.58C260.29 209.72 247.82 222.02 232.46 222.02C217.1 222.02 204.64 209.72 204.64 194.58Z" id="b1bLD2wiAb" fill="white" fill-opacity="1" filter="url(#shadow10683466)"></path></g><use xlink:href="#c3MbbaOtF" opacity="1" fill="#000000" fill-opacity="0"></use><g><use xlink:href="#c3MbbaOtF" opacity="1" fill-opacity="0" stroke="#000000" stroke-width="1" stroke-opacity="0"></use></g></g><g><g><filter id="shadow15699073" x="197.64" y="113.79" width="69.65" height="68.88" filterUnits="userSpaceOnUse" primitiveUnits="userSpaceOnUse"><feFlood></feFlood><feComposite in2="SourceAlpha" operator="in"></feComposite><feGaussianBlur stdDeviation="1"></feGaussianBlur><feOffset dx="0" dy="0" result="afterOffset"></feOffset><feFlood flood-color="#000000" flood-opacity="0.5"></feFlood><feComposite in2="afterOffset" operator="in"></feComposite><feMorphology operator="dilate" radius="0"></feMorphology><feComposite in2="SourceAlpha" operator="out"></feComposite></filter><path d="M204.64 148.22C204.64 133.08 217.1 120.79 232.46 120.79C247.82 120.79 260.29 133.08 260.29 148.22C260.29 163.37 247.82 175.67 232.46 175.67C217.1 175.67 204.64 163.37 204.64 148.22Z" id="a4hHQDce6p" fill="white" fill-opacity="1" filter="url(#shadow15699073)"></path></g><use xlink:href="#bsA2choiR" opacity="1" fill="#4ca81a" fill-opacity="1"></use><g><use xlink:href="#bsA2choiR" opacity="1" fill-opacity="0" stroke="#000000" stroke-width="1" stroke-opacity="0"></use></g></g><g><g><filter id="shadow12692994" x="197.64" y="113.79" width="69.65" height="68.88" filterUnits="userSpaceOnUse" primitiveUnits="userSpaceOnUse"><feFlood></feFlood><feComposite in2="SourceAlpha" operator="in"></feComposite><feGaussianBlur stdDeviation="1"></feGaussianBlur><feOffset dx="0" dy="0" result="afterOffset"></feOffset><feFlood flood-color="#000000" flood-opacity="0.5"></feFlood><feComposite in2="afterOffset" operator="in"></feComposite><feMorphology operator="dilate" radius="0"></feMorphology><feComposite in2="SourceAlpha" operator="out"></feComposite></filter><path d="M204.64 148.22C204.64 133.08 217.1 120.79 232.46 120.79C247.82 120.79 260.29 133.08 260.29 148.22C260.29 163.37 247.82 175.67 232.46 175.67C217.1 175.67 204.64 163.37 204.64 148.22Z" id="chqRH6YKY" fill="white" fill-opacity="1" filter="url(#shadow12692994)"></path></g><use xlink:href="#c1Vb7iJCx4" opacity="1" fill="#000000" fill-opacity="0"></use><g><use xlink:href="#c1Vb7iJCx4" opacity="1" fill-opacity="0" stroke="#000000" stroke-width="1" stroke-opacity="0"></use></g></g><g><g><filter id="shadow9891088" x="305.55" y="247.95" width="96.16" height="68.89" filterUnits="userSpaceOnUse" primitiveUnits="userSpaceOnUse"><feFlood></feFlood><feComposite in2="SourceAlpha" operator="in"></feComposite><feGaussianBlur stdDeviation="1"></feGaussianBlur><feOffset dx="0" dy="0" result="afterOffset"></feOffset><feFlood flood-color="#000000" flood-opacity="0.5"></feFlood><feComposite in2="afterOffset" operator="in"></feComposite><feMorphology operator="dilate" radius="0"></feMorphology><feComposite in2="SourceAlpha" operator="out"></feComposite></filter><path d="M316.1 254.99L316.42 255.07L316.72 255.16L316.86 255.22L317.01 255.29L317.27 255.45L317.39 255.53L317.53 255.63L317.65 255.73L317.86 255.95L317.95 256.07L318.14 256.32L318.3 256.58L318.43 256.88L318.48 257.02L318.52 257.17L318.6 257.49L318.62 257.65L318.64 257.98L318.64 258.91L318.66 258.9L318.79 258.89L318.91 258.89L319.04 258.87L388.63 258.87L388.63 257.81L388.64 257.65L388.7 257.33L388.78 257.02L388.83 256.88L388.96 256.58L389.03 256.45L389.12 256.32L389.2 256.2L389.31 256.07L389.4 255.95L389.63 255.73L389.75 255.63L389.87 255.53L389.99 255.45L390.25 255.29L390.4 255.22L390.69 255.11L390.85 255.07L391 255.03L391.16 254.99L391.32 254.98L391.65 254.95L391.68 254.95L391.85 254.96L392.17 254.99L392.49 255.07L392.78 255.16L392.94 255.22L393.47 255.53L393.59 255.63L393.71 255.73L393.92 255.95L394.03 256.07L394.22 256.32L394.38 256.58L394.43 256.73L394.5 256.88L394.6 257.17L394.64 257.33L394.67 257.49L394.7 257.81L394.71 257.98L394.71 306.82L394.7 306.98L394.68 307.15L394.67 307.3L394.64 307.47L394.6 307.62L394.55 307.78L394.5 307.93L394.38 308.21L394.22 308.47L394.03 308.72L393.92 308.84L393.82 308.95L393.71 309.07L393.47 309.26L393.34 309.35L393.07 309.51L392.94 309.57L392.78 309.64L392.63 309.69L392.49 309.73L392.33 309.77L392.01 309.83L391.85 309.84L391.49 309.84L391.32 309.83L391 309.77L390.85 309.73L390.69 309.69L390.55 309.64L390.25 309.51L389.99 309.35L389.63 309.07L389.4 308.84L389.31 308.72L389.2 308.6L389.12 308.47L389.03 308.34L388.9 308.07L388.83 307.93L388.78 307.78L388.74 307.62L388.7 307.47L388.67 307.3L388.64 307.15L388.63 306.98L388.63 292.73L318.64 292.73L318.64 306.82L318.62 307.15L318.6 307.3L318.56 307.47L318.52 307.62L318.48 307.78L318.43 307.93L318.3 308.21L318.14 308.47L317.95 308.72L317.86 308.84L317.65 309.07L317.53 309.16L317.39 309.26L317.27 309.35L317.01 309.51L316.72 309.64L316.57 309.69L316.42 309.73L316.26 309.77L315.94 309.83L315.79 309.84L315.41 309.84L315.25 309.83L314.93 309.77L314.63 309.69L314.47 309.64L314.34 309.57L314.19 309.51L313.92 309.35L313.8 309.26L313.67 309.16L313.55 309.07L313.34 308.84L313.23 308.72L313.14 308.6L313.06 308.47L312.97 308.34L312.9 308.21L312.82 308.07L312.71 307.78L312.67 307.62L312.63 307.47L312.59 307.3L312.58 307.15L312.55 306.98L312.55 257.81L312.58 257.65L312.59 257.49L312.63 257.33L312.71 257.02L312.82 256.73L312.9 256.58L312.97 256.45L313.06 256.32L313.14 256.2L313.23 256.07L313.34 255.95L313.55 255.73L313.67 255.63L313.8 255.53L313.92 255.45L314.19 255.29L314.34 255.22L314.47 255.16L314.63 255.11L314.77 255.07L315.09 254.99L315.57 254.95L315.61 254.95L315.79 254.96L316.1 254.99ZM318.64 286.62L388.63 286.62L388.63 282.16L318.64 282.16L318.64 286.62ZM318.64 276.05L388.63 276.05L388.63 273.41L318.64 273.41L318.64 276.05ZM388.63 267.3L388.63 264.98L319.04 264.98L318.66 264.96L318.64 264.95L318.64 267.32L388.63 267.3Z" id="b2wCCMzRBC" fill="white" fill-opacity="1" filter="url(#shadow9891088)"></path></g><use xlink:href="#a1GKL6Z2GM" opacity="1" fill="#ce7c4a" fill-opacity="1"></use><g><use xlink:href="#a1GKL6Z2GM" opacity="1" fill-opacity="0" stroke="#000000" stroke-width="1" stroke-opacity="0"></use></g></g><g><g><filter id="shadow5757274" x="305.55" y="247.95" width="96.16" height="68.89" filterUnits="userSpaceOnUse" primitiveUnits="userSpaceOnUse"><feFlood></feFlood><feComposite in2="SourceAlpha" operator="in"></feComposite><feGaussianBlur stdDeviation="1"></feGaussianBlur><feOffset dx="0" dy="0" result="afterOffset"></feOffset><feFlood flood-color="#000000" flood-opacity="0.5"></feFlood><feComposite in2="afterOffset" operator="in"></feComposite><feMorphology operator="dilate" radius="0"></feMorphology><feComposite in2="SourceAlpha" operator="out"></feComposite></filter><path d="M316.1 254.99L316.42 255.07L316.72 255.16L316.86 255.22L317.01 255.29L317.27 255.45L317.39 255.53L317.53 255.63L317.65 255.73L317.86 255.95L317.95 256.07L318.14 256.32L318.3 256.58L318.43 256.88L318.48 257.02L318.52 257.17L318.6 257.49L318.62 257.65L318.64 257.98L318.64 258.91L318.66 258.9L318.79 258.89L318.91 258.89L319.04 258.87L388.63 258.87L388.63 257.81L388.64 257.65L388.7 257.33L388.78 257.02L388.83 256.88L388.96 256.58L389.03 256.45L389.12 256.32L389.2 256.2L389.31 256.07L389.4 255.95L389.63 255.73L389.75 255.63L389.87 255.53L389.99 255.45L390.25 255.29L390.4 255.22L390.69 255.11L390.85 255.07L391 255.03L391.16 254.99L391.32 254.98L391.65 254.95L391.68 254.95L391.85 254.96L392.17 254.99L392.49 255.07L392.78 255.16L392.94 255.22L393.47 255.53L393.59 255.63L393.71 255.73L393.92 255.95L394.03 256.07L394.22 256.32L394.38 256.58L394.43 256.73L394.5 256.88L394.6 257.17L394.64 257.33L394.67 257.49L394.7 257.81L394.71 257.98L394.71 306.82L394.7 306.98L394.68 307.15L394.67 307.3L394.64 307.47L394.6 307.62L394.55 307.78L394.5 307.93L394.38 308.21L394.22 308.47L394.03 308.72L393.92 308.84L393.82 308.95L393.71 309.07L393.47 309.26L393.34 309.35L393.07 309.51L392.94 309.57L392.78 309.64L392.63 309.69L392.49 309.73L392.33 309.77L392.01 309.83L391.85 309.84L391.49 309.84L391.32 309.83L391 309.77L390.85 309.73L390.69 309.69L390.55 309.64L390.25 309.51L389.99 309.35L389.63 309.07L389.4 308.84L389.31 308.72L389.2 308.6L389.12 308.47L389.03 308.34L388.9 308.07L388.83 307.93L388.78 307.78L388.74 307.62L388.7 307.47L388.67 307.3L388.64 307.15L388.63 306.98L388.63 292.73L318.64 292.73L318.64 306.82L318.62 307.15L318.6 307.3L318.56 307.47L318.52 307.62L318.48 307.78L318.43 307.93L318.3 308.21L318.14 308.47L317.95 308.72L317.86 308.84L317.65 309.07L317.53 309.16L317.39 309.26L317.27 309.35L317.01 309.51L316.72 309.64L316.57 309.69L316.42 309.73L316.26 309.77L315.94 309.83L315.79 309.84L315.41 309.84L315.25 309.83L314.93 309.77L314.63 309.69L314.47 309.64L314.34 309.57L314.19 309.51L313.92 309.35L313.8 309.26L313.67 309.16L313.55 309.07L313.34 308.84L313.23 308.72L313.14 308.6L313.06 308.47L312.97 308.34L312.9 308.21L312.82 308.07L312.71 307.78L312.67 307.62L312.63 307.47L312.59 307.3L312.58 307.15L312.55 306.98L312.55 257.81L312.58 257.65L312.59 257.49L312.63 257.33L312.71 257.02L312.82 256.73L312.9 256.58L312.97 256.45L313.06 256.32L313.14 256.2L313.23 256.07L313.34 255.95L313.55 255.73L313.67 255.63L313.8 255.53L313.92 255.45L314.19 255.29L314.34 255.22L314.47 255.16L314.63 255.11L314.77 255.07L315.09 254.99L315.57 254.95L315.61 254.95L315.79 254.96L316.1 254.99ZM318.64 286.62L388.63 286.62L388.63 282.16L318.64 282.16L318.64 286.62ZM318.64 276.05L388.63 276.05L388.63 273.41L318.64 273.41L318.64 276.05ZM388.63 267.3L388.63 264.98L319.04 264.98L318.66 264.96L318.64 264.95L318.64 267.32L388.63 267.3Z" id="efzIZYsHr" fill="white" fill-opacity="1" filter="url(#shadow5757274)"></path></g><use xlink:href="#ee7KrFcmv" opacity="1" fill="#000000" fill-opacity="0"></use><g><use xlink:href="#ee7KrFcmv" opacity="1" fill-opacity="0" stroke="#000000" stroke-width="1" stroke-opacity="0"></use></g></g><g><g><filter id="shadow11319686" x="305.55" y="53.82" width="132.09" height="88.84" filterUnits="userSpaceOnUse" primitiveUnits="userSpaceOnUse"><feFlood></feFlood><feComposite in2="SourceAlpha" operator="in"></feComposite><feGaussianBlur stdDeviation="1"></feGaussianBlur><feOffset dx="0" dy="0" result="afterOffset"></feOffset><feFlood flood-color="#000000" flood-opacity="0.5"></feFlood><feComposite in2="afterOffset" operator="in"></feComposite><feMorphology operator="dilate" radius="0"></feMorphology><feComposite in2="SourceAlpha" operator="out"></feComposite></filter><path d="M411.37 92.79C422.48 95.31 430.64 103.78 430.64 113.84C430.64 113.84 430.64 113.84 430.64 113.84C430.64 125.88 418.91 135.66 404.46 135.66C397.87 135.66 345.32 135.66 338.75 135.66C324.28 135.66 312.55 125.88 312.55 113.84C312.55 113.84 312.55 113.84 312.55 113.84C312.55 103.33 321.48 94.56 333.34 92.48C334.4 81.1 343.3 72.2 354.12 72.2C356.49 72.2 358.78 72.63 360.91 73.43C365.97 65.79 374.23 60.82 383.58 60.82C398.95 60.82 411.42 74.29 411.42 90.91C411.42 91.55 411.41 92.18 411.37 92.79Z" id="d7NhMbMmKr" fill="white" fill-opacity="1" filter="url(#shadow11319686)"></path></g><use xlink:href="#f4vuqXec2" opacity="1" fill="#e4e2e0" fill-opacity="1"></use><g><use xlink:href="#f4vuqXec2" opacity="1" fill-opacity="0" stroke="#000000" stroke-width="1" stroke-opacity="0"></use></g></g><g><g><filter id="shadow6281831" x="305.55" y="53.82" width="132.09" height="88.84" filterUnits="userSpaceOnUse" primitiveUnits="userSpaceOnUse"><feFlood></feFlood><feComposite in2="SourceAlpha" operator="in"></feComposite><feGaussianBlur stdDeviation="1"></feGaussianBlur><feOffset dx="0" dy="0" result="afterOffset"></feOffset><feFlood flood-color="#000000" flood-opacity="0.5"></feFlood><feComposite in2="afterOffset" operator="in"></feComposite><feMorphology operator="dilate" radius="0"></feMorphology><feComposite in2="SourceAlpha" operator="out"></feComposite></filter><path d="M411.37 92.79C422.48 95.31 430.64 103.78 430.64 113.84C430.64 113.84 430.64 113.84 430.64 113.84C430.64 125.88 418.91 135.66 404.46 135.66C397.87 135.66 345.32 135.66 338.75 135.66C324.28 135.66 312.55 125.88 312.55 113.84C312.55 113.84 312.55 113.84 312.55 113.84C312.55 103.33 321.48 94.56 333.34 92.48C334.4 81.1 343.3 72.2 354.12 72.2C356.49 72.2 358.78 72.63 360.91 73.43C365.97 65.79 374.23 60.82 383.58 60.82C398.95 60.82 411.42 74.29 411.42 90.91C411.42 91.55 411.41 92.18 411.37 92.79Z" id="k1uP8jLLjL" fill="white" fill-opacity="1" filter="url(#shadow6281831)"></path></g><use xlink:href="#c3kEFoNNEK" opacity="1" fill="#000000" fill-opacity="0"></use><g><use xlink:href="#c3kEFoNNEK" opacity="1" fill-opacity="0" stroke="#000000" stroke-width="1" stroke-opacity="0"></use></g></g><g><g><filter id="shadow6982723" x="277.19" y="113.79" width="69.65" height="68.88" filterUnits="userSpaceOnUse" primitiveUnits="userSpaceOnUse"><feFlood></feFlood><feComposite in2="SourceAlpha" operator="in"></feComposite><feGaussianBlur stdDeviation="1"></feGaussianBlur><feOffset dx="0" dy="0" result="afterOffset"></feOffset><feFlood flood-color="#000000" flood-opacity="0.5"></feFlood><feComposite in2="afterOffset" operator="in"></feComposite><feMorphology operator="dilate" radius="0"></feMorphology><feComposite in2="SourceAlpha" operator="out"></feComposite></filter><path d="M284.19 148.22C284.19 133.08 296.66 120.79 312.01 120.79C327.37 120.79 339.84 133.08 339.84 148.22C339.84 163.37 327.37 175.67 312.01 175.67C296.66 175.67 284.19 163.37 284.19 148.22Z" id="e1JIpHQcaf" fill="white" fill-opacity="1" filter="url(#shadow6982723)"></path></g><use xlink:href="#c1nUp29I55" opacity="1" fill="#4ca81a" fill-opacity="1"></use><g><use xlink:href="#c1nUp29I55" opacity="1" fill-opacity="0" stroke="#000000" stroke-width="1" stroke-opacity="0"></use></g></g><g><g><filter id="shadow13336305" x="277.19" y="113.79" width="69.65" height="68.88" filterUnits="userSpaceOnUse" primitiveUnits="userSpaceOnUse"><feFlood></feFlood><feComposite in2="SourceAlpha" operator="in"></feComposite><feGaussianBlur stdDeviation="1"></feGaussianBlur><feOffset dx="0" dy="0" result="afterOffset"></feOffset><feFlood flood-color="#000000" flood-opacity="0.5"></feFlood><feComposite in2="afterOffset" operator="in"></feComposite><feMorphology operator="dilate" radius="0"></feMorphology><feComposite in2="SourceAlpha" operator="out"></feComposite></filter><path d="M284.19 148.22C284.19 133.08 296.66 120.79 312.01 120.79C327.37 120.79 339.84 133.08 339.84 148.22C339.84 163.37 327.37 175.67 312.01 175.67C296.66 175.67 284.19 163.37 284.19 148.22Z" id="cwUmc5xGI" fill="white" fill-opacity="1" filter="url(#shadow13336305)"></path></g><use xlink:href="#c10VIIIPUJ" opacity="1" fill="#000000" fill-opacity="0"></use><g><use xlink:href="#c10VIIIPUJ" opacity="1" fill-opacity="0" stroke="#000000" stroke-width="1" stroke-opacity="0"></use></g></g><g><g><filter id="shadow7172683" x="239.98" y="86.35" width="69.65" height="68.88" filterUnits="userSpaceOnUse" primitiveUnits="userSpaceOnUse"><feFlood></feFlood><feComposite in2="SourceAlpha" operator="in"></feComposite><feGaussianBlur stdDeviation="1"></feGaussianBlur><feOffset dx="0" dy="0" result="afterOffset"></feOffset><feFlood flood-color="#000000" flood-opacity="0.5"></feFlood><feComposite in2="afterOffset" operator="in"></feComposite><feMorphology operator="dilate" radius="0"></feMorphology><feComposite in2="SourceAlpha" operator="out"></feComposite></filter><path d="M246.98 120.79C246.98 105.65 259.45 93.35 274.81 93.35C290.17 93.35 302.63 105.65 302.63 120.79C302.63 135.94 290.17 148.22 274.81 148.22C259.45 148.22 246.98 135.94 246.98 120.79Z" id="aoJrBlwkr" fill="white" fill-opacity="1" filter="url(#shadow7172683)"></path></g><use xlink:href="#a6YklLVth" opacity="1" fill="#4ca81a" fill-opacity="1"></use><g><use xlink:href="#a6YklLVth" opacity="1" fill-opacity="0" stroke="#000000" stroke-width="1" stroke-opacity="0"></use></g></g><g><g><filter id="shadow15298720" x="239.98" y="86.35" width="69.65" height="68.88" filterUnits="userSpaceOnUse" primitiveUnits="userSpaceOnUse"><feFlood></feFlood><feComposite in2="SourceAlpha" operator="in"></feComposite><feGaussianBlur stdDeviation="1"></feGaussianBlur><feOffset dx="0" dy="0" result="afterOffset"></feOffset><feFlood flood-color="#000000" flood-opacity="0.5"></feFlood><feComposite in2="afterOffset" operator="in"></feComposite><feMorphology operator="dilate" radius="0"></feMorphology><feComposite in2="SourceAlpha" operator="out"></feComposite></filter><path d="M246.98 120.79C246.98 105.65 259.45 93.35 274.81 93.35C290.17 93.35 302.63 105.65 302.63 120.79C302.63 135.94 290.17 148.22 274.81 148.22C259.45 148.22 246.98 135.94 246.98 120.79Z" id="c2Qw4LwXlv" fill="white" fill-opacity="1" filter="url(#shadow15298720)"></path></g><use xlink:href="#akTRZB6V1" opacity="1" fill="#000000" fill-opacity="0"></use><g><use xlink:href="#akTRZB6V1" opacity="1" fill-opacity="0" stroke="#000000" stroke-width="1" stroke-opacity="0"></use></g></g><g><g><filter id="shadow6773821" x="239.98" y="132.69" width="69.65" height="68.89" filterUnits="userSpaceOnUse" primitiveUnits="userSpaceOnUse"><feFlood></feFlood><feComposite in2="SourceAlpha" operator="in"></feComposite><feGaussianBlur stdDeviation="1"></feGaussianBlur><feOffset dx="0" dy="0" result="afterOffset"></feOffset><feFlood flood-color="#000000" flood-opacity="0.5"></feFlood><feComposite in2="afterOffset" operator="in"></feComposite><feMorphology operator="dilate" radius="0"></feMorphology><feComposite in2="SourceAlpha" operator="out"></feComposite></filter><path d="M246.98 167.13C246.98 151.99 259.45 139.69 274.81 139.69C290.17 139.69 302.63 151.99 302.63 167.13C302.63 182.28 290.17 194.58 274.81 194.58C259.45 194.58 246.98 182.28 246.98 167.13Z" id="c1aloJvZQj" fill="white" fill-opacity="1" filter="url(#shadow6773821)"></path></g><use xlink:href="#a1o3e3BY8" opacity="1" fill="#4ca81a" fill-opacity="1"></use><g><use xlink:href="#a1o3e3BY8" opacity="1" fill-opacity="0" stroke="#000000" stroke-width="1" stroke-opacity="0"></use></g></g><g><g><filter id="shadow14555132" x="239.98" y="132.69" width="69.65" height="68.89" filterUnits="userSpaceOnUse" primitiveUnits="userSpaceOnUse"><feFlood></feFlood><feComposite in2="SourceAlpha" operator="in"></feComposite><feGaussianBlur stdDeviation="1"></feGaussianBlur><feOffset dx="0" dy="0" result="afterOffset"></feOffset><feFlood flood-color="#000000" flood-opacity="0.5"></feFlood><feComposite in2="afterOffset" operator="in"></feComposite><feMorphology operator="dilate" radius="0"></feMorphology><feComposite in2="SourceAlpha" operator="out"></feComposite></filter><path d="M246.98 167.13C246.98 151.99 259.45 139.69 274.81 139.69C290.17 139.69 302.63 151.99 302.63 167.13C302.63 182.28 290.17 194.58 274.81 194.58C259.45 194.58 246.98 182.28 246.98 167.13Z" id="aOv2HxtTv" fill="white" fill-opacity="1" filter="url(#shadow14555132)"></path></g><use xlink:href="#aJXQ0waSA" opacity="1" fill="#000000" fill-opacity="0"></use><g><use xlink:href="#aJXQ0waSA" opacity="1" fill-opacity="0" stroke="#000000" stroke-width="1" stroke-opacity="0"></use></g></g><g><g><filter id="shadow7938290" x="305.55" y="268.61" width="96.16" height="48.23" filterUnits="userSpaceOnUse" primitiveUnits="userSpaceOnUse"><feFlood></feFlood><feComposite in2="SourceAlpha" operator="in"></feComposite><feGaussianBlur stdDeviation="1"></feGaussianBlur><feOffset dx="0" dy="0" result="afterOffset"></feOffset><feFlood flood-color="#000000" flood-opacity="0.5"></feFlood><feComposite in2="afterOffset" operator="in"></feComposite><feMorphology operator="dilate" radius="0"></feMorphology><feComposite in2="SourceAlpha" operator="out"></feComposite></filter><path d="M393.45 275.71L393.59 275.77L393.72 275.84L393.86 275.92L393.98 276.01L394.1 276.11L394.2 276.21L394.31 276.33L394.39 276.45L394.47 276.58L394.55 276.72L394.6 276.88L394.64 277.02L394.68 277.17L394.7 277.33L394.71 277.49L394.71 289.66L394.71 289.67L394.71 289.7L394.71 307.95L394.7 308.13L394.68 308.28L394.64 308.43L394.6 308.59L394.55 308.72L394.47 308.86L394.39 308.99L394.31 309.12L394.2 309.24L394.1 309.34L393.99 309.44L393.86 309.52L393.72 309.61L393.59 309.68L393.45 309.73L393.3 309.77L393.14 309.81L392.98 309.83L392.82 309.84L390.55 309.84L390.37 309.83L390.23 309.81L390.07 309.77L389.92 309.73L389.78 309.68L389.63 309.61L389.51 309.52L389.38 309.44L389.27 309.35L389.15 309.24L389.06 309.12L388.96 308.99L388.88 308.86L388.82 308.72L388.76 308.59L388.71 308.43L388.68 308.28L388.66 308.13L388.66 307.95L388.66 292.73L319.04 292.73L318.91 292.73L318.79 292.71L318.66 292.7L318.6 292.69L318.6 307.95L318.6 308.13L318.58 308.28L318.54 308.43L318.51 308.59L318.44 308.72L318.38 308.86L318.3 308.99L318.21 309.12L318.1 309.24L318.01 309.34L317.89 309.44L317.75 309.52L317.62 309.61L317.49 309.68L317.34 309.73L317.19 309.77L317.05 309.81L316.89 309.83L316.73 309.84L314.44 309.84L314.28 309.83L314.12 309.81L313.98 309.77L313.82 309.73L313.67 309.68L313.54 309.61L313.4 309.52L313.29 309.44L313.17 309.35L313.06 309.24L312.95 309.12L312.87 308.99L312.79 308.86L312.73 308.72L312.67 308.59L312.62 308.43L312.58 308.28L312.57 308.13L312.55 307.95L312.55 277.49L312.57 277.33L312.58 277.17L312.62 277.02L312.66 276.88L312.73 276.72L312.78 276.58L312.87 276.45L312.95 276.33L313.06 276.21L313.17 276.11L313.29 276.01L313.4 275.92L313.54 275.84L313.67 275.77L313.82 275.72L313.98 275.67L314.12 275.63L314.28 275.61L314.44 275.61L316.73 275.61L316.88 275.61L317.05 275.63L317.19 275.67L317.34 275.71L317.49 275.77L317.62 275.84L317.75 275.92L317.89 276.01L318.01 276.11L318.1 276.21L318.21 276.33L318.3 276.45L318.38 276.58L318.44 276.72L318.5 276.88L318.54 277.02L318.58 277.17L318.6 277.33L318.6 277.49L318.6 286.66L318.66 286.65L318.79 286.64L318.91 286.62L319.04 286.62L388.66 286.62L388.66 277.49L388.66 277.33L388.68 277.17L388.71 277.02L388.76 276.88L388.82 276.72L388.88 276.58L388.96 276.45L389.06 276.33L389.15 276.21L389.27 276.11L389.38 276.01L389.5 275.92L389.63 275.84L389.78 275.77L389.92 275.72L390.07 275.67L390.23 275.63L390.37 275.61L390.55 275.61L392.82 275.61L392.98 275.61L393.14 275.63L393.3 275.67L393.45 275.71Z" id="e1fHd5074" fill="white" fill-opacity="1" filter="url(#shadow7938290)"></path></g><use xlink:href="#bQFX1STbC" opacity="1" fill="#ba6e40" fill-opacity="1"></use><g><use xlink:href="#bQFX1STbC" opacity="1" fill-opacity="0" stroke="#000000" stroke-width="1" stroke-opacity="0"></use></g></g><g><g><filter id="shadow4226998" x="305.55" y="268.61" width="96.16" height="48.23" filterUnits="userSpaceOnUse" primitiveUnits="userSpaceOnUse"><feFlood></feFlood><feComposite in2="SourceAlpha" operator="in"></feComposite><feGaussianBlur stdDeviation="1"></feGaussianBlur><feOffset dx="0" dy="0" result="afterOffset"></feOffset><feFlood flood-color="#000000" flood-opacity="0.5"></feFlood><feComposite in2="afterOffset" operator="in"></feComposite><feMorphology operator="dilate" radius="0"></feMorphology><feComposite in2="SourceAlpha" operator="out"></feComposite></filter><path d="M393.45 275.71L393.59 275.77L393.72 275.84L393.86 275.92L393.98 276.01L394.1 276.11L394.2 276.21L394.31 276.33L394.39 276.45L394.47 276.58L394.55 276.72L394.6 276.88L394.64 277.02L394.68 277.17L394.7 277.33L394.71 277.49L394.71 289.66L394.71 289.67L394.71 289.7L394.71 307.95L394.7 308.13L394.68 308.28L394.64 308.43L394.6 308.59L394.55 308.72L394.47 308.86L394.39 308.99L394.31 309.12L394.2 309.24L394.1 309.34L393.99 309.44L393.86 309.52L393.72 309.61L393.59 309.68L393.45 309.73L393.3 309.77L393.14 309.81L392.98 309.83L392.82 309.84L390.55 309.84L390.37 309.83L390.23 309.81L390.07 309.77L389.92 309.73L389.78 309.68L389.63 309.61L389.51 309.52L389.38 309.44L389.27 309.35L389.15 309.24L389.06 309.12L388.96 308.99L388.88 308.86L388.82 308.72L388.76 308.59L388.71 308.43L388.68 308.28L388.66 308.13L388.66 307.95L388.66 292.73L319.04 292.73L318.91 292.73L318.79 292.71L318.66 292.7L318.6 292.69L318.6 307.95L318.6 308.13L318.58 308.28L318.54 308.43L318.51 308.59L318.44 308.72L318.38 308.86L318.3 308.99L318.21 309.12L318.1 309.24L318.01 309.34L317.89 309.44L317.75 309.52L317.62 309.61L317.49 309.68L317.34 309.73L317.19 309.77L317.05 309.81L316.89 309.83L316.73 309.84L314.44 309.84L314.28 309.83L314.12 309.81L313.98 309.77L313.82 309.73L313.67 309.68L313.54 309.61L313.4 309.52L313.29 309.44L313.17 309.35L313.06 309.24L312.95 309.12L312.87 308.99L312.79 308.86L312.73 308.72L312.67 308.59L312.62 308.43L312.58 308.28L312.57 308.13L312.55 307.95L312.55 277.49L312.57 277.33L312.58 277.17L312.62 277.02L312.66 276.88L312.73 276.72L312.78 276.58L312.87 276.45L312.95 276.33L313.06 276.21L313.17 276.11L313.29 276.01L313.4 275.92L313.54 275.84L313.67 275.77L313.82 275.72L313.98 275.67L314.12 275.63L314.28 275.61L314.44 275.61L316.73 275.61L316.88 275.61L317.05 275.63L317.19 275.67L317.34 275.71L317.49 275.77L317.62 275.84L317.75 275.92L317.89 276.01L318.01 276.11L318.1 276.21L318.21 276.33L318.3 276.45L318.38 276.58L318.44 276.72L318.5 276.88L318.54 277.02L318.58 277.17L318.6 277.33L318.6 277.49L318.6 286.66L318.66 286.65L318.79 286.64L318.91 286.62L319.04 286.62L388.66 286.62L388.66 277.49L388.66 277.33L388.68 277.17L388.71 277.02L388.76 276.88L388.82 276.72L388.88 276.58L388.96 276.45L389.06 276.33L389.15 276.21L389.27 276.11L389.38 276.01L389.5 275.92L389.63 275.84L389.78 275.77L389.92 275.72L390.07 275.67L390.23 275.63L390.37 275.61L390.55 275.61L392.82 275.61L392.98 275.61L393.14 275.63L393.3 275.67L393.45 275.71Z" id="a1CMnGRPqL" fill="white" fill-opacity="1" filter="url(#shadow4226998)"></path></g><use xlink:href="#aMcvpC1xE" opacity="1" fill="#000000" fill-opacity="0"></use><g><use xlink:href="#aMcvpC1xE" opacity="1" fill-opacity="0" stroke="#000000" stroke-width="1" stroke-opacity="0"></use></g></g></g></g></svg>