<?xml version="1.0" encoding="UTF-8" standalone="no"?>
<!DOCTYPE svg PUBLIC "-//W3C//DTD SVG 1.1//EN" "http://www.w3.org/Graphics/SVG/1.1/DTD/svg11.dtd">
<svg version="1.1" xmlns="http://www.w3.org/2000/svg" xmlns:xlink="http://www.w3.org/1999/xlink" preserveAspectRatio="xMidYMid meet" viewBox="0 0 148 188" width="148" height="188"><defs><path d="M126.59 116.68C126.59 149.79 99.7 176.68 66.59 176.68C33.47 176.68 6.59 149.79 6.59 116.68C6.59 83.56 33.47 56.68 66.59 56.68C99.7 56.68 126.59 83.56 126.59 116.68Z" id="bJbuFfizm"></path><path d="M128.88 121.6L128.63 124.12L128.27 126.61L127.82 129.07L127.27 131.49L126.63 133.88L125.9 136.22L125.08 138.53L124.17 140.8L123.18 143.02L122.11 145.19L120.95 147.31L119.72 149.39L118.41 151.41L117.02 153.38L115.57 155.29L114.04 157.14L112.44 158.93L110.77 160.66L109.05 162.33L107.25 163.92L105.4 165.45L103.49 166.91L101.52 168.3L99.5 169.61L97.43 170.84L95.3 172L93.13 173.07L90.91 174.06L88.64 174.97L86.34 175.79L83.99 176.52L81.6 177.16L79.18 177.71L76.72 178.16L74.23 178.51L71.71 178.77L69.16 178.93L66.59 178.98L64.01 178.93L61.47 178.77L58.95 178.51L56.46 178.16L54 177.71L51.58 177.16L49.19 176.52L46.84 175.79L44.54 174.97L42.27 174.06L40.05 173.07L37.88 172L35.75 170.84L33.68 169.61L31.66 168.3L29.69 166.91L27.78 165.45L25.92 163.92L24.13 162.33L22.4 160.66L20.74 158.93L19.14 157.14L17.61 155.29L16.15 153.38L14.77 151.41L13.46 149.39L12.22 147.31L11.07 145.19L10 143.02L9 140.8L8.1 138.53L7.28 136.22L6.55 133.88L5.91 131.49L5.36 129.07L4.91 126.61L4.55 124.12L4.3 121.6L4.14 119.05L4.09 116.68L4.85 116.77L7.66 117.1L10.56 117.41L13.55 117.71L16.62 117.99L19.77 118.26L22.99 118.51L26.29 118.74L29.67 118.95L33.1 119.14L36.61 119.32L40.17 119.48L43.8 119.62L47.47 119.73L51.2 119.83L54.98 119.91L58.81 119.96L62.68 120L66.59 120.01L70.5 120L74.37 119.96L78.19 119.91L81.97 119.83L85.7 119.73L89.38 119.62L93.01 119.48L96.57 119.32L100.07 119.14L103.51 118.95L106.88 118.74L110.18 118.51L113.41 118.26L116.56 117.99L119.63 117.71L122.62 117.41L125.52 117.1L128.33 116.77L129.09 116.68L129.04 119.05L128.88 121.6Z" id="bBpOp3M6a"></path><path d="M43.69 96.81C51.16 109.81 51.82 123.48 45.17 127.3C38.51 131.13 27.04 123.67 19.57 110.67C12.09 97.66 11.43 84 18.09 80.17C24.75 76.35 36.22 83.8 43.69 96.81Z" id="d2lQmIMytc"></path><path d="M134.03 87.99C144.1 99.11 147.65 112.32 141.96 117.48C136.27 122.63 123.48 117.79 113.41 106.67C103.34 95.55 99.79 82.34 105.48 77.19C111.17 72.04 123.96 76.88 134.03 87.99Z" id="b5UjGB4HI"></path><path d="M23.35 160.97C23.35 173.62 31.34 183.89 41.17 183.89C51.01 183.89 59 173.62 59 160.97C59 148.31 51.01 138.04 41.17 138.04C31.34 138.04 23.35 148.31 23.35 160.97Z" id="c46Y3bgPGZ"></path><path d="M22.1 163.77C22.1 171.54 27.5 177.85 34.14 177.85C40.79 177.85 46.18 171.54 46.18 163.77C46.18 156 40.79 149.69 34.14 149.69C27.5 149.69 22.1 156 22.1 163.77Z" id="c1pc4LZleG"></path><path d="M34.21 146.41C34.21 150.57 36.63 153.94 39.61 153.94C42.6 153.94 45.02 150.57 45.02 146.41C45.02 142.25 42.6 138.87 39.61 138.87C36.63 138.87 34.21 142.25 34.21 146.41Z" id="f1XEi3Z1WZ"></path><path d="M25.44 148.79C25.44 151.63 27.41 153.94 29.83 153.94C32.25 153.94 34.21 151.63 34.21 148.79C34.21 145.94 32.25 143.63 29.83 143.63C27.41 143.63 25.44 145.94 25.44 148.79Z" id="a2FAnQB0Fg"></path><path d="M19.52 157.28C19.52 160.12 21.48 162.43 23.9 162.43C26.32 162.43 28.29 160.12 28.29 157.28C28.29 154.43 26.32 152.12 23.9 152.12C21.48 152.12 19.52 154.43 19.52 157.28Z" id="b37RIweYPU"></path><path d="M17.52 165.18C17.52 167.46 18.95 169.32 20.71 169.32C22.47 169.32 23.9 167.46 23.9 165.18C23.9 162.9 22.47 161.04 20.71 161.04C18.95 161.04 17.52 162.9 17.52 165.18Z" id="a4xwLuNnGi"></path><path d="M114.51 160.97C114.51 173.62 106.53 183.89 96.69 183.89C86.85 183.89 78.87 173.62 78.87 160.97C78.87 148.31 86.85 138.04 96.69 138.04C106.53 138.04 114.51 148.31 114.51 160.97Z" id="gcGJWAuwO"></path><path d="M113.96 166.2C113.96 173.97 108.57 180.28 101.92 180.28C95.28 180.28 89.88 173.97 89.88 166.2C89.88 158.43 95.28 152.12 101.92 152.12C108.57 152.12 113.96 158.43 113.96 166.2Z" id="b35zpPD21L"></path><path d="M101.85 148.84C101.85 153 99.43 156.38 96.45 156.38C93.47 156.38 91.05 153 91.05 148.84C91.05 144.68 93.47 141.3 96.45 141.3C99.43 141.3 101.85 144.68 101.85 148.84Z" id="ieNOGmQ1p"></path><path d="M110.62 151.22C110.62 154.07 108.66 156.38 106.24 156.38C103.82 156.38 101.85 154.07 101.85 151.22C101.85 148.37 103.82 146.06 106.24 146.06C108.66 146.06 110.62 148.37 110.62 151.22Z" id="b4b1LqvY0"></path><path d="M118.35 157.28C118.35 160.12 116.38 162.43 113.96 162.43C111.54 162.43 109.58 160.12 109.58 157.28C109.58 154.43 111.54 152.12 113.96 152.12C116.38 152.12 118.35 154.43 118.35 157.28Z" id="b6Iss4Urk"></path><path d="M120.35 165.18C120.35 167.46 118.92 169.32 117.15 169.32C115.39 169.32 113.96 167.46 113.96 165.18C113.96 162.9 115.39 161.04 117.15 161.04C118.92 161.04 120.35 162.9 120.35 165.18Z" id="at0q5YCTw"></path><path d="M120.5 50C120.5 76.12 96.68 97.33 67.33 97.33C37.99 97.33 14.17 76.12 14.17 50C14.17 23.88 37.99 2.67 67.33 2.67C96.68 2.67 120.5 23.88 120.5 50Z" id="b1qBg3hdz1"></path><path d="M87.98 82.39C87.98 93.43 79.02 102.39 67.98 102.39C56.95 102.39 47.98 93.43 47.98 82.39C47.98 71.35 56.95 62.39 67.98 62.39C79.02 62.39 87.98 71.35 87.98 82.39Z" id="aDuJdSQkW"></path><path d="M79.98 82.39C79.98 89.01 74.61 94.39 67.98 94.39C61.36 94.39 55.98 89.01 55.98 82.39C55.98 75.77 61.36 70.39 67.98 70.39C74.61 70.39 79.98 75.77 79.98 82.39Z" id="b422dXFdfD"></path><path d="M55.2 30.55L56.34 30.87L57.42 31.3L58.45 31.85L59.42 32.5L60.32 33.25L61.16 34.1L61.93 35.03L62.63 36.04L63.25 37.12L63.8 38.27L64.26 39.49L64.64 40.76L64.94 42.08L65.15 43.44L65.26 44.85L65.28 46.28L65.21 47.74L65.03 49.22L64.75 50.72L64.37 52.19L63.91 53.61L63.36 54.96L62.73 56.25L62.03 57.47L61.27 58.62L60.44 59.69L59.55 60.68L58.62 61.59L57.65 62.39L56.55 61.78L55.14 61.08L53.66 60.44L52.1 59.86L50.48 59.34L48.83 58.9L47.21 58.55L45.61 58.29L44.05 58.12L42.54 58.03L41.08 58.02L39.69 58.1L39.4 58.13L38.97 57.22L38.5 56L38.12 54.73L37.82 53.41L37.62 52.04L37.5 50.64L37.48 49.21L37.56 47.75L37.73 46.27L38.01 44.77L38.39 43.3L38.86 41.88L39.41 40.53L40.03 39.24L40.73 38.02L41.5 36.87L42.32 35.8L43.21 34.81L44.14 33.9L45.13 33.09L46.15 32.37L47.21 31.75L48.3 31.24L49.42 30.83L50.55 30.53L51.7 30.35L52.87 30.29L54.03 30.35L55.2 30.55Z" id="a1TussLXNJ"></path><path d="M64.22 47.16C64.22 49.6 62.23 51.59 59.79 51.59C57.35 51.59 55.37 49.6 55.37 47.16C55.37 44.72 57.35 42.73 59.79 42.73C62.23 42.73 64.22 44.72 64.22 47.16Z" id="b2HYMlnGS8"></path><path d="M85.22 30.83L86.33 31.24L87.42 31.75L88.48 32.37L89.51 33.09L90.49 33.9L91.43 34.81L92.31 35.8L93.14 36.87L93.9 38.02L94.6 39.24L95.23 40.53L95.78 41.88L96.24 43.3L96.62 44.77L96.9 46.27L97.08 47.75L97.16 49.21L97.13 50.64L97.02 52.04L96.81 53.41L96.52 54.73L96.13 56L95.67 57.22L95.23 58.13L94.95 58.1L93.55 58.02L92.09 58.03L90.58 58.12L89.02 58.29L87.43 58.55L85.8 58.9L84.16 59.34L82.53 59.86L80.98 60.44L79.49 61.08L78.08 61.78L76.99 62.39L76.02 61.59L75.08 60.68L74.2 59.69L73.37 58.62L72.6 57.47L71.9 56.25L71.28 54.96L70.73 53.6L70.26 52.19L69.88 50.72L69.6 49.22L69.43 47.74L69.35 46.28L69.37 44.85L69.49 43.44L69.69 42.08L69.99 40.76L70.37 39.49L70.84 38.27L71.38 37.12L72.01 36.03L72.71 35.02L73.47 34.1L74.31 33.25L75.22 32.5L76.18 31.85L77.21 31.3L78.3 30.87L79.43 30.55L80.6 30.35L81.77 30.29L82.93 30.35L84.08 30.53L84.08 30.53L85.22 30.83Z" id="a232sbHhZ"></path><path d="M82.2 46.34C82.2 48.78 84.18 50.77 86.62 50.77C89.06 50.77 91.05 48.78 91.05 46.34C91.05 43.9 89.06 41.91 86.62 41.91C84.18 41.91 82.2 43.9 82.2 46.34Z" id="bNJLAjRDn"></path><path d="M72.01 77.46C73.97 77.46 75.56 78.79 75.56 80.44C75.56 85 68.46 87.26 68.46 87.38C68.46 87.38 68.46 87.38 68.46 87.38C68.46 87.26 61.36 85 61.36 80.44C61.36 78.79 62.95 77.46 64.91 77.46C66.87 77.46 68.46 78.63 68.46 80.27C68.46 78.63 70.05 77.46 72.01 77.46Z" id="dlqEBu7Qd"></path></defs><g><g><g><g><filter id="shadow13438961" x="-0.41" y="49.68" width="134" height="134" filterUnits="userSpaceOnUse" primitiveUnits="userSpaceOnUse"><feFlood></feFlood><feComposite in2="SourceAlpha" operator="in"></feComposite><feGaussianBlur stdDeviation="1"></feGaussianBlur><feOffset dx="0" dy="0" result="afterOffset"></feOffset><feFlood flood-color="#000000" flood-opacity="0.5"></feFlood><feComposite in2="afterOffset" operator="in"></feComposite><feMorphology operator="dilate" radius="0"></feMorphology><feComposite in2="SourceAlpha" operator="out"></feComposite></filter><path d="M126.59 116.68C126.59 149.79 99.7 176.68 66.59 176.68C33.47 176.68 6.59 149.79 6.59 116.68C6.59 83.56 33.47 56.68 66.59 56.68C99.7 56.68 126.59 83.56 126.59 116.68Z" id="dd7kLzpHJ" fill="white" fill-opacity="1" filter="url(#shadow13438961)"></path></g><use xlink:href="#bJbuFfizm" opacity="1" fill="#ffd7d7" fill-opacity="1"></use></g><g><g><filter id="shadow510304" x="-2.91" y="109.68" width="138.99" height="76.3" filterUnits="userSpaceOnUse" primitiveUnits="userSpaceOnUse"><feFlood></feFlood><feComposite in2="SourceAlpha" operator="in"></feComposite><feGaussianBlur stdDeviation="1"></feGaussianBlur><feOffset dx="0" dy="0" result="afterOffset"></feOffset><feFlood flood-color="#000000" flood-opacity="0.5"></feFlood><feComposite in2="afterOffset" operator="in"></feComposite><feMorphology operator="dilate" radius="0"></feMorphology><feComposite in2="SourceAlpha" operator="out"></feComposite></filter><path d="M128.88 121.6L128.63 124.12L128.27 126.61L127.82 129.07L127.27 131.49L126.63 133.88L125.9 136.22L125.08 138.53L124.17 140.8L123.18 143.02L122.11 145.19L120.95 147.31L119.72 149.39L118.41 151.41L117.02 153.38L115.57 155.29L114.04 157.14L112.44 158.93L110.77 160.66L109.05 162.33L107.25 163.92L105.4 165.45L103.49 166.91L101.52 168.3L99.5 169.61L97.43 170.84L95.3 172L93.13 173.07L90.91 174.06L88.64 174.97L86.34 175.79L83.99 176.52L81.6 177.16L79.18 177.71L76.72 178.16L74.23 178.51L71.71 178.77L69.16 178.93L66.59 178.98L64.01 178.93L61.47 178.77L58.95 178.51L56.46 178.16L54 177.71L51.58 177.16L49.19 176.52L46.84 175.79L44.54 174.97L42.27 174.06L40.05 173.07L37.88 172L35.75 170.84L33.68 169.61L31.66 168.3L29.69 166.91L27.78 165.45L25.92 163.92L24.13 162.33L22.4 160.66L20.74 158.93L19.14 157.14L17.61 155.29L16.15 153.38L14.77 151.41L13.46 149.39L12.22 147.31L11.07 145.19L10 143.02L9 140.8L8.1 138.53L7.28 136.22L6.55 133.88L5.91 131.49L5.36 129.07L4.91 126.61L4.55 124.12L4.3 121.6L4.14 119.05L4.09 116.68L4.85 116.77L7.66 117.1L10.56 117.41L13.55 117.71L16.62 117.99L19.77 118.26L22.99 118.51L26.29 118.74L29.67 118.95L33.1 119.14L36.61 119.32L40.17 119.48L43.8 119.62L47.47 119.73L51.2 119.83L54.98 119.91L58.81 119.96L62.68 120L66.59 120.01L70.5 120L74.37 119.96L78.19 119.91L81.97 119.83L85.7 119.73L89.38 119.62L93.01 119.48L96.57 119.32L100.07 119.14L103.51 118.95L106.88 118.74L110.18 118.51L113.41 118.26L116.56 117.99L119.63 117.71L122.62 117.41L125.52 117.1L128.33 116.77L129.09 116.68L129.04 119.05L128.88 121.6Z" id="gnGayItGP" fill="white" fill-opacity="1" filter="url(#shadow510304)"></path></g><use xlink:href="#bBpOp3M6a" opacity="1" fill="#f8f8f8" fill-opacity="1"></use></g><g><g><filter id="shadow9188611" x="6.5" y="72.17" width="50.26" height="63.13" filterUnits="userSpaceOnUse" primitiveUnits="userSpaceOnUse"><feFlood></feFlood><feComposite in2="SourceAlpha" operator="in"></feComposite><feGaussianBlur stdDeviation="1"></feGaussianBlur><feOffset dx="0" dy="0" result="afterOffset"></feOffset><feFlood flood-color="#000000" flood-opacity="0.5"></feFlood><feComposite in2="afterOffset" operator="in"></feComposite><feMorphology operator="dilate" radius="0"></feMorphology><feComposite in2="SourceAlpha" operator="out"></feComposite></filter><path d="M43.69 96.81C51.16 109.81 51.82 123.48 45.17 127.3C38.51 131.13 27.04 123.67 19.57 110.67C12.09 97.66 11.43 84 18.09 80.17C24.75 76.35 36.22 83.8 43.69 96.81Z" id="bqMnRJCw8" fill="white" fill-opacity="1" filter="url(#shadow9188611)"></path></g><use xlink:href="#d2lQmIMytc" opacity="1" fill="#ffd7d7" fill-opacity="1"></use></g><g><g><filter id="shadow13365872" x="95.76" y="68.13" width="55.91" height="58.41" filterUnits="userSpaceOnUse" primitiveUnits="userSpaceOnUse"><feFlood></feFlood><feComposite in2="SourceAlpha" operator="in"></feComposite><feGaussianBlur stdDeviation="1"></feGaussianBlur><feOffset dx="0" dy="0" result="afterOffset"></feOffset><feFlood flood-color="#000000" flood-opacity="0.5"></feFlood><feComposite in2="afterOffset" operator="in"></feComposite><feMorphology operator="dilate" radius="0"></feMorphology><feComposite in2="SourceAlpha" operator="out"></feComposite></filter><path d="M134.03 87.99C144.1 99.11 147.65 112.32 141.96 117.48C136.27 122.63 123.48 117.79 113.41 106.67C103.34 95.55 99.79 82.34 105.48 77.19C111.17 72.04 123.96 76.88 134.03 87.99Z" id="bljQ327Vw" fill="white" fill-opacity="1" filter="url(#shadow13365872)"></path></g><use xlink:href="#b5UjGB4HI" opacity="1" fill="#ffd7d7" fill-opacity="1"></use></g><g><g><filter id="shadow13690745" x="16.35" y="131.04" width="49.65" height="59.85" filterUnits="userSpaceOnUse" primitiveUnits="userSpaceOnUse"><feFlood></feFlood><feComposite in2="SourceAlpha" operator="in"></feComposite><feGaussianBlur stdDeviation="1"></feGaussianBlur><feOffset dx="0" dy="0" result="afterOffset"></feOffset><feFlood flood-color="#000000" flood-opacity="0.5"></feFlood><feComposite in2="afterOffset" operator="in"></feComposite><feMorphology operator="dilate" radius="0"></feMorphology><feComposite in2="SourceAlpha" operator="out"></feComposite></filter><path d="M23.35 160.97C23.35 173.62 31.34 183.89 41.17 183.89C51.01 183.89 59 173.62 59 160.97C59 148.31 51.01 138.04 41.17 138.04C31.34 138.04 23.35 148.31 23.35 160.97Z" id="akbEM46Ge" fill="white" fill-opacity="1" filter="url(#shadow13690745)"></path></g><use xlink:href="#c46Y3bgPGZ" opacity="1" fill="#ffd7d7" fill-opacity="1"></use></g><g><g><filter id="shadow8126749" x="15.1" y="142.69" width="38.08" height="42.16" filterUnits="userSpaceOnUse" primitiveUnits="userSpaceOnUse"><feFlood></feFlood><feComposite in2="SourceAlpha" operator="in"></feComposite><feGaussianBlur stdDeviation="1"></feGaussianBlur><feOffset dx="0" dy="0" result="afterOffset"></feOffset><feFlood flood-color="#000000" flood-opacity="0.5"></feFlood><feComposite in2="afterOffset" operator="in"></feComposite><feMorphology operator="dilate" radius="0"></feMorphology><feComposite in2="SourceAlpha" operator="out"></feComposite></filter><path d="M22.1 163.77C22.1 171.54 27.5 177.85 34.14 177.85C40.79 177.85 46.18 171.54 46.18 163.77C46.18 156 40.79 149.69 34.14 149.69C27.5 149.69 22.1 156 22.1 163.77Z" id="a8FDaTB13K" fill="white" fill-opacity="1" filter="url(#shadow8126749)"></path></g><use xlink:href="#c1pc4LZleG" opacity="1" fill="#ffd7d7" fill-opacity="1"></use></g><g><g><filter id="shadow13910907" x="27.21" y="131.87" width="24.81" height="29.07" filterUnits="userSpaceOnUse" primitiveUnits="userSpaceOnUse"><feFlood></feFlood><feComposite in2="SourceAlpha" operator="in"></feComposite><feGaussianBlur stdDeviation="1"></feGaussianBlur><feOffset dx="0" dy="0" result="afterOffset"></feOffset><feFlood flood-color="#000000" flood-opacity="0.5"></feFlood><feComposite in2="afterOffset" operator="in"></feComposite><feMorphology operator="dilate" radius="0"></feMorphology><feComposite in2="SourceAlpha" operator="out"></feComposite></filter><path d="M34.21 146.41C34.21 150.57 36.63 153.94 39.61 153.94C42.6 153.94 45.02 150.57 45.02 146.41C45.02 142.25 42.6 138.87 39.61 138.87C36.63 138.87 34.21 142.25 34.21 146.41Z" id="e3f4bLlV6T" fill="white" fill-opacity="1" filter="url(#shadow13910907)"></path></g><use xlink:href="#f1XEi3Z1WZ" opacity="1" fill="#ffd7d7" fill-opacity="1"></use></g><g><g><filter id="shadow2224770" x="18.44" y="136.63" width="22.77" height="24.31" filterUnits="userSpaceOnUse" primitiveUnits="userSpaceOnUse"><feFlood></feFlood><feComposite in2="SourceAlpha" operator="in"></feComposite><feGaussianBlur stdDeviation="1"></feGaussianBlur><feOffset dx="0" dy="0" result="afterOffset"></feOffset><feFlood flood-color="#000000" flood-opacity="0.5"></feFlood><feComposite in2="afterOffset" operator="in"></feComposite><feMorphology operator="dilate" radius="0"></feMorphology><feComposite in2="SourceAlpha" operator="out"></feComposite></filter><path d="M25.44 148.79C25.44 151.63 27.41 153.94 29.83 153.94C32.25 153.94 34.21 151.63 34.21 148.79C34.21 145.94 32.25 143.63 29.83 143.63C27.41 143.63 25.44 145.94 25.44 148.79Z" id="l6qVhKxqn5" fill="white" fill-opacity="1" filter="url(#shadow2224770)"></path></g><use xlink:href="#a2FAnQB0Fg" opacity="1" fill="#ffd7d7" fill-opacity="1"></use></g><g><g><filter id="shadow11876065" x="12.52" y="145.12" width="22.77" height="24.31" filterUnits="userSpaceOnUse" primitiveUnits="userSpaceOnUse"><feFlood></feFlood><feComposite in2="SourceAlpha" operator="in"></feComposite><feGaussianBlur stdDeviation="1"></feGaussianBlur><feOffset dx="0" dy="0" result="afterOffset"></feOffset><feFlood flood-color="#000000" flood-opacity="0.5"></feFlood><feComposite in2="afterOffset" operator="in"></feComposite><feMorphology operator="dilate" radius="0"></feMorphology><feComposite in2="SourceAlpha" operator="out"></feComposite></filter><path d="M19.52 157.28C19.52 160.12 21.48 162.43 23.9 162.43C26.32 162.43 28.29 160.12 28.29 157.28C28.29 154.43 26.32 152.12 23.9 152.12C21.48 152.12 19.52 154.43 19.52 157.28Z" id="d1H2RTK2aS" fill="white" fill-opacity="1" filter="url(#shadow11876065)"></path></g><use xlink:href="#b37RIweYPU" opacity="1" fill="#ffd7d7" fill-opacity="1"></use></g><g><g><filter id="shadow15399468" x="10.52" y="154.04" width="20.39" height="22.27" filterUnits="userSpaceOnUse" primitiveUnits="userSpaceOnUse"><feFlood></feFlood><feComposite in2="SourceAlpha" operator="in"></feComposite><feGaussianBlur stdDeviation="1"></feGaussianBlur><feOffset dx="0" dy="0" result="afterOffset"></feOffset><feFlood flood-color="#000000" flood-opacity="0.5"></feFlood><feComposite in2="afterOffset" operator="in"></feComposite><feMorphology operator="dilate" radius="0"></feMorphology><feComposite in2="SourceAlpha" operator="out"></feComposite></filter><path d="M17.52 165.18C17.52 167.46 18.95 169.32 20.71 169.32C22.47 169.32 23.9 167.46 23.9 165.18C23.9 162.9 22.47 161.04 20.71 161.04C18.95 161.04 17.52 162.9 17.52 165.18Z" id="bc7SDxtee" fill="white" fill-opacity="1" filter="url(#shadow15399468)"></path></g><use xlink:href="#a4xwLuNnGi" opacity="1" fill="#ffd7d7" fill-opacity="1"></use></g><g><g><filter id="shadow13689489" x="71.87" y="131.04" width="49.65" height="59.85" filterUnits="userSpaceOnUse" primitiveUnits="userSpaceOnUse"><feFlood></feFlood><feComposite in2="SourceAlpha" operator="in"></feComposite><feGaussianBlur stdDeviation="1"></feGaussianBlur><feOffset dx="0" dy="0" result="afterOffset"></feOffset><feFlood flood-color="#000000" flood-opacity="0.5"></feFlood><feComposite in2="afterOffset" operator="in"></feComposite><feMorphology operator="dilate" radius="0"></feMorphology><feComposite in2="SourceAlpha" operator="out"></feComposite></filter><path d="M114.51 160.97C114.51 173.62 106.53 183.89 96.69 183.89C86.85 183.89 78.87 173.62 78.87 160.97C78.87 148.31 86.85 138.04 96.69 138.04C106.53 138.04 114.51 148.31 114.51 160.97Z" id="e6jkW2IBtl" fill="white" fill-opacity="1" filter="url(#shadow13689489)"></path></g><use xlink:href="#gcGJWAuwO" opacity="1" fill="#ffd7d7" fill-opacity="1"></use></g><g><g><filter id="shadow15296595" x="82.88" y="145.12" width="38.08" height="42.16" filterUnits="userSpaceOnUse" primitiveUnits="userSpaceOnUse"><feFlood></feFlood><feComposite in2="SourceAlpha" operator="in"></feComposite><feGaussianBlur stdDeviation="1"></feGaussianBlur><feOffset dx="0" dy="0" result="afterOffset"></feOffset><feFlood flood-color="#000000" flood-opacity="0.5"></feFlood><feComposite in2="afterOffset" operator="in"></feComposite><feMorphology operator="dilate" radius="0"></feMorphology><feComposite in2="SourceAlpha" operator="out"></feComposite></filter><path d="M113.96 166.2C113.96 173.97 108.57 180.28 101.92 180.28C95.28 180.28 89.88 173.97 89.88 166.2C89.88 158.43 95.28 152.12 101.92 152.12C108.57 152.12 113.96 158.43 113.96 166.2Z" id="g3DdMcXT4" fill="white" fill-opacity="1" filter="url(#shadow15296595)"></path></g><use xlink:href="#b35zpPD21L" opacity="1" fill="#ffd7d7" fill-opacity="1"></use></g><g><g><filter id="shadow382989" x="84.05" y="134.3" width="24.81" height="29.07" filterUnits="userSpaceOnUse" primitiveUnits="userSpaceOnUse"><feFlood></feFlood><feComposite in2="SourceAlpha" operator="in"></feComposite><feGaussianBlur stdDeviation="1"></feGaussianBlur><feOffset dx="0" dy="0" result="afterOffset"></feOffset><feFlood flood-color="#000000" flood-opacity="0.5"></feFlood><feComposite in2="afterOffset" operator="in"></feComposite><feMorphology operator="dilate" radius="0"></feMorphology><feComposite in2="SourceAlpha" operator="out"></feComposite></filter><path d="M101.85 148.84C101.85 153 99.43 156.38 96.45 156.38C93.47 156.38 91.05 153 91.05 148.84C91.05 144.68 93.47 141.3 96.45 141.3C99.43 141.3 101.85 144.68 101.85 148.84Z" id="a1CTVkLXps" fill="white" fill-opacity="1" filter="url(#shadow382989)"></path></g><use xlink:href="#ieNOGmQ1p" opacity="1" fill="#ffd7d7" fill-opacity="1"></use></g><g><g><filter id="shadow12843840" x="94.85" y="139.06" width="22.77" height="24.31" filterUnits="userSpaceOnUse" primitiveUnits="userSpaceOnUse"><feFlood></feFlood><feComposite in2="SourceAlpha" operator="in"></feComposite><feGaussianBlur stdDeviation="1"></feGaussianBlur><feOffset dx="0" dy="0" result="afterOffset"></feOffset><feFlood flood-color="#000000" flood-opacity="0.5"></feFlood><feComposite in2="afterOffset" operator="in"></feComposite><feMorphology operator="dilate" radius="0"></feMorphology><feComposite in2="SourceAlpha" operator="out"></feComposite></filter><path d="M110.62 151.22C110.62 154.07 108.66 156.38 106.24 156.38C103.82 156.38 101.85 154.07 101.85 151.22C101.85 148.37 103.82 146.06 106.24 146.06C108.66 146.06 110.62 148.37 110.62 151.22Z" id="ga02IamGF6" fill="white" fill-opacity="1" filter="url(#shadow12843840)"></path></g><use xlink:href="#b4b1LqvY0" opacity="1" fill="#ffd7d7" fill-opacity="1"></use></g><g><g><filter id="shadow14635708" x="102.58" y="145.12" width="22.77" height="24.31" filterUnits="userSpaceOnUse" primitiveUnits="userSpaceOnUse"><feFlood></feFlood><feComposite in2="SourceAlpha" operator="in"></feComposite><feGaussianBlur stdDeviation="1"></feGaussianBlur><feOffset dx="0" dy="0" result="afterOffset"></feOffset><feFlood flood-color="#000000" flood-opacity="0.5"></feFlood><feComposite in2="afterOffset" operator="in"></feComposite><feMorphology operator="dilate" radius="0"></feMorphology><feComposite in2="SourceAlpha" operator="out"></feComposite></filter><path d="M118.35 157.28C118.35 160.12 116.38 162.43 113.96 162.43C111.54 162.43 109.58 160.12 109.58 157.28C109.58 154.43 111.54 152.12 113.96 152.12C116.38 152.12 118.35 154.43 118.35 157.28Z" id="hyDOszo3r" fill="white" fill-opacity="1" filter="url(#shadow14635708)"></path></g><use xlink:href="#b6Iss4Urk" opacity="1" fill="#ffd7d7" fill-opacity="1"></use></g><g><g><filter id="shadow11412640" x="106.96" y="154.04" width="20.39" height="22.27" filterUnits="userSpaceOnUse" primitiveUnits="userSpaceOnUse"><feFlood></feFlood><feComposite in2="SourceAlpha" operator="in"></feComposite><feGaussianBlur stdDeviation="1"></feGaussianBlur><feOffset dx="0" dy="0" result="afterOffset"></feOffset><feFlood flood-color="#000000" flood-opacity="0.5"></feFlood><feComposite in2="afterOffset" operator="in"></feComposite><feMorphology operator="dilate" radius="0"></feMorphology><feComposite in2="SourceAlpha" operator="out"></feComposite></filter><path d="M120.35 165.18C120.35 167.46 118.92 169.32 117.15 169.32C115.39 169.32 113.96 167.46 113.96 165.18C113.96 162.9 115.39 161.04 117.15 161.04C118.92 161.04 120.35 162.9 120.35 165.18Z" id="d2KtpekHCi" fill="white" fill-opacity="1" filter="url(#shadow11412640)"></path></g><use xlink:href="#at0q5YCTw" opacity="1" fill="#ffd7d7" fill-opacity="1"></use></g><g><g><filter id="shadow3684172" x="7.17" y="-4.33" width="120.33" height="108.67" filterUnits="userSpaceOnUse" primitiveUnits="userSpaceOnUse"><feFlood></feFlood><feComposite in2="SourceAlpha" operator="in"></feComposite><feGaussianBlur stdDeviation="1"></feGaussianBlur><feOffset dx="0" dy="0" result="afterOffset"></feOffset><feFlood flood-color="#000000" flood-opacity="0.5"></feFlood><feComposite in2="afterOffset" operator="in"></feComposite><feMorphology operator="dilate" radius="0"></feMorphology><feComposite in2="SourceAlpha" operator="out"></feComposite></filter><path d="M120.5 50C120.5 76.12 96.68 97.33 67.33 97.33C37.99 97.33 14.17 76.12 14.17 50C14.17 23.88 37.99 2.67 67.33 2.67C96.68 2.67 120.5 23.88 120.5 50Z" id="hd29DRqZC" fill="white" fill-opacity="1" filter="url(#shadow3684172)"></path></g><use xlink:href="#b1qBg3hdz1" opacity="1" fill="#ffd7d7" fill-opacity="1"></use></g><g><g><filter id="shadow14308047" x="40.98" y="55.39" width="54" height="54" filterUnits="userSpaceOnUse" primitiveUnits="userSpaceOnUse"><feFlood></feFlood><feComposite in2="SourceAlpha" operator="in"></feComposite><feGaussianBlur stdDeviation="1"></feGaussianBlur><feOffset dx="0" dy="0" result="afterOffset"></feOffset><feFlood flood-color="#000000" flood-opacity="0.5"></feFlood><feComposite in2="afterOffset" operator="in"></feComposite><feMorphology operator="dilate" radius="0"></feMorphology><feComposite in2="SourceAlpha" operator="out"></feComposite></filter><path d="M87.98 82.39C87.98 93.43 79.02 102.39 67.98 102.39C56.95 102.39 47.98 93.43 47.98 82.39C47.98 71.35 56.95 62.39 67.98 62.39C79.02 62.39 87.98 71.35 87.98 82.39Z" id="a2eMadPxxe" fill="white" fill-opacity="1" filter="url(#shadow14308047)"></path></g><use xlink:href="#aDuJdSQkW" opacity="1" fill="#8ee5fa" fill-opacity="1"></use></g><g><g><filter id="shadow10011468" x="48.98" y="63.39" width="38" height="38" filterUnits="userSpaceOnUse" primitiveUnits="userSpaceOnUse"><feFlood></feFlood><feComposite in2="SourceAlpha" operator="in"></feComposite><feGaussianBlur stdDeviation="1"></feGaussianBlur><feOffset dx="0" dy="0" result="afterOffset"></feOffset><feFlood flood-color="#000000" flood-opacity="0.5"></feFlood><feComposite in2="afterOffset" operator="in"></feComposite><feMorphology operator="dilate" radius="0"></feMorphology><feComposite in2="SourceAlpha" operator="out"></feComposite></filter><path d="M79.98 82.39C79.98 89.01 74.61 94.39 67.98 94.39C61.36 94.39 55.98 89.01 55.98 82.39C55.98 75.77 61.36 70.39 67.98 70.39C74.61 70.39 79.98 75.77 79.98 82.39Z" id="a62WoEicm" fill="white" fill-opacity="1" filter="url(#shadow10011468)"></path></g><use xlink:href="#b422dXFdfD" opacity="1" fill="#8ee5fa" fill-opacity="1"></use></g><g><g><filter id="shadow2294970" x="30.48" y="23.29" width="41.8" height="46.1" filterUnits="userSpaceOnUse" primitiveUnits="userSpaceOnUse"><feFlood></feFlood><feComposite in2="SourceAlpha" operator="in"></feComposite><feGaussianBlur stdDeviation="1"></feGaussianBlur><feOffset dx="0" dy="0" result="afterOffset"></feOffset><feFlood flood-color="#000000" flood-opacity="0.5"></feFlood><feComposite in2="afterOffset" operator="in"></feComposite><feMorphology operator="dilate" radius="0"></feMorphology><feComposite in2="SourceAlpha" operator="out"></feComposite></filter><path d="M55.2 30.55L56.34 30.87L57.42 31.3L58.45 31.85L59.42 32.5L60.32 33.25L61.16 34.1L61.93 35.03L62.63 36.04L63.25 37.12L63.8 38.27L64.26 39.49L64.64 40.76L64.94 42.08L65.15 43.44L65.26 44.85L65.28 46.28L65.21 47.74L65.03 49.22L64.75 50.72L64.37 52.19L63.91 53.61L63.36 54.96L62.73 56.25L62.03 57.47L61.27 58.62L60.44 59.69L59.55 60.68L58.62 61.59L57.65 62.39L56.55 61.78L55.14 61.08L53.66 60.44L52.1 59.86L50.48 59.34L48.83 58.9L47.21 58.55L45.61 58.29L44.05 58.12L42.54 58.03L41.08 58.02L39.69 58.1L39.4 58.13L38.97 57.22L38.5 56L38.12 54.73L37.82 53.41L37.62 52.04L37.5 50.64L37.48 49.21L37.56 47.75L37.73 46.27L38.01 44.77L38.39 43.3L38.86 41.88L39.41 40.53L40.03 39.24L40.73 38.02L41.5 36.87L42.32 35.8L43.21 34.81L44.14 33.9L45.13 33.09L46.15 32.37L47.21 31.75L48.3 31.24L49.42 30.83L50.55 30.53L51.7 30.35L52.87 30.29L54.03 30.35L55.2 30.55Z" id="c1lwLPIQl" fill="white" fill-opacity="1" filter="url(#shadow2294970)"></path></g><use xlink:href="#a1TussLXNJ" opacity="1" fill="#f4f4f4" fill-opacity="1"></use></g><g><g><filter id="shadow1488984" x="48.37" y="35.73" width="22.85" height="22.85" filterUnits="userSpaceOnUse" primitiveUnits="userSpaceOnUse"><feFlood></feFlood><feComposite in2="SourceAlpha" operator="in"></feComposite><feGaussianBlur stdDeviation="1"></feGaussianBlur><feOffset dx="0" dy="0" result="afterOffset"></feOffset><feFlood flood-color="#777777" flood-opacity="0.76"></feFlood><feComposite in2="afterOffset" operator="in"></feComposite><feMorphology operator="dilate" radius="0"></feMorphology><feComposite in2="SourceAlpha" operator="out"></feComposite></filter><path d="M64.22 47.16C64.22 49.6 62.23 51.59 59.79 51.59C57.35 51.59 55.37 49.6 55.37 47.16C55.37 44.72 57.35 42.73 59.79 42.73C62.23 42.73 64.22 44.72 64.22 47.16Z" id="aMneNod9v" fill="white" fill-opacity="1" filter="url(#shadow1488984)"></path></g><use xlink:href="#b2HYMlnGS8" opacity="1" fill="#676767" fill-opacity="1"></use></g><g><g><filter id="shadow615451" x="62.35" y="23.29" width="41.8" height="46.1" filterUnits="userSpaceOnUse" primitiveUnits="userSpaceOnUse"><feFlood></feFlood><feComposite in2="SourceAlpha" operator="in"></feComposite><feGaussianBlur stdDeviation="1"></feGaussianBlur><feOffset dx="0" dy="0" result="afterOffset"></feOffset><feFlood flood-color="#000000" flood-opacity="0.5"></feFlood><feComposite in2="afterOffset" operator="in"></feComposite><feMorphology operator="dilate" radius="0"></feMorphology><feComposite in2="SourceAlpha" operator="out"></feComposite></filter><path d="M85.22 30.83L86.33 31.24L87.42 31.75L88.48 32.37L89.51 33.09L90.49 33.9L91.43 34.81L92.31 35.8L93.14 36.87L93.9 38.02L94.6 39.24L95.23 40.53L95.78 41.88L96.24 43.3L96.62 44.77L96.9 46.27L97.08 47.75L97.16 49.21L97.13 50.64L97.02 52.04L96.81 53.41L96.52 54.73L96.13 56L95.67 57.22L95.23 58.13L94.95 58.1L93.55 58.02L92.09 58.03L90.58 58.12L89.02 58.29L87.43 58.55L85.8 58.9L84.16 59.34L82.53 59.86L80.98 60.44L79.49 61.08L78.08 61.78L76.99 62.39L76.02 61.59L75.08 60.68L74.2 59.69L73.37 58.62L72.6 57.47L71.9 56.25L71.28 54.96L70.73 53.6L70.26 52.19L69.88 50.72L69.6 49.22L69.43 47.74L69.35 46.28L69.37 44.85L69.49 43.44L69.69 42.08L69.99 40.76L70.37 39.49L70.84 38.27L71.38 37.12L72.01 36.03L72.71 35.02L73.47 34.1L74.31 33.25L75.22 32.5L76.18 31.85L77.21 31.3L78.3 30.87L79.43 30.55L80.6 30.35L81.77 30.29L82.93 30.35L84.08 30.53L84.08 30.53L85.22 30.83Z" id="eUkSaqZPG" fill="white" fill-opacity="1" filter="url(#shadow615451)"></path></g><use xlink:href="#a232sbHhZ" opacity="1" fill="#f4f4f4" fill-opacity="1"></use></g><g><g><filter id="shadow10394109" x="75.2" y="34.91" width="22.85" height="22.85" filterUnits="userSpaceOnUse" primitiveUnits="userSpaceOnUse"><feFlood></feFlood><feComposite in2="SourceAlpha" operator="in"></feComposite><feGaussianBlur stdDeviation="1"></feGaussianBlur><feOffset dx="0" dy="0" result="afterOffset"></feOffset><feFlood flood-color="#777777" flood-opacity="0.76"></feFlood><feComposite in2="afterOffset" operator="in"></feComposite><feMorphology operator="dilate" radius="0"></feMorphology><feComposite in2="SourceAlpha" operator="out"></feComposite></filter><path d="M82.2 46.34C82.2 48.78 84.18 50.77 86.62 50.77C89.06 50.77 91.05 48.78 91.05 46.34C91.05 43.9 89.06 41.91 86.62 41.91C84.18 41.91 82.2 43.9 82.2 46.34Z" id="a2NsZTOTU" fill="white" fill-opacity="1" filter="url(#shadow10394109)"></path></g><use xlink:href="#bNJLAjRDn" opacity="1" fill="#676767" fill-opacity="1"></use></g><g><g><filter id="shadow4827937" x="54.36" y="70.46" width="28.2" height="23.92" filterUnits="userSpaceOnUse" primitiveUnits="userSpaceOnUse"><feFlood></feFlood><feComposite in2="SourceAlpha" operator="in"></feComposite><feGaussianBlur stdDeviation="1"></feGaussianBlur><feOffset dx="0" dy="0" result="afterOffset"></feOffset><feFlood flood-color="#000000" flood-opacity="0.5"></feFlood><feComposite in2="afterOffset" operator="in"></feComposite><feMorphology operator="dilate" radius="0"></feMorphology><feComposite in2="SourceAlpha" operator="out"></feComposite></filter><path d="M72.01 77.46C73.97 77.46 75.56 78.79 75.56 80.44C75.56 85 68.46 87.26 68.46 87.38C68.46 87.38 68.46 87.38 68.46 87.38C68.46 87.26 61.36 85 61.36 80.44C61.36 78.79 62.95 77.46 64.91 77.46C66.87 77.46 68.46 78.63 68.46 80.27C68.46 78.63 70.05 77.46 72.01 77.46Z" id="f12WvaZbl5" fill="white" fill-opacity="1" filter="url(#shadow4827937)"></path></g><use xlink:href="#dlqEBu7Qd" opacity="1" fill="#757fda" fill-opacity="1"></use></g></g></g></svg>