<?xml version="1.0" encoding="UTF-8" standalone="no"?>
<!DOCTYPE svg PUBLIC "-//W3C//DTD SVG 1.1//EN" "http://www.w3.org/Graphics/SVG/1.1/DTD/svg11.dtd">
<svg version="1.1" xmlns="http://www.w3.org/2000/svg" xmlns:xlink="http://www.w3.org/1999/xlink" preserveAspectRatio="xMidYMid meet" viewBox="0 0 141 212" width="141" height="212"><defs><path d="M128.97 141.4C128.97 174.52 102.09 201.4 68.97 201.4C35.86 201.4 8.97 174.52 8.97 141.4C8.97 108.29 35.86 81.4 68.97 81.4C102.09 81.4 128.97 108.29 128.97 141.4Z" id="feYo7JIVS"></path><path d="M131.27 146.33L131.01 148.85L130.65 151.34L130.2 153.79L129.65 156.22L129.01 158.6L128.28 160.95L127.46 163.26L126.56 165.52L125.57 167.74L124.49 169.92L123.34 172.04L122.1 174.12L120.79 176.14L119.41 178.11L117.95 180.02L116.42 181.87L114.82 183.66L113.16 185.39L111.43 187.05L109.64 188.65L107.79 190.18L105.87 191.64L103.91 193.02L101.88 194.33L99.81 195.57L97.68 196.72L95.51 197.8L93.29 198.79L91.03 199.7L88.72 200.52L86.37 201.25L83.98 201.89L81.56 202.43L79.1 202.88L76.62 203.24L74.1 203.5L71.55 203.65L68.97 203.7L66.4 203.65L63.85 203.5L61.33 203.24L58.84 202.88L56.38 202.43L53.96 201.89L51.57 201.25L49.23 200.52L46.92 199.7L44.65 198.79L42.43 197.8L40.26 196.72L38.14 195.57L36.06 194.33L34.04 193.02L32.07 191.64L30.16 190.18L28.31 188.65L26.52 187.05L24.79 185.39L23.12 183.66L21.53 181.87L20 180.02L18.54 178.11L17.15 176.14L15.84 174.12L14.61 172.04L13.45 169.92L12.38 167.74L11.39 165.52L10.48 163.26L9.66 160.95L8.93 158.6L8.29 156.22L7.74 153.79L7.29 151.34L6.94 148.85L6.68 146.33L6.52 143.78L6.48 141.4L7.23 141.5L10.04 141.83L12.94 142.14L15.93 142.44L19 142.72L22.15 142.98L25.38 143.23L28.68 143.46L32.05 143.68L35.49 143.87L38.99 144.05L42.56 144.2L46.18 144.34L49.86 144.46L53.59 144.56L57.37 144.63L61.19 144.69L65.06 144.72L68.97 144.73L72.88 144.72L76.75 144.69L80.58 144.63L84.36 144.56L88.09 144.46L91.77 144.34L95.39 144.2L98.95 144.05L102.46 143.87L105.9 143.68L109.27 143.46L112.57 143.23L115.8 142.98L118.95 142.72L122.02 142.44L125 142.14L127.9 141.83L130.72 141.5L131.47 141.4L131.42 143.78L131.27 146.33Z" id="c4iSJoH26"></path><path d="M46.07 121.53C53.55 134.54 54.21 148.2 47.55 152.03C40.89 155.85 29.42 148.4 21.95 135.39C14.48 122.39 13.82 108.72 20.47 104.9C27.13 101.08 38.6 108.53 46.07 121.53Z" id="fOxwAJgVc"></path><path d="M121.85 130.24C118.48 144.86 109.67 155.32 102.19 153.6C94.71 151.87 91.37 138.6 94.74 123.99C98.12 109.37 106.93 98.91 114.41 100.64C121.89 102.36 125.23 115.63 121.85 130.24Z" id="a18WITsUfV"></path><path d="M25.73 185.69C25.73 198.34 33.72 208.62 43.56 208.62C53.39 208.62 61.38 198.34 61.38 185.69C61.38 173.04 53.39 162.77 43.56 162.77C33.72 162.77 25.73 173.04 25.73 185.69Z" id="c1ke73idtU"></path><path d="M26.29 190.93C26.29 198.7 31.68 205.01 38.33 205.01C44.97 205.01 50.37 198.7 50.37 190.93C50.37 183.16 44.97 176.85 38.33 176.85C31.68 176.85 26.29 183.16 26.29 190.93Z" id="bGcPVlxw1"></path><path d="M38.39 173.56C38.39 177.72 40.82 181.1 43.8 181.1C46.78 181.1 49.2 177.72 49.2 173.56C49.2 169.4 46.78 166.03 43.8 166.03C40.82 166.03 38.39 169.4 38.39 173.56Z" id="f2roPYzSuV"></path><path d="M29.63 175.95C29.63 178.79 31.59 181.1 34.01 181.1C36.43 181.1 38.39 178.79 38.39 175.95C38.39 173.1 36.43 170.79 34.01 170.79C31.59 170.79 29.63 173.1 29.63 175.95Z" id="c7PloWM0fW"></path><path d="M21.9 182C21.9 184.85 23.87 187.16 26.29 187.16C28.7 187.16 30.67 184.85 30.67 182C30.67 179.16 28.7 176.85 26.29 176.85C23.87 176.85 21.9 179.16 21.9 182Z" id="bpnCwvZhK"></path><path d="M19.9 189.91C19.9 192.19 21.33 194.04 23.09 194.04C24.85 194.04 26.29 192.19 26.29 189.91C26.29 187.62 24.85 185.77 23.09 185.77C21.33 185.77 19.9 187.62 19.9 189.91Z" id="b7ddEXD42"></path><path d="M116.9 185.69C116.9 198.34 108.91 208.62 99.07 208.62C89.24 208.62 81.25 198.34 81.25 185.69C81.25 173.04 89.24 162.77 99.07 162.77C108.91 162.77 116.9 173.04 116.9 185.69Z" id="f1vehj5PLs"></path><path d="M116.35 190.93C116.35 198.7 110.95 205.01 104.3 205.01C97.66 205.01 92.26 198.7 92.26 190.93C92.26 183.16 97.66 176.85 104.3 176.85C110.95 176.85 116.35 183.16 116.35 190.93Z" id="cK89sWI9s"></path><path d="M104.24 173.56C104.24 177.72 101.81 181.1 98.83 181.1C95.85 181.1 93.43 177.72 93.43 173.56C93.43 169.4 95.85 166.03 98.83 166.03C101.81 166.03 104.24 169.4 104.24 173.56Z" id="a3PyWs3T0A"></path><path d="M113 175.95C113 178.79 111.04 181.1 108.62 181.1C106.2 181.1 104.24 178.79 104.24 175.95C104.24 173.1 106.2 170.79 108.62 170.79C111.04 170.79 113 173.1 113 175.95Z" id="g83gb9UWHO"></path><path d="M120.73 182C120.73 184.85 118.76 187.16 116.35 187.16C113.93 187.16 111.96 184.85 111.96 182C111.96 179.16 113.93 176.85 116.35 176.85C118.76 176.85 120.73 179.16 120.73 182Z" id="aHURCWFb"></path><path d="M122.73 189.91C122.73 192.19 121.3 194.04 119.54 194.04C117.78 194.04 116.35 192.19 116.35 189.91C116.35 187.62 117.78 185.77 119.54 185.77C121.3 185.77 122.73 187.62 122.73 189.91Z" id="i4HwBEq6Q"></path><path d="M122.88 74.73C122.88 100.85 99.06 122.06 69.72 122.06C40.37 122.06 16.55 100.85 16.55 74.73C16.55 48.6 40.37 27.39 69.72 27.39C99.06 27.39 122.88 48.6 122.88 74.73Z" id="a1uwk0yFBP"></path><path d="M90.37 107.12C90.37 118.15 81.41 127.12 70.37 127.12C59.33 127.12 50.37 118.15 50.37 107.12C50.37 96.08 59.33 87.12 70.37 87.12C81.41 87.12 90.37 96.08 90.37 107.12Z" id="aocOvWgg"></path><path d="M82.37 107.12C82.37 113.74 76.99 119.12 70.37 119.12C63.74 119.12 58.37 113.74 58.37 107.12C58.37 100.49 63.74 95.12 70.37 95.12C76.99 95.12 82.37 100.49 82.37 107.12Z" id="bGDPgvjng"></path><path d="M68.5 69.63L68.44 71L68.28 72.4L68.03 73.82L67.67 75.23L67.21 76.65L66.65 78.06L66 79.44L65.27 80.74L64.47 81.96L63.6 83.11L62.68 84.17L61.71 85.15L60.69 86.04L59.64 86.84L58.54 87.55L57.44 88.15L56.48 87.34L55.23 86.39L53.9 85.47L52.48 84.6L50.99 83.78L49.46 83.03L47.93 82.38L46.41 81.82L44.92 81.34L43.45 80.97L42.02 80.68L40.64 80.49L40.35 80.47L40.1 79.48L39.88 78.2L39.75 76.88L39.71 75.53L39.77 74.15L39.93 72.75L40.18 71.34L40.54 69.92L41 68.5L41.56 67.09L42.21 65.72L42.94 64.42L43.42 63.68L68.47 68.59L68.5 69.63Z" id="dlLf8sEGv"></path><path d="M66.62 71.89C66.62 74.33 64.63 76.31 62.19 76.31C59.75 76.31 57.77 74.33 57.77 71.89C57.77 69.44 59.75 67.46 62.19 67.46C64.63 67.46 66.62 69.44 66.62 71.89Z" id="f4GKJSDyMj"></path><path d="M97.65 65.6L98.25 66.99L98.75 68.4L99.15 69.8L99.45 71.21L99.64 72.6L99.74 73.98L99.75 75.33L99.65 76.66L99.47 77.94L99.25 78.93L98.96 78.96L97.58 79.2L96.16 79.52L94.71 79.94L93.22 80.46L91.73 81.07L90.22 81.77L88.71 82.56L87.24 83.42L85.85 84.33L84.55 85.29L83.33 86.27L82.39 87.12L81.27 86.55L80.16 85.87L79.07 85.1L78.03 84.24L77.03 83.29L76.08 82.25L75.18 81.13L74.35 79.93L73.58 78.65L72.89 77.3L72.28 75.91L71.78 74.5L71.39 73.09L71.09 71.69L70.89 70.3L70.84 69.58L96.65 63.73L96.96 64.24L97.65 65.6Z" id="h6b3utskGK"></path><path d="M74.76 71.89C74.76 74.33 76.75 76.31 79.19 76.31C81.63 76.31 83.61 74.33 83.61 71.89C83.61 69.44 81.63 67.46 79.19 67.46C76.75 67.46 74.76 69.44 74.76 71.89Z" id="c1LFkSXeZr"></path><path d="M75.09 1.91L77.73 2.16L80.34 2.5L82.92 2.93L85.46 3.46L87.96 4.07L90.42 4.77L92.84 5.56L95.22 6.43L97.55 7.38L99.82 8.41L102.05 9.52L104.23 10.71L106.35 11.96L108.41 13.29L110.42 14.69L112.36 16.16L114.24 17.7L116.05 19.29L117.8 20.95L119.47 22.67L121.07 24.45L122.6 26.29L124.06 28.17L125.43 30.12L126.72 32.11L127.94 34.15L129.06 36.23L130.1 38.37L131.05 40.54L131.91 42.76L132.68 45.01L133.35 47.3L133.92 49.63L134.4 51.98L134.77 54.37L135.04 56.79L135.2 59.24L135.26 61.71L135.2 64.18L135.11 65.5L135.12 65.53L135.16 65.71L135.19 65.89L135.22 66.08L135.24 66.26L135.25 66.45L135.26 66.64L135.26 95.82L135.25 96.01L135.24 96.2L135.22 96.39L135.19 96.57L135.16 96.76L135.12 96.94L135.07 97.11L135.02 97.29L134.96 97.46L134.89 97.62L134.82 97.79L134.74 97.95L134.65 98.11L134.56 98.26L134.47 98.41L134.36 98.56L134.26 98.7L134.14 98.83L134.02 98.97L133.9 99.09L133.77 99.22L133.64 99.34L133.5 99.45L133.36 99.56L133.22 99.66L133.07 99.76L132.91 99.85L132.76 99.93L132.6 100.01L132.43 100.09L132.26 100.15L132.09 100.21L131.92 100.27L131.74 100.31L131.56 100.35L131.38 100.39L131.2 100.41L131.01 100.43L130.82 100.44L130.63 100.45L115.74 100.45L115.74 63.02L115.74 62.83L115.73 62.64L115.71 62.45L115.68 62.27L115.65 62.09L115.61 61.91L115.56 61.73L115.51 61.56L115.45 61.39L115.38 61.22L115.31 61.06L115.23 60.89L115.14 60.74L115.05 60.58L114.95 60.43L114.85 60.29L114.74 60.15L114.63 60.01L114.51 59.88L114.39 59.75L114.26 59.63L114.13 59.51L113.99 59.4L113.85 59.29L113.7 59.18L113.55 59.09L113.4 59L113.24 58.91L113.08 58.83L112.92 58.76L112.75 58.69L112.58 58.63L112.41 58.58L112.23 58.53L112.05 58.49L111.87 58.46L111.68 58.43L111.5 58.41L111.31 58.4L111.12 58.4L28.32 58.4L28.12 58.4L27.94 58.41L27.75 58.43L27.57 58.46L27.38 58.49L27.2 58.53L27.03 58.58L26.85 58.63L26.68 58.69L26.52 58.76L26.35 58.83L26.19 58.91L26.03 59L25.88 59.09L25.73 59.18L25.58 59.29L25.44 59.4L25.31 59.51L25.17 59.63L25.05 59.75L24.92 59.88L24.8 60.01L24.69 60.15L24.58 60.29L24.48 60.43L24.38 60.58L24.29 60.74L24.21 60.89L24.13 61.06L24.05 61.22L23.99 61.39L23.93 61.56L23.87 61.73L23.82 61.91L23.78 62.09L23.75 62.27L23.72 62.45L23.71 62.64L23.69 62.83L23.69 63.02L23.69 100.45L8.8 100.45L8.61 100.44L8.42 100.43L8.24 100.41L8.05 100.39L7.87 100.35L7.69 100.31L7.51 100.27L7.34 100.21L7.17 100.15L7 100.09L6.84 100.01L6.68 99.93L6.52 99.85L6.37 99.76L6.22 99.66L6.07 99.56L5.93 99.45L5.79 99.34L5.66 99.22L5.53 99.09L5.41 98.97L5.29 98.83L5.18 98.7L5.07 98.56L4.97 98.41L4.87 98.26L4.78 98.11L4.69 97.95L4.61 97.79L4.54 97.62L4.47 97.46L4.41 97.29L4.36 97.11L4.31 96.94L4.27 96.76L4.24 96.57L4.21 96.39L4.19 96.2L4.18 96.01L4.18 95.82L4.18 66.64L4.18 66.45L4.19 66.26L4.21 66.08L4.24 65.89L4.27 65.71L4.31 65.53L4.32 65.5L4.23 64.18L4.18 61.71L4.23 59.24L4.4 56.79L4.66 54.37L5.04 51.98L5.51 49.63L6.08 47.3L6.75 45.01L7.52 42.76L8.38 40.54L9.33 38.37L10.37 36.23L11.5 34.15L12.71 32.11L14 30.12L15.38 28.17L16.83 26.29L18.36 24.45L19.96 22.67L21.64 20.95L23.38 19.29L25.2 17.7L27.07 16.16L29.02 14.69L31.02 13.29L33.08 11.96L35.2 10.71L37.38 9.52L39.61 8.41L41.89 7.38L44.22 6.43L46.59 5.56L49.01 4.77L51.47 4.07L53.97 3.46L56.52 2.93L59.09 2.5L61.7 2.16L64.34 1.91L67.02 1.76L69.72 1.71L72.42 1.76L75.09 1.91Z" id="arAKcToak"></path><path d="M74.21 33.72L81.47 34.96L76.22 40.98L77.46 49.48L70.97 45.47L64.48 49.48L65.72 40.98L60.47 34.96L67.72 33.72L70.97 25.98L74.21 33.72Z" id="a1RkHXdOxm"></path><path d="M78.41 116.07L77.45 116.85L76.42 117.52L75.32 118.09L74.16 118.55L72.94 118.89L71.67 119.09L70.37 119.16L69.06 119.09L67.79 118.89L66.58 118.55L65.41 118.09L64.31 117.52L63.28 116.85L62.33 116.07L61.46 115.2L60.68 114.25L60.27 113.62L80.47 113.62L80.05 114.25L79.27 115.2L79.27 115.2L78.41 116.07ZM81.76 103.37L82.09 104.59L82.3 105.86L82.36 107.12L69.49 107.12L69.49 100.62L80.4 100.62L80.73 101.11L81.3 102.21L81.3 102.21L81.76 103.37Z" id="aFXCgSoWt"></path><path d="M81.76 110.91L81.3 112.07L80.73 113.17L80.44 113.62L60.3 113.62L60.01 113.17L59.44 112.07L58.98 110.91L58.64 109.69L58.44 108.42L58.37 107.12L82.37 107.12L82.3 108.42L82.09 109.69L82.09 109.69L81.76 110.91ZM74.16 95.73L75.32 96.18L76.42 96.76L77.45 97.43L78.41 98.21L79.27 99.08L80.05 100.03L80.43 100.62L69.49 100.62L69.49 95.16L70.37 95.12L71.67 95.19L72.94 95.39L72.94 95.39L74.16 95.73Z" id="bY4s7Br0t"></path><path d="M58.37 107.12L58.44 105.81L58.64 104.54L58.98 103.32L59.44 102.16L60.01 101.06L60.68 100.03L61.46 99.08L62.33 98.21L63.28 97.43L64.31 96.76L65.41 96.18L66.58 95.73L67.79 95.39L69.06 95.19L69.49 95.16L69.49 107.12L58.37 107.12Z" id="c2J6rg1Ff"></path></defs><g><g><g><g><filter id="shadow6665978" x="1.97" y="74.4" width="134" height="134" filterUnits="userSpaceOnUse" primitiveUnits="userSpaceOnUse"><feFlood></feFlood><feComposite in2="SourceAlpha" operator="in"></feComposite><feGaussianBlur stdDeviation="1"></feGaussianBlur><feOffset dx="0" dy="0" result="afterOffset"></feOffset><feFlood flood-color="#000000" flood-opacity="0.5"></feFlood><feComposite in2="afterOffset" operator="in"></feComposite><feMorphology operator="dilate" radius="0"></feMorphology><feComposite in2="SourceAlpha" operator="out"></feComposite></filter><path d="M128.97 141.4C128.97 174.52 102.09 201.4 68.97 201.4C35.86 201.4 8.97 174.52 8.97 141.4C8.97 108.29 35.86 81.4 68.97 81.4C102.09 81.4 128.97 108.29 128.97 141.4Z" id="c1XAeGAgPu" fill="white" fill-opacity="1" filter="url(#shadow6665978)"></path></g><use xlink:href="#feYo7JIVS" opacity="1" fill="#ffd7d7" fill-opacity="1"></use></g><g><g><filter id="shadow12725296" x="-0.52" y="134.4" width="138.99" height="76.3" filterUnits="userSpaceOnUse" primitiveUnits="userSpaceOnUse"><feFlood></feFlood><feComposite in2="SourceAlpha" operator="in"></feComposite><feGaussianBlur stdDeviation="1"></feGaussianBlur><feOffset dx="0" dy="0" result="afterOffset"></feOffset><feFlood flood-color="#000000" flood-opacity="0.5"></feFlood><feComposite in2="afterOffset" operator="in"></feComposite><feMorphology operator="dilate" radius="0"></feMorphology><feComposite in2="SourceAlpha" operator="out"></feComposite></filter><path d="M131.27 146.33L131.01 148.85L130.65 151.34L130.2 153.79L129.65 156.22L129.01 158.6L128.28 160.95L127.46 163.26L126.56 165.52L125.57 167.74L124.49 169.92L123.34 172.04L122.1 174.12L120.79 176.14L119.41 178.11L117.95 180.02L116.42 181.87L114.82 183.66L113.16 185.39L111.43 187.05L109.64 188.65L107.79 190.18L105.87 191.64L103.91 193.02L101.88 194.33L99.81 195.57L97.68 196.72L95.51 197.8L93.29 198.79L91.03 199.7L88.72 200.52L86.37 201.25L83.98 201.89L81.56 202.43L79.1 202.88L76.62 203.24L74.1 203.5L71.55 203.65L68.97 203.7L66.4 203.65L63.85 203.5L61.33 203.24L58.84 202.88L56.38 202.43L53.96 201.89L51.57 201.25L49.23 200.52L46.92 199.7L44.65 198.79L42.43 197.8L40.26 196.72L38.14 195.57L36.06 194.33L34.04 193.02L32.07 191.64L30.16 190.18L28.31 188.65L26.52 187.05L24.79 185.39L23.12 183.66L21.53 181.87L20 180.02L18.54 178.11L17.15 176.14L15.84 174.12L14.61 172.04L13.45 169.92L12.38 167.74L11.39 165.52L10.48 163.26L9.66 160.95L8.93 158.6L8.29 156.22L7.74 153.79L7.29 151.34L6.94 148.85L6.68 146.33L6.52 143.78L6.48 141.4L7.23 141.5L10.04 141.83L12.94 142.14L15.93 142.44L19 142.72L22.15 142.98L25.38 143.23L28.68 143.46L32.05 143.68L35.49 143.87L38.99 144.05L42.56 144.2L46.18 144.34L49.86 144.46L53.59 144.56L57.37 144.63L61.19 144.69L65.06 144.72L68.97 144.73L72.88 144.72L76.75 144.69L80.58 144.63L84.36 144.56L88.09 144.46L91.77 144.34L95.39 144.2L98.95 144.05L102.46 143.87L105.9 143.68L109.27 143.46L112.57 143.23L115.8 142.98L118.95 142.72L122.02 142.44L125 142.14L127.9 141.83L130.72 141.5L131.47 141.4L131.42 143.78L131.27 146.33Z" id="bnTL1E5WN" fill="white" fill-opacity="1" filter="url(#shadow12725296)"></path></g><use xlink:href="#c4iSJoH26" opacity="1" fill="#f8f8f8" fill-opacity="1"></use></g><g><g><filter id="shadow11344665" x="8.88" y="96.9" width="50.26" height="63.13" filterUnits="userSpaceOnUse" primitiveUnits="userSpaceOnUse"><feFlood></feFlood><feComposite in2="SourceAlpha" operator="in"></feComposite><feGaussianBlur stdDeviation="1"></feGaussianBlur><feOffset dx="0" dy="0" result="afterOffset"></feOffset><feFlood flood-color="#000000" flood-opacity="0.5"></feFlood><feComposite in2="afterOffset" operator="in"></feComposite><feMorphology operator="dilate" radius="0"></feMorphology><feComposite in2="SourceAlpha" operator="out"></feComposite></filter><path d="M46.07 121.53C53.55 134.54 54.21 148.2 47.55 152.03C40.89 155.85 29.42 148.4 21.95 135.39C14.48 122.39 13.82 108.72 20.47 104.9C27.13 101.08 38.6 108.53 46.07 121.53Z" id="g3ncur4C3b" fill="white" fill-opacity="1" filter="url(#shadow11344665)"></path></g><use xlink:href="#fOxwAJgVc" opacity="1" fill="#ffd7d7" fill-opacity="1"></use></g><g><g><filter id="shadow14438522" x="86.43" y="93.45" width="43.74" height="67.33" filterUnits="userSpaceOnUse" primitiveUnits="userSpaceOnUse"><feFlood></feFlood><feComposite in2="SourceAlpha" operator="in"></feComposite><feGaussianBlur stdDeviation="1"></feGaussianBlur><feOffset dx="0" dy="0" result="afterOffset"></feOffset><feFlood flood-color="#000000" flood-opacity="0.5"></feFlood><feComposite in2="afterOffset" operator="in"></feComposite><feMorphology operator="dilate" radius="0"></feMorphology><feComposite in2="SourceAlpha" operator="out"></feComposite></filter><path d="M121.85 130.24C118.48 144.86 109.67 155.32 102.19 153.6C94.71 151.87 91.37 138.6 94.74 123.99C98.12 109.37 106.93 98.91 114.41 100.64C121.89 102.36 125.23 115.63 121.85 130.24Z" id="b3S81vNCjg" fill="white" fill-opacity="1" filter="url(#shadow14438522)"></path></g><use xlink:href="#a18WITsUfV" opacity="1" fill="#ffd7d7" fill-opacity="1"></use></g><g><g><filter id="shadow2487076" x="18.73" y="155.77" width="49.65" height="59.85" filterUnits="userSpaceOnUse" primitiveUnits="userSpaceOnUse"><feFlood></feFlood><feComposite in2="SourceAlpha" operator="in"></feComposite><feGaussianBlur stdDeviation="1"></feGaussianBlur><feOffset dx="0" dy="0" result="afterOffset"></feOffset><feFlood flood-color="#000000" flood-opacity="0.5"></feFlood><feComposite in2="afterOffset" operator="in"></feComposite><feMorphology operator="dilate" radius="0"></feMorphology><feComposite in2="SourceAlpha" operator="out"></feComposite></filter><path d="M25.73 185.69C25.73 198.34 33.72 208.62 43.56 208.62C53.39 208.62 61.38 198.34 61.38 185.69C61.38 173.04 53.39 162.77 43.56 162.77C33.72 162.77 25.73 173.04 25.73 185.69Z" id="c1lGLinLsc" fill="white" fill-opacity="1" filter="url(#shadow2487076)"></path></g><use xlink:href="#c1ke73idtU" opacity="1" fill="#ffd7d7" fill-opacity="1"></use></g><g><g><filter id="shadow9434612" x="19.29" y="169.85" width="38.08" height="42.16" filterUnits="userSpaceOnUse" primitiveUnits="userSpaceOnUse"><feFlood></feFlood><feComposite in2="SourceAlpha" operator="in"></feComposite><feGaussianBlur stdDeviation="1"></feGaussianBlur><feOffset dx="0" dy="0" result="afterOffset"></feOffset><feFlood flood-color="#000000" flood-opacity="0.5"></feFlood><feComposite in2="afterOffset" operator="in"></feComposite><feMorphology operator="dilate" radius="0"></feMorphology><feComposite in2="SourceAlpha" operator="out"></feComposite></filter><path d="M26.29 190.93C26.29 198.7 31.68 205.01 38.33 205.01C44.97 205.01 50.37 198.7 50.37 190.93C50.37 183.16 44.97 176.85 38.33 176.85C31.68 176.85 26.29 183.16 26.29 190.93Z" id="e4M2MTIYm9" fill="white" fill-opacity="1" filter="url(#shadow9434612)"></path></g><use xlink:href="#bGcPVlxw1" opacity="1" fill="#ffd7d7" fill-opacity="1"></use></g><g><g><filter id="shadow5306473" x="31.39" y="159.03" width="24.81" height="29.07" filterUnits="userSpaceOnUse" primitiveUnits="userSpaceOnUse"><feFlood></feFlood><feComposite in2="SourceAlpha" operator="in"></feComposite><feGaussianBlur stdDeviation="1"></feGaussianBlur><feOffset dx="0" dy="0" result="afterOffset"></feOffset><feFlood flood-color="#000000" flood-opacity="0.5"></feFlood><feComposite in2="afterOffset" operator="in"></feComposite><feMorphology operator="dilate" radius="0"></feMorphology><feComposite in2="SourceAlpha" operator="out"></feComposite></filter><path d="M38.39 173.56C38.39 177.72 40.82 181.1 43.8 181.1C46.78 181.1 49.2 177.72 49.2 173.56C49.2 169.4 46.78 166.03 43.8 166.03C40.82 166.03 38.39 169.4 38.39 173.56Z" id="cDATLPDnL" fill="white" fill-opacity="1" filter="url(#shadow5306473)"></path></g><use xlink:href="#f2roPYzSuV" opacity="1" fill="#ffd7d7" fill-opacity="1"></use></g><g><g><filter id="shadow12764850" x="22.63" y="163.79" width="22.77" height="24.31" filterUnits="userSpaceOnUse" primitiveUnits="userSpaceOnUse"><feFlood></feFlood><feComposite in2="SourceAlpha" operator="in"></feComposite><feGaussianBlur stdDeviation="1"></feGaussianBlur><feOffset dx="0" dy="0" result="afterOffset"></feOffset><feFlood flood-color="#000000" flood-opacity="0.5"></feFlood><feComposite in2="afterOffset" operator="in"></feComposite><feMorphology operator="dilate" radius="0"></feMorphology><feComposite in2="SourceAlpha" operator="out"></feComposite></filter><path d="M29.63 175.95C29.63 178.79 31.59 181.1 34.01 181.1C36.43 181.1 38.39 178.79 38.39 175.95C38.39 173.1 36.43 170.79 34.01 170.79C31.59 170.79 29.63 173.1 29.63 175.95Z" id="ca9fPGnXo" fill="white" fill-opacity="1" filter="url(#shadow12764850)"></path></g><use xlink:href="#c7PloWM0fW" opacity="1" fill="#ffd7d7" fill-opacity="1"></use></g><g><g><filter id="shadow3149295" x="14.9" y="169.85" width="22.77" height="24.31" filterUnits="userSpaceOnUse" primitiveUnits="userSpaceOnUse"><feFlood></feFlood><feComposite in2="SourceAlpha" operator="in"></feComposite><feGaussianBlur stdDeviation="1"></feGaussianBlur><feOffset dx="0" dy="0" result="afterOffset"></feOffset><feFlood flood-color="#000000" flood-opacity="0.5"></feFlood><feComposite in2="afterOffset" operator="in"></feComposite><feMorphology operator="dilate" radius="0"></feMorphology><feComposite in2="SourceAlpha" operator="out"></feComposite></filter><path d="M21.9 182C21.9 184.85 23.87 187.16 26.29 187.16C28.7 187.16 30.67 184.85 30.67 182C30.67 179.16 28.7 176.85 26.29 176.85C23.87 176.85 21.9 179.16 21.9 182Z" id="c6FH4ekXnE" fill="white" fill-opacity="1" filter="url(#shadow3149295)"></path></g><use xlink:href="#bpnCwvZhK" opacity="1" fill="#ffd7d7" fill-opacity="1"></use></g><g><g><filter id="shadow3003300" x="12.9" y="178.77" width="20.39" height="22.27" filterUnits="userSpaceOnUse" primitiveUnits="userSpaceOnUse"><feFlood></feFlood><feComposite in2="SourceAlpha" operator="in"></feComposite><feGaussianBlur stdDeviation="1"></feGaussianBlur><feOffset dx="0" dy="0" result="afterOffset"></feOffset><feFlood flood-color="#000000" flood-opacity="0.5"></feFlood><feComposite in2="afterOffset" operator="in"></feComposite><feMorphology operator="dilate" radius="0"></feMorphology><feComposite in2="SourceAlpha" operator="out"></feComposite></filter><path d="M19.9 189.91C19.9 192.19 21.33 194.04 23.09 194.04C24.85 194.04 26.29 192.19 26.29 189.91C26.29 187.62 24.85 185.77 23.09 185.77C21.33 185.77 19.9 187.62 19.9 189.91Z" id="e1kIar8zWZ" fill="white" fill-opacity="1" filter="url(#shadow3003300)"></path></g><use xlink:href="#b7ddEXD42" opacity="1" fill="#ffd7d7" fill-opacity="1"></use></g><g><g><filter id="shadow14281958" x="74.25" y="155.77" width="49.65" height="59.85" filterUnits="userSpaceOnUse" primitiveUnits="userSpaceOnUse"><feFlood></feFlood><feComposite in2="SourceAlpha" operator="in"></feComposite><feGaussianBlur stdDeviation="1"></feGaussianBlur><feOffset dx="0" dy="0" result="afterOffset"></feOffset><feFlood flood-color="#000000" flood-opacity="0.5"></feFlood><feComposite in2="afterOffset" operator="in"></feComposite><feMorphology operator="dilate" radius="0"></feMorphology><feComposite in2="SourceAlpha" operator="out"></feComposite></filter><path d="M116.9 185.69C116.9 198.34 108.91 208.62 99.07 208.62C89.24 208.62 81.25 198.34 81.25 185.69C81.25 173.04 89.24 162.77 99.07 162.77C108.91 162.77 116.9 173.04 116.9 185.69Z" id="a2JGOkkpPI" fill="white" fill-opacity="1" filter="url(#shadow14281958)"></path></g><use xlink:href="#f1vehj5PLs" opacity="1" fill="#ffd7d7" fill-opacity="1"></use></g><g><g><filter id="shadow6546055" x="85.26" y="169.85" width="38.08" height="42.16" filterUnits="userSpaceOnUse" primitiveUnits="userSpaceOnUse"><feFlood></feFlood><feComposite in2="SourceAlpha" operator="in"></feComposite><feGaussianBlur stdDeviation="1"></feGaussianBlur><feOffset dx="0" dy="0" result="afterOffset"></feOffset><feFlood flood-color="#000000" flood-opacity="0.5"></feFlood><feComposite in2="afterOffset" operator="in"></feComposite><feMorphology operator="dilate" radius="0"></feMorphology><feComposite in2="SourceAlpha" operator="out"></feComposite></filter><path d="M116.35 190.93C116.35 198.7 110.95 205.01 104.3 205.01C97.66 205.01 92.26 198.7 92.26 190.93C92.26 183.16 97.66 176.85 104.3 176.85C110.95 176.85 116.35 183.16 116.35 190.93Z" id="br2GVrw1y" fill="white" fill-opacity="1" filter="url(#shadow6546055)"></path></g><use xlink:href="#cK89sWI9s" opacity="1" fill="#ffd7d7" fill-opacity="1"></use></g><g><g><filter id="shadow13390840" x="86.43" y="159.03" width="24.81" height="29.07" filterUnits="userSpaceOnUse" primitiveUnits="userSpaceOnUse"><feFlood></feFlood><feComposite in2="SourceAlpha" operator="in"></feComposite><feGaussianBlur stdDeviation="1"></feGaussianBlur><feOffset dx="0" dy="0" result="afterOffset"></feOffset><feFlood flood-color="#000000" flood-opacity="0.5"></feFlood><feComposite in2="afterOffset" operator="in"></feComposite><feMorphology operator="dilate" radius="0"></feMorphology><feComposite in2="SourceAlpha" operator="out"></feComposite></filter><path d="M104.24 173.56C104.24 177.72 101.81 181.1 98.83 181.1C95.85 181.1 93.43 177.72 93.43 173.56C93.43 169.4 95.85 166.03 98.83 166.03C101.81 166.03 104.24 169.4 104.24 173.56Z" id="fG9pxTGZi" fill="white" fill-opacity="1" filter="url(#shadow13390840)"></path></g><use xlink:href="#a3PyWs3T0A" opacity="1" fill="#ffd7d7" fill-opacity="1"></use></g><g><g><filter id="shadow4207431" x="97.24" y="163.79" width="22.77" height="24.31" filterUnits="userSpaceOnUse" primitiveUnits="userSpaceOnUse"><feFlood></feFlood><feComposite in2="SourceAlpha" operator="in"></feComposite><feGaussianBlur stdDeviation="1"></feGaussianBlur><feOffset dx="0" dy="0" result="afterOffset"></feOffset><feFlood flood-color="#000000" flood-opacity="0.5"></feFlood><feComposite in2="afterOffset" operator="in"></feComposite><feMorphology operator="dilate" radius="0"></feMorphology><feComposite in2="SourceAlpha" operator="out"></feComposite></filter><path d="M113 175.95C113 178.79 111.04 181.1 108.62 181.1C106.2 181.1 104.24 178.79 104.24 175.95C104.24 173.1 106.2 170.79 108.62 170.79C111.04 170.79 113 173.1 113 175.95Z" id="a1kL1wDNPU" fill="white" fill-opacity="1" filter="url(#shadow4207431)"></path></g><use xlink:href="#g83gb9UWHO" opacity="1" fill="#ffd7d7" fill-opacity="1"></use></g><g><g><filter id="shadow14858534" x="104.96" y="169.85" width="22.77" height="24.31" filterUnits="userSpaceOnUse" primitiveUnits="userSpaceOnUse"><feFlood></feFlood><feComposite in2="SourceAlpha" operator="in"></feComposite><feGaussianBlur stdDeviation="1"></feGaussianBlur><feOffset dx="0" dy="0" result="afterOffset"></feOffset><feFlood flood-color="#000000" flood-opacity="0.5"></feFlood><feComposite in2="afterOffset" operator="in"></feComposite><feMorphology operator="dilate" radius="0"></feMorphology><feComposite in2="SourceAlpha" operator="out"></feComposite></filter><path d="M120.73 182C120.73 184.85 118.76 187.16 116.35 187.16C113.93 187.16 111.96 184.85 111.96 182C111.96 179.16 113.93 176.85 116.35 176.85C118.76 176.85 120.73 179.16 120.73 182Z" id="aqVcGwqSg" fill="white" fill-opacity="1" filter="url(#shadow14858534)"></path></g><use xlink:href="#aHURCWFb" opacity="1" fill="#ffd7d7" fill-opacity="1"></use></g><g><g><filter id="shadow16052735" x="109.35" y="178.77" width="20.39" height="22.27" filterUnits="userSpaceOnUse" primitiveUnits="userSpaceOnUse"><feFlood></feFlood><feComposite in2="SourceAlpha" operator="in"></feComposite><feGaussianBlur stdDeviation="1"></feGaussianBlur><feOffset dx="0" dy="0" result="afterOffset"></feOffset><feFlood flood-color="#000000" flood-opacity="0.5"></feFlood><feComposite in2="afterOffset" operator="in"></feComposite><feMorphology operator="dilate" radius="0"></feMorphology><feComposite in2="SourceAlpha" operator="out"></feComposite></filter><path d="M122.73 189.91C122.73 192.19 121.3 194.04 119.54 194.04C117.78 194.04 116.35 192.19 116.35 189.91C116.35 187.62 117.78 185.77 119.54 185.77C121.3 185.77 122.73 187.62 122.73 189.91Z" id="n7xAtAg2Lb" fill="white" fill-opacity="1" filter="url(#shadow16052735)"></path></g><use xlink:href="#i4HwBEq6Q" opacity="1" fill="#ffd7d7" fill-opacity="1"></use></g><g><g><filter id="shadow3092070" x="9.55" y="20.39" width="120.33" height="108.67" filterUnits="userSpaceOnUse" primitiveUnits="userSpaceOnUse"><feFlood></feFlood><feComposite in2="SourceAlpha" operator="in"></feComposite><feGaussianBlur stdDeviation="1"></feGaussianBlur><feOffset dx="0" dy="0" result="afterOffset"></feOffset><feFlood flood-color="#000000" flood-opacity="0.5"></feFlood><feComposite in2="afterOffset" operator="in"></feComposite><feMorphology operator="dilate" radius="0"></feMorphology><feComposite in2="SourceAlpha" operator="out"></feComposite></filter><path d="M122.88 74.73C122.88 100.85 99.06 122.06 69.72 122.06C40.37 122.06 16.55 100.85 16.55 74.73C16.55 48.6 40.37 27.39 69.72 27.39C99.06 27.39 122.88 48.6 122.88 74.73Z" id="bZL76ZHus" fill="white" fill-opacity="1" filter="url(#shadow3092070)"></path></g><use xlink:href="#a1uwk0yFBP" opacity="1" fill="#ffd7d7" fill-opacity="1"></use></g><g><g><filter id="shadow14596324" x="43.37" y="80.12" width="54" height="54" filterUnits="userSpaceOnUse" primitiveUnits="userSpaceOnUse"><feFlood></feFlood><feComposite in2="SourceAlpha" operator="in"></feComposite><feGaussianBlur stdDeviation="1"></feGaussianBlur><feOffset dx="0" dy="0" result="afterOffset"></feOffset><feFlood flood-color="#000000" flood-opacity="0.5"></feFlood><feComposite in2="afterOffset" operator="in"></feComposite><feMorphology operator="dilate" radius="0"></feMorphology><feComposite in2="SourceAlpha" operator="out"></feComposite></filter><path d="M90.37 107.12C90.37 118.15 81.41 127.12 70.37 127.12C59.33 127.12 50.37 118.15 50.37 107.12C50.37 96.08 59.33 87.12 70.37 87.12C81.41 87.12 90.37 96.08 90.37 107.12Z" id="d1TOJ15kZZ" fill="white" fill-opacity="1" filter="url(#shadow14596324)"></path></g><use xlink:href="#aocOvWgg" opacity="1" fill="#7db06c" fill-opacity="1"></use></g><g><g><filter id="shadow1078727" x="51.37" y="88.12" width="38" height="38" filterUnits="userSpaceOnUse" primitiveUnits="userSpaceOnUse"><feFlood></feFlood><feComposite in2="SourceAlpha" operator="in"></feComposite><feGaussianBlur stdDeviation="1"></feGaussianBlur><feOffset dx="0" dy="0" result="afterOffset"></feOffset><feFlood flood-color="#000000" flood-opacity="0.5"></feFlood><feComposite in2="afterOffset" operator="in"></feComposite><feMorphology operator="dilate" radius="0"></feMorphology><feComposite in2="SourceAlpha" operator="out"></feComposite></filter><path d="M82.37 107.12C82.37 113.74 76.99 119.12 70.37 119.12C63.74 119.12 58.37 113.74 58.37 107.12C58.37 100.49 63.74 95.12 70.37 95.12C76.99 95.12 82.37 100.49 82.37 107.12Z" id="aBjeygLD4" fill="white" fill-opacity="1" filter="url(#shadow1078727)"></path></g><use xlink:href="#bGDPgvjng" opacity="1" fill="#7db06c" fill-opacity="1"></use></g><g><g><filter id="shadow94563" x="32.71" y="56.68" width="42.79" height="38.47" filterUnits="userSpaceOnUse" primitiveUnits="userSpaceOnUse"><feFlood></feFlood><feComposite in2="SourceAlpha" operator="in"></feComposite><feGaussianBlur stdDeviation="1"></feGaussianBlur><feOffset dx="0" dy="0" result="afterOffset"></feOffset><feFlood flood-color="#000000" flood-opacity="0.5"></feFlood><feComposite in2="afterOffset" operator="in"></feComposite><feMorphology operator="dilate" radius="0"></feMorphology><feComposite in2="SourceAlpha" operator="out"></feComposite></filter><path d="M68.5 69.63L68.44 71L68.28 72.4L68.03 73.82L67.67 75.23L67.21 76.65L66.65 78.06L66 79.44L65.27 80.74L64.47 81.96L63.6 83.11L62.68 84.17L61.71 85.15L60.69 86.04L59.64 86.84L58.54 87.55L57.44 88.15L56.48 87.34L55.23 86.39L53.9 85.47L52.48 84.6L50.99 83.78L49.46 83.03L47.93 82.38L46.41 81.82L44.92 81.34L43.45 80.97L42.02 80.68L40.64 80.49L40.35 80.47L40.1 79.48L39.88 78.2L39.75 76.88L39.71 75.53L39.77 74.15L39.93 72.75L40.18 71.34L40.54 69.92L41 68.5L41.56 67.09L42.21 65.72L42.94 64.42L43.42 63.68L68.47 68.59L68.5 69.63Z" id="g11YXs1Def" fill="white" fill-opacity="1" filter="url(#shadow94563)"></path></g><use xlink:href="#dlLf8sEGv" opacity="1" fill="#f4f4f4" fill-opacity="1"></use></g><g><g><filter id="shadow9906149" x="50.77" y="60.46" width="22.85" height="22.85" filterUnits="userSpaceOnUse" primitiveUnits="userSpaceOnUse"><feFlood></feFlood><feComposite in2="SourceAlpha" operator="in"></feComposite><feGaussianBlur stdDeviation="1"></feGaussianBlur><feOffset dx="0" dy="0" result="afterOffset"></feOffset><feFlood flood-color="#777777" flood-opacity="0.76"></feFlood><feComposite in2="afterOffset" operator="in"></feComposite><feMorphology operator="dilate" radius="0"></feMorphology><feComposite in2="SourceAlpha" operator="out"></feComposite></filter><path d="M66.62 71.89C66.62 74.33 64.63 76.31 62.19 76.31C59.75 76.31 57.77 74.33 57.77 71.89C57.77 69.44 59.75 67.46 62.19 67.46C64.63 67.46 66.62 69.44 66.62 71.89Z" id="h207ZX6ys" fill="white" fill-opacity="1" filter="url(#shadow9906149)"></path></g><use xlink:href="#f4GKJSDyMj" opacity="1" fill="#676767" fill-opacity="1"></use></g><g><g><filter id="shadow8253771" x="63.84" y="56.73" width="42.91" height="37.38" filterUnits="userSpaceOnUse" primitiveUnits="userSpaceOnUse"><feFlood></feFlood><feComposite in2="SourceAlpha" operator="in"></feComposite><feGaussianBlur stdDeviation="1"></feGaussianBlur><feOffset dx="0" dy="0" result="afterOffset"></feOffset><feFlood flood-color="#000000" flood-opacity="0.5"></feFlood><feComposite in2="afterOffset" operator="in"></feComposite><feMorphology operator="dilate" radius="0"></feMorphology><feComposite in2="SourceAlpha" operator="out"></feComposite></filter><path d="M97.65 65.6L98.25 66.99L98.75 68.4L99.15 69.8L99.45 71.21L99.64 72.6L99.74 73.98L99.75 75.33L99.65 76.66L99.47 77.94L99.25 78.93L98.96 78.96L97.58 79.2L96.16 79.52L94.71 79.94L93.22 80.46L91.73 81.07L90.22 81.77L88.71 82.56L87.24 83.42L85.85 84.33L84.55 85.29L83.33 86.27L82.39 87.12L81.27 86.55L80.16 85.87L79.07 85.1L78.03 84.24L77.03 83.29L76.08 82.25L75.18 81.13L74.35 79.93L73.58 78.65L72.89 77.3L72.28 75.91L71.78 74.5L71.39 73.09L71.09 71.69L70.89 70.3L70.84 69.58L96.65 63.73L96.96 64.24L97.65 65.6Z" id="d1ACOCZp0L" fill="white" fill-opacity="1" filter="url(#shadow8253771)"></path></g><use xlink:href="#h6b3utskGK" opacity="1" fill="#f4f4f4" fill-opacity="1"></use></g><g><g><filter id="shadow140479" x="67.76" y="60.46" width="22.85" height="22.85" filterUnits="userSpaceOnUse" primitiveUnits="userSpaceOnUse"><feFlood></feFlood><feComposite in2="SourceAlpha" operator="in"></feComposite><feGaussianBlur stdDeviation="1"></feGaussianBlur><feOffset dx="0" dy="0" result="afterOffset"></feOffset><feFlood flood-color="#777777" flood-opacity="0.76"></feFlood><feComposite in2="afterOffset" operator="in"></feComposite><feMorphology operator="dilate" radius="0"></feMorphology><feComposite in2="SourceAlpha" operator="out"></feComposite></filter><path d="M74.76 71.89C74.76 74.33 76.75 76.31 79.19 76.31C81.63 76.31 83.61 74.33 83.61 71.89C83.61 69.44 81.63 67.46 79.19 67.46C76.75 67.46 74.76 69.44 74.76 71.89Z" id="bxsWZPD2q" fill="white" fill-opacity="1" filter="url(#shadow140479)"></path></g><use xlink:href="#c1LFkSXeZr" opacity="1" fill="#676767" fill-opacity="1"></use></g><g><g><filter id="shadow4393791" x="-3.82" y="-6.29" width="147.08" height="115.74" filterUnits="userSpaceOnUse" primitiveUnits="userSpaceOnUse"><feFlood></feFlood><feComposite in2="SourceAlpha" operator="in"></feComposite><feGaussianBlur stdDeviation="1"></feGaussianBlur><feOffset dx="0" dy="1" result="afterOffset"></feOffset><feFlood flood-color="#000000" flood-opacity="0.5"></feFlood><feComposite in2="afterOffset" operator="in"></feComposite><feMorphology operator="dilate" radius="0"></feMorphology><feComposite in2="SourceAlpha" operator="out"></feComposite></filter><path d="M75.09 1.91L77.73 2.16L80.34 2.5L82.92 2.93L85.46 3.46L87.96 4.07L90.42 4.77L92.84 5.56L95.22 6.43L97.55 7.38L99.82 8.41L102.05 9.52L104.23 10.71L106.35 11.96L108.41 13.29L110.42 14.69L112.36 16.16L114.24 17.7L116.05 19.29L117.8 20.95L119.47 22.67L121.07 24.45L122.6 26.29L124.06 28.17L125.43 30.12L126.72 32.11L127.94 34.15L129.06 36.23L130.1 38.37L131.05 40.54L131.91 42.76L132.68 45.01L133.35 47.3L133.92 49.63L134.4 51.98L134.77 54.37L135.04 56.79L135.2 59.24L135.26 61.71L135.2 64.18L135.11 65.5L135.12 65.53L135.16 65.71L135.19 65.89L135.22 66.08L135.24 66.26L135.25 66.45L135.26 66.64L135.26 95.82L135.25 96.01L135.24 96.2L135.22 96.39L135.19 96.57L135.16 96.76L135.12 96.94L135.07 97.11L135.02 97.29L134.96 97.46L134.89 97.62L134.82 97.79L134.74 97.95L134.65 98.11L134.56 98.26L134.47 98.41L134.36 98.56L134.26 98.7L134.14 98.83L134.02 98.97L133.9 99.09L133.77 99.22L133.64 99.34L133.5 99.45L133.36 99.56L133.22 99.66L133.07 99.76L132.91 99.85L132.76 99.93L132.6 100.01L132.43 100.09L132.26 100.15L132.09 100.21L131.92 100.27L131.74 100.31L131.56 100.35L131.38 100.39L131.2 100.41L131.01 100.43L130.82 100.44L130.63 100.45L115.74 100.45L115.74 63.02L115.74 62.83L115.73 62.64L115.71 62.45L115.68 62.27L115.65 62.09L115.61 61.91L115.56 61.73L115.51 61.56L115.45 61.39L115.38 61.22L115.31 61.06L115.23 60.89L115.14 60.74L115.05 60.58L114.95 60.43L114.85 60.29L114.74 60.15L114.63 60.01L114.51 59.88L114.39 59.75L114.26 59.63L114.13 59.51L113.99 59.4L113.85 59.29L113.7 59.18L113.55 59.09L113.4 59L113.24 58.91L113.08 58.83L112.92 58.76L112.75 58.69L112.58 58.63L112.41 58.58L112.23 58.53L112.05 58.49L111.87 58.46L111.68 58.43L111.5 58.41L111.31 58.4L111.12 58.4L28.32 58.4L28.12 58.4L27.94 58.41L27.75 58.43L27.57 58.46L27.38 58.49L27.2 58.53L27.03 58.58L26.85 58.63L26.68 58.69L26.52 58.76L26.35 58.83L26.19 58.91L26.03 59L25.88 59.09L25.73 59.18L25.58 59.29L25.44 59.4L25.31 59.51L25.17 59.63L25.05 59.75L24.92 59.88L24.8 60.01L24.69 60.15L24.58 60.29L24.48 60.43L24.38 60.58L24.29 60.74L24.21 60.89L24.13 61.06L24.05 61.22L23.99 61.39L23.93 61.56L23.87 61.73L23.82 61.91L23.78 62.09L23.75 62.27L23.72 62.45L23.71 62.64L23.69 62.83L23.69 63.02L23.69 100.45L8.8 100.45L8.61 100.44L8.42 100.43L8.24 100.41L8.05 100.39L7.87 100.35L7.69 100.31L7.51 100.27L7.34 100.21L7.17 100.15L7 100.09L6.84 100.01L6.68 99.93L6.52 99.85L6.37 99.76L6.22 99.66L6.07 99.56L5.93 99.45L5.79 99.34L5.66 99.22L5.53 99.09L5.41 98.97L5.29 98.83L5.18 98.7L5.07 98.56L4.97 98.41L4.87 98.26L4.78 98.11L4.69 97.95L4.61 97.79L4.54 97.62L4.47 97.46L4.41 97.29L4.36 97.11L4.31 96.94L4.27 96.76L4.24 96.57L4.21 96.39L4.19 96.2L4.18 96.01L4.18 95.82L4.18 66.64L4.18 66.45L4.19 66.26L4.21 66.08L4.24 65.89L4.27 65.71L4.31 65.53L4.32 65.5L4.23 64.18L4.18 61.71L4.23 59.24L4.4 56.79L4.66 54.37L5.04 51.98L5.51 49.63L6.08 47.3L6.75 45.01L7.52 42.76L8.38 40.54L9.33 38.37L10.37 36.23L11.5 34.15L12.71 32.11L14 30.12L15.38 28.17L16.83 26.29L18.36 24.45L19.96 22.67L21.64 20.95L23.38 19.29L25.2 17.7L27.07 16.16L29.02 14.69L31.02 13.29L33.08 11.96L35.2 10.71L37.38 9.52L39.61 8.41L41.89 7.38L44.22 6.43L46.59 5.56L49.01 4.77L51.47 4.07L53.97 3.46L56.52 2.93L59.09 2.5L61.7 2.16L64.34 1.91L67.02 1.76L69.72 1.71L72.42 1.76L75.09 1.91Z" id="b4hYa9b5SM" fill="white" fill-opacity="1" filter="url(#shadow4393791)"></path></g><use xlink:href="#arAKcToak" opacity="1" fill="#7db06c" fill-opacity="1"></use></g><g><g><filter id="shadow891544" x="53.47" y="18.98" width="35" height="37.5" filterUnits="userSpaceOnUse" primitiveUnits="userSpaceOnUse"><feFlood></feFlood><feComposite in2="SourceAlpha" operator="in"></feComposite><feGaussianBlur stdDeviation="1"></feGaussianBlur><feOffset dx="0" dy="0" result="afterOffset"></feOffset><feFlood flood-color="#000000" flood-opacity="0.5"></feFlood><feComposite in2="afterOffset" operator="in"></feComposite><feMorphology operator="dilate" radius="0"></feMorphology><feComposite in2="SourceAlpha" operator="out"></feComposite></filter><path d="M74.21 33.72L81.47 34.96L76.22 40.98L77.46 49.48L70.97 45.47L64.48 49.48L65.72 40.98L60.47 34.96L67.72 33.72L70.97 25.98L74.21 33.72Z" id="aMIckj5IF" fill="white" fill-opacity="1" filter="url(#shadow891544)"></path></g><use xlink:href="#a1RkHXdOxm" opacity="1" fill="#fbfbfb" fill-opacity="1"></use></g><g><use xlink:href="#aFXCgSoWt" opacity="1" fill="#f4f4f4" fill-opacity="1"></use></g><g><use xlink:href="#bY4s7Br0t" opacity="1" fill="#fb7f7f" fill-opacity="1"></use></g><g><use xlink:href="#c2J6rg1Ff" opacity="1" fill="#8ab9f2" fill-opacity="1"></use></g></g></g></svg>