<?xml version="1.0" encoding="UTF-8" standalone="no"?>
<!DOCTYPE svg PUBLIC "-//W3C//DTD SVG 1.1//EN" "http://www.w3.org/Graphics/SVG/1.1/DTD/svg11.dtd">
<svg version="1.1" xmlns="http://www.w3.org/2000/svg" xmlns:xlink="http://www.w3.org/1999/xlink" preserveAspectRatio="xMidYMid meet" viewBox="0 0 400 269" width="400" height="269"><defs><path d="M107.17 111.25L109.64 112.24L112.07 113.32L114.44 114.49L116.76 115.75L119.03 117.1L121.23 118.53L123.38 120.04L125.47 121.64L127.49 123.31L129.45 125.05L131.33 126.87L133.15 128.75L134.9 130.71L136.57 132.73L138.16 134.82L139.67 136.97L141.1 139.17L142.45 141.44L143.71 143.76L144.88 146.13L145.97 148.56L146.96 151.03L147.85 153.55L148.65 156.11L149.35 158.72L149.94 161.36L150.44 164.05L150.83 166.76L151.1 169.52L151.27 172.3L151.33 175.11L151.27 177.92L151.1 180.7L150.83 183.45L150.44 186.17L149.94 188.85L149.35 191.5L148.65 194.1L147.85 196.67L146.96 199.19L145.97 201.66L144.88 204.08L143.71 206.46L142.45 208.78L141.1 211.04L139.67 213.25L138.16 215.4L136.57 217.49L134.9 219.51L133.15 221.46L131.33 223.35L129.45 225.17L127.49 226.91L125.47 228.58L123.38 230.17L121.23 231.69L119.03 233.12L116.76 234.47L114.44 235.73L112.07 236.9L109.64 237.98L107.17 238.97L104.65 239.87L102.09 240.66L99.48 241.36L96.84 241.96L94.15 242.45L91.44 242.84L88.68 243.12L85.9 243.29L83.09 243.35L80.28 243.29L77.5 243.12L74.75 242.84L72.03 242.45L69.35 241.96L66.7 241.36L64.1 240.66L61.53 239.87L59.01 238.97L56.54 237.98L54.12 236.9L51.74 235.73L49.42 234.47L47.16 233.12L44.95 231.69L42.8 230.17L40.71 228.58L38.69 226.91L36.74 225.17L34.85 223.35L33.03 221.46L31.29 219.51L29.62 217.49L28.02 215.4L26.51 213.25L25.08 211.04L23.73 208.78L22.47 206.46L21.3 204.08L20.22 201.66L19.23 199.19L18.33 196.67L17.53 194.1L16.84 191.5L16.24 188.85L15.75 186.17L15.36 183.45L15.08 180.7L14.91 177.92L14.85 175.11L14.91 172.3L15.08 169.52L15.36 166.76L15.75 164.05L16.24 161.36L16.84 158.72L17.53 156.11L18.33 153.55L19.23 151.03L20.22 148.56L21.3 146.13L22.47 143.76L23.73 141.44L25.08 139.17L26.51 136.97L28.02 134.82L29.62 132.73L31.29 130.71L33.03 128.75L34.85 126.87L36.74 125.05L38.69 123.31L40.71 121.64L42.8 120.04L44.95 118.53L47.16 117.1L49.42 115.75L51.74 114.49L54.12 113.32L56.54 112.24L59.01 111.25L61.25 110.45L61.25 40.91L104.94 40.91L104.94 110.45L107.17 111.25ZM106.57 23.4L107.05 23.47L107.52 23.56L107.99 23.68L108.44 23.83L108.89 23.99L109.32 24.18L109.74 24.39L110.14 24.63L110.54 24.88L110.91 25.15L111.28 25.45L111.62 25.76L111.95 26.09L112.26 26.43L112.55 26.79L112.83 27.17L113.08 27.56L113.31 27.97L113.52 28.39L113.71 28.82L113.88 29.26L114.02 29.72L114.14 30.18L114.24 30.66L114.3 31.14L114.35 31.63L114.36 32.13L114.35 32.63L114.3 33.12L114.24 33.6L114.14 34.07L114.02 34.54L113.88 34.99L113.71 35.44L113.52 35.87L113.31 36.29L113.08 36.69L112.83 37.09L112.55 37.46L112.26 37.83L111.95 38.17L111.62 38.5L111.28 38.81L110.91 39.1L110.54 39.38L110.14 39.63L109.74 39.86L109.32 40.07L108.89 40.26L108.44 40.43L107.99 40.57L107.52 40.69L107.05 40.79L106.57 40.85L106.08 40.9L105.58 40.91L60.6 40.91L60.11 40.9L59.61 40.85L59.13 40.79L58.66 40.69L58.19 40.57L57.74 40.43L57.3 40.26L56.86 40.07L56.44 39.86L56.04 39.63L55.65 39.38L55.27 39.1L54.91 38.81L54.56 38.5L54.23 38.17L53.92 37.83L53.63 37.46L53.36 37.09L53.1 36.69L52.87 36.29L52.66 35.87L52.47 35.44L52.3 34.99L52.16 34.54L52.04 34.07L51.95 33.6L51.88 33.12L51.84 32.63L51.82 32.13L51.84 31.63L51.88 31.14L51.95 30.66L52.04 30.18L52.16 29.72L52.3 29.26L52.47 28.82L52.66 28.39L52.87 27.97L53.1 27.56L53.36 27.17L53.63 26.79L53.92 26.43L54.23 26.09L54.56 25.76L54.91 25.45L55.27 25.15L55.65 24.88L56.04 24.63L56.44 24.39L56.86 24.18L57.3 23.99L57.74 23.83L58.19 23.68L58.66 23.56L59.13 23.47L59.61 23.4L60.11 23.36L60.6 23.35L105.58 23.35L106.08 23.36L106.57 23.4Z" id="a4SuD8dYD2"></path><path d="M143.5 177.49L143.85 177.53L144.21 177.58L144.56 177.65L144.9 177.72L145.24 177.81L145.57 177.92L145.9 178.03L146.22 178.16L146.54 178.3L146.85 178.46L147.15 178.62L147.44 178.8L147.73 178.98L148.01 179.18L148.28 179.39L148.55 179.6L148.8 179.83L149.05 180.07L149.28 180.31L149.51 180.57L149.73 180.83L149.93 181.1L150.13 181.38L150.32 181.67L150.49 181.96L150.66 182.26L150.81 182.57L150.95 182.89L151.08 183.21L151.19 183.54L151.3 183.87L151.33 184L151.02 186.17L150.52 188.85L149.92 191.5L149.22 194.1L148.41 196.67L147.51 199.19L146.51 201.66L145.42 204.08L144.24 206.46L142.97 208.78L141.61 211.04L140.17 213.25L138.64 215.4L137.04 217.49L135.35 219.51L133.6 221.46L131.76 223.35L129.86 225.17L127.89 226.91L125.85 228.58L123.75 230.17L121.58 231.69L119.36 233.12L117.07 234.47L114.73 235.73L112.34 236.9L109.9 237.98L107.41 238.97L104.87 239.87L102.28 240.66L99.66 241.36L96.99 241.96L94.28 242.45L91.55 242.84L88.77 243.12L85.97 243.29L83.13 243.35L80.3 243.29L77.5 243.12L74.72 242.84L71.98 242.45L69.28 241.96L66.61 241.36L63.99 240.66L61.4 239.87L58.86 238.97L56.37 237.98L53.93 236.9L51.53 235.73L49.19 234.47L46.91 233.12L44.68 231.69L42.52 230.17L40.42 228.58L38.38 226.91L36.41 225.17L34.5 223.35L32.67 221.46L30.91 219.51L29.23 217.49L27.63 215.4L26.1 213.25L24.66 211.04L23.3 208.78L22.03 206.46L20.85 204.08L19.76 201.66L18.76 199.19L17.86 196.67L17.05 194.1L16.35 191.5L15.74 188.85L15.25 186.17L14.86 183.45L14.85 183.39L14.92 183.21L15.04 182.89L15.18 182.57L15.34 182.26L15.5 181.96L15.68 181.67L15.86 181.38L16.06 181.1L16.27 180.83L16.48 180.57L16.71 180.31L16.95 180.07L17.19 179.83L17.45 179.6L17.71 179.39L17.98 179.18L18.26 178.98L18.55 178.8L18.84 178.62L19.14 178.46L19.45 178.3L19.77 178.16L20.09 178.03L20.42 177.92L20.75 177.81L21.09 177.72L21.44 177.65L21.79 177.58L22.14 177.53L22.5 177.49L22.86 177.47L23.23 177.46L142.77 177.46L143.13 177.47L143.5 177.49Z" id="a1fu7FNK9A"></path><path d="M67.67 201.02C67.67 207.88 62.11 213.44 55.25 213.44C48.39 213.44 42.83 207.88 42.83 201.02C42.83 194.17 48.39 188.6 55.25 188.6C62.11 188.6 67.67 194.17 67.67 201.02Z" id="f1yoct3OBd"></path><path d="M127.13 179.38C127.13 186.23 121.57 191.8 114.71 191.8C107.86 191.8 102.29 186.23 102.29 179.38C102.29 172.52 107.86 166.95 114.71 166.95C121.57 166.95 127.13 172.52 127.13 179.38Z" id="b2TLxNSszQ"></path><path d="M114.71 218.61C114.71 223.14 111.04 226.81 106.51 226.81C101.98 226.81 98.3 223.14 98.3 218.61C98.3 214.08 101.98 210.41 106.51 210.41C111.04 210.41 114.71 214.08 114.71 218.61Z" id="b2ih0G8kpJ"></path><path d="M232.1 67.66L232.53 67.75L232.94 67.86L233.35 68.01L233.74 68.18L234.11 68.38L234.46 68.61L234.8 68.86L235.12 69.13L235.42 69.43L235.69 69.75L235.94 70.08L236.17 70.44L236.37 70.81L236.54 71.2L236.69 71.6L236.8 72.02L236.88 72.45L236.94 72.89L236.95 73.34L236.94 73.79L236.88 74.23L236.8 74.65L236.69 75.07L236.54 75.47L236.37 75.86L236.17 76.24L235.94 76.59L235.69 76.93L235.42 77.25L235.12 77.54L234.8 77.82L234.46 78.07L234.11 78.3L233.74 78.5L233.35 78.67L232.94 78.81L232.53 78.93L232.1 79.01L231.66 79.06L231.21 79.08L226.31 79.08L226.31 223.81L225.83 223.81L225.75 225.11L225.54 226.36L225.19 227.57L224.72 228.73L224.13 229.82L223.43 230.84L222.63 231.79L221.73 232.65L220.74 233.42L219.67 234.09L218.53 234.66L217.33 235.11L216.07 235.44L214.76 235.65L213.41 235.72L212.05 235.65L210.74 235.44L209.48 235.11L208.28 234.66L207.14 234.09L206.07 233.42L205.08 232.65L204.19 231.79L203.38 230.84L202.68 229.82L202.09 228.73L201.62 227.57L201.27 226.36L201.06 225.11L200.98 223.81L200.5 223.81L200.5 79.08L195.6 79.08L195.15 79.06L194.71 79.01L194.28 78.93L193.87 78.81L193.46 78.67L193.08 78.5L192.7 78.3L192.35 78.07L192.01 77.82L191.69 77.54L191.39 77.25L191.12 76.93L190.87 76.59L190.64 76.24L190.44 75.86L190.27 75.47L190.12 75.07L190.01 74.65L189.93 74.23L189.88 73.79L189.86 73.34L189.88 72.89L189.93 72.45L190.01 72.02L190.12 71.6L190.27 71.2L190.44 70.81L190.64 70.44L190.87 70.08L191.12 69.75L191.39 69.43L191.69 69.13L192.01 68.86L192.35 68.61L192.7 68.38L193.08 68.18L193.46 68.01L193.87 67.86L194.28 67.75L194.71 67.66L195.15 67.61L195.6 67.59L231.21 67.59L231.66 67.61L232.1 67.66Z" id="cdUPA37KC"></path><path d="M201.51 137.19L201.85 137.05L202.21 136.93L202.57 136.81L202.94 136.71L203.31 136.63L203.69 136.56L204.08 136.51L204.47 136.47L204.86 136.44L205.26 136.43L222.98 136.43L223.38 136.44L223.78 136.47L224.16 136.51L224.55 136.56L224.93 136.63L225.3 136.71L225.67 136.81L226.03 136.93L226.31 137.03L226.31 223.81L225.83 223.81L225.75 225.11L225.54 226.36L225.19 227.57L224.72 228.73L224.13 229.82L223.43 230.84L222.63 231.79L221.73 232.65L220.74 233.42L219.67 234.09L218.53 234.66L217.33 235.11L216.07 235.44L214.76 235.65L213.41 235.72L212.05 235.65L210.74 235.44L209.48 235.11L208.28 234.66L207.14 234.09L206.07 233.42L205.08 232.65L204.19 231.79L203.38 230.84L202.68 229.82L202.09 228.73L201.62 227.57L201.27 226.36L201.06 225.11L200.98 223.81L200.5 223.81L200.5 137.69L200.83 137.51L201.16 137.34L201.51 137.19Z" id="a1vShS2zZ"></path><path d="M221.61 187.49C221.61 192.02 217.93 195.7 213.41 195.7C208.88 195.7 205.2 192.02 205.2 187.49C205.2 182.97 208.88 179.29 213.41 179.29C217.93 179.29 221.61 182.97 221.61 187.49Z" id="d6BOymIFix"></path><path d="M221.61 161.53C221.61 166.05 217.93 169.73 213.41 169.73C208.88 169.73 205.2 166.05 205.2 161.53C205.2 157 208.88 153.32 213.41 153.32C217.93 153.32 221.61 157 221.61 161.53Z" id="aTDB2o1ad"></path><path d="M221.61 137.73C221.61 142.26 217.93 145.94 213.41 145.94C208.88 145.94 205.2 142.26 205.2 137.73C205.2 133.21 208.88 129.53 213.41 129.53C217.93 129.53 221.61 133.21 221.61 137.73Z" id="b1eh6gpf0"></path><path d="M300.01 67.66L300.44 67.75L300.86 67.86L301.26 68.01L301.65 68.18L302.02 68.38L302.38 68.61L302.72 68.86L303.04 69.13L303.33 69.43L303.61 69.75L303.86 70.08L304.09 70.44L304.29 70.81L304.46 71.2L304.6 71.6L304.72 72.02L304.8 72.45L304.85 72.89L304.87 73.34L304.85 73.79L304.8 74.23L304.72 74.65L304.6 75.07L304.46 75.47L304.29 75.86L304.09 76.24L303.86 76.59L303.61 76.93L303.33 77.25L303.04 77.54L302.72 77.82L302.38 78.07L302.02 78.3L301.65 78.5L301.26 78.67L300.86 78.81L300.44 78.93L300.01 79.01L299.57 79.06L299.13 79.08L294.23 79.08L294.23 223.81L293.74 223.81L293.67 225.11L293.46 226.36L293.11 227.57L292.64 228.73L292.05 229.82L291.35 230.84L290.54 231.79L289.64 232.65L288.66 233.42L287.59 234.09L286.45 234.66L285.25 235.11L283.99 235.44L282.67 235.65L281.32 235.72L279.97 235.65L278.66 235.44L277.4 235.11L276.19 234.66L275.05 234.09L273.99 233.42L273 232.65L272.1 231.79L271.3 230.84L270.6 229.82L270.01 228.73L269.53 227.57L269.19 226.36L268.97 225.11L268.9 223.81L268.42 223.81L268.42 79.08L263.52 79.08L263.07 79.06L262.63 79.01L262.2 78.93L261.78 78.81L261.38 78.67L260.99 78.5L260.62 78.3L260.26 78.07L259.93 77.82L259.61 77.54L259.31 77.25L259.04 76.93L258.79 76.59L258.56 76.24L258.36 75.86L258.19 75.47L258.04 75.07L257.93 74.65L257.84 74.23L257.79 73.79L257.77 73.34L257.79 72.89L257.84 72.45L257.93 72.02L258.04 71.6L258.19 71.2L258.36 70.81L258.56 70.44L258.79 70.08L259.04 69.75L259.31 69.43L259.61 69.13L259.93 68.86L260.26 68.61L260.62 68.38L260.99 68.18L261.38 68.01L261.78 67.86L262.2 67.75L262.63 67.66L263.07 67.61L263.52 67.59L299.13 67.59L299.57 67.61L300.01 67.66Z" id="cwCXnAzbj"></path><path d="M210.74 235.44L209.48 235.11L208.28 234.66L207.14 234.09L206.07 233.42L205.08 232.65L204.19 231.79L203.38 230.84L202.68 229.82L202.09 228.73L201.62 227.57L201.27 226.36L201.06 225.11L200.98 223.81L200.5 223.81L200.5 79.08L195.6 79.08L195.15 79.06L194.71 79.01L194.28 78.93L193.87 78.81L193.46 78.67L193.08 78.5L192.7 78.3L192.35 78.07L192.01 77.82L191.69 77.54L191.39 77.25L191.12 76.93L190.87 76.59L190.64 76.24L190.44 75.86L190.27 75.47L190.12 75.07L190.01 74.65L189.93 74.23L189.88 73.79L189.86 73.34L189.88 72.89L189.93 72.45L190.01 72.02L190.12 71.6L190.27 71.2L190.44 70.81L190.64 70.44L190.87 70.08L191.12 69.75L191.39 69.43L191.69 69.13L192.01 68.86L192.35 68.61L192.7 68.38L193.08 68.18L193.46 68.01L193.87 67.86L194.28 67.75L194.71 67.66L195.15 67.61L195.6 67.59L213.41 67.59L213.41 235.72L212.05 235.65L210.74 235.44Z" id="a4w1olu5Gs"></path><path d="M269.42 137.19L269.77 137.05L270.13 136.93L270.49 136.81L270.86 136.71L271.23 136.63L271.61 136.56L271.99 136.51L272.38 136.47L272.78 136.44L273.17 136.43L290.9 136.43L291.3 136.44L291.69 136.47L292.08 136.51L292.46 136.56L292.84 136.63L293.22 136.71L293.59 136.81L293.95 136.93L294.23 137.03L294.23 223.81L293.74 223.81L293.67 225.11L293.46 226.36L293.11 227.57L292.64 228.73L292.05 229.82L291.35 230.84L290.54 231.79L289.64 232.65L288.66 233.42L287.59 234.09L286.45 234.66L285.25 235.11L283.99 235.44L282.67 235.65L281.32 235.72L279.97 235.65L278.66 235.44L277.4 235.11L276.19 234.66L275.05 234.09L273.99 233.42L273 232.65L272.1 231.79L271.3 230.84L270.6 229.82L270.01 228.73L269.53 227.57L269.19 226.36L268.97 225.11L268.9 223.81L268.42 223.81L268.42 137.69L268.74 137.51L269.08 137.34L269.42 137.19Z" id="i1NsL5MrwS"></path><path d="M289.53 187.49C289.53 192.02 285.85 195.7 281.32 195.7C276.79 195.7 273.12 192.02 273.12 187.49C273.12 182.97 276.79 179.29 281.32 179.29C285.85 179.29 289.53 182.97 289.53 187.49Z" id="b3ergUCSTs"></path><path d="M289.53 161.53C289.53 166.05 285.85 169.73 281.32 169.73C276.79 169.73 273.12 166.05 273.12 161.53C273.12 157 276.79 153.32 281.32 153.32C285.85 153.32 289.53 157 289.53 161.53Z" id="btKQi07vX"></path><path d="M289.53 137.73C289.53 142.26 285.85 145.94 281.32 145.94C276.79 145.94 273.12 142.26 273.12 137.73C273.12 133.21 276.79 129.53 281.32 129.53C285.85 129.53 289.53 133.21 289.53 137.73Z" id="f91lmc85f2"></path><path d="M278.66 235.44L277.4 235.11L276.19 234.66L275.05 234.09L273.99 233.42L273 232.65L272.1 231.79L271.3 230.84L270.6 229.82L270.01 228.73L269.53 227.57L269.19 226.36L268.97 225.11L268.9 223.81L268.42 223.81L268.42 79.08L263.52 79.08L263.07 79.06L262.63 79.01L262.2 78.93L261.78 78.81L261.38 78.67L260.99 78.5L260.62 78.3L260.26 78.07L259.93 77.82L259.61 77.54L259.31 77.25L259.04 76.93L258.79 76.59L258.56 76.24L258.36 75.86L258.19 75.47L258.04 75.07L257.93 74.65L257.84 74.23L257.79 73.79L257.77 73.34L257.79 72.89L257.84 72.45L257.93 72.02L258.04 71.6L258.19 71.2L258.36 70.81L258.56 70.44L258.79 70.08L259.04 69.75L259.31 69.43L259.61 69.13L259.93 68.86L260.26 68.61L260.62 68.38L260.99 68.18L261.38 68.01L261.78 67.86L262.2 67.75L262.63 67.66L263.07 67.61L263.52 67.59L281.32 67.59L281.32 235.72L279.97 235.65L278.66 235.44Z" id="cnIMuDYU"></path><path d="M369.26 67.66L369.69 67.75L370.11 67.86L370.51 68.01L370.9 68.18L371.27 68.38L371.63 68.61L371.97 68.86L372.29 69.13L372.58 69.43L372.86 69.75L373.11 70.08L373.34 70.44L373.54 70.81L373.71 71.2L373.85 71.6L373.97 72.02L374.05 72.45L374.1 72.89L374.12 73.34L374.1 73.79L374.05 74.23L373.97 74.65L373.85 75.07L373.71 75.47L373.54 75.86L373.34 76.24L373.11 76.59L372.86 76.93L372.58 77.25L372.29 77.54L371.97 77.82L371.63 78.07L371.27 78.3L370.9 78.5L370.51 78.67L370.11 78.81L369.69 78.93L369.26 79.01L368.82 79.06L368.38 79.08L363.48 79.08L363.48 223.81L362.99 223.81L362.92 225.11L362.71 226.36L362.36 227.57L361.89 228.73L361.3 229.82L360.6 230.84L359.79 231.79L358.89 232.65L357.91 233.42L356.84 234.09L355.7 234.66L354.5 235.11L353.24 235.44L351.92 235.65L350.57 235.72L349.22 235.65L347.91 235.44L346.65 235.11L345.44 234.66L344.3 234.09L343.24 233.42L342.25 232.65L341.35 231.79L340.55 230.84L339.85 229.82L339.26 228.73L338.78 227.57L338.44 226.36L338.22 225.11L338.15 223.81L337.67 223.81L337.67 79.08L332.77 79.08L332.32 79.06L331.88 79.01L331.45 78.93L331.03 78.81L330.63 78.67L330.24 78.5L329.87 78.3L329.51 78.07L329.18 77.82L328.86 77.54L328.56 77.25L328.29 76.93L328.04 76.59L327.81 76.24L327.61 75.86L327.44 75.47L327.29 75.07L327.18 74.65L327.09 74.23L327.04 73.79L327.02 73.34L327.04 72.89L327.09 72.45L327.18 72.02L327.29 71.6L327.44 71.2L327.61 70.81L327.81 70.44L328.04 70.08L328.29 69.75L328.56 69.43L328.86 69.13L329.18 68.86L329.51 68.61L329.87 68.38L330.24 68.18L330.63 68.01L331.03 67.86L331.45 67.75L331.88 67.66L332.32 67.61L332.77 67.59L368.38 67.59L368.82 67.61L369.26 67.66Z" id="aAORL2Unb"></path><path d="M338.67 137.19L339.02 137.05L339.38 136.93L339.74 136.81L340.11 136.71L340.48 136.63L340.86 136.56L341.24 136.51L341.63 136.47L342.03 136.44L342.42 136.43L360.15 136.43L360.55 136.44L360.94 136.47L361.33 136.51L361.71 136.56L362.09 136.63L362.47 136.71L362.84 136.81L363.2 136.93L363.48 137.03L363.48 223.81L362.99 223.81L362.92 225.11L362.71 226.36L362.36 227.57L361.89 228.73L361.3 229.82L360.6 230.84L359.79 231.79L358.89 232.65L357.91 233.42L356.84 234.09L355.7 234.66L354.5 235.11L353.24 235.44L351.92 235.65L350.57 235.72L349.22 235.65L347.91 235.44L346.65 235.11L345.44 234.66L344.3 234.09L343.24 233.42L342.25 232.65L341.35 231.79L340.55 230.84L339.85 229.82L339.26 228.73L338.78 227.57L338.44 226.36L338.22 225.11L338.15 223.81L337.67 223.81L337.67 137.69L337.99 137.51L338.33 137.34L338.67 137.19Z" id="akk1mgUkt"></path><path d="M358.78 187.49C358.78 192.02 355.1 195.7 350.57 195.7C346.04 195.7 342.37 192.02 342.37 187.49C342.37 182.97 346.04 179.29 350.57 179.29C355.1 179.29 358.78 182.97 358.78 187.49Z" id="a17lIjltcT"></path><path d="M358.78 161.53C358.78 166.05 355.1 169.73 350.57 169.73C346.04 169.73 342.37 166.05 342.37 161.53C342.37 157 346.04 153.32 350.57 153.32C355.1 153.32 358.78 157 358.78 161.53Z" id="gyQncSKYS"></path><path d="M358.78 137.73C358.78 142.26 355.1 145.94 350.57 145.94C346.04 145.94 342.37 142.26 342.37 137.73C342.37 133.21 346.04 129.53 350.57 129.53C355.1 129.53 358.78 133.21 358.78 137.73Z" id="l1ooUrL6qr"></path><path d="M347.91 235.44L346.65 235.11L345.44 234.66L344.3 234.09L343.24 233.42L342.25 232.65L341.35 231.79L340.55 230.84L339.85 229.82L339.26 228.73L338.78 227.57L338.44 226.36L338.22 225.11L338.15 223.81L337.67 223.81L337.67 79.08L332.77 79.08L332.32 79.06L331.88 79.01L331.45 78.93L331.03 78.81L330.63 78.67L330.24 78.5L329.87 78.3L329.51 78.07L329.18 77.82L328.86 77.54L328.56 77.25L328.29 76.93L328.04 76.59L327.81 76.24L327.61 75.86L327.44 75.47L327.29 75.07L327.18 74.65L327.09 74.23L327.04 73.79L327.02 73.34L327.04 72.89L327.09 72.45L327.18 72.02L327.29 71.6L327.44 71.2L327.61 70.81L327.81 70.44L328.04 70.08L328.29 69.75L328.56 69.43L328.86 69.13L329.18 68.86L329.51 68.61L329.87 68.38L330.24 68.18L330.63 68.01L331.03 67.86L331.45 67.75L331.88 67.66L332.32 67.61L332.77 67.59L350.57 67.59L350.57 235.72L349.22 235.65L347.91 235.44Z" id="a3aprFK889"></path><path d="M82.94 109.57L81.45 109.84L79.97 110.23L78.52 110.71L77.08 111.3L75.67 111.98L74.28 112.77L72.92 113.64L71.58 114.62L70.26 115.68L68.97 116.83L67.72 118.07L66.49 119.39L65.29 120.8L64.13 122.28L62.99 123.85L61.9 125.48L60.84 127.2L59.81 128.98L58.83 130.83L57.88 132.76L56.98 134.74L56.11 136.79L55.29 138.9L54.52 141.07L53.79 143.29L53.1 145.57L52.47 147.9L51.88 150.28L51.34 152.71L50.86 155.18L50.43 157.7L50.05 160.26L49.72 162.85L49.46 165.49L49.25 168.15L49.09 170.86L49 173.59L48.97 176.35L49 179.11L49.09 181.84L49.25 184.54L49.46 187.21L49.72 189.84L50.05 192.44L50.43 195L50.86 197.52L51.34 199.99L51.88 202.42L52.47 204.8L53.1 207.13L53.79 209.41L54.52 211.63L55.29 213.8L56.11 215.91L56.98 217.96L57.88 219.94L58.83 221.86L59.81 223.71L60.84 225.5L61.9 227.21L62.99 228.85L64.13 230.41L65.29 231.9L66.49 233.3L67.72 234.63L68.97 235.86L70.26 237.02L71.58 238.08L72.92 239.05L74.28 239.93L75.67 240.71L77.08 241.4L78.52 241.99L79.97 242.47L81.45 242.85L82.94 243.13L83.09 243.14L83.09 243.35L80.28 243.29L77.5 243.12L74.75 242.84L72.03 242.45L69.35 241.96L66.7 241.36L64.1 240.66L61.53 239.87L59.01 238.97L56.54 237.98L54.12 236.9L51.74 235.73L49.42 234.47L47.16 233.12L44.95 231.69L42.8 230.17L40.71 228.58L38.69 226.91L36.74 225.17L34.85 223.35L33.03 221.46L31.29 219.51L29.62 217.49L28.02 215.4L26.51 213.25L25.08 211.04L23.73 208.78L22.47 206.46L21.3 204.08L20.22 201.66L19.23 199.19L18.33 196.67L17.53 194.1L16.84 191.5L16.24 188.85L15.75 186.17L15.36 183.45L15.08 180.7L14.91 177.92L14.85 175.11L14.91 172.3L15.08 169.52L15.36 166.76L15.75 164.05L16.24 161.36L16.84 158.72L17.53 156.11L18.33 153.55L19.23 151.03L20.22 148.56L21.3 146.13L22.47 143.76L23.73 141.44L25.08 139.17L26.51 136.97L28.02 134.82L29.62 132.73L31.29 130.71L33.03 128.75L34.85 126.87L36.74 125.05L38.69 123.31L40.71 121.64L42.8 120.04L44.95 118.53L47.16 117.1L49.42 115.75L51.74 114.49L54.12 113.32L56.54 112.24L59.01 111.25L61.25 110.45L61.25 40.91L60.6 40.91L60.11 40.9L59.61 40.85L59.13 40.79L58.66 40.69L58.19 40.57L57.74 40.43L57.3 40.26L56.86 40.07L56.44 39.86L56.04 39.63L55.65 39.38L55.27 39.1L54.91 38.81L54.56 38.5L54.23 38.17L53.92 37.83L53.63 37.46L53.36 37.09L53.1 36.69L52.87 36.29L52.66 35.87L52.47 35.44L52.3 34.99L52.16 34.54L52.04 34.07L51.95 33.6L51.88 33.12L51.84 32.63L51.82 32.13L51.84 31.63L51.88 31.14L51.95 30.66L52.04 30.18L52.16 29.72L52.3 29.26L52.47 28.82L52.66 28.39L52.87 27.97L53.1 27.56L53.36 27.17L53.63 26.79L53.92 26.43L54.23 26.09L54.56 25.76L54.91 25.45L55.27 25.15L55.65 24.88L56.04 24.63L56.44 24.39L56.86 24.18L57.3 23.99L57.74 23.83L58.19 23.68L58.66 23.56L59.13 23.47L59.61 23.4L60.11 23.36L60.6 23.35L83.09 23.35L83.09 109.55L82.94 109.57Z" id="czsfAVMyL"></path><path d="M173.38 106.3L389.26 106.3L389.26 113.93L173.38 113.93L173.38 106.3Z" id="i25VQqywey"></path><path d="M173.38 235.72L389.26 235.72L389.26 243.35L173.38 243.35L173.38 235.72Z" id="bkMSUqtr2"></path><path d="M182.62 113.93L187.62 113.93L187.62 235.72L182.62 235.72L182.62 113.93Z" id="d5zSUw1tK"></path><path d="M376.12 113.93L381.12 113.93L381.12 235.72L376.12 235.72L376.12 113.93Z" id="a2tSeBXD9x"></path></defs><g><g><g><g><filter id="shadow15189144" x="5.85" y="14.35" width="154.48" height="239" filterUnits="userSpaceOnUse" primitiveUnits="userSpaceOnUse"><feFlood></feFlood><feComposite in2="SourceAlpha" operator="in"></feComposite><feGaussianBlur stdDeviation="1"></feGaussianBlur><feOffset dx="0" dy="1" result="afterOffset"></feOffset><feFlood flood-color="#000000" flood-opacity="0.5"></feFlood><feComposite in2="afterOffset" operator="in"></feComposite><feMorphology operator="dilate" radius="1"></feMorphology><feComposite in2="SourceAlpha" operator="out"></feComposite></filter><path d="M107.17 111.25L109.64 112.24L112.07 113.32L114.44 114.49L116.76 115.75L119.03 117.1L121.23 118.53L123.38 120.04L125.47 121.64L127.49 123.31L129.45 125.05L131.33 126.87L133.15 128.75L134.9 130.71L136.57 132.73L138.16 134.82L139.67 136.97L141.1 139.17L142.45 141.44L143.71 143.76L144.88 146.13L145.97 148.56L146.96 151.03L147.85 153.55L148.65 156.11L149.35 158.72L149.94 161.36L150.44 164.05L150.83 166.76L151.1 169.52L151.27 172.3L151.33 175.11L151.27 177.92L151.1 180.7L150.83 183.45L150.44 186.17L149.94 188.85L149.35 191.5L148.65 194.1L147.85 196.67L146.96 199.19L145.97 201.66L144.88 204.08L143.71 206.46L142.45 208.78L141.1 211.04L139.67 213.25L138.16 215.4L136.57 217.49L134.9 219.51L133.15 221.46L131.33 223.35L129.45 225.17L127.49 226.91L125.47 228.58L123.38 230.17L121.23 231.69L119.03 233.12L116.76 234.47L114.44 235.73L112.07 236.9L109.64 237.98L107.17 238.97L104.65 239.87L102.09 240.66L99.48 241.36L96.84 241.96L94.15 242.45L91.44 242.84L88.68 243.12L85.9 243.29L83.09 243.35L80.28 243.29L77.5 243.12L74.75 242.84L72.03 242.45L69.35 241.96L66.7 241.36L64.1 240.66L61.53 239.87L59.01 238.97L56.54 237.98L54.12 236.9L51.74 235.73L49.42 234.47L47.16 233.12L44.95 231.69L42.8 230.17L40.71 228.58L38.69 226.91L36.74 225.17L34.85 223.35L33.03 221.46L31.29 219.51L29.62 217.49L28.02 215.4L26.51 213.25L25.08 211.04L23.73 208.78L22.47 206.46L21.3 204.08L20.22 201.66L19.23 199.19L18.33 196.67L17.53 194.1L16.84 191.5L16.24 188.85L15.75 186.17L15.36 183.45L15.08 180.7L14.91 177.92L14.85 175.11L14.91 172.3L15.08 169.52L15.36 166.76L15.75 164.05L16.24 161.36L16.84 158.72L17.53 156.11L18.33 153.55L19.23 151.03L20.22 148.56L21.3 146.13L22.47 143.76L23.73 141.44L25.08 139.17L26.51 136.97L28.02 134.82L29.62 132.73L31.29 130.71L33.03 128.75L34.85 126.87L36.74 125.05L38.69 123.31L40.71 121.64L42.8 120.04L44.95 118.53L47.16 117.1L49.42 115.75L51.74 114.49L54.12 113.32L56.54 112.24L59.01 111.25L61.25 110.45L61.25 40.91L104.94 40.91L104.94 110.45L107.17 111.25ZM106.57 23.4L107.05 23.47L107.52 23.56L107.99 23.68L108.44 23.83L108.89 23.99L109.32 24.18L109.74 24.39L110.14 24.63L110.54 24.88L110.91 25.15L111.28 25.45L111.62 25.76L111.95 26.09L112.26 26.43L112.55 26.79L112.83 27.17L113.08 27.56L113.31 27.97L113.52 28.39L113.71 28.82L113.88 29.26L114.02 29.72L114.14 30.18L114.24 30.66L114.3 31.14L114.35 31.63L114.36 32.13L114.35 32.63L114.3 33.12L114.24 33.6L114.14 34.07L114.02 34.54L113.88 34.99L113.71 35.44L113.52 35.87L113.31 36.29L113.08 36.69L112.83 37.09L112.55 37.46L112.26 37.83L111.95 38.17L111.62 38.5L111.28 38.81L110.91 39.1L110.54 39.38L110.14 39.63L109.74 39.86L109.32 40.07L108.89 40.26L108.44 40.43L107.99 40.57L107.52 40.69L107.05 40.79L106.57 40.85L106.08 40.9L105.58 40.91L60.6 40.91L60.11 40.9L59.61 40.85L59.13 40.79L58.66 40.69L58.19 40.57L57.74 40.43L57.3 40.26L56.86 40.07L56.44 39.86L56.04 39.63L55.65 39.38L55.27 39.1L54.91 38.81L54.56 38.5L54.23 38.17L53.92 37.83L53.63 37.46L53.36 37.09L53.1 36.69L52.87 36.29L52.66 35.87L52.47 35.44L52.3 34.99L52.16 34.54L52.04 34.07L51.95 33.6L51.88 33.12L51.84 32.63L51.82 32.13L51.84 31.63L51.88 31.14L51.95 30.66L52.04 30.18L52.16 29.72L52.3 29.26L52.47 28.82L52.66 28.39L52.87 27.97L53.1 27.56L53.36 27.17L53.63 26.79L53.92 26.43L54.23 26.09L54.56 25.76L54.91 25.45L55.27 25.15L55.65 24.88L56.04 24.63L56.44 24.39L56.86 24.18L57.3 23.99L57.74 23.83L58.19 23.68L58.66 23.56L59.13 23.47L59.61 23.4L60.11 23.36L60.6 23.35L105.58 23.35L106.08 23.36L106.57 23.4Z" id="a1YC1qGyxU" fill="white" fill-opacity="1" filter="url(#shadow15189144)"></path></g><use xlink:href="#a4SuD8dYD2" opacity="1" fill="#dad4d4" fill-opacity="1"></use></g><g><use xlink:href="#a1fu7FNK9A" opacity="1" fill="#6fcb56" fill-opacity="1"></use></g><g><use xlink:href="#f1yoct3OBd" opacity="1" fill="#ffffff" fill-opacity="0.35"></use></g><g><use xlink:href="#b2TLxNSszQ" opacity="1" fill="#ffffff" fill-opacity="0.35"></use></g><g><use xlink:href="#b2ih0G8kpJ" opacity="1" fill="#ffffff" fill-opacity="0.35"></use></g><g><g><filter id="shadow13229569" x="180.86" y="58.59" width="65.09" height="187.12" filterUnits="userSpaceOnUse" primitiveUnits="userSpaceOnUse"><feFlood></feFlood><feComposite in2="SourceAlpha" operator="in"></feComposite><feGaussianBlur stdDeviation="1"></feGaussianBlur><feOffset dx="0" dy="1" result="afterOffset"></feOffset><feFlood flood-color="#000000" flood-opacity="0.5"></feFlood><feComposite in2="afterOffset" operator="in"></feComposite><feMorphology operator="dilate" radius="1"></feMorphology><feComposite in2="SourceAlpha" operator="out"></feComposite></filter><path d="M232.1 67.66L232.53 67.75L232.94 67.86L233.35 68.01L233.74 68.18L234.11 68.38L234.46 68.61L234.8 68.86L235.12 69.13L235.42 69.43L235.69 69.75L235.94 70.08L236.17 70.44L236.37 70.81L236.54 71.2L236.69 71.6L236.8 72.02L236.88 72.45L236.94 72.89L236.95 73.34L236.94 73.79L236.88 74.23L236.8 74.65L236.69 75.07L236.54 75.47L236.37 75.86L236.17 76.24L235.94 76.59L235.69 76.93L235.42 77.25L235.12 77.54L234.8 77.82L234.46 78.07L234.11 78.3L233.74 78.5L233.35 78.67L232.94 78.81L232.53 78.93L232.1 79.01L231.66 79.06L231.21 79.08L226.31 79.08L226.31 223.81L225.83 223.81L225.75 225.11L225.54 226.36L225.19 227.57L224.72 228.73L224.13 229.82L223.43 230.84L222.63 231.79L221.73 232.65L220.74 233.42L219.67 234.09L218.53 234.66L217.33 235.11L216.07 235.44L214.76 235.65L213.41 235.72L212.05 235.65L210.74 235.44L209.48 235.11L208.28 234.66L207.14 234.09L206.07 233.42L205.08 232.65L204.19 231.79L203.38 230.84L202.68 229.82L202.09 228.73L201.62 227.57L201.27 226.36L201.06 225.11L200.98 223.81L200.5 223.81L200.5 79.08L195.6 79.08L195.15 79.06L194.71 79.01L194.28 78.93L193.87 78.81L193.46 78.67L193.08 78.5L192.7 78.3L192.35 78.07L192.01 77.82L191.69 77.54L191.39 77.25L191.12 76.93L190.87 76.59L190.64 76.24L190.44 75.86L190.27 75.47L190.12 75.07L190.01 74.65L189.93 74.23L189.88 73.79L189.86 73.34L189.88 72.89L189.93 72.45L190.01 72.02L190.12 71.6L190.27 71.2L190.44 70.81L190.64 70.44L190.87 70.08L191.12 69.75L191.39 69.43L191.69 69.13L192.01 68.86L192.35 68.61L192.7 68.38L193.08 68.18L193.46 68.01L193.87 67.86L194.28 67.75L194.71 67.66L195.15 67.61L195.6 67.59L231.21 67.59L231.66 67.61L232.1 67.66Z" id="bwdzwenPN" fill="white" fill-opacity="1" filter="url(#shadow13229569)"></path></g><use xlink:href="#cdUPA37KC" opacity="1" fill="#dad4d4" fill-opacity="1"></use></g><g><use xlink:href="#a1vShS2zZ" opacity="1" fill="#9f63b3" fill-opacity="1"></use></g><g><use xlink:href="#d6BOymIFix" opacity="1" fill="#ffffff" fill-opacity="0.35"></use></g><g><use xlink:href="#aTDB2o1ad" opacity="1" fill="#ffffff" fill-opacity="0.35"></use></g><g><use xlink:href="#b1eh6gpf0" opacity="1" fill="#ffffff" fill-opacity="0.35"></use></g><g><g><filter id="shadow1992664" x="248.77" y="58.59" width="65.09" height="187.12" filterUnits="userSpaceOnUse" primitiveUnits="userSpaceOnUse"><feFlood></feFlood><feComposite in2="SourceAlpha" operator="in"></feComposite><feGaussianBlur stdDeviation="1"></feGaussianBlur><feOffset dx="0" dy="1" result="afterOffset"></feOffset><feFlood flood-color="#000000" flood-opacity="0.5"></feFlood><feComposite in2="afterOffset" operator="in"></feComposite><feMorphology operator="dilate" radius="1"></feMorphology><feComposite in2="SourceAlpha" operator="out"></feComposite></filter><path d="M300.01 67.66L300.44 67.75L300.86 67.86L301.26 68.01L301.65 68.18L302.02 68.38L302.38 68.61L302.72 68.86L303.04 69.13L303.33 69.43L303.61 69.75L303.86 70.08L304.09 70.44L304.29 70.81L304.46 71.2L304.6 71.6L304.72 72.02L304.8 72.45L304.85 72.89L304.87 73.34L304.85 73.79L304.8 74.23L304.72 74.65L304.6 75.07L304.46 75.47L304.29 75.86L304.09 76.24L303.86 76.59L303.61 76.93L303.33 77.25L303.04 77.54L302.72 77.82L302.38 78.07L302.02 78.3L301.65 78.5L301.26 78.67L300.86 78.81L300.44 78.93L300.01 79.01L299.57 79.06L299.13 79.08L294.23 79.08L294.23 223.81L293.74 223.81L293.67 225.11L293.46 226.36L293.11 227.57L292.64 228.73L292.05 229.82L291.35 230.84L290.54 231.79L289.64 232.65L288.66 233.42L287.59 234.09L286.45 234.66L285.25 235.11L283.99 235.44L282.67 235.65L281.32 235.72L279.97 235.65L278.66 235.44L277.4 235.11L276.19 234.66L275.05 234.09L273.99 233.42L273 232.65L272.1 231.79L271.3 230.84L270.6 229.82L270.01 228.73L269.53 227.57L269.19 226.36L268.97 225.11L268.9 223.81L268.42 223.81L268.42 79.08L263.52 79.08L263.07 79.06L262.63 79.01L262.2 78.93L261.78 78.81L261.38 78.67L260.99 78.5L260.62 78.3L260.26 78.07L259.93 77.82L259.61 77.54L259.31 77.25L259.04 76.93L258.79 76.59L258.56 76.24L258.36 75.86L258.19 75.47L258.04 75.07L257.93 74.65L257.84 74.23L257.79 73.79L257.77 73.34L257.79 72.89L257.84 72.45L257.93 72.02L258.04 71.6L258.19 71.2L258.36 70.81L258.56 70.44L258.79 70.08L259.04 69.75L259.31 69.43L259.61 69.13L259.93 68.86L260.26 68.61L260.62 68.38L260.99 68.18L261.38 68.01L261.78 67.86L262.2 67.75L262.63 67.66L263.07 67.61L263.52 67.59L299.13 67.59L299.57 67.61L300.01 67.66Z" id="a2S4hIBhSy" fill="white" fill-opacity="1" filter="url(#shadow1992664)"></path></g><use xlink:href="#cwCXnAzbj" opacity="1" fill="#dad4d4" fill-opacity="1"></use></g><g><use xlink:href="#a4w1olu5Gs" opacity="1" fill="#ffffff" fill-opacity="0.25"></use></g><g><use xlink:href="#i1NsL5MrwS" opacity="1" fill="#da5858" fill-opacity="1"></use></g><g><use xlink:href="#b3ergUCSTs" opacity="1" fill="#ffffff" fill-opacity="0.35"></use></g><g><use xlink:href="#btKQi07vX" opacity="1" fill="#ffffff" fill-opacity="0.35"></use></g><g><use xlink:href="#f91lmc85f2" opacity="1" fill="#ffffff" fill-opacity="0.35"></use></g><g><use xlink:href="#cnIMuDYU" opacity="1" fill="#ffffff" fill-opacity="0.25"></use></g><g><g><filter id="shadow1631904" x="318.02" y="58.59" width="65.09" height="187.12" filterUnits="userSpaceOnUse" primitiveUnits="userSpaceOnUse"><feFlood></feFlood><feComposite in2="SourceAlpha" operator="in"></feComposite><feGaussianBlur stdDeviation="1"></feGaussianBlur><feOffset dx="0" dy="1" result="afterOffset"></feOffset><feFlood flood-color="#000000" flood-opacity="0.5"></feFlood><feComposite in2="afterOffset" operator="in"></feComposite><feMorphology operator="dilate" radius="1"></feMorphology><feComposite in2="SourceAlpha" operator="out"></feComposite></filter><path d="M369.26 67.66L369.69 67.75L370.11 67.86L370.51 68.01L370.9 68.18L371.27 68.38L371.63 68.61L371.97 68.86L372.29 69.13L372.58 69.43L372.86 69.75L373.11 70.08L373.34 70.44L373.54 70.81L373.71 71.2L373.85 71.6L373.97 72.02L374.05 72.45L374.1 72.89L374.12 73.34L374.1 73.79L374.05 74.23L373.97 74.65L373.85 75.07L373.71 75.47L373.54 75.86L373.34 76.24L373.11 76.59L372.86 76.93L372.58 77.25L372.29 77.54L371.97 77.82L371.63 78.07L371.27 78.3L370.9 78.5L370.51 78.67L370.11 78.81L369.69 78.93L369.26 79.01L368.82 79.06L368.38 79.08L363.48 79.08L363.48 223.81L362.99 223.81L362.92 225.11L362.71 226.36L362.36 227.57L361.89 228.73L361.3 229.82L360.6 230.84L359.79 231.79L358.89 232.65L357.91 233.42L356.84 234.09L355.7 234.66L354.5 235.11L353.24 235.44L351.92 235.65L350.57 235.72L349.22 235.65L347.91 235.44L346.65 235.11L345.44 234.66L344.3 234.09L343.24 233.42L342.25 232.65L341.35 231.79L340.55 230.84L339.85 229.82L339.26 228.73L338.78 227.57L338.44 226.36L338.22 225.11L338.15 223.81L337.67 223.81L337.67 79.08L332.77 79.08L332.32 79.06L331.88 79.01L331.45 78.93L331.03 78.81L330.63 78.67L330.24 78.5L329.87 78.3L329.51 78.07L329.18 77.82L328.86 77.54L328.56 77.25L328.29 76.93L328.04 76.59L327.81 76.24L327.61 75.86L327.44 75.47L327.29 75.07L327.18 74.65L327.09 74.23L327.04 73.79L327.02 73.34L327.04 72.89L327.09 72.45L327.18 72.02L327.29 71.6L327.44 71.2L327.61 70.81L327.81 70.44L328.04 70.08L328.29 69.75L328.56 69.43L328.86 69.13L329.18 68.86L329.51 68.61L329.87 68.38L330.24 68.18L330.63 68.01L331.03 67.86L331.45 67.75L331.88 67.66L332.32 67.61L332.77 67.59L368.38 67.59L368.82 67.61L369.26 67.66Z" id="ac8pOpRTT" fill="white" fill-opacity="1" filter="url(#shadow1631904)"></path></g><use xlink:href="#aAORL2Unb" opacity="1" fill="#dad4d4" fill-opacity="1"></use></g><g><use xlink:href="#akk1mgUkt" opacity="1" fill="#e7a35a" fill-opacity="1"></use></g><g><use xlink:href="#a17lIjltcT" opacity="1" fill="#ffffff" fill-opacity="0.35"></use></g><g><use xlink:href="#gyQncSKYS" opacity="1" fill="#ffffff" fill-opacity="0.35"></use></g><g><use xlink:href="#l1ooUrL6qr" opacity="1" fill="#ffffff" fill-opacity="0.35"></use></g><g><use xlink:href="#a3aprFK889" opacity="1" fill="#ffffff" fill-opacity="0.25"></use></g><g><use xlink:href="#czsfAVMyL" opacity="1" fill="#ffffff" fill-opacity="0.37"></use></g><g><g><filter id="shadow9406632" x="165.38" y="98.3" width="231.88" height="24.63" filterUnits="userSpaceOnUse" primitiveUnits="userSpaceOnUse"><feFlood></feFlood><feComposite in2="SourceAlpha" operator="in"></feComposite><feGaussianBlur stdDeviation="1"></feGaussianBlur><feOffset dx="0" dy="1" result="afterOffset"></feOffset><feFlood flood-color="#000000" flood-opacity="0.5"></feFlood><feComposite in2="afterOffset" operator="in"></feComposite><feMorphology operator="dilate" radius="0"></feMorphology><feComposite in2="SourceAlpha" operator="out"></feComposite></filter><path d="M173.38 106.3L389.26 106.3L389.26 113.93L173.38 113.93L173.38 106.3Z" id="boq9rznQM" fill="white" fill-opacity="1" filter="url(#shadow9406632)"></path></g><use xlink:href="#i25VQqywey" opacity="1" fill="#c5a47b" fill-opacity="1"></use></g><g><g><filter id="shadow1911402" x="165.38" y="227.72" width="231.88" height="24.63" filterUnits="userSpaceOnUse" primitiveUnits="userSpaceOnUse"><feFlood></feFlood><feComposite in2="SourceAlpha" operator="in"></feComposite><feGaussianBlur stdDeviation="1"></feGaussianBlur><feOffset dx="0" dy="1" result="afterOffset"></feOffset><feFlood flood-color="#000000" flood-opacity="0.5"></feFlood><feComposite in2="afterOffset" operator="in"></feComposite><feMorphology operator="dilate" radius="0"></feMorphology><feComposite in2="SourceAlpha" operator="out"></feComposite></filter><path d="M173.38 235.72L389.26 235.72L389.26 243.35L173.38 243.35L173.38 235.72Z" id="b2BPsyilj1" fill="white" fill-opacity="1" filter="url(#shadow1911402)"></path></g><use xlink:href="#bkMSUqtr2" opacity="1" fill="#c5a47b" fill-opacity="1"></use></g><g><use xlink:href="#d5zSUw1tK" opacity="1" fill="#a4a4a4" fill-opacity="1"></use></g><g><use xlink:href="#a2tSeBXD9x" opacity="1" fill="#a4a4a4" fill-opacity="1"></use></g></g></g></svg>