<?xml version="1.0" encoding="UTF-8" standalone="no"?>
<!DOCTYPE svg PUBLIC "-//W3C//DTD SVG 1.1//EN" "http://www.w3.org/Graphics/SVG/1.1/DTD/svg11.dtd">
<svg version="1.1" xmlns="http://www.w3.org/2000/svg" xmlns:xlink="http://www.w3.org/1999/xlink" preserveAspectRatio="xMidYMid meet" viewBox="0 0 200 220" width="200" height="220"><defs><path d="M169.64 206.94L98.14 206.94L26.64 206.94L62.39 116.44L98.14 25.94L133.89 116.44L169.64 206.94Z" id="bOtuN8WO"></path><path d="M101.36 25.45L102.25 27.15L103.13 28.79L103.98 30.38L104.81 31.93L105.62 33.43L106.4 34.89L107.15 36.31L107.87 37.69L108.56 39.05L109.22 40.37L109.84 41.67L109.99 42L110.07 41.88L111.23 43.61L112.35 45.25L113.44 46.81L114.49 48.29L115.49 49.7L116.44 51.05L117.33 52.34L118.17 53.59L118.93 54.8L119.63 55.98L120.25 57.13L120.78 58.26L121.23 59.39L121.59 60.51L121.86 61.63L122.02 62.76L122.07 63.92L122.02 65.07L121.86 66.19L121.59 67.28L121.23 68.32L120.78 69.32L120.25 70.27L119.63 71.16L118.93 71.99L118.17 72.75L117.33 73.44L116.44 74.06L115.49 74.6L114.49 75.05L113.44 75.4L112.35 75.67L111.23 75.83L110.07 75.88L108.92 75.83L107.79 75.67L106.7 75.4L106.32 75.27L105.62 75.78L104.81 76.29L103.98 76.73L103.13 77.11L102.25 77.43L101.36 77.68L100.45 77.86L99.52 77.97L98.57 78.01L97.63 77.97L96.7 77.86L95.79 77.68L94.89 77.43L94.02 77.11L93.16 76.73L92.33 76.29L91.53 75.78L91.46 75.73L90.49 76.17L89.44 76.53L88.35 76.79L87.23 76.95L86.07 77.01L84.92 76.95L83.79 76.79L82.7 76.53L81.66 76.17L80.66 75.72L79.71 75.19L78.81 74.57L77.98 73.88L77.21 73.11L76.52 72.28L75.9 71.39L75.36 70.44L74.91 69.45L74.55 68.4L74.29 67.32L74.13 66.2L74.07 65.04L74.13 63.89L74.29 62.75L74.55 61.63L74.91 60.51L75.36 59.39L75.9 58.25L76.52 57.1L77.21 55.93L77.98 54.72L78.81 53.47L79.71 52.17L80.66 50.82L81.66 49.41L82.7 47.93L83.79 46.38L84.92 44.74L86.07 43.01L86.45 43.57L86.72 42.94L87.31 41.67L87.93 40.37L88.59 39.05L89.28 37.69L90 36.31L90.75 34.89L91.53 33.43L92.33 31.93L93.16 30.38L94.02 28.79L94.89 27.15L95.79 25.45L96.7 23.7L97.63 21.88L98.57 20.01L99.52 21.88L100.45 23.7L101.36 25.45Z" id="auItN6OT5"></path><path d="M26.64 208L62.39 117.5L98.14 27L99.99 31.69L99.99 208L26.64 208Z" id="d18dLmvlBy"></path><path d="M116.23 213.93L59.23 213.93L2.23 213.93L30.73 141.79L59.23 69.64L87.73 141.79L116.23 213.93Z" id="gNt2NnUKF"></path><path d="M63.41 71.24L64.24 72.79L65.05 74.29L65.83 75.74L66.57 77.14L67.28 78.5L67.95 79.82L68.58 81.11L68.94 81.89L69.01 81.79L70.12 83.46L71.2 85.02L72.23 86.48L73.22 87.86L74.14 89.17L74.99 90.42L75.77 91.61L76.47 92.76L77.09 93.88L77.6 94.98L78.02 96.06L78.32 97.15L78.51 98.24L78.57 99.36L78.51 100.47L78.32 101.55L78.02 102.58L77.6 103.55L77.09 104.47L76.47 105.32L75.77 106.1L74.99 106.8L74.14 107.41L73.22 107.93L72.23 108.34L71.2 108.64L70.12 108.83L69.01 108.9L67.89 108.83L66.81 108.64L66.01 108.41L65.83 108.56L65.05 109.08L64.24 109.53L63.41 109.9L62.55 110.2L61.67 110.41L60.76 110.54L59.84 110.59L58.92 110.54L58.01 110.41L57.13 110.2L56.27 109.9L55.44 109.53L54.63 109.08L54.18 108.77L54.08 108.82L53.1 109.24L52.07 109.54L50.99 109.73L49.88 109.79L48.76 109.73L47.68 109.54L46.65 109.24L45.67 108.82L44.75 108.31L43.89 107.7L43.11 107L42.41 106.22L41.8 105.37L41.28 104.45L40.87 103.47L40.56 102.44L40.37 101.37L40.31 100.26L40.37 99.14L40.56 98.05L40.87 96.96L41.28 95.87L41.8 94.78L42.41 93.66L43.11 92.51L43.89 91.32L44.75 90.07L45.67 88.76L46.65 87.38L47.68 85.91L48.76 84.35L49.88 82.69L50.17 83.13L50.51 82.36L51.1 81.11L51.73 79.82L52.4 78.5L53.11 77.14L53.86 75.74L54.63 74.29L55.44 72.79L56.27 71.24L57.13 69.62L58.01 67.94L58.92 66.18L59.84 64.35L60.76 66.18L61.67 67.94L61.67 67.94L62.55 69.62L63.41 71.24Z" id="aJ3uTNiiR"></path><path d="M184.73 214.05L136.98 214.05L89.23 214.05L113.11 153.7L136.98 93.35L160.86 153.7L184.73 214.05Z" id="b6992Tw1H"></path><path d="M141.16 95.9L141.99 97.44L142.78 98.91L143.52 100.32L144.22 101.68L144.87 103L145.18 103.65L145.23 103.57L146.41 105.33L147.55 106.95L148.61 108.45L149.59 109.84L150.49 111.16L151.28 112.4L151.95 113.6L152.5 114.77L152.91 115.92L153.16 117.08L153.24 118.27L153.16 119.45L152.91 120.57L152.5 121.63L151.95 122.61L151.28 123.5L150.49 124.29L149.59 124.96L148.61 125.5L147.55 125.91L146.41 126.16L145.23 126.24L144.05 126.16L142.92 125.91L142.73 125.84L141.99 126.35L141.16 126.81L140.3 127.17L139.41 127.44L138.49 127.6L137.55 127.66L136.61 127.6L135.69 127.44L134.8 127.17L133.94 126.81L133.11 126.35L132.8 126.13L132.58 126.25L131.52 126.66L130.39 126.91L129.2 126.99L128.02 126.91L126.89 126.66L125.82 126.25L124.84 125.71L123.94 125.04L123.15 124.25L122.48 123.36L121.93 122.38L121.53 121.32L121.28 120.2L121.19 119.02L121.28 117.83L121.53 116.67L121.93 115.52L122.48 114.35L123.15 113.15L123.94 111.91L124.84 110.59L125.82 109.2L126.89 107.7L128.02 106.08L129.2 104.32L129.45 104.7L129.63 104.28L130.23 103L130.88 101.68L131.58 100.32L132.33 98.91L133.11 97.44L133.94 95.9L134.8 94.3L135.69 92.62L136.61 90.85L137.55 88.99L138.49 90.85L139.41 92.62L139.41 92.62L140.3 94.3L141.16 95.9Z" id="a9mKBxkfB"></path><path d="M89.16 214.23L113.04 153.88L136.91 93.53L138.15 96.66L138.15 214.23L89.16 214.23Z" id="b1mCegRbbK"></path><path d="M2.23 214.23L30.73 142.09L59.23 69.94L60.71 73.68L60.71 214.23L2.23 214.23Z" id="bUuYkOTTm"></path><path d="M103.19 40.1C102.91 40.1 102.69 39.87 102.69 39.6C102.69 39.32 102.91 39.1 103.19 39.1C103.46 39.1 103.69 39.32 103.69 39.6C103.69 39.87 103.46 40.1 103.19 40.1Z" id="a1y4ysjv7w"></path><path d="M112.44 39.87C112.44 40.4 112.44 41.23 112.44 41.76C112.44 42.19 112.09 42.53 111.67 42.53C110.02 42.53 105.85 42.53 104.21 42.53C103.78 42.53 103.44 42.19 103.44 41.76C103.44 41.23 103.44 40.4 103.44 39.87C103.44 39.44 103.78 39.1 104.21 39.1C105.85 39.1 110.02 39.1 111.67 39.1C112.09 39.1 112.44 39.44 112.44 39.87Z" id="hlAqflDb"></path><path d="M112.63 40.1C112.35 40.1 112.13 39.87 112.13 39.6C112.13 39.32 112.35 39.1 112.63 39.1C112.9 39.1 113.13 39.32 113.13 39.6C113.13 39.87 112.9 40.1 112.63 40.1Z" id="aml43C54t"></path><path d="M112.42 39.23L112.44 39.32L112.44 39.87L112.42 39.96L112.37 40.03L112.3 40.08L112.21 40.1L109.85 40.1L109.85 44.81L109.79 45.12L109.62 45.37L109.38 45.53L109.07 45.6L106.88 45.6L106.58 45.53L106.33 45.37L106.16 45.12L106.1 44.81L106.1 40.1L103.66 40.1L103.58 40.08L103.5 40.03L103.45 39.96L103.44 39.87L103.44 39.32L103.45 39.23L103.5 39.16L103.58 39.11L103.66 39.1L112.21 39.1L112.3 39.11L112.37 39.16L112.42 39.23Z" id="b3mCyi4EY7"></path><path d="M108.92 39.1L107.98 39.1L107.04 39.1L107.51 40.97L107.98 42.85L108.45 40.97L108.92 39.1Z" id="b2RrqkCWaN"></path><path d="M107.98 39.6C105.69 39.6 103.83 38.97 103.83 38.19C103.83 37.41 105.69 36.77 107.98 36.77C110.27 36.77 112.13 37.41 112.13 38.19C112.13 38.97 110.27 39.6 107.98 39.6Z" id="a3H0WEnvmS"></path><path d="M109.23 37.77L107.98 37.77L106.73 37.77L107.35 35.1L107.98 32.44L108.6 35.1L109.23 37.77Z" id="a2c12Rz7J"></path></defs><g><g><g><g><filter id="shadow15618669" x="19.64" y="18.94" width="157" height="195" filterUnits="userSpaceOnUse" primitiveUnits="userSpaceOnUse"><feFlood></feFlood><feComposite in2="SourceAlpha" operator="in"></feComposite><feGaussianBlur stdDeviation="1"></feGaussianBlur><feOffset dx="0" dy="0" result="afterOffset"></feOffset><feFlood flood-color="#000000" flood-opacity="0.5"></feFlood><feComposite in2="afterOffset" operator="in"></feComposite><feMorphology operator="dilate" radius="0"></feMorphology><feComposite in2="SourceAlpha" operator="out"></feComposite></filter><path d="M169.64 206.94L98.14 206.94L26.64 206.94L62.39 116.44L98.14 25.94L133.89 116.44L169.64 206.94Z" id="d1zufRb4Fo" fill="white" fill-opacity="1" filter="url(#shadow15618669)"></path></g><use xlink:href="#bOtuN8WO" opacity="1" fill="#b07945" fill-opacity="1"></use><g><use xlink:href="#bOtuN8WO" opacity="1" fill-opacity="0" stroke="#000000" stroke-width="1" stroke-opacity="0"></use></g></g><g><g><filter id="shadow624703" x="67.07" y="13.01" width="62" height="72" filterUnits="userSpaceOnUse" primitiveUnits="userSpaceOnUse"><feFlood></feFlood><feComposite in2="SourceAlpha" operator="in"></feComposite><feGaussianBlur stdDeviation="1"></feGaussianBlur><feOffset dx="0" dy="0" result="afterOffset"></feOffset><feFlood flood-color="#000000" flood-opacity="0.5"></feFlood><feComposite in2="afterOffset" operator="in"></feComposite><feMorphology operator="dilate" radius="0"></feMorphology><feComposite in2="SourceAlpha" operator="out"></feComposite></filter><path d="M101.36 25.45L102.25 27.15L103.13 28.79L103.98 30.38L104.81 31.93L105.62 33.43L106.4 34.89L107.15 36.31L107.87 37.69L108.56 39.05L109.22 40.37L109.84 41.67L109.99 42L110.07 41.88L111.23 43.61L112.35 45.25L113.44 46.81L114.49 48.29L115.49 49.7L116.44 51.05L117.33 52.34L118.17 53.59L118.93 54.8L119.63 55.98L120.25 57.13L120.78 58.26L121.23 59.39L121.59 60.51L121.86 61.63L122.02 62.76L122.07 63.92L122.02 65.07L121.86 66.19L121.59 67.28L121.23 68.32L120.78 69.32L120.25 70.27L119.63 71.16L118.93 71.99L118.17 72.75L117.33 73.44L116.44 74.06L115.49 74.6L114.49 75.05L113.44 75.4L112.35 75.67L111.23 75.83L110.07 75.88L108.92 75.83L107.79 75.67L106.7 75.4L106.32 75.27L105.62 75.78L104.81 76.29L103.98 76.73L103.13 77.11L102.25 77.43L101.36 77.68L100.45 77.86L99.52 77.97L98.57 78.01L97.63 77.97L96.7 77.86L95.79 77.68L94.89 77.43L94.02 77.11L93.16 76.73L92.33 76.29L91.53 75.78L91.46 75.73L90.49 76.17L89.44 76.53L88.35 76.79L87.23 76.95L86.07 77.01L84.92 76.95L83.79 76.79L82.7 76.53L81.66 76.17L80.66 75.72L79.71 75.19L78.81 74.57L77.98 73.88L77.21 73.11L76.52 72.28L75.9 71.39L75.36 70.44L74.91 69.45L74.55 68.4L74.29 67.32L74.13 66.2L74.07 65.04L74.13 63.89L74.29 62.75L74.55 61.63L74.91 60.51L75.36 59.39L75.9 58.25L76.52 57.1L77.21 55.93L77.98 54.72L78.81 53.47L79.71 52.17L80.66 50.82L81.66 49.41L82.7 47.93L83.79 46.38L84.92 44.74L86.07 43.01L86.45 43.57L86.72 42.94L87.31 41.67L87.93 40.37L88.59 39.05L89.28 37.69L90 36.31L90.75 34.89L91.53 33.43L92.33 31.93L93.16 30.38L94.02 28.79L94.89 27.15L95.79 25.45L96.7 23.7L97.63 21.88L98.57 20.01L99.52 21.88L100.45 23.7L101.36 25.45Z" id="juTPxSjU1" fill="white" fill-opacity="1" filter="url(#shadow624703)"></path></g><use xlink:href="#auItN6OT5" opacity="1" fill="#fffaf8" fill-opacity="1"></use><g><use xlink:href="#auItN6OT5" opacity="1" fill-opacity="0" stroke="#000000" stroke-width="1" stroke-opacity="0"></use></g></g><g><use xlink:href="#d18dLmvlBy" opacity="1" fill="#ffffff" fill-opacity="0.14"></use><g><use xlink:href="#d18dLmvlBy" opacity="1" fill-opacity="0" stroke="#000000" stroke-width="1" stroke-opacity="0"></use></g></g><g><g><filter id="shadow743512" x="-4.77" y="62.64" width="128" height="158.29" filterUnits="userSpaceOnUse" primitiveUnits="userSpaceOnUse"><feFlood></feFlood><feComposite in2="SourceAlpha" operator="in"></feComposite><feGaussianBlur stdDeviation="1"></feGaussianBlur><feOffset dx="0" dy="0" result="afterOffset"></feOffset><feFlood flood-color="#000000" flood-opacity="0.5"></feFlood><feComposite in2="afterOffset" operator="in"></feComposite><feMorphology operator="dilate" radius="0"></feMorphology><feComposite in2="SourceAlpha" operator="out"></feComposite></filter><path d="M116.23 213.93L59.23 213.93L2.23 213.93L30.73 141.79L59.23 69.64L87.73 141.79L116.23 213.93Z" id="a5sTeMgu0V" fill="white" fill-opacity="1" filter="url(#shadow743512)"></path></g><use xlink:href="#gNt2NnUKF" opacity="1" fill="#b07945" fill-opacity="1"></use><g><use xlink:href="#gNt2NnUKF" opacity="1" fill-opacity="0" stroke="#000000" stroke-width="1" stroke-opacity="0"></use></g></g><g><g><filter id="shadow9822016" x="33.31" y="57.35" width="52.26" height="60.24" filterUnits="userSpaceOnUse" primitiveUnits="userSpaceOnUse"><feFlood></feFlood><feComposite in2="SourceAlpha" operator="in"></feComposite><feGaussianBlur stdDeviation="1"></feGaussianBlur><feOffset dx="0" dy="0" result="afterOffset"></feOffset><feFlood flood-color="#000000" flood-opacity="0.5"></feFlood><feComposite in2="afterOffset" operator="in"></feComposite><feMorphology operator="dilate" radius="0"></feMorphology><feComposite in2="SourceAlpha" operator="out"></feComposite></filter><path d="M63.41 71.24L64.24 72.79L65.05 74.29L65.83 75.74L66.57 77.14L67.28 78.5L67.95 79.82L68.58 81.11L68.94 81.89L69.01 81.79L70.12 83.46L71.2 85.02L72.23 86.48L73.22 87.86L74.14 89.17L74.99 90.42L75.77 91.61L76.47 92.76L77.09 93.88L77.6 94.98L78.02 96.06L78.32 97.15L78.51 98.24L78.57 99.36L78.51 100.47L78.32 101.55L78.02 102.58L77.6 103.55L77.09 104.47L76.47 105.32L75.77 106.1L74.99 106.8L74.14 107.41L73.22 107.93L72.23 108.34L71.2 108.64L70.12 108.83L69.01 108.9L67.89 108.83L66.81 108.64L66.01 108.41L65.83 108.56L65.05 109.08L64.24 109.53L63.41 109.9L62.55 110.2L61.67 110.41L60.76 110.54L59.84 110.59L58.92 110.54L58.01 110.41L57.13 110.2L56.27 109.9L55.44 109.53L54.63 109.08L54.18 108.77L54.08 108.82L53.1 109.24L52.07 109.54L50.99 109.73L49.88 109.79L48.76 109.73L47.68 109.54L46.65 109.24L45.67 108.82L44.75 108.31L43.89 107.7L43.11 107L42.41 106.22L41.8 105.37L41.28 104.45L40.87 103.47L40.56 102.44L40.37 101.37L40.31 100.26L40.37 99.14L40.56 98.05L40.87 96.96L41.28 95.87L41.8 94.78L42.41 93.66L43.11 92.51L43.89 91.32L44.75 90.07L45.67 88.76L46.65 87.38L47.68 85.91L48.76 84.35L49.88 82.69L50.17 83.13L50.51 82.36L51.1 81.11L51.73 79.82L52.4 78.5L53.11 77.14L53.86 75.74L54.63 74.29L55.44 72.79L56.27 71.24L57.13 69.62L58.01 67.94L58.92 66.18L59.84 64.35L60.76 66.18L61.67 67.94L61.67 67.94L62.55 69.62L63.41 71.24Z" id="bn53o6CC6" fill="white" fill-opacity="1" filter="url(#shadow9822016)"></path></g><use xlink:href="#aJ3uTNiiR" opacity="1" fill="#fffaf8" fill-opacity="1"></use><g><use xlink:href="#aJ3uTNiiR" opacity="1" fill-opacity="0" stroke="#000000" stroke-width="1" stroke-opacity="0"></use></g></g><g><g><filter id="shadow13228292" x="82.23" y="86.35" width="109.5" height="134.7" filterUnits="userSpaceOnUse" primitiveUnits="userSpaceOnUse"><feFlood></feFlood><feComposite in2="SourceAlpha" operator="in"></feComposite><feGaussianBlur stdDeviation="1"></feGaussianBlur><feOffset dx="0" dy="0" result="afterOffset"></feOffset><feFlood flood-color="#000000" flood-opacity="0.5"></feFlood><feComposite in2="afterOffset" operator="in"></feComposite><feMorphology operator="dilate" radius="0"></feMorphology><feComposite in2="SourceAlpha" operator="out"></feComposite></filter><path d="M184.73 214.05L136.98 214.05L89.23 214.05L113.11 153.7L136.98 93.35L160.86 153.7L184.73 214.05Z" id="a6g2SXyww" fill="white" fill-opacity="1" filter="url(#shadow13228292)"></path></g><use xlink:href="#b6992Tw1H" opacity="1" fill="#b07945" fill-opacity="1"></use><g><use xlink:href="#b6992Tw1H" opacity="1" fill-opacity="0" stroke="#000000" stroke-width="1" stroke-opacity="0"></use></g></g><g><g><filter id="shadow9070698" x="114.19" y="81.99" width="46.05" height="52.67" filterUnits="userSpaceOnUse" primitiveUnits="userSpaceOnUse"><feFlood></feFlood><feComposite in2="SourceAlpha" operator="in"></feComposite><feGaussianBlur stdDeviation="1"></feGaussianBlur><feOffset dx="0" dy="0" result="afterOffset"></feOffset><feFlood flood-color="#000000" flood-opacity="0.5"></feFlood><feComposite in2="afterOffset" operator="in"></feComposite><feMorphology operator="dilate" radius="0"></feMorphology><feComposite in2="SourceAlpha" operator="out"></feComposite></filter><path d="M141.16 95.9L141.99 97.44L142.78 98.91L143.52 100.32L144.22 101.68L144.87 103L145.18 103.65L145.23 103.57L146.41 105.33L147.55 106.95L148.61 108.45L149.59 109.84L150.49 111.16L151.28 112.4L151.95 113.6L152.5 114.77L152.91 115.92L153.16 117.08L153.24 118.27L153.16 119.45L152.91 120.57L152.5 121.63L151.95 122.61L151.28 123.5L150.49 124.29L149.59 124.96L148.61 125.5L147.55 125.91L146.41 126.16L145.23 126.24L144.05 126.16L142.92 125.91L142.73 125.84L141.99 126.35L141.16 126.81L140.3 127.17L139.41 127.44L138.49 127.6L137.55 127.66L136.61 127.6L135.69 127.44L134.8 127.17L133.94 126.81L133.11 126.35L132.8 126.13L132.58 126.25L131.52 126.66L130.39 126.91L129.2 126.99L128.02 126.91L126.89 126.66L125.82 126.25L124.84 125.71L123.94 125.04L123.15 124.25L122.48 123.36L121.93 122.38L121.53 121.32L121.28 120.2L121.19 119.02L121.28 117.83L121.53 116.67L121.93 115.52L122.48 114.35L123.15 113.15L123.94 111.91L124.84 110.59L125.82 109.2L126.89 107.7L128.02 106.08L129.2 104.32L129.45 104.7L129.63 104.28L130.23 103L130.88 101.68L131.58 100.32L132.33 98.91L133.11 97.44L133.94 95.9L134.8 94.3L135.69 92.62L136.61 90.85L137.55 88.99L138.49 90.85L139.41 92.62L139.41 92.62L140.3 94.3L141.16 95.9Z" id="c1rp2KLGKD" fill="white" fill-opacity="1" filter="url(#shadow9070698)"></path></g><use xlink:href="#a9mKBxkfB" opacity="1" fill="#fffaf8" fill-opacity="1"></use><g><use xlink:href="#a9mKBxkfB" opacity="1" fill-opacity="0" stroke="#000000" stroke-width="1" stroke-opacity="0"></use></g></g><g><use xlink:href="#b1mCegRbbK" opacity="1" fill="#ffffff" fill-opacity="0.23"></use><g><use xlink:href="#b1mCegRbbK" opacity="1" fill-opacity="0" stroke="#000000" stroke-width="1" stroke-opacity="0"></use></g></g><g><use xlink:href="#bUuYkOTTm" opacity="1" fill="#ffffff" fill-opacity="0.23"></use><g><use xlink:href="#bUuYkOTTm" opacity="1" fill-opacity="0" stroke="#000000" stroke-width="1" stroke-opacity="0"></use></g></g><g><use xlink:href="#a1y4ysjv7w" opacity="1" fill="#e0d6ae" fill-opacity="1"></use><g><use xlink:href="#a1y4ysjv7w" opacity="1" fill-opacity="0" stroke="#000000" stroke-width="1" stroke-opacity="0"></use></g></g><g><g><filter id="shadow9995348" x="96.44" y="32.1" width="23" height="17.43" filterUnits="userSpaceOnUse" primitiveUnits="userSpaceOnUse"><feFlood></feFlood><feComposite in2="SourceAlpha" operator="in"></feComposite><feGaussianBlur stdDeviation="1"></feGaussianBlur><feOffset dx="0" dy="0" result="afterOffset"></feOffset><feFlood flood-color="#000000" flood-opacity="0.5"></feFlood><feComposite in2="afterOffset" operator="in"></feComposite><feMorphology operator="dilate" radius="0"></feMorphology><feComposite in2="SourceAlpha" operator="out"></feComposite></filter><path d="M112.44 39.87C112.44 40.4 112.44 41.23 112.44 41.76C112.44 42.19 112.09 42.53 111.67 42.53C110.02 42.53 105.85 42.53 104.21 42.53C103.78 42.53 103.44 42.19 103.44 41.76C103.44 41.23 103.44 40.4 103.44 39.87C103.44 39.44 103.78 39.1 104.21 39.1C105.85 39.1 110.02 39.1 111.67 39.1C112.09 39.1 112.44 39.44 112.44 39.87Z" id="dNzbmJlaN" fill="white" fill-opacity="1" filter="url(#shadow9995348)"></path></g><use xlink:href="#hlAqflDb" opacity="1" fill="#8180f5" fill-opacity="1"></use><g><use xlink:href="#hlAqflDb" opacity="1" fill-opacity="0" stroke="#000000" stroke-width="1" stroke-opacity="0"></use></g></g><g><use xlink:href="#aml43C54t" opacity="1" fill="#e0d6ae" fill-opacity="1"></use><g><use xlink:href="#aml43C54t" opacity="1" fill-opacity="0" stroke="#000000" stroke-width="1" stroke-opacity="0"></use></g></g><g><g><filter id="shadow3112732" x="96.44" y="32.1" width="23" height="20.5" filterUnits="userSpaceOnUse" primitiveUnits="userSpaceOnUse"><feFlood></feFlood><feComposite in2="SourceAlpha" operator="in"></feComposite><feGaussianBlur stdDeviation="1"></feGaussianBlur><feOffset dx="0" dy="0" result="afterOffset"></feOffset><feFlood flood-color="#000000" flood-opacity="0.5"></feFlood><feComposite in2="afterOffset" operator="in"></feComposite><feMorphology operator="dilate" radius="0"></feMorphology><feComposite in2="SourceAlpha" operator="out"></feComposite></filter><path d="M112.42 39.23L112.44 39.32L112.44 39.87L112.42 39.96L112.37 40.03L112.3 40.08L112.21 40.1L109.85 40.1L109.85 44.81L109.79 45.12L109.62 45.37L109.38 45.53L109.07 45.6L106.88 45.6L106.58 45.53L106.33 45.37L106.16 45.12L106.1 44.81L106.1 40.1L103.66 40.1L103.58 40.08L103.5 40.03L103.45 39.96L103.44 39.87L103.44 39.32L103.45 39.23L103.5 39.16L103.58 39.11L103.66 39.1L112.21 39.1L112.3 39.11L112.37 39.16L112.42 39.23Z" id="lXE0sn34K" fill="white" fill-opacity="1" filter="url(#shadow3112732)"></path></g><use xlink:href="#b3mCyi4EY7" opacity="1" fill="#8180f5" fill-opacity="1"></use><g><use xlink:href="#b3mCyi4EY7" opacity="1" fill-opacity="0" stroke="#000000" stroke-width="1" stroke-opacity="0"></use></g></g><g><g><filter id="shadow4476907" x="100.04" y="32.1" width="15.88" height="17.75" filterUnits="userSpaceOnUse" primitiveUnits="userSpaceOnUse"><feFlood></feFlood><feComposite in2="SourceAlpha" operator="in"></feComposite><feGaussianBlur stdDeviation="1"></feGaussianBlur><feOffset dx="0" dy="0" result="afterOffset"></feOffset><feFlood flood-color="#000000" flood-opacity="0.5"></feFlood><feComposite in2="afterOffset" operator="in"></feComposite><feMorphology operator="dilate" radius="0"></feMorphology><feComposite in2="SourceAlpha" operator="out"></feComposite></filter><path d="M108.92 39.1L107.98 39.1L107.04 39.1L107.51 40.97L107.98 42.85L108.45 40.97L108.92 39.1Z" id="bLwVLz7sA" fill="white" fill-opacity="1" filter="url(#shadow4476907)"></path></g><use xlink:href="#b2RrqkCWaN" opacity="1" fill="#f2f2f2" fill-opacity="1"></use><g><use xlink:href="#b2RrqkCWaN" opacity="1" fill-opacity="0" stroke="#000000" stroke-width="1" stroke-opacity="0"></use></g></g><g><g><filter id="shadow13677262" x="96.83" y="29.77" width="22.3" height="16.83" filterUnits="userSpaceOnUse" primitiveUnits="userSpaceOnUse"><feFlood></feFlood><feComposite in2="SourceAlpha" operator="in"></feComposite><feGaussianBlur stdDeviation="1"></feGaussianBlur><feOffset dx="0" dy="0" result="afterOffset"></feOffset><feFlood flood-color="#000000" flood-opacity="0.5"></feFlood><feComposite in2="afterOffset" operator="in"></feComposite><feMorphology operator="dilate" radius="0"></feMorphology><feComposite in2="SourceAlpha" operator="out"></feComposite></filter><path d="M107.98 39.6C105.69 39.6 103.83 38.97 103.83 38.19C103.83 37.41 105.69 36.77 107.98 36.77C110.27 36.77 112.13 37.41 112.13 38.19C112.13 38.97 110.27 39.6 107.98 39.6Z" id="ftn0FXdtG" fill="white" fill-opacity="1" filter="url(#shadow13677262)"></path></g><use xlink:href="#a3H0WEnvmS" opacity="1" fill="#8180f5" fill-opacity="1"></use><g><use xlink:href="#a3H0WEnvmS" opacity="1" fill-opacity="0" stroke="#000000" stroke-width="1" stroke-opacity="0"></use></g></g><g><g><filter id="shadow1833604" x="99.73" y="25.44" width="16.5" height="19.33" filterUnits="userSpaceOnUse" primitiveUnits="userSpaceOnUse"><feFlood></feFlood><feComposite in2="SourceAlpha" operator="in"></feComposite><feGaussianBlur stdDeviation="1"></feGaussianBlur><feOffset dx="0" dy="0" result="afterOffset"></feOffset><feFlood flood-color="#000000" flood-opacity="0.5"></feFlood><feComposite in2="afterOffset" operator="in"></feComposite><feMorphology operator="dilate" radius="0"></feMorphology><feComposite in2="SourceAlpha" operator="out"></feComposite></filter><path d="M109.23 37.77L107.98 37.77L106.73 37.77L107.35 35.1L107.98 32.44L108.6 35.1L109.23 37.77Z" id="b1JLX2XmwO" fill="white" fill-opacity="1" filter="url(#shadow1833604)"></path></g><use xlink:href="#a2c12Rz7J" opacity="1" fill="#8180f5" fill-opacity="1"></use><g><use xlink:href="#a2c12Rz7J" opacity="1" fill-opacity="0" stroke="#000000" stroke-width="1" stroke-opacity="0"></use></g></g></g></g></svg>