<?xml version="1.0" encoding="UTF-8" standalone="no"?>
<!DOCTYPE svg PUBLIC "-//W3C//DTD SVG 1.1//EN" "http://www.w3.org/Graphics/SVG/1.1/DTD/svg11.dtd">
<svg version="1.1" xmlns="http://www.w3.org/2000/svg" xmlns:xlink="http://www.w3.org/1999/xlink" preserveAspectRatio="xMidYMid meet" viewBox="0 0 200 220" width="200" height="220"><defs><path d="M133.89 116.69L169.64 207.19L98.14 207.19L26.64 207.19L62.39 116.69L98.14 26.19L133.89 116.69Z" id="a6DTtynVZC"></path><path d="M100.52 24.02L101.43 25.77L102.32 27.47L103.2 29.11L104.05 30.7L104.88 32.25L105.69 33.75L106.47 35.21L107.22 36.63L107.94 38.01L108.63 39.37L109.29 40.69L109.91 41.99L110.06 42.32L110.14 42.2L111.3 43.93L112.42 45.57L113.51 47.13L114.56 48.61L115.56 50.02L116.51 51.37L117.4 52.66L118.24 53.91L119 55.12L119.7 56.3L120.32 57.45L120.85 58.58L121.3 59.71L121.66 60.83L121.93 61.95L122.09 63.08L122.14 64.24L122.09 65.39L121.93 66.51L121.66 67.6L121.3 68.64L120.85 69.64L120.32 70.59L119.7 71.48L119 72.31L118.24 73.07L117.4 73.76L116.51 74.38L115.56 74.92L114.56 75.37L113.51 75.72L112.42 75.99L111.3 76.15L110.14 76.2L108.99 76.15L107.86 75.99L106.77 75.72L106.39 75.59L105.69 76.1L104.88 76.61L104.05 77.05L103.2 77.43L102.32 77.75L101.43 78L100.52 78.18L99.59 78.29L98.64 78.33L97.7 78.29L96.77 78.18L95.86 78L94.96 77.75L94.09 77.43L93.23 77.05L92.4 76.61L91.6 76.1L91.53 76.05L90.56 76.49L89.51 76.85L88.42 77.11L87.3 77.27L86.14 77.33L84.99 77.27L83.86 77.11L82.77 76.85L81.73 76.49L80.73 76.04L79.78 75.51L78.88 74.89L78.05 74.2L77.28 73.43L76.59 72.6L75.97 71.71L75.43 70.76L74.98 69.77L74.62 68.72L74.36 67.64L74.2 66.52L74.14 65.36L74.2 64.21L74.36 63.07L74.62 61.95L74.98 60.83L75.43 59.71L75.97 58.57L76.59 57.42L77.28 56.25L78.05 55.04L78.88 53.79L79.78 52.49L80.73 51.14L81.73 49.73L82.77 48.25L83.86 46.7L84.99 45.06L86.14 43.33L86.52 43.89L86.79 43.26L87.38 41.99L88 40.69L88.66 39.37L89.35 38.01L90.07 36.63L90.82 35.21L91.6 33.75L92.4 32.25L93.23 30.7L94.09 29.11L94.96 27.47L95.86 25.77L96.77 24.02L97.7 22.2L98.64 20.33L99.59 22.2L100.52 24.02Z" id="c6wyCqA5N7"></path><path d="M99.99 208.25L26.64 208.25L62.39 117.75L98.14 27.25L99.99 31.94L99.99 208.25Z" id="b6OuF7QGfb"></path><path d="M87.73 142.04L116.23 214.18L59.23 214.18L2.23 214.18L30.73 142.04L59.23 69.89L87.73 142.04Z" id="e13dCM5dii"></path><path d="M62.62 69.94L63.48 71.56L64.31 73.11L65.12 74.61L65.9 76.06L66.64 77.46L67.35 78.82L68.02 80.14L68.65 81.43L69.01 82.21L69.08 82.11L70.19 83.78L71.27 85.34L72.3 86.8L73.29 88.18L74.21 89.49L75.06 90.74L75.84 91.93L76.54 93.08L77.16 94.2L77.67 95.3L78.09 96.38L78.39 97.47L78.58 98.56L78.64 99.68L78.58 100.79L78.39 101.87L78.09 102.9L77.67 103.87L77.16 104.79L76.54 105.64L75.84 106.42L75.06 107.12L74.21 107.73L73.29 108.25L72.3 108.66L71.27 108.96L70.19 109.15L69.08 109.22L67.96 109.15L66.88 108.96L66.08 108.73L65.9 108.88L65.12 109.4L64.31 109.85L63.48 110.22L62.62 110.52L61.74 110.73L60.83 110.86L59.91 110.91L58.99 110.86L58.08 110.73L57.2 110.52L56.34 110.22L55.51 109.85L54.7 109.4L54.25 109.09L54.15 109.14L53.17 109.56L52.14 109.86L51.06 110.05L49.95 110.11L48.83 110.05L47.75 109.86L46.72 109.56L45.74 109.14L44.82 108.63L43.96 108.02L43.18 107.32L42.48 106.54L41.87 105.69L41.35 104.77L40.94 103.79L40.63 102.76L40.44 101.69L40.38 100.58L40.44 99.46L40.63 98.37L40.94 97.28L41.35 96.19L41.87 95.1L42.48 93.98L43.18 92.83L43.96 91.64L44.82 90.39L45.74 89.08L46.72 87.7L47.75 86.23L48.83 84.67L49.95 83.01L50.24 83.45L50.58 82.68L51.17 81.43L51.8 80.14L52.47 78.82L53.18 77.46L53.93 76.06L54.7 74.61L55.51 73.11L56.34 71.56L57.2 69.94L58.08 68.26L58.99 66.5L59.91 64.67L60.83 66.5L61.74 68.26L61.74 68.26L62.62 69.94Z" id="a2iP1wtDHF"></path><path d="M160.86 153.95L184.73 214.3L136.98 214.3L89.23 214.3L113.11 153.95L136.98 93.6L160.86 153.95Z" id="a7vr2o9ci"></path><path d="M140.3 94.55L141.16 96.15L141.99 97.69L142.78 99.16L143.52 100.57L144.22 101.93L144.87 103.25L145.18 103.9L145.23 103.82L146.41 105.58L147.55 107.2L148.61 108.7L149.59 110.09L150.49 111.41L151.28 112.65L151.95 113.85L152.5 115.02L152.91 116.17L153.16 117.33L153.24 118.52L153.16 119.7L152.91 120.82L152.5 121.88L151.95 122.86L151.28 123.75L150.49 124.54L149.59 125.21L148.61 125.75L147.55 126.16L146.41 126.41L145.23 126.49L144.05 126.41L142.92 126.16L142.73 126.09L141.99 126.6L141.16 127.06L140.3 127.42L139.41 127.69L138.49 127.85L137.55 127.91L136.61 127.85L135.69 127.69L134.8 127.42L133.94 127.06L133.11 126.6L132.8 126.38L132.58 126.5L131.52 126.91L130.39 127.16L129.2 127.24L128.02 127.16L126.89 126.91L125.82 126.5L124.84 125.96L123.94 125.29L123.15 124.5L122.48 123.61L121.93 122.63L121.53 121.57L121.28 120.45L121.19 119.27L121.28 118.08L121.53 116.92L121.93 115.77L122.48 114.6L123.15 113.4L123.94 112.16L124.84 110.84L125.82 109.45L126.89 107.95L128.02 106.33L129.2 104.57L129.45 104.95L129.63 104.53L130.23 103.25L130.88 101.93L131.58 100.57L132.33 99.16L133.11 97.69L133.94 96.15L134.8 94.55L135.69 92.87L136.61 91.1L137.55 89.24L138.49 91.1L139.41 92.87L139.41 92.87L140.3 94.55Z" id="esTOKdPLN"></path><path d="M138.22 214.55L89.23 214.55L113.11 154.2L136.98 93.85L138.22 96.98L138.22 214.55Z" id="e1eCfoZQAw"></path><path d="M60.71 214.48L2.23 214.48L30.73 142.34L59.23 70.19L60.71 73.93L60.71 214.48Z" id="c4OB2t90"></path><path d="M103.69 39.85C103.69 40.12 103.46 40.35 103.19 40.35C102.91 40.35 102.69 40.12 102.69 39.85C102.69 39.57 102.91 39.35 103.19 39.35C103.46 39.35 103.69 39.57 103.69 39.85Z" id="b9ZlIEhRT"></path><path d="M111.67 39.35C112.09 39.35 112.44 39.69 112.44 40.12C112.44 40.65 112.44 41.48 112.44 42.01C112.44 42.44 112.09 42.78 111.67 42.78C110.02 42.78 105.85 42.78 104.21 42.78C103.78 42.78 103.44 42.44 103.44 42.01C103.44 41.48 103.44 40.65 103.44 40.12C103.44 39.69 103.78 39.35 104.21 39.35C105.85 39.35 110.02 39.35 111.67 39.35Z" id="b2Xghh0VSY"></path><path d="M113.13 39.85C113.13 40.12 112.9 40.35 112.63 40.35C112.35 40.35 112.13 40.12 112.13 39.85C112.13 39.57 112.35 39.35 112.63 39.35C112.9 39.35 113.13 39.57 113.13 39.85Z" id="a26VHdjP71"></path><path d="M112.37 39.41L112.42 39.48L112.44 39.57L112.44 40.12L112.42 40.21L112.37 40.28L112.3 40.33L112.21 40.35L109.85 40.35L109.85 45.06L109.79 45.37L109.62 45.62L109.38 45.78L109.07 45.85L106.88 45.85L106.58 45.78L106.33 45.62L106.16 45.37L106.1 45.06L106.1 40.35L103.66 40.35L103.58 40.33L103.5 40.28L103.45 40.21L103.44 40.12L103.44 39.57L103.45 39.48L103.5 39.41L103.58 39.36L103.66 39.35L112.21 39.35L112.3 39.36L112.37 39.41Z" id="d5ufcwG9v"></path><path d="M108.45 41.22L108.92 39.35L107.98 39.35L107.04 39.35L107.51 41.22L107.98 43.1L108.45 41.22Z" id="aw8Ux01lz"></path><path d="M112.13 38.44C112.13 39.22 110.27 39.85 107.98 39.85C105.69 39.85 103.83 39.22 103.83 38.44C103.83 37.66 105.69 37.02 107.98 37.02C110.27 37.02 112.13 37.66 112.13 38.44Z" id="dLUuZbcqk"></path><path d="M108.6 35.35L109.23 38.02L107.98 38.02L106.73 38.02L107.35 35.35L107.98 32.69L108.6 35.35Z" id="a2zacvARQb"></path></defs><g><g><g><g><filter id="shadow14972588" x="17.64" y="17.19" width="162" height="199" filterUnits="userSpaceOnUse" primitiveUnits="userSpaceOnUse"><feFlood></feFlood><feComposite in2="SourceAlpha" operator="in"></feComposite><feGaussianBlur stdDeviation="1"></feGaussianBlur><feOffset dx="1" dy="0" result="afterOffset"></feOffset><feFlood flood-color="#000000" flood-opacity="0.5"></feFlood><feComposite in2="afterOffset" operator="in"></feComposite><feMorphology operator="dilate" radius="1"></feMorphology><feComposite in2="SourceAlpha" operator="out"></feComposite></filter><path d="M133.89 116.69L169.64 207.19L98.14 207.19L26.64 207.19L62.39 116.69L98.14 26.19L133.89 116.69Z" id="a32Men4PuJ" fill="white" fill-opacity="1" filter="url(#shadow14972588)"></path></g><use xlink:href="#a6DTtynVZC" opacity="1" fill="#b07945" fill-opacity="1"></use></g><g><g><filter id="shadow406923" x="64.14" y="10.33" width="68" height="81" filterUnits="userSpaceOnUse" primitiveUnits="userSpaceOnUse"><feFlood></feFlood><feComposite in2="SourceAlpha" operator="in"></feComposite><feGaussianBlur stdDeviation="1"></feGaussianBlur><feOffset dx="0" dy="3" result="afterOffset"></feOffset><feFlood flood-color="#000000" flood-opacity="0.5"></feFlood><feComposite in2="afterOffset" operator="in"></feComposite><feMorphology operator="dilate" radius="0"></feMorphology><feComposite in2="SourceAlpha" operator="out"></feComposite></filter><path d="M100.52 24.02L101.43 25.77L102.32 27.47L103.2 29.11L104.05 30.7L104.88 32.25L105.69 33.75L106.47 35.21L107.22 36.63L107.94 38.01L108.63 39.37L109.29 40.69L109.91 41.99L110.06 42.32L110.14 42.2L111.3 43.93L112.42 45.57L113.51 47.13L114.56 48.61L115.56 50.02L116.51 51.37L117.4 52.66L118.24 53.91L119 55.12L119.7 56.3L120.32 57.45L120.85 58.58L121.3 59.71L121.66 60.83L121.93 61.95L122.09 63.08L122.14 64.24L122.09 65.39L121.93 66.51L121.66 67.6L121.3 68.64L120.85 69.64L120.32 70.59L119.7 71.48L119 72.31L118.24 73.07L117.4 73.76L116.51 74.38L115.56 74.92L114.56 75.37L113.51 75.72L112.42 75.99L111.3 76.15L110.14 76.2L108.99 76.15L107.86 75.99L106.77 75.72L106.39 75.59L105.69 76.1L104.88 76.61L104.05 77.05L103.2 77.43L102.32 77.75L101.43 78L100.52 78.18L99.59 78.29L98.64 78.33L97.7 78.29L96.77 78.18L95.86 78L94.96 77.75L94.09 77.43L93.23 77.05L92.4 76.61L91.6 76.1L91.53 76.05L90.56 76.49L89.51 76.85L88.42 77.11L87.3 77.27L86.14 77.33L84.99 77.27L83.86 77.11L82.77 76.85L81.73 76.49L80.73 76.04L79.78 75.51L78.88 74.89L78.05 74.2L77.28 73.43L76.59 72.6L75.97 71.71L75.43 70.76L74.98 69.77L74.62 68.72L74.36 67.64L74.2 66.52L74.14 65.36L74.2 64.21L74.36 63.07L74.62 61.95L74.98 60.83L75.43 59.71L75.97 58.57L76.59 57.42L77.28 56.25L78.05 55.04L78.88 53.79L79.78 52.49L80.73 51.14L81.73 49.73L82.77 48.25L83.86 46.7L84.99 45.06L86.14 43.33L86.52 43.89L86.79 43.26L87.38 41.99L88 40.69L88.66 39.37L89.35 38.01L90.07 36.63L90.82 35.21L91.6 33.75L92.4 32.25L93.23 30.7L94.09 29.11L94.96 27.47L95.86 25.77L96.77 24.02L97.7 22.2L98.64 20.33L99.59 22.2L100.52 24.02Z" id="e5byF68WnM" fill="white" fill-opacity="1" filter="url(#shadow406923)"></path></g><use xlink:href="#c6wyCqA5N7" opacity="1" fill="#fffaf8" fill-opacity="1"></use></g><g><use xlink:href="#b6OuF7QGfb" opacity="1" fill="#ffffff" fill-opacity="0.14"></use></g><g><g><filter id="shadow3045891" x="-6.77" y="60.89" width="133" height="163.29" filterUnits="userSpaceOnUse" primitiveUnits="userSpaceOnUse"><feFlood></feFlood><feComposite in2="SourceAlpha" operator="in"></feComposite><feGaussianBlur stdDeviation="1"></feGaussianBlur><feOffset dx="1" dy="1" result="afterOffset"></feOffset><feFlood flood-color="#000000" flood-opacity="0.5"></feFlood><feComposite in2="afterOffset" operator="in"></feComposite><feMorphology operator="dilate" radius="1"></feMorphology><feComposite in2="SourceAlpha" operator="out"></feComposite></filter><path d="M87.73 142.04L116.23 214.18L59.23 214.18L2.23 214.18L30.73 142.04L59.23 69.89L87.73 142.04Z" id="bhUhYVlXB" fill="white" fill-opacity="1" filter="url(#shadow3045891)"></path></g><use xlink:href="#e13dCM5dii" opacity="1" fill="#b07945" fill-opacity="1"></use></g><g><g><filter id="shadow15335235" x="30.38" y="54.67" width="58.27" height="69.24" filterUnits="userSpaceOnUse" primitiveUnits="userSpaceOnUse"><feFlood></feFlood><feComposite in2="SourceAlpha" operator="in"></feComposite><feGaussianBlur stdDeviation="1"></feGaussianBlur><feOffset dx="0" dy="3" result="afterOffset"></feOffset><feFlood flood-color="#000000" flood-opacity="0.5"></feFlood><feComposite in2="afterOffset" operator="in"></feComposite><feMorphology operator="dilate" radius="0"></feMorphology><feComposite in2="SourceAlpha" operator="out"></feComposite></filter><path d="M62.62 69.94L63.48 71.56L64.31 73.11L65.12 74.61L65.9 76.06L66.64 77.46L67.35 78.82L68.02 80.14L68.65 81.43L69.01 82.21L69.08 82.11L70.19 83.78L71.27 85.34L72.3 86.8L73.29 88.18L74.21 89.49L75.06 90.74L75.84 91.93L76.54 93.08L77.16 94.2L77.67 95.3L78.09 96.38L78.39 97.47L78.58 98.56L78.64 99.68L78.58 100.79L78.39 101.87L78.09 102.9L77.67 103.87L77.16 104.79L76.54 105.64L75.84 106.42L75.06 107.12L74.21 107.73L73.29 108.25L72.3 108.66L71.27 108.96L70.19 109.15L69.08 109.22L67.96 109.15L66.88 108.96L66.08 108.73L65.9 108.88L65.12 109.4L64.31 109.85L63.48 110.22L62.62 110.52L61.74 110.73L60.83 110.86L59.91 110.91L58.99 110.86L58.08 110.73L57.2 110.52L56.34 110.22L55.51 109.85L54.7 109.4L54.25 109.09L54.15 109.14L53.17 109.56L52.14 109.86L51.06 110.05L49.95 110.11L48.83 110.05L47.75 109.86L46.72 109.56L45.74 109.14L44.82 108.63L43.96 108.02L43.18 107.32L42.48 106.54L41.87 105.69L41.35 104.77L40.94 103.79L40.63 102.76L40.44 101.69L40.38 100.58L40.44 99.46L40.63 98.37L40.94 97.28L41.35 96.19L41.87 95.1L42.48 93.98L43.18 92.83L43.96 91.64L44.82 90.39L45.74 89.08L46.72 87.7L47.75 86.23L48.83 84.67L49.95 83.01L50.24 83.45L50.58 82.68L51.17 81.43L51.8 80.14L52.47 78.82L53.18 77.46L53.93 76.06L54.7 74.61L55.51 73.11L56.34 71.56L57.2 69.94L58.08 68.26L58.99 66.5L59.91 64.67L60.83 66.5L61.74 68.26L61.74 68.26L62.62 69.94Z" id="a2trFoWAMB" fill="white" fill-opacity="1" filter="url(#shadow15335235)"></path></g><use xlink:href="#a2iP1wtDHF" opacity="1" fill="#fffaf8" fill-opacity="1"></use></g><g><g><filter id="shadow11461526" x="81.23" y="85.6" width="111.5" height="136.69" filterUnits="userSpaceOnUse" primitiveUnits="userSpaceOnUse"><feFlood></feFlood><feComposite in2="SourceAlpha" operator="in"></feComposite><feGaussianBlur stdDeviation="1"></feGaussianBlur><feOffset dx="0" dy="0" result="afterOffset"></feOffset><feFlood flood-color="#000000" flood-opacity="0.5"></feFlood><feComposite in2="afterOffset" operator="in"></feComposite><feMorphology operator="dilate" radius="1"></feMorphology><feComposite in2="SourceAlpha" operator="out"></feComposite></filter><path d="M160.86 153.95L184.73 214.3L136.98 214.3L89.23 214.3L113.11 153.95L136.98 93.6L160.86 153.95Z" id="b1xvdJj9p" fill="white" fill-opacity="1" filter="url(#shadow11461526)"></path></g><use xlink:href="#a7vr2o9ci" opacity="1" fill="#b07945" fill-opacity="1"></use></g><g><g><filter id="shadow15184904" x="111.19" y="79.24" width="52.06" height="61.67" filterUnits="userSpaceOnUse" primitiveUnits="userSpaceOnUse"><feFlood></feFlood><feComposite in2="SourceAlpha" operator="in"></feComposite><feGaussianBlur stdDeviation="1"></feGaussianBlur><feOffset dx="0" dy="3" result="afterOffset"></feOffset><feFlood flood-color="#000000" flood-opacity="0.5"></feFlood><feComposite in2="afterOffset" operator="in"></feComposite><feMorphology operator="dilate" radius="0"></feMorphology><feComposite in2="SourceAlpha" operator="out"></feComposite></filter><path d="M140.3 94.55L141.16 96.15L141.99 97.69L142.78 99.16L143.52 100.57L144.22 101.93L144.87 103.25L145.18 103.9L145.23 103.82L146.41 105.58L147.55 107.2L148.61 108.7L149.59 110.09L150.49 111.41L151.28 112.65L151.95 113.85L152.5 115.02L152.91 116.17L153.16 117.33L153.24 118.52L153.16 119.7L152.91 120.82L152.5 121.88L151.95 122.86L151.28 123.75L150.49 124.54L149.59 125.21L148.61 125.75L147.55 126.16L146.41 126.41L145.23 126.49L144.05 126.41L142.92 126.16L142.73 126.09L141.99 126.6L141.16 127.06L140.3 127.42L139.41 127.69L138.49 127.85L137.55 127.91L136.61 127.85L135.69 127.69L134.8 127.42L133.94 127.06L133.11 126.6L132.8 126.38L132.58 126.5L131.52 126.91L130.39 127.16L129.2 127.24L128.02 127.16L126.89 126.91L125.82 126.5L124.84 125.96L123.94 125.29L123.15 124.5L122.48 123.61L121.93 122.63L121.53 121.57L121.28 120.45L121.19 119.27L121.28 118.08L121.53 116.92L121.93 115.77L122.48 114.6L123.15 113.4L123.94 112.16L124.84 110.84L125.82 109.45L126.89 107.95L128.02 106.33L129.2 104.57L129.45 104.95L129.63 104.53L130.23 103.25L130.88 101.93L131.58 100.57L132.33 99.16L133.11 97.69L133.94 96.15L134.8 94.55L135.69 92.87L136.61 91.1L137.55 89.24L138.49 91.1L139.41 92.87L139.41 92.87L140.3 94.55Z" id="a1rMMveDoo" fill="white" fill-opacity="1" filter="url(#shadow15184904)"></path></g><use xlink:href="#esTOKdPLN" opacity="1" fill="#fffaf8" fill-opacity="1"></use></g><g><use xlink:href="#e1eCfoZQAw" opacity="1" fill="#ffffff" fill-opacity="0.23"></use></g><g><use xlink:href="#c4OB2t90" opacity="1" fill="#ffffff" fill-opacity="0.23"></use></g><g><g><filter id="shadow13165319" x="95.69" y="32.35" width="15" height="15" filterUnits="userSpaceOnUse" primitiveUnits="userSpaceOnUse"><feFlood></feFlood><feComposite in2="SourceAlpha" operator="in"></feComposite><feGaussianBlur stdDeviation="1"></feGaussianBlur><feOffset dx="0" dy="0" result="afterOffset"></feOffset><feFlood flood-color="#000000" flood-opacity="0.5"></feFlood><feComposite in2="afterOffset" operator="in"></feComposite><feMorphology operator="dilate" radius="0"></feMorphology><feComposite in2="SourceAlpha" operator="out"></feComposite></filter><path d="M103.69 39.85C103.69 40.12 103.46 40.35 103.19 40.35C102.91 40.35 102.69 40.12 102.69 39.85C102.69 39.57 102.91 39.35 103.19 39.35C103.46 39.35 103.69 39.57 103.69 39.85Z" id="euYYwfDUB" fill="white" fill-opacity="1" filter="url(#shadow13165319)"></path></g><use xlink:href="#b9ZlIEhRT" opacity="1" fill="#e0d6ae" fill-opacity="1"></use></g><g><use xlink:href="#b2Xghh0VSY" opacity="1" fill="#8180f5" fill-opacity="1"></use></g><g><g><filter id="shadow8478187" x="105.13" y="32.35" width="15" height="15" filterUnits="userSpaceOnUse" primitiveUnits="userSpaceOnUse"><feFlood></feFlood><feComposite in2="SourceAlpha" operator="in"></feComposite><feGaussianBlur stdDeviation="1"></feGaussianBlur><feOffset dx="0" dy="0" result="afterOffset"></feOffset><feFlood flood-color="#000000" flood-opacity="0.5"></feFlood><feComposite in2="afterOffset" operator="in"></feComposite><feMorphology operator="dilate" radius="0"></feMorphology><feComposite in2="SourceAlpha" operator="out"></feComposite></filter><path d="M113.13 39.85C113.13 40.12 112.9 40.35 112.63 40.35C112.35 40.35 112.13 40.12 112.13 39.85C112.13 39.57 112.35 39.35 112.63 39.35C112.9 39.35 113.13 39.57 113.13 39.85Z" id="b34DooLROq" fill="white" fill-opacity="1" filter="url(#shadow8478187)"></path></g><use xlink:href="#a26VHdjP71" opacity="1" fill="#e0d6ae" fill-opacity="1"></use></g><g><g><filter id="shadow1933661" x="96.44" y="32.35" width="23" height="20.5" filterUnits="userSpaceOnUse" primitiveUnits="userSpaceOnUse"><feFlood></feFlood><feComposite in2="SourceAlpha" operator="in"></feComposite><feGaussianBlur stdDeviation="1"></feGaussianBlur><feOffset dx="0" dy="0" result="afterOffset"></feOffset><feFlood flood-color="#000000" flood-opacity="0.5"></feFlood><feComposite in2="afterOffset" operator="in"></feComposite><feMorphology operator="dilate" radius="0"></feMorphology><feComposite in2="SourceAlpha" operator="out"></feComposite></filter><path d="M112.37 39.41L112.42 39.48L112.44 39.57L112.44 40.12L112.42 40.21L112.37 40.28L112.3 40.33L112.21 40.35L109.85 40.35L109.85 45.06L109.79 45.37L109.62 45.62L109.38 45.78L109.07 45.85L106.88 45.85L106.58 45.78L106.33 45.62L106.16 45.37L106.1 45.06L106.1 40.35L103.66 40.35L103.58 40.33L103.5 40.28L103.45 40.21L103.44 40.12L103.44 39.57L103.45 39.48L103.5 39.41L103.58 39.36L103.66 39.35L112.21 39.35L112.3 39.36L112.37 39.41Z" id="b5PUqZkDSK" fill="white" fill-opacity="1" filter="url(#shadow1933661)"></path></g><use xlink:href="#d5ufcwG9v" opacity="1" fill="#8180f5" fill-opacity="1"></use></g><g><g><filter id="shadow3244154" x="100.04" y="32.35" width="15.88" height="17.75" filterUnits="userSpaceOnUse" primitiveUnits="userSpaceOnUse"><feFlood></feFlood><feComposite in2="SourceAlpha" operator="in"></feComposite><feGaussianBlur stdDeviation="1"></feGaussianBlur><feOffset dx="0" dy="0" result="afterOffset"></feOffset><feFlood flood-color="#000000" flood-opacity="0.5"></feFlood><feComposite in2="afterOffset" operator="in"></feComposite><feMorphology operator="dilate" radius="0"></feMorphology><feComposite in2="SourceAlpha" operator="out"></feComposite></filter><path d="M108.45 41.22L108.92 39.35L107.98 39.35L107.04 39.35L107.51 41.22L107.98 43.1L108.45 41.22Z" id="a2oeWq92JD" fill="white" fill-opacity="1" filter="url(#shadow3244154)"></path></g><use xlink:href="#aw8Ux01lz" opacity="1" fill="#f2f2f2" fill-opacity="1"></use></g><g><g><filter id="shadow526347" x="96.83" y="30.02" width="22.3" height="16.83" filterUnits="userSpaceOnUse" primitiveUnits="userSpaceOnUse"><feFlood></feFlood><feComposite in2="SourceAlpha" operator="in"></feComposite><feGaussianBlur stdDeviation="1"></feGaussianBlur><feOffset dx="0" dy="0" result="afterOffset"></feOffset><feFlood flood-color="#000000" flood-opacity="0.5"></feFlood><feComposite in2="afterOffset" operator="in"></feComposite><feMorphology operator="dilate" radius="0"></feMorphology><feComposite in2="SourceAlpha" operator="out"></feComposite></filter><path d="M112.13 38.44C112.13 39.22 110.27 39.85 107.98 39.85C105.69 39.85 103.83 39.22 103.83 38.44C103.83 37.66 105.69 37.02 107.98 37.02C110.27 37.02 112.13 37.66 112.13 38.44Z" id="d1uGFQR9xD" fill="white" fill-opacity="1" filter="url(#shadow526347)"></path></g><use xlink:href="#dLUuZbcqk" opacity="1" fill="#8180f5" fill-opacity="1"></use></g><g><g><filter id="shadow9246214" x="99.73" y="25.69" width="16.5" height="19.33" filterUnits="userSpaceOnUse" primitiveUnits="userSpaceOnUse"><feFlood></feFlood><feComposite in2="SourceAlpha" operator="in"></feComposite><feGaussianBlur stdDeviation="1"></feGaussianBlur><feOffset dx="0" dy="0" result="afterOffset"></feOffset><feFlood flood-color="#000000" flood-opacity="0.5"></feFlood><feComposite in2="afterOffset" operator="in"></feComposite><feMorphology operator="dilate" radius="0"></feMorphology><feComposite in2="SourceAlpha" operator="out"></feComposite></filter><path d="M108.6 35.35L109.23 38.02L107.98 38.02L106.73 38.02L107.35 35.35L107.98 32.69L108.6 35.35Z" id="f19wqcv8aY" fill="white" fill-opacity="1" filter="url(#shadow9246214)"></path></g><use xlink:href="#a2zacvARQb" opacity="1" fill="#8180f5" fill-opacity="1"></use></g></g></g></svg>