<?xml version="1.0" encoding="UTF-8" standalone="no"?>
<!DOCTYPE svg PUBLIC "-//W3C//DTD SVG 1.1//EN" "http://www.w3.org/Graphics/SVG/1.1/DTD/svg11.dtd">
<svg version="1.1" xmlns="http://www.w3.org/2000/svg" xmlns:xlink="http://www.w3.org/1999/xlink" preserveAspectRatio="xMidYMid meet" viewBox="0 0 105 146" width="105" height="146"><defs><path d="M56.14 3.5C57.54 3.5 58.67 4.64 58.67 6.03C58.67 7.9 58.67 10.95 58.67 12.82C58.67 14.22 57.54 15.35 56.14 15.35C54.28 15.35 51.22 15.35 49.36 15.35C47.96 15.35 46.83 14.22 46.83 12.82C46.83 10.95 46.83 7.9 46.83 6.03C46.83 4.64 47.96 3.5 49.36 3.5C51.22 3.5 54.28 3.5 56.14 3.5Z" id="hy4rwLTf"></path><path d="M76.24 3.5C77.63 3.5 78.77 4.64 78.77 6.03C78.77 7.9 78.77 10.95 78.77 12.82C78.77 14.22 77.63 15.35 76.24 15.35C74.37 15.35 71.31 15.35 69.45 15.35C68.05 15.35 66.92 14.22 66.92 12.82C66.92 10.95 66.92 7.9 66.92 6.03C66.92 4.64 68.05 3.5 69.45 3.5C71.31 3.5 74.37 3.5 76.24 3.5Z" id="a2uG4qeTtr"></path><path d="M35.81 3.5C37.21 3.5 38.34 4.64 38.34 6.03C38.34 7.9 38.34 10.95 38.34 12.82C38.34 14.22 37.21 15.35 35.81 15.35C33.95 15.35 30.89 15.35 29.02 15.35C27.63 15.35 26.49 14.22 26.49 12.82C26.49 10.95 26.49 7.9 26.49 6.03C26.49 4.64 27.63 3.5 29.02 3.5C30.89 3.5 33.95 3.5 35.81 3.5Z" id="d92HHCfNK0"></path><path d="M16.55 3.5C17.94 3.5 19.08 4.64 19.08 6.03C19.08 7.9 19.08 10.95 19.08 12.82C19.08 14.22 17.94 15.35 16.55 15.35C14.68 15.35 11.62 15.35 9.76 15.35C8.36 15.35 7.23 14.22 7.23 12.82C7.23 10.95 7.23 7.9 7.23 6.03C7.23 4.64 8.36 3.5 9.76 3.5C11.62 3.5 14.68 3.5 16.55 3.5Z" id="b4HFNt3MFu"></path><path d="M80.12 9.43C81.14 9.43 81.98 10.26 81.98 11.29C81.98 17.28 81.98 33.38 81.98 39.36C81.98 40.39 81.14 41.23 80.12 41.23C64.95 41.23 21.31 41.23 6.15 41.23C5.12 41.23 4.29 40.39 4.29 39.36C4.29 33.38 4.29 17.28 4.29 11.29C4.29 10.26 5.12 9.43 6.15 9.43C21.31 9.43 64.95 9.43 80.12 9.43Z" id="lAaXjsitX"></path><path d="M95.68 53.2C97.07 53.2 98.21 54.34 98.21 55.73C98.21 57.6 98.21 60.66 98.21 62.52C98.21 63.92 97.07 65.05 95.68 65.05C93.81 65.05 90.75 65.05 88.89 65.05C87.49 65.05 86.36 63.92 86.36 62.52C86.36 60.66 86.36 57.6 86.36 55.73C86.36 54.34 87.49 53.2 88.89 53.2C90.75 53.2 93.81 53.2 95.68 53.2Z" id="b4A2qFL7Xz"></path><path d="M74.82 53.2C76.21 53.2 77.35 54.34 77.35 55.73C77.35 57.6 77.35 60.66 77.35 62.52C77.35 63.92 76.21 65.05 74.82 65.05C72.95 65.05 69.89 65.05 68.03 65.05C66.63 65.05 65.5 63.92 65.5 62.52C65.5 60.66 65.5 57.6 65.5 55.73C65.5 54.34 66.63 53.2 68.03 53.2C69.89 53.2 72.95 53.2 74.82 53.2Z" id="b4MfBfZXZe"></path><path d="M100.06 59.13C100.8 59.13 101.4 59.73 101.4 60.47C101.4 66.56 101.4 83.49 101.4 89.59C101.4 90.33 100.8 90.93 100.06 90.93C92.56 90.93 71.4 90.93 63.9 90.93C63.16 90.93 62.56 90.33 62.56 89.59C62.56 83.49 62.56 66.56 62.56 60.47C62.56 59.73 63.16 59.13 63.9 59.13C71.4 59.13 92.56 59.13 100.06 59.13Z" id="cmLqRayhZ"></path><path d="M37.41 53.2C38.8 53.2 39.94 54.34 39.94 55.73C39.94 57.6 39.94 60.66 39.94 62.52C39.94 63.92 38.8 65.05 37.41 65.05C35.54 65.05 32.48 65.05 30.62 65.05C29.22 65.05 28.09 63.92 28.09 62.52C28.09 60.66 28.09 57.6 28.09 55.73C28.09 54.34 29.22 53.2 30.62 53.2C32.48 53.2 35.54 53.2 37.41 53.2Z" id="e5B8nrAtQI"></path><path d="M16.55 53.2C17.94 53.2 19.08 54.34 19.08 55.73C19.08 57.6 19.08 60.66 19.08 62.52C19.08 63.92 17.94 65.05 16.55 65.05C14.68 65.05 11.62 65.05 9.76 65.05C8.36 65.05 7.23 63.92 7.23 62.52C7.23 60.66 7.23 57.6 7.23 55.73C7.23 54.34 8.36 53.2 9.76 53.2C11.62 53.2 14.68 53.2 16.55 53.2Z" id="a1LmZeGJbg"></path><path d="M41.79 59.13C42.53 59.13 43.13 59.73 43.13 60.47C43.13 66.56 43.13 83.49 43.13 89.59C43.13 90.33 42.53 90.93 41.79 90.93C34.29 90.93 13.13 90.93 5.63 90.93C4.89 90.93 4.29 90.33 4.29 89.59C4.29 83.49 4.29 66.56 4.29 60.47C4.29 59.73 4.89 59.13 5.63 59.13C13.13 59.13 34.29 59.13 41.79 59.13Z" id="d19Bx0a6YF"></path><path d="M56.14 103.68C57.54 103.68 58.67 104.81 58.67 106.21C58.67 108.08 58.67 111.13 58.67 113C58.67 114.4 57.54 115.53 56.14 115.53C54.28 115.53 51.22 115.53 49.36 115.53C47.96 115.53 46.83 114.4 46.83 113C46.83 111.13 46.83 108.08 46.83 106.21C46.83 104.81 47.96 103.68 49.36 103.68C51.22 103.68 54.28 103.68 56.14 103.68Z" id="bzvTkAncn"></path><path d="M35.81 103.68C37.21 103.68 38.34 104.81 38.34 106.21C38.34 108.08 38.34 111.13 38.34 113C38.34 114.4 37.21 115.53 35.81 115.53C33.95 115.53 30.89 115.53 29.02 115.53C27.63 115.53 26.49 114.4 26.49 113C26.49 111.13 26.49 108.08 26.49 106.21C26.49 104.81 27.63 103.68 29.02 103.68C30.89 103.68 33.95 103.68 35.81 103.68Z" id="bVUYwwnkZ"></path><path d="M16.55 103.68C17.94 103.68 19.08 104.81 19.08 106.21C19.08 108.08 19.08 111.13 19.08 113C19.08 114.4 17.94 115.53 16.55 115.53C14.68 115.53 11.62 115.53 9.76 115.53C8.36 115.53 7.23 114.4 7.23 113C7.23 111.13 7.23 108.08 7.23 106.21C7.23 104.81 8.36 103.68 9.76 103.68C11.62 103.68 14.68 103.68 16.55 103.68Z" id="d17tSHTofO"></path><path d="M60.69 109.61C61.72 109.61 62.56 110.44 62.56 111.47C62.56 117.46 62.56 133.56 62.56 139.54C62.56 140.57 61.72 141.41 60.69 141.41C49.41 141.41 17.43 141.41 6.15 141.41C5.12 141.41 4.29 140.57 4.29 139.54C4.29 133.56 4.29 117.46 4.29 111.47C4.29 110.44 5.12 109.61 6.15 109.61C17.43 109.61 49.41 109.61 60.69 109.61Z" id="d2eNYBul73"></path></defs><g><g><g><g><filter id="shadow9047883" x="39.83" y="-3.5" width="25.85" height="25.85" filterUnits="userSpaceOnUse" primitiveUnits="userSpaceOnUse"><feFlood></feFlood><feComposite in2="SourceAlpha" operator="in"></feComposite><feGaussianBlur stdDeviation="1"></feGaussianBlur><feOffset dx="0" dy="0" result="afterOffset"></feOffset><feFlood flood-color="#000000" flood-opacity="0.5"></feFlood><feComposite in2="afterOffset" operator="in"></feComposite><feMorphology operator="dilate" radius="0"></feMorphology><feComposite in2="SourceAlpha" operator="out"></feComposite></filter><path d="M56.14 3.5C57.54 3.5 58.67 4.64 58.67 6.03C58.67 7.9 58.67 10.95 58.67 12.82C58.67 14.22 57.54 15.35 56.14 15.35C54.28 15.35 51.22 15.35 49.36 15.35C47.96 15.35 46.83 14.22 46.83 12.82C46.83 10.95 46.83 7.9 46.83 6.03C46.83 4.64 47.96 3.5 49.36 3.5C51.22 3.5 54.28 3.5 56.14 3.5Z" id="aGuVMwJrs" fill="white" fill-opacity="1" filter="url(#shadow9047883)"></path></g><use xlink:href="#hy4rwLTf" opacity="1" fill="#ee6262" fill-opacity="1"></use></g><g><g><filter id="shadow13748193" x="59.92" y="-3.5" width="25.85" height="25.85" filterUnits="userSpaceOnUse" primitiveUnits="userSpaceOnUse"><feFlood></feFlood><feComposite in2="SourceAlpha" operator="in"></feComposite><feGaussianBlur stdDeviation="1"></feGaussianBlur><feOffset dx="0" dy="0" result="afterOffset"></feOffset><feFlood flood-color="#000000" flood-opacity="0.5"></feFlood><feComposite in2="afterOffset" operator="in"></feComposite><feMorphology operator="dilate" radius="0"></feMorphology><feComposite in2="SourceAlpha" operator="out"></feComposite></filter><path d="M76.24 3.5C77.63 3.5 78.77 4.64 78.77 6.03C78.77 7.9 78.77 10.95 78.77 12.82C78.77 14.22 77.63 15.35 76.24 15.35C74.37 15.35 71.31 15.35 69.45 15.35C68.05 15.35 66.92 14.22 66.92 12.82C66.92 10.95 66.92 7.9 66.92 6.03C66.92 4.64 68.05 3.5 69.45 3.5C71.31 3.5 74.37 3.5 76.24 3.5Z" id="cfMelbyti" fill="white" fill-opacity="1" filter="url(#shadow13748193)"></path></g><use xlink:href="#a2uG4qeTtr" opacity="1" fill="#ee6262" fill-opacity="1"></use></g><g><g><filter id="shadow4684180" x="19.49" y="-3.5" width="25.85" height="25.85" filterUnits="userSpaceOnUse" primitiveUnits="userSpaceOnUse"><feFlood></feFlood><feComposite in2="SourceAlpha" operator="in"></feComposite><feGaussianBlur stdDeviation="1"></feGaussianBlur><feOffset dx="0" dy="0" result="afterOffset"></feOffset><feFlood flood-color="#000000" flood-opacity="0.5"></feFlood><feComposite in2="afterOffset" operator="in"></feComposite><feMorphology operator="dilate" radius="0"></feMorphology><feComposite in2="SourceAlpha" operator="out"></feComposite></filter><path d="M35.81 3.5C37.21 3.5 38.34 4.64 38.34 6.03C38.34 7.9 38.34 10.95 38.34 12.82C38.34 14.22 37.21 15.35 35.81 15.35C33.95 15.35 30.89 15.35 29.02 15.35C27.63 15.35 26.49 14.22 26.49 12.82C26.49 10.95 26.49 7.9 26.49 6.03C26.49 4.64 27.63 3.5 29.02 3.5C30.89 3.5 33.95 3.5 35.81 3.5Z" id="e62CRkVVWE" fill="white" fill-opacity="1" filter="url(#shadow4684180)"></path></g><use xlink:href="#d92HHCfNK0" opacity="1" fill="#ee6262" fill-opacity="1"></use></g><g><g><filter id="shadow5017409" x="0.23" y="-3.5" width="25.85" height="25.85" filterUnits="userSpaceOnUse" primitiveUnits="userSpaceOnUse"><feFlood></feFlood><feComposite in2="SourceAlpha" operator="in"></feComposite><feGaussianBlur stdDeviation="1"></feGaussianBlur><feOffset dx="0" dy="0" result="afterOffset"></feOffset><feFlood flood-color="#000000" flood-opacity="0.5"></feFlood><feComposite in2="afterOffset" operator="in"></feComposite><feMorphology operator="dilate" radius="0"></feMorphology><feComposite in2="SourceAlpha" operator="out"></feComposite></filter><path d="M16.55 3.5C17.94 3.5 19.08 4.64 19.08 6.03C19.08 7.9 19.08 10.95 19.08 12.82C19.08 14.22 17.94 15.35 16.55 15.35C14.68 15.35 11.62 15.35 9.76 15.35C8.36 15.35 7.23 14.22 7.23 12.82C7.23 10.95 7.23 7.9 7.23 6.03C7.23 4.64 8.36 3.5 9.76 3.5C11.62 3.5 14.68 3.5 16.55 3.5Z" id="c5dCOJCWPk" fill="white" fill-opacity="1" filter="url(#shadow5017409)"></path></g><use xlink:href="#b4HFNt3MFu" opacity="1" fill="#ee6262" fill-opacity="1"></use></g><g><g><filter id="shadow1996348" x="-2.71" y="2.43" width="91.69" height="45.8" filterUnits="userSpaceOnUse" primitiveUnits="userSpaceOnUse"><feFlood></feFlood><feComposite in2="SourceAlpha" operator="in"></feComposite><feGaussianBlur stdDeviation="1"></feGaussianBlur><feOffset dx="0" dy="0" result="afterOffset"></feOffset><feFlood flood-color="#000000" flood-opacity="0.5"></feFlood><feComposite in2="afterOffset" operator="in"></feComposite><feMorphology operator="dilate" radius="0"></feMorphology><feComposite in2="SourceAlpha" operator="out"></feComposite></filter><path d="M80.12 9.43C81.14 9.43 81.98 10.26 81.98 11.29C81.98 17.28 81.98 33.38 81.98 39.36C81.98 40.39 81.14 41.23 80.12 41.23C64.95 41.23 21.31 41.23 6.15 41.23C5.12 41.23 4.29 40.39 4.29 39.36C4.29 33.38 4.29 17.28 4.29 11.29C4.29 10.26 5.12 9.43 6.15 9.43C21.31 9.43 64.95 9.43 80.12 9.43Z" id="i1AKlhPWbR" fill="white" fill-opacity="1" filter="url(#shadow1996348)"></path></g><use xlink:href="#lAaXjsitX" opacity="1" fill="#ee6262" fill-opacity="1"></use></g><g><g><filter id="shadow13347971" x="79.36" y="46.2" width="25.85" height="25.85" filterUnits="userSpaceOnUse" primitiveUnits="userSpaceOnUse"><feFlood></feFlood><feComposite in2="SourceAlpha" operator="in"></feComposite><feGaussianBlur stdDeviation="1"></feGaussianBlur><feOffset dx="0" dy="0" result="afterOffset"></feOffset><feFlood flood-color="#000000" flood-opacity="0.5"></feFlood><feComposite in2="afterOffset" operator="in"></feComposite><feMorphology operator="dilate" radius="0"></feMorphology><feComposite in2="SourceAlpha" operator="out"></feComposite></filter><path d="M95.68 53.2C97.07 53.2 98.21 54.34 98.21 55.73C98.21 57.6 98.21 60.66 98.21 62.52C98.21 63.92 97.07 65.05 95.68 65.05C93.81 65.05 90.75 65.05 88.89 65.05C87.49 65.05 86.36 63.92 86.36 62.52C86.36 60.66 86.36 57.6 86.36 55.73C86.36 54.34 87.49 53.2 88.89 53.2C90.75 53.2 93.81 53.2 95.68 53.2Z" id="kHMGtwxqK" fill="white" fill-opacity="1" filter="url(#shadow13347971)"></path></g><use xlink:href="#b4A2qFL7Xz" opacity="1" fill="#6a69ff" fill-opacity="1"></use></g><g><g><filter id="shadow3427605" x="58.5" y="46.2" width="25.85" height="25.85" filterUnits="userSpaceOnUse" primitiveUnits="userSpaceOnUse"><feFlood></feFlood><feComposite in2="SourceAlpha" operator="in"></feComposite><feGaussianBlur stdDeviation="1"></feGaussianBlur><feOffset dx="0" dy="0" result="afterOffset"></feOffset><feFlood flood-color="#000000" flood-opacity="0.5"></feFlood><feComposite in2="afterOffset" operator="in"></feComposite><feMorphology operator="dilate" radius="0"></feMorphology><feComposite in2="SourceAlpha" operator="out"></feComposite></filter><path d="M74.82 53.2C76.21 53.2 77.35 54.34 77.35 55.73C77.35 57.6 77.35 60.66 77.35 62.52C77.35 63.92 76.21 65.05 74.82 65.05C72.95 65.05 69.89 65.05 68.03 65.05C66.63 65.05 65.5 63.92 65.5 62.52C65.5 60.66 65.5 57.6 65.5 55.73C65.5 54.34 66.63 53.2 68.03 53.2C69.89 53.2 72.95 53.2 74.82 53.2Z" id="b3IS06eq8" fill="white" fill-opacity="1" filter="url(#shadow3427605)"></path></g><use xlink:href="#b4MfBfZXZe" opacity="1" fill="#6a69ff" fill-opacity="1"></use></g><g><g><filter id="shadow480209" x="55.56" y="52.13" width="52.85" height="45.8" filterUnits="userSpaceOnUse" primitiveUnits="userSpaceOnUse"><feFlood></feFlood><feComposite in2="SourceAlpha" operator="in"></feComposite><feGaussianBlur stdDeviation="1"></feGaussianBlur><feOffset dx="0" dy="0" result="afterOffset"></feOffset><feFlood flood-color="#000000" flood-opacity="0.5"></feFlood><feComposite in2="afterOffset" operator="in"></feComposite><feMorphology operator="dilate" radius="0"></feMorphology><feComposite in2="SourceAlpha" operator="out"></feComposite></filter><path d="M100.06 59.13C100.8 59.13 101.4 59.73 101.4 60.47C101.4 66.56 101.4 83.49 101.4 89.59C101.4 90.33 100.8 90.93 100.06 90.93C92.56 90.93 71.4 90.93 63.9 90.93C63.16 90.93 62.56 90.33 62.56 89.59C62.56 83.49 62.56 66.56 62.56 60.47C62.56 59.73 63.16 59.13 63.9 59.13C71.4 59.13 92.56 59.13 100.06 59.13Z" id="d13fe5niT3" fill="white" fill-opacity="1" filter="url(#shadow480209)"></path></g><use xlink:href="#cmLqRayhZ" opacity="1" fill="#6a69ff" fill-opacity="1"></use></g><g><g><filter id="shadow6460291" x="21.09" y="46.2" width="25.85" height="25.85" filterUnits="userSpaceOnUse" primitiveUnits="userSpaceOnUse"><feFlood></feFlood><feComposite in2="SourceAlpha" operator="in"></feComposite><feGaussianBlur stdDeviation="1"></feGaussianBlur><feOffset dx="0" dy="0" result="afterOffset"></feOffset><feFlood flood-color="#000000" flood-opacity="0.5"></feFlood><feComposite in2="afterOffset" operator="in"></feComposite><feMorphology operator="dilate" radius="0"></feMorphology><feComposite in2="SourceAlpha" operator="out"></feComposite></filter><path d="M37.41 53.2C38.8 53.2 39.94 54.34 39.94 55.73C39.94 57.6 39.94 60.66 39.94 62.52C39.94 63.92 38.8 65.05 37.41 65.05C35.54 65.05 32.48 65.05 30.62 65.05C29.22 65.05 28.09 63.92 28.09 62.52C28.09 60.66 28.09 57.6 28.09 55.73C28.09 54.34 29.22 53.2 30.62 53.2C32.48 53.2 35.54 53.2 37.41 53.2Z" id="cEY5PqYBu" fill="white" fill-opacity="1" filter="url(#shadow6460291)"></path></g><use xlink:href="#e5B8nrAtQI" opacity="1" fill="#f8ef6d" fill-opacity="1"></use></g><g><g><filter id="shadow13881376" x="0.23" y="46.2" width="25.85" height="25.85" filterUnits="userSpaceOnUse" primitiveUnits="userSpaceOnUse"><feFlood></feFlood><feComposite in2="SourceAlpha" operator="in"></feComposite><feGaussianBlur stdDeviation="1"></feGaussianBlur><feOffset dx="0" dy="0" result="afterOffset"></feOffset><feFlood flood-color="#000000" flood-opacity="0.5"></feFlood><feComposite in2="afterOffset" operator="in"></feComposite><feMorphology operator="dilate" radius="0"></feMorphology><feComposite in2="SourceAlpha" operator="out"></feComposite></filter><path d="M16.55 53.2C17.94 53.2 19.08 54.34 19.08 55.73C19.08 57.6 19.08 60.66 19.08 62.52C19.08 63.92 17.94 65.05 16.55 65.05C14.68 65.05 11.62 65.05 9.76 65.05C8.36 65.05 7.23 63.92 7.23 62.52C7.23 60.66 7.23 57.6 7.23 55.73C7.23 54.34 8.36 53.2 9.76 53.2C11.62 53.2 14.68 53.2 16.55 53.2Z" id="cIcOmOnic" fill="white" fill-opacity="1" filter="url(#shadow13881376)"></path></g><use xlink:href="#a1LmZeGJbg" opacity="1" fill="#f8ef6d" fill-opacity="1"></use></g><g><g><filter id="shadow9982964" x="-2.71" y="52.13" width="52.85" height="45.8" filterUnits="userSpaceOnUse" primitiveUnits="userSpaceOnUse"><feFlood></feFlood><feComposite in2="SourceAlpha" operator="in"></feComposite><feGaussianBlur stdDeviation="1"></feGaussianBlur><feOffset dx="0" dy="0" result="afterOffset"></feOffset><feFlood flood-color="#000000" flood-opacity="0.5"></feFlood><feComposite in2="afterOffset" operator="in"></feComposite><feMorphology operator="dilate" radius="0"></feMorphology><feComposite in2="SourceAlpha" operator="out"></feComposite></filter><path d="M41.79 59.13C42.53 59.13 43.13 59.73 43.13 60.47C43.13 66.56 43.13 83.49 43.13 89.59C43.13 90.33 42.53 90.93 41.79 90.93C34.29 90.93 13.13 90.93 5.63 90.93C4.89 90.93 4.29 90.33 4.29 89.59C4.29 83.49 4.29 66.56 4.29 60.47C4.29 59.73 4.89 59.13 5.63 59.13C13.13 59.13 34.29 59.13 41.79 59.13Z" id="c8g6YPjHny" fill="white" fill-opacity="1" filter="url(#shadow9982964)"></path></g><use xlink:href="#d19Bx0a6YF" opacity="1" fill="#f8ef6d" fill-opacity="1"></use></g><g><g><filter id="shadow14994683" x="39.83" y="96.68" width="25.85" height="25.85" filterUnits="userSpaceOnUse" primitiveUnits="userSpaceOnUse"><feFlood></feFlood><feComposite in2="SourceAlpha" operator="in"></feComposite><feGaussianBlur stdDeviation="1"></feGaussianBlur><feOffset dx="0" dy="0" result="afterOffset"></feOffset><feFlood flood-color="#000000" flood-opacity="0.5"></feFlood><feComposite in2="afterOffset" operator="in"></feComposite><feMorphology operator="dilate" radius="0"></feMorphology><feComposite in2="SourceAlpha" operator="out"></feComposite></filter><path d="M56.14 103.68C57.54 103.68 58.67 104.81 58.67 106.21C58.67 108.08 58.67 111.13 58.67 113C58.67 114.4 57.54 115.53 56.14 115.53C54.28 115.53 51.22 115.53 49.36 115.53C47.96 115.53 46.83 114.4 46.83 113C46.83 111.13 46.83 108.08 46.83 106.21C46.83 104.81 47.96 103.68 49.36 103.68C51.22 103.68 54.28 103.68 56.14 103.68Z" id="d2mdba8zsd" fill="white" fill-opacity="1" filter="url(#shadow14994683)"></path></g><use xlink:href="#bzvTkAncn" opacity="1" fill="#67bc60" fill-opacity="1"></use></g><g><g><filter id="shadow12853087" x="19.49" y="96.68" width="25.85" height="25.85" filterUnits="userSpaceOnUse" primitiveUnits="userSpaceOnUse"><feFlood></feFlood><feComposite in2="SourceAlpha" operator="in"></feComposite><feGaussianBlur stdDeviation="1"></feGaussianBlur><feOffset dx="0" dy="0" result="afterOffset"></feOffset><feFlood flood-color="#000000" flood-opacity="0.5"></feFlood><feComposite in2="afterOffset" operator="in"></feComposite><feMorphology operator="dilate" radius="0"></feMorphology><feComposite in2="SourceAlpha" operator="out"></feComposite></filter><path d="M35.81 103.68C37.21 103.68 38.34 104.81 38.34 106.21C38.34 108.08 38.34 111.13 38.34 113C38.34 114.4 37.21 115.53 35.81 115.53C33.95 115.53 30.89 115.53 29.02 115.53C27.63 115.53 26.49 114.4 26.49 113C26.49 111.13 26.49 108.08 26.49 106.21C26.49 104.81 27.63 103.68 29.02 103.68C30.89 103.68 33.95 103.68 35.81 103.68Z" id="atUfixxlN" fill="white" fill-opacity="1" filter="url(#shadow12853087)"></path></g><use xlink:href="#bVUYwwnkZ" opacity="1" fill="#67bc60" fill-opacity="1"></use></g><g><g><filter id="shadow16057119" x="0.23" y="96.68" width="25.85" height="25.85" filterUnits="userSpaceOnUse" primitiveUnits="userSpaceOnUse"><feFlood></feFlood><feComposite in2="SourceAlpha" operator="in"></feComposite><feGaussianBlur stdDeviation="1"></feGaussianBlur><feOffset dx="0" dy="0" result="afterOffset"></feOffset><feFlood flood-color="#000000" flood-opacity="0.5"></feFlood><feComposite in2="afterOffset" operator="in"></feComposite><feMorphology operator="dilate" radius="0"></feMorphology><feComposite in2="SourceAlpha" operator="out"></feComposite></filter><path d="M16.55 103.68C17.94 103.68 19.08 104.81 19.08 106.21C19.08 108.08 19.08 111.13 19.08 113C19.08 114.4 17.94 115.53 16.55 115.53C14.68 115.53 11.62 115.53 9.76 115.53C8.36 115.53 7.23 114.4 7.23 113C7.23 111.13 7.23 108.08 7.23 106.21C7.23 104.81 8.36 103.68 9.76 103.68C11.62 103.68 14.68 103.68 16.55 103.68Z" id="b2i2uK79zM" fill="white" fill-opacity="1" filter="url(#shadow16057119)"></path></g><use xlink:href="#d17tSHTofO" opacity="1" fill="#67bc60" fill-opacity="1"></use></g><g><g><filter id="shadow7155306" x="-2.71" y="102.61" width="72.27" height="45.8" filterUnits="userSpaceOnUse" primitiveUnits="userSpaceOnUse"><feFlood></feFlood><feComposite in2="SourceAlpha" operator="in"></feComposite><feGaussianBlur stdDeviation="1"></feGaussianBlur><feOffset dx="0" dy="0" result="afterOffset"></feOffset><feFlood flood-color="#000000" flood-opacity="0.5"></feFlood><feComposite in2="afterOffset" operator="in"></feComposite><feMorphology operator="dilate" radius="0"></feMorphology><feComposite in2="SourceAlpha" operator="out"></feComposite></filter><path d="M60.69 109.61C61.72 109.61 62.56 110.44 62.56 111.47C62.56 117.46 62.56 133.56 62.56 139.54C62.56 140.57 61.72 141.41 60.69 141.41C49.41 141.41 17.43 141.41 6.15 141.41C5.12 141.41 4.29 140.57 4.29 139.54C4.29 133.56 4.29 117.46 4.29 111.47C4.29 110.44 5.12 109.61 6.15 109.61C17.43 109.61 49.41 109.61 60.69 109.61Z" id="aDsJ4beP8" fill="white" fill-opacity="1" filter="url(#shadow7155306)"></path></g><use xlink:href="#d2eNYBul73" opacity="1" fill="#67bc60" fill-opacity="1"></use></g></g></g></svg>