<?xml version="1.0" encoding="UTF-8" standalone="no"?>
<!DOCTYPE svg PUBLIC "-//W3C//DTD SVG 1.1//EN" "http://www.w3.org/Graphics/SVG/1.1/DTD/svg11.dtd">
<svg version="1.1" xmlns="http://www.w3.org/2000/svg" xmlns:xlink="http://www.w3.org/1999/xlink" preserveAspectRatio="xMidYMid meet" viewBox="0 0 136 100" width="136" height="100"><defs><path d="M34.28 92C35.94 92 37.28 93.34 37.28 95C37.28 95.6 37.28 94.4 37.28 95C37.28 96.66 35.94 98 34.28 98C32.4 98 29.76 98 27.88 98C26.22 98 24.88 96.66 24.88 95C24.88 94.4 24.88 95.6 24.88 95C24.88 93.34 26.22 92 27.88 92C29.76 92 32.4 92 34.28 92Z" id="d1N8eKNoPb"></path><path d="M34.26 2.82L35.47 2.96L36.67 3.14L37.85 3.37L39.01 3.65L40.16 3.98L41.29 4.36L42.39 4.78L43.48 5.25L44.55 5.76L45.59 6.32L46.61 6.91L47.61 7.55L48.58 8.23L49.52 8.94L50.44 9.69L51.33 10.48L52.19 11.31L53.02 12.17L53.81 13.06L54.58 13.98L55.32 14.94L56.01 15.93L56.68 16.94L57.31 17.99L57.9 19.06L58.45 20.15L58.97 21.28L59.45 22.42L59.88 23.59L60.27 24.78L60.62 25.99L60.93 27.23L61.19 28.48L61.41 29.75L61.58 31.03L61.7 32.33L61.78 33.65L61.8 34.98L61.78 36.31L61.7 37.63L61.58 38.94L61.41 40.24L61.19 41.54L60.93 42.82L60.62 44.11L60.27 45.4L59.88 46.68L59.45 47.96L58.97 49.25L58.45 50.54L57.9 51.84L57.31 53.14L56.68 54.45L56.01 55.77L55.32 57.11L54.58 58.45L53.81 59.81L53.02 61.19L52.19 62.58L51.33 64L50.44 65.43L49.52 66.89L48.58 68.37L47.61 69.87L46.61 71.4L45.59 72.96L45.51 73.08L45.51 73.16L18.1 73.16L18.1 73.08L18.02 72.96L17 71.4L16 69.87L15.03 68.37L14.09 66.89L13.17 65.43L12.28 64L11.42 62.58L10.59 61.19L9.79 59.81L9.02 58.45L8.29 57.11L7.59 55.77L6.93 54.45L6.3 53.14L5.71 51.84L5.15 50.54L4.64 49.25L4.16 47.96L3.73 46.68L3.33 45.4L2.98 44.11L2.67 42.82L2.41 41.54L2.2 40.24L2.03 38.94L1.9 37.63L1.83 36.31L1.8 34.98L1.83 33.65L1.9 32.33L2.03 31.03L2.2 29.75L2.41 28.48L2.67 27.23L2.98 25.99L3.33 24.78L3.73 23.59L4.16 22.42L4.64 21.28L5.15 20.15L5.71 19.06L6.3 17.99L6.93 16.94L7.59 15.93L8.29 14.94L9.02 13.98L9.79 13.06L10.59 12.17L11.42 11.31L12.28 10.48L13.17 9.69L14.09 8.94L15.03 8.23L16 7.55L17 6.91L18.02 6.32L19.06 5.76L20.13 5.25L21.21 4.78L22.32 4.36L23.45 3.98L24.59 3.65L25.76 3.37L26.94 3.14L28.13 2.96L29.34 2.82L30.57 2.74L31.8 2.72L33.04 2.74L34.26 2.82Z" id="b1ATPUezb4"></path><path d="M19.8 75.56L43.8 75.56L43.8 95L19.8 95L19.8 75.56Z" id="a9e5h4PnP8"></path><path d="M27.79 46.56C27.98 46.56 28.14 46.71 28.14 46.9C28.14 52.39 28.14 68.52 28.14 74.01C28.14 74.2 27.98 74.36 27.79 74.36C27.54 74.36 27.13 74.36 26.88 74.36C26.69 74.36 26.54 74.2 26.54 74.01C26.54 68.52 26.54 52.39 26.54 46.9C26.54 46.71 26.69 46.56 26.88 46.56C27.13 46.56 27.54 46.56 27.79 46.56Z" id="c1KT5W1Wrf"></path><path d="M36.73 46.56C36.92 46.56 37.07 46.71 37.07 46.9C37.07 52.39 37.07 68.52 37.07 74.01C37.07 74.2 36.92 74.36 36.73 74.36C36.47 74.36 36.06 74.36 35.81 74.36C35.62 74.36 35.47 74.2 35.47 74.01C35.47 68.52 35.47 52.39 35.47 46.9C35.47 46.71 35.62 46.56 35.81 46.56C36.06 46.56 36.47 46.56 36.73 46.56Z" id="e11gX0YWL"></path><path d="M45.69 73.16C46.25 73.16 46.7 73.61 46.7 74.17C46.7 74.44 46.7 74.27 46.7 74.55C46.7 75.1 46.25 75.56 45.69 75.56C39.93 75.56 23.67 75.56 17.91 75.56C17.36 75.56 16.9 75.1 16.9 74.55C16.9 74.27 16.9 74.44 16.9 74.17C16.9 73.61 17.36 73.16 17.91 73.16C23.67 73.16 39.93 73.16 45.69 73.16Z" id="ajmRAfiRC"></path><path d="M45.54 77.01C46.09 76.96 46.58 77.38 46.63 77.93C46.65 78.21 46.64 78.03 46.66 78.31C46.71 78.87 46.3 79.36 45.74 79.4C40.01 79.91 23.81 81.32 18.07 81.83C17.51 81.87 17.02 81.46 16.98 80.91C16.95 80.63 16.97 80.81 16.94 80.53C16.89 79.97 17.31 79.48 17.86 79.43C23.6 78.93 39.8 77.52 45.54 77.01Z" id="a1dFIn9UwZ"></path><path d="M45.5 81.83C46.06 81.78 46.54 82.2 46.59 82.75C46.62 83.03 46.6 82.85 46.63 83.13C46.68 83.69 46.26 84.18 45.71 84.22C39.97 84.73 23.77 86.14 18.03 86.65C17.48 86.69 16.99 86.28 16.94 85.73C16.92 85.45 16.93 85.63 16.91 85.35C16.86 84.79 17.27 84.3 17.83 84.25C23.56 83.75 39.76 82.33 45.5 81.83Z" id="e7o3kpGqV"></path><path d="M45.5 86.65C46.06 86.6 46.54 87.02 46.59 87.57C46.62 87.85 46.6 87.67 46.63 87.95C46.68 88.51 46.26 89 45.71 89.04C39.97 89.55 23.77 90.96 18.03 91.46C17.48 91.51 16.99 91.1 16.94 90.55C16.92 90.27 16.93 90.45 16.91 90.17C16.86 89.61 17.27 89.12 17.83 89.07C23.56 88.57 39.76 87.15 45.5 86.65Z" id="e4CTolQWY"></path><path d="M36.41 45.84L36.8 46.59L36.57 47.05L36.41 46.75L35.34 46.14L33.75 45.72L31.8 45.57L29.86 45.72L28.27 46.14L27.2 46.75L27.04 47.05L26.8 46.59L27.2 45.84L28.27 45.22L29.86 44.8L31.8 44.65L33.75 44.8L35.34 45.22L35.34 45.22L36.41 45.84Z" id="b2M1wq84U4"></path><path d="M105.61 92C107.27 92 108.61 93.34 108.61 95C108.61 95.6 108.61 94.4 108.61 95C108.61 96.66 107.27 98 105.61 98C103.73 98 101.09 98 99.21 98C97.55 98 96.21 96.66 96.21 95C96.21 94.4 96.21 95.6 96.21 95C96.21 93.34 97.55 92 99.21 92C101.09 92 103.73 92 105.61 92Z" id="bQyPwPsuy"></path><path d="M105.59 2.82L106.8 2.96L108 3.14L109.18 3.37L110.34 3.65L111.49 3.98L112.62 4.36L113.72 4.78L114.81 5.25L115.88 5.76L116.92 6.32L117.94 6.91L118.94 7.55L119.91 8.23L120.85 8.94L121.77 9.69L122.66 10.48L123.52 11.31L124.35 12.17L125.15 13.06L125.91 13.98L126.65 14.94L127.35 15.93L128.01 16.94L128.64 17.99L129.23 19.06L129.79 20.15L130.3 21.28L130.78 22.42L131.21 23.59L131.6 24.78L131.96 25.99L132.26 27.23L132.52 28.48L132.74 29.75L132.91 31.03L133.03 32.33L133.11 33.65L133.13 34.98L133.11 36.31L133.03 37.63L132.91 38.94L132.74 40.24L132.52 41.54L132.26 42.82L131.96 44.11L131.6 45.4L131.21 46.68L130.78 47.96L130.3 49.25L129.79 50.54L129.23 51.84L128.64 53.14L128.01 54.45L127.35 55.77L126.65 57.11L125.91 58.45L125.15 59.81L124.35 61.19L123.52 62.58L122.66 64L121.77 65.43L120.85 66.89L119.91 68.37L118.94 69.87L117.94 71.4L116.92 72.96L116.84 73.08L116.84 73.16L89.43 73.16L89.43 73.08L89.35 72.96L88.33 71.4L87.33 69.87L86.36 68.37L85.42 66.89L84.5 65.43L83.61 64L82.75 62.58L81.92 61.19L81.12 59.81L80.36 58.45L79.62 57.11L78.92 55.77L78.26 54.45L77.63 53.14L77.04 51.84L76.48 50.54L75.97 49.25L75.49 47.96L75.06 46.68L74.66 45.4L74.31 44.11L74.01 42.82L73.74 41.54L73.53 40.24L73.36 38.94L73.23 37.63L73.16 36.31L73.13 34.98L73.16 33.65L73.23 32.33L73.36 31.03L73.53 29.75L73.74 28.48L74.01 27.23L74.31 25.99L74.66 24.78L75.06 23.59L75.49 22.42L75.97 21.28L76.48 20.15L77.04 19.06L77.63 17.99L78.26 16.94L78.92 15.93L79.62 14.94L80.36 13.98L81.12 13.06L81.92 12.17L82.75 11.31L83.61 10.48L84.5 9.69L85.42 8.94L86.36 8.23L87.33 7.55L88.33 6.91L89.35 6.32L90.39 5.76L91.46 5.25L92.54 4.78L93.65 4.36L94.78 3.98L95.92 3.65L97.09 3.37L98.27 3.14L99.46 2.96L100.67 2.82L101.9 2.74L103.13 2.72L104.37 2.74L105.59 2.82Z" id="d1ybHNJWDY"></path><path d="M91.13 75.56L115.13 75.56L115.13 95L91.13 95L91.13 75.56Z" id="aTGNRCCvN"></path><path d="M99.13 46.56C99.32 46.56 99.47 46.71 99.47 46.9C99.47 52.39 99.47 68.52 99.47 74.01C99.47 74.2 99.32 74.36 99.13 74.36C98.87 74.36 98.46 74.36 98.21 74.36C98.02 74.36 97.87 74.2 97.87 74.01C97.87 68.52 97.87 52.39 97.87 46.9C97.87 46.71 98.02 46.56 98.21 46.56C98.46 46.56 98.87 46.56 99.13 46.56Z" id="h2rLtoq379"></path><path d="M108.06 46.56C108.25 46.56 108.4 46.71 108.4 46.9C108.4 52.39 108.4 68.52 108.4 74.01C108.4 74.2 108.25 74.36 108.06 74.36C107.81 74.36 107.39 74.36 107.14 74.36C106.95 74.36 106.8 74.2 106.8 74.01C106.8 68.52 106.8 52.39 106.8 46.9C106.8 46.71 106.95 46.56 107.14 46.56C107.39 46.56 107.81 46.56 108.06 46.56Z" id="c11WQo2AzJ"></path><path d="M117.02 73.16C117.58 73.16 118.03 73.61 118.03 74.17C118.03 74.44 118.03 74.27 118.03 74.55C118.03 75.1 117.58 75.56 117.02 75.56C111.27 75.56 95 75.56 89.24 75.56C88.69 75.56 88.23 75.1 88.23 74.55C88.23 74.27 88.23 74.44 88.23 74.17C88.23 73.61 88.69 73.16 89.24 73.16C95 73.16 111.27 73.16 117.02 73.16Z" id="c1IiTkPFuY"></path><path d="M116.87 77.01C117.42 76.96 117.91 77.38 117.96 77.93C117.99 78.21 117.97 78.03 117.99 78.31C118.04 78.87 117.63 79.36 117.08 79.4C111.34 79.91 95.14 81.32 89.4 81.83C88.85 81.87 88.36 81.46 88.31 80.91C88.28 80.63 88.3 80.81 88.27 80.53C88.23 79.97 88.64 79.48 89.19 79.43C94.93 78.93 111.13 77.52 116.87 77.01Z" id="e19h4fBEZO"></path><path d="M116.83 81.83C117.39 81.78 117.88 82.2 117.92 82.75C117.95 83.03 117.93 82.85 117.96 83.13C118.01 83.69 117.6 84.18 117.04 84.22C111.3 84.73 95.1 86.14 89.37 86.65C88.81 86.69 88.32 86.28 88.27 85.73C88.25 85.45 88.26 85.63 88.24 85.35C88.19 84.79 88.6 84.3 89.16 84.25C94.89 83.75 111.09 82.33 116.83 81.83Z" id="a4CsEoDzqP"></path><path d="M116.83 86.65C117.39 86.6 117.88 87.02 117.92 87.57C117.95 87.85 117.93 87.67 117.96 87.95C118.01 88.51 117.6 89 117.04 89.04C111.3 89.55 95.1 90.96 89.37 91.46C88.81 91.51 88.32 91.1 88.27 90.55C88.25 90.27 88.26 90.45 88.24 90.17C88.19 89.61 88.6 89.12 89.16 89.07C94.89 88.57 111.09 87.15 116.83 86.65Z" id="b1TSniRfRx"></path><path d="M107.74 45.84L108.13 46.59L107.9 47.05L107.74 46.75L106.67 46.14L105.08 45.72L103.13 45.57L101.19 45.72L99.6 46.14L98.53 46.75L98.37 47.05L98.13 46.59L98.53 45.84L99.6 45.22L101.19 44.8L103.13 44.65L105.08 44.8L106.67 45.22L106.67 45.22L107.74 45.84Z" id="a24uoK7wu3"></path></defs><g><g><g><g><filter id="shadow6960629" x="17.88" y="85" width="26.4" height="20" filterUnits="userSpaceOnUse" primitiveUnits="userSpaceOnUse"><feFlood></feFlood><feComposite in2="SourceAlpha" operator="in"></feComposite><feGaussianBlur stdDeviation="1"></feGaussianBlur><feOffset dx="0" dy="0" result="afterOffset"></feOffset><feFlood flood-color="#000000" flood-opacity="0.5"></feFlood><feComposite in2="afterOffset" operator="in"></feComposite><feMorphology operator="dilate" radius="0"></feMorphology><feComposite in2="SourceAlpha" operator="out"></feComposite></filter><path d="M34.28 92C35.94 92 37.28 93.34 37.28 95C37.28 95.6 37.28 94.4 37.28 95C37.28 96.66 35.94 98 34.28 98C32.4 98 29.76 98 27.88 98C26.22 98 24.88 96.66 24.88 95C24.88 94.4 24.88 95.6 24.88 95C24.88 93.34 26.22 92 27.88 92C29.76 92 32.4 92 34.28 92Z" id="cjwEfCmFp" fill="white" fill-opacity="1" filter="url(#shadow6960629)"></path></g><use xlink:href="#d1N8eKNoPb" opacity="1" fill="#ada9a9" fill-opacity="1"></use></g><g><g><filter id="shadow5962396" x="-5.2" y="-4.28" width="74" height="84.44" filterUnits="userSpaceOnUse" primitiveUnits="userSpaceOnUse"><feFlood></feFlood><feComposite in2="SourceAlpha" operator="in"></feComposite><feGaussianBlur stdDeviation="1"></feGaussianBlur><feOffset dx="0" dy="0" result="afterOffset"></feOffset><feFlood flood-color="#000000" flood-opacity="0.5"></feFlood><feComposite in2="afterOffset" operator="in"></feComposite><feMorphology operator="dilate" radius="0"></feMorphology><feComposite in2="SourceAlpha" operator="out"></feComposite></filter><path d="M34.26 2.82L35.47 2.96L36.67 3.14L37.85 3.37L39.01 3.65L40.16 3.98L41.29 4.36L42.39 4.78L43.48 5.25L44.55 5.76L45.59 6.32L46.61 6.91L47.61 7.55L48.58 8.23L49.52 8.94L50.44 9.69L51.33 10.48L52.19 11.31L53.02 12.17L53.81 13.06L54.58 13.98L55.32 14.94L56.01 15.93L56.68 16.94L57.31 17.99L57.9 19.06L58.45 20.15L58.97 21.28L59.45 22.42L59.88 23.59L60.27 24.78L60.62 25.99L60.93 27.23L61.19 28.48L61.41 29.75L61.58 31.03L61.7 32.33L61.78 33.65L61.8 34.98L61.78 36.31L61.7 37.63L61.58 38.94L61.41 40.24L61.19 41.54L60.93 42.82L60.62 44.11L60.27 45.4L59.88 46.68L59.45 47.96L58.97 49.25L58.45 50.54L57.9 51.84L57.31 53.14L56.68 54.45L56.01 55.77L55.32 57.11L54.58 58.45L53.81 59.81L53.02 61.19L52.19 62.58L51.33 64L50.44 65.43L49.52 66.89L48.58 68.37L47.61 69.87L46.61 71.4L45.59 72.96L45.51 73.08L45.51 73.16L18.1 73.16L18.1 73.08L18.02 72.96L17 71.4L16 69.87L15.03 68.37L14.09 66.89L13.17 65.43L12.28 64L11.42 62.58L10.59 61.19L9.79 59.81L9.02 58.45L8.29 57.11L7.59 55.77L6.93 54.45L6.3 53.14L5.71 51.84L5.15 50.54L4.64 49.25L4.16 47.96L3.73 46.68L3.33 45.4L2.98 44.11L2.67 42.82L2.41 41.54L2.2 40.24L2.03 38.94L1.9 37.63L1.83 36.31L1.8 34.98L1.83 33.65L1.9 32.33L2.03 31.03L2.2 29.75L2.41 28.48L2.67 27.23L2.98 25.99L3.33 24.78L3.73 23.59L4.16 22.42L4.64 21.28L5.15 20.15L5.71 19.06L6.3 17.99L6.93 16.94L7.59 15.93L8.29 14.94L9.02 13.98L9.79 13.06L10.59 12.17L11.42 11.31L12.28 10.48L13.17 9.69L14.09 8.94L15.03 8.23L16 7.55L17 6.91L18.02 6.32L19.06 5.76L20.13 5.25L21.21 4.78L22.32 4.36L23.45 3.98L24.59 3.65L25.76 3.37L26.94 3.14L28.13 2.96L29.34 2.82L30.57 2.74L31.8 2.72L33.04 2.74L34.26 2.82Z" id="kA6BSyNxj" fill="white" fill-opacity="1" filter="url(#shadow5962396)"></path></g><use xlink:href="#b1ATPUezb4" opacity="1" fill="#000000" fill-opacity="0.08"></use></g><g><g><filter id="shadow15656793" x="12.8" y="68.56" width="38" height="33.44" filterUnits="userSpaceOnUse" primitiveUnits="userSpaceOnUse"><feFlood></feFlood><feComposite in2="SourceAlpha" operator="in"></feComposite><feGaussianBlur stdDeviation="1"></feGaussianBlur><feOffset dx="0" dy="0" result="afterOffset"></feOffset><feFlood flood-color="#000000" flood-opacity="0.5"></feFlood><feComposite in2="afterOffset" operator="in"></feComposite><feMorphology operator="dilate" radius="0"></feMorphology><feComposite in2="SourceAlpha" operator="out"></feComposite></filter><path d="M19.8 75.56L43.8 75.56L43.8 95L19.8 95L19.8 75.56Z" id="a2Q6jZniE1" fill="white" fill-opacity="1" filter="url(#shadow15656793)"></path></g><use xlink:href="#a9e5h4PnP8" opacity="1" fill="#d0d0d0" fill-opacity="1"></use></g><g><g><filter id="shadow5899688" x="19.54" y="39.56" width="15.6" height="41.8" filterUnits="userSpaceOnUse" primitiveUnits="userSpaceOnUse"><feFlood></feFlood><feComposite in2="SourceAlpha" operator="in"></feComposite><feGaussianBlur stdDeviation="1"></feGaussianBlur><feOffset dx="0" dy="0" result="afterOffset"></feOffset><feFlood flood-color="#000000" flood-opacity="0.5"></feFlood><feComposite in2="afterOffset" operator="in"></feComposite><feMorphology operator="dilate" radius="0"></feMorphology><feComposite in2="SourceAlpha" operator="out"></feComposite></filter><path d="M27.79 46.56C27.98 46.56 28.14 46.71 28.14 46.9C28.14 52.39 28.14 68.52 28.14 74.01C28.14 74.2 27.98 74.36 27.79 74.36C27.54 74.36 27.13 74.36 26.88 74.36C26.69 74.36 26.54 74.2 26.54 74.01C26.54 68.52 26.54 52.39 26.54 46.9C26.54 46.71 26.69 46.56 26.88 46.56C27.13 46.56 27.54 46.56 27.79 46.56Z" id="hOQyMDf5z" fill="white" fill-opacity="1" filter="url(#shadow5899688)"></path></g><use xlink:href="#c1KT5W1Wrf" opacity="1" fill="#ada9a9" fill-opacity="1"></use></g><g><g><filter id="shadow2383781" x="28.47" y="39.56" width="15.6" height="41.8" filterUnits="userSpaceOnUse" primitiveUnits="userSpaceOnUse"><feFlood></feFlood><feComposite in2="SourceAlpha" operator="in"></feComposite><feGaussianBlur stdDeviation="1"></feGaussianBlur><feOffset dx="0" dy="0" result="afterOffset"></feOffset><feFlood flood-color="#000000" flood-opacity="0.5"></feFlood><feComposite in2="afterOffset" operator="in"></feComposite><feMorphology operator="dilate" radius="0"></feMorphology><feComposite in2="SourceAlpha" operator="out"></feComposite></filter><path d="M36.73 46.56C36.92 46.56 37.07 46.71 37.07 46.9C37.07 52.39 37.07 68.52 37.07 74.01C37.07 74.2 36.92 74.36 36.73 74.36C36.47 74.36 36.06 74.36 35.81 74.36C35.62 74.36 35.47 74.2 35.47 74.01C35.47 68.52 35.47 52.39 35.47 46.9C35.47 46.71 35.62 46.56 35.81 46.56C36.06 46.56 36.47 46.56 36.73 46.56Z" id="af6aU62dt" fill="white" fill-opacity="1" filter="url(#shadow2383781)"></path></g><use xlink:href="#e11gX0YWL" opacity="1" fill="#ada9a9" fill-opacity="1"></use></g><g><g><filter id="shadow1575936" x="9.9" y="66.16" width="43.8" height="16.4" filterUnits="userSpaceOnUse" primitiveUnits="userSpaceOnUse"><feFlood></feFlood><feComposite in2="SourceAlpha" operator="in"></feComposite><feGaussianBlur stdDeviation="1"></feGaussianBlur><feOffset dx="0" dy="0" result="afterOffset"></feOffset><feFlood flood-color="#000000" flood-opacity="0.5"></feFlood><feComposite in2="afterOffset" operator="in"></feComposite><feMorphology operator="dilate" radius="0"></feMorphology><feComposite in2="SourceAlpha" operator="out"></feComposite></filter><path d="M45.69 73.16C46.25 73.16 46.7 73.61 46.7 74.17C46.7 74.44 46.7 74.27 46.7 74.55C46.7 75.1 46.25 75.56 45.69 75.56C39.93 75.56 23.67 75.56 17.91 75.56C17.36 75.56 16.9 75.1 16.9 74.55C16.9 74.27 16.9 74.44 16.9 74.17C16.9 73.61 17.36 73.16 17.91 73.16C23.67 73.16 39.93 73.16 45.69 73.16Z" id="a5tI2eF0oU" fill="white" fill-opacity="1" filter="url(#shadow1575936)"></path></g><use xlink:href="#ajmRAfiRC" opacity="1" fill="#ada9a9" fill-opacity="1"></use></g><g><g><filter id="shadow10545760" x="9.94" y="70.01" width="43.73" height="18.82" filterUnits="userSpaceOnUse" primitiveUnits="userSpaceOnUse"><feFlood></feFlood><feComposite in2="SourceAlpha" operator="in"></feComposite><feGaussianBlur stdDeviation="1"></feGaussianBlur><feOffset dx="0" dy="0" result="afterOffset"></feOffset><feFlood flood-color="#000000" flood-opacity="0.5"></feFlood><feComposite in2="afterOffset" operator="in"></feComposite><feMorphology operator="dilate" radius="0"></feMorphology><feComposite in2="SourceAlpha" operator="out"></feComposite></filter><path d="M45.54 77.01C46.09 76.96 46.58 77.38 46.63 77.93C46.65 78.21 46.64 78.03 46.66 78.31C46.71 78.87 46.3 79.36 45.74 79.4C40.01 79.91 23.81 81.32 18.07 81.83C17.51 81.87 17.02 81.46 16.98 80.91C16.95 80.63 16.97 80.81 16.94 80.53C16.89 79.97 17.31 79.48 17.86 79.43C23.6 78.93 39.8 77.52 45.54 77.01Z" id="a2FwCzq5Vu" fill="white" fill-opacity="1" filter="url(#shadow10545760)"></path></g><use xlink:href="#a1dFIn9UwZ" opacity="1" fill="#ada9a9" fill-opacity="1"></use></g><g><g><filter id="shadow8658417" x="9.9" y="74.83" width="43.73" height="18.82" filterUnits="userSpaceOnUse" primitiveUnits="userSpaceOnUse"><feFlood></feFlood><feComposite in2="SourceAlpha" operator="in"></feComposite><feGaussianBlur stdDeviation="1"></feGaussianBlur><feOffset dx="0" dy="0" result="afterOffset"></feOffset><feFlood flood-color="#000000" flood-opacity="0.5"></feFlood><feComposite in2="afterOffset" operator="in"></feComposite><feMorphology operator="dilate" radius="0"></feMorphology><feComposite in2="SourceAlpha" operator="out"></feComposite></filter><path d="M45.5 81.83C46.06 81.78 46.54 82.2 46.59 82.75C46.62 83.03 46.6 82.85 46.63 83.13C46.68 83.69 46.26 84.18 45.71 84.22C39.97 84.73 23.77 86.14 18.03 86.65C17.48 86.69 16.99 86.28 16.94 85.73C16.92 85.45 16.93 85.63 16.91 85.35C16.86 84.79 17.27 84.3 17.83 84.25C23.56 83.75 39.76 82.33 45.5 81.83Z" id="b7GgPhV7g" fill="white" fill-opacity="1" filter="url(#shadow8658417)"></path></g><use xlink:href="#e7o3kpGqV" opacity="1" fill="#ada9a9" fill-opacity="1"></use></g><g><g><filter id="shadow2000767" x="9.9" y="79.65" width="43.73" height="18.82" filterUnits="userSpaceOnUse" primitiveUnits="userSpaceOnUse"><feFlood></feFlood><feComposite in2="SourceAlpha" operator="in"></feComposite><feGaussianBlur stdDeviation="1"></feGaussianBlur><feOffset dx="0" dy="0" result="afterOffset"></feOffset><feFlood flood-color="#000000" flood-opacity="0.5"></feFlood><feComposite in2="afterOffset" operator="in"></feComposite><feMorphology operator="dilate" radius="0"></feMorphology><feComposite in2="SourceAlpha" operator="out"></feComposite></filter><path d="M45.5 86.65C46.06 86.6 46.54 87.02 46.59 87.57C46.62 87.85 46.6 87.67 46.63 87.95C46.68 88.51 46.26 89 45.71 89.04C39.97 89.55 23.77 90.96 18.03 91.46C17.48 91.51 16.99 91.1 16.94 90.55C16.92 90.27 16.93 90.45 16.91 90.17C16.86 89.61 17.27 89.12 17.83 89.07C23.56 88.57 39.76 87.15 45.5 86.65Z" id="b6dYYjq8zQ" fill="white" fill-opacity="1" filter="url(#shadow2000767)"></path></g><use xlink:href="#e4CTolQWY" opacity="1" fill="#ada9a9" fill-opacity="1"></use></g><g><g><filter id="shadow12822363" x="19.8" y="37.65" width="24" height="16.4" filterUnits="userSpaceOnUse" primitiveUnits="userSpaceOnUse"><feFlood></feFlood><feComposite in2="SourceAlpha" operator="in"></feComposite><feGaussianBlur stdDeviation="1"></feGaussianBlur><feOffset dx="0" dy="0" result="afterOffset"></feOffset><feFlood flood-color="#000000" flood-opacity="0.5"></feFlood><feComposite in2="afterOffset" operator="in"></feComposite><feMorphology operator="dilate" radius="0"></feMorphology><feComposite in2="SourceAlpha" operator="out"></feComposite></filter><path d="M36.41 45.84L36.8 46.59L36.57 47.05L36.41 46.75L35.34 46.14L33.75 45.72L31.8 45.57L29.86 45.72L28.27 46.14L27.2 46.75L27.04 47.05L26.8 46.59L27.2 45.84L28.27 45.22L29.86 44.8L31.8 44.65L33.75 44.8L35.34 45.22L35.34 45.22L36.41 45.84Z" id="b8uK1zohg" fill="white" fill-opacity="1" filter="url(#shadow12822363)"></path></g><use xlink:href="#b2M1wq84U4" opacity="1" fill="#ada9a9" fill-opacity="1"></use></g><g><g><filter id="shadow2546405" x="89.21" y="85" width="26.4" height="20" filterUnits="userSpaceOnUse" primitiveUnits="userSpaceOnUse"><feFlood></feFlood><feComposite in2="SourceAlpha" operator="in"></feComposite><feGaussianBlur stdDeviation="1"></feGaussianBlur><feOffset dx="0" dy="0" result="afterOffset"></feOffset><feFlood flood-color="#000000" flood-opacity="0.5"></feFlood><feComposite in2="afterOffset" operator="in"></feComposite><feMorphology operator="dilate" radius="0"></feMorphology><feComposite in2="SourceAlpha" operator="out"></feComposite></filter><path d="M105.61 92C107.27 92 108.61 93.34 108.61 95C108.61 95.6 108.61 94.4 108.61 95C108.61 96.66 107.27 98 105.61 98C103.73 98 101.09 98 99.21 98C97.55 98 96.21 96.66 96.21 95C96.21 94.4 96.21 95.6 96.21 95C96.21 93.34 97.55 92 99.21 92C101.09 92 103.73 92 105.61 92Z" id="calmmKYvZ" fill="white" fill-opacity="1" filter="url(#shadow2546405)"></path></g><use xlink:href="#bQyPwPsuy" opacity="1" fill="#ada9a9" fill-opacity="1"></use></g><g><g><filter id="shadow16622979" x="63.13" y="-7.28" width="80" height="90.44" filterUnits="userSpaceOnUse" primitiveUnits="userSpaceOnUse"><feFlood></feFlood><feComposite in2="SourceAlpha" operator="in"></feComposite><feGaussianBlur stdDeviation="1.41"></feGaussianBlur><feOffset dx="0" dy="0" result="afterOffset"></feOffset><feFlood flood-color="#fff800" flood-opacity="0.5"></feFlood><feComposite in2="afterOffset" operator="in"></feComposite><feMorphology operator="dilate" radius="1"></feMorphology><feComposite in2="SourceAlpha" operator="out"></feComposite></filter><path d="M105.59 2.82L106.8 2.96L108 3.14L109.18 3.37L110.34 3.65L111.49 3.98L112.62 4.36L113.72 4.78L114.81 5.25L115.88 5.76L116.92 6.32L117.94 6.91L118.94 7.55L119.91 8.23L120.85 8.94L121.77 9.69L122.66 10.48L123.52 11.31L124.35 12.17L125.15 13.06L125.91 13.98L126.65 14.94L127.35 15.93L128.01 16.94L128.64 17.99L129.23 19.06L129.79 20.15L130.3 21.28L130.78 22.42L131.21 23.59L131.6 24.78L131.96 25.99L132.26 27.23L132.52 28.48L132.74 29.75L132.91 31.03L133.03 32.33L133.11 33.65L133.13 34.98L133.11 36.31L133.03 37.63L132.91 38.94L132.74 40.24L132.52 41.54L132.26 42.82L131.96 44.11L131.6 45.4L131.21 46.68L130.78 47.96L130.3 49.25L129.79 50.54L129.23 51.84L128.64 53.14L128.01 54.45L127.35 55.77L126.65 57.11L125.91 58.45L125.15 59.81L124.35 61.19L123.52 62.58L122.66 64L121.77 65.43L120.85 66.89L119.91 68.37L118.94 69.87L117.94 71.4L116.92 72.96L116.84 73.08L116.84 73.16L89.43 73.16L89.43 73.08L89.35 72.96L88.33 71.4L87.33 69.87L86.36 68.37L85.42 66.89L84.5 65.43L83.61 64L82.75 62.58L81.92 61.19L81.12 59.81L80.36 58.45L79.62 57.11L78.92 55.77L78.26 54.45L77.63 53.14L77.04 51.84L76.48 50.54L75.97 49.25L75.49 47.96L75.06 46.68L74.66 45.4L74.31 44.11L74.01 42.82L73.74 41.54L73.53 40.24L73.36 38.94L73.23 37.63L73.16 36.31L73.13 34.98L73.16 33.65L73.23 32.33L73.36 31.03L73.53 29.75L73.74 28.48L74.01 27.23L74.31 25.99L74.66 24.78L75.06 23.59L75.49 22.42L75.97 21.28L76.48 20.15L77.04 19.06L77.63 17.99L78.26 16.94L78.92 15.93L79.62 14.94L80.36 13.98L81.12 13.06L81.92 12.17L82.75 11.31L83.61 10.48L84.5 9.69L85.42 8.94L86.36 8.23L87.33 7.55L88.33 6.91L89.35 6.32L90.39 5.76L91.46 5.25L92.54 4.78L93.65 4.36L94.78 3.98L95.92 3.65L97.09 3.37L98.27 3.14L99.46 2.96L100.67 2.82L101.9 2.74L103.13 2.72L104.37 2.74L105.59 2.82Z" id="fziqAt3UJ" fill="white" fill-opacity="1" filter="url(#shadow16622979)"></path></g><use xlink:href="#d1ybHNJWDY" opacity="1" fill="#ffe600" fill-opacity="0.31"></use></g><g><g><filter id="shadow15042679" x="84.13" y="68.56" width="38" height="33.44" filterUnits="userSpaceOnUse" primitiveUnits="userSpaceOnUse"><feFlood></feFlood><feComposite in2="SourceAlpha" operator="in"></feComposite><feGaussianBlur stdDeviation="1"></feGaussianBlur><feOffset dx="0" dy="0" result="afterOffset"></feOffset><feFlood flood-color="#000000" flood-opacity="0.5"></feFlood><feComposite in2="afterOffset" operator="in"></feComposite><feMorphology operator="dilate" radius="0"></feMorphology><feComposite in2="SourceAlpha" operator="out"></feComposite></filter><path d="M91.13 75.56L115.13 75.56L115.13 95L91.13 95L91.13 75.56Z" id="a16l4Vme7E" fill="white" fill-opacity="1" filter="url(#shadow15042679)"></path></g><use xlink:href="#aTGNRCCvN" opacity="1" fill="#d0d0d0" fill-opacity="1"></use></g><g><g><filter id="shadow2618567" x="90.87" y="39.56" width="15.6" height="41.8" filterUnits="userSpaceOnUse" primitiveUnits="userSpaceOnUse"><feFlood></feFlood><feComposite in2="SourceAlpha" operator="in"></feComposite><feGaussianBlur stdDeviation="1"></feGaussianBlur><feOffset dx="0" dy="0" result="afterOffset"></feOffset><feFlood flood-color="#e0db36" flood-opacity="0.5"></feFlood><feComposite in2="afterOffset" operator="in"></feComposite><feMorphology operator="dilate" radius="0"></feMorphology><feComposite in2="SourceAlpha" operator="out"></feComposite></filter><path d="M99.13 46.56C99.32 46.56 99.47 46.71 99.47 46.9C99.47 52.39 99.47 68.52 99.47 74.01C99.47 74.2 99.32 74.36 99.13 74.36C98.87 74.36 98.46 74.36 98.21 74.36C98.02 74.36 97.87 74.2 97.87 74.01C97.87 68.52 97.87 52.39 97.87 46.9C97.87 46.71 98.02 46.56 98.21 46.56C98.46 46.56 98.87 46.56 99.13 46.56Z" id="bn5a9AdKj" fill="white" fill-opacity="1" filter="url(#shadow2618567)"></path></g><use xlink:href="#h2rLtoq379" opacity="1" fill="#d7d173" fill-opacity="1"></use></g><g><g><filter id="shadow8183434" x="99.8" y="39.56" width="15.6" height="41.8" filterUnits="userSpaceOnUse" primitiveUnits="userSpaceOnUse"><feFlood></feFlood><feComposite in2="SourceAlpha" operator="in"></feComposite><feGaussianBlur stdDeviation="1"></feGaussianBlur><feOffset dx="0" dy="0" result="afterOffset"></feOffset><feFlood flood-color="#e0db36" flood-opacity="0.5"></feFlood><feComposite in2="afterOffset" operator="in"></feComposite><feMorphology operator="dilate" radius="0"></feMorphology><feComposite in2="SourceAlpha" operator="out"></feComposite></filter><path d="M108.06 46.56C108.25 46.56 108.4 46.71 108.4 46.9C108.4 52.39 108.4 68.52 108.4 74.01C108.4 74.2 108.25 74.36 108.06 74.36C107.81 74.36 107.39 74.36 107.14 74.36C106.95 74.36 106.8 74.2 106.8 74.01C106.8 68.52 106.8 52.39 106.8 46.9C106.8 46.71 106.95 46.56 107.14 46.56C107.39 46.56 107.81 46.56 108.06 46.56Z" id="aPTvBoDIB" fill="white" fill-opacity="1" filter="url(#shadow8183434)"></path></g><use xlink:href="#c11WQo2AzJ" opacity="1" fill="#d7d173" fill-opacity="1"></use></g><g><g><filter id="shadow6264638" x="80.23" y="65.16" width="45.8" height="19.4" filterUnits="userSpaceOnUse" primitiveUnits="userSpaceOnUse"><feFlood></feFlood><feComposite in2="SourceAlpha" operator="in"></feComposite><feGaussianBlur stdDeviation="1"></feGaussianBlur><feOffset dx="0" dy="1" result="afterOffset"></feOffset><feFlood flood-color="#000000" flood-opacity="0.5"></feFlood><feComposite in2="afterOffset" operator="in"></feComposite><feMorphology operator="dilate" radius="0"></feMorphology><feComposite in2="SourceAlpha" operator="out"></feComposite></filter><path d="M117.02 73.16C117.58 73.16 118.03 73.61 118.03 74.17C118.03 74.44 118.03 74.27 118.03 74.55C118.03 75.1 117.58 75.56 117.02 75.56C111.27 75.56 95 75.56 89.24 75.56C88.69 75.56 88.23 75.1 88.23 74.55C88.23 74.27 88.23 74.44 88.23 74.17C88.23 73.61 88.69 73.16 89.24 73.16C95 73.16 111.27 73.16 117.02 73.16Z" id="a61RdTh04s" fill="white" fill-opacity="1" filter="url(#shadow6264638)"></path></g><use xlink:href="#c1IiTkPFuY" opacity="1" fill="#ada9a9" fill-opacity="1"></use></g><g><g><filter id="shadow12939212" x="81.27" y="70.01" width="43.73" height="18.82" filterUnits="userSpaceOnUse" primitiveUnits="userSpaceOnUse"><feFlood></feFlood><feComposite in2="SourceAlpha" operator="in"></feComposite><feGaussianBlur stdDeviation="1"></feGaussianBlur><feOffset dx="0" dy="0" result="afterOffset"></feOffset><feFlood flood-color="#000000" flood-opacity="0.5"></feFlood><feComposite in2="afterOffset" operator="in"></feComposite><feMorphology operator="dilate" radius="0"></feMorphology><feComposite in2="SourceAlpha" operator="out"></feComposite></filter><path d="M116.87 77.01C117.42 76.96 117.91 77.38 117.96 77.93C117.99 78.21 117.97 78.03 117.99 78.31C118.04 78.87 117.63 79.36 117.08 79.4C111.34 79.91 95.14 81.32 89.4 81.83C88.85 81.87 88.36 81.46 88.31 80.91C88.28 80.63 88.3 80.81 88.27 80.53C88.23 79.97 88.64 79.48 89.19 79.43C94.93 78.93 111.13 77.52 116.87 77.01Z" id="a1qDh5RypT" fill="white" fill-opacity="1" filter="url(#shadow12939212)"></path></g><use xlink:href="#e19h4fBEZO" opacity="1" fill="#ada9a9" fill-opacity="1"></use></g><g><g><filter id="shadow10203556" x="81.23" y="74.83" width="43.73" height="18.82" filterUnits="userSpaceOnUse" primitiveUnits="userSpaceOnUse"><feFlood></feFlood><feComposite in2="SourceAlpha" operator="in"></feComposite><feGaussianBlur stdDeviation="1"></feGaussianBlur><feOffset dx="0" dy="0" result="afterOffset"></feOffset><feFlood flood-color="#000000" flood-opacity="0.5"></feFlood><feComposite in2="afterOffset" operator="in"></feComposite><feMorphology operator="dilate" radius="0"></feMorphology><feComposite in2="SourceAlpha" operator="out"></feComposite></filter><path d="M116.83 81.83C117.39 81.78 117.88 82.2 117.92 82.75C117.95 83.03 117.93 82.85 117.96 83.13C118.01 83.69 117.6 84.18 117.04 84.22C111.3 84.73 95.1 86.14 89.37 86.65C88.81 86.69 88.32 86.28 88.27 85.73C88.25 85.45 88.26 85.63 88.24 85.35C88.19 84.79 88.6 84.3 89.16 84.25C94.89 83.75 111.09 82.33 116.83 81.83Z" id="b109D4DUui" fill="white" fill-opacity="1" filter="url(#shadow10203556)"></path></g><use xlink:href="#a4CsEoDzqP" opacity="1" fill="#ada9a9" fill-opacity="1"></use></g><g><g><filter id="shadow4093360" x="81.23" y="79.65" width="43.73" height="18.82" filterUnits="userSpaceOnUse" primitiveUnits="userSpaceOnUse"><feFlood></feFlood><feComposite in2="SourceAlpha" operator="in"></feComposite><feGaussianBlur stdDeviation="1"></feGaussianBlur><feOffset dx="0" dy="0" result="afterOffset"></feOffset><feFlood flood-color="#000000" flood-opacity="0.5"></feFlood><feComposite in2="afterOffset" operator="in"></feComposite><feMorphology operator="dilate" radius="0"></feMorphology><feComposite in2="SourceAlpha" operator="out"></feComposite></filter><path d="M116.83 86.65C117.39 86.6 117.88 87.02 117.92 87.57C117.95 87.85 117.93 87.67 117.96 87.95C118.01 88.51 117.6 89 117.04 89.04C111.3 89.55 95.1 90.96 89.37 91.46C88.81 91.51 88.32 91.1 88.27 90.55C88.25 90.27 88.26 90.45 88.24 90.17C88.19 89.61 88.6 89.12 89.16 89.07C94.89 88.57 111.09 87.15 116.83 86.65Z" id="m1u1rdCxup" fill="white" fill-opacity="1" filter="url(#shadow4093360)"></path></g><use xlink:href="#b1TSniRfRx" opacity="1" fill="#ada9a9" fill-opacity="1"></use></g><g><g><filter id="shadow1164891" x="91.13" y="37.65" width="24" height="16.4" filterUnits="userSpaceOnUse" primitiveUnits="userSpaceOnUse"><feFlood></feFlood><feComposite in2="SourceAlpha" operator="in"></feComposite><feGaussianBlur stdDeviation="1"></feGaussianBlur><feOffset dx="0" dy="0" result="afterOffset"></feOffset><feFlood flood-color="#ebff00" flood-opacity="1"></feFlood><feComposite in2="afterOffset" operator="in"></feComposite><feMorphology operator="dilate" radius="0"></feMorphology><feComposite in2="SourceAlpha" operator="out"></feComposite></filter><path d="M107.74 45.84L108.13 46.59L107.9 47.05L107.74 46.75L106.67 46.14L105.08 45.72L103.13 45.57L101.19 45.72L99.6 46.14L98.53 46.75L98.37 47.05L98.13 46.59L98.53 45.84L99.6 45.22L101.19 44.8L103.13 44.65L105.08 44.8L106.67 45.22L106.67 45.22L107.74 45.84Z" id="c57I2zLk7t" fill="white" fill-opacity="1" filter="url(#shadow1164891)"></path></g><use xlink:href="#a24uoK7wu3" opacity="1" fill="#fffbd4" fill-opacity="1"></use></g></g></g></svg>