<?xml version="1.0" encoding="UTF-8" standalone="no"?>
<!DOCTYPE svg PUBLIC "-//W3C//DTD SVG 1.1//EN" "http://www.w3.org/Graphics/SVG/1.1/DTD/svg11.dtd">
<svg version="1.1" xmlns="http://www.w3.org/2000/svg" xmlns:xlink="http://www.w3.org/1999/xlink" preserveAspectRatio="xMidYMid meet" viewBox="0 0 640 381" width="640" height="381"><defs><path d="M305.16 203.12C305.16 203.12 305.16 203.12 305.16 203.12C305.16 183.3 320.83 167.2 340.13 167.2C340.13 167.2 595.24 167.2 595.24 167.2C614.55 167.2 630.21 183.3 630.21 203.12C630.21 203.12 630.21 203.12 630.21 203.12C630.21 222.95 614.55 239.05 595.24 239.05C595.24 239.05 340.13 239.05 340.13 239.05C320.83 239.05 305.16 222.95 305.16 203.12Z" id="bVQdfp71L"></path><path d="M30.21 117.23C30.21 117.23 30.21 117.23 30.21 117.23C30.21 83.18 56.73 55.55 89.38 55.55C89.38 55.55 520.94 55.55 520.94 55.55C553.59 55.55 580.11 83.18 580.11 117.23C580.11 117.23 580.11 117.23 580.11 117.23C580.11 151.27 553.59 178.9 520.94 178.9C520.94 178.9 89.38 178.9 89.38 178.9C56.73 178.9 30.21 151.27 30.21 117.23Z" id="a1Ji1mZPQZ"></path><path d="M110.39 277.81C110.39 277.81 110.39 277.81 110.39 277.81C110.39 253.14 129.17 233.1 152.3 233.1C152.3 233.1 458.02 233.1 458.02 233.1C481.15 233.1 499.93 253.14 499.93 277.81C499.93 277.81 499.93 277.81 499.93 277.81C499.93 302.48 481.15 322.51 458.02 322.51C458.02 322.51 152.3 322.51 152.3 322.51C129.17 322.51 110.39 302.48 110.39 277.81Z" id="eHJ4lCjeD"></path><path d="M322.13 364.29C231.37 364.29 157.68 285.62 157.68 188.72C157.68 91.82 231.37 13.15 322.13 13.15C412.9 13.15 486.58 91.82 486.58 188.72C486.58 285.62 412.9 364.29 322.13 364.29Z" id="a1Z1PBz7SF"></path><path d="M322.13 364.29C231.37 364.29 157.68 285.62 157.68 188.72C157.68 91.82 231.37 13.15 322.13 13.15C412.9 13.15 486.58 91.82 486.58 188.72C486.58 285.62 412.9 364.29 322.13 364.29Z" id="eaWNuVS5p"></path><path d="" id="a6oYOFGaU"></path><path d="M380.47 98.25L381.18 98.38L381.89 98.54L382.59 98.72L383.27 98.94L383.95 99.18L384.61 99.44L385.26 99.73L385.89 100.04L386.51 100.38L387.12 100.74L387.71 101.12L388.28 101.53L388.84 101.95L389.38 102.4L389.9 102.86L390.4 103.35L390.89 103.85L391.36 104.38L391.8 104.92L392.23 105.47L392.63 106.05L393.01 106.64L393.37 107.24L393.71 107.86L394.02 108.5L394.31 109.14L394.58 109.81L394.82 110.48L395.03 111.16L395.22 111.86L395.37 112.57L395.51 113.28L395.61 114.01L395.68 114.75L395.73 115.49L395.75 116.24L395.75 277.87L395.73 278.62L395.68 279.36L395.61 280.1L395.51 280.83L395.37 281.54L395.22 282.25L395.03 282.95L394.82 283.63L394.58 284.31L394.31 284.97L394.02 285.61L393.71 286.25L393.37 286.87L393.01 287.47L392.63 288.06L392.23 288.64L391.8 289.2L391.36 289.74L390.89 290.26L390.4 290.76L389.9 291.25L389.38 291.71L388.84 292.16L388.28 292.59L387.71 292.99L387.12 293.37L386.51 293.73L385.89 294.07L385.26 294.38L384.61 294.67L383.95 294.94L383.27 295.17L382.59 295.39L381.89 295.57L381.18 295.73L380.47 295.87L379.74 295.97L379.01 296.04L378.26 296.09L377.51 296.1L249.45 296.1L248.7 296.09L247.96 296.04L247.22 295.97L246.49 295.87L245.78 295.73L245.07 295.57L244.37 295.39L243.69 295.17L243.02 294.94L242.35 294.67L241.71 294.38L241.07 294.07L240.45 293.73L239.85 293.37L239.26 292.99L238.68 292.59L238.13 292.16L237.58 291.71L237.06 291.25L236.56 290.76L236.07 290.26L235.61 289.74L235.16 289.2L234.74 288.64L234.33 288.06L233.95 287.47L233.59 286.87L233.25 286.25L232.94 285.61L232.65 284.97L232.39 284.31L232.15 283.63L231.93 282.95L231.75 282.25L231.59 281.54L231.46 280.83L231.35 280.1L231.28 279.36L231.23 278.62L231.22 277.87L231.22 116.24L231.23 115.49L231.28 114.75L231.35 114.01L231.46 113.28L231.59 112.57L231.75 111.86L231.93 111.16L232.15 110.48L232.39 109.81L232.65 109.14L232.94 108.5L233.25 107.86L233.59 107.24L233.95 106.64L234.33 106.05L234.74 105.47L235.16 104.92L235.61 104.38L236.07 103.85L236.56 103.35L237.06 102.86L237.58 102.4L238.13 101.95L238.68 101.53L239.26 101.12L239.85 100.74L240.45 100.38L241.07 100.04L241.71 99.73L242.35 99.44L243.02 99.18L243.69 98.94L244.37 98.72L245.07 98.54L245.78 98.38L246.49 98.25L247.22 98.14L247.96 98.07L248.7 98.02L249.45 98.01L377.51 98.01L378.26 98.02L379.01 98.07L379.74 98.14L379.74 98.14L380.47 98.25ZM406.04 134.41L408.53 134.87L410.99 135.43L413.41 136.08L415.8 136.82L418.14 137.65L420.44 138.57L422.7 139.58L424.9 140.67L427.06 141.84L429.17 143.1L431.22 144.43L433.22 145.84L435.16 147.32L437.04 148.87L438.86 150.49L440.62 152.18L442.31 153.94L443.93 155.76L445.48 157.64L446.96 159.58L448.37 161.58L449.7 163.63L450.95 165.74L452.13 167.9L453.22 170.1L454.23 172.36L455.15 174.66L455.98 177L456.72 179.39L457.37 181.81L457.93 184.27L458.39 186.77L458.75 189.29L459.01 191.85L459.16 194.44L459.22 197.06L459.16 199.67L459.01 202.26L458.75 204.82L458.39 207.35L457.93 209.84L457.37 212.3L456.72 214.72L455.98 217.11L455.15 219.45L454.23 221.75L453.22 224.01L452.13 226.21L450.95 228.37L449.7 230.48L448.37 232.53L446.96 234.53L445.48 236.47L443.93 238.35L442.31 240.17L440.62 241.93L438.86 243.62L437.04 245.24L435.16 246.79L433.22 248.28L431.22 249.68L429.17 251.01L427.06 252.27L424.9 253.44L422.7 254.53L420.44 255.54L418.14 256.46L415.8 257.29L413.41 258.03L410.99 258.68L408.53 259.24L406.04 259.7L403.51 260.06L400.95 260.32L398.36 260.48L395.75 260.53L395.75 238.21L397.62 238.18L399.47 238.08L401.3 237.91L403.11 237.67L404.89 237.38L406.65 237.02L408.38 236.6L410.09 236.11L411.76 235.57L413.41 234.98L415.02 234.32L416.6 233.62L418.15 232.86L419.65 232.04L421.12 231.18L422.55 230.27L423.94 229.31L425.28 228.3L426.59 227.25L427.84 226.15L429.05 225.01L430.21 223.83L431.32 222.61L432.38 221.36L433.39 220.06L434.34 218.73L435.24 217.36L436.07 215.96L436.85 214.53L437.57 213.07L438.23 211.58L438.83 210.06L439.36 208.51L439.82 206.94L440.22 205.35L440.55 203.73L440.81 202.09L440.99 200.43L441.11 198.75L441.15 197.06L441.11 195.36L440.99 193.68L440.81 192.02L440.55 190.38L440.22 188.77L439.82 187.17L439.36 185.6L438.83 184.05L438.23 182.53L437.57 181.04L436.85 179.58L436.07 178.15L435.24 176.75L434.34 175.38L433.39 174.05L432.38 172.75L431.32 171.5L430.21 170.28L429.05 169.1L427.84 167.96L426.59 166.86L425.28 165.81L423.94 164.8L422.55 163.84L421.12 162.93L419.65 162.07L418.15 161.25L416.6 160.49L415.02 159.79L413.41 159.13L411.76 158.54L410.09 158L408.38 157.52L406.65 157.09L404.89 156.73L403.11 156.44L401.3 156.2L399.47 156.03L397.62 155.93L395.75 155.9L395.75 133.58L398.36 133.64L400.95 133.79L403.51 134.05L403.51 134.05L406.04 134.41Z" id="d61CiBYxCN"></path><path d="M295.21 197.77L294.99 197.77L304.63 176.83L314.27 155.9L323.92 176.83L333.56 197.77L333.51 197.77L342.5 217.28L352.14 238.21L276.59 238.21L286.23 217.28L295.21 197.77ZM305.51 217.28L314.36 236.49L323.21 217.28L332.19 197.77L296.53 197.77L305.51 217.28Z" id="b3k7YQhIKZ"></path><path d="M248.7 296.09L247.96 296.04L247.22 295.97L246.49 295.87L245.78 295.73L245.07 295.57L244.37 295.39L243.69 295.17L243.02 294.94L242.35 294.67L241.71 294.38L241.07 294.07L240.45 293.73L239.85 293.37L239.26 292.99L238.68 292.59L238.13 292.16L237.58 291.71L237.06 291.25L236.56 290.76L236.07 290.26L235.61 289.74L235.16 289.2L234.74 288.64L234.33 288.06L233.95 287.47L233.59 286.87L233.25 286.25L232.94 285.61L232.65 284.97L232.39 284.31L232.15 283.63L231.93 282.95L231.75 282.25L231.59 281.54L231.46 280.83L231.35 280.1L231.28 279.36L231.23 278.62L231.22 277.87L231.22 116.24L231.23 115.49L231.28 114.75L231.35 114.01L231.46 113.28L231.59 112.57L231.75 111.86L231.93 111.16L232.15 110.48L232.39 109.81L232.65 109.14L232.94 108.5L233.25 107.86L233.59 107.24L233.95 106.64L234.33 106.05L234.74 105.47L235.16 104.92L235.61 104.38L236.07 103.85L236.56 103.35L237.06 102.86L237.58 102.4L238.13 101.95L238.68 101.53L239.26 101.12L239.85 100.74L240.45 100.38L241.07 100.04L241.71 99.73L242.35 99.44L243.02 99.18L243.69 98.94L244.37 98.72L245.07 98.54L245.78 98.38L246.49 98.25L247.22 98.14L247.96 98.07L248.7 98.02L249.45 98.01L308.56 98.01L308.56 296.1L249.45 296.1L249.45 296.1L248.7 296.09Z" id="chySCnA5K"></path><path d="M320.76 49.73C327.51 49.73 332.97 54.38 332.97 60.11C332.97 76 308.56 83.89 308.56 84.33C308.56 84.33 308.56 84.33 308.56 84.33C308.56 83.89 284.15 76 284.15 60.11C284.15 54.38 289.62 49.72 296.36 49.72C303.1 49.72 308.56 53.8 308.56 59.54C308.56 53.8 314.02 49.73 320.76 49.73Z" id="bAM0ueH15"></path></defs><g><g><g><g><filter id="shadow12295225" x="297.16" y="159.2" width="341.05" height="87.85" filterUnits="userSpaceOnUse" primitiveUnits="userSpaceOnUse"><feFlood></feFlood><feComposite in2="SourceAlpha" operator="in"></feComposite><feGaussianBlur stdDeviation="1"></feGaussianBlur><feOffset dx="0" dy="0" result="afterOffset"></feOffset><feFlood flood-color="#000000" flood-opacity="0.5"></feFlood><feComposite in2="afterOffset" operator="in"></feComposite><feMorphology operator="dilate" radius="1"></feMorphology><feComposite in2="SourceAlpha" operator="out"></feComposite></filter><path d="M305.16 203.12C305.16 203.12 305.16 203.12 305.16 203.12C305.16 183.3 320.83 167.2 340.13 167.2C340.13 167.2 595.24 167.2 595.24 167.2C614.55 167.2 630.21 183.3 630.21 203.12C630.21 203.12 630.21 203.12 630.21 203.12C630.21 222.95 614.55 239.05 595.24 239.05C595.24 239.05 340.13 239.05 340.13 239.05C320.83 239.05 305.16 222.95 305.16 203.12Z" id="d34K29o4" fill="white" fill-opacity="1" filter="url(#shadow12295225)"></path></g><use xlink:href="#bVQdfp71L" opacity="1" fill="#4982e8" fill-opacity="1"></use><g><use xlink:href="#bVQdfp71L" opacity="1" fill-opacity="0" stroke="#000000" stroke-width="1" stroke-opacity="0"></use></g></g><g><g><filter id="shadow11373792" x="22.21" y="47.55" width="565.89" height="139.35" filterUnits="userSpaceOnUse" primitiveUnits="userSpaceOnUse"><feFlood></feFlood><feComposite in2="SourceAlpha" operator="in"></feComposite><feGaussianBlur stdDeviation="1"></feGaussianBlur><feOffset dx="0" dy="0" result="afterOffset"></feOffset><feFlood flood-color="#000000" flood-opacity="0.5"></feFlood><feComposite in2="afterOffset" operator="in"></feComposite><feMorphology operator="dilate" radius="1"></feMorphology><feComposite in2="SourceAlpha" operator="out"></feComposite></filter><path d="M30.21 117.23C30.21 117.23 30.21 117.23 30.21 117.23C30.21 83.18 56.73 55.55 89.38 55.55C89.38 55.55 520.94 55.55 520.94 55.55C553.59 55.55 580.11 83.18 580.11 117.23C580.11 117.23 580.11 117.23 580.11 117.23C580.11 151.27 553.59 178.9 520.94 178.9C520.94 178.9 89.38 178.9 89.38 178.9C56.73 178.9 30.21 151.27 30.21 117.23Z" id="a1cD8p5O9L" fill="white" fill-opacity="1" filter="url(#shadow11373792)"></path></g><use xlink:href="#a1Ji1mZPQZ" opacity="1" fill="#4982e8" fill-opacity="1"></use><g><use xlink:href="#a1Ji1mZPQZ" opacity="1" fill-opacity="0" stroke="#000000" stroke-width="1" stroke-opacity="0"></use></g></g><g><g><filter id="shadow16079421" x="102.39" y="225.1" width="405.54" height="105.41" filterUnits="userSpaceOnUse" primitiveUnits="userSpaceOnUse"><feFlood></feFlood><feComposite in2="SourceAlpha" operator="in"></feComposite><feGaussianBlur stdDeviation="1"></feGaussianBlur><feOffset dx="0" dy="0" result="afterOffset"></feOffset><feFlood flood-color="#000000" flood-opacity="0.5"></feFlood><feComposite in2="afterOffset" operator="in"></feComposite><feMorphology operator="dilate" radius="1"></feMorphology><feComposite in2="SourceAlpha" operator="out"></feComposite></filter><path d="M110.39 277.81C110.39 277.81 110.39 277.81 110.39 277.81C110.39 253.14 129.17 233.1 152.3 233.1C152.3 233.1 458.02 233.1 458.02 233.1C481.15 233.1 499.93 253.14 499.93 277.81C499.93 277.81 499.93 277.81 499.93 277.81C499.93 302.48 481.15 322.51 458.02 322.51C458.02 322.51 152.3 322.51 152.3 322.51C129.17 322.51 110.39 302.48 110.39 277.81Z" id="d4QeuBZVG5" fill="white" fill-opacity="1" filter="url(#shadow16079421)"></path></g><use xlink:href="#eHJ4lCjeD" opacity="1" fill="#4982e8" fill-opacity="1"></use><g><use xlink:href="#eHJ4lCjeD" opacity="1" fill-opacity="0" stroke="#000000" stroke-width="1" stroke-opacity="0"></use></g></g><g><g><filter id="shadow1856360" x="149.68" y="5.15" width="344.9" height="367.14" filterUnits="userSpaceOnUse" primitiveUnits="userSpaceOnUse"><feFlood></feFlood><feComposite in2="SourceAlpha" operator="in"></feComposite><feGaussianBlur stdDeviation="1"></feGaussianBlur><feOffset dx="0" dy="0" result="afterOffset"></feOffset><feFlood flood-color="#000000" flood-opacity="0.5"></feFlood><feComposite in2="afterOffset" operator="in"></feComposite><feMorphology operator="dilate" radius="1"></feMorphology><feComposite in2="SourceAlpha" operator="out"></feComposite></filter><path d="M322.13 364.29C231.37 364.29 157.68 285.62 157.68 188.72C157.68 91.82 231.37 13.15 322.13 13.15C412.9 13.15 486.58 91.82 486.58 188.72C486.58 285.62 412.9 364.29 322.13 364.29Z" id="k3jmRvPyz" fill="white" fill-opacity="1" filter="url(#shadow1856360)"></path></g><use xlink:href="#a1Z1PBz7SF" opacity="1" fill="#2d2d2d" fill-opacity="1"></use><g><use xlink:href="#a1Z1PBz7SF" opacity="1" fill-opacity="0" stroke="#000000" stroke-width="1" stroke-opacity="0"></use></g></g><g><g><filter id="shadow14597099" x="127.68" y="-16.85" width="388.9" height="411.14" filterUnits="userSpaceOnUse" primitiveUnits="userSpaceOnUse"><feFlood></feFlood><feComposite in2="SourceAlpha" operator="in"></feComposite><feGaussianBlur stdDeviation="3.16"></feGaussianBlur><feOffset dx="0" dy="0" result="afterOffset"></feOffset><feFlood flood-color="#000000" flood-opacity="0.5"></feFlood><feComposite in2="afterOffset" operator="in"></feComposite><feMorphology operator="dilate" radius="5"></feMorphology><feComposite in2="SourceAlpha" operator="out"></feComposite></filter><path d="M322.13 364.29C231.37 364.29 157.68 285.62 157.68 188.72C157.68 91.82 231.37 13.15 322.13 13.15C412.9 13.15 486.58 91.82 486.58 188.72C486.58 285.62 412.9 364.29 322.13 364.29Z" id="a4l6kDVVVI" fill="white" fill-opacity="1" filter="url(#shadow14597099)"></path></g><use xlink:href="#eaWNuVS5p" opacity="1" fill="#000000" fill-opacity="0"></use><g><use xlink:href="#eaWNuVS5p" opacity="1" fill-opacity="0" stroke="#4982e8" stroke-width="10" stroke-opacity="1"></use></g></g><g><g><use xlink:href="#a6oYOFGaU" opacity="1" fill-opacity="0" stroke="#000000" stroke-width="0" stroke-opacity="0"></use></g></g><g><g><filter id="shadow10679972" x="222.22" y="89.01" width="247" height="217.1" filterUnits="userSpaceOnUse" primitiveUnits="userSpaceOnUse"><feFlood></feFlood><feComposite in2="SourceAlpha" operator="in"></feComposite><feGaussianBlur stdDeviation="1"></feGaussianBlur><feOffset dx="1" dy="1" result="afterOffset"></feOffset><feFlood flood-color="#000000" flood-opacity="0.24"></feFlood><feComposite in2="afterOffset" operator="in"></feComposite><feMorphology operator="dilate" radius="1"></feMorphology><feComposite in2="SourceAlpha" operator="out"></feComposite></filter><path d="M380.47 98.25L381.18 98.38L381.89 98.54L382.59 98.72L383.27 98.94L383.95 99.18L384.61 99.44L385.26 99.73L385.89 100.04L386.51 100.38L387.12 100.74L387.71 101.12L388.28 101.53L388.84 101.95L389.38 102.4L389.9 102.86L390.4 103.35L390.89 103.85L391.36 104.38L391.8 104.92L392.23 105.47L392.63 106.05L393.01 106.64L393.37 107.24L393.71 107.86L394.02 108.5L394.31 109.14L394.58 109.81L394.82 110.48L395.03 111.16L395.22 111.86L395.37 112.57L395.51 113.28L395.61 114.01L395.68 114.75L395.73 115.49L395.75 116.24L395.75 277.87L395.73 278.62L395.68 279.36L395.61 280.1L395.51 280.83L395.37 281.54L395.22 282.25L395.03 282.95L394.82 283.63L394.58 284.31L394.31 284.97L394.02 285.61L393.71 286.25L393.37 286.87L393.01 287.47L392.63 288.06L392.23 288.64L391.8 289.2L391.36 289.74L390.89 290.26L390.4 290.76L389.9 291.25L389.38 291.71L388.84 292.16L388.28 292.59L387.71 292.99L387.12 293.37L386.51 293.73L385.89 294.07L385.26 294.38L384.61 294.67L383.95 294.94L383.27 295.17L382.59 295.39L381.89 295.57L381.18 295.73L380.47 295.87L379.74 295.97L379.01 296.04L378.26 296.09L377.51 296.1L249.45 296.1L248.7 296.09L247.96 296.04L247.22 295.97L246.49 295.87L245.78 295.73L245.07 295.57L244.37 295.39L243.69 295.17L243.02 294.94L242.35 294.67L241.71 294.38L241.07 294.07L240.45 293.73L239.85 293.37L239.26 292.99L238.68 292.59L238.13 292.16L237.58 291.71L237.06 291.25L236.56 290.76L236.07 290.26L235.61 289.74L235.16 289.2L234.74 288.64L234.33 288.06L233.95 287.47L233.59 286.87L233.25 286.25L232.94 285.61L232.65 284.97L232.39 284.31L232.15 283.63L231.93 282.95L231.75 282.25L231.59 281.54L231.46 280.83L231.35 280.1L231.28 279.36L231.23 278.62L231.22 277.87L231.22 116.24L231.23 115.49L231.28 114.75L231.35 114.01L231.46 113.28L231.59 112.57L231.75 111.86L231.93 111.16L232.15 110.48L232.39 109.81L232.65 109.14L232.94 108.5L233.25 107.86L233.59 107.24L233.95 106.64L234.33 106.05L234.74 105.47L235.16 104.92L235.61 104.38L236.07 103.85L236.56 103.35L237.06 102.86L237.58 102.4L238.13 101.95L238.68 101.53L239.26 101.12L239.85 100.74L240.45 100.38L241.07 100.04L241.71 99.73L242.35 99.44L243.02 99.18L243.69 98.94L244.37 98.72L245.07 98.54L245.78 98.38L246.49 98.25L247.22 98.14L247.96 98.07L248.7 98.02L249.45 98.01L377.51 98.01L378.26 98.02L379.01 98.07L379.74 98.14L379.74 98.14L380.47 98.25ZM406.04 134.41L408.53 134.87L410.99 135.43L413.41 136.08L415.8 136.82L418.14 137.65L420.44 138.57L422.7 139.58L424.9 140.67L427.06 141.84L429.17 143.1L431.22 144.43L433.22 145.84L435.16 147.32L437.04 148.87L438.86 150.49L440.62 152.18L442.31 153.94L443.93 155.76L445.48 157.64L446.96 159.58L448.37 161.58L449.7 163.63L450.95 165.74L452.13 167.9L453.22 170.1L454.23 172.36L455.15 174.66L455.98 177L456.72 179.39L457.37 181.81L457.93 184.27L458.39 186.77L458.75 189.29L459.01 191.85L459.16 194.44L459.22 197.06L459.16 199.67L459.01 202.26L458.75 204.82L458.39 207.35L457.93 209.84L457.37 212.3L456.72 214.72L455.98 217.11L455.15 219.45L454.23 221.75L453.22 224.01L452.13 226.21L450.95 228.37L449.7 230.48L448.37 232.53L446.96 234.53L445.48 236.47L443.93 238.35L442.31 240.17L440.62 241.93L438.86 243.62L437.04 245.24L435.16 246.79L433.22 248.28L431.22 249.68L429.17 251.01L427.06 252.27L424.9 253.44L422.7 254.53L420.44 255.54L418.14 256.46L415.8 257.29L413.41 258.03L410.99 258.68L408.53 259.24L406.04 259.7L403.51 260.06L400.95 260.32L398.36 260.48L395.75 260.53L395.75 238.21L397.62 238.18L399.47 238.08L401.3 237.91L403.11 237.67L404.89 237.38L406.65 237.02L408.38 236.6L410.09 236.11L411.76 235.57L413.41 234.98L415.02 234.32L416.6 233.62L418.15 232.86L419.65 232.04L421.12 231.18L422.55 230.27L423.94 229.31L425.28 228.3L426.59 227.25L427.84 226.15L429.05 225.01L430.21 223.83L431.32 222.61L432.38 221.36L433.39 220.06L434.34 218.73L435.24 217.36L436.07 215.96L436.85 214.53L437.57 213.07L438.23 211.58L438.83 210.06L439.36 208.51L439.82 206.94L440.22 205.35L440.55 203.73L440.81 202.09L440.99 200.43L441.11 198.75L441.15 197.06L441.11 195.36L440.99 193.68L440.81 192.02L440.55 190.38L440.22 188.77L439.82 187.17L439.36 185.6L438.83 184.05L438.23 182.53L437.57 181.04L436.85 179.58L436.07 178.15L435.24 176.75L434.34 175.38L433.39 174.05L432.38 172.75L431.32 171.5L430.21 170.28L429.05 169.1L427.84 167.96L426.59 166.86L425.28 165.81L423.94 164.8L422.55 163.84L421.12 162.93L419.65 162.07L418.15 161.25L416.6 160.49L415.02 159.79L413.41 159.13L411.76 158.54L410.09 158L408.38 157.52L406.65 157.09L404.89 156.73L403.11 156.44L401.3 156.2L399.47 156.03L397.62 155.93L395.75 155.9L395.75 133.58L398.36 133.64L400.95 133.79L403.51 134.05L403.51 134.05L406.04 134.41Z" id="a5PSQszsH" fill="white" fill-opacity="1" filter="url(#shadow10679972)"></path></g><use xlink:href="#d61CiBYxCN" opacity="1" fill="#616261" fill-opacity="1"></use><g><use xlink:href="#d61CiBYxCN" opacity="1" fill-opacity="0" stroke="#000000" stroke-width="1" stroke-opacity="0.15"></use></g></g><g><g><filter id="shadow7898095" x="268.59" y="147.9" width="91.55" height="98.32" filterUnits="userSpaceOnUse" primitiveUnits="userSpaceOnUse"><feFlood></feFlood><feComposite in2="SourceAlpha" operator="in"></feComposite><feGaussianBlur stdDeviation="1"></feGaussianBlur><feOffset dx="0" dy="0" result="afterOffset"></feOffset><feFlood flood-color="#000000" flood-opacity="0.23"></feFlood><feComposite in2="afterOffset" operator="in"></feComposite><feMorphology operator="dilate" radius="1"></feMorphology><feComposite in2="SourceAlpha" operator="out"></feComposite></filter><path d="M295.21 197.77L294.99 197.77L304.63 176.83L314.27 155.9L323.92 176.83L333.56 197.77L333.51 197.77L342.5 217.28L352.14 238.21L276.59 238.21L286.23 217.28L295.21 197.77ZM305.51 217.28L314.36 236.49L323.21 217.28L332.19 197.77L296.53 197.77L305.51 217.28Z" id="c1WHg0GWkE" fill="white" fill-opacity="1" filter="url(#shadow7898095)"></path></g><use xlink:href="#b3k7YQhIKZ" opacity="1" fill="#dbb741" fill-opacity="1"></use></g><g><use xlink:href="#chySCnA5K" opacity="1" fill="#ffffff" fill-opacity="0.11"></use></g><g><g><filter id="shadow15898879" x="276.15" y="41.72" width="64.82" height="50.6" filterUnits="userSpaceOnUse" primitiveUnits="userSpaceOnUse"><feFlood></feFlood><feComposite in2="SourceAlpha" operator="in"></feComposite><feGaussianBlur stdDeviation="1"></feGaussianBlur><feOffset dx="0" dy="0" result="afterOffset"></feOffset><feFlood flood-color="#000000" flood-opacity="0.08"></feFlood><feComposite in2="afterOffset" operator="in"></feComposite><feMorphology operator="dilate" radius="1"></feMorphology><feComposite in2="SourceAlpha" operator="out"></feComposite></filter><path d="M320.76 49.73C327.51 49.73 332.97 54.38 332.97 60.11C332.97 76 308.56 83.89 308.56 84.33C308.56 84.33 308.56 84.33 308.56 84.33C308.56 83.89 284.15 76 284.15 60.11C284.15 54.38 289.62 49.72 296.36 49.72C303.1 49.72 308.56 53.8 308.56 59.54C308.56 53.8 314.02 49.73 320.76 49.73Z" id="b2CZOQtuV2" fill="white" fill-opacity="1" filter="url(#shadow15898879)"></path></g><use xlink:href="#bAM0ueH15" opacity="1" fill="#ee4d4d" fill-opacity="0.19"></use></g></g></g></svg>