<?xml version="1.0" encoding="UTF-8" standalone="no"?>
<!DOCTYPE svg PUBLIC "-//W3C//DTD SVG 1.1//EN" "http://www.w3.org/Graphics/SVG/1.1/DTD/svg11.dtd">
<svg version="1.1" xmlns="http://www.w3.org/2000/svg" xmlns:xlink="http://www.w3.org/1999/xlink" preserveAspectRatio="xMidYMid meet" viewBox="0 0 186 196" width="186" height="196"><defs><path d="M118 43.52L118.51 43.61L119.01 43.72L119.51 43.86L119.99 44.01L120.47 44.18L120.93 44.36L121.39 44.57L121.84 44.79L122.28 45.03L122.71 45.28L123.13 45.55L123.53 45.84L123.93 46.14L124.31 46.46L124.68 46.79L125.04 47.13L125.38 47.49L125.71 47.86L126.03 48.24L126.33 48.63L126.61 49.04L126.88 49.46L127.14 49.89L127.38 50.32L127.6 50.77L127.8 51.23L127.99 51.7L128.16 52.18L128.31 52.66L128.44 53.15L128.56 53.65L128.65 54.16L128.72 54.68L128.78 55.2L128.81 55.72L128.82 56.26L128.82 170.65L128.81 171.18L128.78 171.71L128.72 172.23L128.65 172.75L128.56 173.25L128.44 173.75L128.31 174.25L128.16 174.73L127.99 175.21L127.8 175.68L127.6 176.13L127.38 176.58L127.14 177.02L126.88 177.45L126.61 177.87L126.33 178.27L126.03 178.67L125.71 179.05L125.38 179.42L125.04 179.78L124.68 180.12L124.31 180.45L123.93 180.77L123.53 181.07L123.13 181.35L122.71 181.63L122.28 181.88L121.84 182.12L121.39 182.34L120.93 182.54L120.47 182.73L119.99 182.9L119.51 183.05L119.01 183.18L118.51 183.3L118 183.39L117.49 183.46L116.97 183.52L116.44 183.55L115.91 183.56L25.27 183.56L24.74 183.55L24.21 183.52L23.69 183.46L23.18 183.39L22.67 183.3L22.17 183.18L21.68 183.05L21.19 182.9L20.72 182.73L20.25 182.54L19.79 182.34L19.34 182.12L18.9 181.88L18.47 181.63L18.06 181.35L17.65 181.07L17.26 180.77L16.87 180.45L16.5 180.12L16.15 179.78L15.8 179.42L15.47 179.05L15.16 178.67L14.86 178.27L14.57 177.87L14.3 177.45L14.05 177.02L13.81 176.58L13.59 176.13L13.38 175.68L13.19 175.21L13.02 174.73L12.87 174.25L12.74 173.75L12.63 173.25L12.54 172.75L12.46 172.23L12.41 171.71L12.38 171.18L12.37 170.65L12.37 56.26L12.38 55.72L12.41 55.2L12.46 54.68L12.54 54.16L12.63 53.65L12.74 53.15L12.87 52.66L13.02 52.18L13.19 51.7L13.38 51.23L13.59 50.77L13.81 50.32L14.05 49.89L14.3 49.46L14.57 49.04L14.86 48.63L15.16 48.24L15.47 47.86L15.8 47.49L16.15 47.13L16.5 46.79L16.87 46.46L17.26 46.14L17.65 45.84L18.06 45.55L18.47 45.28L18.9 45.03L19.34 44.79L19.79 44.57L20.25 44.36L20.72 44.18L21.19 44.01L21.68 43.86L22.17 43.72L22.67 43.61L23.18 43.52L23.69 43.44L24.21 43.39L24.74 43.36L25.27 43.35L115.91 43.35L116.44 43.36L116.97 43.39L117.49 43.44L117.49 43.44L118 43.52ZM136.1 69.12L137.87 69.44L139.61 69.83L141.32 70.29L143.01 70.82L144.67 71.41L146.3 72.06L147.89 72.77L149.46 73.55L150.98 74.38L152.47 75.26L153.93 76.21L155.34 77.2L156.72 78.25L158.05 79.35L159.34 80.5L160.58 81.69L161.77 82.94L162.92 84.22L164.02 85.55L165.07 86.93L166.07 88.34L167.01 89.8L167.89 91.29L168.72 92.82L169.5 94.38L170.21 95.97L170.86 97.6L171.45 99.26L171.98 100.95L172.44 102.66L172.83 104.4L173.15 106.17L173.41 107.96L173.59 109.77L173.7 111.6L173.74 113.45L173.7 115.3L173.59 117.14L173.41 118.95L173.15 120.74L172.83 122.5L172.44 124.24L171.98 125.96L171.45 127.65L170.86 129.31L170.21 130.93L169.5 132.53L168.72 134.09L167.89 135.62L167.01 137.11L166.07 138.56L165.07 139.98L164.02 141.35L162.92 142.68L161.77 143.97L160.58 145.21L159.34 146.41L158.05 147.56L156.72 148.66L155.34 149.71L153.93 150.7L152.47 151.64L150.98 152.53L149.46 153.36L147.89 154.13L146.3 154.85L144.67 155.5L143.01 156.09L141.32 156.61L139.61 157.07L137.87 157.47L136.1 157.79L134.31 158.05L132.5 158.23L130.67 158.34L128.82 158.38L128.82 142.58L130.21 142.56L131.59 142.48L132.95 142.35L134.29 142.16L135.62 141.93L136.93 141.65L138.21 141.32L139.47 140.94L140.71 140.52L141.92 140.06L143.11 139.55L144.27 139L145.41 138.4L146.51 137.77L147.58 137.1L148.62 136.39L149.63 135.65L150.6 134.86L151.54 134.05L152.43 133.2L153.3 132.32L154.12 131.41L154.9 130.46L155.64 129.49L156.34 128.49L156.99 127.46L157.6 126.41L158.16 125.34L158.68 124.24L159.14 123.11L159.55 121.97L159.92 120.8L160.23 119.62L160.49 118.42L160.69 117.2L160.83 115.97L160.92 114.72L160.95 113.45L160.92 112.19L160.83 110.94L160.69 109.71L160.49 108.49L160.23 107.29L159.92 106.1L159.55 104.94L159.14 103.79L158.68 102.67L158.16 101.57L157.6 100.49L156.99 99.44L156.34 98.42L155.64 97.42L154.9 96.44L154.12 95.5L153.3 94.59L152.43 93.71L151.54 92.86L150.6 92.04L149.63 91.26L148.62 90.52L147.58 89.81L146.51 89.14L145.41 88.5L144.27 87.91L143.11 87.36L141.92 86.85L140.71 86.39L139.47 85.96L138.21 85.59L136.93 85.26L135.62 84.98L134.29 84.74L132.95 84.56L131.59 84.43L130.21 84.35L128.82 84.32L128.82 68.53L130.67 68.57L132.5 68.68L134.31 68.86L134.31 68.86L136.1 69.12Z" id="a2hQ5Fs7pX"></path><path d="M57.66 113.96L57.5 113.96L64.33 99.14L71.15 84.32L77.98 99.14L84.8 113.96L84.77 113.96L91.13 127.77L97.95 142.58L44.48 142.58L51.3 127.77L57.66 113.96ZM64.95 127.77L71.22 141.37L77.48 127.77L83.84 113.96L58.6 113.96L64.95 127.77Z" id="b8YMOVhH"></path><path d="M24.74 183.55L24.21 183.52L23.69 183.46L23.18 183.39L22.67 183.3L22.17 183.18L21.68 183.05L21.19 182.9L20.72 182.73L20.25 182.54L19.79 182.34L19.34 182.12L18.9 181.88L18.47 181.63L18.06 181.35L17.65 181.07L17.26 180.77L16.87 180.45L16.5 180.12L16.15 179.78L15.8 179.42L15.47 179.05L15.16 178.67L14.86 178.27L14.57 177.87L14.3 177.45L14.05 177.02L13.81 176.58L13.59 176.13L13.38 175.68L13.19 175.21L13.02 174.73L12.87 174.25L12.74 173.75L12.63 173.25L12.54 172.75L12.46 172.23L12.41 171.71L12.38 171.18L12.37 170.65L12.37 56.26L12.38 55.72L12.41 55.2L12.46 54.68L12.54 54.16L12.63 53.65L12.74 53.15L12.87 52.66L13.02 52.18L13.19 51.7L13.38 51.23L13.59 50.77L13.81 50.32L14.05 49.89L14.3 49.46L14.57 49.04L14.86 48.63L15.16 48.24L15.47 47.86L15.8 47.49L16.15 47.13L16.5 46.79L16.87 46.46L17.26 46.14L17.65 45.84L18.06 45.55L18.47 45.28L18.9 45.03L19.34 44.79L19.79 44.57L20.25 44.36L20.72 44.18L21.19 44.01L21.68 43.86L22.17 43.72L22.67 43.61L23.18 43.52L23.69 43.44L24.21 43.39L24.74 43.36L25.27 43.35L67.11 43.35L67.11 183.56L25.27 183.56L25.27 183.56L24.74 183.55Z" id="b18Hft94iL"></path><path d="M75.75 9.18C80.52 9.18 84.38 12.47 84.38 16.53C84.39 27.77 67.11 33.36 67.11 33.66C67.11 33.66 67.11 33.66 67.11 33.66C67.11 33.36 49.83 27.77 49.83 16.53C49.83 12.47 53.7 9.17 58.47 9.17C63.24 9.17 67.11 12.06 67.11 16.12C67.11 12.06 70.98 9.18 75.75 9.18Z" id="c9nyoSqPL"></path></defs><g><g><g><g><filter id="shadow1010827" x="3.37" y="34.35" width="180.38" height="159.21" filterUnits="userSpaceOnUse" primitiveUnits="userSpaceOnUse"><feFlood></feFlood><feComposite in2="SourceAlpha" operator="in"></feComposite><feGaussianBlur stdDeviation="1"></feGaussianBlur><feOffset dx="1" dy="1" result="afterOffset"></feOffset><feFlood flood-color="#000000" flood-opacity="0.24"></feFlood><feComposite in2="afterOffset" operator="in"></feComposite><feMorphology operator="dilate" radius="1"></feMorphology><feComposite in2="SourceAlpha" operator="out"></feComposite></filter><path d="M118 43.52L118.51 43.61L119.01 43.72L119.51 43.86L119.99 44.01L120.47 44.18L120.93 44.36L121.39 44.57L121.84 44.79L122.28 45.03L122.71 45.28L123.13 45.55L123.53 45.84L123.93 46.14L124.31 46.46L124.68 46.79L125.04 47.13L125.38 47.49L125.71 47.86L126.03 48.24L126.33 48.63L126.61 49.04L126.88 49.46L127.14 49.89L127.38 50.32L127.6 50.77L127.8 51.23L127.99 51.7L128.16 52.18L128.31 52.66L128.44 53.15L128.56 53.65L128.65 54.16L128.72 54.68L128.78 55.2L128.81 55.72L128.82 56.26L128.82 170.65L128.81 171.18L128.78 171.71L128.72 172.23L128.65 172.75L128.56 173.25L128.44 173.75L128.31 174.25L128.16 174.73L127.99 175.21L127.8 175.68L127.6 176.13L127.38 176.58L127.14 177.02L126.88 177.45L126.61 177.87L126.33 178.27L126.03 178.67L125.71 179.05L125.38 179.42L125.04 179.78L124.68 180.12L124.31 180.45L123.93 180.77L123.53 181.07L123.13 181.35L122.71 181.63L122.28 181.88L121.84 182.12L121.39 182.34L120.93 182.54L120.47 182.73L119.99 182.9L119.51 183.05L119.01 183.18L118.51 183.3L118 183.39L117.49 183.46L116.97 183.52L116.44 183.55L115.91 183.56L25.27 183.56L24.74 183.55L24.21 183.52L23.69 183.46L23.18 183.39L22.67 183.3L22.17 183.18L21.68 183.05L21.19 182.9L20.72 182.73L20.25 182.54L19.79 182.34L19.34 182.12L18.9 181.88L18.47 181.63L18.06 181.35L17.65 181.07L17.26 180.77L16.87 180.45L16.5 180.12L16.15 179.78L15.8 179.42L15.47 179.05L15.16 178.67L14.86 178.27L14.57 177.87L14.3 177.45L14.05 177.02L13.81 176.58L13.59 176.13L13.38 175.68L13.19 175.21L13.02 174.73L12.87 174.25L12.74 173.75L12.63 173.25L12.54 172.75L12.46 172.23L12.41 171.71L12.38 171.18L12.37 170.65L12.37 56.26L12.38 55.72L12.41 55.2L12.46 54.68L12.54 54.16L12.63 53.65L12.74 53.15L12.87 52.66L13.02 52.18L13.19 51.7L13.38 51.23L13.59 50.77L13.81 50.32L14.05 49.89L14.3 49.46L14.57 49.04L14.86 48.63L15.16 48.24L15.47 47.86L15.8 47.49L16.15 47.13L16.5 46.79L16.87 46.46L17.26 46.14L17.65 45.84L18.06 45.55L18.47 45.28L18.9 45.03L19.34 44.79L19.79 44.57L20.25 44.36L20.72 44.18L21.19 44.01L21.68 43.86L22.17 43.72L22.67 43.61L23.18 43.52L23.69 43.44L24.21 43.39L24.74 43.36L25.27 43.35L115.91 43.35L116.44 43.36L116.97 43.39L117.49 43.44L117.49 43.44L118 43.52ZM136.1 69.12L137.87 69.44L139.61 69.83L141.32 70.29L143.01 70.82L144.67 71.41L146.3 72.06L147.89 72.77L149.46 73.55L150.98 74.38L152.47 75.26L153.93 76.21L155.34 77.2L156.72 78.25L158.05 79.35L159.34 80.5L160.58 81.69L161.77 82.94L162.92 84.22L164.02 85.55L165.07 86.93L166.07 88.34L167.01 89.8L167.89 91.29L168.72 92.82L169.5 94.38L170.21 95.97L170.86 97.6L171.45 99.26L171.98 100.95L172.44 102.66L172.83 104.4L173.15 106.17L173.41 107.96L173.59 109.77L173.7 111.6L173.74 113.45L173.7 115.3L173.59 117.14L173.41 118.95L173.15 120.74L172.83 122.5L172.44 124.24L171.98 125.96L171.45 127.65L170.86 129.31L170.21 130.93L169.5 132.53L168.72 134.09L167.89 135.62L167.01 137.11L166.07 138.56L165.07 139.98L164.02 141.35L162.92 142.68L161.77 143.97L160.58 145.21L159.34 146.41L158.05 147.56L156.72 148.66L155.34 149.71L153.93 150.7L152.47 151.64L150.98 152.53L149.46 153.36L147.89 154.13L146.3 154.85L144.67 155.5L143.01 156.09L141.32 156.61L139.61 157.07L137.87 157.47L136.1 157.79L134.31 158.05L132.5 158.23L130.67 158.34L128.82 158.38L128.82 142.58L130.21 142.56L131.59 142.48L132.95 142.35L134.29 142.16L135.62 141.93L136.93 141.65L138.21 141.32L139.47 140.94L140.71 140.52L141.92 140.06L143.11 139.55L144.27 139L145.41 138.4L146.51 137.77L147.58 137.1L148.62 136.39L149.63 135.65L150.6 134.86L151.54 134.05L152.43 133.2L153.3 132.32L154.12 131.41L154.9 130.46L155.64 129.49L156.34 128.49L156.99 127.46L157.6 126.41L158.16 125.34L158.68 124.24L159.14 123.11L159.55 121.97L159.92 120.8L160.23 119.62L160.49 118.42L160.69 117.2L160.83 115.97L160.92 114.72L160.95 113.45L160.92 112.19L160.83 110.94L160.69 109.71L160.49 108.49L160.23 107.29L159.92 106.1L159.55 104.94L159.14 103.79L158.68 102.67L158.16 101.57L157.6 100.49L156.99 99.44L156.34 98.42L155.64 97.42L154.9 96.44L154.12 95.5L153.3 94.59L152.43 93.71L151.54 92.86L150.6 92.04L149.63 91.26L148.62 90.52L147.58 89.81L146.51 89.14L145.41 88.5L144.27 87.91L143.11 87.36L141.92 86.85L140.71 86.39L139.47 85.96L138.21 85.59L136.93 85.26L135.62 84.98L134.29 84.74L132.95 84.56L131.59 84.43L130.21 84.35L128.82 84.32L128.82 68.53L130.67 68.57L132.5 68.68L134.31 68.86L134.31 68.86L136.1 69.12Z" id="avtVVRFWW" fill="white" fill-opacity="1" filter="url(#shadow1010827)"></path></g><use xlink:href="#a2hQ5Fs7pX" opacity="1" fill="#616261" fill-opacity="1"></use><g><use xlink:href="#a2hQ5Fs7pX" opacity="1" fill-opacity="0" stroke="#000000" stroke-width="1" stroke-opacity="0.15"></use></g></g><g><g><filter id="shadow7444693" x="36.48" y="76.32" width="69.47" height="74.26" filterUnits="userSpaceOnUse" primitiveUnits="userSpaceOnUse"><feFlood></feFlood><feComposite in2="SourceAlpha" operator="in"></feComposite><feGaussianBlur stdDeviation="1"></feGaussianBlur><feOffset dx="0" dy="0" result="afterOffset"></feOffset><feFlood flood-color="#000000" flood-opacity="0.23"></feFlood><feComposite in2="afterOffset" operator="in"></feComposite><feMorphology operator="dilate" radius="1"></feMorphology><feComposite in2="SourceAlpha" operator="out"></feComposite></filter><path d="M57.66 113.96L57.5 113.96L64.33 99.14L71.15 84.32L77.98 99.14L84.8 113.96L84.77 113.96L91.13 127.77L97.95 142.58L44.48 142.58L51.3 127.77L57.66 113.96ZM64.95 127.77L71.22 141.37L77.48 127.77L83.84 113.96L58.6 113.96L64.95 127.77Z" id="a1ntQgNij" fill="white" fill-opacity="1" filter="url(#shadow7444693)"></path></g><use xlink:href="#b8YMOVhH" opacity="1" fill="#dbb741" fill-opacity="1"></use></g><g><use xlink:href="#b18Hft94iL" opacity="1" fill="#ffffff" fill-opacity="0.11"></use></g><g><g><filter id="shadow11635901" x="41.83" y="1.17" width="50.55" height="40.49" filterUnits="userSpaceOnUse" primitiveUnits="userSpaceOnUse"><feFlood></feFlood><feComposite in2="SourceAlpha" operator="in"></feComposite><feGaussianBlur stdDeviation="1"></feGaussianBlur><feOffset dx="0" dy="0" result="afterOffset"></feOffset><feFlood flood-color="#000000" flood-opacity="0.08"></feFlood><feComposite in2="afterOffset" operator="in"></feComposite><feMorphology operator="dilate" radius="1"></feMorphology><feComposite in2="SourceAlpha" operator="out"></feComposite></filter><path d="M75.75 9.18C80.52 9.18 84.38 12.47 84.38 16.53C84.39 27.77 67.11 33.36 67.11 33.66C67.11 33.66 67.11 33.66 67.11 33.66C67.11 33.36 49.83 27.77 49.83 16.53C49.83 12.47 53.7 9.17 58.47 9.17C63.24 9.17 67.11 12.06 67.11 16.12C67.11 12.06 70.98 9.18 75.75 9.18Z" id="f1Qhw6Qsl7" fill="white" fill-opacity="1" filter="url(#shadow11635901)"></path></g><use xlink:href="#c9nyoSqPL" opacity="1" fill="#ee4d4d" fill-opacity="0.19"></use></g></g></g></svg>