<?xml version="1.0" encoding="UTF-8" standalone="no"?>
<!DOCTYPE svg PUBLIC "-//W3C//DTD SVG 1.1//EN" "http://www.w3.org/Graphics/SVG/1.1/DTD/svg11.dtd">
<svg version="1.1" xmlns="http://www.w3.org/2000/svg" xmlns:xlink="http://www.w3.org/1999/xlink" preserveAspectRatio="xMidYMid meet" viewBox="0 0 512 512" width="512" height="512"><defs><path d="M346.1 103.74L347.56 104.01L348.99 104.34L350.41 104.71L351.8 105.15L353.16 105.63L354.5 106.17L355.82 106.76L357.11 107.39L358.37 108.07L359.59 108.81L360.79 109.58L361.96 110.4L363.09 111.26L364.18 112.17L365.24 113.11L366.27 114.1L367.25 115.12L368.2 116.18L369.1 117.28L369.97 118.41L370.79 119.58L371.56 120.77L372.29 122L372.98 123.26L373.61 124.55L374.2 125.86L374.74 127.2L375.22 128.57L375.65 129.96L376.03 131.37L376.36 132.81L376.62 134.26L376.83 135.74L376.98 137.23L377.08 138.74L377.11 140.27L377.11 468.27L377.08 469.79L376.98 471.3L376.83 472.8L376.62 474.27L376.36 475.73L376.03 477.16L375.65 478.57L375.22 479.97L374.74 481.33L374.2 482.67L373.61 483.99L372.98 485.28L372.29 486.53L371.56 487.76L370.79 488.96L369.97 490.12L369.1 491.26L368.2 492.35L367.25 493.41L366.27 494.44L365.24 495.42L364.18 496.37L363.09 497.27L361.96 498.14L360.79 498.96L359.59 499.73L358.37 500.46L357.11 501.14L355.82 501.78L354.5 502.37L353.16 502.9L351.8 503.39L350.41 503.82L348.99 504.2L347.56 504.52L346.1 504.79L344.63 505L343.13 505.15L341.63 505.24L340.1 505.28L80.21 505.28L78.69 505.24L77.18 505.15L75.69 505L74.21 504.79L72.76 504.52L71.32 504.2L69.91 503.82L68.52 503.39L67.15 502.9L65.81 502.37L64.5 501.78L63.21 501.14L61.95 500.46L60.72 499.73L59.52 498.96L58.36 498.14L57.23 497.27L56.13 496.37L55.07 495.42L54.05 494.44L53.06 493.41L52.12 492.35L51.21 491.26L50.35 490.12L49.53 488.96L48.75 487.76L48.02 486.53L47.34 485.28L46.7 483.99L46.12 482.67L45.58 481.33L45.09 479.97L44.66 478.57L44.28 477.16L43.96 475.73L43.69 474.27L43.48 472.8L43.33 471.3L43.24 469.79L43.21 468.27L43.21 140.27L43.24 138.74L43.33 137.23L43.48 135.74L43.69 134.26L43.96 132.81L44.28 131.37L44.66 129.96L45.09 128.57L45.58 127.2L46.12 125.86L46.7 124.55L47.34 123.26L48.02 122L48.75 120.77L49.53 119.58L50.35 118.41L51.21 117.28L52.12 116.18L53.06 115.12L54.05 114.1L55.07 113.11L56.13 112.17L57.23 111.26L58.36 110.4L59.52 109.58L60.72 108.81L61.95 108.07L63.21 107.39L64.5 106.76L65.81 106.17L67.15 105.63L68.52 105.15L69.91 104.71L71.32 104.34L72.76 104.01L74.21 103.74L75.69 103.53L77.18 103.38L78.69 103.29L80.21 103.26L340.1 103.26L341.63 103.29L343.13 103.38L344.63 103.53L344.63 103.53L346.1 103.74ZM397.99 177.14L403.05 178.08L408.05 179.2L412.96 180.52L417.8 182.03L422.56 183.72L427.23 185.59L431.8 187.63L436.28 189.84L440.66 192.22L444.94 194.77L449.11 197.47L453.16 200.32L457.1 203.33L460.92 206.48L464.61 209.77L468.17 213.2L471.6 216.77L474.89 220.46L478.05 224.28L481.05 228.21L483.91 232.27L486.61 236.44L489.15 240.71L491.53 245.09L493.74 249.57L495.79 254.15L497.66 258.82L499.35 263.57L500.85 268.41L502.17 273.33L503.3 278.32L504.23 283.39L504.96 288.52L505.49 293.71L505.81 298.96L505.92 304.27L505.81 309.57L505.49 314.83L504.96 320.02L504.23 325.15L503.3 330.21L502.17 335.21L500.85 340.13L499.35 344.96L497.66 349.72L495.79 354.39L493.74 358.96L491.53 363.44L489.15 367.82L486.61 372.1L483.91 376.27L481.05 380.32L478.05 384.26L474.89 388.08L471.6 391.77L468.17 395.33L464.61 398.76L460.92 402.06L457.1 405.21L453.16 408.21L449.11 411.07L444.94 413.77L440.66 416.31L436.28 418.69L431.8 420.91L427.23 422.95L422.56 424.82L417.8 426.51L412.96 428.01L408.05 429.33L403.05 430.46L397.99 431.39L392.86 432.12L387.66 432.65L382.41 432.97L377.11 433.08L377.11 387.79L380.9 387.72L384.66 387.52L388.37 387.17L392.04 386.7L395.67 386.1L399.24 385.36L402.75 384.51L406.22 383.53L409.62 382.44L412.96 381.23L416.23 379.9L419.43 378.46L422.57 376.92L425.62 375.27L428.61 373.52L431.51 371.67L434.32 369.72L437.05 367.68L439.69 365.54L442.24 363.32L444.7 361.01L447.05 358.61L449.31 356.14L451.46 353.58L453.5 350.95L455.43 348.25L457.25 345.48L458.95 342.64L460.54 339.73L462 336.77L463.33 333.74L464.54 330.66L465.62 327.52L466.56 324.33L467.37 321.09L468.04 317.81L468.56 314.48L468.94 311.11L469.17 307.71L469.24 304.27L469.17 300.83L468.94 297.42L468.56 294.05L468.04 290.73L467.37 287.44L466.56 284.21L465.62 281.02L464.54 277.88L463.33 274.8L462 271.77L460.54 268.8L458.95 265.9L457.25 263.06L455.43 260.28L453.5 257.58L451.46 254.95L449.31 252.4L447.05 249.92L444.7 247.53L442.24 245.22L439.69 242.99L437.05 240.86L434.32 238.82L431.51 236.87L428.61 235.01L425.62 233.26L422.57 231.61L419.43 230.07L416.23 228.63L412.96 227.31L409.62 226.1L406.22 225L402.75 224.03L399.24 223.17L395.67 222.44L392.04 221.84L388.37 221.36L384.66 221.02L380.9 220.81L377.11 220.74L377.11 175.46L382.41 175.56L387.66 175.88L392.86 176.41L392.86 176.41L397.99 177.14Z" id="c4LDHmVXiD"></path><path d="M173.08 305.72L172.63 305.72L192.2 263.23L211.77 220.74L231.34 263.23L250.9 305.72L250.81 305.72L269.04 345.3L288.61 387.79L135.29 387.79L154.85 345.3L173.08 305.72ZM193.99 345.3L211.95 384.3L229.9 345.3L248.13 305.72L175.76 305.72L193.99 345.3Z" id="cRtOQOgxi"></path><path d="M78.69 505.24L77.18 505.15L75.69 505L74.21 504.79L72.76 504.52L71.32 504.2L69.91 503.82L68.52 503.39L67.15 502.9L65.81 502.37L64.5 501.78L63.21 501.14L61.95 500.46L60.72 499.73L59.52 498.96L58.36 498.14L57.23 497.27L56.13 496.37L55.07 495.42L54.05 494.44L53.06 493.41L52.12 492.35L51.21 491.26L50.35 490.12L49.53 488.96L48.75 487.76L48.02 486.53L47.34 485.28L46.7 483.99L46.12 482.67L45.58 481.33L45.09 479.97L44.66 478.57L44.28 477.16L43.96 475.73L43.69 474.27L43.48 472.8L43.33 471.3L43.24 469.79L43.21 468.27L43.21 140.27L43.24 138.74L43.33 137.23L43.48 135.74L43.69 134.26L43.96 132.81L44.28 131.37L44.66 129.96L45.09 128.57L45.58 127.2L46.12 125.86L46.7 124.55L47.34 123.26L48.02 122L48.75 120.77L49.53 119.58L50.35 118.41L51.21 117.28L52.12 116.18L53.06 115.12L54.05 114.1L55.07 113.11L56.13 112.17L57.23 111.26L58.36 110.4L59.52 109.58L60.72 108.81L61.95 108.07L63.21 107.39L64.5 106.76L65.81 106.17L67.15 105.63L68.52 105.15L69.91 104.71L71.32 104.34L72.76 104.01L74.21 103.74L75.69 103.53L77.18 103.38L78.69 103.29L80.21 103.26L200.17 103.26L200.17 505.28L80.21 505.28L80.21 505.28L78.69 505.24Z" id="a2LC02ZhyS"></path><path d="M224.94 5.28C238.62 5.28 249.71 14.72 249.71 26.36C249.71 58.61 200.17 74.61 200.17 75.5C200.17 75.5 200.17 75.5 200.17 75.5C200.17 74.61 150.64 58.61 150.64 26.36C150.64 14.71 161.73 5.28 175.4 5.28C189.08 5.28 200.17 13.55 200.17 25.19C200.17 13.55 211.26 5.28 224.94 5.28Z" id="d41geHlzy"></path></defs><g><g><g><g><filter id="shadow1317264" x="34.21" y="94.26" width="481.71" height="421.01" filterUnits="userSpaceOnUse" primitiveUnits="userSpaceOnUse"><feFlood></feFlood><feComposite in2="SourceAlpha" operator="in"></feComposite><feGaussianBlur stdDeviation="1"></feGaussianBlur><feOffset dx="1" dy="1" result="afterOffset"></feOffset><feFlood flood-color="#000000" flood-opacity="0.24"></feFlood><feComposite in2="afterOffset" operator="in"></feComposite><feMorphology operator="dilate" radius="1"></feMorphology><feComposite in2="SourceAlpha" operator="out"></feComposite></filter><path d="M346.1 103.74L347.56 104.01L348.99 104.34L350.41 104.71L351.8 105.15L353.16 105.63L354.5 106.17L355.82 106.76L357.11 107.39L358.37 108.07L359.59 108.81L360.79 109.58L361.96 110.4L363.09 111.26L364.18 112.17L365.24 113.11L366.27 114.1L367.25 115.12L368.2 116.18L369.1 117.28L369.97 118.41L370.79 119.58L371.56 120.77L372.29 122L372.98 123.26L373.61 124.55L374.2 125.86L374.74 127.2L375.22 128.57L375.65 129.96L376.03 131.37L376.36 132.81L376.62 134.26L376.83 135.74L376.98 137.23L377.08 138.74L377.11 140.27L377.11 468.27L377.08 469.79L376.98 471.3L376.83 472.8L376.62 474.27L376.36 475.73L376.03 477.16L375.65 478.57L375.22 479.97L374.74 481.33L374.2 482.67L373.61 483.99L372.98 485.28L372.29 486.53L371.56 487.76L370.79 488.96L369.97 490.12L369.1 491.26L368.2 492.35L367.25 493.41L366.27 494.44L365.24 495.42L364.18 496.37L363.09 497.27L361.96 498.14L360.79 498.96L359.59 499.73L358.37 500.46L357.11 501.14L355.82 501.78L354.5 502.37L353.16 502.9L351.8 503.39L350.41 503.82L348.99 504.2L347.56 504.52L346.1 504.79L344.63 505L343.13 505.15L341.63 505.24L340.1 505.28L80.21 505.28L78.69 505.24L77.18 505.15L75.69 505L74.21 504.79L72.76 504.52L71.32 504.2L69.91 503.82L68.52 503.39L67.15 502.9L65.81 502.37L64.5 501.78L63.21 501.14L61.95 500.46L60.72 499.73L59.52 498.96L58.36 498.14L57.23 497.27L56.13 496.37L55.07 495.42L54.05 494.44L53.06 493.41L52.12 492.35L51.21 491.26L50.35 490.12L49.53 488.96L48.75 487.76L48.02 486.53L47.34 485.28L46.7 483.99L46.12 482.67L45.58 481.33L45.09 479.97L44.66 478.57L44.28 477.16L43.96 475.73L43.69 474.27L43.48 472.8L43.33 471.3L43.24 469.79L43.21 468.27L43.21 140.27L43.24 138.74L43.33 137.23L43.48 135.74L43.69 134.26L43.96 132.81L44.28 131.37L44.66 129.96L45.09 128.57L45.58 127.2L46.12 125.86L46.7 124.55L47.34 123.26L48.02 122L48.75 120.77L49.53 119.58L50.35 118.41L51.21 117.28L52.12 116.18L53.06 115.12L54.05 114.1L55.07 113.11L56.13 112.17L57.23 111.26L58.36 110.4L59.52 109.58L60.72 108.81L61.95 108.07L63.21 107.39L64.5 106.76L65.81 106.17L67.15 105.63L68.52 105.15L69.91 104.71L71.32 104.34L72.76 104.01L74.21 103.74L75.69 103.53L77.18 103.38L78.69 103.29L80.21 103.26L340.1 103.26L341.63 103.29L343.13 103.38L344.63 103.53L344.63 103.53L346.1 103.74ZM397.99 177.14L403.05 178.08L408.05 179.2L412.96 180.52L417.8 182.03L422.56 183.72L427.23 185.59L431.8 187.63L436.28 189.84L440.66 192.22L444.94 194.77L449.11 197.47L453.16 200.32L457.1 203.33L460.92 206.48L464.61 209.77L468.17 213.2L471.6 216.77L474.89 220.46L478.05 224.28L481.05 228.21L483.91 232.27L486.61 236.44L489.15 240.71L491.53 245.09L493.74 249.57L495.79 254.15L497.66 258.82L499.35 263.57L500.85 268.41L502.17 273.33L503.3 278.32L504.23 283.39L504.96 288.52L505.49 293.71L505.81 298.96L505.92 304.27L505.81 309.57L505.49 314.83L504.96 320.02L504.23 325.15L503.3 330.21L502.17 335.21L500.85 340.13L499.35 344.96L497.66 349.72L495.79 354.39L493.74 358.96L491.53 363.44L489.15 367.82L486.61 372.1L483.91 376.27L481.05 380.32L478.05 384.26L474.89 388.08L471.6 391.77L468.17 395.33L464.61 398.76L460.92 402.06L457.1 405.21L453.16 408.21L449.11 411.07L444.94 413.77L440.66 416.31L436.28 418.69L431.8 420.91L427.23 422.95L422.56 424.82L417.8 426.51L412.96 428.01L408.05 429.33L403.05 430.46L397.99 431.39L392.86 432.12L387.66 432.65L382.41 432.97L377.11 433.08L377.11 387.79L380.9 387.72L384.66 387.52L388.37 387.17L392.04 386.7L395.67 386.1L399.24 385.36L402.75 384.51L406.22 383.53L409.62 382.44L412.96 381.23L416.23 379.9L419.43 378.46L422.57 376.92L425.62 375.27L428.61 373.52L431.51 371.67L434.32 369.72L437.05 367.68L439.69 365.54L442.24 363.32L444.7 361.01L447.05 358.61L449.31 356.14L451.46 353.58L453.5 350.95L455.43 348.25L457.25 345.48L458.95 342.64L460.54 339.73L462 336.77L463.33 333.74L464.54 330.66L465.62 327.52L466.56 324.33L467.37 321.09L468.04 317.81L468.56 314.48L468.94 311.11L469.17 307.71L469.24 304.27L469.17 300.83L468.94 297.42L468.56 294.05L468.04 290.73L467.37 287.44L466.56 284.21L465.62 281.02L464.54 277.88L463.33 274.8L462 271.77L460.54 268.8L458.95 265.9L457.25 263.06L455.43 260.28L453.5 257.58L451.46 254.95L449.31 252.4L447.05 249.92L444.7 247.53L442.24 245.22L439.69 242.99L437.05 240.86L434.32 238.82L431.51 236.87L428.61 235.01L425.62 233.26L422.57 231.61L419.43 230.07L416.23 228.63L412.96 227.31L409.62 226.1L406.22 225L402.75 224.03L399.24 223.17L395.67 222.44L392.04 221.84L388.37 221.36L384.66 221.02L380.9 220.81L377.11 220.74L377.11 175.46L382.41 175.56L387.66 175.88L392.86 176.41L392.86 176.41L397.99 177.14Z" id="g2Bjbg6Gfp" fill="white" fill-opacity="1" filter="url(#shadow1317264)"></path></g><use xlink:href="#c4LDHmVXiD" opacity="1" fill="#616261" fill-opacity="1"></use><g><use xlink:href="#c4LDHmVXiD" opacity="1" fill-opacity="0" stroke="#000000" stroke-width="1" stroke-opacity="0.15"></use></g></g><g><g><filter id="shadow16551755" x="127.29" y="212.74" width="169.32" height="183.05" filterUnits="userSpaceOnUse" primitiveUnits="userSpaceOnUse"><feFlood></feFlood><feComposite in2="SourceAlpha" operator="in"></feComposite><feGaussianBlur stdDeviation="1"></feGaussianBlur><feOffset dx="0" dy="0" result="afterOffset"></feOffset><feFlood flood-color="#000000" flood-opacity="0.23"></feFlood><feComposite in2="afterOffset" operator="in"></feComposite><feMorphology operator="dilate" radius="1"></feMorphology><feComposite in2="SourceAlpha" operator="out"></feComposite></filter><path d="M173.08 305.72L172.63 305.72L192.2 263.23L211.77 220.74L231.34 263.23L250.9 305.72L250.81 305.72L269.04 345.3L288.61 387.79L135.29 387.79L154.85 345.3L173.08 305.72ZM193.99 345.3L211.95 384.3L229.9 345.3L248.13 305.72L175.76 305.72L193.99 345.3Z" id="g2CaNEJDGF" fill="white" fill-opacity="1" filter="url(#shadow16551755)"></path></g><use xlink:href="#cRtOQOgxi" opacity="1" fill="#dbb741" fill-opacity="1"></use></g><g><use xlink:href="#a2LC02ZhyS" opacity="1" fill="#ffffff" fill-opacity="0.11"></use></g><g><g><filter id="shadow3275585" x="142.64" y="-2.72" width="115.07" height="86.22" filterUnits="userSpaceOnUse" primitiveUnits="userSpaceOnUse"><feFlood></feFlood><feComposite in2="SourceAlpha" operator="in"></feComposite><feGaussianBlur stdDeviation="1"></feGaussianBlur><feOffset dx="0" dy="0" result="afterOffset"></feOffset><feFlood flood-color="#000000" flood-opacity="0.08"></feFlood><feComposite in2="afterOffset" operator="in"></feComposite><feMorphology operator="dilate" radius="1"></feMorphology><feComposite in2="SourceAlpha" operator="out"></feComposite></filter><path d="M224.94 5.28C238.62 5.28 249.71 14.72 249.71 26.36C249.71 58.61 200.17 74.61 200.17 75.5C200.17 75.5 200.17 75.5 200.17 75.5C200.17 74.61 150.64 58.61 150.64 26.36C150.64 14.71 161.73 5.28 175.4 5.28C189.08 5.28 200.17 13.55 200.17 25.19C200.17 13.55 211.26 5.28 224.94 5.28Z" id="b5rBa0imPA" fill="white" fill-opacity="1" filter="url(#shadow3275585)"></path></g><use xlink:href="#d41geHlzy" opacity="1" fill="#ee4d4d" fill-opacity="0.19"></use></g></g></g></svg>