<?xml version="1.0" encoding="UTF-8" standalone="no"?>
<!DOCTYPE svg PUBLIC "-//W3C//DTD SVG 1.1//EN" "http://www.w3.org/Graphics/SVG/1.1/DTD/svg11.dtd">
<svg version="1.1" xmlns="http://www.w3.org/2000/svg" xmlns:xlink="http://www.w3.org/1999/xlink" preserveAspectRatio="xMidYMid meet" viewBox="0 0 226 196" width="226" height="196"><defs><path d="M125.75 68.91L126.07 68.96L126.34 69.1L126.56 69.32L126.7 69.59L126.75 69.91L126.75 75.03L126.7 75.35L126.56 75.62L126.34 75.84L126.07 75.98L125.75 76.03L116.75 76.03L116.75 68.91L125.75 68.91Z" id="d2zXQGSCxg"></path><path d="M103.63 93.03L103.65 93.35L103.66 93.66L103.66 93.97L103.64 94.28L103.6 94.58L103.55 94.89L103.49 95.18L103.42 95.48L103.33 95.76L103.23 96.05L103.12 96.32L103 96.6L102.87 96.86L102.72 97.12L102.56 97.37L102.39 97.62L102.22 97.86L102.03 98.09L101.83 98.31L101.62 98.52L101.4 98.73L101.18 98.92L100.94 99.11L100.7 99.28L100.44 99.44L100.18 99.6L99.92 99.74L99.64 99.87L99.36 99.99L99.07 100.09L98.77 100.18L98.47 100.26L98.16 100.33L97.84 100.38L48.67 107.42L48.36 107.45L48.04 107.48L47.73 107.49L47.42 107.48L47.11 107.46L46.8 107.43L46.5 107.38L46.21 107.32L45.91 107.24L45.63 107.16L45.34 107.06L45.06 106.95L44.79 106.82L44.53 106.69L44.27 106.54L44.01 106.39L43.77 106.22L43.53 106.04L43.3 105.85L43.08 105.65L42.87 105.44L42.66 105.23L42.47 105L42.28 104.76L42.11 104.52L41.95 104.27L41.79 104.01L41.65 103.74L41.52 103.46L41.4 103.18L41.3 102.89L41.2 102.6L41.12 102.29L41.06 101.98L41.01 101.67L38.63 85.03L38.59 84.72L38.57 84.4L38.56 84.09L38.56 83.97L102.34 83.97L103.59 92.72L103.63 93.03Z" id="ge3r5jY9D"></path><path d="M6.07 45.98L5.73 45.81L5.42 45.59L5.15 45.33L4.93 45.02L4.77 44.67L4.66 44.3L4.63 43.9L4.63 41.21L4.66 40.81L4.77 40.44L4.93 40.09L5.15 39.78L5.42 39.51L5.73 39.29L6.07 39.13L6.45 39.03L6.85 38.99L26.8 38.99L26.8 46.11L6.85 46.11L6.45 46.08L6.07 45.98Z" id="fVpfWEOK8"></path><path d="M12.01 74.37L11.72 74.18L11.47 73.94L11.29 73.65L11.17 73.32L11.13 72.96L11.13 68.97L11.17 68.61L11.29 68.28L11.47 67.99L11.72 67.75L12.01 67.56L12.34 67.45L12.7 67.4L26.8 67.4L26.8 74.53L12.7 74.53L12.34 74.49L12.01 74.37Z" id="buZISzzG4"></path><path d="M110.53 24.16L110.63 24.17L110.72 24.18L110.81 24.2L110.9 24.22L110.99 24.25L111.08 24.27L111.17 24.3L111.25 24.34L111.33 24.38L111.42 24.42L111.5 24.46L111.57 24.51L111.65 24.55L111.72 24.61L111.79 24.66L111.86 24.72L111.93 24.78L112 24.84L112.06 24.91L112.12 24.97L112.18 25.04L112.23 25.11L112.28 25.19L112.33 25.26L112.38 25.34L112.42 25.42L112.46 25.5L112.5 25.59L112.53 25.67L112.56 25.76L112.59 25.85L112.61 25.93L112.63 26.03L112.65 26.12L112.67 26.21L112.67 26.31L112.68 26.4L112.68 26.5L112.68 35.32L30.92 35.32L30.92 26.5L30.92 26.4L30.92 26.31L30.93 26.21L30.95 26.12L30.96 26.03L30.98 25.93L31.01 25.85L31.03 25.76L31.07 25.67L31.1 25.59L31.14 25.5L31.18 25.42L31.22 25.34L31.27 25.26L31.32 25.19L31.37 25.11L31.42 25.04L31.48 24.97L31.54 24.91L31.6 24.84L31.67 24.78L31.73 24.72L31.8 24.66L31.87 24.61L31.95 24.55L32.02 24.51L32.1 24.46L32.18 24.42L32.26 24.38L32.35 24.34L32.43 24.3L32.52 24.27L32.61 24.25L32.7 24.22L32.79 24.2L32.88 24.18L32.97 24.17L33.07 24.16L33.16 24.16L33.26 24.15L110.34 24.15L110.44 24.16L110.53 24.16Z" id="aQQUsYUsf"></path><path d="M116.8 82.14L116.79 82.22L116.79 82.29L116.78 82.37L116.76 82.44L116.74 82.52L116.73 82.59L116.7 82.66L116.68 82.73L116.65 82.8L116.62 82.87L116.59 82.94L116.55 83L116.51 83.06L116.47 83.13L116.43 83.19L116.39 83.24L116.34 83.3L116.29 83.35L116.24 83.41L116.19 83.46L116.13 83.51L116.08 83.55L116.02 83.6L115.96 83.64L115.9 83.68L115.84 83.72L115.77 83.75L115.7 83.79L115.64 83.82L115.57 83.84L115.5 83.87L115.43 83.89L115.35 83.91L115.28 83.93L115.2 83.94L115.13 83.95L115.05 83.96L114.97 83.96L114.9 83.97L28.7 83.97L28.62 83.96L28.55 83.96L28.47 83.95L28.39 83.94L28.32 83.93L28.24 83.91L28.17 83.89L28.1 83.87L28.03 83.84L27.96 83.82L27.89 83.79L27.83 83.75L27.76 83.72L27.7 83.68L27.64 83.64L27.58 83.6L27.52 83.55L27.46 83.51L27.41 83.46L27.36 83.41L27.3 83.35L27.26 83.3L27.21 83.24L27.17 83.19L27.12 83.13L27.08 83.06L27.05 83L27.01 82.94L26.98 82.87L26.95 82.8L26.92 82.73L26.89 82.66L26.87 82.59L26.85 82.52L26.84 82.44L26.82 82.37L26.81 82.29L26.8 82.22L26.8 82.14L26.8 82.06L26.8 60.97L116.8 60.97L116.8 82.06L116.8 82.14Z" id="adu6KauRl"></path><path d="M114.85 35.33L114.93 35.34L115.02 35.35L115.1 35.36L115.18 35.38L115.26 35.4L115.34 35.43L115.42 35.46L115.5 35.49L115.58 35.52L115.65 35.56L115.72 35.6L115.79 35.64L115.86 35.68L115.93 35.73L115.99 35.78L116.06 35.83L116.12 35.89L116.18 35.94L116.23 36L116.29 36.06L116.34 36.13L116.39 36.19L116.44 36.26L116.48 36.33L116.52 36.4L116.56 36.47L116.6 36.55L116.63 36.62L116.66 36.7L116.69 36.78L116.72 36.86L116.74 36.94L116.76 37.02L116.77 37.1L116.78 37.19L116.79 37.28L116.8 37.36L116.8 37.45L116.8 60.97L26.8 60.97L26.8 37.45L26.8 37.36L26.8 37.28L26.81 37.19L26.83 37.1L26.84 37.02L26.86 36.94L26.88 36.86L26.91 36.78L26.93 36.7L26.97 36.62L27 36.55L27.04 36.47L27.07 36.4L27.12 36.33L27.16 36.26L27.21 36.19L27.26 36.13L27.31 36.06L27.36 36L27.42 35.94L27.48 35.89L27.54 35.83L27.6 35.78L27.67 35.73L27.74 35.68L27.81 35.64L27.88 35.6L27.95 35.56L28.02 35.52L28.1 35.49L28.18 35.46L28.25 35.43L28.33 35.4L28.42 35.38L28.5 35.36L28.58 35.35L28.67 35.34L28.75 35.33L28.84 35.32L28.93 35.32L114.67 35.32L114.76 35.32L114.85 35.33Z" id="ce9lVJpPD"></path><path d="M22.65 55.84C23.51 55.84 24.21 56.54 24.21 57.4C24.21 63.14 24.21 78.79 24.21 84.53C24.21 85.39 23.51 86.09 22.65 86.09C20.96 86.09 17.46 86.09 15.78 86.09C14.91 86.09 14.21 85.39 14.21 84.53C14.21 78.79 14.21 63.14 14.21 57.4C14.21 56.54 14.91 55.84 15.78 55.84C17.46 55.84 20.96 55.84 22.65 55.84Z" id="a6stbKTd1"></path><path d="M23.39 34.62C23.85 34.62 24.21 34.98 24.21 35.44C24.21 38.45 24.21 46.66 24.21 49.67C24.21 50.12 23.85 50.49 23.39 50.49C21.56 50.49 16.87 50.49 15.03 50.49C14.58 50.49 14.21 50.12 14.21 49.67C14.21 46.66 14.21 38.45 14.21 35.44C14.21 34.98 14.58 34.62 15.03 34.62C16.87 34.62 21.56 34.62 23.39 34.62Z" id="a3lkzJ4pdt"></path><path d="M20.83 33.28C21.66 33.28 22.34 33.95 22.34 34.78C22.34 45.28 22.34 75.27 22.34 85.77C22.34 86.6 21.66 87.28 20.83 87.28C19.88 87.28 18.54 87.28 17.59 87.28C16.76 87.28 16.09 86.6 16.09 85.77C16.09 75.27 16.09 45.28 16.09 34.78C16.09 33.95 16.76 33.28 17.59 33.28C18.54 33.28 19.88 33.28 20.83 33.28Z" id="a4kujrL8FP"></path><path d="M63.18 1.32L65.04 1.39L66.87 1.48L68.67 1.61L70.43 1.76L72.14 1.93L73.82 2.13L75.45 2.35L77.03 2.59L78.56 2.86L80.03 3.14L81.45 3.45L82.81 3.77L84.11 4.12L85.35 4.48L86.51 4.86L87.61 5.25L88.64 5.66L89.59 6.09L90.46 6.53L91.25 6.98L91.96 7.45L92.58 7.93L93.12 8.42L93.56 8.92L93.89 9.4L93.92 9.43L94.62 10.37L95.26 11.48L95.82 12.74L96.3 14.14L96.53 15.05L47.07 15.05L47.07 1.88L48.31 1.76L50.07 1.61L51.86 1.48L53.69 1.39L55.56 1.32L57.45 1.27L59.37 1.26L61.29 1.27L63.18 1.32Z" id="am1vG4Bxm"></path><path d="M107.97 15.05C108.79 15.05 109.47 15.72 109.47 16.55C109.47 19.9 109.47 28.43 109.47 31.78C109.47 32.61 108.79 33.28 107.97 33.28C93.2 33.28 50.4 33.28 35.63 33.28C34.8 33.28 34.13 32.61 34.13 31.78C34.13 28.43 34.13 19.9 34.13 16.55C34.13 15.72 34.8 15.05 35.63 15.05C50.4 15.05 93.2 15.05 107.97 15.05Z" id="a5vJWdg0fi"></path><path d="M6.26 8.74C7.09 8.74 7.75 9.41 7.75 10.23C7.75 15.98 7.75 31.75 7.75 37.5C7.75 38.32 7.09 38.99 6.26 38.99C5.31 38.99 3.95 38.99 2.99 38.99C2.17 38.99 1.5 38.32 1.5 37.5C1.5 31.75 1.5 15.98 1.5 10.23C1.5 9.41 2.17 8.74 2.99 8.74C3.95 8.74 5.31 8.74 6.26 8.74Z" id="blfm2iLG6"></path><path d="M6.26 46.11C7.09 46.11 7.75 46.78 7.75 47.6C7.75 53.36 7.75 69.12 7.75 74.88C7.75 75.7 7.09 76.36 6.26 76.36C5.31 76.36 3.95 76.36 2.99 76.36C2.17 76.36 1.5 75.7 1.5 74.88C1.5 69.12 1.5 53.36 1.5 47.6C1.5 46.78 2.17 46.11 2.99 46.11C3.95 46.11 5.31 46.11 6.26 46.11Z" id="d1yRFUexp9"></path><path d="M179.86 16.37L181.47 16.54L183.06 16.77L184.64 17.06L186.19 17.41L187.71 17.81L189.22 18.28L190.69 18.81L192.14 19.39L193.56 20.02L194.95 20.71L196.31 21.45L197.64 22.24L198.94 23.08L200.2 23.96L201.42 24.9L202.6 25.88L203.75 26.9L204.86 27.96L205.92 29.07L206.95 30.22L207.92 31.4L208.86 32.62L209.74 33.88L210.58 35.18L211.37 36.51L212.11 37.87L212.8 39.26L213.43 40.68L214.01 42.13L214.54 43.6L215.01 45.11L215.42 46.63L215.77 48.18L216.05 49.76L216.28 51.35L216.45 52.96L216.55 54.59L216.58 56.24L216.55 57.89L216.45 59.52L216.28 61.13L216.05 62.73L215.77 64.3L215.42 65.85L215.01 67.38L214.54 68.88L214.01 70.36L213.43 71.81L212.8 73.23L212.11 74.62L211.37 75.98L210.58 77.31L209.74 78.6L208.86 79.86L207.92 81.08L206.95 82.27L205.92 83.41L204.86 84.52L203.75 85.59L202.6 86.61L201.42 87.59L200.2 88.52L198.94 89.41L197.64 90.25L196.31 91.04L194.95 91.77L193.56 92.46L192.14 93.1L190.69 93.68L189.22 94.2L187.71 94.67L186.19 95.08L184.64 95.43L183.06 95.72L181.47 95.95L179.86 96.11L178.23 96.21L176.58 96.24L174.93 96.21L173.3 96.11L171.69 95.95L170.09 95.72L168.52 95.43L166.97 95.08L165.44 94.67L163.94 94.2L162.46 93.68L161.02 93.1L159.59 92.46L158.2 91.77L156.84 91.04L155.52 90.25L154.22 89.41L152.96 88.52L151.74 87.59L150.55 86.61L149.41 85.59L148.3 84.52L147.23 83.41L146.21 82.27L145.23 81.08L144.3 79.86L143.41 78.6L142.58 77.31L141.79 75.98L141.05 74.62L140.36 73.23L139.72 71.81L139.14 70.36L138.62 68.88L138.15 67.38L137.74 65.85L137.39 64.3L137.1 62.73L136.88 61.13L136.71 59.52L136.61 57.89L136.58 56.24L136.61 54.59L136.71 52.96L136.88 51.35L137.1 49.76L137.39 48.18L137.74 46.63L138.15 45.11L138.62 43.6L139.14 42.13L139.72 40.68L140.36 39.26L141.05 37.87L141.79 36.51L142.58 35.18L143.41 33.88L144.3 32.62L145.23 31.4L146.21 30.22L147.23 29.07L148.3 27.96L149.41 26.9L150.55 25.88L151.74 24.9L152.96 23.96L154.22 23.08L155.52 22.24L156.84 21.45L158.2 20.71L159.59 20.02L161.02 19.39L162.46 18.81L163.94 18.28L165.44 17.81L166.97 17.41L168.52 17.06L170.09 16.77L171.69 16.54L173.3 16.37L174.93 16.28L176.58 16.24L178.23 16.28L179.86 16.37ZM173.92 46.6L172.69 47.03L171.53 47.61L170.47 48.33L169.51 49.17L168.66 50.13L167.94 51.2L167.37 52.35L166.94 53.58L166.67 54.89L166.58 56.24L166.67 57.6L166.94 58.9L167.37 60.13L167.94 61.29L168.66 62.35L169.51 63.31L170.47 64.16L171.53 64.88L172.69 65.46L173.92 65.88L175.22 66.15L176.58 66.24L177.93 66.15L179.24 65.88L180.47 65.46L181.62 64.88L182.69 64.16L183.65 63.31L184.49 62.35L185.21 61.29L185.79 60.13L186.22 58.9L186.49 57.6L186.58 56.24L186.49 54.89L186.22 53.58L185.79 52.35L185.21 51.2L184.49 50.13L183.65 49.17L182.69 48.33L181.62 47.61L180.47 47.03L179.24 46.6L177.93 46.33L176.58 46.24L175.22 46.33L173.92 46.6Z" id="a17yHi3iuZ"></path><path d="M182.77 8.89L184.58 9.08L186.37 9.33L188.14 9.66L189.89 10.05L191.61 10.51L193.3 11.04L194.96 11.63L196.59 12.28L198.19 12.99L199.75 13.77L201.28 14.6L202.78 15.49L204.23 16.43L205.65 17.43L207.02 18.48L208.36 19.58L209.65 20.73L210.89 21.93L212.09 23.17L213.24 24.46L214.34 25.8L215.39 27.17L216.39 28.59L217.33 30.05L218.22 31.54L219.05 33.07L219.83 34.63L220.54 36.23L221.19 37.86L221.78 39.52L222.31 41.22L222.77 42.93L223.16 44.68L223.49 46.45L223.75 48.24L223.93 50.05L224.04 51.89L224.08 53.74L224.08 53.74L204.08 53.74L204.08 53.74L204.04 52.41L203.94 51.11L203.77 49.82L203.54 48.55L203.24 47.3L202.88 46.08L202.46 44.89L201.99 43.73L201.46 42.59L200.87 41.49L200.23 40.42L199.54 39.38L198.8 38.39L198.02 37.43L197.19 36.51L196.31 35.64L195.39 34.8L194.43 34.02L193.44 33.28L192.4 32.59L191.33 31.95L190.23 31.36L189.09 30.83L187.93 30.36L186.74 29.94L185.52 29.58L184.27 29.28L183 29.05L181.71 28.88L180.41 28.78L179.08 28.74L179.08 8.74L180.93 8.78L182.77 8.89Z" id="d1uRi1D33N"></path><path d="M179.2 33.89L180.48 34.08L181.74 34.34L182.96 34.66L184.16 35.05L185.33 35.51L186.47 36.03L187.57 36.61L188.64 37.25L189.66 37.94L190.65 38.69L191.59 39.49L192.49 40.34L193.33 41.23L194.13 42.17L194.88 43.16L195.57 44.18L196.21 45.25L196.79 46.35L197.31 47.49L197.77 48.66L198.16 49.86L198.48 51.09L198.74 52.34L198.93 53.62L199.04 54.92L199.08 56.24L199.04 57.56L198.93 58.86L198.74 60.14L198.48 61.4L198.16 62.63L197.77 63.83L197.31 65L196.79 66.13L196.21 67.24L195.57 68.3L194.88 69.33L194.13 70.31L193.33 71.25L192.49 72.15L191.59 73L190.65 73.8L189.66 74.54L188.64 75.24L187.57 75.87L186.47 76.45L185.33 76.97L184.16 77.43L182.96 77.82L181.74 78.15L180.48 78.4L179.2 78.59L177.9 78.7L176.58 78.74L175.26 78.7L173.96 78.59L172.68 78.4L171.42 78.15L170.19 77.82L168.99 77.43L167.82 76.97L166.69 76.45L165.59 75.87L164.52 75.24L163.49 74.54L162.51 73.8L161.57 73L160.67 72.15L159.82 71.25L159.02 70.31L158.28 69.33L157.58 68.3L156.95 67.24L156.37 66.13L155.85 65L155.39 63.83L155 62.63L154.67 61.4L154.42 60.14L154.23 58.86L154.12 57.56L154.08 56.24L154.12 54.92L154.23 53.62L154.42 52.34L154.67 51.09L155 49.86L155.39 48.66L155.85 47.49L156.37 46.35L156.95 45.25L157.58 44.18L158.28 43.16L159.02 42.17L159.82 41.23L160.67 40.34L161.57 39.49L162.51 38.69L163.49 37.94L164.52 37.25L165.59 36.61L166.69 36.03L167.82 35.51L168.99 35.05L170.19 34.66L171.42 34.34L172.68 34.08L173.96 33.89L175.26 33.78L176.58 33.74L177.9 33.78L179.2 33.89ZM173.92 46.6L172.69 47.03L171.53 47.61L170.47 48.33L169.51 49.17L168.66 50.13L167.94 51.2L167.37 52.35L166.94 53.58L166.67 54.89L166.58 56.24L166.67 57.6L166.94 58.9L167.37 60.13L167.94 61.29L168.66 62.35L169.51 63.31L170.47 64.16L171.53 64.88L172.69 65.46L173.92 65.88L175.22 66.15L176.58 66.24L177.93 66.15L179.24 65.88L180.47 65.46L181.62 64.88L182.69 64.16L183.65 63.31L184.49 62.35L185.21 61.29L185.79 60.13L186.22 58.9L186.49 57.6L186.58 56.24L186.49 54.89L186.22 53.58L185.79 52.35L185.21 51.2L184.49 50.13L183.65 49.17L182.69 48.33L181.62 47.61L180.47 47.03L179.24 46.6L177.93 46.33L176.58 46.24L175.22 46.33L173.92 46.6Z" id="a6qaeAUh7m"></path><path d="M162.91 56.24C162.91 57.62 161.79 58.74 160.41 58.74C159.03 58.74 157.91 57.62 157.91 56.24C157.91 54.86 159.03 53.74 160.41 53.74C161.79 53.74 162.91 54.86 162.91 56.24Z" id="a3K2IANrQw"></path><path d="M195.76 56.24C195.76 57.62 194.64 58.74 193.26 58.74C191.88 58.74 190.76 57.62 190.76 56.24C190.76 54.86 191.88 53.74 193.26 53.74C194.64 53.74 195.76 54.86 195.76 56.24Z" id="ea9BAfNyYW"></path><path d="M179.08 72.03C179.08 73.41 177.96 74.53 176.58 74.53C175.2 74.53 174.08 73.41 174.08 72.03C174.08 70.65 175.2 69.53 176.58 69.53C177.96 69.53 179.08 70.65 179.08 72.03Z" id="futLNUUo"></path><path d="M179.08 39.83C179.08 41.2 177.96 42.33 176.58 42.33C175.2 42.33 174.08 41.2 174.08 39.83C174.08 38.45 175.2 37.33 176.58 37.33C177.96 37.33 179.08 38.45 179.08 39.83Z" id="e1OeAITyfE"></path><path d="M81.78 160.05L81.5 160.1L81.22 160.16L80.94 160.24L80.68 160.33L80.42 160.44L80.17 160.56L79.92 160.7L79.69 160.85L79.47 161.02L79.26 161.2L79.06 161.39L78.87 161.59L78.69 161.8L78.52 162.02L78.37 162.26L78.23 162.5L78.11 162.75L78 163.01L77.9 163.27L77.83 163.55L77.76 163.83L77.72 164.11L77.69 164.41L77.68 164.7L77.68 187.43L67.68 187.43L67.68 164.7L67.67 164.41L67.65 164.11L67.6 163.83L67.54 163.55L67.46 163.27L67.37 163.01L67.26 162.75L67.13 162.5L66.99 162.26L66.84 162.02L66.68 161.8L66.5 161.59L66.31 161.39L66.11 161.2L65.9 161.02L65.67 160.85L65.44 160.7L65.2 160.56L64.95 160.44L64.69 160.33L64.42 160.24L64.15 160.16L63.87 160.1L63.58 160.05L63.29 160.02L63 160.02L37.02 160.02L37.02 149.43L108.35 149.43L108.35 160.02L82.37 160.02L82.07 160.02L82.07 160.02L81.78 160.05ZM70.18 182.42L70.38 183.39L70.92 184.18L71.71 184.72L72.68 184.92L73.66 184.72L74.45 184.18L74.99 183.39L75.18 182.42L74.99 181.44L74.45 180.65L73.66 180.11L72.68 179.92L71.71 180.11L70.92 180.65L70.38 181.44L70.38 181.44L70.18 182.42ZM70.18 175.41L70.38 176.38L70.92 177.18L71.71 177.71L72.68 177.91L73.66 177.71L74.45 177.18L74.99 176.38L75.18 175.41L74.99 174.44L74.45 173.64L73.66 173.11L72.68 172.91L71.71 173.11L70.92 173.64L70.38 174.44L70.38 174.44L70.18 175.41ZM70.18 168.43L70.38 169.4L70.92 170.19L71.71 170.73L72.68 170.93L73.66 170.73L74.45 170.19L74.99 169.4L75.18 168.43L74.99 167.45L74.45 166.66L73.66 166.12L72.68 165.93L71.71 166.12L70.92 166.66L70.38 167.45L70.38 167.45L70.18 168.43ZM50.47 154.58L50.67 155.55L51.2 156.34L52 156.88L52.97 157.08L53.94 156.88L54.74 156.34L55.27 155.55L55.47 154.58L55.27 153.6L54.74 152.81L53.94 152.27L52.97 152.08L52 152.27L51.2 152.81L50.67 153.6L50.67 153.6L50.47 154.58ZM58.07 154.58L58.26 155.55L58.8 156.34L59.6 156.88L60.57 157.08L61.54 156.88L62.34 156.34L62.87 155.55L63.07 154.58L62.87 153.6L62.34 152.81L61.54 152.27L60.57 152.08L59.6 152.27L58.8 152.81L58.26 153.6L58.26 153.6L58.07 154.58ZM42.64 154.58L42.83 155.55L43.37 156.34L44.16 156.88L45.14 157.08L46.11 156.88L46.9 156.34L47.44 155.55L47.64 154.58L47.44 153.6L46.9 152.81L46.11 152.27L45.14 152.08L44.16 152.27L43.37 152.81L42.83 153.6L42.83 153.6L42.64 154.58ZM82.64 155.55L83.17 156.34L83.97 156.88L84.94 157.08L85.91 156.88L86.71 156.34L87.24 155.55L87.44 154.58L87.24 153.6L86.71 152.81L85.91 152.27L84.94 152.08L83.97 152.27L83.17 152.81L82.64 153.6L82.44 154.58L82.44 154.58L82.64 155.55ZM98.23 155.55L98.77 156.34L99.56 156.88L100.54 157.08L101.51 156.88L102.3 156.34L102.84 155.55L103.04 154.58L102.84 153.6L102.3 152.81L101.51 152.27L100.54 152.08L99.56 152.27L98.77 152.81L98.23 153.6L98.04 154.58L98.04 154.58L98.23 155.55ZM90.29 155.55L90.83 156.34L91.62 156.88L92.59 157.08L93.57 156.88L94.36 156.34L94.9 155.55L95.09 154.58L94.9 153.6L94.36 152.81L93.57 152.27L92.59 152.08L91.62 152.27L90.83 152.81L90.29 153.6L90.09 154.58L90.09 154.58L90.29 155.55Z" id="c2H0V7Jufs"></path><path d="M77.57 114.16L79.17 114.39L80.74 114.68L82.29 115.03L83.82 115.44L85.32 115.91L86.8 116.43L88.25 117.01L89.67 117.65L91.06 118.33L92.42 119.07L93.75 119.86L95.04 120.7L96.3 121.59L97.52 122.52L98.71 123.5L99.85 124.52L100.96 125.59L102.03 126.69L103.05 127.84L104.03 129.03L104.96 130.25L105.85 131.51L106.69 132.8L107.48 134.13L108.21 135.49L108.9 136.88L109.54 138.3L110.12 139.75L110.64 141.23L111.11 142.73L111.52 144.26L111.87 145.81L112.16 147.38L112.39 148.98L112.55 150.59L112.65 152.22L112.68 153.87L112.65 155.51L112.55 157.15L112.39 158.76L112.16 160.35L111.87 161.92L111.52 163.47L111.11 165L110.64 166.5L110.12 167.98L109.54 169.43L108.9 170.85L108.21 172.24L107.48 173.6L106.69 174.93L105.85 176.22L104.96 177.48L104.03 178.71L103.05 179.89L102.03 181.04L100.96 182.15L99.85 183.21L98.71 184.23L97.52 185.21L96.3 186.14L95.04 187.03L93.75 187.87L92.42 188.66L91.06 189.4L89.67 190.09L88.25 190.72L86.8 191.3L85.32 191.83L83.82 192.29L82.29 192.7L80.74 193.05L79.17 193.34L77.57 193.57L75.96 193.73L74.33 193.83L72.68 193.87L71.03 193.83L69.4 193.73L67.79 193.57L66.2 193.34L64.63 193.05L63.07 192.7L61.55 192.29L60.05 191.83L58.57 191.3L57.12 190.72L55.7 190.09L54.31 189.4L52.95 188.66L51.62 187.87L50.32 187.03L49.07 186.14L47.84 185.21L46.66 184.23L45.51 183.21L44.4 182.15L43.34 181.04L42.32 179.89L41.34 178.71L40.4 177.48L39.52 176.22L38.68 174.93L37.89 173.6L37.15 172.24L36.46 170.85L35.83 169.43L35.25 167.98L34.72 166.5L34.26 165L33.85 163.47L33.5 161.92L33.21 160.35L32.98 158.76L32.82 157.15L32.72 155.51L32.68 153.87L32.72 152.22L32.82 150.59L32.98 148.98L33.21 147.38L33.5 145.81L33.85 144.26L34.26 142.73L34.72 141.23L35.25 139.75L35.83 138.3L36.46 136.88L37.15 135.49L37.89 134.13L38.68 132.8L39.52 131.51L40.4 130.25L41.34 129.03L42.32 127.84L43.34 126.69L44.4 125.59L45.51 124.52L46.66 123.5L47.84 122.52L49.07 121.59L50.32 120.7L51.62 119.86L52.95 119.07L54.31 118.33L55.7 117.65L57.12 117.01L58.57 116.43L60.05 115.91L61.55 115.44L63.07 115.03L64.63 114.68L66.2 114.39L67.79 114.16L69.4 114L71.03 113.9L72.68 113.87L74.33 113.9L75.96 114L75.96 114L77.57 114.16ZM68.71 121.61L67.41 121.79L66.14 122.03L64.88 122.31L63.64 122.64L62.41 123.02L61.21 123.45L60.04 123.92L58.88 124.44L57.75 125L56.65 125.6L55.57 126.24L54.52 126.92L53.49 127.64L52.5 128.4L51.54 129.19L50.61 130.03L49.71 130.89L48.84 131.79L48.01 132.72L47.21 133.68L46.46 134.68L45.74 135.7L45.05 136.75L44.41 137.83L43.81 138.94L43.25 140.07L42.74 141.22L42.27 142.4L41.84 143.6L41.46 144.82L41.13 146.06L40.84 147.32L40.61 148.6L40.42 149.89L40.29 151.2L40.21 152.53L40.18 153.87L40.21 155.21L40.29 156.53L40.42 157.84L40.61 159.14L40.84 160.41L41.13 161.67L41.46 162.91L41.84 164.13L42.27 165.33L42.74 166.51L43.25 167.67L43.81 168.8L44.41 169.9L45.05 170.98L45.74 172.03L46.46 173.06L47.21 174.05L48.01 175.01L48.84 175.94L49.71 176.84L50.61 177.71L51.54 178.54L52.5 179.33L53.49 180.09L54.52 180.81L55.57 181.49L56.65 182.14L57.75 182.74L58.88 183.3L60.04 183.81L61.21 184.28L62.41 184.71L63.64 185.09L64.88 185.42L66.14 185.71L67.41 185.94L68.71 186.13L70.02 186.26L71.34 186.34L72.68 186.37L74.02 186.34L75.35 186.26L76.66 186.13L77.95 185.94L79.23 185.71L80.49 185.42L81.73 185.09L82.95 184.71L84.15 184.28L85.33 183.81L86.48 183.3L87.61 182.74L88.72 182.14L89.8 181.49L90.85 180.81L91.87 180.09L92.87 179.33L93.83 178.54L94.76 177.71L95.66 176.84L96.52 175.94L97.36 175.01L98.15 174.05L98.91 173.06L99.63 172.03L100.31 170.98L100.95 169.9L101.55 168.8L102.11 167.67L102.63 166.51L103.1 165.33L103.52 164.13L103.9 162.91L104.24 161.67L104.52 160.41L104.76 159.14L104.94 157.84L105.07 156.53L105.16 155.21L105.18 153.87L105.16 152.53L105.07 151.2L104.94 149.89L104.76 148.6L104.52 147.32L104.24 146.06L103.9 144.82L103.52 143.6L103.1 142.4L102.63 141.22L102.11 140.07L101.55 138.94L100.95 137.83L100.31 136.75L99.63 135.7L98.91 134.68L98.15 133.68L97.36 132.72L96.52 131.79L95.66 130.89L94.76 130.03L93.83 129.19L92.87 128.4L91.87 127.64L90.85 126.92L89.8 126.24L88.72 125.6L87.61 125L86.48 124.44L85.33 123.92L84.15 123.45L82.95 123.02L81.73 122.64L80.49 122.31L79.23 122.03L77.95 121.79L76.66 121.61L75.35 121.47L74.02 121.39L72.68 121.37L71.34 121.39L70.02 121.47L70.02 121.47L68.71 121.61Z" id="f8aCgmx3OM"></path><path d="M80.68 156.5C80.68 160.92 77.1 164.5 72.68 164.5C68.27 164.5 64.68 160.92 64.68 156.5C64.68 152.09 68.27 148.5 72.68 148.5C77.1 148.5 80.68 152.09 80.68 156.5Z" id="aOyS4f8vc"></path><path d="M77.68 156.5C77.68 159.26 75.44 161.5 72.68 161.5C69.92 161.5 67.68 159.26 67.68 156.5C67.68 153.75 69.92 151.5 72.68 151.5C75.44 151.5 77.68 153.75 77.68 156.5Z" id="a7kfDkOpiB"></path><path d="M39.55 68.72L39.68 68.25L39.86 67.79L40.08 67.36L40.35 66.96L40.65 66.59L40.99 66.25L41.36 65.95L41.77 65.68L42.2 65.46L42.65 65.28L43.13 65.15L43.62 65.07L44.13 65.04L47.69 65.04L48.21 65.07L48.7 65.15L49.18 65.28L49.63 65.46L50.06 65.68L50.46 65.95L50.84 66.25L51.17 66.59L51.48 66.96L51.74 67.36L51.96 67.79L52.14 68.25L52.27 68.72L52.35 69.22L52.38 69.73L52.38 83.79L105.76 83.79L105.88 83.8L106 83.81L106.11 83.82L106.23 83.84L106.34 83.87L106.45 83.9L106.56 83.94L106.67 83.98L106.77 84.03L106.87 84.08L106.97 84.13L107.07 84.19L107.16 84.26L107.25 84.33L107.33 84.4L107.42 84.48L107.49 84.56L107.57 84.65L107.64 84.74L107.7 84.83L107.76 84.92L107.82 85.02L107.87 85.12L107.92 85.23L107.96 85.33L108 85.44L108.03 85.55L108.05 85.67L108.07 85.78L108.09 85.9L108.1 86.02L108.1 86.14L108.1 95.45L108.1 95.57L108.09 95.69L108.07 95.81L108.05 95.92L108.03 96.04L108 96.15L107.96 96.26L107.92 96.36L107.87 96.47L107.82 96.57L107.76 96.67L107.7 96.76L107.64 96.85L107.57 96.94L107.49 97.03L107.42 97.11L107.33 97.19L107.25 97.26L107.16 97.33L107.07 97.39L106.97 97.46L106.87 97.51L106.77 97.56L106.67 97.61L106.56 97.65L106.45 97.69L106.34 97.72L106.23 97.75L106.11 97.77L106 97.78L105.88 97.79L105.76 97.79L41.79 97.79L41.67 97.79L41.55 97.78L41.43 97.77L41.32 97.75L41.2 97.72L41.09 97.69L40.98 97.65L40.88 97.61L40.77 97.56L40.67 97.51L40.57 97.46L40.48 97.39L40.39 97.33L40.3 97.26L40.21 97.19L40.13 97.11L40.05 97.03L39.98 96.94L39.91 96.85L39.85 96.76L39.78 96.67L39.73 96.57L39.68 96.47L39.63 96.36L39.59 96.26L39.55 96.15L39.52 96.04L39.49 95.92L39.47 95.81L39.46 95.69L39.45 95.57L39.44 95.45L39.44 69.73L39.47 69.22L39.55 68.72Z" id="b3cyzMTxe"></path><path d="M56.04 68.72L56.17 68.25L56.35 67.79L56.57 67.36L56.84 66.96L57.14 66.59L57.48 66.25L57.85 65.95L58.25 65.68L58.68 65.46L59.14 65.28L59.61 65.15L60.11 65.07L60.62 65.04L64.18 65.04L64.69 65.07L65.19 65.15L65.66 65.28L66.12 65.46L66.55 65.68L66.95 65.95L67.32 66.25L67.66 66.59L67.97 66.96L68.23 67.36L68.45 67.79L68.63 68.25L68.76 68.72L68.84 69.22L68.87 69.73L68.87 83.79L122.25 83.79L122.37 83.8L122.48 83.81L122.6 83.82L122.72 83.84L122.83 83.87L122.94 83.9L123.05 83.94L123.16 83.98L123.26 84.03L123.36 84.08L123.46 84.13L123.56 84.19L123.65 84.26L123.74 84.33L123.82 84.4L123.9 84.48L123.98 84.56L124.05 84.65L124.12 84.74L124.19 84.83L124.25 84.92L124.31 85.02L124.36 85.12L124.4 85.23L124.45 85.33L124.48 85.44L124.52 85.55L124.54 85.67L124.56 85.78L124.58 85.9L124.59 86.02L124.59 86.14L124.59 95.45L124.59 95.57L124.58 95.69L124.56 95.81L124.54 95.92L124.52 96.04L124.48 96.15L124.45 96.26L124.4 96.36L124.36 96.47L124.31 96.57L124.25 96.67L124.19 96.76L124.12 96.85L124.05 96.94L123.98 97.03L123.9 97.11L123.82 97.19L123.74 97.26L123.65 97.33L123.56 97.39L123.46 97.46L123.36 97.51L123.26 97.56L123.16 97.61L123.05 97.65L122.94 97.69L122.83 97.72L122.72 97.75L122.6 97.77L122.48 97.78L122.37 97.79L122.25 97.79L58.28 97.79L58.16 97.79L58.04 97.78L57.92 97.77L57.8 97.75L57.69 97.72L57.58 97.69L57.47 97.65L57.36 97.61L57.26 97.56L57.16 97.51L57.06 97.46L56.97 97.39L56.87 97.33L56.79 97.26L56.7 97.19L56.62 97.11L56.54 97.03L56.47 96.94L56.4 96.85L56.33 96.76L56.27 96.67L56.22 96.57L56.16 96.47L56.12 96.36L56.07 96.26L56.04 96.15L56.01 96.04L55.98 95.92L55.96 95.81L55.94 95.69L55.94 95.57L55.93 95.45L55.93 69.73L55.96 69.22L56.04 68.72Z" id="jNKsXyGe5"></path><path d="M82.26 65.28L82.72 65.46L83.15 65.68L83.55 65.95L83.92 66.25L84.26 66.59L84.57 66.96L84.83 67.36L85.05 67.79L85.23 68.25L85.36 68.72L85.44 69.22L85.47 69.73L85.47 83.79L125.22 83.79L125.22 97.79L74.88 97.79L74.76 97.79L74.64 97.78L74.52 97.77L74.4 97.75L74.29 97.72L74.18 97.69L74.07 97.65L73.96 97.61L73.86 97.56L73.76 97.51L73.66 97.46L73.57 97.39L73.47 97.33L73.39 97.26L73.3 97.19L73.22 97.11L73.14 97.03L73.07 96.94L73 96.85L72.93 96.76L72.87 96.67L72.82 96.57L72.76 96.47L72.72 96.36L72.67 96.26L72.64 96.15L72.61 96.04L72.58 95.92L72.56 95.81L72.54 95.69L72.54 95.57L72.53 95.45L72.53 69.73L72.56 69.22L72.64 68.72L72.77 68.25L72.95 67.79L73.17 67.36L73.44 66.96L73.74 66.59L74.08 66.25L74.45 65.95L74.85 65.68L75.28 65.46L75.74 65.28L76.21 65.15L76.71 65.07L77.22 65.04L80.78 65.04L81.29 65.07L81.79 65.15L81.79 65.15L82.26 65.28Z" id="g39Iigh6be"></path><path d="M120.72 47.27C121.88 47.27 122.82 48.21 122.82 49.37C122.82 59.03 122.82 85.91 122.82 95.57C122.82 96.73 121.88 97.67 120.72 97.67C120.3 97.67 121.14 97.67 120.72 97.67C119.56 97.67 118.62 96.73 118.62 95.57C118.62 85.91 118.62 59.03 118.62 49.37C118.62 48.21 119.56 47.27 120.72 47.27C121.14 47.27 120.3 47.27 120.72 47.27Z" id="d1N2ppz8sO"></path><path d="M98.21 65.28L98.66 65.46L99.09 65.68L99.49 65.95L99.87 66.25L100.21 66.59L100.51 66.96L100.77 67.36L101 67.79L101.17 68.25L101.31 68.72L101.39 69.22L101.41 69.73L101.41 83.79L125.22 83.79L125.22 97.79L90.82 97.79L90.7 97.79L90.58 97.78L90.46 97.77L90.35 97.75L90.23 97.72L90.12 97.69L90.01 97.65L89.91 97.61L89.8 97.56L89.7 97.51L89.6 97.46L89.51 97.39L89.42 97.33L89.33 97.26L89.24 97.19L89.16 97.11L89.09 97.03L89.01 96.94L88.94 96.85L88.88 96.76L88.82 96.67L88.76 96.57L88.71 96.47L88.66 96.36L88.62 96.26L88.58 96.15L88.55 96.04L88.52 95.92L88.5 95.81L88.49 95.69L88.48 95.57L88.48 95.45L88.48 69.73L88.5 69.22L88.58 68.72L88.72 68.25L88.89 67.79L89.12 67.36L89.38 66.96L89.68 66.59L90.02 66.25L90.4 65.95L90.8 65.68L91.23 65.46L91.68 65.28L92.16 65.15L92.65 65.07L93.16 65.04L96.73 65.04L97.24 65.07L97.73 65.15L97.73 65.15L98.21 65.28Z" id="j4t4vunRuX"></path><path d="M186.07 120.84C188.66 120.84 190.76 122.94 190.76 125.53C190.76 129.75 190.76 137.71 190.76 141.93C190.76 144.52 188.66 146.62 186.07 146.62C173.77 146.62 141.57 146.62 129.28 146.62C126.69 146.62 124.59 144.52 124.59 141.93C124.59 137.71 124.59 129.75 124.59 125.53C124.59 122.94 126.69 120.84 129.28 120.84C141.57 120.84 173.77 120.84 186.07 120.84Z" id="a1pEjGruxW"></path><path d="M144.89 133.73C144.89 138.15 141.31 141.73 136.89 141.73C132.48 141.73 128.89 138.15 128.89 133.73C128.89 129.31 132.48 125.73 136.89 125.73C141.31 125.73 144.89 129.31 144.89 133.73Z" id="a7kLCLCiMM"></path><path d="M182.67 125.82L182.96 125.88L183.25 125.97L183.52 126.07L183.79 126.19L184.05 126.32L184.29 126.47L184.53 126.63L184.76 126.81L184.97 127L185.18 127.21L185.37 127.42L185.55 127.65L185.71 127.89L185.86 128.14L185.99 128.39L186.11 128.66L186.21 128.94L186.3 129.22L186.36 129.51L186.41 129.81L186.44 130.11L186.45 130.42L186.45 137.04L186.44 137.35L186.41 137.65L186.36 137.95L186.3 138.24L186.21 138.52L186.11 138.8L185.99 139.07L185.86 139.32L185.71 139.57L185.55 139.81L185.37 140.04L185.18 140.25L184.97 140.46L184.76 140.65L184.53 140.83L184.29 140.99L184.05 141.14L183.79 141.27L183.52 141.39L183.25 141.49L182.96 141.58L182.67 141.64L182.37 141.69L182.07 141.72L181.76 141.73L143.14 141.73L143.14 140.79L144.12 140.19L145.05 139.39L145.85 138.45L146.5 137.41L146.99 136.26L147.29 135.03L147.39 133.73L147.29 132.43L146.99 131.2L146.5 130.05L145.85 129.01L145.05 128.07L144.12 127.27L143.14 126.67L143.14 125.73L181.76 125.73L182.07 125.74L182.37 125.77L182.37 125.77L182.67 125.82Z" id="b2g0FKrJde"></path><path d="M142.39 133.73C142.39 136.77 139.93 139.23 136.89 139.23C133.86 139.23 131.39 136.77 131.39 133.73C131.39 130.69 133.86 128.23 136.89 128.23C139.93 128.23 142.39 130.69 142.39 133.73Z" id="c1miIuzAtC"></path><path d="M152.24 130.23L154.49 130.23L154.49 137.23L152.24 137.23L152.24 130.23Z" id="b4ZB89tQfo"></path><path d="M155.73 132.23L157.98 132.23L157.98 137.23L155.73 137.23L155.73 132.23Z" id="a3d8p7EFRd"></path><path d="M159.22 134.37L161.47 134.37L161.47 137.23L159.22 137.23L159.22 134.37Z" id="bpnuPtqAf"></path><path d="M162.55 132.23L164.8 132.23L164.8 137.23L162.55 137.23L162.55 132.23Z" id="b1yJnO9GDx"></path><path d="M166.05 130.23L168.3 130.23L168.3 137.23L166.05 137.23L166.05 130.23Z" id="i96KXnC3Q"></path><path d="M169.53 130.23L171.78 130.23L171.78 137.23L169.53 137.23L169.53 130.23Z" id="a1HE9Kp6HZ"></path><path d="M183.17 133.73C183.17 134.56 182.49 135.23 181.67 135.23C180.84 135.23 180.17 134.56 180.17 133.73C180.17 132.9 180.84 132.23 181.67 132.23C182.49 132.23 183.17 132.9 183.17 133.73Z" id="b52gG2F4A3"></path><path d="M183.17 129.23C183.17 130.06 182.49 130.73 181.67 130.73C180.84 130.73 180.17 130.06 180.17 129.23C180.17 128.4 180.84 127.73 181.67 127.73C182.49 127.73 183.17 128.4 183.17 129.23Z" id="b2q53lNuzc"></path><path d="M182.37 125.77L182.67 125.82L182.96 125.88L183.25 125.97L183.52 126.07L183.79 126.19L184.05 126.32L184.29 126.47L184.53 126.63L184.76 126.81L184.97 127L185.18 127.21L185.37 127.42L185.55 127.65L185.71 127.89L185.86 128.14L185.99 128.39L186.11 128.66L186.21 128.94L186.3 129.22L186.36 129.51L186.41 129.81L186.44 130.11L186.45 130.42L186.45 137.04L186.44 137.35L186.41 137.65L186.36 137.95L186.3 138.24L186.21 138.52L186.11 138.8L185.99 139.07L185.86 139.32L185.71 139.57L185.55 139.81L185.37 140.04L185.18 140.25L184.97 140.46L184.76 140.65L184.53 140.83L184.29 140.99L184.05 141.14L183.79 141.27L183.52 141.39L183.25 141.49L182.96 141.58L182.67 141.64L182.37 141.69L182.07 141.72L181.76 141.73L163.39 141.73L178.86 125.73L181.76 125.73L182.07 125.74L182.37 125.77Z" id="d5cn1zmCNF"></path></defs><g><g><g><g><filter id="shadow4606948" x="109.75" y="61.91" width="24" height="21.12" filterUnits="userSpaceOnUse" primitiveUnits="userSpaceOnUse"><feFlood></feFlood><feComposite in2="SourceAlpha" operator="in"></feComposite><feGaussianBlur stdDeviation="1"></feGaussianBlur><feOffset dx="0" dy="0" result="afterOffset"></feOffset><feFlood flood-color="#000000" flood-opacity="0.5"></feFlood><feComposite in2="afterOffset" operator="in"></feComposite><feMorphology operator="dilate" radius="0"></feMorphology><feComposite in2="SourceAlpha" operator="out"></feComposite></filter><path d="M125.75 68.91L126.07 68.96L126.34 69.1L126.56 69.32L126.7 69.59L126.75 69.91L126.75 75.03L126.7 75.35L126.56 75.62L126.34 75.84L126.07 75.98L125.75 76.03L116.75 76.03L116.75 68.91L125.75 68.91Z" id="e4IA0H45Y" fill="white" fill-opacity="1" filter="url(#shadow4606948)"></path></g><use xlink:href="#d2zXQGSCxg" opacity="1" fill="#858585" fill-opacity="1"></use></g><g><g><filter id="shadow5434390" x="31.56" y="76.97" width="79.1" height="37.52" filterUnits="userSpaceOnUse" primitiveUnits="userSpaceOnUse"><feFlood></feFlood><feComposite in2="SourceAlpha" operator="in"></feComposite><feGaussianBlur stdDeviation="1"></feGaussianBlur><feOffset dx="0" dy="0" result="afterOffset"></feOffset><feFlood flood-color="#000000" flood-opacity="0.5"></feFlood><feComposite in2="afterOffset" operator="in"></feComposite><feMorphology operator="dilate" radius="0"></feMorphology><feComposite in2="SourceAlpha" operator="out"></feComposite></filter><path d="M103.63 93.03L103.65 93.35L103.66 93.66L103.66 93.97L103.64 94.28L103.6 94.58L103.55 94.89L103.49 95.18L103.42 95.48L103.33 95.76L103.23 96.05L103.12 96.32L103 96.6L102.87 96.86L102.72 97.12L102.56 97.37L102.39 97.62L102.22 97.86L102.03 98.09L101.83 98.31L101.62 98.52L101.4 98.73L101.18 98.92L100.94 99.11L100.7 99.28L100.44 99.44L100.18 99.6L99.92 99.74L99.64 99.87L99.36 99.99L99.07 100.09L98.77 100.18L98.47 100.26L98.16 100.33L97.84 100.38L48.67 107.42L48.36 107.45L48.04 107.48L47.73 107.49L47.42 107.48L47.11 107.46L46.8 107.43L46.5 107.38L46.21 107.32L45.91 107.24L45.63 107.16L45.34 107.06L45.06 106.95L44.79 106.82L44.53 106.69L44.27 106.54L44.01 106.39L43.77 106.22L43.53 106.04L43.3 105.85L43.08 105.65L42.87 105.44L42.66 105.23L42.47 105L42.28 104.76L42.11 104.52L41.95 104.27L41.79 104.01L41.65 103.74L41.52 103.46L41.4 103.18L41.3 102.89L41.2 102.6L41.12 102.29L41.06 101.98L41.01 101.67L38.63 85.03L38.59 84.72L38.57 84.4L38.56 84.09L38.56 83.97L102.34 83.97L103.59 92.72L103.63 93.03Z" id="bdGYbIBkn" fill="white" fill-opacity="1" filter="url(#shadow5434390)"></path></g><use xlink:href="#ge3r5jY9D" opacity="1" fill="#8e8e8e" fill-opacity="1"></use></g><g><g><filter id="shadow4326350" x="-2.37" y="31.99" width="36.17" height="21.12" filterUnits="userSpaceOnUse" primitiveUnits="userSpaceOnUse"><feFlood></feFlood><feComposite in2="SourceAlpha" operator="in"></feComposite><feGaussianBlur stdDeviation="1"></feGaussianBlur><feOffset dx="0" dy="0" result="afterOffset"></feOffset><feFlood flood-color="#000000" flood-opacity="0.5"></feFlood><feComposite in2="afterOffset" operator="in"></feComposite><feMorphology operator="dilate" radius="0"></feMorphology><feComposite in2="SourceAlpha" operator="out"></feComposite></filter><path d="M6.07 45.98L5.73 45.81L5.42 45.59L5.15 45.33L4.93 45.02L4.77 44.67L4.66 44.3L4.63 43.9L4.63 41.21L4.66 40.81L4.77 40.44L4.93 40.09L5.15 39.78L5.42 39.51L5.73 39.29L6.07 39.13L6.45 39.03L6.85 38.99L26.8 38.99L26.8 46.11L6.85 46.11L6.45 46.08L6.07 45.98Z" id="fgWNPfFw9" fill="white" fill-opacity="1" filter="url(#shadow4326350)"></path></g><use xlink:href="#fVpfWEOK8" opacity="1" fill="#858585" fill-opacity="1"></use></g><g><g><filter id="shadow15865647" x="4.13" y="60.4" width="29.67" height="21.12" filterUnits="userSpaceOnUse" primitiveUnits="userSpaceOnUse"><feFlood></feFlood><feComposite in2="SourceAlpha" operator="in"></feComposite><feGaussianBlur stdDeviation="1"></feGaussianBlur><feOffset dx="0" dy="0" result="afterOffset"></feOffset><feFlood flood-color="#000000" flood-opacity="0.5"></feFlood><feComposite in2="afterOffset" operator="in"></feComposite><feMorphology operator="dilate" radius="0"></feMorphology><feComposite in2="SourceAlpha" operator="out"></feComposite></filter><path d="M12.01 74.37L11.72 74.18L11.47 73.94L11.29 73.65L11.17 73.32L11.13 72.96L11.13 68.97L11.17 68.61L11.29 68.28L11.47 67.99L11.72 67.75L12.01 67.56L12.34 67.45L12.7 67.4L26.8 67.4L26.8 74.53L12.7 74.53L12.34 74.49L12.01 74.37Z" id="b30utjsyF" fill="white" fill-opacity="1" filter="url(#shadow15865647)"></path></g><use xlink:href="#buZISzzG4" opacity="1" fill="#858585" fill-opacity="1"></use></g><g><g><filter id="shadow15267802" x="23.92" y="17.15" width="95.77" height="25.17" filterUnits="userSpaceOnUse" primitiveUnits="userSpaceOnUse"><feFlood></feFlood><feComposite in2="SourceAlpha" operator="in"></feComposite><feGaussianBlur stdDeviation="1"></feGaussianBlur><feOffset dx="0" dy="0" result="afterOffset"></feOffset><feFlood flood-color="#000000" flood-opacity="0.5"></feFlood><feComposite in2="afterOffset" operator="in"></feComposite><feMorphology operator="dilate" radius="0"></feMorphology><feComposite in2="SourceAlpha" operator="out"></feComposite></filter><path d="M110.53 24.16L110.63 24.17L110.72 24.18L110.81 24.2L110.9 24.22L110.99 24.25L111.08 24.27L111.17 24.3L111.25 24.34L111.33 24.38L111.42 24.42L111.5 24.46L111.57 24.51L111.65 24.55L111.72 24.61L111.79 24.66L111.86 24.72L111.93 24.78L112 24.84L112.06 24.91L112.12 24.97L112.18 25.04L112.23 25.11L112.28 25.19L112.33 25.26L112.38 25.34L112.42 25.42L112.46 25.5L112.5 25.59L112.53 25.67L112.56 25.76L112.59 25.85L112.61 25.93L112.63 26.03L112.65 26.12L112.67 26.21L112.67 26.31L112.68 26.4L112.68 26.5L112.68 35.32L30.92 35.32L30.92 26.5L30.92 26.4L30.92 26.31L30.93 26.21L30.95 26.12L30.96 26.03L30.98 25.93L31.01 25.85L31.03 25.76L31.07 25.67L31.1 25.59L31.14 25.5L31.18 25.42L31.22 25.34L31.27 25.26L31.32 25.19L31.37 25.11L31.42 25.04L31.48 24.97L31.54 24.91L31.6 24.84L31.67 24.78L31.73 24.72L31.8 24.66L31.87 24.61L31.95 24.55L32.02 24.51L32.1 24.46L32.18 24.42L32.26 24.38L32.35 24.34L32.43 24.3L32.52 24.27L32.61 24.25L32.7 24.22L32.79 24.2L32.88 24.18L32.97 24.17L33.07 24.16L33.16 24.16L33.26 24.15L110.34 24.15L110.44 24.16L110.53 24.16Z" id="cOdrx6mcA" fill="white" fill-opacity="1" filter="url(#shadow15267802)"></path></g><use xlink:href="#aQQUsYUsf" opacity="1" fill="#d46b6b" fill-opacity="1"></use></g><g><g><filter id="shadow12616111" x="19.8" y="53.97" width="104" height="36.99" filterUnits="userSpaceOnUse" primitiveUnits="userSpaceOnUse"><feFlood></feFlood><feComposite in2="SourceAlpha" operator="in"></feComposite><feGaussianBlur stdDeviation="1"></feGaussianBlur><feOffset dx="0" dy="0" result="afterOffset"></feOffset><feFlood flood-color="#000000" flood-opacity="0.5"></feFlood><feComposite in2="afterOffset" operator="in"></feComposite><feMorphology operator="dilate" radius="0"></feMorphology><feComposite in2="SourceAlpha" operator="out"></feComposite></filter><path d="M116.8 82.14L116.79 82.22L116.79 82.29L116.78 82.37L116.76 82.44L116.74 82.52L116.73 82.59L116.7 82.66L116.68 82.73L116.65 82.8L116.62 82.87L116.59 82.94L116.55 83L116.51 83.06L116.47 83.13L116.43 83.19L116.39 83.24L116.34 83.3L116.29 83.35L116.24 83.41L116.19 83.46L116.13 83.51L116.08 83.55L116.02 83.6L115.96 83.64L115.9 83.68L115.84 83.72L115.77 83.75L115.7 83.79L115.64 83.82L115.57 83.84L115.5 83.87L115.43 83.89L115.35 83.91L115.28 83.93L115.2 83.94L115.13 83.95L115.05 83.96L114.97 83.96L114.9 83.97L28.7 83.97L28.62 83.96L28.55 83.96L28.47 83.95L28.39 83.94L28.32 83.93L28.24 83.91L28.17 83.89L28.1 83.87L28.03 83.84L27.96 83.82L27.89 83.79L27.83 83.75L27.76 83.72L27.7 83.68L27.64 83.64L27.58 83.6L27.52 83.55L27.46 83.51L27.41 83.46L27.36 83.41L27.3 83.35L27.26 83.3L27.21 83.24L27.17 83.19L27.12 83.13L27.08 83.06L27.05 83L27.01 82.94L26.98 82.87L26.95 82.8L26.92 82.73L26.89 82.66L26.87 82.59L26.85 82.52L26.84 82.44L26.82 82.37L26.81 82.29L26.8 82.22L26.8 82.14L26.8 82.06L26.8 60.97L116.8 60.97L116.8 82.06L116.8 82.14Z" id="eezLAxwa4" fill="white" fill-opacity="1" filter="url(#shadow12616111)"></path></g><use xlink:href="#adu6KauRl" opacity="1" fill="#b0b0b0" fill-opacity="1"></use></g><g><g><filter id="shadow11520546" x="19.8" y="28.32" width="104" height="39.65" filterUnits="userSpaceOnUse" primitiveUnits="userSpaceOnUse"><feFlood></feFlood><feComposite in2="SourceAlpha" operator="in"></feComposite><feGaussianBlur stdDeviation="1"></feGaussianBlur><feOffset dx="0" dy="0" result="afterOffset"></feOffset><feFlood flood-color="#000000" flood-opacity="0.5"></feFlood><feComposite in2="afterOffset" operator="in"></feComposite><feMorphology operator="dilate" radius="0"></feMorphology><feComposite in2="SourceAlpha" operator="out"></feComposite></filter><path d="M114.85 35.33L114.93 35.34L115.02 35.35L115.1 35.36L115.18 35.38L115.26 35.4L115.34 35.43L115.42 35.46L115.5 35.49L115.58 35.52L115.65 35.56L115.72 35.6L115.79 35.64L115.86 35.68L115.93 35.73L115.99 35.78L116.06 35.83L116.12 35.89L116.18 35.94L116.23 36L116.29 36.06L116.34 36.13L116.39 36.19L116.44 36.26L116.48 36.33L116.52 36.4L116.56 36.47L116.6 36.55L116.63 36.62L116.66 36.7L116.69 36.78L116.72 36.86L116.74 36.94L116.76 37.02L116.77 37.1L116.78 37.19L116.79 37.28L116.8 37.36L116.8 37.45L116.8 60.97L26.8 60.97L26.8 37.45L26.8 37.36L26.8 37.28L26.81 37.19L26.83 37.1L26.84 37.02L26.86 36.94L26.88 36.86L26.91 36.78L26.93 36.7L26.97 36.62L27 36.55L27.04 36.47L27.07 36.4L27.12 36.33L27.16 36.26L27.21 36.19L27.26 36.13L27.31 36.06L27.36 36L27.42 35.94L27.48 35.89L27.54 35.83L27.6 35.78L27.67 35.73L27.74 35.68L27.81 35.64L27.88 35.6L27.95 35.56L28.02 35.52L28.1 35.49L28.18 35.46L28.25 35.43L28.33 35.4L28.42 35.38L28.5 35.36L28.58 35.35L28.67 35.34L28.75 35.33L28.84 35.32L28.93 35.32L114.67 35.32L114.76 35.32L114.85 35.33Z" id="b4gJBdrlEQ" fill="white" fill-opacity="1" filter="url(#shadow11520546)"></path></g><use xlink:href="#ce9lVJpPD" opacity="1" fill="#8e8e8e" fill-opacity="1"></use></g><g><g><filter id="shadow14142955" x="7.21" y="48.84" width="24" height="44.25" filterUnits="userSpaceOnUse" primitiveUnits="userSpaceOnUse"><feFlood></feFlood><feComposite in2="SourceAlpha" operator="in"></feComposite><feGaussianBlur stdDeviation="1"></feGaussianBlur><feOffset dx="0" dy="0" result="afterOffset"></feOffset><feFlood flood-color="#000000" flood-opacity="0.5"></feFlood><feComposite in2="afterOffset" operator="in"></feComposite><feMorphology operator="dilate" radius="0"></feMorphology><feComposite in2="SourceAlpha" operator="out"></feComposite></filter><path d="M22.65 55.84C23.51 55.84 24.21 56.54 24.21 57.4C24.21 63.14 24.21 78.79 24.21 84.53C24.21 85.39 23.51 86.09 22.65 86.09C20.96 86.09 17.46 86.09 15.78 86.09C14.91 86.09 14.21 85.39 14.21 84.53C14.21 78.79 14.21 63.14 14.21 57.4C14.21 56.54 14.91 55.84 15.78 55.84C17.46 55.84 20.96 55.84 22.65 55.84Z" id="b6O141Qq" fill="white" fill-opacity="1" filter="url(#shadow14142955)"></path></g><use xlink:href="#a6stbKTd1" opacity="1" fill="#989898" fill-opacity="1"></use></g><g><g><filter id="shadow3529406" x="7.21" y="27.62" width="24" height="29.88" filterUnits="userSpaceOnUse" primitiveUnits="userSpaceOnUse"><feFlood></feFlood><feComposite in2="SourceAlpha" operator="in"></feComposite><feGaussianBlur stdDeviation="1"></feGaussianBlur><feOffset dx="0" dy="0" result="afterOffset"></feOffset><feFlood flood-color="#000000" flood-opacity="0.5"></feFlood><feComposite in2="afterOffset" operator="in"></feComposite><feMorphology operator="dilate" radius="0"></feMorphology><feComposite in2="SourceAlpha" operator="out"></feComposite></filter><path d="M23.39 34.62C23.85 34.62 24.21 34.98 24.21 35.44C24.21 38.45 24.21 46.66 24.21 49.67C24.21 50.12 23.85 50.49 23.39 50.49C21.56 50.49 16.87 50.49 15.03 50.49C14.58 50.49 14.21 50.12 14.21 49.67C14.21 46.66 14.21 38.45 14.21 35.44C14.21 34.98 14.58 34.62 15.03 34.62C16.87 34.62 21.56 34.62 23.39 34.62Z" id="b4Cz0t99oV" fill="white" fill-opacity="1" filter="url(#shadow3529406)"></path></g><use xlink:href="#a3lkzJ4pdt" opacity="1" fill="#989898" fill-opacity="1"></use></g><g><g><filter id="shadow2494995" x="9.09" y="26.28" width="20.25" height="68" filterUnits="userSpaceOnUse" primitiveUnits="userSpaceOnUse"><feFlood></feFlood><feComposite in2="SourceAlpha" operator="in"></feComposite><feGaussianBlur stdDeviation="1"></feGaussianBlur><feOffset dx="0" dy="0" result="afterOffset"></feOffset><feFlood flood-color="#000000" flood-opacity="0.5"></feFlood><feComposite in2="afterOffset" operator="in"></feComposite><feMorphology operator="dilate" radius="0"></feMorphology><feComposite in2="SourceAlpha" operator="out"></feComposite></filter><path d="M20.83 33.28C21.66 33.28 22.34 33.95 22.34 34.78C22.34 45.28 22.34 75.27 22.34 85.77C22.34 86.6 21.66 87.28 20.83 87.28C19.88 87.28 18.54 87.28 17.59 87.28C16.76 87.28 16.09 86.6 16.09 85.77C16.09 75.27 16.09 45.28 16.09 34.78C16.09 33.95 16.76 33.28 17.59 33.28C18.54 33.28 19.88 33.28 20.83 33.28Z" id="b2QUr8GT3R" fill="white" fill-opacity="1" filter="url(#shadow2494995)"></path></g><use xlink:href="#a4kujrL8FP" opacity="1" fill="#464646" fill-opacity="1"></use></g><g><g><filter id="shadow2052573" x="40.07" y="-5.74" width="63.46" height="27.79" filterUnits="userSpaceOnUse" primitiveUnits="userSpaceOnUse"><feFlood></feFlood><feComposite in2="SourceAlpha" operator="in"></feComposite><feGaussianBlur stdDeviation="1"></feGaussianBlur><feOffset dx="0" dy="0" result="afterOffset"></feOffset><feFlood flood-color="#000000" flood-opacity="0.5"></feFlood><feComposite in2="afterOffset" operator="in"></feComposite><feMorphology operator="dilate" radius="0"></feMorphology><feComposite in2="SourceAlpha" operator="out"></feComposite></filter><path d="M63.18 1.32L65.04 1.39L66.87 1.48L68.67 1.61L70.43 1.76L72.14 1.93L73.82 2.13L75.45 2.35L77.03 2.59L78.56 2.86L80.03 3.14L81.45 3.45L82.81 3.77L84.11 4.12L85.35 4.48L86.51 4.86L87.61 5.25L88.64 5.66L89.59 6.09L90.46 6.53L91.25 6.98L91.96 7.45L92.58 7.93L93.12 8.42L93.56 8.92L93.89 9.4L93.92 9.43L94.62 10.37L95.26 11.48L95.82 12.74L96.3 14.14L96.53 15.05L47.07 15.05L47.07 1.88L48.31 1.76L50.07 1.61L51.86 1.48L53.69 1.39L55.56 1.32L57.45 1.27L59.37 1.26L61.29 1.27L63.18 1.32Z" id="a2AsKmN7f" fill="white" fill-opacity="1" filter="url(#shadow2052573)"></path></g><use xlink:href="#am1vG4Bxm" opacity="1" fill="#8f8888" fill-opacity="1"></use></g><g><g><filter id="shadow8570221" x="27.13" y="8.05" width="89.33" height="32.23" filterUnits="userSpaceOnUse" primitiveUnits="userSpaceOnUse"><feFlood></feFlood><feComposite in2="SourceAlpha" operator="in"></feComposite><feGaussianBlur stdDeviation="1"></feGaussianBlur><feOffset dx="0" dy="0" result="afterOffset"></feOffset><feFlood flood-color="#000000" flood-opacity="0.5"></feFlood><feComposite in2="afterOffset" operator="in"></feComposite><feMorphology operator="dilate" radius="0"></feMorphology><feComposite in2="SourceAlpha" operator="out"></feComposite></filter><path d="M107.97 15.05C108.79 15.05 109.47 15.72 109.47 16.55C109.47 19.9 109.47 28.43 109.47 31.78C109.47 32.61 108.79 33.28 107.97 33.28C93.2 33.28 50.4 33.28 35.63 33.28C34.8 33.28 34.13 32.61 34.13 31.78C34.13 28.43 34.13 19.9 34.13 16.55C34.13 15.72 34.8 15.05 35.63 15.05C50.4 15.05 93.2 15.05 107.97 15.05Z" id="l1NyyATKBm" fill="white" fill-opacity="1" filter="url(#shadow8570221)"></path></g><use xlink:href="#a5vJWdg0fi" opacity="1" fill="#d46b6b" fill-opacity="1"></use></g><g><g><filter id="shadow16604184" x="-5.5" y="1.74" width="20.25" height="44.25" filterUnits="userSpaceOnUse" primitiveUnits="userSpaceOnUse"><feFlood></feFlood><feComposite in2="SourceAlpha" operator="in"></feComposite><feGaussianBlur stdDeviation="1"></feGaussianBlur><feOffset dx="0" dy="0" result="afterOffset"></feOffset><feFlood flood-color="#000000" flood-opacity="0.5"></feFlood><feComposite in2="afterOffset" operator="in"></feComposite><feMorphology operator="dilate" radius="0"></feMorphology><feComposite in2="SourceAlpha" operator="out"></feComposite></filter><path d="M6.26 8.74C7.09 8.74 7.75 9.41 7.75 10.23C7.75 15.98 7.75 31.75 7.75 37.5C7.75 38.32 7.09 38.99 6.26 38.99C5.31 38.99 3.95 38.99 2.99 38.99C2.17 38.99 1.5 38.32 1.5 37.5C1.5 31.75 1.5 15.98 1.5 10.23C1.5 9.41 2.17 8.74 2.99 8.74C3.95 8.74 5.31 8.74 6.26 8.74Z" id="aOpMipWsz" fill="white" fill-opacity="1" filter="url(#shadow16604184)"></path></g><use xlink:href="#blfm2iLG6" opacity="1" fill="#b0b0b0" fill-opacity="1"></use></g><g><g><filter id="shadow1746235" x="-5.5" y="39.11" width="20.25" height="44.25" filterUnits="userSpaceOnUse" primitiveUnits="userSpaceOnUse"><feFlood></feFlood><feComposite in2="SourceAlpha" operator="in"></feComposite><feGaussianBlur stdDeviation="1"></feGaussianBlur><feOffset dx="0" dy="0" result="afterOffset"></feOffset><feFlood flood-color="#000000" flood-opacity="0.5"></feFlood><feComposite in2="afterOffset" operator="in"></feComposite><feMorphology operator="dilate" radius="0"></feMorphology><feComposite in2="SourceAlpha" operator="out"></feComposite></filter><path d="M6.26 46.11C7.09 46.11 7.75 46.78 7.75 47.6C7.75 53.36 7.75 69.12 7.75 74.88C7.75 75.7 7.09 76.36 6.26 76.36C5.31 76.36 3.95 76.36 2.99 76.36C2.17 76.36 1.5 75.7 1.5 74.88C1.5 69.12 1.5 53.36 1.5 47.6C1.5 46.78 2.17 46.11 2.99 46.11C3.95 46.11 5.31 46.11 6.26 46.11Z" id="a24oqdP5NM" fill="white" fill-opacity="1" filter="url(#shadow1746235)"></path></g><use xlink:href="#d1yRFUexp9" opacity="1" fill="#b0b0b0" fill-opacity="1"></use></g><g><g><filter id="shadow10112953" x="129.58" y="9.24" width="94" height="94" filterUnits="userSpaceOnUse" primitiveUnits="userSpaceOnUse"><feFlood></feFlood><feComposite in2="SourceAlpha" operator="in"></feComposite><feGaussianBlur stdDeviation="1"></feGaussianBlur><feOffset dx="0" dy="0" result="afterOffset"></feOffset><feFlood flood-color="#000000" flood-opacity="0.5"></feFlood><feComposite in2="afterOffset" operator="in"></feComposite><feMorphology operator="dilate" radius="0"></feMorphology><feComposite in2="SourceAlpha" operator="out"></feComposite></filter><path d="M179.86 16.37L181.47 16.54L183.06 16.77L184.64 17.06L186.19 17.41L187.71 17.81L189.22 18.28L190.69 18.81L192.14 19.39L193.56 20.02L194.95 20.71L196.31 21.45L197.64 22.24L198.94 23.08L200.2 23.96L201.42 24.9L202.6 25.88L203.75 26.9L204.86 27.96L205.92 29.07L206.95 30.22L207.92 31.4L208.86 32.62L209.74 33.88L210.58 35.18L211.37 36.51L212.11 37.87L212.8 39.26L213.43 40.68L214.01 42.13L214.54 43.6L215.01 45.11L215.42 46.63L215.77 48.18L216.05 49.76L216.28 51.35L216.45 52.96L216.55 54.59L216.58 56.24L216.55 57.89L216.45 59.52L216.28 61.13L216.05 62.73L215.77 64.3L215.42 65.85L215.01 67.38L214.54 68.88L214.01 70.36L213.43 71.81L212.8 73.23L212.11 74.62L211.37 75.98L210.58 77.31L209.74 78.6L208.86 79.86L207.92 81.08L206.95 82.27L205.92 83.41L204.86 84.52L203.75 85.59L202.6 86.61L201.42 87.59L200.2 88.52L198.94 89.41L197.64 90.25L196.31 91.04L194.95 91.77L193.56 92.46L192.14 93.1L190.69 93.68L189.22 94.2L187.71 94.67L186.19 95.08L184.64 95.43L183.06 95.72L181.47 95.95L179.86 96.11L178.23 96.21L176.58 96.24L174.93 96.21L173.3 96.11L171.69 95.95L170.09 95.72L168.52 95.43L166.97 95.08L165.44 94.67L163.94 94.2L162.46 93.68L161.02 93.1L159.59 92.46L158.2 91.77L156.84 91.04L155.52 90.25L154.22 89.41L152.96 88.52L151.74 87.59L150.55 86.61L149.41 85.59L148.3 84.52L147.23 83.41L146.21 82.27L145.23 81.08L144.3 79.86L143.41 78.6L142.58 77.31L141.79 75.98L141.05 74.62L140.36 73.23L139.72 71.81L139.14 70.36L138.62 68.88L138.15 67.38L137.74 65.85L137.39 64.3L137.1 62.73L136.88 61.13L136.71 59.52L136.61 57.89L136.58 56.24L136.61 54.59L136.71 52.96L136.88 51.35L137.1 49.76L137.39 48.18L137.74 46.63L138.15 45.11L138.62 43.6L139.14 42.13L139.72 40.68L140.36 39.26L141.05 37.87L141.79 36.51L142.58 35.18L143.41 33.88L144.3 32.62L145.23 31.4L146.21 30.22L147.23 29.07L148.3 27.96L149.41 26.9L150.55 25.88L151.74 24.9L152.96 23.96L154.22 23.08L155.52 22.24L156.84 21.45L158.2 20.71L159.59 20.02L161.02 19.39L162.46 18.81L163.94 18.28L165.44 17.81L166.97 17.41L168.52 17.06L170.09 16.77L171.69 16.54L173.3 16.37L174.93 16.28L176.58 16.24L178.23 16.28L179.86 16.37ZM173.92 46.6L172.69 47.03L171.53 47.61L170.47 48.33L169.51 49.17L168.66 50.13L167.94 51.2L167.37 52.35L166.94 53.58L166.67 54.89L166.58 56.24L166.67 57.6L166.94 58.9L167.37 60.13L167.94 61.29L168.66 62.35L169.51 63.31L170.47 64.16L171.53 64.88L172.69 65.46L173.92 65.88L175.22 66.15L176.58 66.24L177.93 66.15L179.24 65.88L180.47 65.46L181.62 64.88L182.69 64.16L183.65 63.31L184.49 62.35L185.21 61.29L185.79 60.13L186.22 58.9L186.49 57.6L186.58 56.24L186.49 54.89L186.22 53.58L185.79 52.35L185.21 51.2L184.49 50.13L183.65 49.17L182.69 48.33L181.62 47.61L180.47 47.03L179.24 46.6L177.93 46.33L176.58 46.24L175.22 46.33L173.92 46.6Z" id="a3KjRd8bQ" fill="white" fill-opacity="1" filter="url(#shadow10112953)"></path></g><use xlink:href="#a17yHi3iuZ" opacity="1" fill="#e0e0e0" fill-opacity="1"></use></g><g><g><filter id="shadow5387935" x="172.08" y="1.74" width="59" height="59" filterUnits="userSpaceOnUse" primitiveUnits="userSpaceOnUse"><feFlood></feFlood><feComposite in2="SourceAlpha" operator="in"></feComposite><feGaussianBlur stdDeviation="1"></feGaussianBlur><feOffset dx="0" dy="0" result="afterOffset"></feOffset><feFlood flood-color="#000000" flood-opacity="0.5"></feFlood><feComposite in2="afterOffset" operator="in"></feComposite><feMorphology operator="dilate" radius="0"></feMorphology><feComposite in2="SourceAlpha" operator="out"></feComposite></filter><path d="M182.77 8.89L184.58 9.08L186.37 9.33L188.14 9.66L189.89 10.05L191.61 10.51L193.3 11.04L194.96 11.63L196.59 12.28L198.19 12.99L199.75 13.77L201.28 14.6L202.78 15.49L204.23 16.43L205.65 17.43L207.02 18.48L208.36 19.58L209.65 20.73L210.89 21.93L212.09 23.17L213.24 24.46L214.34 25.8L215.39 27.17L216.39 28.59L217.33 30.05L218.22 31.54L219.05 33.07L219.83 34.63L220.54 36.23L221.19 37.86L221.78 39.52L222.31 41.22L222.77 42.93L223.16 44.68L223.49 46.45L223.75 48.24L223.93 50.05L224.04 51.89L224.08 53.74L224.08 53.74L204.08 53.74L204.08 53.74L204.04 52.41L203.94 51.11L203.77 49.82L203.54 48.55L203.24 47.3L202.88 46.08L202.46 44.89L201.99 43.73L201.46 42.59L200.87 41.49L200.23 40.42L199.54 39.38L198.8 38.39L198.02 37.43L197.19 36.51L196.31 35.64L195.39 34.8L194.43 34.02L193.44 33.28L192.4 32.59L191.33 31.95L190.23 31.36L189.09 30.83L187.93 30.36L186.74 29.94L185.52 29.58L184.27 29.28L183 29.05L181.71 28.88L180.41 28.78L179.08 28.74L179.08 8.74L180.93 8.78L182.77 8.89Z" id="a1kvZAHSY1" fill="white" fill-opacity="1" filter="url(#shadow5387935)"></path></g><use xlink:href="#d1uRi1D33N" opacity="1" fill="#b2a16b" fill-opacity="1"></use></g><g><g><filter id="shadow15798815" x="147.08" y="26.74" width="59" height="59" filterUnits="userSpaceOnUse" primitiveUnits="userSpaceOnUse"><feFlood></feFlood><feComposite in2="SourceAlpha" operator="in"></feComposite><feGaussianBlur stdDeviation="1"></feGaussianBlur><feOffset dx="0" dy="0" result="afterOffset"></feOffset><feFlood flood-color="#000000" flood-opacity="0.5"></feFlood><feComposite in2="afterOffset" operator="in"></feComposite><feMorphology operator="dilate" radius="0"></feMorphology><feComposite in2="SourceAlpha" operator="out"></feComposite></filter><path d="M179.2 33.89L180.48 34.08L181.74 34.34L182.96 34.66L184.16 35.05L185.33 35.51L186.47 36.03L187.57 36.61L188.64 37.25L189.66 37.94L190.65 38.69L191.59 39.49L192.49 40.34L193.33 41.23L194.13 42.17L194.88 43.16L195.57 44.18L196.21 45.25L196.79 46.35L197.31 47.49L197.77 48.66L198.16 49.86L198.48 51.09L198.74 52.34L198.93 53.62L199.04 54.92L199.08 56.24L199.04 57.56L198.93 58.86L198.74 60.14L198.48 61.4L198.16 62.63L197.77 63.83L197.31 65L196.79 66.13L196.21 67.24L195.57 68.3L194.88 69.33L194.13 70.31L193.33 71.25L192.49 72.15L191.59 73L190.65 73.8L189.66 74.54L188.64 75.24L187.57 75.87L186.47 76.45L185.33 76.97L184.16 77.43L182.96 77.82L181.74 78.15L180.48 78.4L179.2 78.59L177.9 78.7L176.58 78.74L175.26 78.7L173.96 78.59L172.68 78.4L171.42 78.15L170.19 77.82L168.99 77.43L167.82 76.97L166.69 76.45L165.59 75.87L164.52 75.24L163.49 74.54L162.51 73.8L161.57 73L160.67 72.15L159.82 71.25L159.02 70.31L158.28 69.33L157.58 68.3L156.95 67.24L156.37 66.13L155.85 65L155.39 63.83L155 62.63L154.67 61.4L154.42 60.14L154.23 58.86L154.12 57.56L154.08 56.24L154.12 54.92L154.23 53.62L154.42 52.34L154.67 51.09L155 49.86L155.39 48.66L155.85 47.49L156.37 46.35L156.95 45.25L157.58 44.18L158.28 43.16L159.02 42.17L159.82 41.23L160.67 40.34L161.57 39.49L162.51 38.69L163.49 37.94L164.52 37.25L165.59 36.61L166.69 36.03L167.82 35.51L168.99 35.05L170.19 34.66L171.42 34.34L172.68 34.08L173.96 33.89L175.26 33.78L176.58 33.74L177.9 33.78L179.2 33.89ZM173.92 46.6L172.69 47.03L171.53 47.61L170.47 48.33L169.51 49.17L168.66 50.13L167.94 51.2L167.37 52.35L166.94 53.58L166.67 54.89L166.58 56.24L166.67 57.6L166.94 58.9L167.37 60.13L167.94 61.29L168.66 62.35L169.51 63.31L170.47 64.16L171.53 64.88L172.69 65.46L173.92 65.88L175.22 66.15L176.58 66.24L177.93 66.15L179.24 65.88L180.47 65.46L181.62 64.88L182.69 64.16L183.65 63.31L184.49 62.35L185.21 61.29L185.79 60.13L186.22 58.9L186.49 57.6L186.58 56.24L186.49 54.89L186.22 53.58L185.79 52.35L185.21 51.2L184.49 50.13L183.65 49.17L182.69 48.33L181.62 47.61L180.47 47.03L179.24 46.6L177.93 46.33L176.58 46.24L175.22 46.33L173.92 46.6Z" id="b1IHLz4S74" fill="white" fill-opacity="1" filter="url(#shadow15798815)"></path></g><use xlink:href="#a6qaeAUh7m" opacity="1" fill="#7f7f7f" fill-opacity="0.7"></use></g><g><use xlink:href="#a3K2IANrQw" opacity="1" fill="#717171" fill-opacity="1"></use></g><g><use xlink:href="#ea9BAfNyYW" opacity="1" fill="#717171" fill-opacity="1"></use></g><g><use xlink:href="#futLNUUo" opacity="1" fill="#717171" fill-opacity="1"></use></g><g><use xlink:href="#e1OeAITyfE" opacity="1" fill="#717171" fill-opacity="1"></use></g><g><g><filter id="shadow159509" x="30.02" y="142.43" width="85.33" height="52" filterUnits="userSpaceOnUse" primitiveUnits="userSpaceOnUse"><feFlood></feFlood><feComposite in2="SourceAlpha" operator="in"></feComposite><feGaussianBlur stdDeviation="1"></feGaussianBlur><feOffset dx="0" dy="0" result="afterOffset"></feOffset><feFlood flood-color="#000000" flood-opacity="0.5"></feFlood><feComposite in2="afterOffset" operator="in"></feComposite><feMorphology operator="dilate" radius="0"></feMorphology><feComposite in2="SourceAlpha" operator="out"></feComposite></filter><path d="M81.78 160.05L81.5 160.1L81.22 160.16L80.94 160.24L80.68 160.33L80.42 160.44L80.17 160.56L79.92 160.7L79.69 160.85L79.47 161.02L79.26 161.2L79.06 161.39L78.87 161.59L78.69 161.8L78.52 162.02L78.37 162.26L78.23 162.5L78.11 162.75L78 163.01L77.9 163.27L77.83 163.55L77.76 163.83L77.72 164.11L77.69 164.41L77.68 164.7L77.68 187.43L67.68 187.43L67.68 164.7L67.67 164.41L67.65 164.11L67.6 163.83L67.54 163.55L67.46 163.27L67.37 163.01L67.26 162.75L67.13 162.5L66.99 162.26L66.84 162.02L66.68 161.8L66.5 161.59L66.31 161.39L66.11 161.2L65.9 161.02L65.67 160.85L65.44 160.7L65.2 160.56L64.95 160.44L64.69 160.33L64.42 160.24L64.15 160.16L63.87 160.1L63.58 160.05L63.29 160.02L63 160.02L37.02 160.02L37.02 149.43L108.35 149.43L108.35 160.02L82.37 160.02L82.07 160.02L82.07 160.02L81.78 160.05ZM70.18 182.42L70.38 183.39L70.92 184.18L71.71 184.72L72.68 184.92L73.66 184.72L74.45 184.18L74.99 183.39L75.18 182.42L74.99 181.44L74.45 180.65L73.66 180.11L72.68 179.92L71.71 180.11L70.92 180.65L70.38 181.44L70.38 181.44L70.18 182.42ZM70.18 175.41L70.38 176.38L70.92 177.18L71.71 177.71L72.68 177.91L73.66 177.71L74.45 177.18L74.99 176.38L75.18 175.41L74.99 174.44L74.45 173.64L73.66 173.11L72.68 172.91L71.71 173.11L70.92 173.64L70.38 174.44L70.38 174.44L70.18 175.41ZM70.18 168.43L70.38 169.4L70.92 170.19L71.71 170.73L72.68 170.93L73.66 170.73L74.45 170.19L74.99 169.4L75.18 168.43L74.99 167.45L74.45 166.66L73.66 166.12L72.68 165.93L71.71 166.12L70.92 166.66L70.38 167.45L70.38 167.45L70.18 168.43ZM50.47 154.58L50.67 155.55L51.2 156.34L52 156.88L52.97 157.08L53.94 156.88L54.74 156.34L55.27 155.55L55.47 154.58L55.27 153.6L54.74 152.81L53.94 152.27L52.97 152.08L52 152.27L51.2 152.81L50.67 153.6L50.67 153.6L50.47 154.58ZM58.07 154.58L58.26 155.55L58.8 156.34L59.6 156.88L60.57 157.08L61.54 156.88L62.34 156.34L62.87 155.55L63.07 154.58L62.87 153.6L62.34 152.81L61.54 152.27L60.57 152.08L59.6 152.27L58.8 152.81L58.26 153.6L58.26 153.6L58.07 154.58ZM42.64 154.58L42.83 155.55L43.37 156.34L44.16 156.88L45.14 157.08L46.11 156.88L46.9 156.34L47.44 155.55L47.64 154.58L47.44 153.6L46.9 152.81L46.11 152.27L45.14 152.08L44.16 152.27L43.37 152.81L42.83 153.6L42.83 153.6L42.64 154.58ZM82.64 155.55L83.17 156.34L83.97 156.88L84.94 157.08L85.91 156.88L86.71 156.34L87.24 155.55L87.44 154.58L87.24 153.6L86.71 152.81L85.91 152.27L84.94 152.08L83.97 152.27L83.17 152.81L82.64 153.6L82.44 154.58L82.44 154.58L82.64 155.55ZM98.23 155.55L98.77 156.34L99.56 156.88L100.54 157.08L101.51 156.88L102.3 156.34L102.84 155.55L103.04 154.58L102.84 153.6L102.3 152.81L101.51 152.27L100.54 152.08L99.56 152.27L98.77 152.81L98.23 153.6L98.04 154.58L98.04 154.58L98.23 155.55ZM90.29 155.55L90.83 156.34L91.62 156.88L92.59 157.08L93.57 156.88L94.36 156.34L94.9 155.55L95.09 154.58L94.9 153.6L94.36 152.81L93.57 152.27L92.59 152.08L91.62 152.27L90.83 152.81L90.29 153.6L90.09 154.58L90.09 154.58L90.29 155.55Z" id="a3TKCrC3a" fill="white" fill-opacity="1" filter="url(#shadow159509)"></path></g><use xlink:href="#c2H0V7Jufs" opacity="1" fill="#d6d6d6" fill-opacity="1"></use></g><g><g><filter id="shadow12710248" x="25.68" y="106.87" width="94" height="94" filterUnits="userSpaceOnUse" primitiveUnits="userSpaceOnUse"><feFlood></feFlood><feComposite in2="SourceAlpha" operator="in"></feComposite><feGaussianBlur stdDeviation="1"></feGaussianBlur><feOffset dx="0" dy="0" result="afterOffset"></feOffset><feFlood flood-color="#000000" flood-opacity="0.5"></feFlood><feComposite in2="afterOffset" operator="in"></feComposite><feMorphology operator="dilate" radius="0"></feMorphology><feComposite in2="SourceAlpha" operator="out"></feComposite></filter><path d="M77.57 114.16L79.17 114.39L80.74 114.68L82.29 115.03L83.82 115.44L85.32 115.91L86.8 116.43L88.25 117.01L89.67 117.65L91.06 118.33L92.42 119.07L93.75 119.86L95.04 120.7L96.3 121.59L97.52 122.52L98.71 123.5L99.85 124.52L100.96 125.59L102.03 126.69L103.05 127.84L104.03 129.03L104.96 130.25L105.85 131.51L106.69 132.8L107.48 134.13L108.21 135.49L108.9 136.88L109.54 138.3L110.12 139.75L110.64 141.23L111.11 142.73L111.52 144.26L111.87 145.81L112.16 147.38L112.39 148.98L112.55 150.59L112.65 152.22L112.68 153.87L112.65 155.51L112.55 157.15L112.39 158.76L112.16 160.35L111.87 161.92L111.52 163.47L111.11 165L110.64 166.5L110.12 167.98L109.54 169.43L108.9 170.85L108.21 172.24L107.48 173.6L106.69 174.93L105.85 176.22L104.96 177.48L104.03 178.71L103.05 179.89L102.03 181.04L100.96 182.15L99.85 183.21L98.71 184.23L97.52 185.21L96.3 186.14L95.04 187.03L93.75 187.87L92.42 188.66L91.06 189.4L89.67 190.09L88.25 190.72L86.8 191.3L85.32 191.83L83.82 192.29L82.29 192.7L80.74 193.05L79.17 193.34L77.57 193.57L75.96 193.73L74.33 193.83L72.68 193.87L71.03 193.83L69.4 193.73L67.79 193.57L66.2 193.34L64.63 193.05L63.07 192.7L61.55 192.29L60.05 191.83L58.57 191.3L57.12 190.72L55.7 190.09L54.31 189.4L52.95 188.66L51.62 187.87L50.32 187.03L49.07 186.14L47.84 185.21L46.66 184.23L45.51 183.21L44.4 182.15L43.34 181.04L42.32 179.89L41.34 178.71L40.4 177.48L39.52 176.22L38.68 174.93L37.89 173.6L37.15 172.24L36.46 170.85L35.83 169.43L35.25 167.98L34.72 166.5L34.26 165L33.85 163.47L33.5 161.92L33.21 160.35L32.98 158.76L32.82 157.15L32.72 155.51L32.68 153.87L32.72 152.22L32.82 150.59L32.98 148.98L33.21 147.38L33.5 145.81L33.85 144.26L34.26 142.73L34.72 141.23L35.25 139.75L35.83 138.3L36.46 136.88L37.15 135.49L37.89 134.13L38.68 132.8L39.52 131.51L40.4 130.25L41.34 129.03L42.32 127.84L43.34 126.69L44.4 125.59L45.51 124.52L46.66 123.5L47.84 122.52L49.07 121.59L50.32 120.7L51.62 119.86L52.95 119.07L54.31 118.33L55.7 117.65L57.12 117.01L58.57 116.43L60.05 115.91L61.55 115.44L63.07 115.03L64.63 114.68L66.2 114.39L67.79 114.16L69.4 114L71.03 113.9L72.68 113.87L74.33 113.9L75.96 114L75.96 114L77.57 114.16ZM68.71 121.61L67.41 121.79L66.14 122.03L64.88 122.31L63.64 122.64L62.41 123.02L61.21 123.45L60.04 123.92L58.88 124.44L57.75 125L56.65 125.6L55.57 126.24L54.52 126.92L53.49 127.64L52.5 128.4L51.54 129.19L50.61 130.03L49.71 130.89L48.84 131.79L48.01 132.72L47.21 133.68L46.46 134.68L45.74 135.7L45.05 136.75L44.41 137.83L43.81 138.94L43.25 140.07L42.74 141.22L42.27 142.4L41.84 143.6L41.46 144.82L41.13 146.06L40.84 147.32L40.61 148.6L40.42 149.89L40.29 151.2L40.21 152.53L40.18 153.87L40.21 155.21L40.29 156.53L40.42 157.84L40.61 159.14L40.84 160.41L41.13 161.67L41.46 162.91L41.84 164.13L42.27 165.33L42.74 166.51L43.25 167.67L43.81 168.8L44.41 169.9L45.05 170.98L45.74 172.03L46.46 173.06L47.21 174.05L48.01 175.01L48.84 175.94L49.71 176.84L50.61 177.71L51.54 178.54L52.5 179.33L53.49 180.09L54.52 180.81L55.57 181.49L56.65 182.14L57.75 182.74L58.88 183.3L60.04 183.81L61.21 184.28L62.41 184.71L63.64 185.09L64.88 185.42L66.14 185.71L67.41 185.94L68.71 186.13L70.02 186.26L71.34 186.34L72.68 186.37L74.02 186.34L75.35 186.26L76.66 186.13L77.95 185.94L79.23 185.71L80.49 185.42L81.73 185.09L82.95 184.71L84.15 184.28L85.33 183.81L86.48 183.3L87.61 182.74L88.72 182.14L89.8 181.49L90.85 180.81L91.87 180.09L92.87 179.33L93.83 178.54L94.76 177.71L95.66 176.84L96.52 175.94L97.36 175.01L98.15 174.05L98.91 173.06L99.63 172.03L100.31 170.98L100.95 169.9L101.55 168.8L102.11 167.67L102.63 166.51L103.1 165.33L103.52 164.13L103.9 162.91L104.24 161.67L104.52 160.41L104.76 159.14L104.94 157.84L105.07 156.53L105.16 155.21L105.18 153.87L105.16 152.53L105.07 151.2L104.94 149.89L104.76 148.6L104.52 147.32L104.24 146.06L103.9 144.82L103.52 143.6L103.1 142.4L102.63 141.22L102.11 140.07L101.55 138.94L100.95 137.83L100.31 136.75L99.63 135.7L98.91 134.68L98.15 133.68L97.36 132.72L96.52 131.79L95.66 130.89L94.76 130.03L93.83 129.19L92.87 128.4L91.87 127.64L90.85 126.92L89.8 126.24L88.72 125.6L87.61 125L86.48 124.44L85.33 123.92L84.15 123.45L82.95 123.02L81.73 122.64L80.49 122.31L79.23 122.03L77.95 121.79L76.66 121.61L75.35 121.47L74.02 121.39L72.68 121.37L71.34 121.39L70.02 121.47L70.02 121.47L68.71 121.61Z" id="ecqeDwNOf" fill="white" fill-opacity="1" filter="url(#shadow12710248)"></path></g><use xlink:href="#f8aCgmx3OM" opacity="1" fill="#444444" fill-opacity="1"></use></g><g><g><filter id="shadow2187467" x="57.68" y="141.5" width="30" height="30" filterUnits="userSpaceOnUse" primitiveUnits="userSpaceOnUse"><feFlood></feFlood><feComposite in2="SourceAlpha" operator="in"></feComposite><feGaussianBlur stdDeviation="1"></feGaussianBlur><feOffset dx="0" dy="0" result="afterOffset"></feOffset><feFlood flood-color="#000000" flood-opacity="0.5"></feFlood><feComposite in2="afterOffset" operator="in"></feComposite><feMorphology operator="dilate" radius="0"></feMorphology><feComposite in2="SourceAlpha" operator="out"></feComposite></filter><path d="M80.68 156.5C80.68 160.92 77.1 164.5 72.68 164.5C68.27 164.5 64.68 160.92 64.68 156.5C64.68 152.09 68.27 148.5 72.68 148.5C77.1 148.5 80.68 152.09 80.68 156.5Z" id="bfG9GMQJ5" fill="white" fill-opacity="1" filter="url(#shadow2187467)"></path></g><use xlink:href="#aOyS4f8vc" opacity="1" fill="#d6d6d6" fill-opacity="1"></use></g><g><use xlink:href="#a7kfDkOpiB" opacity="1" fill="#9094da" fill-opacity="1"></use></g><g><g><filter id="shadow5936187" x="32.44" y="58.04" width="82.66" height="46.75" filterUnits="userSpaceOnUse" primitiveUnits="userSpaceOnUse"><feFlood></feFlood><feComposite in2="SourceAlpha" operator="in"></feComposite><feGaussianBlur stdDeviation="1"></feGaussianBlur><feOffset dx="0" dy="0" result="afterOffset"></feOffset><feFlood flood-color="#555555" flood-opacity="0.42"></feFlood><feComposite in2="afterOffset" operator="in"></feComposite><feMorphology operator="dilate" radius="0"></feMorphology><feComposite in2="SourceAlpha" operator="out"></feComposite></filter><path d="M39.55 68.72L39.68 68.25L39.86 67.79L40.08 67.36L40.35 66.96L40.65 66.59L40.99 66.25L41.36 65.95L41.77 65.68L42.2 65.46L42.65 65.28L43.13 65.15L43.62 65.07L44.13 65.04L47.69 65.04L48.21 65.07L48.7 65.15L49.18 65.28L49.63 65.46L50.06 65.68L50.46 65.95L50.84 66.25L51.17 66.59L51.48 66.96L51.74 67.36L51.96 67.79L52.14 68.25L52.27 68.72L52.35 69.22L52.38 69.73L52.38 83.79L105.76 83.79L105.88 83.8L106 83.81L106.11 83.82L106.23 83.84L106.34 83.87L106.45 83.9L106.56 83.94L106.67 83.98L106.77 84.03L106.87 84.08L106.97 84.13L107.07 84.19L107.16 84.26L107.25 84.33L107.33 84.4L107.42 84.48L107.49 84.56L107.57 84.65L107.64 84.74L107.7 84.83L107.76 84.92L107.82 85.02L107.87 85.12L107.92 85.23L107.96 85.33L108 85.44L108.03 85.55L108.05 85.67L108.07 85.78L108.09 85.9L108.1 86.02L108.1 86.14L108.1 95.45L108.1 95.57L108.09 95.69L108.07 95.81L108.05 95.92L108.03 96.04L108 96.15L107.96 96.26L107.92 96.36L107.87 96.47L107.82 96.57L107.76 96.67L107.7 96.76L107.64 96.85L107.57 96.94L107.49 97.03L107.42 97.11L107.33 97.19L107.25 97.26L107.16 97.33L107.07 97.39L106.97 97.46L106.87 97.51L106.77 97.56L106.67 97.61L106.56 97.65L106.45 97.69L106.34 97.72L106.23 97.75L106.11 97.77L106 97.78L105.88 97.79L105.76 97.79L41.79 97.79L41.67 97.79L41.55 97.78L41.43 97.77L41.32 97.75L41.2 97.72L41.09 97.69L40.98 97.65L40.88 97.61L40.77 97.56L40.67 97.51L40.57 97.46L40.48 97.39L40.39 97.33L40.3 97.26L40.21 97.19L40.13 97.11L40.05 97.03L39.98 96.94L39.91 96.85L39.85 96.76L39.78 96.67L39.73 96.57L39.68 96.47L39.63 96.36L39.59 96.26L39.55 96.15L39.52 96.04L39.49 95.92L39.47 95.81L39.46 95.69L39.45 95.57L39.44 95.45L39.44 69.73L39.47 69.22L39.55 68.72Z" id="c5kxcymmdO" fill="white" fill-opacity="1" filter="url(#shadow5936187)"></path></g><use xlink:href="#b3cyzMTxe" opacity="1" fill="#d6d6d6" fill-opacity="1"></use></g><g><g><filter id="shadow10815915" x="48.93" y="58.04" width="82.66" height="46.75" filterUnits="userSpaceOnUse" primitiveUnits="userSpaceOnUse"><feFlood></feFlood><feComposite in2="SourceAlpha" operator="in"></feComposite><feGaussianBlur stdDeviation="1"></feGaussianBlur><feOffset dx="0" dy="0" result="afterOffset"></feOffset><feFlood flood-color="#555555" flood-opacity="0.42"></feFlood><feComposite in2="afterOffset" operator="in"></feComposite><feMorphology operator="dilate" radius="0"></feMorphology><feComposite in2="SourceAlpha" operator="out"></feComposite></filter><path d="M56.04 68.72L56.17 68.25L56.35 67.79L56.57 67.36L56.84 66.96L57.14 66.59L57.48 66.25L57.85 65.95L58.25 65.68L58.68 65.46L59.14 65.28L59.61 65.15L60.11 65.07L60.62 65.04L64.18 65.04L64.69 65.07L65.19 65.15L65.66 65.28L66.12 65.46L66.55 65.68L66.95 65.95L67.32 66.25L67.66 66.59L67.97 66.96L68.23 67.36L68.45 67.79L68.63 68.25L68.76 68.72L68.84 69.22L68.87 69.73L68.87 83.79L122.25 83.79L122.37 83.8L122.48 83.81L122.6 83.82L122.72 83.84L122.83 83.87L122.94 83.9L123.05 83.94L123.16 83.98L123.26 84.03L123.36 84.08L123.46 84.13L123.56 84.19L123.65 84.26L123.74 84.33L123.82 84.4L123.9 84.48L123.98 84.56L124.05 84.65L124.12 84.74L124.19 84.83L124.25 84.92L124.31 85.02L124.36 85.12L124.4 85.23L124.45 85.33L124.48 85.44L124.52 85.55L124.54 85.67L124.56 85.78L124.58 85.9L124.59 86.02L124.59 86.14L124.59 95.45L124.59 95.57L124.58 95.69L124.56 95.81L124.54 95.92L124.52 96.04L124.48 96.15L124.45 96.26L124.4 96.36L124.36 96.47L124.31 96.57L124.25 96.67L124.19 96.76L124.12 96.85L124.05 96.94L123.98 97.03L123.9 97.11L123.82 97.19L123.74 97.26L123.65 97.33L123.56 97.39L123.46 97.46L123.36 97.51L123.26 97.56L123.16 97.61L123.05 97.65L122.94 97.69L122.83 97.72L122.72 97.75L122.6 97.77L122.48 97.78L122.37 97.79L122.25 97.79L58.28 97.79L58.16 97.79L58.04 97.78L57.92 97.77L57.8 97.75L57.69 97.72L57.58 97.69L57.47 97.65L57.36 97.61L57.26 97.56L57.16 97.51L57.06 97.46L56.97 97.39L56.87 97.33L56.79 97.26L56.7 97.19L56.62 97.11L56.54 97.03L56.47 96.94L56.4 96.85L56.33 96.76L56.27 96.67L56.22 96.57L56.16 96.47L56.12 96.36L56.07 96.26L56.04 96.15L56.01 96.04L55.98 95.92L55.96 95.81L55.94 95.69L55.94 95.57L55.93 95.45L55.93 69.73L55.96 69.22L56.04 68.72Z" id="kpNPtxvqA" fill="white" fill-opacity="1" filter="url(#shadow10815915)"></path></g><use xlink:href="#jNKsXyGe5" opacity="1" fill="#d6d6d6" fill-opacity="1"></use></g><g><g><filter id="shadow4861171" x="65.53" y="58.04" width="66.69" height="46.75" filterUnits="userSpaceOnUse" primitiveUnits="userSpaceOnUse"><feFlood></feFlood><feComposite in2="SourceAlpha" operator="in"></feComposite><feGaussianBlur stdDeviation="1"></feGaussianBlur><feOffset dx="0" dy="0" result="afterOffset"></feOffset><feFlood flood-color="#555555" flood-opacity="0.42"></feFlood><feComposite in2="afterOffset" operator="in"></feComposite><feMorphology operator="dilate" radius="0"></feMorphology><feComposite in2="SourceAlpha" operator="out"></feComposite></filter><path d="M82.26 65.28L82.72 65.46L83.15 65.68L83.55 65.95L83.92 66.25L84.26 66.59L84.57 66.96L84.83 67.36L85.05 67.79L85.23 68.25L85.36 68.72L85.44 69.22L85.47 69.73L85.47 83.79L125.22 83.79L125.22 97.79L74.88 97.79L74.76 97.79L74.64 97.78L74.52 97.77L74.4 97.75L74.29 97.72L74.18 97.69L74.07 97.65L73.96 97.61L73.86 97.56L73.76 97.51L73.66 97.46L73.57 97.39L73.47 97.33L73.39 97.26L73.3 97.19L73.22 97.11L73.14 97.03L73.07 96.94L73 96.85L72.93 96.76L72.87 96.67L72.82 96.57L72.76 96.47L72.72 96.36L72.67 96.26L72.64 96.15L72.61 96.04L72.58 95.92L72.56 95.81L72.54 95.69L72.54 95.57L72.53 95.45L72.53 69.73L72.56 69.22L72.64 68.72L72.77 68.25L72.95 67.79L73.17 67.36L73.44 66.96L73.74 66.59L74.08 66.25L74.45 65.95L74.85 65.68L75.28 65.46L75.74 65.28L76.21 65.15L76.71 65.07L77.22 65.04L80.78 65.04L81.29 65.07L81.79 65.15L81.79 65.15L82.26 65.28Z" id="c1rmCRJWcw" fill="white" fill-opacity="1" filter="url(#shadow4861171)"></path></g><use xlink:href="#g39Iigh6be" opacity="1" fill="#d6d6d6" fill-opacity="1"></use></g><g><use xlink:href="#d1N2ppz8sO" opacity="1" fill="#a6a6a6" fill-opacity="1"></use></g><g><g><filter id="shadow12702495" x="81.48" y="58.04" width="50.75" height="46.75" filterUnits="userSpaceOnUse" primitiveUnits="userSpaceOnUse"><feFlood></feFlood><feComposite in2="SourceAlpha" operator="in"></feComposite><feGaussianBlur stdDeviation="1"></feGaussianBlur><feOffset dx="0" dy="0" result="afterOffset"></feOffset><feFlood flood-color="#555555" flood-opacity="0.42"></feFlood><feComposite in2="afterOffset" operator="in"></feComposite><feMorphology operator="dilate" radius="0"></feMorphology><feComposite in2="SourceAlpha" operator="out"></feComposite></filter><path d="M98.21 65.28L98.66 65.46L99.09 65.68L99.49 65.95L99.87 66.25L100.21 66.59L100.51 66.96L100.77 67.36L101 67.79L101.17 68.25L101.31 68.72L101.39 69.22L101.41 69.73L101.41 83.79L125.22 83.79L125.22 97.79L90.82 97.79L90.7 97.79L90.58 97.78L90.46 97.77L90.35 97.75L90.23 97.72L90.12 97.69L90.01 97.65L89.91 97.61L89.8 97.56L89.7 97.51L89.6 97.46L89.51 97.39L89.42 97.33L89.33 97.26L89.24 97.19L89.16 97.11L89.09 97.03L89.01 96.94L88.94 96.85L88.88 96.76L88.82 96.67L88.76 96.57L88.71 96.47L88.66 96.36L88.62 96.26L88.58 96.15L88.55 96.04L88.52 95.92L88.5 95.81L88.49 95.69L88.48 95.57L88.48 95.45L88.48 69.73L88.5 69.22L88.58 68.72L88.72 68.25L88.89 67.79L89.12 67.36L89.38 66.96L89.68 66.59L90.02 66.25L90.4 65.95L90.8 65.68L91.23 65.46L91.68 65.28L92.16 65.15L92.65 65.07L93.16 65.04L96.73 65.04L97.24 65.07L97.73 65.15L97.73 65.15L98.21 65.28Z" id="h7crfBaZDH" fill="white" fill-opacity="1" filter="url(#shadow12702495)"></path></g><use xlink:href="#j4t4vunRuX" opacity="1" fill="#d6d6d6" fill-opacity="1"></use></g><g><use xlink:href="#a1pEjGruxW" opacity="1" fill="#989898" fill-opacity="1"></use></g><g><use xlink:href="#a7kLCLCiMM" opacity="1" fill="#5e5e5e" fill-opacity="1"></use></g><g><use xlink:href="#b2g0FKrJde" opacity="1" fill="#5e5e5e" fill-opacity="1"></use></g><g><use xlink:href="#c1miIuzAtC" opacity="1" fill="#7d7d7d" fill-opacity="1"></use></g><g><use xlink:href="#b4ZB89tQfo" opacity="1" fill="#81d373" fill-opacity="1"></use></g><g><use xlink:href="#a3d8p7EFRd" opacity="1" fill="#81d373" fill-opacity="1"></use></g><g><use xlink:href="#bpnuPtqAf" opacity="1" fill="#81d373" fill-opacity="1"></use></g><g><use xlink:href="#b1yJnO9GDx" opacity="1" fill="#81d373" fill-opacity="1"></use></g><g><use xlink:href="#i96KXnC3Q" opacity="1" fill="#81d373" fill-opacity="1"></use></g><g><use xlink:href="#a1HE9Kp6HZ" opacity="1" fill="#81d373" fill-opacity="1"></use></g><g><use xlink:href="#b52gG2F4A3" opacity="1" fill="#7087d0" fill-opacity="1"></use></g><g><use xlink:href="#b2q53lNuzc" opacity="1" fill="#d07070" fill-opacity="1"></use></g><g><use xlink:href="#d5cn1zmCNF" opacity="1" fill="#ffffff" fill-opacity="0.1"></use></g></g></g></svg>