<?xml version="1.0" encoding="UTF-8" standalone="no"?>
<!DOCTYPE svg PUBLIC "-//W3C//DTD SVG 1.1//EN" "http://www.w3.org/Graphics/SVG/1.1/DTD/svg11.dtd">
<svg version="1.1" xmlns="http://www.w3.org/2000/svg" xmlns:xlink="http://www.w3.org/1999/xlink" preserveAspectRatio="xMidYMid meet" viewBox="0 0 640 381" width="640" height="381"><defs><path d="M305.16 203.12C305.16 203.12 305.16 203.12 305.16 203.12C305.16 183.3 320.83 167.2 340.13 167.2C340.13 167.2 595.24 167.2 595.24 167.2C614.55 167.2 630.21 183.3 630.21 203.12C630.21 203.12 630.21 203.12 630.21 203.12C630.21 222.95 614.55 239.05 595.24 239.05C595.24 239.05 340.13 239.05 340.13 239.05C320.83 239.05 305.16 222.95 305.16 203.12Z" id="d1sZuefU1P"></path><path d="M30.21 117.23C30.21 117.23 30.21 117.23 30.21 117.23C30.21 83.18 56.73 55.55 89.38 55.55C89.38 55.55 520.94 55.55 520.94 55.55C553.59 55.55 580.11 83.18 580.11 117.23C580.11 117.23 580.11 117.23 580.11 117.23C580.11 151.27 553.59 178.9 520.94 178.9C520.94 178.9 89.38 178.9 89.38 178.9C56.73 178.9 30.21 151.27 30.21 117.23Z" id="l6D5SUXwEQ"></path><path d="M110.39 277.81C110.39 277.81 110.39 277.81 110.39 277.81C110.39 253.14 129.17 233.1 152.3 233.1C152.3 233.1 458.02 233.1 458.02 233.1C481.15 233.1 499.93 253.14 499.93 277.81C499.93 277.81 499.93 277.81 499.93 277.81C499.93 302.48 481.15 322.51 458.02 322.51C458.02 322.51 152.3 322.51 152.3 322.51C129.17 322.51 110.39 302.48 110.39 277.81Z" id="a2xz59QGv"></path><path d="M322.13 364.29C231.37 364.29 157.68 285.62 157.68 188.72C157.68 91.82 231.37 13.15 322.13 13.15C412.9 13.15 486.58 91.82 486.58 188.72C486.58 285.62 412.9 364.29 322.13 364.29Z" id="h3cQ6RHUd8"></path><path d="M322.13 364.29C231.37 364.29 157.68 285.62 157.68 188.72C157.68 91.82 231.37 13.15 322.13 13.15C412.9 13.15 486.58 91.82 486.58 188.72C486.58 285.62 412.9 364.29 322.13 364.29Z" id="f294xhNZW1"></path><path d="" id="e7qejA5sy"></path><path d="M228.28 254.93L228.28 124.32L421.38 124.32L421.38 254.93L228.28 254.93ZM323.6 211.39L246.38 157.78L246.38 237.52L403.27 237.52L403.27 155.74L323.85 210.88L323.6 211.39ZM323.36 186.09L387.24 141.73L259.47 141.73L323.36 186.09Z" id="cEMfITcQ6"></path><path d="M249.57 107.4L249.67 107.41L249.77 107.42L249.86 107.44L249.95 107.46L250.05 107.48L250.14 107.51L250.23 107.54L250.31 107.58L250.4 107.62L250.48 107.66L250.57 107.7L250.65 107.75L250.72 107.8L250.8 107.85L250.87 107.91L250.94 107.97L251.01 108.03L251.08 108.1L251.14 108.16L251.21 108.23L251.27 108.3L251.32 108.38L251.37 108.45L251.43 108.53L251.47 108.61L251.52 108.69L251.56 108.78L251.6 108.86L251.63 108.95L251.66 109.04L251.69 109.13L251.72 109.22L251.74 109.31L251.76 109.41L251.77 109.51L251.78 109.6L251.78 109.7L251.79 109.8L251.79 181.66L251.78 181.76L251.78 181.86L251.77 181.96L251.76 182.05L251.74 182.15L251.72 182.24L251.69 182.33L251.66 182.42L251.63 182.51L251.6 182.6L251.56 182.69L251.52 182.77L251.47 182.85L251.43 182.93L251.37 183.01L251.32 183.09L251.27 183.16L251.21 183.23L251.14 183.3L251.08 183.37L251.01 183.43L250.94 183.49L250.87 183.55L250.8 183.61L250.72 183.66L250.65 183.71L250.57 183.76L250.48 183.8L250.4 183.84L250.31 183.88L250.23 183.92L250.14 183.95L250.05 183.98L249.95 184L249.86 184.02L249.77 184.04L249.67 184.05L249.57 184.06L249.47 184.07L249.38 184.07L249.2 184.07L249.2 265.03L249.19 265.11L249.19 265.19L249.18 265.28L249.17 265.36L249.16 265.43L249.14 265.51L249.12 265.59L249.09 265.66L249.07 265.74L249.04 265.81L249.01 265.88L248.97 265.95L248.94 266.02L248.9 266.08L248.86 266.15L248.81 266.21L248.76 266.27L248.72 266.33L248.66 266.39L248.61 266.44L248.56 266.5L248.5 266.55L248.44 266.6L248.38 266.64L248.32 266.69L248.25 266.73L248.18 266.77L248.12 266.81L248.05 266.84L247.98 266.87L247.9 266.9L247.83 266.93L247.75 266.95L247.68 266.97L247.6 266.99L247.52 267L247.44 267.01L247.36 267.02L247.28 267.03L247.2 267.03L224.34 267.03L224.25 267.03L224.17 267.02L224.09 267.01L224.01 267L223.93 266.99L223.86 266.97L223.78 266.95L223.7 266.93L223.63 266.9L223.56 266.87L223.49 266.84L223.42 266.81L223.35 266.77L223.28 266.73L223.22 266.69L223.16 266.64L223.09 266.6L223.04 266.55L222.98 266.5L222.92 266.44L222.87 266.39L222.82 266.33L222.77 266.27L222.72 266.21L222.68 266.15L222.64 266.08L222.6 266.02L222.56 265.95L222.53 265.88L222.49 265.81L222.47 265.74L222.44 265.66L222.42 265.59L222.4 265.51L222.38 265.43L222.36 265.36L222.35 265.28L222.34 265.19L222.34 265.11L222.34 265.03L222.34 184.07L221.79 184.07L221.69 184.07L221.59 184.06L221.49 184.05L221.4 184.04L221.3 184.02L221.21 184L221.12 183.98L221.03 183.95L220.94 183.92L220.85 183.88L220.76 183.84L220.68 183.8L220.6 183.76L220.52 183.71L220.44 183.66L220.36 183.61L220.29 183.55L220.22 183.49L220.15 183.43L220.08 183.37L220.02 183.3L219.96 183.23L219.9 183.16L219.84 183.09L219.79 183.01L219.74 182.93L219.69 182.85L219.65 182.77L219.6 182.69L219.57 182.6L219.53 182.51L219.5 182.42L219.47 182.33L219.45 182.24L219.43 182.15L219.41 182.05L219.39 181.96L219.39 181.86L219.38 181.76L219.38 181.66L219.38 109.8L219.38 109.7L219.39 109.6L219.39 109.51L219.41 109.41L219.43 109.31L219.45 109.22L219.47 109.13L219.5 109.04L219.53 108.95L219.57 108.86L219.6 108.78L219.65 108.69L219.69 108.61L219.74 108.53L219.79 108.45L219.84 108.38L219.9 108.3L219.96 108.23L220.02 108.16L220.08 108.1L220.15 108.03L220.22 107.97L220.29 107.91L220.36 107.85L220.44 107.8L220.52 107.75L220.6 107.7L220.68 107.66L220.76 107.62L220.85 107.58L220.94 107.54L221.03 107.51L221.12 107.48L221.21 107.46L221.3 107.44L221.4 107.42L221.49 107.41L221.59 107.4L221.69 107.39L221.79 107.39L249.38 107.39L249.47 107.39L249.57 107.4Z" id="d8WCkyyh6Z"></path><path d="M251.78 181.76L251.78 181.86L251.77 181.96L251.76 182.05L251.74 182.15L251.72 182.24L251.69 182.33L251.66 182.42L251.63 182.51L251.6 182.6L251.56 182.69L251.52 182.77L251.47 182.85L251.43 182.93L251.37 183.01L251.32 183.09L251.27 183.16L251.21 183.23L251.14 183.3L251.08 183.37L251.01 183.43L250.94 183.49L250.87 183.55L250.8 183.61L250.72 183.66L250.65 183.71L250.57 183.76L250.48 183.8L250.4 183.84L250.31 183.88L250.23 183.92L250.14 183.95L250.05 183.98L249.95 184L249.86 184.02L249.77 184.04L249.67 184.05L249.57 184.06L249.47 184.07L249.38 184.07L221.79 184.07L221.69 184.07L221.59 184.06L221.49 184.05L221.4 184.04L221.3 184.02L221.21 184L221.12 183.98L221.03 183.95L220.94 183.92L220.85 183.88L220.76 183.84L220.68 183.8L220.6 183.76L220.52 183.71L220.44 183.66L220.36 183.61L220.29 183.55L220.22 183.49L220.15 183.43L220.08 183.37L220.02 183.3L219.96 183.23L219.9 183.16L219.84 183.09L219.79 183.01L219.74 182.93L219.69 182.85L219.65 182.77L219.6 182.69L219.57 182.6L219.53 182.51L219.5 182.42L219.47 182.33L219.45 182.24L219.43 182.15L219.41 182.05L219.39 181.96L219.39 181.86L219.38 181.76L219.38 181.66L219.38 177.77L251.79 177.77L251.79 181.66L251.78 181.76Z" id="b453PirPXV"></path><path d="M236.55 112.64L236.85 112.69L237.13 112.76L237.41 112.84L237.69 112.94L237.95 113.06L238.2 113.19L238.45 113.33L238.68 113.5L238.91 113.67L239.12 113.86L239.32 114.06L239.51 114.27L239.68 114.5L239.85 114.73L239.99 114.98L240.12 115.23L240.24 115.5L240.34 115.77L240.42 116.05L240.49 116.33L240.54 116.63L240.57 116.92L240.58 117.23L240.58 165.7L240.57 166.01L240.54 166.31L240.49 166.6L240.42 166.89L240.34 167.17L240.24 167.44L240.12 167.7L239.99 167.96L239.85 168.2L239.68 168.44L239.51 168.66L239.32 168.87L239.12 169.07L238.91 169.26L238.68 169.44L238.45 169.6L238.2 169.74L237.95 169.88L237.69 169.99L237.41 170.09L237.13 170.18L236.85 170.24L236.55 170.29L236.26 170.32L235.95 170.33L235.58 170.33L235.28 170.32L234.98 170.29L234.69 170.24L234.4 170.18L234.12 170.09L233.85 169.99L233.58 169.88L233.33 169.74L233.09 169.6L232.85 169.44L232.63 169.26L232.41 169.07L232.21 168.87L232.02 168.66L231.85 168.44L231.69 168.2L231.54 167.96L231.41 167.7L231.29 167.44L231.19 167.17L231.11 166.89L231.04 166.6L231 166.31L230.97 166.01L230.96 165.7L230.96 117.23L230.97 116.92L231 116.63L231.04 116.33L231.11 116.05L231.19 115.77L231.29 115.5L231.41 115.23L231.54 114.98L231.69 114.73L231.85 114.5L232.02 114.27L232.21 114.06L232.41 113.86L232.63 113.67L232.85 113.5L233.09 113.33L233.33 113.19L233.58 113.06L233.85 112.94L234.12 112.84L234.4 112.76L234.69 112.69L234.98 112.64L235.28 112.61L235.58 112.6L235.95 112.6L236.26 112.61L236.55 112.64ZM233.4 155.98L233.1 156.48L232.99 157.08L233.43 158.64L234.38 159.76L235.33 160.45L235.77 160.71L236.2 160.45L237.15 159.76L238.11 158.64L238.54 157.08L238.43 156.48L238.14 155.98L237.69 155.65L237.15 155.53L236.61 155.64L236.17 155.94L235.88 156.4L235.77 157L235.66 156.4L235.36 155.94L234.92 155.64L234.38 155.53L233.84 155.65L233.4 155.98Z" id="a1wqCijpsS"></path><path d="M224.34 267.03L224.25 267.03L224.17 267.02L224.09 267.01L224.01 267L223.93 266.99L223.86 266.97L223.78 266.95L223.7 266.93L223.63 266.9L223.56 266.87L223.49 266.84L223.42 266.81L223.35 266.77L223.28 266.73L223.22 266.69L223.16 266.64L223.09 266.6L223.04 266.55L222.98 266.5L222.92 266.44L222.87 266.39L222.82 266.33L222.77 266.27L222.72 266.21L222.68 266.15L222.64 266.08L222.6 266.02L222.56 265.95L222.53 265.88L222.49 265.81L222.47 265.74L222.44 265.66L222.42 265.59L222.4 265.51L222.38 265.43L222.36 265.36L222.35 265.28L222.34 265.19L222.34 265.11L222.34 265.03L222.34 184.07L221.79 184.07L221.69 184.07L221.59 184.06L221.49 184.05L221.4 184.04L221.3 184.02L221.21 184L221.12 183.98L221.03 183.95L220.94 183.92L220.85 183.88L220.76 183.84L220.68 183.8L220.6 183.76L220.52 183.71L220.44 183.66L220.36 183.61L220.29 183.55L220.22 183.49L220.15 183.43L220.08 183.37L220.02 183.3L219.96 183.23L219.9 183.16L219.84 183.09L219.79 183.01L219.74 182.93L219.69 182.85L219.65 182.77L219.6 182.69L219.57 182.6L219.53 182.51L219.5 182.42L219.47 182.33L219.45 182.24L219.43 182.15L219.41 182.05L219.39 181.96L219.39 181.86L219.38 181.76L219.38 181.66L219.38 109.8L219.38 109.7L219.39 109.6L219.39 109.51L219.41 109.41L219.43 109.31L219.45 109.22L219.47 109.13L219.5 109.04L219.53 108.95L219.57 108.86L219.6 108.78L219.65 108.69L219.69 108.61L219.74 108.53L219.79 108.45L219.84 108.38L219.9 108.3L219.96 108.23L220.02 108.16L220.08 108.1L220.15 108.03L220.22 107.97L220.29 107.91L220.36 107.85L220.44 107.8L220.52 107.75L220.6 107.7L220.68 107.66L220.76 107.62L220.85 107.58L220.94 107.54L221.03 107.51L221.12 107.48L221.21 107.46L221.3 107.44L221.4 107.42L221.49 107.41L221.59 107.4L221.69 107.39L221.79 107.39L235.77 107.39L235.77 267.03L224.34 267.03Z" id="c3y5FN64xw"></path></defs><g><g><g><g><filter id="shadow10463718" x="297.16" y="159.2" width="341.05" height="87.85" filterUnits="userSpaceOnUse" primitiveUnits="userSpaceOnUse"><feFlood></feFlood><feComposite in2="SourceAlpha" operator="in"></feComposite><feGaussianBlur stdDeviation="1"></feGaussianBlur><feOffset dx="0" dy="0" result="afterOffset"></feOffset><feFlood flood-color="#000000" flood-opacity="0.5"></feFlood><feComposite in2="afterOffset" operator="in"></feComposite><feMorphology operator="dilate" radius="1"></feMorphology><feComposite in2="SourceAlpha" operator="out"></feComposite></filter><path d="M305.16 203.12C305.16 203.12 305.16 203.12 305.16 203.12C305.16 183.3 320.83 167.2 340.13 167.2C340.13 167.2 595.24 167.2 595.24 167.2C614.55 167.2 630.21 183.3 630.21 203.12C630.21 203.12 630.21 203.12 630.21 203.12C630.21 222.95 614.55 239.05 595.24 239.05C595.24 239.05 340.13 239.05 340.13 239.05C320.83 239.05 305.16 222.95 305.16 203.12Z" id="aH9j3sPIb" fill="white" fill-opacity="1" filter="url(#shadow10463718)"></path></g><use xlink:href="#d1sZuefU1P" opacity="1" fill="#dedede" fill-opacity="1"></use><g><use xlink:href="#d1sZuefU1P" opacity="1" fill-opacity="0" stroke="#000000" stroke-width="1" stroke-opacity="0"></use></g></g><g><g><filter id="shadow16044924" x="22.21" y="47.55" width="565.89" height="139.35" filterUnits="userSpaceOnUse" primitiveUnits="userSpaceOnUse"><feFlood></feFlood><feComposite in2="SourceAlpha" operator="in"></feComposite><feGaussianBlur stdDeviation="1"></feGaussianBlur><feOffset dx="0" dy="0" result="afterOffset"></feOffset><feFlood flood-color="#000000" flood-opacity="0.5"></feFlood><feComposite in2="afterOffset" operator="in"></feComposite><feMorphology operator="dilate" radius="1"></feMorphology><feComposite in2="SourceAlpha" operator="out"></feComposite></filter><path d="M30.21 117.23C30.21 117.23 30.21 117.23 30.21 117.23C30.21 83.18 56.73 55.55 89.38 55.55C89.38 55.55 520.94 55.55 520.94 55.55C553.59 55.55 580.11 83.18 580.11 117.23C580.11 117.23 580.11 117.23 580.11 117.23C580.11 151.27 553.59 178.9 520.94 178.9C520.94 178.9 89.38 178.9 89.38 178.9C56.73 178.9 30.21 151.27 30.21 117.23Z" id="a2kgaekXCM" fill="white" fill-opacity="1" filter="url(#shadow16044924)"></path></g><use xlink:href="#l6D5SUXwEQ" opacity="1" fill="#dedede" fill-opacity="1"></use><g><use xlink:href="#l6D5SUXwEQ" opacity="1" fill-opacity="0" stroke="#000000" stroke-width="1" stroke-opacity="0"></use></g></g><g><g><filter id="shadow2810592" x="102.39" y="225.1" width="405.54" height="105.41" filterUnits="userSpaceOnUse" primitiveUnits="userSpaceOnUse"><feFlood></feFlood><feComposite in2="SourceAlpha" operator="in"></feComposite><feGaussianBlur stdDeviation="1"></feGaussianBlur><feOffset dx="0" dy="0" result="afterOffset"></feOffset><feFlood flood-color="#000000" flood-opacity="0.5"></feFlood><feComposite in2="afterOffset" operator="in"></feComposite><feMorphology operator="dilate" radius="1"></feMorphology><feComposite in2="SourceAlpha" operator="out"></feComposite></filter><path d="M110.39 277.81C110.39 277.81 110.39 277.81 110.39 277.81C110.39 253.14 129.17 233.1 152.3 233.1C152.3 233.1 458.02 233.1 458.02 233.1C481.15 233.1 499.93 253.14 499.93 277.81C499.93 277.81 499.93 277.81 499.93 277.81C499.93 302.48 481.15 322.51 458.02 322.51C458.02 322.51 152.3 322.51 152.3 322.51C129.17 322.51 110.39 302.48 110.39 277.81Z" id="h1RCd43rb" fill="white" fill-opacity="1" filter="url(#shadow2810592)"></path></g><use xlink:href="#a2xz59QGv" opacity="1" fill="#dedede" fill-opacity="1"></use><g><use xlink:href="#a2xz59QGv" opacity="1" fill-opacity="0" stroke="#000000" stroke-width="1" stroke-opacity="0"></use></g></g><g><g><filter id="shadow11403695" x="149.68" y="5.15" width="344.9" height="367.14" filterUnits="userSpaceOnUse" primitiveUnits="userSpaceOnUse"><feFlood></feFlood><feComposite in2="SourceAlpha" operator="in"></feComposite><feGaussianBlur stdDeviation="1"></feGaussianBlur><feOffset dx="0" dy="0" result="afterOffset"></feOffset><feFlood flood-color="#000000" flood-opacity="0.5"></feFlood><feComposite in2="afterOffset" operator="in"></feComposite><feMorphology operator="dilate" radius="1"></feMorphology><feComposite in2="SourceAlpha" operator="out"></feComposite></filter><path d="M322.13 364.29C231.37 364.29 157.68 285.62 157.68 188.72C157.68 91.82 231.37 13.15 322.13 13.15C412.9 13.15 486.58 91.82 486.58 188.72C486.58 285.62 412.9 364.29 322.13 364.29Z" id="b4EBByUqfq" fill="white" fill-opacity="1" filter="url(#shadow11403695)"></path></g><use xlink:href="#h3cQ6RHUd8" opacity="1" fill="#2d2d2d" fill-opacity="1"></use><g><use xlink:href="#h3cQ6RHUd8" opacity="1" fill-opacity="0" stroke="#000000" stroke-width="1" stroke-opacity="0"></use></g></g><g><g><filter id="shadow2130889" x="127.68" y="-16.85" width="388.9" height="411.14" filterUnits="userSpaceOnUse" primitiveUnits="userSpaceOnUse"><feFlood></feFlood><feComposite in2="SourceAlpha" operator="in"></feComposite><feGaussianBlur stdDeviation="3.16"></feGaussianBlur><feOffset dx="0" dy="0" result="afterOffset"></feOffset><feFlood flood-color="#000000" flood-opacity="0.5"></feFlood><feComposite in2="afterOffset" operator="in"></feComposite><feMorphology operator="dilate" radius="5"></feMorphology><feComposite in2="SourceAlpha" operator="out"></feComposite></filter><path d="M322.13 364.29C231.37 364.29 157.68 285.62 157.68 188.72C157.68 91.82 231.37 13.15 322.13 13.15C412.9 13.15 486.58 91.82 486.58 188.72C486.58 285.62 412.9 364.29 322.13 364.29Z" id="chsqEYMcE" fill="white" fill-opacity="1" filter="url(#shadow2130889)"></path></g><use xlink:href="#f294xhNZW1" opacity="1" fill="#000000" fill-opacity="0"></use><g><use xlink:href="#f294xhNZW1" opacity="1" fill-opacity="0" stroke="#dedede" stroke-width="10" stroke-opacity="1"></use></g></g><g><g><use xlink:href="#e7qejA5sy" opacity="1" fill-opacity="0" stroke="#000000" stroke-width="0" stroke-opacity="0"></use></g></g><g><g><filter id="shadow8492852" x="221.28" y="117.32" width="207.1" height="144.61" filterUnits="userSpaceOnUse" primitiveUnits="userSpaceOnUse"><feFlood></feFlood><feComposite in2="SourceAlpha" operator="in"></feComposite><feGaussianBlur stdDeviation="1"></feGaussianBlur><feOffset dx="0" dy="0" result="afterOffset"></feOffset><feFlood flood-color="#000000" flood-opacity="0.5"></feFlood><feComposite in2="afterOffset" operator="in"></feComposite><feMorphology operator="dilate" radius="0"></feMorphology><feComposite in2="SourceAlpha" operator="out"></feComposite></filter><path d="M228.28 254.93L228.28 124.32L421.38 124.32L421.38 254.93L228.28 254.93ZM323.6 211.39L246.38 157.78L246.38 237.52L403.27 237.52L403.27 155.74L323.85 210.88L323.6 211.39ZM323.36 186.09L387.24 141.73L259.47 141.73L323.36 186.09Z" id="d2rTNBpdvX" fill="white" fill-opacity="1" filter="url(#shadow8492852)"></path></g><use xlink:href="#cEMfITcQ6" opacity="1" fill="#dedede" fill-opacity="1"></use></g><g><g><filter id="shadow1797336" x="212.38" y="100.39" width="46.41" height="173.64" filterUnits="userSpaceOnUse" primitiveUnits="userSpaceOnUse"><feFlood></feFlood><feComposite in2="SourceAlpha" operator="in"></feComposite><feGaussianBlur stdDeviation="1"></feGaussianBlur><feOffset dx="0" dy="0" result="afterOffset"></feOffset><feFlood flood-color="#000000" flood-opacity="0.5"></feFlood><feComposite in2="afterOffset" operator="in"></feComposite><feMorphology operator="dilate" radius="0"></feMorphology><feComposite in2="SourceAlpha" operator="out"></feComposite></filter><path d="M249.57 107.4L249.67 107.41L249.77 107.42L249.86 107.44L249.95 107.46L250.05 107.48L250.14 107.51L250.23 107.54L250.31 107.58L250.4 107.62L250.48 107.66L250.57 107.7L250.65 107.75L250.72 107.8L250.8 107.85L250.87 107.91L250.94 107.97L251.01 108.03L251.08 108.1L251.14 108.16L251.21 108.23L251.27 108.3L251.32 108.38L251.37 108.45L251.43 108.53L251.47 108.61L251.52 108.69L251.56 108.78L251.6 108.86L251.63 108.95L251.66 109.04L251.69 109.13L251.72 109.22L251.74 109.31L251.76 109.41L251.77 109.51L251.78 109.6L251.78 109.7L251.79 109.8L251.79 181.66L251.78 181.76L251.78 181.86L251.77 181.96L251.76 182.05L251.74 182.15L251.72 182.24L251.69 182.33L251.66 182.42L251.63 182.51L251.6 182.6L251.56 182.69L251.52 182.77L251.47 182.85L251.43 182.93L251.37 183.01L251.32 183.09L251.27 183.16L251.21 183.23L251.14 183.3L251.08 183.37L251.01 183.43L250.94 183.49L250.87 183.55L250.8 183.61L250.72 183.66L250.65 183.71L250.57 183.76L250.48 183.8L250.4 183.84L250.31 183.88L250.23 183.92L250.14 183.95L250.05 183.98L249.95 184L249.86 184.02L249.77 184.04L249.67 184.05L249.57 184.06L249.47 184.07L249.38 184.07L249.2 184.07L249.2 265.03L249.19 265.11L249.19 265.19L249.18 265.28L249.17 265.36L249.16 265.43L249.14 265.51L249.12 265.59L249.09 265.66L249.07 265.74L249.04 265.81L249.01 265.88L248.97 265.95L248.94 266.02L248.9 266.08L248.86 266.15L248.81 266.21L248.76 266.27L248.72 266.33L248.66 266.39L248.61 266.44L248.56 266.5L248.5 266.55L248.44 266.6L248.38 266.64L248.32 266.69L248.25 266.73L248.18 266.77L248.12 266.81L248.05 266.84L247.98 266.87L247.9 266.9L247.83 266.93L247.75 266.95L247.68 266.97L247.6 266.99L247.52 267L247.44 267.01L247.36 267.02L247.28 267.03L247.2 267.03L224.34 267.03L224.25 267.03L224.17 267.02L224.09 267.01L224.01 267L223.93 266.99L223.86 266.97L223.78 266.95L223.7 266.93L223.63 266.9L223.56 266.87L223.49 266.84L223.42 266.81L223.35 266.77L223.28 266.73L223.22 266.69L223.16 266.64L223.09 266.6L223.04 266.55L222.98 266.5L222.92 266.44L222.87 266.39L222.82 266.33L222.77 266.27L222.72 266.21L222.68 266.15L222.64 266.08L222.6 266.02L222.56 265.95L222.53 265.88L222.49 265.81L222.47 265.74L222.44 265.66L222.42 265.59L222.4 265.51L222.38 265.43L222.36 265.36L222.35 265.28L222.34 265.19L222.34 265.11L222.34 265.03L222.34 184.07L221.79 184.07L221.69 184.07L221.59 184.06L221.49 184.05L221.4 184.04L221.3 184.02L221.21 184L221.12 183.98L221.03 183.95L220.94 183.92L220.85 183.88L220.76 183.84L220.68 183.8L220.6 183.76L220.52 183.71L220.44 183.66L220.36 183.61L220.29 183.55L220.22 183.49L220.15 183.43L220.08 183.37L220.02 183.3L219.96 183.23L219.9 183.16L219.84 183.09L219.79 183.01L219.74 182.93L219.69 182.85L219.65 182.77L219.6 182.69L219.57 182.6L219.53 182.51L219.5 182.42L219.47 182.33L219.45 182.24L219.43 182.15L219.41 182.05L219.39 181.96L219.39 181.86L219.38 181.76L219.38 181.66L219.38 109.8L219.38 109.7L219.39 109.6L219.39 109.51L219.41 109.41L219.43 109.31L219.45 109.22L219.47 109.13L219.5 109.04L219.53 108.95L219.57 108.86L219.6 108.78L219.65 108.69L219.69 108.61L219.74 108.53L219.79 108.45L219.84 108.38L219.9 108.3L219.96 108.23L220.02 108.16L220.08 108.1L220.15 108.03L220.22 107.97L220.29 107.91L220.36 107.85L220.44 107.8L220.52 107.75L220.6 107.7L220.68 107.66L220.76 107.62L220.85 107.58L220.94 107.54L221.03 107.51L221.12 107.48L221.21 107.46L221.3 107.44L221.4 107.42L221.49 107.41L221.59 107.4L221.69 107.39L221.79 107.39L249.38 107.39L249.47 107.39L249.57 107.4Z" id="cb6ar5SB9" fill="white" fill-opacity="1" filter="url(#shadow1797336)"></path></g><use xlink:href="#d8WCkyyh6Z" opacity="1" fill="#7188cf" fill-opacity="1"></use></g><g><g><filter id="shadow4334689" x="212.38" y="170.77" width="46.41" height="20.31" filterUnits="userSpaceOnUse" primitiveUnits="userSpaceOnUse"><feFlood></feFlood><feComposite in2="SourceAlpha" operator="in"></feComposite><feGaussianBlur stdDeviation="1"></feGaussianBlur><feOffset dx="0" dy="0" result="afterOffset"></feOffset><feFlood flood-color="#000000" flood-opacity="0.5"></feFlood><feComposite in2="afterOffset" operator="in"></feComposite><feMorphology operator="dilate" radius="0"></feMorphology><feComposite in2="SourceAlpha" operator="out"></feComposite></filter><path d="M251.78 181.76L251.78 181.86L251.77 181.96L251.76 182.05L251.74 182.15L251.72 182.24L251.69 182.33L251.66 182.42L251.63 182.51L251.6 182.6L251.56 182.69L251.52 182.77L251.47 182.85L251.43 182.93L251.37 183.01L251.32 183.09L251.27 183.16L251.21 183.23L251.14 183.3L251.08 183.37L251.01 183.43L250.94 183.49L250.87 183.55L250.8 183.61L250.72 183.66L250.65 183.71L250.57 183.76L250.48 183.8L250.4 183.84L250.31 183.88L250.23 183.92L250.14 183.95L250.05 183.98L249.95 184L249.86 184.02L249.77 184.04L249.67 184.05L249.57 184.06L249.47 184.07L249.38 184.07L221.79 184.07L221.69 184.07L221.59 184.06L221.49 184.05L221.4 184.04L221.3 184.02L221.21 184L221.12 183.98L221.03 183.95L220.94 183.92L220.85 183.88L220.76 183.84L220.68 183.8L220.6 183.76L220.52 183.71L220.44 183.66L220.36 183.61L220.29 183.55L220.22 183.49L220.15 183.43L220.08 183.37L220.02 183.3L219.96 183.23L219.9 183.16L219.84 183.09L219.79 183.01L219.74 182.93L219.69 182.85L219.65 182.77L219.6 182.69L219.57 182.6L219.53 182.51L219.5 182.42L219.47 182.33L219.45 182.24L219.43 182.15L219.41 182.05L219.39 181.96L219.39 181.86L219.38 181.76L219.38 181.66L219.38 177.77L251.79 177.77L251.79 181.66L251.78 181.76Z" id="a1bEnGpkea" fill="white" fill-opacity="1" filter="url(#shadow4334689)"></path></g><use xlink:href="#b453PirPXV" opacity="1" fill="#c8c8c8" fill-opacity="1"></use></g><g><g><filter id="shadow2245080" x="223.96" y="105.6" width="23.62" height="71.73" filterUnits="userSpaceOnUse" primitiveUnits="userSpaceOnUse"><feFlood></feFlood><feComposite in2="SourceAlpha" operator="in"></feComposite><feGaussianBlur stdDeviation="1"></feGaussianBlur><feOffset dx="0" dy="0" result="afterOffset"></feOffset><feFlood flood-color="#000000" flood-opacity="0.5"></feFlood><feComposite in2="afterOffset" operator="in"></feComposite><feMorphology operator="dilate" radius="0"></feMorphology><feComposite in2="SourceAlpha" operator="out"></feComposite></filter><path d="M236.55 112.64L236.85 112.69L237.13 112.76L237.41 112.84L237.69 112.94L237.95 113.06L238.2 113.19L238.45 113.33L238.68 113.5L238.91 113.67L239.12 113.86L239.32 114.06L239.51 114.27L239.68 114.5L239.85 114.73L239.99 114.98L240.12 115.23L240.24 115.5L240.34 115.77L240.42 116.05L240.49 116.33L240.54 116.63L240.57 116.92L240.58 117.23L240.58 165.7L240.57 166.01L240.54 166.31L240.49 166.6L240.42 166.89L240.34 167.17L240.24 167.44L240.12 167.7L239.99 167.96L239.85 168.2L239.68 168.44L239.51 168.66L239.32 168.87L239.12 169.07L238.91 169.26L238.68 169.44L238.45 169.6L238.2 169.74L237.95 169.88L237.69 169.99L237.41 170.09L237.13 170.18L236.85 170.24L236.55 170.29L236.26 170.32L235.95 170.33L235.58 170.33L235.28 170.32L234.98 170.29L234.69 170.24L234.4 170.18L234.12 170.09L233.85 169.99L233.58 169.88L233.33 169.74L233.09 169.6L232.85 169.44L232.63 169.26L232.41 169.07L232.21 168.87L232.02 168.66L231.85 168.44L231.69 168.2L231.54 167.96L231.41 167.7L231.29 167.44L231.19 167.17L231.11 166.89L231.04 166.6L231 166.31L230.97 166.01L230.96 165.7L230.96 117.23L230.97 116.92L231 116.63L231.04 116.33L231.11 116.05L231.19 115.77L231.29 115.5L231.41 115.23L231.54 114.98L231.69 114.73L231.85 114.5L232.02 114.27L232.21 114.06L232.41 113.86L232.63 113.67L232.85 113.5L233.09 113.33L233.33 113.19L233.58 113.06L233.85 112.94L234.12 112.84L234.4 112.76L234.69 112.69L234.98 112.64L235.28 112.61L235.58 112.6L235.95 112.6L236.26 112.61L236.55 112.64ZM233.4 155.98L233.1 156.48L232.99 157.08L233.43 158.64L234.38 159.76L235.33 160.45L235.77 160.71L236.2 160.45L237.15 159.76L238.11 158.64L238.54 157.08L238.43 156.48L238.14 155.98L237.69 155.65L237.15 155.53L236.61 155.64L236.17 155.94L235.88 156.4L235.77 157L235.66 156.4L235.36 155.94L234.92 155.64L234.38 155.53L233.84 155.65L233.4 155.98Z" id="b6nW4LD860" fill="white" fill-opacity="1" filter="url(#shadow2245080)"></path></g><use xlink:href="#a1wqCijpsS" opacity="1" fill="#c8c8c8" fill-opacity="1"></use></g><g><use xlink:href="#c3y5FN64xw" opacity="1" fill="#ffffff" fill-opacity="0.17"></use></g></g></g></svg>