<?xml version="1.0" encoding="UTF-8" standalone="no"?>
<!DOCTYPE svg PUBLIC "-//W3C//DTD SVG 1.1//EN" "http://www.w3.org/Graphics/SVG/1.1/DTD/svg11.dtd">
<svg version="1.1" xmlns="http://www.w3.org/2000/svg" xmlns:xlink="http://www.w3.org/1999/xlink" preserveAspectRatio="xMidYMid meet" viewBox="0 0 220 147.95" width="220" height="147.95"><defs><path d="M24.59 134.64L24.59 17.64L197.55 17.64L197.55 134.64L24.59 134.64ZM109.98 95.64L40.81 47.61L40.81 119.04L181.34 119.04L181.34 45.78L110.2 95.18L109.98 95.64ZM109.76 72.97L166.98 33.24L52.53 33.24L109.76 72.97Z" id="bU0d7dyOI"></path><path d="M43.67 2.48L43.77 2.49L43.86 2.51L43.95 2.52L44.03 2.54L44.12 2.57L44.2 2.6L44.29 2.63L44.37 2.66L44.45 2.7L44.53 2.74L44.6 2.78L44.68 2.83L44.75 2.88L44.82 2.93L44.89 2.99L44.95 3.05L45.02 3.11L45.08 3.17L45.13 3.24L45.19 3.3L45.24 3.37L45.29 3.45L45.34 3.52L45.38 3.6L45.42 3.67L45.46 3.75L45.5 3.84L45.53 3.92L45.55 4L45.58 4.09L45.6 4.18L45.62 4.27L45.63 4.36L45.64 4.45L45.65 4.54L45.65 4.63L45.65 69.01L45.65 69.1L45.64 69.19L45.63 69.28L45.62 69.37L45.6 69.46L45.58 69.55L45.55 69.64L45.53 69.72L45.5 69.8L45.46 69.89L45.42 69.97L45.38 70.04L45.34 70.12L45.29 70.19L45.24 70.27L45.19 70.34L45.13 70.4L45.08 70.47L45.02 70.53L44.95 70.59L44.89 70.65L44.82 70.71L44.75 70.76L44.68 70.81L44.6 70.86L44.53 70.9L44.45 70.94L44.37 70.98L44.29 71.01L44.2 71.04L44.12 71.07L44.03 71.1L43.95 71.12L43.86 71.13L43.77 71.15L43.67 71.16L43.58 71.16L43.49 71.17L43.33 71.17L43.33 143.68L43.33 143.76L43.32 143.83L43.32 143.9L43.31 143.98L43.29 144.05L43.28 144.12L43.26 144.18L43.24 144.25L43.21 144.32L43.19 144.38L43.16 144.45L43.13 144.51L43.1 144.57L43.06 144.63L43.02 144.69L42.98 144.74L42.94 144.8L42.9 144.85L42.85 144.9L42.8 144.95L42.75 145L42.7 145.04L42.65 145.09L42.6 145.13L42.54 145.17L42.48 145.21L42.42 145.24L42.36 145.28L42.3 145.31L42.24 145.33L42.17 145.36L42.1 145.38L42.04 145.4L41.97 145.42L41.9 145.44L41.83 145.45L41.76 145.46L41.69 145.47L41.61 145.47L41.54 145.47L21.06 145.47L20.99 145.47L20.91 145.47L20.84 145.46L20.77 145.45L20.7 145.44L20.63 145.42L20.56 145.4L20.49 145.38L20.43 145.36L20.36 145.33L20.3 145.31L20.24 145.28L20.18 145.24L20.12 145.21L20.06 145.17L20 145.13L19.95 145.09L19.89 145.04L19.84 145L19.79 144.95L19.75 144.9L19.7 144.85L19.66 144.8L19.62 144.74L19.58 144.69L19.54 144.63L19.5 144.57L19.47 144.51L19.44 144.45L19.41 144.38L19.38 144.32L19.36 144.25L19.34 144.18L19.32 144.12L19.31 144.05L19.29 143.98L19.28 143.9L19.28 143.83L19.27 143.76L19.27 143.68L19.27 71.17L18.78 71.17L18.68 71.16L18.59 71.16L18.5 71.15L18.41 71.13L18.32 71.12L18.23 71.1L18.15 71.07L18.06 71.04L17.98 71.01L17.9 70.98L17.82 70.94L17.74 70.9L17.66 70.86L17.59 70.81L17.52 70.76L17.45 70.71L17.38 70.65L17.31 70.59L17.25 70.53L17.19 70.47L17.13 70.4L17.08 70.34L17.02 70.27L16.98 70.19L16.93 70.12L16.88 70.04L16.84 69.97L16.81 69.89L16.77 69.8L16.74 69.72L16.71 69.64L16.69 69.55L16.67 69.46L16.65 69.37L16.64 69.28L16.63 69.19L16.62 69.1L16.62 69.01L16.62 4.63L16.62 4.54L16.63 4.45L16.64 4.36L16.65 4.27L16.67 4.18L16.69 4.09L16.71 4L16.74 3.92L16.77 3.84L16.81 3.75L16.84 3.67L16.88 3.6L16.93 3.52L16.98 3.45L17.02 3.37L17.08 3.3L17.13 3.24L17.19 3.17L17.25 3.11L17.31 3.05L17.38 2.99L17.45 2.93L17.52 2.88L17.59 2.83L17.66 2.78L17.74 2.74L17.82 2.7L17.9 2.66L17.98 2.63L18.06 2.6L18.15 2.57L18.23 2.54L18.32 2.52L18.41 2.51L18.5 2.49L18.59 2.48L18.68 2.48L18.78 2.48L43.49 2.48L43.58 2.48L43.67 2.48Z" id="akwUPK7pr"></path><path d="M45.65 69.1L45.64 69.19L45.63 69.28L45.62 69.37L45.6 69.46L45.58 69.55L45.55 69.64L45.53 69.72L45.5 69.8L45.46 69.89L45.42 69.97L45.38 70.04L45.34 70.12L45.29 70.19L45.24 70.27L45.19 70.34L45.13 70.4L45.08 70.47L45.02 70.53L44.95 70.59L44.89 70.65L44.82 70.71L44.75 70.76L44.68 70.81L44.6 70.86L44.53 70.9L44.45 70.94L44.37 70.98L44.29 71.01L44.2 71.04L44.12 71.07L44.03 71.1L43.95 71.12L43.86 71.13L43.77 71.15L43.67 71.16L43.58 71.16L43.49 71.17L18.78 71.17L18.68 71.16L18.59 71.16L18.5 71.15L18.41 71.13L18.32 71.12L18.23 71.1L18.15 71.07L18.06 71.04L17.98 71.01L17.9 70.98L17.82 70.94L17.74 70.9L17.66 70.86L17.59 70.81L17.52 70.76L17.45 70.71L17.38 70.65L17.31 70.59L17.25 70.53L17.19 70.47L17.13 70.4L17.08 70.34L17.02 70.27L16.98 70.19L16.93 70.12L16.88 70.04L16.84 69.97L16.81 69.89L16.77 69.8L16.74 69.72L16.71 69.64L16.69 69.55L16.67 69.46L16.65 69.37L16.64 69.28L16.63 69.19L16.62 69.1L16.62 69.01L16.62 65.52L45.65 65.52L45.65 69.01L45.65 69.1Z" id="aFZbbL5p0"></path><path d="M32.08 7.19L32.37 7.25L32.66 7.32L32.94 7.42L33.21 7.53L33.47 7.66L33.72 7.81L33.96 7.98L34.18 8.16L34.39 8.36L34.59 8.57L34.77 8.8L34.94 9.03L35.09 9.28L35.22 9.54L35.34 9.81L35.43 10.09L35.51 10.38L35.56 10.68L35.6 10.98L35.61 11.29L35.61 54.71L35.6 55.02L35.56 55.32L35.51 55.62L35.43 55.91L35.34 56.19L35.22 56.46L35.09 56.72L34.94 56.97L34.77 57.2L34.59 57.43L34.39 57.64L34.18 57.84L33.96 58.02L33.72 58.19L33.47 58.34L33.21 58.47L32.94 58.58L32.66 58.68L32.37 58.75L32.08 58.81L31.77 58.84L31.46 58.85L31.13 58.85L30.82 58.84L30.52 58.81L30.23 58.75L29.94 58.68L29.66 58.58L29.39 58.47L29.13 58.34L28.88 58.19L28.64 58.02L28.42 57.84L28.2 57.64L28.01 57.43L27.82 57.2L27.66 56.97L27.51 56.72L27.38 56.46L27.26 56.19L27.17 55.91L27.09 55.62L27.04 55.32L27 55.02L26.99 54.71L26.99 11.29L27 10.98L27.04 10.68L27.09 10.38L27.17 10.09L27.26 9.81L27.38 9.54L27.51 9.28L27.66 9.03L27.82 8.8L28.01 8.57L28.2 8.36L28.42 8.16L28.64 7.98L28.88 7.81L29.13 7.66L29.39 7.53L29.66 7.42L29.94 7.32L30.23 7.25L30.52 7.19L30.82 7.16L31.13 7.15L31.46 7.15L31.77 7.16L32.08 7.19ZM29.18 46L28.91 46.45L28.81 46.99L29.2 48.39L30.06 49.39L30.91 50L31.3 50.24L31.69 50L32.54 49.39L33.4 48.39L33.78 46.99L33.69 46.45L33.42 46L33.03 45.71L32.54 45.6L32.06 45.69L31.66 45.96L31.4 46.38L31.3 46.91L31.2 46.38L30.94 45.96L30.54 45.69L30.06 45.6L29.57 45.7L29.18 46Z" id="aeCJj7LyR"></path><path d="M21.06 145.48L20.99 145.47L20.91 145.47L20.84 145.46L20.77 145.45L20.7 145.44L20.63 145.42L20.56 145.4L20.49 145.38L20.43 145.36L20.36 145.33L20.3 145.31L20.24 145.28L20.18 145.24L20.12 145.21L20.06 145.17L20 145.13L19.95 145.09L19.89 145.04L19.84 145L19.79 144.95L19.75 144.9L19.7 144.85L19.66 144.8L19.62 144.74L19.58 144.69L19.54 144.63L19.5 144.57L19.47 144.51L19.44 144.45L19.41 144.38L19.38 144.32L19.36 144.25L19.34 144.18L19.32 144.12L19.31 144.05L19.29 143.98L19.28 143.9L19.28 143.83L19.27 143.76L19.27 143.68L19.27 71.17L18.78 71.17L18.68 71.16L18.59 71.16L18.5 71.15L18.41 71.13L18.32 71.12L18.23 71.1L18.15 71.07L18.06 71.04L17.98 71.01L17.9 70.98L17.82 70.94L17.74 70.9L17.66 70.86L17.59 70.81L17.52 70.76L17.45 70.71L17.38 70.65L17.31 70.59L17.25 70.53L17.19 70.47L17.13 70.4L17.08 70.34L17.02 70.27L16.98 70.19L16.93 70.12L16.88 70.04L16.84 69.97L16.81 69.89L16.77 69.8L16.74 69.72L16.71 69.64L16.69 69.55L16.67 69.46L16.65 69.37L16.64 69.28L16.63 69.19L16.62 69.1L16.62 69.01L16.62 4.63L16.62 4.54L16.63 4.45L16.64 4.36L16.65 4.27L16.67 4.18L16.69 4.09L16.71 4L16.74 3.92L16.77 3.84L16.81 3.75L16.84 3.67L16.88 3.6L16.93 3.52L16.98 3.45L17.02 3.37L17.08 3.3L17.13 3.24L17.19 3.17L17.25 3.11L17.31 3.05L17.38 2.99L17.45 2.93L17.52 2.88L17.59 2.83L17.66 2.78L17.74 2.74L17.82 2.7L17.9 2.66L17.98 2.63L18.06 2.6L18.15 2.57L18.23 2.54L18.32 2.52L18.41 2.51L18.5 2.49L18.59 2.48L18.68 2.48L18.78 2.48L31.3 2.48L31.3 145.48L21.06 145.48Z" id="buWrzogYR"></path></defs><g><g><g><g><filter id="shadow8220583" x="17.59" y="10.64" width="186.96" height="131" filterUnits="userSpaceOnUse" primitiveUnits="userSpaceOnUse"><feFlood></feFlood><feComposite in2="SourceAlpha" operator="in"></feComposite><feGaussianBlur stdDeviation="1"></feGaussianBlur><feOffset dx="0" dy="0" result="afterOffset"></feOffset><feFlood flood-color="#000000" flood-opacity="0.5"></feFlood><feComposite in2="afterOffset" operator="in"></feComposite><feMorphology operator="dilate" radius="0"></feMorphology><feComposite in2="SourceAlpha" operator="out"></feComposite></filter><path d="M24.59 134.64L24.59 17.64L197.55 17.64L197.55 134.64L24.59 134.64ZM109.98 95.64L40.81 47.61L40.81 119.04L181.34 119.04L181.34 45.78L110.2 95.18L109.98 95.64ZM109.76 72.97L166.98 33.24L52.53 33.24L109.76 72.97Z" id="a3f58k8RlP" fill="white" fill-opacity="1" filter="url(#shadow8220583)"></path></g><use xlink:href="#bU0d7dyOI" opacity="1" fill="#dedede" fill-opacity="1"></use></g><g><g><filter id="shadow3772593" x="9.62" y="-4.52" width="43.03" height="157" filterUnits="userSpaceOnUse" primitiveUnits="userSpaceOnUse"><feFlood></feFlood><feComposite in2="SourceAlpha" operator="in"></feComposite><feGaussianBlur stdDeviation="1"></feGaussianBlur><feOffset dx="0" dy="0" result="afterOffset"></feOffset><feFlood flood-color="#000000" flood-opacity="0.5"></feFlood><feComposite in2="afterOffset" operator="in"></feComposite><feMorphology operator="dilate" radius="0"></feMorphology><feComposite in2="SourceAlpha" operator="out"></feComposite></filter><path d="M43.67 2.48L43.77 2.49L43.86 2.51L43.95 2.52L44.03 2.54L44.12 2.57L44.2 2.6L44.29 2.63L44.37 2.66L44.45 2.7L44.53 2.74L44.6 2.78L44.68 2.83L44.75 2.88L44.82 2.93L44.89 2.99L44.95 3.05L45.02 3.11L45.08 3.17L45.13 3.24L45.19 3.3L45.24 3.37L45.29 3.45L45.34 3.52L45.38 3.6L45.42 3.67L45.46 3.75L45.5 3.84L45.53 3.92L45.55 4L45.58 4.09L45.6 4.18L45.62 4.27L45.63 4.36L45.64 4.45L45.65 4.54L45.65 4.63L45.65 69.01L45.65 69.1L45.64 69.19L45.63 69.28L45.62 69.37L45.6 69.46L45.58 69.55L45.55 69.64L45.53 69.72L45.5 69.8L45.46 69.89L45.42 69.97L45.38 70.04L45.34 70.12L45.29 70.19L45.24 70.27L45.19 70.34L45.13 70.4L45.08 70.47L45.02 70.53L44.95 70.59L44.89 70.65L44.82 70.71L44.75 70.76L44.68 70.81L44.6 70.86L44.53 70.9L44.45 70.94L44.37 70.98L44.29 71.01L44.2 71.04L44.12 71.07L44.03 71.1L43.95 71.12L43.86 71.13L43.77 71.15L43.67 71.16L43.58 71.16L43.49 71.17L43.33 71.17L43.33 143.68L43.33 143.76L43.32 143.83L43.32 143.9L43.31 143.98L43.29 144.05L43.28 144.12L43.26 144.18L43.24 144.25L43.21 144.32L43.19 144.38L43.16 144.45L43.13 144.51L43.1 144.57L43.06 144.63L43.02 144.69L42.98 144.74L42.94 144.8L42.9 144.85L42.85 144.9L42.8 144.95L42.75 145L42.7 145.04L42.65 145.09L42.6 145.13L42.54 145.17L42.48 145.21L42.42 145.24L42.36 145.28L42.3 145.31L42.24 145.33L42.17 145.36L42.1 145.38L42.04 145.4L41.97 145.42L41.9 145.44L41.83 145.45L41.76 145.46L41.69 145.47L41.61 145.47L41.54 145.47L21.06 145.47L20.99 145.47L20.91 145.47L20.84 145.46L20.77 145.45L20.7 145.44L20.63 145.42L20.56 145.4L20.49 145.38L20.43 145.36L20.36 145.33L20.3 145.31L20.24 145.28L20.18 145.24L20.12 145.21L20.06 145.17L20 145.13L19.95 145.09L19.89 145.04L19.84 145L19.79 144.95L19.75 144.9L19.7 144.85L19.66 144.8L19.62 144.74L19.58 144.69L19.54 144.63L19.5 144.57L19.47 144.51L19.44 144.45L19.41 144.38L19.38 144.32L19.36 144.25L19.34 144.18L19.32 144.12L19.31 144.05L19.29 143.98L19.28 143.9L19.28 143.83L19.27 143.76L19.27 143.68L19.27 71.17L18.78 71.17L18.68 71.16L18.59 71.16L18.5 71.15L18.41 71.13L18.32 71.12L18.23 71.1L18.15 71.07L18.06 71.04L17.98 71.01L17.9 70.98L17.82 70.94L17.74 70.9L17.66 70.86L17.59 70.81L17.52 70.76L17.45 70.71L17.38 70.65L17.31 70.59L17.25 70.53L17.19 70.47L17.13 70.4L17.08 70.34L17.02 70.27L16.98 70.19L16.93 70.12L16.88 70.04L16.84 69.97L16.81 69.89L16.77 69.8L16.74 69.72L16.71 69.64L16.69 69.55L16.67 69.46L16.65 69.37L16.64 69.28L16.63 69.19L16.62 69.1L16.62 69.01L16.62 4.63L16.62 4.54L16.63 4.45L16.64 4.36L16.65 4.27L16.67 4.18L16.69 4.09L16.71 4L16.74 3.92L16.77 3.84L16.81 3.75L16.84 3.67L16.88 3.6L16.93 3.52L16.98 3.45L17.02 3.37L17.08 3.3L17.13 3.24L17.19 3.17L17.25 3.11L17.31 3.05L17.38 2.99L17.45 2.93L17.52 2.88L17.59 2.83L17.66 2.78L17.74 2.74L17.82 2.7L17.9 2.66L17.98 2.63L18.06 2.6L18.15 2.57L18.23 2.54L18.32 2.52L18.41 2.51L18.5 2.49L18.59 2.48L18.68 2.48L18.78 2.48L43.49 2.48L43.58 2.48L43.67 2.48Z" id="d1K64zbkl6" fill="white" fill-opacity="1" filter="url(#shadow3772593)"></path></g><use xlink:href="#akwUPK7pr" opacity="1" fill="#7188cf" fill-opacity="1"></use></g><g><g><filter id="shadow9305690" x="9.62" y="58.52" width="43.03" height="19.65" filterUnits="userSpaceOnUse" primitiveUnits="userSpaceOnUse"><feFlood></feFlood><feComposite in2="SourceAlpha" operator="in"></feComposite><feGaussianBlur stdDeviation="1"></feGaussianBlur><feOffset dx="0" dy="0" result="afterOffset"></feOffset><feFlood flood-color="#000000" flood-opacity="0.5"></feFlood><feComposite in2="afterOffset" operator="in"></feComposite><feMorphology operator="dilate" radius="0"></feMorphology><feComposite in2="SourceAlpha" operator="out"></feComposite></filter><path d="M45.65 69.1L45.64 69.19L45.63 69.28L45.62 69.37L45.6 69.46L45.58 69.55L45.55 69.64L45.53 69.72L45.5 69.8L45.46 69.89L45.42 69.97L45.38 70.04L45.34 70.12L45.29 70.19L45.24 70.27L45.19 70.34L45.13 70.4L45.08 70.47L45.02 70.53L44.95 70.59L44.89 70.65L44.82 70.71L44.75 70.76L44.68 70.81L44.6 70.86L44.53 70.9L44.45 70.94L44.37 70.98L44.29 71.01L44.2 71.04L44.12 71.07L44.03 71.1L43.95 71.12L43.86 71.13L43.77 71.15L43.67 71.16L43.58 71.16L43.49 71.17L18.78 71.17L18.68 71.16L18.59 71.16L18.5 71.15L18.41 71.13L18.32 71.12L18.23 71.1L18.15 71.07L18.06 71.04L17.98 71.01L17.9 70.98L17.82 70.94L17.74 70.9L17.66 70.86L17.59 70.81L17.52 70.76L17.45 70.71L17.38 70.65L17.31 70.59L17.25 70.53L17.19 70.47L17.13 70.4L17.08 70.34L17.02 70.27L16.98 70.19L16.93 70.12L16.88 70.04L16.84 69.97L16.81 69.89L16.77 69.8L16.74 69.72L16.71 69.64L16.69 69.55L16.67 69.46L16.65 69.37L16.64 69.28L16.63 69.19L16.62 69.1L16.62 69.01L16.62 65.52L45.65 65.52L45.65 69.01L45.65 69.1Z" id="a2uaHL1WyU" fill="white" fill-opacity="1" filter="url(#shadow9305690)"></path></g><use xlink:href="#aFZbbL5p0" opacity="1" fill="#c8c8c8" fill-opacity="1"></use></g><g><g><filter id="shadow11198185" x="19.99" y="0.15" width="22.62" height="65.71" filterUnits="userSpaceOnUse" primitiveUnits="userSpaceOnUse"><feFlood></feFlood><feComposite in2="SourceAlpha" operator="in"></feComposite><feGaussianBlur stdDeviation="1"></feGaussianBlur><feOffset dx="0" dy="0" result="afterOffset"></feOffset><feFlood flood-color="#000000" flood-opacity="0.5"></feFlood><feComposite in2="afterOffset" operator="in"></feComposite><feMorphology operator="dilate" radius="0"></feMorphology><feComposite in2="SourceAlpha" operator="out"></feComposite></filter><path d="M32.08 7.19L32.37 7.25L32.66 7.32L32.94 7.42L33.21 7.53L33.47 7.66L33.72 7.81L33.96 7.98L34.18 8.16L34.39 8.36L34.59 8.57L34.77 8.8L34.94 9.03L35.09 9.28L35.22 9.54L35.34 9.81L35.43 10.09L35.51 10.38L35.56 10.68L35.6 10.98L35.61 11.29L35.61 54.71L35.6 55.02L35.56 55.32L35.51 55.62L35.43 55.91L35.34 56.19L35.22 56.46L35.09 56.72L34.94 56.97L34.77 57.2L34.59 57.43L34.39 57.64L34.18 57.84L33.96 58.02L33.72 58.19L33.47 58.34L33.21 58.47L32.94 58.58L32.66 58.68L32.37 58.75L32.08 58.81L31.77 58.84L31.46 58.85L31.13 58.85L30.82 58.84L30.52 58.81L30.23 58.75L29.94 58.68L29.66 58.58L29.39 58.47L29.13 58.34L28.88 58.19L28.64 58.02L28.42 57.84L28.2 57.64L28.01 57.43L27.82 57.2L27.66 56.97L27.51 56.72L27.38 56.46L27.26 56.19L27.17 55.91L27.09 55.62L27.04 55.32L27 55.02L26.99 54.71L26.99 11.29L27 10.98L27.04 10.68L27.09 10.38L27.17 10.09L27.26 9.81L27.38 9.54L27.51 9.28L27.66 9.03L27.82 8.8L28.01 8.57L28.2 8.36L28.42 8.16L28.64 7.98L28.88 7.81L29.13 7.66L29.39 7.53L29.66 7.42L29.94 7.32L30.23 7.25L30.52 7.19L30.82 7.16L31.13 7.15L31.46 7.15L31.77 7.16L32.08 7.19ZM29.18 46L28.91 46.45L28.81 46.99L29.2 48.39L30.06 49.39L30.91 50L31.3 50.24L31.69 50L32.54 49.39L33.4 48.39L33.78 46.99L33.69 46.45L33.42 46L33.03 45.71L32.54 45.6L32.06 45.69L31.66 45.96L31.4 46.38L31.3 46.91L31.2 46.38L30.94 45.96L30.54 45.69L30.06 45.6L29.57 45.7L29.18 46Z" id="b6sCJUJjkt" fill="white" fill-opacity="1" filter="url(#shadow11198185)"></path></g><use xlink:href="#aeCJj7LyR" opacity="1" fill="#c8c8c8" fill-opacity="1"></use></g><g><use xlink:href="#buWrzogYR" opacity="1" fill="#ffffff" fill-opacity="0.17"></use></g></g></g></svg>