<?xml version="1.0" encoding="UTF-8" standalone="no"?>
<!DOCTYPE svg PUBLIC "-//W3C//DTD SVG 1.1//EN" "http://www.w3.org/Graphics/SVG/1.1/DTD/svg11.dtd">
<svg version="1.1" xmlns="http://www.w3.org/2000/svg" xmlns:xlink="http://www.w3.org/1999/xlink" preserveAspectRatio="xMidYMid meet" viewBox="0 0 640 381" width="640" height="381"><defs><path d="M305.16 203.12C305.16 203.12 305.16 203.12 305.16 203.12C305.16 183.3 320.83 167.2 340.13 167.2C340.13 167.2 595.24 167.2 595.24 167.2C614.55 167.2 630.21 183.3 630.21 203.12C630.21 203.12 630.21 203.12 630.21 203.12C630.21 222.95 614.55 239.05 595.24 239.05C595.24 239.05 340.13 239.05 340.13 239.05C320.83 239.05 305.16 222.95 305.16 203.12Z" id="f957ets0e"></path><path d="M30.21 117.23C30.21 117.23 30.21 117.23 30.21 117.23C30.21 83.18 56.73 55.55 89.38 55.55C89.38 55.55 520.94 55.55 520.94 55.55C553.59 55.55 580.11 83.18 580.11 117.23C580.11 117.23 580.11 117.23 580.11 117.23C580.11 151.27 553.59 178.9 520.94 178.9C520.94 178.9 89.38 178.9 89.38 178.9C56.73 178.9 30.21 151.27 30.21 117.23Z" id="ftJOyCbbj"></path><path d="M110.39 277.81C110.39 277.81 110.39 277.81 110.39 277.81C110.39 253.14 129.17 233.1 152.3 233.1C152.3 233.1 458.02 233.1 458.02 233.1C481.15 233.1 499.93 253.14 499.93 277.81C499.93 277.81 499.93 277.81 499.93 277.81C499.93 302.48 481.15 322.51 458.02 322.51C458.02 322.51 152.3 322.51 152.3 322.51C129.17 322.51 110.39 302.48 110.39 277.81Z" id="csJHJpOQj"></path><path d="M322.13 364.29C231.37 364.29 157.68 285.62 157.68 188.72C157.68 91.82 231.37 13.15 322.13 13.15C412.9 13.15 486.58 91.82 486.58 188.72C486.58 285.62 412.9 364.29 322.13 364.29Z" id="bqg8wtRer"></path><path d="M322.13 364.29C231.37 364.29 157.68 285.62 157.68 188.72C157.68 91.82 231.37 13.15 322.13 13.15C412.9 13.15 486.58 91.82 486.58 188.72C486.58 285.62 412.9 364.29 322.13 364.29Z" id="b2IaMVkGnk"></path><path d="" id="anBsd6ava"></path><path d="M237.51 239.56L237.51 122.56L410.47 122.56L410.47 239.56L237.51 239.56ZM322.89 200.56L253.72 152.54L253.72 223.96L394.25 223.96L394.25 150.71L323.11 200.11L322.89 200.56ZM322.67 177.9L379.89 138.16L265.44 138.16L322.67 177.9Z" id="bVnvDQNn"></path><path d="M256.59 107.41L256.68 107.42L256.77 107.43L256.86 107.45L256.95 107.47L257.03 107.5L257.12 107.52L257.2 107.56L257.28 107.59L257.36 107.63L257.44 107.67L257.52 107.71L257.59 107.76L257.66 107.81L257.73 107.86L257.8 107.92L257.87 107.97L257.93 108.03L257.99 108.1L258.05 108.16L258.1 108.23L258.16 108.3L258.21 108.37L258.25 108.45L258.3 108.52L258.34 108.6L258.37 108.68L258.41 108.76L258.44 108.85L258.47 108.93L258.49 109.02L258.51 109.1L258.53 109.19L258.54 109.28L258.55 109.38L258.56 109.47L258.56 109.56L258.56 173.93L258.56 174.03L258.55 174.12L258.54 174.21L258.53 174.3L258.51 174.39L258.49 174.48L258.47 174.56L258.44 174.65L258.41 174.73L258.37 174.81L258.34 174.89L258.3 174.97L258.25 175.05L258.21 175.12L258.16 175.19L258.1 175.26L258.05 175.33L257.99 175.4L257.93 175.46L257.87 175.52L257.8 175.58L257.73 175.63L257.66 175.69L257.59 175.74L257.52 175.78L257.44 175.83L257.36 175.87L257.28 175.9L257.2 175.94L257.12 175.97L257.03 176L256.95 176.02L256.86 176.04L256.77 176.06L256.68 176.07L256.59 176.08L256.5 176.09L256.4 176.09L256.24 176.09L256.24 248.61L256.24 248.69L256.24 248.76L256.23 248.83L256.22 248.9L256.21 248.97L256.19 249.04L256.17 249.11L256.15 249.18L256.13 249.24L256.1 249.31L256.07 249.37L256.04 249.43L256.01 249.5L255.97 249.56L255.94 249.61L255.9 249.67L255.85 249.72L255.81 249.78L255.77 249.83L255.72 249.88L255.67 249.93L255.62 249.97L255.56 250.02L255.51 250.06L255.45 250.1L255.39 250.13L255.34 250.17L255.27 250.2L255.21 250.23L255.15 250.26L255.08 250.29L255.02 250.31L254.95 250.33L254.88 250.35L254.81 250.37L254.74 250.38L254.67 250.39L254.6 250.4L254.53 250.4L254.45 250.4L233.97 250.4L233.9 250.4L233.83 250.4L233.75 250.39L233.68 250.38L233.61 250.37L233.54 250.35L233.47 250.33L233.41 250.31L233.34 250.29L233.28 250.26L233.21 250.23L233.15 250.2L233.09 250.17L233.03 250.13L232.97 250.1L232.92 250.06L232.86 250.02L232.81 249.97L232.76 249.93L232.71 249.88L232.66 249.83L232.61 249.78L232.57 249.72L232.53 249.67L232.49 249.61L232.45 249.56L232.42 249.5L232.38 249.43L232.35 249.37L232.32 249.31L232.3 249.24L232.27 249.18L232.25 249.11L232.24 249.04L232.22 248.97L232.21 248.9L232.2 248.83L232.19 248.76L232.18 248.69L232.18 248.61L232.18 176.09L231.69 176.09L231.6 176.09L231.51 176.08L231.41 176.07L231.32 176.06L231.23 176.04L231.15 176.02L231.06 176L230.98 175.97L230.89 175.94L230.81 175.9L230.73 175.87L230.65 175.83L230.58 175.78L230.5 175.74L230.43 175.69L230.36 175.63L230.29 175.58L230.23 175.52L230.16 175.46L230.1 175.4L230.05 175.33L229.99 175.26L229.94 175.19L229.89 175.12L229.84 175.05L229.8 174.97L229.76 174.89L229.72 174.81L229.68 174.73L229.65 174.65L229.63 174.56L229.6 174.48L229.58 174.39L229.56 174.3L229.55 174.21L229.54 174.12L229.53 174.03L229.53 173.93L229.53 109.56L229.53 109.47L229.54 109.38L229.55 109.28L229.56 109.19L229.58 109.1L229.6 109.02L229.63 108.93L229.65 108.85L229.68 108.76L229.72 108.68L229.76 108.6L229.8 108.52L229.84 108.45L229.89 108.37L229.94 108.3L229.99 108.23L230.05 108.16L230.1 108.1L230.16 108.03L230.23 107.97L230.29 107.92L230.36 107.86L230.43 107.81L230.5 107.76L230.58 107.71L230.65 107.67L230.73 107.63L230.81 107.59L230.89 107.56L230.98 107.52L231.06 107.5L231.15 107.47L231.23 107.45L231.32 107.43L231.41 107.42L231.51 107.41L231.6 107.4L231.69 107.4L256.4 107.4L256.5 107.4L256.59 107.41Z" id="b11o66iWVW"></path><path d="M258.56 174.03L258.55 174.12L258.54 174.21L258.53 174.3L258.51 174.39L258.49 174.48L258.47 174.56L258.44 174.65L258.41 174.73L258.37 174.81L258.34 174.89L258.3 174.97L258.25 175.05L258.21 175.12L258.16 175.19L258.1 175.26L258.05 175.33L257.99 175.4L257.93 175.46L257.87 175.52L257.8 175.58L257.73 175.63L257.66 175.69L257.59 175.74L257.52 175.78L257.44 175.83L257.36 175.87L257.28 175.9L257.2 175.94L257.12 175.97L257.03 176L256.95 176.02L256.86 176.04L256.77 176.06L256.68 176.07L256.59 176.08L256.5 176.09L256.4 176.09L231.69 176.09L231.6 176.09L231.51 176.08L231.41 176.07L231.32 176.06L231.23 176.04L231.15 176.02L231.06 176L230.98 175.97L230.89 175.94L230.81 175.9L230.73 175.87L230.65 175.83L230.58 175.78L230.5 175.74L230.43 175.69L230.36 175.63L230.29 175.58L230.23 175.52L230.16 175.46L230.1 175.4L230.05 175.33L229.99 175.26L229.94 175.19L229.89 175.12L229.84 175.05L229.8 174.97L229.76 174.89L229.72 174.81L229.68 174.73L229.65 174.65L229.63 174.56L229.6 174.48L229.58 174.39L229.56 174.3L229.55 174.21L229.54 174.12L229.53 174.03L229.53 173.93L229.53 170.44L258.56 170.44L258.56 173.93L258.56 174.03Z" id="byOGTmdAT"></path><path d="M244.99 112.12L245.29 112.17L245.57 112.25L245.85 112.34L246.12 112.46L246.38 112.59L246.63 112.74L246.87 112.91L247.1 113.09L247.31 113.29L247.5 113.5L247.69 113.72L247.85 113.96L248 114.21L248.14 114.47L248.25 114.74L248.35 115.02L248.42 115.31L248.48 115.6L248.51 115.91L248.52 116.22L248.52 159.64L248.51 159.95L248.48 160.25L248.42 160.55L248.35 160.83L248.25 161.11L248.14 161.38L248 161.64L247.85 161.89L247.69 162.13L247.5 162.36L247.31 162.57L247.1 162.76L246.87 162.95L246.63 163.11L246.38 163.26L246.12 163.4L245.85 163.51L245.57 163.61L245.29 163.68L244.99 163.74L244.69 163.77L244.38 163.78L244.05 163.78L243.74 163.77L243.43 163.74L243.14 163.68L242.85 163.61L242.57 163.51L242.3 163.4L242.04 163.26L241.79 163.11L241.55 162.95L241.33 162.76L241.12 162.57L240.92 162.36L240.74 162.13L240.57 161.89L240.42 161.64L240.29 161.38L240.17 161.11L240.08 160.83L240 160.55L239.95 160.25L239.92 159.95L239.9 159.64L239.9 116.22L239.92 115.91L239.95 115.6L240 115.31L240.08 115.02L240.17 114.74L240.29 114.47L240.42 114.21L240.57 113.96L240.74 113.72L240.92 113.5L241.12 113.29L241.33 113.09L241.55 112.91L241.79 112.74L242.04 112.59L242.3 112.46L242.57 112.34L242.85 112.25L243.14 112.17L243.43 112.12L243.74 112.08L244.05 112.07L244.38 112.07L244.69 112.08L244.99 112.12ZM242.09 150.93L241.82 151.37L241.73 151.92L242.12 153.31L242.97 154.32L243.82 154.93L244.21 155.16L244.6 154.93L245.46 154.32L246.31 153.31L246.7 151.92L246.6 151.37L246.33 150.93L245.94 150.63L245.46 150.52L244.97 150.62L244.58 150.89L244.31 151.31L244.21 151.84L244.11 151.31L243.85 150.89L243.45 150.62L242.97 150.52L242.49 150.63L242.09 150.93Z" id="b2FNQsqKc7"></path><path d="M233.97 250.4L233.9 250.4L233.83 250.4L233.75 250.39L233.68 250.38L233.61 250.37L233.54 250.35L233.47 250.33L233.41 250.31L233.34 250.29L233.28 250.26L233.21 250.23L233.15 250.2L233.09 250.17L233.03 250.13L232.97 250.1L232.92 250.06L232.86 250.02L232.81 249.97L232.76 249.93L232.71 249.88L232.66 249.83L232.61 249.78L232.57 249.72L232.53 249.67L232.49 249.61L232.45 249.56L232.42 249.5L232.38 249.43L232.35 249.37L232.32 249.31L232.3 249.24L232.27 249.18L232.25 249.11L232.24 249.04L232.22 248.97L232.21 248.9L232.2 248.83L232.19 248.76L232.18 248.69L232.18 248.61L232.18 176.09L231.69 176.09L231.6 176.09L231.51 176.08L231.41 176.07L231.32 176.06L231.23 176.04L231.15 176.02L231.06 176L230.98 175.97L230.89 175.94L230.81 175.9L230.73 175.87L230.65 175.83L230.58 175.78L230.5 175.74L230.43 175.69L230.36 175.63L230.29 175.58L230.23 175.52L230.16 175.46L230.1 175.4L230.05 175.33L229.99 175.26L229.94 175.19L229.89 175.12L229.84 175.05L229.8 174.97L229.76 174.89L229.72 174.81L229.68 174.73L229.65 174.65L229.63 174.56L229.6 174.48L229.58 174.39L229.56 174.3L229.55 174.21L229.54 174.12L229.53 174.03L229.53 173.93L229.53 109.56L229.53 109.47L229.54 109.38L229.55 109.28L229.56 109.19L229.58 109.1L229.6 109.02L229.63 108.93L229.65 108.85L229.68 108.76L229.72 108.68L229.76 108.6L229.8 108.52L229.84 108.45L229.89 108.37L229.94 108.3L229.99 108.23L230.05 108.16L230.1 108.1L230.16 108.03L230.23 107.97L230.29 107.92L230.36 107.86L230.43 107.81L230.5 107.76L230.58 107.71L230.65 107.67L230.73 107.63L230.81 107.59L230.89 107.56L230.98 107.52L231.06 107.5L231.15 107.47L231.23 107.45L231.32 107.43L231.41 107.42L231.51 107.41L231.6 107.4L231.69 107.4L244.21 107.4L244.21 250.4L233.97 250.4Z" id="a1wIfkcQmr"></path></defs><g><g><g><g><filter id="shadow7149156" x="297.16" y="159.2" width="341.05" height="87.85" filterUnits="userSpaceOnUse" primitiveUnits="userSpaceOnUse"><feFlood></feFlood><feComposite in2="SourceAlpha" operator="in"></feComposite><feGaussianBlur stdDeviation="1"></feGaussianBlur><feOffset dx="0" dy="0" result="afterOffset"></feOffset><feFlood flood-color="#000000" flood-opacity="0.5"></feFlood><feComposite in2="afterOffset" operator="in"></feComposite><feMorphology operator="dilate" radius="1"></feMorphology><feComposite in2="SourceAlpha" operator="out"></feComposite></filter><path d="M305.16 203.12C305.16 203.12 305.16 203.12 305.16 203.12C305.16 183.3 320.83 167.2 340.13 167.2C340.13 167.2 595.24 167.2 595.24 167.2C614.55 167.2 630.21 183.3 630.21 203.12C630.21 203.12 630.21 203.12 630.21 203.12C630.21 222.95 614.55 239.05 595.24 239.05C595.24 239.05 340.13 239.05 340.13 239.05C320.83 239.05 305.16 222.95 305.16 203.12Z" id="lGZmd7CZ" fill="white" fill-opacity="1" filter="url(#shadow7149156)"></path></g><use xlink:href="#f957ets0e" opacity="1" fill="#dedede" fill-opacity="1"></use><g><use xlink:href="#f957ets0e" opacity="1" fill-opacity="0" stroke="#000000" stroke-width="1" stroke-opacity="0"></use></g></g><g><g><filter id="shadow8872880" x="22.21" y="47.55" width="565.89" height="139.35" filterUnits="userSpaceOnUse" primitiveUnits="userSpaceOnUse"><feFlood></feFlood><feComposite in2="SourceAlpha" operator="in"></feComposite><feGaussianBlur stdDeviation="1"></feGaussianBlur><feOffset dx="0" dy="0" result="afterOffset"></feOffset><feFlood flood-color="#000000" flood-opacity="0.5"></feFlood><feComposite in2="afterOffset" operator="in"></feComposite><feMorphology operator="dilate" radius="1"></feMorphology><feComposite in2="SourceAlpha" operator="out"></feComposite></filter><path d="M30.21 117.23C30.21 117.23 30.21 117.23 30.21 117.23C30.21 83.18 56.73 55.55 89.38 55.55C89.38 55.55 520.94 55.55 520.94 55.55C553.59 55.55 580.11 83.18 580.11 117.23C580.11 117.23 580.11 117.23 580.11 117.23C580.11 151.27 553.59 178.9 520.94 178.9C520.94 178.9 89.38 178.9 89.38 178.9C56.73 178.9 30.21 151.27 30.21 117.23Z" id="f50F85wNW7" fill="white" fill-opacity="1" filter="url(#shadow8872880)"></path></g><use xlink:href="#ftJOyCbbj" opacity="1" fill="#dedede" fill-opacity="1"></use><g><use xlink:href="#ftJOyCbbj" opacity="1" fill-opacity="0" stroke="#000000" stroke-width="1" stroke-opacity="0"></use></g></g><g><g><filter id="shadow12841559" x="102.39" y="225.1" width="405.54" height="105.41" filterUnits="userSpaceOnUse" primitiveUnits="userSpaceOnUse"><feFlood></feFlood><feComposite in2="SourceAlpha" operator="in"></feComposite><feGaussianBlur stdDeviation="1"></feGaussianBlur><feOffset dx="0" dy="0" result="afterOffset"></feOffset><feFlood flood-color="#000000" flood-opacity="0.5"></feFlood><feComposite in2="afterOffset" operator="in"></feComposite><feMorphology operator="dilate" radius="1"></feMorphology><feComposite in2="SourceAlpha" operator="out"></feComposite></filter><path d="M110.39 277.81C110.39 277.81 110.39 277.81 110.39 277.81C110.39 253.14 129.17 233.1 152.3 233.1C152.3 233.1 458.02 233.1 458.02 233.1C481.15 233.1 499.93 253.14 499.93 277.81C499.93 277.81 499.93 277.81 499.93 277.81C499.93 302.48 481.15 322.51 458.02 322.51C458.02 322.51 152.3 322.51 152.3 322.51C129.17 322.51 110.39 302.48 110.39 277.81Z" id="ai3D12yTk" fill="white" fill-opacity="1" filter="url(#shadow12841559)"></path></g><use xlink:href="#csJHJpOQj" opacity="1" fill="#dedede" fill-opacity="1"></use><g><use xlink:href="#csJHJpOQj" opacity="1" fill-opacity="0" stroke="#000000" stroke-width="1" stroke-opacity="0"></use></g></g><g><g><filter id="shadow2490730" x="149.68" y="5.15" width="344.9" height="367.14" filterUnits="userSpaceOnUse" primitiveUnits="userSpaceOnUse"><feFlood></feFlood><feComposite in2="SourceAlpha" operator="in"></feComposite><feGaussianBlur stdDeviation="1"></feGaussianBlur><feOffset dx="0" dy="0" result="afterOffset"></feOffset><feFlood flood-color="#000000" flood-opacity="0.5"></feFlood><feComposite in2="afterOffset" operator="in"></feComposite><feMorphology operator="dilate" radius="1"></feMorphology><feComposite in2="SourceAlpha" operator="out"></feComposite></filter><path d="M322.13 364.29C231.37 364.29 157.68 285.62 157.68 188.72C157.68 91.82 231.37 13.15 322.13 13.15C412.9 13.15 486.58 91.82 486.58 188.72C486.58 285.62 412.9 364.29 322.13 364.29Z" id="e176onND6K" fill="white" fill-opacity="1" filter="url(#shadow2490730)"></path></g><use xlink:href="#bqg8wtRer" opacity="1" fill="#2d2d2d" fill-opacity="1"></use><g><use xlink:href="#bqg8wtRer" opacity="1" fill-opacity="0" stroke="#000000" stroke-width="1" stroke-opacity="0"></use></g></g><g><g><filter id="shadow11963509" x="127.68" y="-16.85" width="388.9" height="411.14" filterUnits="userSpaceOnUse" primitiveUnits="userSpaceOnUse"><feFlood></feFlood><feComposite in2="SourceAlpha" operator="in"></feComposite><feGaussianBlur stdDeviation="3.16"></feGaussianBlur><feOffset dx="0" dy="0" result="afterOffset"></feOffset><feFlood flood-color="#000000" flood-opacity="0.5"></feFlood><feComposite in2="afterOffset" operator="in"></feComposite><feMorphology operator="dilate" radius="5"></feMorphology><feComposite in2="SourceAlpha" operator="out"></feComposite></filter><path d="M322.13 364.29C231.37 364.29 157.68 285.62 157.68 188.72C157.68 91.82 231.37 13.15 322.13 13.15C412.9 13.15 486.58 91.82 486.58 188.72C486.58 285.62 412.9 364.29 322.13 364.29Z" id="d5VGycGRYL" fill="white" fill-opacity="1" filter="url(#shadow11963509)"></path></g><use xlink:href="#b2IaMVkGnk" opacity="1" fill="#000000" fill-opacity="0"></use><g><use xlink:href="#b2IaMVkGnk" opacity="1" fill-opacity="0" stroke="#dedede" stroke-width="10" stroke-opacity="1"></use></g></g><g><g><use xlink:href="#anBsd6ava" opacity="1" fill-opacity="0" stroke="#000000" stroke-width="0" stroke-opacity="0"></use></g></g><g><use xlink:href="#bVnvDQNn" opacity="1" fill="#dedede" fill-opacity="1"></use></g><g><g><filter id="shadow7208414" x="222.53" y="100.4" width="43.03" height="157" filterUnits="userSpaceOnUse" primitiveUnits="userSpaceOnUse"><feFlood></feFlood><feComposite in2="SourceAlpha" operator="in"></feComposite><feGaussianBlur stdDeviation="1"></feGaussianBlur><feOffset dx="0" dy="0" result="afterOffset"></feOffset><feFlood flood-color="#000000" flood-opacity="0.5"></feFlood><feComposite in2="afterOffset" operator="in"></feComposite><feMorphology operator="dilate" radius="0"></feMorphology><feComposite in2="SourceAlpha" operator="out"></feComposite></filter><path d="M256.59 107.41L256.68 107.42L256.77 107.43L256.86 107.45L256.95 107.47L257.03 107.5L257.12 107.52L257.2 107.56L257.28 107.59L257.36 107.63L257.44 107.67L257.52 107.71L257.59 107.76L257.66 107.81L257.73 107.86L257.8 107.92L257.87 107.97L257.93 108.03L257.99 108.1L258.05 108.16L258.1 108.23L258.16 108.3L258.21 108.37L258.25 108.45L258.3 108.52L258.34 108.6L258.37 108.68L258.41 108.76L258.44 108.85L258.47 108.93L258.49 109.02L258.51 109.1L258.53 109.19L258.54 109.28L258.55 109.38L258.56 109.47L258.56 109.56L258.56 173.93L258.56 174.03L258.55 174.12L258.54 174.21L258.53 174.3L258.51 174.39L258.49 174.48L258.47 174.56L258.44 174.65L258.41 174.73L258.37 174.81L258.34 174.89L258.3 174.97L258.25 175.05L258.21 175.12L258.16 175.19L258.1 175.26L258.05 175.33L257.99 175.4L257.93 175.46L257.87 175.52L257.8 175.58L257.73 175.63L257.66 175.69L257.59 175.74L257.52 175.78L257.44 175.83L257.36 175.87L257.28 175.9L257.2 175.94L257.12 175.97L257.03 176L256.95 176.02L256.86 176.04L256.77 176.06L256.68 176.07L256.59 176.08L256.5 176.09L256.4 176.09L256.24 176.09L256.24 248.61L256.24 248.69L256.24 248.76L256.23 248.83L256.22 248.9L256.21 248.97L256.19 249.04L256.17 249.11L256.15 249.18L256.13 249.24L256.1 249.31L256.07 249.37L256.04 249.43L256.01 249.5L255.97 249.56L255.94 249.61L255.9 249.67L255.85 249.72L255.81 249.78L255.77 249.83L255.72 249.88L255.67 249.93L255.62 249.97L255.56 250.02L255.51 250.06L255.45 250.1L255.39 250.13L255.34 250.17L255.27 250.2L255.21 250.23L255.15 250.26L255.08 250.29L255.02 250.31L254.95 250.33L254.88 250.35L254.81 250.37L254.74 250.38L254.67 250.39L254.6 250.4L254.53 250.4L254.45 250.4L233.97 250.4L233.9 250.4L233.83 250.4L233.75 250.39L233.68 250.38L233.61 250.37L233.54 250.35L233.47 250.33L233.41 250.31L233.34 250.29L233.28 250.26L233.21 250.23L233.15 250.2L233.09 250.17L233.03 250.13L232.97 250.1L232.92 250.06L232.86 250.02L232.81 249.97L232.76 249.93L232.71 249.88L232.66 249.83L232.61 249.78L232.57 249.72L232.53 249.67L232.49 249.61L232.45 249.56L232.42 249.5L232.38 249.43L232.35 249.37L232.32 249.31L232.3 249.24L232.27 249.18L232.25 249.11L232.24 249.04L232.22 248.97L232.21 248.9L232.2 248.83L232.19 248.76L232.18 248.69L232.18 248.61L232.18 176.09L231.69 176.09L231.6 176.09L231.51 176.08L231.41 176.07L231.32 176.06L231.23 176.04L231.15 176.02L231.06 176L230.98 175.97L230.89 175.94L230.81 175.9L230.73 175.87L230.65 175.83L230.58 175.78L230.5 175.74L230.43 175.69L230.36 175.63L230.29 175.58L230.23 175.52L230.16 175.46L230.1 175.4L230.05 175.33L229.99 175.26L229.94 175.19L229.89 175.12L229.84 175.05L229.8 174.97L229.76 174.89L229.72 174.81L229.68 174.73L229.65 174.65L229.63 174.56L229.6 174.48L229.58 174.39L229.56 174.3L229.55 174.21L229.54 174.12L229.53 174.03L229.53 173.93L229.53 109.56L229.53 109.47L229.54 109.38L229.55 109.28L229.56 109.19L229.58 109.1L229.6 109.02L229.63 108.93L229.65 108.85L229.68 108.76L229.72 108.68L229.76 108.6L229.8 108.52L229.84 108.45L229.89 108.37L229.94 108.3L229.99 108.23L230.05 108.16L230.1 108.1L230.16 108.03L230.23 107.97L230.29 107.92L230.36 107.86L230.43 107.81L230.5 107.76L230.58 107.71L230.65 107.67L230.73 107.63L230.81 107.59L230.89 107.56L230.98 107.52L231.06 107.5L231.15 107.47L231.23 107.45L231.32 107.43L231.41 107.42L231.51 107.41L231.6 107.4L231.69 107.4L256.4 107.4L256.5 107.4L256.59 107.41Z" id="b2d5eNQzLp" fill="white" fill-opacity="1" filter="url(#shadow7208414)"></path></g><use xlink:href="#b11o66iWVW" opacity="1" fill="#7188cf" fill-opacity="1"></use></g><g><g><filter id="shadow9863653" x="222.53" y="163.44" width="43.03" height="19.65" filterUnits="userSpaceOnUse" primitiveUnits="userSpaceOnUse"><feFlood></feFlood><feComposite in2="SourceAlpha" operator="in"></feComposite><feGaussianBlur stdDeviation="1"></feGaussianBlur><feOffset dx="0" dy="0" result="afterOffset"></feOffset><feFlood flood-color="#000000" flood-opacity="0.5"></feFlood><feComposite in2="afterOffset" operator="in"></feComposite><feMorphology operator="dilate" radius="0"></feMorphology><feComposite in2="SourceAlpha" operator="out"></feComposite></filter><path d="M258.56 174.03L258.55 174.12L258.54 174.21L258.53 174.3L258.51 174.39L258.49 174.48L258.47 174.56L258.44 174.65L258.41 174.73L258.37 174.81L258.34 174.89L258.3 174.97L258.25 175.05L258.21 175.12L258.16 175.19L258.1 175.26L258.05 175.33L257.99 175.4L257.93 175.46L257.87 175.52L257.8 175.58L257.73 175.63L257.66 175.69L257.59 175.74L257.52 175.78L257.44 175.83L257.36 175.87L257.28 175.9L257.2 175.94L257.12 175.97L257.03 176L256.95 176.02L256.86 176.04L256.77 176.06L256.68 176.07L256.59 176.08L256.5 176.09L256.4 176.09L231.69 176.09L231.6 176.09L231.51 176.08L231.41 176.07L231.32 176.06L231.23 176.04L231.15 176.02L231.06 176L230.98 175.97L230.89 175.94L230.81 175.9L230.73 175.87L230.65 175.83L230.58 175.78L230.5 175.74L230.43 175.69L230.36 175.63L230.29 175.58L230.23 175.52L230.16 175.46L230.1 175.4L230.05 175.33L229.99 175.26L229.94 175.19L229.89 175.12L229.84 175.05L229.8 174.97L229.76 174.89L229.72 174.81L229.68 174.73L229.65 174.65L229.63 174.56L229.6 174.48L229.58 174.39L229.56 174.3L229.55 174.21L229.54 174.12L229.53 174.03L229.53 173.93L229.53 170.44L258.56 170.44L258.56 173.93L258.56 174.03Z" id="b6A84zHIKQ" fill="white" fill-opacity="1" filter="url(#shadow9863653)"></path></g><use xlink:href="#byOGTmdAT" opacity="1" fill="#c8c8c8" fill-opacity="1"></use></g><g><g><filter id="shadow15445009" x="232.9" y="105.07" width="22.62" height="65.71" filterUnits="userSpaceOnUse" primitiveUnits="userSpaceOnUse"><feFlood></feFlood><feComposite in2="SourceAlpha" operator="in"></feComposite><feGaussianBlur stdDeviation="1"></feGaussianBlur><feOffset dx="0" dy="0" result="afterOffset"></feOffset><feFlood flood-color="#000000" flood-opacity="0.5"></feFlood><feComposite in2="afterOffset" operator="in"></feComposite><feMorphology operator="dilate" radius="0"></feMorphology><feComposite in2="SourceAlpha" operator="out"></feComposite></filter><path d="M244.99 112.12L245.29 112.17L245.57 112.25L245.85 112.34L246.12 112.46L246.38 112.59L246.63 112.74L246.87 112.91L247.1 113.09L247.31 113.29L247.5 113.5L247.69 113.72L247.85 113.96L248 114.21L248.14 114.47L248.25 114.74L248.35 115.02L248.42 115.31L248.48 115.6L248.51 115.91L248.52 116.22L248.52 159.64L248.51 159.95L248.48 160.25L248.42 160.55L248.35 160.83L248.25 161.11L248.14 161.38L248 161.64L247.85 161.89L247.69 162.13L247.5 162.36L247.31 162.57L247.1 162.76L246.87 162.95L246.63 163.11L246.38 163.26L246.12 163.4L245.85 163.51L245.57 163.61L245.29 163.68L244.99 163.74L244.69 163.77L244.38 163.78L244.05 163.78L243.74 163.77L243.43 163.74L243.14 163.68L242.85 163.61L242.57 163.51L242.3 163.4L242.04 163.26L241.79 163.11L241.55 162.95L241.33 162.76L241.12 162.57L240.92 162.36L240.74 162.13L240.57 161.89L240.42 161.64L240.29 161.38L240.17 161.11L240.08 160.83L240 160.55L239.95 160.25L239.92 159.95L239.9 159.64L239.9 116.22L239.92 115.91L239.95 115.6L240 115.31L240.08 115.02L240.17 114.74L240.29 114.47L240.42 114.21L240.57 113.96L240.74 113.72L240.92 113.5L241.12 113.29L241.33 113.09L241.55 112.91L241.79 112.74L242.04 112.59L242.3 112.46L242.57 112.34L242.85 112.25L243.14 112.17L243.43 112.12L243.74 112.08L244.05 112.07L244.38 112.07L244.69 112.08L244.99 112.12ZM242.09 150.93L241.82 151.37L241.73 151.92L242.12 153.31L242.97 154.32L243.82 154.93L244.21 155.16L244.6 154.93L245.46 154.32L246.31 153.31L246.7 151.92L246.6 151.37L246.33 150.93L245.94 150.63L245.46 150.52L244.97 150.62L244.58 150.89L244.31 151.31L244.21 151.84L244.11 151.31L243.85 150.89L243.45 150.62L242.97 150.52L242.49 150.63L242.09 150.93Z" id="fzUWarnjb" fill="white" fill-opacity="1" filter="url(#shadow15445009)"></path></g><use xlink:href="#b2FNQsqKc7" opacity="1" fill="#c8c8c8" fill-opacity="1"></use></g><g><use xlink:href="#a1wIfkcQmr" opacity="1" fill="#ffffff" fill-opacity="0.17"></use></g></g></g></svg>