<?xml version="1.0" encoding="UTF-8" standalone="no"?>
<!DOCTYPE svg PUBLIC "-//W3C//DTD SVG 1.1//EN" "http://www.w3.org/Graphics/SVG/1.1/DTD/svg11.dtd">
<svg version="1.1" xmlns="http://www.w3.org/2000/svg" xmlns:xlink="http://www.w3.org/1999/xlink" preserveAspectRatio="xMidYMid meet" viewBox="0 0 216 274" width="216" height="274"><defs><path d="M73.11 9.09L73.22 9.1L73.32 9.12L73.41 9.14L73.51 9.17L73.6 9.21L73.69 9.25L73.77 9.29L73.86 9.34L73.94 9.39L74.01 9.45L74.09 9.51L74.16 9.58L74.24 9.65L74.31 9.72L74.37 9.8L74.44 9.88L74.5 9.97L74.57 10.05L74.63 10.15L74.69 10.24L74.74 10.34L74.8 10.44L74.85 10.55L74.91 10.66L74.96 10.77L75.01 10.88L75.06 11L75.11 11.12L75.16 11.24L75.21 11.36L75.25 11.49L75.3 11.62L75.35 11.74L75.39 11.88L75.44 12.01L75.48 12.14L75.53 12.28L75.57 12.42L77.89 21.1L78.61 21.32L80.22 21.89L81.79 22.52L83.34 23.21L84.85 23.96L84.98 24.02L92.77 19.51L92.9 19.45L93.03 19.38L93.16 19.32L93.29 19.26L93.41 19.19L93.53 19.14L93.66 19.08L93.78 19.02L93.9 18.97L94.02 18.92L94.14 18.87L94.26 18.82L94.37 18.78L94.49 18.74L94.6 18.7L94.72 18.66L94.83 18.63L94.94 18.6L95.05 18.58L95.16 18.55L95.27 18.53L95.37 18.52L95.48 18.51L95.58 18.5L95.68 18.5L95.78 18.5L95.88 18.5L95.98 18.51L96.07 18.53L96.17 18.55L96.26 18.57L96.35 18.6L96.44 18.64L96.53 18.68L96.62 18.72L96.7 18.77L96.79 18.83L96.87 18.89L96.95 18.96L97.03 19.04L108.38 30.39L108.45 30.47L108.52 30.55L108.59 30.63L108.65 30.72L108.7 30.8L108.75 30.89L108.79 30.98L108.83 31.08L108.86 31.17L108.89 31.27L108.91 31.36L108.93 31.46L108.94 31.56L108.95 31.67L108.95 31.77L108.95 31.87L108.95 31.98L108.94 32.09L108.93 32.19L108.91 32.3L108.89 32.41L108.87 32.53L108.84 32.64L108.81 32.75L108.77 32.87L108.73 32.98L108.69 33.1L108.65 33.21L108.6 33.33L108.55 33.45L108.5 33.56L108.44 33.68L108.38 33.8L108.32 33.92L108.26 34.04L108.19 34.16L108.12 34.28L108.05 34.4L107.98 34.52L107.91 34.64L103.4 42.43L103.49 42.6L104.24 44.11L104.93 45.65L105.56 47.23L106.13 48.84L106.35 49.56L115.03 51.87L115.17 51.91L115.3 51.94L115.44 51.98L115.57 52.01L115.7 52.05L115.83 52.09L115.96 52.13L116.09 52.18L116.21 52.22L116.33 52.27L116.45 52.31L116.57 52.36L116.68 52.41L116.79 52.47L116.9 52.52L117 52.58L117.11 52.63L117.21 52.69L117.3 52.76L117.39 52.82L117.48 52.88L117.57 52.95L117.65 53.02L117.73 53.09L117.8 53.17L117.87 53.24L117.94 53.32L118 53.4L118.06 53.48L118.11 53.57L118.16 53.66L118.2 53.75L118.24 53.84L118.28 53.93L118.31 54.03L118.33 54.13L118.35 54.23L118.36 54.33L118.37 54.44L118.37 54.55L118.37 70.6L118.37 70.71L118.36 70.81L118.35 70.92L118.33 71.02L118.31 71.11L118.28 71.21L118.24 71.3L118.2 71.39L118.16 71.47L118.11 71.56L118.06 71.64L118 71.72L117.94 71.79L117.87 71.87L117.8 71.94L117.73 72.01L117.65 72.07L117.57 72.14L117.48 72.2L117.39 72.27L117.3 72.33L117.21 72.39L117.11 72.44L117 72.5L116.9 72.55L116.79 72.61L116.68 72.66L116.57 72.71L116.45 72.76L116.33 72.81L116.21 72.86L116.09 72.91L115.96 72.96L115.83 73L115.7 73.05L115.57 73.09L115.44 73.14L115.3 73.18L115.17 73.23L115.03 73.27L106.35 75.59L106.13 76.31L105.56 77.92L104.93 79.49L104.24 81.04L103.49 82.55L103.41 82.7L107.91 90.47L107.98 90.6L108.05 90.72L108.12 90.84L108.19 90.96L108.26 91.08L108.32 91.2L108.38 91.32L108.44 91.43L108.5 91.55L108.55 91.67L108.6 91.79L108.65 91.91L108.69 92.02L108.73 92.14L108.77 92.25L108.81 92.37L108.84 92.48L108.87 92.59L108.89 92.7L108.91 92.81L108.93 92.92L108.94 93.03L108.95 93.14L108.95 93.24L108.95 93.35L108.95 93.45L108.94 93.55L108.93 93.65L108.91 93.75L108.89 93.85L108.86 93.95L108.83 94.04L108.79 94.13L108.75 94.22L108.7 94.31L108.65 94.4L108.59 94.49L108.52 94.57L108.45 94.65L108.38 94.73L97.03 106.08L96.95 106.15L96.87 106.22L96.79 106.29L96.7 106.34L96.62 106.4L96.53 106.44L96.44 106.48L96.35 106.52L96.26 106.55L96.17 106.57L96.07 106.59L95.98 106.6L95.88 106.61L95.78 106.62L95.68 106.62L95.58 106.62L95.48 106.61L95.37 106.6L95.27 106.58L95.16 106.56L95.05 106.54L94.94 106.52L94.83 106.49L94.72 106.45L94.6 106.42L94.49 106.38L94.37 106.34L94.26 106.29L94.14 106.25L94.02 106.2L93.9 106.15L93.78 106.09L93.66 106.04L93.53 105.98L93.41 105.92L93.29 105.86L93.16 105.8L93.03 105.74L92.9 105.67L92.77 105.61L85 101.11L84.85 101.19L83.34 101.94L81.79 102.63L80.22 103.26L78.61 103.83L77.89 104.05L75.57 112.73L75.53 112.87L75.48 113.01L75.44 113.14L75.39 113.27L75.35 113.4L75.3 113.53L75.25 113.66L75.21 113.79L75.16 113.91L75.11 114.03L75.06 114.15L75.01 114.27L74.96 114.38L74.91 114.49L74.85 114.6L74.8 114.71L74.74 114.81L74.69 114.91L74.63 115L74.57 115.09L74.5 115.18L74.44 115.27L74.37 115.35L74.31 115.43L74.24 115.5L74.16 115.57L74.09 115.64L74.01 115.7L73.94 115.76L73.86 115.81L73.77 115.86L73.69 115.9L73.6 115.94L73.51 115.98L73.41 116.01L73.32 116.03L73.22 116.05L73.11 116.06L73.01 116.07L72.9 116.07L56.85 116.07L56.74 116.07L56.63 116.06L56.53 116.05L56.43 116.03L56.33 116.01L56.23 115.98L56.14 115.94L56.05 115.9L55.96 115.86L55.87 115.81L55.78 115.76L55.7 115.7L55.62 115.64L55.54 115.57L55.47 115.5L55.39 115.43L55.32 115.35L55.25 115.27L55.18 115.18L55.12 115.09L55.05 115L54.99 114.91L54.93 114.81L54.88 114.71L54.82 114.6L54.77 114.49L54.71 114.38L54.66 114.27L54.61 114.15L54.57 114.03L54.52 113.91L54.48 113.79L54.43 113.66L54.39 113.53L54.35 113.4L54.31 113.27L54.28 113.14L54.24 113.01L54.21 112.87L54.17 112.73L51.86 104.05L51.13 103.83L49.53 103.26L47.95 102.63L46.41 101.94L44.9 101.19L44.72 101.09L36.97 105.57L36.85 105.65L36.73 105.72L36.61 105.79L36.49 105.86L36.37 105.93L36.25 105.99L36.13 106.05L36.01 106.11L35.9 106.16L35.78 106.22L35.66 106.27L35.54 106.32L35.43 106.36L35.31 106.4L35.2 106.44L35.08 106.47L34.97 106.51L34.86 106.53L34.75 106.56L34.64 106.58L34.53 106.6L34.42 106.61L34.31 106.62L34.2 106.62L34.1 106.62L34 106.62L33.89 106.61L33.79 106.6L33.7 106.58L33.6 106.56L33.5 106.53L33.41 106.5L33.32 106.46L33.22 106.42L33.14 106.37L33.05 106.32L32.96 106.26L32.88 106.19L32.8 106.12L32.72 106.05L21.37 94.7L21.29 94.62L21.23 94.54L21.16 94.46L21.11 94.37L21.05 94.29L21.01 94.2L20.97 94.11L20.93 94.02L20.9 93.93L20.88 93.84L20.86 93.74L20.84 93.65L20.83 93.55L20.83 93.45L20.83 93.35L20.83 93.25L20.84 93.14L20.85 93.04L20.86 92.93L20.88 92.83L20.91 92.72L20.93 92.61L20.96 92.5L20.99 92.39L21.03 92.27L21.07 92.16L21.11 92.04L21.15 91.93L21.2 91.81L21.25 91.69L21.3 91.57L21.35 91.45L21.41 91.33L21.47 91.2L21.53 91.08L21.59 90.95L21.65 90.83L21.71 90.7L21.78 90.57L21.84 90.44L26.33 82.69L26.26 82.55L25.51 81.04L24.82 79.49L24.19 77.92L23.62 76.31L23.4 75.59L14.72 73.27L14.58 73.23L14.44 73.18L14.31 73.14L14.18 73.09L14.04 73.05L13.91 73L13.79 72.96L13.66 72.91L13.54 72.86L13.42 72.81L13.3 72.76L13.18 72.71L13.07 72.66L12.96 72.61L12.85 72.55L12.74 72.5L12.64 72.44L12.54 72.39L12.45 72.33L12.35 72.27L12.26 72.2L12.18 72.14L12.1 72.07L12.02 72.01L11.95 71.94L11.88 71.87L11.81 71.79L11.75 71.72L11.69 71.64L11.64 71.56L11.59 71.47L11.54 71.39L11.51 71.3L11.47 71.21L11.44 71.11L11.42 71.02L11.4 70.92L11.39 70.81L11.38 70.71L11.37 70.6L11.37 54.55L11.38 54.44L11.39 54.33L11.4 54.23L11.42 54.13L11.44 54.03L11.47 53.93L11.51 53.84L11.54 53.75L11.59 53.66L11.64 53.57L11.69 53.48L11.75 53.4L11.81 53.32L11.88 53.24L11.95 53.17L12.02 53.09L12.1 53.02L12.18 52.95L12.26 52.88L12.35 52.82L12.45 52.76L12.54 52.69L12.64 52.63L12.74 52.58L12.85 52.52L12.96 52.47L13.07 52.41L13.18 52.36L13.3 52.31L13.42 52.27L13.54 52.22L13.66 52.18L13.79 52.13L13.91 52.09L14.04 52.05L14.18 52.01L14.31 51.98L14.44 51.94L14.58 51.91L14.72 51.87L23.4 49.56L23.62 48.84L24.19 47.23L24.82 45.65L25.51 44.11L26.26 42.6L26.34 42.45L21.84 34.67L21.78 34.55L21.71 34.42L21.65 34.29L21.59 34.16L21.53 34.04L21.47 33.91L21.41 33.79L21.35 33.67L21.3 33.55L21.25 33.43L21.2 33.31L21.15 33.19L21.11 33.07L21.07 32.96L21.03 32.84L20.99 32.73L20.96 32.62L20.93 32.51L20.91 32.4L20.88 32.29L20.86 32.18L20.85 32.08L20.84 31.97L20.83 31.87L20.83 31.77L20.83 31.67L20.83 31.57L20.84 31.47L20.86 31.38L20.88 31.28L20.9 31.19L20.93 31.1L20.97 31.01L21.01 30.92L21.05 30.83L21.11 30.75L21.16 30.66L21.23 30.58L21.29 30.5L21.37 30.42L32.72 19.07L32.8 18.99L32.88 18.92L32.96 18.86L33.05 18.8L33.14 18.75L33.22 18.7L33.32 18.66L33.41 18.62L33.5 18.59L33.6 18.56L33.7 18.54L33.79 18.52L33.89 18.51L34 18.5L34.1 18.5L34.2 18.5L34.31 18.5L34.42 18.51L34.53 18.52L34.64 18.54L34.75 18.56L34.86 18.58L34.97 18.61L35.08 18.64L35.2 18.68L35.31 18.72L35.43 18.76L35.54 18.8L35.66 18.85L35.78 18.9L35.9 18.95L36.01 19.01L36.13 19.07L36.25 19.13L36.37 19.19L36.49 19.26L36.61 19.33L36.73 19.4L36.85 19.47L36.97 19.54L44.75 24.04L44.9 23.96L46.41 23.21L47.95 22.52L49.53 21.89L51.13 21.32L51.86 21.1L54.17 12.42L54.21 12.28L54.24 12.14L54.28 12.01L54.31 11.88L54.35 11.74L54.39 11.62L54.43 11.49L54.48 11.36L54.52 11.24L54.57 11.12L54.61 11L54.66 10.88L54.71 10.77L54.77 10.66L54.82 10.55L54.88 10.44L54.93 10.34L54.99 10.24L55.05 10.15L55.12 10.05L55.18 9.97L55.25 9.88L55.32 9.8L55.39 9.72L55.47 9.65L55.54 9.58L55.62 9.51L55.7 9.45L55.78 9.39L55.87 9.34L55.96 9.29L56.05 9.25L56.14 9.21L56.23 9.17L56.33 9.14L56.43 9.12L56.53 9.1L56.63 9.09L56.74 9.08L56.85 9.07L72.9 9.07L73.01 9.08L73.11 9.09ZM62.95 39.25L62.01 39.34L61.08 39.47L60.16 39.64L59.25 39.85L58.36 40.09L57.48 40.36L56.61 40.67L55.76 41.01L54.93 41.38L54.12 41.78L53.32 42.21L52.54 42.68L51.79 43.17L51.05 43.68L50.34 44.23L49.64 44.8L48.97 45.4L48.32 46.02L47.7 46.67L47.1 47.34L46.53 48.04L45.98 48.75L45.47 49.49L44.97 50.25L44.51 51.02L44.08 51.82L43.68 52.63L43.31 53.46L42.97 54.31L42.66 55.18L42.39 56.06L42.15 56.95L41.94 57.86L41.77 58.78L41.64 59.71L41.55 60.66L41.49 61.61L41.47 62.57L41.49 63.54L41.55 64.49L41.64 65.44L41.77 66.37L41.94 67.29L42.15 68.2L42.39 69.09L42.66 69.97L42.97 70.84L43.31 71.69L43.68 72.52L44.08 73.33L44.51 74.13L44.97 74.9L45.47 75.66L45.98 76.4L46.53 77.11L47.1 77.81L47.7 78.48L48.32 79.13L48.97 79.75L49.64 80.35L50.34 80.92L51.05 81.46L51.79 81.98L52.54 82.47L53.32 82.94L54.12 83.37L54.93 83.77L55.76 84.14L56.61 84.48L57.48 84.79L58.36 85.06L59.25 85.3L60.16 85.51L61.08 85.67L62.01 85.81L62.95 85.9L63.91 85.96L64.87 85.98L65.84 85.96L66.79 85.9L67.74 85.81L68.67 85.67L69.59 85.51L70.5 85.3L71.39 85.06L72.27 84.79L73.14 84.48L73.98 84.14L74.82 83.77L75.63 83.37L76.43 82.94L77.2 82.47L77.96 81.98L78.7 81.46L79.41 80.92L80.11 80.35L80.78 79.75L81.42 79.13L82.05 78.48L82.65 77.81L83.22 77.11L83.76 76.4L84.28 75.66L84.77 74.9L85.24 74.13L85.67 73.33L86.07 72.52L86.44 71.69L86.78 70.84L87.09 69.97L87.36 69.09L87.6 68.2L87.8 67.29L87.97 66.37L88.11 65.44L88.2 64.49L88.26 63.54L88.28 62.57L88.26 61.61L88.2 60.66L88.11 59.71L87.97 58.78L87.8 57.86L87.6 56.95L87.36 56.06L87.09 55.18L86.78 54.31L86.44 53.46L86.07 52.63L85.67 51.82L85.24 51.02L84.77 50.25L84.28 49.49L83.76 48.75L83.22 48.04L82.65 47.34L82.05 46.67L81.42 46.02L80.78 45.4L80.11 44.8L79.41 44.23L78.7 43.68L77.96 43.17L77.2 42.68L76.43 42.21L75.63 41.78L74.82 41.38L73.98 41.01L73.14 40.67L72.27 40.36L71.39 40.09L70.5 39.85L69.59 39.64L68.67 39.47L67.74 39.34L66.79 39.25L65.84 39.19L64.87 39.17L63.91 39.19L62.95 39.25Z" id="al6Bnn0do"></path><path d="M63.91 39.19L62.95 39.25L62.01 39.34L61.08 39.47L60.16 39.64L59.25 39.85L58.36 40.09L57.48 40.36L56.61 40.67L55.76 41.01L54.93 41.38L54.12 41.78L53.32 42.21L52.54 42.68L51.79 43.17L51.05 43.68L50.34 44.23L49.64 44.8L48.97 45.4L48.32 46.02L47.7 46.67L47.1 47.34L46.53 48.04L45.98 48.75L45.47 49.49L44.97 50.25L44.51 51.02L44.08 51.82L43.68 52.63L43.31 53.46L42.97 54.31L42.66 55.18L42.39 56.06L42.15 56.95L41.94 57.86L41.77 58.78L41.64 59.71L41.55 60.66L41.49 61.61L41.47 62.57L41.49 63.54L41.55 64.49L41.64 65.44L41.77 66.37L41.94 67.29L42.15 68.2L42.39 69.09L42.66 69.97L42.97 70.84L43.31 71.69L43.68 72.52L44.08 73.33L44.51 74.13L44.97 74.9L45.47 75.66L45.98 76.4L46.53 77.11L47.1 77.81L47.7 78.48L48.32 79.13L48.97 79.75L49.64 80.35L50.34 80.92L51.05 81.46L51.79 81.98L52.54 82.47L53.32 82.94L54.12 83.37L54.93 83.77L55.76 84.14L56.61 84.48L57.48 84.79L58.36 85.06L59.25 85.3L60.16 85.51L61.08 85.67L62.01 85.81L62.95 85.9L63.91 85.96L64.87 85.98L64.87 116.07L56.85 116.07L56.74 116.07L56.63 116.06L56.53 116.05L56.43 116.03L56.33 116.01L56.23 115.98L56.14 115.94L56.05 115.9L55.96 115.86L55.87 115.81L55.78 115.76L55.7 115.7L55.62 115.64L55.54 115.57L55.47 115.5L55.39 115.43L55.32 115.35L55.25 115.27L55.18 115.18L55.12 115.09L55.05 115L54.99 114.91L54.93 114.81L54.88 114.71L54.82 114.6L54.77 114.49L54.71 114.38L54.66 114.27L54.61 114.15L54.57 114.03L54.52 113.91L54.48 113.79L54.43 113.66L54.39 113.53L54.35 113.4L54.31 113.27L54.28 113.14L54.24 113.01L54.21 112.87L54.17 112.73L51.86 104.05L51.13 103.83L49.53 103.26L47.95 102.63L46.41 101.94L44.9 101.19L44.72 101.09L36.97 105.57L36.85 105.65L36.73 105.72L36.61 105.79L36.49 105.86L36.37 105.93L36.25 105.99L36.13 106.05L36.01 106.11L35.9 106.16L35.78 106.22L35.66 106.27L35.54 106.32L35.43 106.36L35.31 106.4L35.2 106.44L35.08 106.47L34.97 106.51L34.86 106.53L34.75 106.56L34.64 106.58L34.53 106.6L34.42 106.61L34.31 106.62L34.2 106.62L34.1 106.62L34 106.62L33.89 106.61L33.79 106.6L33.7 106.58L33.6 106.56L33.5 106.53L33.41 106.5L33.32 106.46L33.22 106.42L33.14 106.37L33.05 106.32L32.96 106.26L32.88 106.19L32.8 106.12L32.72 106.05L21.37 94.7L21.29 94.62L21.23 94.54L21.16 94.46L21.11 94.37L21.05 94.29L21.01 94.2L20.97 94.11L20.93 94.02L20.9 93.93L20.88 93.84L20.86 93.74L20.84 93.65L20.83 93.55L20.83 93.45L20.83 93.35L20.83 93.25L20.84 93.14L20.85 93.04L20.86 92.93L20.88 92.83L20.91 92.72L20.93 92.61L20.96 92.5L20.99 92.39L21.03 92.27L21.07 92.16L21.11 92.04L21.15 91.93L21.2 91.81L21.25 91.69L21.3 91.57L21.35 91.45L21.41 91.33L21.47 91.2L21.53 91.08L21.59 90.95L21.65 90.83L21.71 90.7L21.78 90.57L21.84 90.44L26.33 82.69L26.26 82.55L25.51 81.04L24.82 79.49L24.19 77.92L23.62 76.31L23.4 75.59L14.72 73.27L14.58 73.23L14.44 73.18L14.31 73.14L14.18 73.09L14.04 73.05L13.91 73L13.79 72.96L13.66 72.91L13.54 72.86L13.42 72.81L13.3 72.76L13.18 72.71L13.07 72.66L12.96 72.61L12.85 72.55L12.74 72.5L12.64 72.44L12.54 72.39L12.45 72.33L12.35 72.27L12.26 72.2L12.18 72.14L12.1 72.07L12.02 72.01L11.95 71.94L11.88 71.87L11.81 71.79L11.75 71.72L11.69 71.64L11.64 71.56L11.59 71.47L11.54 71.39L11.51 71.3L11.47 71.21L11.44 71.11L11.42 71.02L11.4 70.92L11.39 70.81L11.38 70.71L11.37 70.6L11.37 54.55L11.38 54.44L11.39 54.33L11.4 54.23L11.42 54.13L11.44 54.03L11.47 53.93L11.51 53.84L11.54 53.75L11.59 53.66L11.64 53.57L11.69 53.48L11.75 53.4L11.81 53.32L11.88 53.24L11.95 53.17L12.02 53.09L12.1 53.02L12.18 52.95L12.26 52.88L12.35 52.82L12.45 52.76L12.54 52.69L12.64 52.63L12.74 52.58L12.85 52.52L12.96 52.47L13.07 52.41L13.18 52.36L13.3 52.31L13.42 52.27L13.54 52.22L13.66 52.18L13.79 52.13L13.91 52.09L14.04 52.05L14.18 52.01L14.31 51.98L14.44 51.94L14.58 51.91L14.72 51.87L23.4 49.56L23.62 48.84L24.19 47.23L24.82 45.65L25.51 44.11L26.26 42.6L26.34 42.45L21.84 34.67L21.78 34.55L21.71 34.42L21.65 34.29L21.59 34.16L21.53 34.04L21.47 33.91L21.41 33.79L21.35 33.67L21.3 33.55L21.25 33.43L21.2 33.31L21.15 33.19L21.11 33.07L21.07 32.96L21.03 32.84L20.99 32.73L20.96 32.62L20.93 32.51L20.91 32.4L20.88 32.29L20.86 32.18L20.85 32.08L20.84 31.97L20.83 31.87L20.83 31.77L20.83 31.67L20.83 31.57L20.84 31.47L20.86 31.38L20.88 31.28L20.9 31.19L20.93 31.1L20.97 31.01L21.01 30.92L21.05 30.83L21.11 30.75L21.16 30.66L21.23 30.58L21.29 30.5L21.37 30.42L32.72 19.07L32.8 18.99L32.88 18.92L32.96 18.86L33.05 18.8L33.14 18.75L33.22 18.7L33.32 18.66L33.41 18.62L33.5 18.59L33.6 18.56L33.7 18.54L33.79 18.52L33.89 18.51L34 18.5L34.1 18.5L34.2 18.5L34.31 18.5L34.42 18.51L34.53 18.52L34.64 18.54L34.75 18.56L34.86 18.58L34.97 18.61L35.08 18.64L35.2 18.68L35.31 18.72L35.43 18.76L35.54 18.8L35.66 18.85L35.78 18.9L35.9 18.95L36.01 19.01L36.13 19.07L36.25 19.13L36.37 19.19L36.49 19.26L36.61 19.33L36.73 19.4L36.85 19.47L36.97 19.54L44.75 24.04L44.9 23.96L46.41 23.21L47.95 22.52L49.53 21.89L51.13 21.32L51.86 21.1L54.17 12.42L54.21 12.28L54.24 12.14L54.28 12.01L54.31 11.88L54.35 11.74L54.39 11.62L54.43 11.49L54.48 11.36L54.52 11.24L54.57 11.12L54.61 11L54.66 10.88L54.71 10.77L54.77 10.66L54.82 10.55L54.88 10.44L54.93 10.34L54.99 10.24L55.05 10.15L55.12 10.05L55.18 9.97L55.25 9.88L55.32 9.8L55.39 9.72L55.47 9.65L55.54 9.58L55.62 9.51L55.7 9.45L55.78 9.39L55.87 9.34L55.96 9.29L56.05 9.25L56.14 9.21L56.23 9.17L56.33 9.14L56.43 9.12L56.53 9.1L56.63 9.09L56.74 9.08L56.85 9.07L64.87 9.07L64.87 39.17L63.91 39.19Z" id="a16Y5vxlEe"></path><path d="M154.54 68.79L154.62 68.8L154.7 68.82L154.78 68.84L154.86 68.86L154.94 68.89L155.01 68.92L155.08 68.96L155.15 69L155.21 69.04L155.28 69.09L155.34 69.14L155.4 69.19L155.46 69.25L155.52 69.31L155.57 69.38L155.63 69.44L155.68 69.51L155.73 69.59L155.78 69.66L155.83 69.74L155.88 69.82L155.92 69.91L155.97 70L156.01 70.08L156.06 70.18L156.1 70.27L156.14 70.36L156.18 70.46L156.22 70.56L156.26 70.66L156.3 70.77L156.34 70.87L156.37 70.98L156.41 71.09L156.45 71.2L156.49 71.31L156.52 71.42L156.56 71.53L158.46 78.67L159.06 78.85L160.38 79.32L161.68 79.84L162.95 80.41L164.19 81.02L164.29 81.08L170.71 77.37L170.81 77.31L170.92 77.26L171.02 77.21L171.13 77.16L171.23 77.11L171.33 77.06L171.43 77.01L171.53 76.96L171.63 76.92L171.73 76.88L171.83 76.84L171.93 76.8L172.02 76.76L172.12 76.73L172.21 76.7L172.31 76.67L172.4 76.64L172.49 76.62L172.58 76.6L172.67 76.58L172.76 76.56L172.84 76.55L172.93 76.54L173.01 76.53L173.1 76.53L173.18 76.53L173.26 76.54L173.34 76.54L173.42 76.56L173.5 76.57L173.57 76.59L173.65 76.62L173.72 76.65L173.8 76.68L173.87 76.72L173.94 76.76L174.01 76.81L174.08 76.86L174.14 76.91L174.21 76.98L183.54 86.31L183.6 86.38L183.66 86.44L183.71 86.51L183.76 86.58L183.8 86.65L183.84 86.73L183.88 86.8L183.91 86.88L183.94 86.95L183.96 87.03L183.98 87.11L183.99 87.2L184 87.28L184.01 87.36L184.01 87.45L184.01 87.53L184.01 87.62L184 87.71L183.99 87.8L183.98 87.89L183.96 87.98L183.94 88.07L183.92 88.16L183.89 88.25L183.86 88.35L183.83 88.44L183.8 88.54L183.76 88.63L183.72 88.73L183.68 88.83L183.64 88.92L183.59 89.02L183.54 89.12L183.49 89.22L183.44 89.32L183.39 89.41L183.33 89.51L183.27 89.61L183.21 89.71L183.15 89.81L179.44 96.21L179.52 96.35L180.13 97.6L180.7 98.87L181.22 100.16L181.69 101.48L181.87 102.08L189.01 103.98L189.12 104.01L189.24 104.04L189.35 104.07L189.46 104.1L189.56 104.13L189.67 104.16L189.78 104.19L189.88 104.23L189.98 104.27L190.08 104.3L190.18 104.34L190.27 104.38L190.37 104.43L190.46 104.47L190.55 104.51L190.63 104.56L190.72 104.61L190.8 104.66L190.88 104.71L190.96 104.76L191.03 104.81L191.1 104.87L191.17 104.93L191.23 104.98L191.29 105.05L191.35 105.11L191.4 105.17L191.45 105.24L191.5 105.31L191.54 105.38L191.58 105.45L191.62 105.52L191.65 105.6L191.68 105.67L191.71 105.75L191.72 105.84L191.74 105.92L191.75 106L191.76 106.09L191.76 106.18L191.76 119.38L191.76 119.47L191.75 119.56L191.74 119.64L191.72 119.73L191.71 119.81L191.68 119.88L191.65 119.96L191.62 120.03L191.58 120.1L191.54 120.17L191.5 120.24L191.45 120.3L191.4 120.36L191.35 120.42L191.29 120.48L191.23 120.54L191.17 120.59L191.1 120.65L191.03 120.7L190.96 120.75L190.88 120.8L190.8 120.85L190.72 120.9L190.63 120.94L190.55 120.99L190.46 121.03L190.37 121.08L190.27 121.12L190.18 121.16L190.08 121.2L189.98 121.24L189.88 121.28L189.78 121.32L189.67 121.36L189.56 121.4L189.46 121.43L189.35 121.47L189.24 121.51L189.12 121.55L189.01 121.58L181.87 123.48L181.69 124.08L181.22 125.4L180.7 126.7L180.13 127.97L179.52 129.21L179.45 129.34L183.15 135.73L183.21 135.83L183.27 135.93L183.33 136.03L183.39 136.12L183.44 136.22L183.49 136.32L183.54 136.42L183.59 136.52L183.64 136.61L183.68 136.71L183.72 136.81L183.76 136.9L183.8 137L183.83 137.1L183.86 137.19L183.89 137.28L183.92 137.38L183.94 137.47L183.96 137.56L183.98 137.65L183.99 137.74L184 137.83L184.01 137.92L184.01 138.01L184.01 138.09L184.01 138.18L184 138.26L183.99 138.34L183.98 138.42L183.96 138.5L183.94 138.58L183.91 138.66L183.88 138.74L183.84 138.81L183.8 138.89L183.76 138.96L183.71 139.03L183.66 139.1L183.6 139.16L183.54 139.23L174.21 148.56L174.14 148.62L174.08 148.68L174.01 148.73L173.94 148.78L173.87 148.82L173.8 148.86L173.72 148.89L173.65 148.92L173.57 148.95L173.5 148.97L173.42 148.98L173.34 148.99L173.26 149L173.18 149.01L173.1 149.01L173.01 149L172.93 149L172.84 148.99L172.76 148.98L172.67 148.96L172.58 148.94L172.49 148.92L172.4 148.9L172.31 148.87L172.21 148.84L172.12 148.81L172.02 148.78L171.93 148.74L171.83 148.7L171.73 148.66L171.63 148.62L171.53 148.57L171.43 148.53L171.33 148.48L171.23 148.43L171.13 148.38L171.02 148.33L170.92 148.28L170.81 148.23L170.71 148.17L164.32 144.47L164.19 144.54L162.95 145.16L161.68 145.72L160.38 146.24L159.06 146.71L158.46 146.89L156.56 154.03L156.52 154.15L156.49 154.26L156.45 154.37L156.41 154.48L156.37 154.59L156.34 154.69L156.3 154.8L156.26 154.9L156.22 155L156.18 155.1L156.14 155.2L156.1 155.3L156.06 155.39L156.01 155.48L155.97 155.57L155.92 155.66L155.88 155.74L155.83 155.82L155.78 155.9L155.73 155.98L155.68 156.05L155.63 156.12L155.57 156.19L155.52 156.25L155.46 156.31L155.4 156.37L155.34 156.42L155.28 156.48L155.21 156.52L155.15 156.57L155.08 156.61L155.01 156.64L154.94 156.67L154.86 156.7L154.78 156.73L154.7 156.75L154.62 156.76L154.54 156.77L154.45 156.78L154.36 156.78L141.16 156.78L141.07 156.78L140.98 156.77L140.9 156.76L140.81 156.75L140.73 156.73L140.65 156.7L140.58 156.67L140.5 156.64L140.43 156.61L140.35 156.57L140.28 156.52L140.22 156.48L140.15 156.42L140.09 156.37L140.02 156.31L139.96 156.25L139.9 156.19L139.85 156.12L139.79 156.05L139.74 155.98L139.69 155.9L139.63 155.82L139.59 155.74L139.54 155.66L139.49 155.57L139.45 155.48L139.4 155.39L139.36 155.3L139.32 155.2L139.28 155.1L139.24 155L139.21 154.9L139.17 154.8L139.14 154.69L139.11 154.59L139.08 154.48L139.04 154.37L139.02 154.26L138.99 154.15L138.96 154.03L137.06 146.89L136.46 146.71L135.14 146.24L133.85 145.72L132.58 145.16L131.33 144.54L131.18 144.46L124.82 148.15L124.72 148.21L124.62 148.27L124.52 148.33L124.42 148.38L124.32 148.44L124.22 148.49L124.12 148.54L124.03 148.59L123.93 148.63L123.83 148.68L123.73 148.72L123.64 148.76L123.54 148.79L123.45 148.83L123.35 148.86L123.26 148.89L123.17 148.91L123.07 148.94L122.98 148.96L122.89 148.97L122.8 148.99L122.71 149L122.62 149L122.54 149.01L122.45 149.01L122.37 149L122.28 149L122.2 148.99L122.12 148.97L122.04 148.95L121.96 148.93L121.88 148.9L121.81 148.87L121.73 148.84L121.66 148.8L121.59 148.76L121.52 148.71L121.45 148.65L121.38 148.6L121.32 148.54L111.98 139.2L111.92 139.14L111.86 139.07L111.81 139L111.76 138.93L111.72 138.86L111.68 138.79L111.65 138.72L111.62 138.64L111.6 138.57L111.58 138.49L111.56 138.41L111.55 138.34L111.54 138.26L111.54 138.17L111.54 138.09L111.54 138.01L111.54 137.92L111.55 137.84L111.57 137.75L111.58 137.66L111.6 137.57L111.62 137.48L111.65 137.39L111.67 137.3L111.7 137.21L111.73 137.11L111.77 137.02L111.8 136.92L111.84 136.83L111.88 136.73L111.93 136.63L111.97 136.53L112.01 136.43L112.06 136.33L112.11 136.23L112.16 136.12L112.21 136.02L112.26 135.91L112.32 135.81L112.37 135.7L116.06 129.32L116 129.21L115.39 127.97L114.82 126.7L114.3 125.4L113.83 124.08L113.65 123.48L106.51 121.58L106.4 121.55L106.29 121.51L106.17 121.47L106.07 121.43L105.96 121.4L105.85 121.36L105.75 121.32L105.64 121.28L105.54 121.24L105.44 121.2L105.34 121.16L105.25 121.12L105.15 121.08L105.06 121.03L104.97 120.99L104.89 120.94L104.8 120.9L104.72 120.85L104.64 120.8L104.57 120.75L104.49 120.7L104.42 120.65L104.36 120.59L104.29 120.54L104.23 120.48L104.17 120.42L104.12 120.36L104.07 120.3L104.02 120.24L103.98 120.17L103.94 120.1L103.9 120.03L103.87 119.96L103.84 119.88L103.82 119.81L103.8 119.73L103.78 119.64L103.77 119.56L103.76 119.47L103.76 119.38L103.76 106.18L103.76 106.09L103.77 106L103.78 105.92L103.8 105.84L103.82 105.75L103.84 105.67L103.87 105.6L103.9 105.52L103.94 105.45L103.98 105.38L104.02 105.31L104.07 105.24L104.12 105.17L104.17 105.11L104.23 105.05L104.29 104.98L104.36 104.93L104.42 104.87L104.49 104.81L104.57 104.76L104.64 104.71L104.72 104.66L104.8 104.61L104.89 104.56L104.97 104.51L105.06 104.47L105.15 104.43L105.25 104.38L105.34 104.34L105.44 104.3L105.54 104.27L105.64 104.23L105.75 104.19L105.85 104.16L105.96 104.13L106.07 104.1L106.17 104.07L106.29 104.04L106.4 104.01L106.51 103.98L113.65 102.08L113.83 101.48L114.3 100.16L114.82 98.87L115.39 97.6L116 96.35L116.07 96.23L112.37 89.84L112.32 89.73L112.26 89.62L112.21 89.52L112.16 89.42L112.11 89.31L112.06 89.21L112.01 89.11L111.97 89.01L111.93 88.91L111.88 88.81L111.84 88.71L111.8 88.62L111.77 88.52L111.73 88.42L111.7 88.33L111.67 88.24L111.65 88.15L111.62 88.05L111.6 87.96L111.58 87.88L111.57 87.79L111.55 87.7L111.54 87.61L111.54 87.53L111.54 87.45L111.54 87.36L111.54 87.28L111.55 87.2L111.56 87.12L111.58 87.05L111.6 86.97L111.62 86.89L111.65 86.82L111.68 86.75L111.72 86.68L111.76 86.6L111.81 86.54L111.86 86.47L111.92 86.4L111.98 86.34L121.32 77L121.38 76.94L121.45 76.88L121.52 76.83L121.59 76.78L121.66 76.74L121.73 76.7L121.81 76.66L121.88 76.63L121.96 76.61L122.04 76.59L122.12 76.57L122.2 76.55L122.28 76.54L122.37 76.53L122.45 76.53L122.54 76.53L122.62 76.53L122.71 76.54L122.8 76.55L122.89 76.57L122.98 76.58L123.07 76.6L123.17 76.63L123.26 76.65L123.35 76.68L123.45 76.71L123.54 76.75L123.64 76.78L123.73 76.82L123.83 76.86L123.93 76.91L124.03 76.95L124.12 77L124.22 77.05L124.32 77.1L124.42 77.16L124.52 77.21L124.62 77.27L124.72 77.33L124.82 77.39L131.21 81.09L131.33 81.02L132.58 80.41L133.85 79.84L135.14 79.32L136.46 78.85L137.06 78.67L138.96 71.53L138.99 71.42L139.02 71.31L139.04 71.2L139.08 71.09L139.11 70.98L139.14 70.87L139.17 70.77L139.21 70.66L139.24 70.56L139.28 70.46L139.32 70.36L139.36 70.27L139.4 70.18L139.45 70.08L139.49 70L139.54 69.91L139.59 69.82L139.63 69.74L139.69 69.66L139.74 69.59L139.79 69.51L139.85 69.44L139.9 69.38L139.96 69.31L140.02 69.25L140.09 69.19L140.15 69.14L140.22 69.09L140.28 69.04L140.35 69L140.43 68.96L140.5 68.92L140.58 68.89L140.65 68.86L140.73 68.84L140.81 68.82L140.9 68.8L140.98 68.79L141.07 68.78L141.16 68.78L154.36 68.78L154.45 68.78L154.54 68.79ZM146.18 93.6L145.41 93.67L144.64 93.78L143.88 93.92L143.13 94.09L142.4 94.29L141.68 94.51L140.97 94.77L140.27 95.05L139.58 95.35L138.91 95.68L138.26 96.04L137.62 96.42L137 96.82L136.39 97.25L135.8 97.7L135.23 98.17L134.68 98.66L134.15 99.17L133.64 99.7L133.14 100.25L132.67 100.83L132.23 101.41L131.8 102.02L131.4 102.64L131.02 103.28L130.66 103.94L130.33 104.61L130.02 105.29L129.74 105.99L129.49 106.7L129.27 107.42L129.07 108.16L128.9 108.9L128.76 109.66L128.65 110.43L128.57 111.2L128.53 111.99L128.51 112.78L128.53 113.58L128.57 114.36L128.65 115.14L128.76 115.9L128.9 116.66L129.07 117.41L129.27 118.14L129.49 118.87L129.74 119.58L130.02 120.28L130.33 120.96L130.66 121.63L131.02 122.28L131.4 122.92L131.8 123.55L132.23 124.15L132.67 124.74L133.14 125.31L133.64 125.86L134.15 126.39L134.68 126.91L135.23 127.4L135.8 127.87L136.39 128.32L137 128.74L137.62 129.15L138.26 129.53L138.91 129.88L139.58 130.21L140.27 130.52L140.97 130.8L141.68 131.05L142.4 131.28L143.13 131.47L143.88 131.64L144.64 131.78L145.41 131.89L146.18 131.97L146.97 132.02L147.76 132.03L148.55 132.02L149.34 131.97L150.12 131.89L150.88 131.78L151.64 131.64L152.39 131.47L153.12 131.28L153.85 131.05L154.56 130.8L155.25 130.52L155.94 130.21L156.61 129.88L157.26 129.53L157.9 129.15L158.52 128.74L159.13 128.32L159.72 127.87L160.29 127.4L160.84 126.91L161.37 126.39L161.89 125.86L162.38 125.31L162.85 124.74L163.3 124.15L163.72 123.55L164.13 122.92L164.51 122.28L164.86 121.63L165.19 120.96L165.5 120.28L165.78 119.58L166.03 118.87L166.25 118.14L166.45 117.41L166.62 116.66L166.76 115.9L166.87 115.14L166.95 114.36L166.99 113.58L167.01 112.78L166.99 111.99L166.95 111.2L166.87 110.43L166.76 109.66L166.62 108.9L166.45 108.16L166.25 107.42L166.03 106.7L165.78 105.99L165.5 105.29L165.19 104.61L164.86 103.94L164.51 103.28L164.13 102.64L163.72 102.02L163.3 101.41L162.85 100.83L162.38 100.25L161.89 99.7L161.37 99.17L160.84 98.66L160.29 98.17L159.72 97.7L159.13 97.25L158.52 96.82L157.9 96.42L157.26 96.04L156.61 95.68L155.94 95.35L155.25 95.05L154.56 94.77L153.85 94.51L153.12 94.29L152.39 94.09L151.64 93.92L150.88 93.78L150.12 93.67L149.34 93.6L148.55 93.55L147.76 93.53L146.97 93.55L146.18 93.6Z" id="bbntABcgR"></path><path d="M145.41 93.67L144.64 93.78L143.88 93.92L143.13 94.09L142.4 94.29L141.68 94.51L140.97 94.77L140.27 95.05L139.58 95.35L138.91 95.68L138.26 96.04L137.62 96.42L137 96.82L136.39 97.25L135.8 97.7L135.23 98.17L134.68 98.66L134.15 99.17L133.64 99.7L133.14 100.25L132.67 100.83L132.23 101.41L131.8 102.02L131.4 102.64L131.02 103.28L130.66 103.94L130.33 104.61L130.02 105.29L129.74 105.99L129.49 106.7L129.27 107.42L129.07 108.16L128.9 108.9L128.76 109.66L128.65 110.43L128.57 111.2L128.53 111.99L128.51 112.78L128.53 113.58L128.57 114.36L128.65 115.14L128.76 115.9L128.9 116.66L129.07 117.41L129.27 118.14L129.49 118.87L129.74 119.58L130.02 120.28L130.33 120.96L130.66 121.63L131.02 122.28L131.4 122.92L131.8 123.55L132.23 124.15L132.67 124.74L133.14 125.31L133.64 125.86L134.15 126.39L134.68 126.91L135.23 127.4L135.8 127.87L136.39 128.32L137 128.74L137.62 129.15L138.26 129.53L138.91 129.88L139.58 130.21L140.27 130.52L140.97 130.8L141.68 131.05L142.4 131.28L143.13 131.47L143.88 131.64L144.64 131.78L145.41 131.89L146.18 131.97L146.97 132.02L147.76 132.03L147.76 156.78L141.16 156.78L141.07 156.78L140.98 156.77L140.9 156.76L140.81 156.75L140.73 156.73L140.65 156.7L140.58 156.67L140.5 156.64L140.43 156.61L140.35 156.57L140.28 156.52L140.22 156.48L140.15 156.42L140.09 156.37L140.02 156.31L139.96 156.25L139.9 156.19L139.85 156.12L139.79 156.05L139.74 155.98L139.69 155.9L139.63 155.82L139.59 155.74L139.54 155.66L139.49 155.57L139.45 155.48L139.4 155.39L139.36 155.3L139.32 155.2L139.28 155.1L139.24 155L139.21 154.9L139.17 154.8L139.14 154.69L139.11 154.59L139.08 154.48L139.04 154.37L139.02 154.26L138.99 154.15L138.96 154.03L137.06 146.89L136.46 146.71L135.14 146.24L133.85 145.72L132.58 145.16L131.33 144.54L131.18 144.46L124.82 148.15L124.72 148.21L124.62 148.27L124.52 148.33L124.42 148.38L124.32 148.44L124.22 148.49L124.12 148.54L124.03 148.59L123.93 148.63L123.83 148.68L123.73 148.72L123.64 148.76L123.54 148.79L123.45 148.83L123.35 148.86L123.26 148.89L123.17 148.91L123.07 148.94L122.98 148.96L122.89 148.97L122.8 148.99L122.71 149L122.62 149L122.54 149.01L122.45 149.01L122.37 149L122.28 149L122.2 148.99L122.12 148.97L122.04 148.95L121.96 148.93L121.88 148.9L121.81 148.87L121.73 148.84L121.66 148.8L121.59 148.76L121.52 148.71L121.45 148.65L121.38 148.6L121.32 148.54L111.98 139.2L111.92 139.14L111.86 139.07L111.81 139L111.76 138.93L111.72 138.86L111.68 138.79L111.65 138.72L111.62 138.64L111.6 138.57L111.58 138.49L111.56 138.41L111.55 138.34L111.54 138.26L111.54 138.17L111.54 138.09L111.54 138.01L111.54 137.92L111.55 137.84L111.57 137.75L111.58 137.66L111.6 137.57L111.62 137.48L111.65 137.39L111.67 137.3L111.7 137.21L111.73 137.11L111.77 137.02L111.8 136.92L111.84 136.83L111.88 136.73L111.93 136.63L111.97 136.53L112.01 136.43L112.06 136.33L112.11 136.23L112.16 136.12L112.21 136.02L112.26 135.91L112.32 135.81L112.37 135.7L116.06 129.32L116 129.21L115.39 127.97L114.82 126.7L114.3 125.4L113.83 124.08L113.65 123.48L106.51 121.58L106.4 121.55L106.29 121.51L106.17 121.47L106.07 121.43L105.96 121.4L105.85 121.36L105.75 121.32L105.64 121.28L105.54 121.24L105.44 121.2L105.34 121.16L105.25 121.12L105.15 121.08L105.06 121.03L104.97 120.99L104.89 120.94L104.8 120.9L104.72 120.85L104.64 120.8L104.57 120.75L104.49 120.7L104.42 120.65L104.36 120.59L104.29 120.54L104.23 120.48L104.17 120.42L104.12 120.36L104.07 120.3L104.02 120.24L103.98 120.17L103.94 120.1L103.9 120.03L103.87 119.96L103.84 119.88L103.82 119.81L103.8 119.73L103.78 119.64L103.77 119.56L103.76 119.47L103.76 119.38L103.76 106.18L103.76 106.09L103.77 106L103.78 105.92L103.8 105.84L103.82 105.75L103.84 105.67L103.87 105.6L103.9 105.52L103.94 105.45L103.98 105.38L104.02 105.31L104.07 105.24L104.12 105.17L104.17 105.11L104.23 105.05L104.29 104.98L104.36 104.93L104.42 104.87L104.49 104.81L104.57 104.76L104.64 104.71L104.72 104.66L104.8 104.61L104.89 104.56L104.97 104.51L105.06 104.47L105.15 104.43L105.25 104.38L105.34 104.34L105.44 104.3L105.54 104.27L105.64 104.23L105.75 104.19L105.85 104.16L105.96 104.13L106.07 104.1L106.17 104.07L106.29 104.04L106.4 104.01L106.51 103.98L113.65 102.08L113.83 101.48L114.3 100.16L114.82 98.87L115.39 97.6L116 96.35L116.07 96.23L112.37 89.84L112.32 89.73L112.26 89.62L112.21 89.52L112.16 89.42L112.11 89.31L112.06 89.21L112.01 89.11L111.97 89.01L111.93 88.91L111.88 88.81L111.84 88.71L111.8 88.62L111.77 88.52L111.73 88.42L111.7 88.33L111.67 88.24L111.65 88.15L111.62 88.05L111.6 87.96L111.58 87.88L111.57 87.79L111.55 87.7L111.54 87.61L111.54 87.53L111.54 87.45L111.54 87.36L111.54 87.28L111.55 87.2L111.56 87.12L111.58 87.05L111.6 86.97L111.62 86.89L111.65 86.82L111.68 86.75L111.72 86.68L111.76 86.6L111.81 86.54L111.86 86.47L111.92 86.4L111.98 86.34L121.32 77L121.38 76.94L121.45 76.88L121.52 76.83L121.59 76.78L121.66 76.74L121.73 76.7L121.81 76.66L121.88 76.63L121.96 76.61L122.04 76.59L122.12 76.57L122.2 76.55L122.28 76.54L122.37 76.53L122.45 76.53L122.54 76.53L122.62 76.53L122.71 76.54L122.8 76.55L122.89 76.57L122.98 76.58L123.07 76.6L123.17 76.63L123.26 76.65L123.35 76.68L123.45 76.71L123.54 76.75L123.64 76.78L123.73 76.82L123.83 76.86L123.93 76.91L124.03 76.95L124.12 77L124.22 77.05L124.32 77.1L124.42 77.16L124.52 77.21L124.62 77.27L124.72 77.33L124.82 77.39L131.21 81.09L131.33 81.02L132.58 80.41L133.85 79.84L135.14 79.32L136.46 78.85L137.06 78.67L138.96 71.53L138.99 71.42L139.02 71.31L139.04 71.2L139.08 71.09L139.11 70.98L139.14 70.87L139.17 70.77L139.21 70.66L139.24 70.56L139.28 70.46L139.32 70.36L139.36 70.27L139.4 70.18L139.45 70.08L139.49 70L139.54 69.91L139.59 69.82L139.63 69.74L139.69 69.66L139.74 69.59L139.79 69.51L139.85 69.44L139.9 69.38L139.96 69.31L140.02 69.25L140.09 69.19L140.15 69.14L140.22 69.09L140.28 69.04L140.35 69L140.43 68.96L140.5 68.92L140.58 68.89L140.65 68.86L140.73 68.84L140.81 68.82L140.9 68.8L140.98 68.79L141.07 68.78L141.16 68.78L147.76 68.78L147.76 93.53L146.97 93.55L146.18 93.6L145.41 93.67Z" id="b2sKe0va9G"></path><path d="M102.72 139.17L102.84 139.19L102.96 139.21L103.08 139.24L103.19 139.27L103.3 139.31L103.4 139.36L103.5 139.41L103.6 139.47L103.7 139.53L103.79 139.6L103.88 139.67L103.97 139.75L104.05 139.84L104.14 139.92L104.22 140.02L104.29 140.11L104.37 140.21L104.44 140.32L104.52 140.43L104.59 140.54L104.65 140.66L104.72 140.78L104.79 140.91L104.85 141.04L104.91 141.17L104.97 141.3L105.03 141.44L105.09 141.58L105.15 141.73L105.21 141.87L105.26 142.02L105.32 142.17L105.37 142.33L105.43 142.48L105.48 142.64L105.53 142.8L105.59 142.96L105.64 143.13L108.39 153.43L109.25 153.69L111.15 154.37L113.02 155.12L114.86 155.94L116.65 156.82L116.8 156.9L126.06 151.54L126.21 151.47L126.36 151.39L126.51 151.31L126.66 151.24L126.81 151.17L126.96 151.1L127.11 151.03L127.25 150.97L127.39 150.9L127.54 150.84L127.68 150.78L127.82 150.73L127.96 150.68L128.09 150.63L128.23 150.58L128.36 150.54L128.5 150.5L128.63 150.46L128.76 150.43L128.89 150.41L129.01 150.38L129.14 150.37L129.26 150.35L129.38 150.34L129.51 150.34L129.62 150.34L129.74 150.35L129.86 150.36L129.97 150.38L130.08 150.4L130.19 150.43L130.3 150.47L130.41 150.51L130.52 150.55L130.62 150.61L130.72 150.67L130.82 150.74L130.92 150.81L131.01 150.89L131.11 150.98L144.58 164.45L144.67 164.55L144.75 164.64L144.83 164.74L144.9 164.84L144.96 164.95L145.01 165.05L145.06 165.16L145.11 165.27L145.15 165.38L145.18 165.5L145.21 165.61L145.23 165.73L145.24 165.85L145.25 165.97L145.26 166.09L145.26 166.22L145.25 166.34L145.24 166.47L145.23 166.6L145.21 166.73L145.18 166.86L145.15 166.99L145.12 167.12L145.08 167.26L145.04 167.39L145 167.53L144.95 167.67L144.9 167.81L144.84 167.95L144.78 168.08L144.72 168.22L144.65 168.37L144.58 168.51L144.51 168.65L144.43 168.79L144.35 168.93L144.27 169.08L144.19 169.22L144.1 169.36L144.02 169.5L138.67 178.75L138.78 178.95L139.66 180.74L140.48 182.57L141.23 184.44L141.9 186.35L142.17 187.21L152.47 189.96L152.64 190L152.8 190.04L152.96 190.08L153.12 190.12L153.27 190.17L153.43 190.21L153.58 190.26L153.73 190.31L153.87 190.37L154.02 190.42L154.16 190.48L154.3 190.54L154.43 190.6L154.56 190.66L154.69 190.72L154.82 190.79L154.94 190.86L155.05 190.93L155.17 191L155.28 191.08L155.38 191.16L155.49 191.24L155.58 191.32L155.67 191.4L155.76 191.49L155.85 191.58L155.92 191.67L156 191.77L156.07 191.87L156.13 191.97L156.19 192.07L156.24 192.18L156.29 192.29L156.33 192.4L156.36 192.51L156.39 192.63L156.41 192.75L156.43 192.88L156.44 193L156.44 193.13L156.44 212.18L156.44 212.31L156.43 212.44L156.41 212.56L156.39 212.68L156.36 212.79L156.33 212.9L156.29 213.01L156.24 213.12L156.19 213.22L156.13 213.32L156.07 213.41L156 213.51L155.92 213.6L155.85 213.68L155.76 213.77L155.67 213.85L155.58 213.93L155.49 214.01L155.38 214.09L155.28 214.16L155.17 214.23L155.05 214.3L154.94 214.37L154.82 214.44L154.69 214.5L154.56 214.57L154.43 214.63L154.3 214.69L154.16 214.75L154.02 214.81L153.87 214.87L153.73 214.92L153.58 214.98L153.43 215.03L153.27 215.09L153.12 215.14L152.96 215.2L152.8 215.25L152.64 215.3L152.47 215.36L142.17 218.1L141.9 218.96L141.23 220.87L140.48 222.74L139.66 224.57L138.78 226.37L138.68 226.55L144.02 235.77L144.1 235.92L144.19 236.06L144.27 236.2L144.35 236.34L144.43 236.49L144.51 236.63L144.58 236.77L144.65 236.91L144.72 237.05L144.78 237.19L144.84 237.33L144.9 237.47L144.95 237.61L145 237.75L145.04 237.88L145.08 238.02L145.12 238.15L145.15 238.29L145.18 238.42L145.21 238.55L145.23 238.68L145.24 238.81L145.25 238.93L145.26 239.06L145.26 239.18L145.25 239.31L145.24 239.43L145.23 239.55L145.21 239.66L145.18 239.78L145.15 239.89L145.11 240.01L145.06 240.12L145.01 240.22L144.96 240.33L144.9 240.43L144.83 240.53L144.75 240.63L144.67 240.73L144.58 240.82L131.11 254.29L131.01 254.38L130.92 254.46L130.82 254.54L130.72 254.61L130.62 254.67L130.52 254.72L130.41 254.77L130.3 254.81L130.19 254.85L130.08 254.88L129.97 254.9L129.86 254.92L129.74 254.93L129.62 254.94L129.51 254.94L129.38 254.93L129.26 254.92L129.14 254.91L129.01 254.89L128.89 254.87L128.76 254.84L128.63 254.81L128.5 254.78L128.36 254.74L128.23 254.7L128.09 254.65L127.96 254.6L127.82 254.55L127.68 254.49L127.54 254.44L127.39 254.37L127.25 254.31L127.11 254.25L126.96 254.18L126.81 254.11L126.66 254.04L126.51 253.96L126.36 253.89L126.21 253.81L126.06 253.73L116.83 248.39L116.65 248.49L114.86 249.38L113.02 250.2L111.15 250.94L109.25 251.62L108.39 251.89L105.64 262.19L105.59 262.35L105.53 262.51L105.48 262.67L105.43 262.83L105.37 262.99L105.32 263.14L105.26 263.29L105.21 263.44L105.15 263.59L105.09 263.73L105.03 263.87L104.97 264.01L104.91 264.15L104.85 264.28L104.79 264.41L104.72 264.53L104.65 264.65L104.59 264.77L104.52 264.88L104.44 264.99L104.37 265.1L104.29 265.2L104.22 265.3L104.14 265.39L104.05 265.48L103.97 265.56L103.88 265.64L103.79 265.71L103.7 265.78L103.6 265.85L103.5 265.9L103.4 265.95L103.3 266L103.19 266.04L103.08 266.08L102.96 266.11L102.84 266.13L102.72 266.14L102.6 266.15L102.47 266.16L83.42 266.16L83.29 266.15L83.16 266.14L83.04 266.13L82.92 266.11L82.8 266.08L82.68 266.04L82.57 266L82.46 265.95L82.36 265.9L82.25 265.85L82.15 265.78L82.05 265.71L81.96 265.64L81.87 265.56L81.78 265.48L81.69 265.39L81.6 265.3L81.52 265.2L81.44 265.1L81.36 264.99L81.29 264.88L81.21 264.77L81.14 264.65L81.07 264.53L81.01 264.41L80.94 264.28L80.88 264.15L80.82 264.01L80.76 263.87L80.71 263.73L80.65 263.59L80.6 263.44L80.55 263.29L80.5 263.14L80.45 262.99L80.41 262.83L80.36 262.67L80.32 262.51L80.28 262.35L80.24 262.19L77.5 251.89L76.63 251.62L74.73 250.94L72.86 250.2L71.03 249.38L69.23 248.49L69.01 248.37L59.83 253.69L59.68 253.78L59.54 253.87L59.4 253.95L59.25 254.03L59.11 254.11L58.97 254.19L58.83 254.26L58.69 254.33L58.55 254.4L58.41 254.46L58.27 254.52L58.13 254.57L57.99 254.63L57.85 254.68L57.72 254.72L57.58 254.76L57.45 254.8L57.31 254.83L57.18 254.86L57.05 254.89L56.92 254.91L56.79 254.92L56.66 254.93L56.54 254.94L56.41 254.94L56.29 254.93L56.17 254.92L56.05 254.91L55.93 254.88L55.82 254.86L55.7 254.83L55.59 254.79L55.48 254.74L55.38 254.69L55.27 254.64L55.17 254.57L55.06 254.5L54.97 254.43L54.87 254.35L54.78 254.26L41.3 240.79L41.22 240.69L41.13 240.6L41.06 240.5L40.99 240.4L40.93 240.3L40.88 240.19L40.83 240.09L40.79 239.98L40.75 239.87L40.72 239.76L40.7 239.65L40.68 239.54L40.67 239.42L40.66 239.3L40.66 239.18L40.67 239.06L40.67 238.94L40.69 238.82L40.71 238.69L40.73 238.56L40.76 238.44L40.79 238.31L40.82 238.17L40.86 238.04L40.9 237.91L40.95 237.77L41 237.63L41.05 237.5L41.1 237.36L41.16 237.21L41.22 237.07L41.29 236.93L41.35 236.78L41.42 236.64L41.49 236.49L41.56 236.34L41.64 236.19L41.71 236.04L41.79 235.89L41.87 235.73L47.2 226.53L47.11 226.37L46.22 224.57L45.4 222.74L44.65 220.87L43.98 218.96L43.71 218.1L33.41 215.36L33.25 215.3L33.08 215.25L32.92 215.2L32.77 215.14L32.61 215.09L32.46 215.03L32.31 214.98L32.16 214.92L32.01 214.87L31.87 214.81L31.72 214.75L31.59 214.69L31.45 214.63L31.32 214.57L31.19 214.5L31.07 214.44L30.95 214.37L30.83 214.3L30.71 214.23L30.6 214.16L30.5 214.09L30.4 214.01L30.3 213.93L30.21 213.85L30.12 213.77L30.04 213.68L29.96 213.6L29.88 213.51L29.82 213.41L29.75 213.32L29.7 213.22L29.64 213.12L29.6 213.01L29.56 212.9L29.52 212.79L29.49 212.68L29.47 212.56L29.45 212.44L29.44 212.31L29.44 212.18L29.44 193.13L29.44 193L29.45 192.88L29.47 192.75L29.49 192.63L29.52 192.51L29.56 192.4L29.6 192.29L29.64 192.18L29.7 192.07L29.75 191.97L29.82 191.87L29.88 191.77L29.96 191.67L30.04 191.58L30.12 191.49L30.21 191.4L30.3 191.32L30.4 191.24L30.5 191.16L30.6 191.08L30.71 191L30.83 190.93L30.95 190.86L31.07 190.79L31.19 190.72L31.32 190.66L31.45 190.6L31.59 190.54L31.72 190.48L31.87 190.42L32.01 190.37L32.16 190.31L32.31 190.26L32.46 190.21L32.61 190.17L32.77 190.12L32.92 190.08L33.08 190.04L33.25 190L33.41 189.96L43.71 187.21L43.98 186.35L44.65 184.44L45.4 182.57L46.22 180.74L47.11 178.95L47.21 178.77L41.87 169.54L41.79 169.39L41.71 169.24L41.64 169.09L41.56 168.94L41.49 168.79L41.42 168.64L41.35 168.49L41.29 168.35L41.22 168.2L41.16 168.06L41.1 167.92L41.05 167.78L41 167.64L40.95 167.51L40.9 167.37L40.86 167.23L40.82 167.1L40.79 166.97L40.76 166.84L40.73 166.71L40.71 166.59L40.69 166.46L40.67 166.34L40.67 166.21L40.66 166.09L40.66 165.97L40.67 165.86L40.68 165.74L40.7 165.63L40.72 165.51L40.75 165.4L40.79 165.3L40.83 165.19L40.88 165.08L40.93 164.98L40.99 164.88L41.06 164.78L41.13 164.68L41.22 164.59L41.3 164.49L54.78 151.02L54.87 150.93L54.97 150.85L55.06 150.77L55.17 150.7L55.27 150.64L55.38 150.58L55.48 150.53L55.59 150.49L55.7 150.45L55.82 150.42L55.93 150.39L56.05 150.37L56.17 150.36L56.29 150.35L56.41 150.34L56.54 150.34L56.66 150.35L56.79 150.36L56.92 150.37L57.05 150.39L57.18 150.41L57.31 150.44L57.45 150.48L57.58 150.51L57.72 150.55L57.85 150.6L57.99 150.65L58.13 150.7L58.27 150.76L58.41 150.82L58.55 150.88L58.69 150.95L58.83 151.02L58.97 151.09L59.11 151.17L59.25 151.24L59.4 151.32L59.54 151.41L59.68 151.49L59.83 151.58L69.05 156.92L69.23 156.82L71.03 155.94L72.86 155.12L74.73 154.37L76.63 153.69L77.5 153.43L80.24 143.13L80.28 142.96L80.32 142.8L80.36 142.64L80.41 142.48L80.45 142.33L80.5 142.17L80.55 142.02L80.6 141.87L80.65 141.73L80.71 141.58L80.76 141.44L80.82 141.3L80.88 141.17L80.94 141.04L81.01 140.91L81.07 140.78L81.14 140.66L81.21 140.54L81.29 140.43L81.36 140.32L81.44 140.21L81.52 140.11L81.6 140.02L81.69 139.92L81.78 139.84L81.87 139.75L81.96 139.67L82.05 139.6L82.15 139.53L82.25 139.47L82.36 139.41L82.46 139.36L82.57 139.31L82.68 139.27L82.8 139.24L82.92 139.21L83.04 139.19L83.16 139.17L83.29 139.16L83.42 139.16L102.47 139.16L102.6 139.16L102.72 139.17ZM90.66 174.97L89.54 175.08L88.43 175.24L87.34 175.44L86.26 175.68L85.2 175.97L84.16 176.29L83.13 176.66L82.13 177.06L81.14 177.5L80.17 177.98L79.23 178.49L78.31 179.04L77.41 179.62L76.53 180.24L75.68 180.88L74.86 181.56L74.07 182.27L73.3 183.01L72.56 183.78L71.85 184.58L71.17 185.4L70.52 186.25L69.9 187.12L69.32 188.02L68.77 188.95L68.26 189.89L67.78 190.86L67.34 191.84L66.94 192.85L66.58 193.88L66.25 194.92L65.97 195.98L65.72 197.06L65.52 198.15L65.37 199.26L65.25 200.38L65.18 201.51L65.16 202.66L65.18 203.8L65.25 204.94L65.37 206.06L65.52 207.16L65.72 208.26L65.97 209.33L66.25 210.39L66.58 211.44L66.94 212.46L67.34 213.47L67.78 214.46L68.26 215.42L68.77 216.37L69.32 217.29L69.9 218.19L70.52 219.06L71.17 219.91L71.85 220.74L72.56 221.53L73.3 222.3L74.07 223.04L74.86 223.75L75.68 224.43L76.53 225.08L77.41 225.69L78.31 226.28L79.23 226.82L80.17 227.34L81.14 227.81L82.13 228.26L83.13 228.66L84.16 229.02L85.2 229.35L86.26 229.63L87.34 229.87L88.43 230.07L89.54 230.23L90.66 230.35L91.8 230.42L92.94 230.44L94.09 230.42L95.22 230.35L96.34 230.23L97.45 230.07L98.54 229.87L99.62 229.63L100.68 229.35L101.72 229.02L102.75 228.66L103.75 228.26L104.74 227.81L105.71 227.34L106.65 226.82L107.58 226.28L108.47 225.69L109.35 225.08L110.2 224.43L111.02 223.75L111.82 223.04L112.59 222.3L113.33 221.53L114.03 220.74L114.71 219.91L115.36 219.06L115.98 218.19L116.56 217.29L117.11 216.37L117.62 215.42L118.1 214.46L118.54 213.47L118.94 212.46L119.31 211.44L119.63 210.39L119.91 209.33L120.16 208.26L120.36 207.16L120.52 206.06L120.63 204.94L120.7 203.8L120.72 202.66L120.7 201.51L120.63 200.38L120.52 199.26L120.36 198.15L120.16 197.06L119.91 195.98L119.63 194.92L119.31 193.88L118.94 192.85L118.54 191.84L118.1 190.86L117.62 189.89L117.11 188.95L116.56 188.02L115.98 187.12L115.36 186.25L114.71 185.4L114.03 184.58L113.33 183.78L112.59 183.01L111.82 182.27L111.02 181.56L110.2 180.88L109.35 180.24L108.47 179.62L107.58 179.04L106.65 178.49L105.71 177.98L104.74 177.5L103.75 177.06L102.75 176.66L101.72 176.29L100.68 175.97L99.62 175.68L98.54 175.44L97.45 175.24L96.34 175.08L95.22 174.97L94.09 174.9L92.94 174.88L91.8 174.9L90.66 174.97Z" id="bdTrn3nUA"></path><path d="M91.8 174.9L90.66 174.97L89.54 175.08L88.43 175.24L87.34 175.44L86.26 175.68L85.2 175.97L84.16 176.29L83.13 176.66L82.13 177.06L81.14 177.5L80.17 177.98L79.23 178.49L78.31 179.04L77.41 179.62L76.53 180.24L75.68 180.88L74.86 181.56L74.07 182.27L73.3 183.01L72.56 183.78L71.85 184.58L71.17 185.4L70.52 186.25L69.9 187.12L69.32 188.02L68.77 188.95L68.26 189.89L67.78 190.86L67.34 191.84L66.94 192.85L66.58 193.88L66.25 194.92L65.97 195.98L65.72 197.06L65.52 198.15L65.37 199.26L65.25 200.38L65.18 201.51L65.16 202.66L65.18 203.8L65.25 204.94L65.37 206.06L65.52 207.16L65.72 208.26L65.97 209.33L66.25 210.39L66.58 211.44L66.94 212.46L67.34 213.47L67.78 214.46L68.26 215.42L68.77 216.37L69.32 217.29L69.9 218.19L70.52 219.06L71.17 219.91L71.85 220.74L72.56 221.53L73.3 222.3L74.07 223.04L74.86 223.75L75.68 224.43L76.53 225.08L77.41 225.69L78.31 226.28L79.23 226.82L80.17 227.34L81.14 227.81L82.13 228.26L83.13 228.66L84.16 229.02L85.2 229.35L86.26 229.63L87.34 229.87L88.43 230.07L89.54 230.23L90.66 230.35L91.8 230.42L92.94 230.44L92.94 266.16L83.42 266.16L83.29 266.15L83.16 266.14L83.04 266.13L82.92 266.11L82.8 266.08L82.68 266.04L82.57 266L82.46 265.95L82.36 265.9L82.25 265.85L82.15 265.78L82.05 265.71L81.96 265.64L81.87 265.56L81.78 265.48L81.69 265.39L81.6 265.3L81.52 265.2L81.44 265.1L81.36 264.99L81.29 264.88L81.21 264.77L81.14 264.65L81.07 264.53L81.01 264.41L80.94 264.28L80.88 264.15L80.82 264.01L80.76 263.87L80.71 263.73L80.65 263.59L80.6 263.44L80.55 263.29L80.5 263.14L80.45 262.99L80.41 262.83L80.36 262.67L80.32 262.51L80.28 262.35L80.24 262.19L77.5 251.89L76.63 251.62L74.73 250.94L72.86 250.2L71.03 249.38L69.23 248.49L69.01 248.37L59.83 253.69L59.68 253.78L59.54 253.87L59.4 253.95L59.25 254.03L59.11 254.11L58.97 254.19L58.83 254.26L58.69 254.33L58.55 254.4L58.41 254.46L58.27 254.52L58.13 254.57L57.99 254.63L57.85 254.68L57.72 254.72L57.58 254.76L57.45 254.8L57.31 254.83L57.18 254.86L57.05 254.89L56.92 254.91L56.79 254.92L56.66 254.93L56.54 254.94L56.41 254.94L56.29 254.93L56.17 254.92L56.05 254.91L55.93 254.88L55.82 254.86L55.7 254.83L55.59 254.79L55.48 254.74L55.38 254.69L55.27 254.64L55.17 254.57L55.06 254.5L54.97 254.43L54.87 254.35L54.78 254.26L41.3 240.79L41.22 240.69L41.13 240.6L41.06 240.5L40.99 240.4L40.93 240.3L40.88 240.19L40.83 240.09L40.79 239.98L40.75 239.87L40.72 239.76L40.7 239.65L40.68 239.54L40.67 239.42L40.66 239.3L40.66 239.18L40.67 239.06L40.67 238.94L40.69 238.82L40.71 238.69L40.73 238.56L40.76 238.44L40.79 238.31L40.82 238.17L40.86 238.04L40.9 237.91L40.95 237.77L41 237.63L41.05 237.5L41.1 237.36L41.16 237.21L41.22 237.07L41.29 236.93L41.35 236.78L41.42 236.64L41.49 236.49L41.56 236.34L41.64 236.19L41.71 236.04L41.79 235.89L41.87 235.73L47.2 226.53L47.11 226.37L46.22 224.57L45.4 222.74L44.65 220.87L43.98 218.96L43.71 218.1L33.41 215.36L33.25 215.3L33.08 215.25L32.92 215.2L32.77 215.14L32.61 215.09L32.46 215.03L32.31 214.98L32.16 214.92L32.01 214.87L31.87 214.81L31.72 214.75L31.59 214.69L31.45 214.63L31.32 214.57L31.19 214.5L31.07 214.44L30.95 214.37L30.83 214.3L30.71 214.23L30.6 214.16L30.5 214.09L30.4 214.01L30.3 213.93L30.21 213.85L30.12 213.77L30.04 213.68L29.96 213.6L29.88 213.51L29.82 213.41L29.75 213.32L29.7 213.22L29.64 213.12L29.6 213.01L29.56 212.9L29.52 212.79L29.49 212.68L29.47 212.56L29.45 212.44L29.44 212.31L29.44 212.18L29.44 193.13L29.44 193L29.45 192.88L29.47 192.75L29.49 192.63L29.52 192.51L29.56 192.4L29.6 192.29L29.64 192.18L29.7 192.07L29.75 191.97L29.82 191.87L29.88 191.77L29.96 191.67L30.04 191.58L30.12 191.49L30.21 191.4L30.3 191.32L30.4 191.24L30.5 191.16L30.6 191.08L30.71 191L30.83 190.93L30.95 190.86L31.07 190.79L31.19 190.72L31.32 190.66L31.45 190.6L31.59 190.54L31.72 190.48L31.87 190.42L32.01 190.37L32.16 190.31L32.31 190.26L32.46 190.21L32.61 190.17L32.77 190.12L32.92 190.08L33.08 190.04L33.25 190L33.41 189.96L43.71 187.21L43.98 186.35L44.65 184.44L45.4 182.57L46.22 180.74L47.11 178.95L47.21 178.77L41.87 169.54L41.79 169.39L41.71 169.24L41.64 169.09L41.56 168.94L41.49 168.79L41.42 168.64L41.35 168.49L41.29 168.35L41.22 168.2L41.16 168.06L41.1 167.92L41.05 167.78L41 167.64L40.95 167.51L40.9 167.37L40.86 167.23L40.82 167.1L40.79 166.97L40.76 166.84L40.73 166.71L40.71 166.59L40.69 166.46L40.67 166.34L40.67 166.21L40.66 166.09L40.66 165.97L40.67 165.86L40.68 165.74L40.7 165.63L40.72 165.51L40.75 165.4L40.79 165.3L40.83 165.19L40.88 165.08L40.93 164.98L40.99 164.88L41.06 164.78L41.13 164.68L41.22 164.59L41.3 164.49L54.78 151.02L54.87 150.93L54.97 150.85L55.06 150.77L55.17 150.7L55.27 150.64L55.38 150.58L55.48 150.53L55.59 150.49L55.7 150.45L55.82 150.42L55.93 150.39L56.05 150.37L56.17 150.36L56.29 150.35L56.41 150.34L56.54 150.34L56.66 150.35L56.79 150.36L56.92 150.37L57.05 150.39L57.18 150.41L57.31 150.44L57.45 150.48L57.58 150.51L57.72 150.55L57.85 150.6L57.99 150.65L58.13 150.7L58.27 150.76L58.41 150.82L58.55 150.88L58.69 150.95L58.83 151.02L58.97 151.09L59.11 151.17L59.25 151.24L59.4 151.32L59.54 151.41L59.68 151.49L59.83 151.58L69.05 156.92L69.23 156.82L71.03 155.94L72.86 155.12L74.73 154.37L76.63 153.69L77.5 153.43L80.24 143.13L80.28 142.96L80.32 142.8L80.36 142.64L80.41 142.48L80.45 142.33L80.5 142.17L80.55 142.02L80.6 141.87L80.65 141.73L80.71 141.58L80.76 141.44L80.82 141.3L80.88 141.17L80.94 141.04L81.01 140.91L81.07 140.78L81.14 140.66L81.21 140.54L81.29 140.43L81.36 140.32L81.44 140.21L81.52 140.11L81.6 140.02L81.69 139.92L81.78 139.84L81.87 139.75L81.96 139.67L82.05 139.6L82.15 139.53L82.25 139.47L82.36 139.41L82.46 139.36L82.57 139.31L82.68 139.27L82.8 139.24L82.92 139.21L83.04 139.19L83.16 139.17L83.29 139.16L83.42 139.16L92.94 139.16L92.94 174.88L91.8 174.9Z" id="fuAdOw8Km"></path></defs><g><g><g><g><filter id="shadow11318963" x="4.37" y="2.07" width="121" height="121" filterUnits="userSpaceOnUse" primitiveUnits="userSpaceOnUse"><feFlood></feFlood><feComposite in2="SourceAlpha" operator="in"></feComposite><feGaussianBlur stdDeviation="1"></feGaussianBlur><feOffset dx="0" dy="0" result="afterOffset"></feOffset><feFlood flood-color="#000000" flood-opacity="0.5"></feFlood><feComposite in2="afterOffset" operator="in"></feComposite><feMorphology operator="dilate" radius="0"></feMorphology><feComposite in2="SourceAlpha" operator="out"></feComposite></filter><path d="M73.11 9.09L73.22 9.1L73.32 9.12L73.41 9.14L73.51 9.17L73.6 9.21L73.69 9.25L73.77 9.29L73.86 9.34L73.94 9.39L74.01 9.45L74.09 9.51L74.16 9.58L74.24 9.65L74.31 9.72L74.37 9.8L74.44 9.88L74.5 9.97L74.57 10.05L74.63 10.15L74.69 10.24L74.74 10.34L74.8 10.44L74.85 10.55L74.91 10.66L74.96 10.77L75.01 10.88L75.06 11L75.11 11.12L75.16 11.24L75.21 11.36L75.25 11.49L75.3 11.62L75.35 11.74L75.39 11.88L75.44 12.01L75.48 12.14L75.53 12.28L75.57 12.42L77.89 21.1L78.61 21.32L80.22 21.89L81.79 22.52L83.34 23.21L84.85 23.96L84.98 24.02L92.77 19.51L92.9 19.45L93.03 19.38L93.16 19.32L93.29 19.26L93.41 19.19L93.53 19.14L93.66 19.08L93.78 19.02L93.9 18.97L94.02 18.92L94.14 18.87L94.26 18.82L94.37 18.78L94.49 18.74L94.6 18.7L94.72 18.66L94.83 18.63L94.94 18.6L95.05 18.58L95.16 18.55L95.27 18.53L95.37 18.52L95.48 18.51L95.58 18.5L95.68 18.5L95.78 18.5L95.88 18.5L95.98 18.51L96.07 18.53L96.17 18.55L96.26 18.57L96.35 18.6L96.44 18.64L96.53 18.68L96.62 18.72L96.7 18.77L96.79 18.83L96.87 18.89L96.95 18.96L97.03 19.04L108.38 30.39L108.45 30.47L108.52 30.55L108.59 30.63L108.65 30.72L108.7 30.8L108.75 30.89L108.79 30.98L108.83 31.08L108.86 31.17L108.89 31.27L108.91 31.36L108.93 31.46L108.94 31.56L108.95 31.67L108.95 31.77L108.95 31.87L108.95 31.98L108.94 32.09L108.93 32.19L108.91 32.3L108.89 32.41L108.87 32.53L108.84 32.64L108.81 32.75L108.77 32.87L108.73 32.98L108.69 33.1L108.65 33.21L108.6 33.33L108.55 33.45L108.5 33.56L108.44 33.68L108.38 33.8L108.32 33.92L108.26 34.04L108.19 34.16L108.12 34.28L108.05 34.4L107.98 34.52L107.91 34.64L103.4 42.43L103.49 42.6L104.24 44.11L104.93 45.65L105.56 47.23L106.13 48.84L106.35 49.56L115.03 51.87L115.17 51.91L115.3 51.94L115.44 51.98L115.57 52.01L115.7 52.05L115.83 52.09L115.96 52.13L116.09 52.18L116.21 52.22L116.33 52.27L116.45 52.31L116.57 52.36L116.68 52.41L116.79 52.47L116.9 52.52L117 52.58L117.11 52.63L117.21 52.69L117.3 52.76L117.39 52.82L117.48 52.88L117.57 52.95L117.65 53.02L117.73 53.09L117.8 53.17L117.87 53.24L117.94 53.32L118 53.4L118.06 53.48L118.11 53.57L118.16 53.66L118.2 53.75L118.24 53.84L118.28 53.93L118.31 54.03L118.33 54.13L118.35 54.23L118.36 54.33L118.37 54.44L118.37 54.55L118.37 70.6L118.37 70.71L118.36 70.81L118.35 70.92L118.33 71.02L118.31 71.11L118.28 71.21L118.24 71.3L118.2 71.39L118.16 71.47L118.11 71.56L118.06 71.64L118 71.72L117.94 71.79L117.87 71.87L117.8 71.94L117.73 72.01L117.65 72.07L117.57 72.14L117.48 72.2L117.39 72.27L117.3 72.33L117.21 72.39L117.11 72.44L117 72.5L116.9 72.55L116.79 72.61L116.68 72.66L116.57 72.71L116.45 72.76L116.33 72.81L116.21 72.86L116.09 72.91L115.96 72.96L115.83 73L115.7 73.05L115.57 73.09L115.44 73.14L115.3 73.18L115.17 73.23L115.03 73.27L106.35 75.59L106.13 76.31L105.56 77.92L104.93 79.49L104.24 81.04L103.49 82.55L103.41 82.7L107.91 90.47L107.98 90.6L108.05 90.72L108.12 90.84L108.19 90.96L108.26 91.08L108.32 91.2L108.38 91.32L108.44 91.43L108.5 91.55L108.55 91.67L108.6 91.79L108.65 91.91L108.69 92.02L108.73 92.14L108.77 92.25L108.81 92.37L108.84 92.48L108.87 92.59L108.89 92.7L108.91 92.81L108.93 92.92L108.94 93.03L108.95 93.14L108.95 93.24L108.95 93.35L108.95 93.45L108.94 93.55L108.93 93.65L108.91 93.75L108.89 93.85L108.86 93.95L108.83 94.04L108.79 94.13L108.75 94.22L108.7 94.31L108.65 94.4L108.59 94.49L108.52 94.57L108.45 94.65L108.38 94.73L97.03 106.08L96.95 106.15L96.87 106.22L96.79 106.29L96.7 106.34L96.62 106.4L96.53 106.44L96.44 106.48L96.35 106.52L96.26 106.55L96.17 106.57L96.07 106.59L95.98 106.6L95.88 106.61L95.78 106.62L95.68 106.62L95.58 106.62L95.48 106.61L95.37 106.6L95.27 106.58L95.16 106.56L95.05 106.54L94.94 106.52L94.83 106.49L94.72 106.45L94.6 106.42L94.49 106.38L94.37 106.34L94.26 106.29L94.14 106.25L94.02 106.2L93.9 106.15L93.78 106.09L93.66 106.04L93.53 105.98L93.41 105.92L93.29 105.86L93.16 105.8L93.03 105.74L92.9 105.67L92.77 105.61L85 101.11L84.85 101.19L83.34 101.94L81.79 102.63L80.22 103.26L78.61 103.83L77.89 104.05L75.57 112.73L75.53 112.87L75.48 113.01L75.44 113.14L75.39 113.27L75.35 113.4L75.3 113.53L75.25 113.66L75.21 113.79L75.16 113.91L75.11 114.03L75.06 114.15L75.01 114.27L74.96 114.38L74.91 114.49L74.85 114.6L74.8 114.71L74.74 114.81L74.69 114.91L74.63 115L74.57 115.09L74.5 115.18L74.44 115.27L74.37 115.35L74.31 115.43L74.24 115.5L74.16 115.57L74.09 115.64L74.01 115.7L73.94 115.76L73.86 115.81L73.77 115.86L73.69 115.9L73.6 115.94L73.51 115.98L73.41 116.01L73.32 116.03L73.22 116.05L73.11 116.06L73.01 116.07L72.9 116.07L56.85 116.07L56.74 116.07L56.63 116.06L56.53 116.05L56.43 116.03L56.33 116.01L56.23 115.98L56.14 115.94L56.05 115.9L55.96 115.86L55.87 115.81L55.78 115.76L55.7 115.7L55.62 115.64L55.54 115.57L55.47 115.5L55.39 115.43L55.32 115.35L55.25 115.27L55.18 115.18L55.12 115.09L55.05 115L54.99 114.91L54.93 114.81L54.88 114.71L54.82 114.6L54.77 114.49L54.71 114.38L54.66 114.27L54.61 114.15L54.57 114.03L54.52 113.91L54.48 113.79L54.43 113.66L54.39 113.53L54.35 113.4L54.31 113.27L54.28 113.14L54.24 113.01L54.21 112.87L54.17 112.73L51.86 104.05L51.13 103.83L49.53 103.26L47.95 102.63L46.41 101.94L44.9 101.19L44.72 101.09L36.97 105.57L36.85 105.65L36.73 105.72L36.61 105.79L36.49 105.86L36.37 105.93L36.25 105.99L36.13 106.05L36.01 106.11L35.9 106.16L35.78 106.22L35.66 106.27L35.54 106.32L35.43 106.36L35.31 106.4L35.2 106.44L35.08 106.47L34.97 106.51L34.86 106.53L34.75 106.56L34.64 106.58L34.53 106.6L34.42 106.61L34.31 106.62L34.2 106.62L34.1 106.62L34 106.62L33.89 106.61L33.79 106.6L33.7 106.58L33.6 106.56L33.5 106.53L33.41 106.5L33.32 106.46L33.22 106.42L33.14 106.37L33.05 106.32L32.96 106.26L32.88 106.19L32.8 106.12L32.72 106.05L21.37 94.7L21.29 94.62L21.23 94.54L21.16 94.46L21.11 94.37L21.05 94.29L21.01 94.2L20.97 94.11L20.93 94.02L20.9 93.93L20.88 93.84L20.86 93.74L20.84 93.65L20.83 93.55L20.83 93.45L20.83 93.35L20.83 93.25L20.84 93.14L20.85 93.04L20.86 92.93L20.88 92.83L20.91 92.72L20.93 92.61L20.96 92.5L20.99 92.39L21.03 92.27L21.07 92.16L21.11 92.04L21.15 91.93L21.2 91.81L21.25 91.69L21.3 91.57L21.35 91.45L21.41 91.33L21.47 91.2L21.53 91.08L21.59 90.95L21.65 90.83L21.71 90.7L21.78 90.57L21.84 90.44L26.33 82.69L26.26 82.55L25.51 81.04L24.82 79.49L24.19 77.92L23.62 76.31L23.4 75.59L14.72 73.27L14.58 73.23L14.44 73.18L14.31 73.14L14.18 73.09L14.04 73.05L13.91 73L13.79 72.96L13.66 72.91L13.54 72.86L13.42 72.81L13.3 72.76L13.18 72.71L13.07 72.66L12.96 72.61L12.85 72.55L12.74 72.5L12.64 72.44L12.54 72.39L12.45 72.33L12.35 72.27L12.26 72.2L12.18 72.14L12.1 72.07L12.02 72.01L11.95 71.94L11.88 71.87L11.81 71.79L11.75 71.72L11.69 71.64L11.64 71.56L11.59 71.47L11.54 71.39L11.51 71.3L11.47 71.21L11.44 71.11L11.42 71.02L11.4 70.92L11.39 70.81L11.38 70.71L11.37 70.6L11.37 54.55L11.38 54.44L11.39 54.33L11.4 54.23L11.42 54.13L11.44 54.03L11.47 53.93L11.51 53.84L11.54 53.75L11.59 53.66L11.64 53.57L11.69 53.48L11.75 53.4L11.81 53.32L11.88 53.24L11.95 53.17L12.02 53.09L12.1 53.02L12.18 52.95L12.26 52.88L12.35 52.82L12.45 52.76L12.54 52.69L12.64 52.63L12.74 52.58L12.85 52.52L12.96 52.47L13.07 52.41L13.18 52.36L13.3 52.31L13.42 52.27L13.54 52.22L13.66 52.18L13.79 52.13L13.91 52.09L14.04 52.05L14.18 52.01L14.31 51.98L14.44 51.94L14.58 51.91L14.72 51.87L23.4 49.56L23.62 48.84L24.19 47.23L24.82 45.65L25.51 44.11L26.26 42.6L26.34 42.45L21.84 34.67L21.78 34.55L21.71 34.42L21.65 34.29L21.59 34.16L21.53 34.04L21.47 33.91L21.41 33.79L21.35 33.67L21.3 33.55L21.25 33.43L21.2 33.31L21.15 33.19L21.11 33.07L21.07 32.96L21.03 32.84L20.99 32.73L20.96 32.62L20.93 32.51L20.91 32.4L20.88 32.29L20.86 32.18L20.85 32.08L20.84 31.97L20.83 31.87L20.83 31.77L20.83 31.67L20.83 31.57L20.84 31.47L20.86 31.38L20.88 31.28L20.9 31.19L20.93 31.1L20.97 31.01L21.01 30.92L21.05 30.83L21.11 30.75L21.16 30.66L21.23 30.58L21.29 30.5L21.37 30.42L32.72 19.07L32.8 18.99L32.88 18.92L32.96 18.86L33.05 18.8L33.14 18.75L33.22 18.7L33.32 18.66L33.41 18.62L33.5 18.59L33.6 18.56L33.7 18.54L33.79 18.52L33.89 18.51L34 18.5L34.1 18.5L34.2 18.5L34.31 18.5L34.42 18.51L34.53 18.52L34.64 18.54L34.75 18.56L34.86 18.58L34.97 18.61L35.08 18.64L35.2 18.68L35.31 18.72L35.43 18.76L35.54 18.8L35.66 18.85L35.78 18.9L35.9 18.95L36.01 19.01L36.13 19.07L36.25 19.13L36.37 19.19L36.49 19.26L36.61 19.33L36.73 19.4L36.85 19.47L36.97 19.54L44.75 24.04L44.9 23.96L46.41 23.21L47.95 22.52L49.53 21.89L51.13 21.32L51.86 21.1L54.17 12.42L54.21 12.28L54.24 12.14L54.28 12.01L54.31 11.88L54.35 11.74L54.39 11.62L54.43 11.49L54.48 11.36L54.52 11.24L54.57 11.12L54.61 11L54.66 10.88L54.71 10.77L54.77 10.66L54.82 10.55L54.88 10.44L54.93 10.34L54.99 10.24L55.05 10.15L55.12 10.05L55.18 9.97L55.25 9.88L55.32 9.8L55.39 9.72L55.47 9.65L55.54 9.58L55.62 9.51L55.7 9.45L55.78 9.39L55.87 9.34L55.96 9.29L56.05 9.25L56.14 9.21L56.23 9.17L56.33 9.14L56.43 9.12L56.53 9.1L56.63 9.09L56.74 9.08L56.85 9.07L72.9 9.07L73.01 9.08L73.11 9.09ZM62.95 39.25L62.01 39.34L61.08 39.47L60.16 39.64L59.25 39.85L58.36 40.09L57.48 40.36L56.61 40.67L55.76 41.01L54.93 41.38L54.12 41.78L53.32 42.21L52.54 42.68L51.79 43.17L51.05 43.68L50.34 44.23L49.64 44.8L48.97 45.4L48.32 46.02L47.7 46.67L47.1 47.34L46.53 48.04L45.98 48.75L45.47 49.49L44.97 50.25L44.51 51.02L44.08 51.82L43.68 52.63L43.31 53.46L42.97 54.31L42.66 55.18L42.39 56.06L42.15 56.95L41.94 57.86L41.77 58.78L41.64 59.71L41.55 60.66L41.49 61.61L41.47 62.57L41.49 63.54L41.55 64.49L41.64 65.44L41.77 66.37L41.94 67.29L42.15 68.2L42.39 69.09L42.66 69.97L42.97 70.84L43.31 71.69L43.68 72.52L44.08 73.33L44.51 74.13L44.97 74.9L45.47 75.66L45.98 76.4L46.53 77.11L47.1 77.81L47.7 78.48L48.32 79.13L48.97 79.75L49.64 80.35L50.34 80.92L51.05 81.46L51.79 81.98L52.54 82.47L53.32 82.94L54.12 83.37L54.93 83.77L55.76 84.14L56.61 84.48L57.48 84.79L58.36 85.06L59.25 85.3L60.16 85.51L61.08 85.67L62.01 85.81L62.95 85.9L63.91 85.96L64.87 85.98L65.84 85.96L66.79 85.9L67.74 85.81L68.67 85.67L69.59 85.51L70.5 85.3L71.39 85.06L72.27 84.79L73.14 84.48L73.98 84.14L74.82 83.77L75.63 83.37L76.43 82.94L77.2 82.47L77.96 81.98L78.7 81.46L79.41 80.92L80.11 80.35L80.78 79.75L81.42 79.13L82.05 78.48L82.65 77.81L83.22 77.11L83.76 76.4L84.28 75.66L84.77 74.9L85.24 74.13L85.67 73.33L86.07 72.52L86.44 71.69L86.78 70.84L87.09 69.97L87.36 69.09L87.6 68.2L87.8 67.29L87.97 66.37L88.11 65.44L88.2 64.49L88.26 63.54L88.28 62.57L88.26 61.61L88.2 60.66L88.11 59.71L87.97 58.78L87.8 57.86L87.6 56.95L87.36 56.06L87.09 55.18L86.78 54.31L86.44 53.46L86.07 52.63L85.67 51.82L85.24 51.02L84.77 50.25L84.28 49.49L83.76 48.75L83.22 48.04L82.65 47.34L82.05 46.67L81.42 46.02L80.78 45.4L80.11 44.8L79.41 44.23L78.7 43.68L77.96 43.17L77.2 42.68L76.43 42.21L75.63 41.78L74.82 41.38L73.98 41.01L73.14 40.67L72.27 40.36L71.39 40.09L70.5 39.85L69.59 39.64L68.67 39.47L67.74 39.34L66.79 39.25L65.84 39.19L64.87 39.17L63.91 39.19L62.95 39.25Z" id="e32methdZ" fill="white" fill-opacity="1" filter="url(#shadow11318963)"></path></g><use xlink:href="#al6Bnn0do" opacity="1" fill="#c1c8c7" fill-opacity="1"></use></g><g><use xlink:href="#a16Y5vxlEe" opacity="1" fill="#ffffff" fill-opacity="0.37"></use></g><g><g><filter id="shadow1733879" x="96.76" y="61.78" width="102" height="102" filterUnits="userSpaceOnUse" primitiveUnits="userSpaceOnUse"><feFlood></feFlood><feComposite in2="SourceAlpha" operator="in"></feComposite><feGaussianBlur stdDeviation="1"></feGaussianBlur><feOffset dx="0" dy="0" result="afterOffset"></feOffset><feFlood flood-color="#000000" flood-opacity="0.5"></feFlood><feComposite in2="afterOffset" operator="in"></feComposite><feMorphology operator="dilate" radius="0"></feMorphology><feComposite in2="SourceAlpha" operator="out"></feComposite></filter><path d="M154.54 68.79L154.62 68.8L154.7 68.82L154.78 68.84L154.86 68.86L154.94 68.89L155.01 68.92L155.08 68.96L155.15 69L155.21 69.04L155.28 69.09L155.34 69.14L155.4 69.19L155.46 69.25L155.52 69.31L155.57 69.38L155.63 69.44L155.68 69.51L155.73 69.59L155.78 69.66L155.83 69.74L155.88 69.82L155.92 69.91L155.97 70L156.01 70.08L156.06 70.18L156.1 70.27L156.14 70.36L156.18 70.46L156.22 70.56L156.26 70.66L156.3 70.77L156.34 70.87L156.37 70.98L156.41 71.09L156.45 71.2L156.49 71.31L156.52 71.42L156.56 71.53L158.46 78.67L159.06 78.85L160.38 79.32L161.68 79.84L162.95 80.41L164.19 81.02L164.29 81.08L170.71 77.37L170.81 77.31L170.92 77.26L171.02 77.21L171.13 77.16L171.23 77.11L171.33 77.06L171.43 77.01L171.53 76.96L171.63 76.92L171.73 76.88L171.83 76.84L171.93 76.8L172.02 76.76L172.12 76.73L172.21 76.7L172.31 76.67L172.4 76.64L172.49 76.62L172.58 76.6L172.67 76.58L172.76 76.56L172.84 76.55L172.93 76.54L173.01 76.53L173.1 76.53L173.18 76.53L173.26 76.54L173.34 76.54L173.42 76.56L173.5 76.57L173.57 76.59L173.65 76.62L173.72 76.65L173.8 76.68L173.87 76.72L173.94 76.76L174.01 76.81L174.08 76.86L174.14 76.91L174.21 76.98L183.54 86.31L183.6 86.38L183.66 86.44L183.71 86.51L183.76 86.58L183.8 86.65L183.84 86.73L183.88 86.8L183.91 86.88L183.94 86.95L183.96 87.03L183.98 87.11L183.99 87.2L184 87.28L184.01 87.36L184.01 87.45L184.01 87.53L184.01 87.62L184 87.71L183.99 87.8L183.98 87.89L183.96 87.98L183.94 88.07L183.92 88.16L183.89 88.25L183.86 88.35L183.83 88.44L183.8 88.54L183.76 88.63L183.72 88.73L183.68 88.83L183.64 88.92L183.59 89.02L183.54 89.12L183.49 89.22L183.44 89.32L183.39 89.41L183.33 89.51L183.27 89.61L183.21 89.71L183.15 89.81L179.44 96.21L179.52 96.35L180.13 97.6L180.7 98.87L181.22 100.16L181.69 101.48L181.87 102.08L189.01 103.98L189.12 104.01L189.24 104.04L189.35 104.07L189.46 104.1L189.56 104.13L189.67 104.16L189.78 104.19L189.88 104.23L189.98 104.27L190.08 104.3L190.18 104.34L190.27 104.38L190.37 104.43L190.46 104.47L190.55 104.51L190.63 104.56L190.72 104.61L190.8 104.66L190.88 104.71L190.96 104.76L191.03 104.81L191.1 104.87L191.17 104.93L191.23 104.98L191.29 105.05L191.35 105.11L191.4 105.17L191.45 105.24L191.5 105.31L191.54 105.38L191.58 105.45L191.62 105.52L191.65 105.6L191.68 105.67L191.71 105.75L191.72 105.84L191.74 105.92L191.75 106L191.76 106.09L191.76 106.18L191.76 119.38L191.76 119.47L191.75 119.56L191.74 119.64L191.72 119.73L191.71 119.81L191.68 119.88L191.65 119.96L191.62 120.03L191.58 120.1L191.54 120.17L191.5 120.24L191.45 120.3L191.4 120.36L191.35 120.42L191.29 120.48L191.23 120.54L191.17 120.59L191.1 120.65L191.03 120.7L190.96 120.75L190.88 120.8L190.8 120.85L190.72 120.9L190.63 120.94L190.55 120.99L190.46 121.03L190.37 121.08L190.27 121.12L190.18 121.16L190.08 121.2L189.98 121.24L189.88 121.28L189.78 121.32L189.67 121.36L189.56 121.4L189.46 121.43L189.35 121.47L189.24 121.51L189.12 121.55L189.01 121.58L181.87 123.48L181.69 124.08L181.22 125.4L180.7 126.7L180.13 127.97L179.52 129.21L179.45 129.34L183.15 135.73L183.21 135.83L183.27 135.93L183.33 136.03L183.39 136.12L183.44 136.22L183.49 136.32L183.54 136.42L183.59 136.52L183.64 136.61L183.68 136.71L183.72 136.81L183.76 136.9L183.8 137L183.83 137.1L183.86 137.19L183.89 137.28L183.92 137.38L183.94 137.47L183.96 137.56L183.98 137.65L183.99 137.74L184 137.83L184.01 137.92L184.01 138.01L184.01 138.09L184.01 138.18L184 138.26L183.99 138.34L183.98 138.42L183.96 138.5L183.94 138.58L183.91 138.66L183.88 138.74L183.84 138.81L183.8 138.89L183.76 138.96L183.71 139.03L183.66 139.1L183.6 139.16L183.54 139.23L174.21 148.56L174.14 148.62L174.08 148.68L174.01 148.73L173.94 148.78L173.87 148.82L173.8 148.86L173.72 148.89L173.65 148.92L173.57 148.95L173.5 148.97L173.42 148.98L173.34 148.99L173.26 149L173.18 149.01L173.1 149.01L173.01 149L172.93 149L172.84 148.99L172.76 148.98L172.67 148.96L172.58 148.94L172.49 148.92L172.4 148.9L172.31 148.87L172.21 148.84L172.12 148.81L172.02 148.78L171.93 148.74L171.83 148.7L171.73 148.66L171.63 148.62L171.53 148.57L171.43 148.53L171.33 148.48L171.23 148.43L171.13 148.38L171.02 148.33L170.92 148.28L170.81 148.23L170.71 148.17L164.32 144.47L164.19 144.54L162.95 145.16L161.68 145.72L160.38 146.24L159.06 146.71L158.46 146.89L156.56 154.03L156.52 154.15L156.49 154.26L156.45 154.37L156.41 154.48L156.37 154.59L156.34 154.69L156.3 154.8L156.26 154.9L156.22 155L156.18 155.1L156.14 155.2L156.1 155.3L156.06 155.39L156.01 155.48L155.97 155.57L155.92 155.66L155.88 155.74L155.83 155.82L155.78 155.9L155.73 155.98L155.68 156.05L155.63 156.12L155.57 156.19L155.52 156.25L155.46 156.31L155.4 156.37L155.34 156.42L155.28 156.48L155.21 156.52L155.15 156.57L155.08 156.61L155.01 156.64L154.94 156.67L154.86 156.7L154.78 156.73L154.7 156.75L154.62 156.76L154.54 156.77L154.45 156.78L154.36 156.78L141.16 156.78L141.07 156.78L140.98 156.77L140.9 156.76L140.81 156.75L140.73 156.73L140.65 156.7L140.58 156.67L140.5 156.64L140.43 156.61L140.35 156.57L140.28 156.52L140.22 156.48L140.15 156.42L140.09 156.37L140.02 156.31L139.96 156.25L139.9 156.19L139.85 156.12L139.79 156.05L139.74 155.98L139.69 155.9L139.63 155.82L139.59 155.74L139.54 155.66L139.49 155.57L139.45 155.48L139.4 155.39L139.36 155.3L139.32 155.2L139.28 155.1L139.24 155L139.21 154.9L139.17 154.8L139.14 154.69L139.11 154.59L139.08 154.48L139.04 154.37L139.02 154.26L138.99 154.15L138.96 154.03L137.06 146.89L136.46 146.71L135.14 146.24L133.85 145.72L132.58 145.16L131.33 144.54L131.18 144.46L124.82 148.15L124.72 148.21L124.62 148.27L124.52 148.33L124.42 148.38L124.32 148.44L124.22 148.49L124.12 148.54L124.03 148.59L123.93 148.63L123.83 148.68L123.73 148.72L123.64 148.76L123.54 148.79L123.45 148.83L123.35 148.86L123.26 148.89L123.17 148.91L123.07 148.94L122.98 148.96L122.89 148.97L122.8 148.99L122.71 149L122.62 149L122.54 149.01L122.45 149.01L122.37 149L122.28 149L122.2 148.99L122.12 148.97L122.04 148.95L121.96 148.93L121.88 148.9L121.81 148.87L121.73 148.84L121.66 148.8L121.59 148.76L121.52 148.71L121.45 148.65L121.38 148.6L121.32 148.54L111.98 139.2L111.92 139.14L111.86 139.07L111.81 139L111.76 138.93L111.72 138.86L111.68 138.79L111.65 138.72L111.62 138.64L111.6 138.57L111.58 138.49L111.56 138.41L111.55 138.34L111.54 138.26L111.54 138.17L111.54 138.09L111.54 138.01L111.54 137.92L111.55 137.84L111.57 137.75L111.58 137.66L111.6 137.57L111.62 137.48L111.65 137.39L111.67 137.3L111.7 137.21L111.73 137.11L111.77 137.02L111.8 136.92L111.84 136.83L111.88 136.73L111.93 136.63L111.97 136.53L112.01 136.43L112.06 136.33L112.11 136.23L112.16 136.12L112.21 136.02L112.26 135.91L112.32 135.81L112.37 135.7L116.06 129.32L116 129.21L115.39 127.97L114.82 126.7L114.3 125.4L113.83 124.08L113.65 123.48L106.51 121.58L106.4 121.55L106.29 121.51L106.17 121.47L106.07 121.43L105.96 121.4L105.85 121.36L105.75 121.32L105.64 121.28L105.54 121.24L105.44 121.2L105.34 121.16L105.25 121.12L105.15 121.08L105.06 121.03L104.97 120.99L104.89 120.94L104.8 120.9L104.72 120.85L104.64 120.8L104.57 120.75L104.49 120.7L104.42 120.65L104.36 120.59L104.29 120.54L104.23 120.48L104.17 120.42L104.12 120.36L104.07 120.3L104.02 120.24L103.98 120.17L103.94 120.1L103.9 120.03L103.87 119.96L103.84 119.88L103.82 119.81L103.8 119.73L103.78 119.64L103.77 119.56L103.76 119.47L103.76 119.38L103.76 106.18L103.76 106.09L103.77 106L103.78 105.92L103.8 105.84L103.82 105.75L103.84 105.67L103.87 105.6L103.9 105.52L103.94 105.45L103.98 105.38L104.02 105.31L104.07 105.24L104.12 105.17L104.17 105.11L104.23 105.05L104.29 104.98L104.36 104.93L104.42 104.87L104.49 104.81L104.57 104.76L104.64 104.71L104.72 104.66L104.8 104.61L104.89 104.56L104.97 104.51L105.06 104.47L105.15 104.43L105.25 104.38L105.34 104.34L105.44 104.3L105.54 104.27L105.64 104.23L105.75 104.19L105.85 104.16L105.96 104.13L106.07 104.1L106.17 104.07L106.29 104.04L106.4 104.01L106.51 103.98L113.65 102.08L113.83 101.48L114.3 100.16L114.82 98.87L115.39 97.6L116 96.35L116.07 96.23L112.37 89.84L112.32 89.73L112.26 89.62L112.21 89.52L112.16 89.42L112.11 89.31L112.06 89.21L112.01 89.11L111.97 89.01L111.93 88.91L111.88 88.81L111.84 88.71L111.8 88.62L111.77 88.52L111.73 88.42L111.7 88.33L111.67 88.24L111.65 88.15L111.62 88.05L111.6 87.96L111.58 87.88L111.57 87.79L111.55 87.7L111.54 87.61L111.54 87.53L111.54 87.45L111.54 87.36L111.54 87.28L111.55 87.2L111.56 87.12L111.58 87.05L111.6 86.97L111.62 86.89L111.65 86.82L111.68 86.75L111.72 86.68L111.76 86.6L111.81 86.54L111.86 86.47L111.92 86.4L111.98 86.34L121.32 77L121.38 76.94L121.45 76.88L121.52 76.83L121.59 76.78L121.66 76.74L121.73 76.7L121.81 76.66L121.88 76.63L121.96 76.61L122.04 76.59L122.12 76.57L122.2 76.55L122.28 76.54L122.37 76.53L122.45 76.53L122.54 76.53L122.62 76.53L122.71 76.54L122.8 76.55L122.89 76.57L122.98 76.58L123.07 76.6L123.17 76.63L123.26 76.65L123.35 76.68L123.45 76.71L123.54 76.75L123.64 76.78L123.73 76.82L123.83 76.86L123.93 76.91L124.03 76.95L124.12 77L124.22 77.05L124.32 77.1L124.42 77.16L124.52 77.21L124.62 77.27L124.72 77.33L124.82 77.39L131.21 81.09L131.33 81.02L132.58 80.41L133.85 79.84L135.14 79.32L136.46 78.85L137.06 78.67L138.96 71.53L138.99 71.42L139.02 71.31L139.04 71.2L139.08 71.09L139.11 70.98L139.14 70.87L139.17 70.77L139.21 70.66L139.24 70.56L139.28 70.46L139.32 70.36L139.36 70.27L139.4 70.18L139.45 70.08L139.49 70L139.54 69.91L139.59 69.82L139.63 69.74L139.69 69.66L139.74 69.59L139.79 69.51L139.85 69.44L139.9 69.38L139.96 69.31L140.02 69.25L140.09 69.19L140.15 69.14L140.22 69.09L140.28 69.04L140.35 69L140.43 68.96L140.5 68.92L140.58 68.89L140.65 68.86L140.73 68.84L140.81 68.82L140.9 68.8L140.98 68.79L141.07 68.78L141.16 68.78L154.36 68.78L154.45 68.78L154.54 68.79ZM146.18 93.6L145.41 93.67L144.64 93.78L143.88 93.92L143.13 94.09L142.4 94.29L141.68 94.51L140.97 94.77L140.27 95.05L139.58 95.35L138.91 95.68L138.26 96.04L137.62 96.42L137 96.82L136.39 97.25L135.8 97.7L135.23 98.17L134.68 98.66L134.15 99.17L133.64 99.7L133.14 100.25L132.67 100.83L132.23 101.41L131.8 102.02L131.4 102.64L131.02 103.28L130.66 103.94L130.33 104.61L130.02 105.29L129.74 105.99L129.49 106.7L129.27 107.42L129.07 108.16L128.9 108.9L128.76 109.66L128.65 110.43L128.57 111.2L128.53 111.99L128.51 112.78L128.53 113.58L128.57 114.36L128.65 115.14L128.76 115.9L128.9 116.66L129.07 117.41L129.27 118.14L129.49 118.87L129.74 119.58L130.02 120.28L130.33 120.96L130.66 121.63L131.02 122.28L131.4 122.92L131.8 123.55L132.23 124.15L132.67 124.74L133.14 125.31L133.64 125.86L134.15 126.39L134.68 126.91L135.23 127.4L135.8 127.87L136.39 128.32L137 128.74L137.62 129.15L138.26 129.53L138.91 129.88L139.58 130.21L140.27 130.52L140.97 130.8L141.68 131.05L142.4 131.28L143.13 131.47L143.88 131.64L144.64 131.78L145.41 131.89L146.18 131.97L146.97 132.02L147.76 132.03L148.55 132.02L149.34 131.97L150.12 131.89L150.88 131.78L151.64 131.64L152.39 131.47L153.12 131.28L153.85 131.05L154.56 130.8L155.25 130.52L155.94 130.21L156.61 129.88L157.26 129.53L157.9 129.15L158.52 128.74L159.13 128.32L159.72 127.87L160.29 127.4L160.84 126.91L161.37 126.39L161.89 125.86L162.38 125.31L162.85 124.74L163.3 124.15L163.72 123.55L164.13 122.92L164.51 122.28L164.86 121.63L165.19 120.96L165.5 120.28L165.78 119.58L166.03 118.87L166.25 118.14L166.45 117.41L166.62 116.66L166.76 115.9L166.87 115.14L166.95 114.36L166.99 113.58L167.01 112.78L166.99 111.99L166.95 111.2L166.87 110.43L166.76 109.66L166.62 108.9L166.45 108.16L166.25 107.42L166.03 106.7L165.78 105.99L165.5 105.29L165.19 104.61L164.86 103.94L164.51 103.28L164.13 102.64L163.72 102.02L163.3 101.41L162.85 100.83L162.38 100.25L161.89 99.7L161.37 99.17L160.84 98.66L160.29 98.17L159.72 97.7L159.13 97.25L158.52 96.82L157.9 96.42L157.26 96.04L156.61 95.68L155.94 95.35L155.25 95.05L154.56 94.77L153.85 94.51L153.12 94.29L152.39 94.09L151.64 93.92L150.88 93.78L150.12 93.67L149.34 93.6L148.55 93.55L147.76 93.53L146.97 93.55L146.18 93.6Z" id="d1tvLVnimS" fill="white" fill-opacity="1" filter="url(#shadow1733879)"></path></g><use xlink:href="#bbntABcgR" opacity="1" fill="#c1c8c7" fill-opacity="1"></use></g><g><use xlink:href="#b2sKe0va9G" opacity="1" fill="#ffffff" fill-opacity="0.37"></use></g><g><g><filter id="shadow2984165" x="22.44" y="132.16" width="141" height="141" filterUnits="userSpaceOnUse" primitiveUnits="userSpaceOnUse"><feFlood></feFlood><feComposite in2="SourceAlpha" operator="in"></feComposite><feGaussianBlur stdDeviation="1"></feGaussianBlur><feOffset dx="0" dy="0" result="afterOffset"></feOffset><feFlood flood-color="#000000" flood-opacity="0.5"></feFlood><feComposite in2="afterOffset" operator="in"></feComposite><feMorphology operator="dilate" radius="0"></feMorphology><feComposite in2="SourceAlpha" operator="out"></feComposite></filter><path d="M102.72 139.17L102.84 139.19L102.96 139.21L103.08 139.24L103.19 139.27L103.3 139.31L103.4 139.36L103.5 139.41L103.6 139.47L103.7 139.53L103.79 139.6L103.88 139.67L103.97 139.75L104.05 139.84L104.14 139.92L104.22 140.02L104.29 140.11L104.37 140.21L104.44 140.32L104.52 140.43L104.59 140.54L104.65 140.66L104.72 140.78L104.79 140.91L104.85 141.04L104.91 141.17L104.97 141.3L105.03 141.44L105.09 141.58L105.15 141.73L105.21 141.87L105.26 142.02L105.32 142.17L105.37 142.33L105.43 142.48L105.48 142.64L105.53 142.8L105.59 142.96L105.64 143.13L108.39 153.43L109.25 153.69L111.15 154.37L113.02 155.12L114.86 155.94L116.65 156.82L116.8 156.9L126.06 151.54L126.21 151.47L126.36 151.39L126.51 151.31L126.66 151.24L126.81 151.17L126.96 151.1L127.11 151.03L127.25 150.97L127.39 150.9L127.54 150.84L127.68 150.78L127.82 150.73L127.96 150.68L128.09 150.63L128.23 150.58L128.36 150.54L128.5 150.5L128.63 150.46L128.76 150.43L128.89 150.41L129.01 150.38L129.14 150.37L129.26 150.35L129.38 150.34L129.51 150.34L129.62 150.34L129.74 150.35L129.86 150.36L129.97 150.38L130.08 150.4L130.19 150.43L130.3 150.47L130.41 150.51L130.52 150.55L130.62 150.61L130.72 150.67L130.82 150.74L130.92 150.81L131.01 150.89L131.11 150.98L144.58 164.45L144.67 164.55L144.75 164.64L144.83 164.74L144.9 164.84L144.96 164.95L145.01 165.05L145.06 165.16L145.11 165.27L145.15 165.38L145.18 165.5L145.21 165.61L145.23 165.73L145.24 165.85L145.25 165.97L145.26 166.09L145.26 166.22L145.25 166.34L145.24 166.47L145.23 166.6L145.21 166.73L145.18 166.86L145.15 166.99L145.12 167.12L145.08 167.26L145.04 167.39L145 167.53L144.95 167.67L144.9 167.81L144.84 167.95L144.78 168.08L144.72 168.22L144.65 168.37L144.58 168.51L144.51 168.65L144.43 168.79L144.35 168.93L144.27 169.08L144.19 169.22L144.1 169.36L144.02 169.5L138.67 178.75L138.78 178.95L139.66 180.74L140.48 182.57L141.23 184.44L141.9 186.35L142.17 187.21L152.47 189.96L152.64 190L152.8 190.04L152.96 190.08L153.12 190.12L153.27 190.17L153.43 190.21L153.58 190.26L153.73 190.31L153.87 190.37L154.02 190.42L154.16 190.48L154.3 190.54L154.43 190.6L154.56 190.66L154.69 190.72L154.82 190.79L154.94 190.86L155.05 190.93L155.17 191L155.28 191.08L155.38 191.16L155.49 191.24L155.58 191.32L155.67 191.4L155.76 191.49L155.85 191.58L155.92 191.67L156 191.77L156.07 191.87L156.13 191.97L156.19 192.07L156.24 192.18L156.29 192.29L156.33 192.4L156.36 192.51L156.39 192.63L156.41 192.75L156.43 192.88L156.44 193L156.44 193.13L156.44 212.18L156.44 212.31L156.43 212.44L156.41 212.56L156.39 212.68L156.36 212.79L156.33 212.9L156.29 213.01L156.24 213.12L156.19 213.22L156.13 213.32L156.07 213.41L156 213.51L155.92 213.6L155.85 213.68L155.76 213.77L155.67 213.85L155.58 213.93L155.49 214.01L155.38 214.09L155.28 214.16L155.17 214.23L155.05 214.3L154.94 214.37L154.82 214.44L154.69 214.5L154.56 214.57L154.43 214.63L154.3 214.69L154.16 214.75L154.02 214.81L153.87 214.87L153.73 214.92L153.58 214.98L153.43 215.03L153.27 215.09L153.12 215.14L152.96 215.2L152.8 215.25L152.64 215.3L152.47 215.36L142.17 218.1L141.9 218.96L141.23 220.87L140.48 222.74L139.66 224.57L138.78 226.37L138.68 226.55L144.02 235.77L144.1 235.92L144.19 236.06L144.27 236.2L144.35 236.34L144.43 236.49L144.51 236.63L144.58 236.77L144.65 236.91L144.72 237.05L144.78 237.19L144.84 237.33L144.9 237.47L144.95 237.61L145 237.75L145.04 237.88L145.08 238.02L145.12 238.15L145.15 238.29L145.18 238.42L145.21 238.55L145.23 238.68L145.24 238.81L145.25 238.93L145.26 239.06L145.26 239.18L145.25 239.31L145.24 239.43L145.23 239.55L145.21 239.66L145.18 239.78L145.15 239.89L145.11 240.01L145.06 240.12L145.01 240.22L144.96 240.33L144.9 240.43L144.83 240.53L144.75 240.63L144.67 240.73L144.58 240.82L131.11 254.29L131.01 254.38L130.92 254.46L130.82 254.54L130.72 254.61L130.62 254.67L130.52 254.72L130.41 254.77L130.3 254.81L130.19 254.85L130.08 254.88L129.97 254.9L129.86 254.92L129.74 254.93L129.62 254.94L129.51 254.94L129.38 254.93L129.26 254.92L129.14 254.91L129.01 254.89L128.89 254.87L128.76 254.84L128.63 254.81L128.5 254.78L128.36 254.74L128.23 254.7L128.09 254.65L127.96 254.6L127.82 254.55L127.68 254.49L127.54 254.44L127.39 254.37L127.25 254.31L127.11 254.25L126.96 254.18L126.81 254.11L126.66 254.04L126.51 253.96L126.36 253.89L126.21 253.81L126.06 253.73L116.83 248.39L116.65 248.49L114.86 249.38L113.02 250.2L111.15 250.94L109.25 251.62L108.39 251.89L105.64 262.19L105.59 262.35L105.53 262.51L105.48 262.67L105.43 262.83L105.37 262.99L105.32 263.14L105.26 263.29L105.21 263.44L105.15 263.59L105.09 263.73L105.03 263.87L104.97 264.01L104.91 264.15L104.85 264.28L104.79 264.41L104.72 264.53L104.65 264.65L104.59 264.77L104.52 264.88L104.44 264.99L104.37 265.1L104.29 265.2L104.22 265.3L104.14 265.39L104.05 265.48L103.97 265.56L103.88 265.64L103.79 265.71L103.7 265.78L103.6 265.85L103.5 265.9L103.4 265.95L103.3 266L103.19 266.04L103.08 266.08L102.96 266.11L102.84 266.13L102.72 266.14L102.6 266.15L102.47 266.16L83.42 266.16L83.29 266.15L83.16 266.14L83.04 266.13L82.92 266.11L82.8 266.08L82.68 266.04L82.57 266L82.46 265.95L82.36 265.9L82.25 265.85L82.15 265.78L82.05 265.71L81.96 265.64L81.87 265.56L81.78 265.48L81.69 265.39L81.6 265.3L81.52 265.2L81.44 265.1L81.36 264.99L81.29 264.88L81.21 264.77L81.14 264.65L81.07 264.53L81.01 264.41L80.94 264.28L80.88 264.15L80.82 264.01L80.76 263.87L80.71 263.73L80.65 263.59L80.6 263.44L80.55 263.29L80.5 263.14L80.45 262.99L80.41 262.83L80.36 262.67L80.32 262.51L80.28 262.35L80.24 262.19L77.5 251.89L76.63 251.62L74.73 250.94L72.86 250.2L71.03 249.38L69.23 248.49L69.01 248.37L59.83 253.69L59.68 253.78L59.54 253.87L59.4 253.95L59.25 254.03L59.11 254.11L58.97 254.19L58.83 254.26L58.69 254.33L58.55 254.4L58.41 254.46L58.27 254.52L58.13 254.57L57.99 254.63L57.85 254.68L57.72 254.72L57.58 254.76L57.45 254.8L57.31 254.83L57.18 254.86L57.05 254.89L56.92 254.91L56.79 254.92L56.66 254.93L56.54 254.94L56.41 254.94L56.29 254.93L56.17 254.92L56.05 254.91L55.93 254.88L55.82 254.86L55.7 254.83L55.59 254.79L55.48 254.74L55.38 254.69L55.27 254.64L55.17 254.57L55.06 254.5L54.97 254.43L54.87 254.35L54.78 254.26L41.3 240.79L41.22 240.69L41.13 240.6L41.06 240.5L40.99 240.4L40.93 240.3L40.88 240.19L40.83 240.09L40.79 239.98L40.75 239.87L40.72 239.76L40.7 239.65L40.68 239.54L40.67 239.42L40.66 239.3L40.66 239.18L40.67 239.06L40.67 238.94L40.69 238.82L40.71 238.69L40.73 238.56L40.76 238.44L40.79 238.31L40.82 238.17L40.86 238.04L40.9 237.91L40.95 237.77L41 237.63L41.05 237.5L41.1 237.36L41.16 237.21L41.22 237.07L41.29 236.93L41.35 236.78L41.42 236.64L41.49 236.49L41.56 236.34L41.64 236.19L41.71 236.04L41.79 235.89L41.87 235.73L47.2 226.53L47.11 226.37L46.22 224.57L45.4 222.74L44.65 220.87L43.98 218.96L43.71 218.1L33.41 215.36L33.25 215.3L33.08 215.25L32.92 215.2L32.77 215.14L32.61 215.09L32.46 215.03L32.31 214.98L32.16 214.92L32.01 214.87L31.87 214.81L31.72 214.75L31.59 214.69L31.45 214.63L31.32 214.57L31.19 214.5L31.07 214.44L30.95 214.37L30.83 214.3L30.71 214.23L30.6 214.16L30.5 214.09L30.4 214.01L30.3 213.93L30.21 213.85L30.12 213.77L30.04 213.68L29.96 213.6L29.88 213.51L29.82 213.41L29.75 213.32L29.7 213.22L29.64 213.12L29.6 213.01L29.56 212.9L29.52 212.79L29.49 212.68L29.47 212.56L29.45 212.44L29.44 212.31L29.44 212.18L29.44 193.13L29.44 193L29.45 192.88L29.47 192.75L29.49 192.63L29.52 192.51L29.56 192.4L29.6 192.29L29.64 192.18L29.7 192.07L29.75 191.97L29.82 191.87L29.88 191.77L29.96 191.67L30.04 191.58L30.12 191.49L30.21 191.4L30.3 191.32L30.4 191.24L30.5 191.16L30.6 191.08L30.71 191L30.83 190.93L30.95 190.86L31.07 190.79L31.19 190.72L31.32 190.66L31.45 190.6L31.59 190.54L31.72 190.48L31.87 190.42L32.01 190.37L32.16 190.31L32.31 190.26L32.46 190.21L32.61 190.17L32.77 190.12L32.92 190.08L33.08 190.04L33.25 190L33.41 189.96L43.71 187.21L43.98 186.35L44.65 184.44L45.4 182.57L46.22 180.74L47.11 178.95L47.21 178.77L41.87 169.54L41.79 169.39L41.71 169.24L41.64 169.09L41.56 168.94L41.49 168.79L41.42 168.64L41.35 168.49L41.29 168.35L41.22 168.2L41.16 168.06L41.1 167.92L41.05 167.78L41 167.64L40.95 167.51L40.9 167.37L40.86 167.23L40.82 167.1L40.79 166.97L40.76 166.84L40.73 166.71L40.71 166.59L40.69 166.46L40.67 166.34L40.67 166.21L40.66 166.09L40.66 165.97L40.67 165.86L40.68 165.74L40.7 165.63L40.72 165.51L40.75 165.4L40.79 165.3L40.83 165.19L40.88 165.08L40.93 164.98L40.99 164.88L41.06 164.78L41.13 164.68L41.22 164.59L41.3 164.49L54.78 151.02L54.87 150.93L54.97 150.85L55.06 150.77L55.17 150.7L55.27 150.64L55.38 150.58L55.48 150.53L55.59 150.49L55.7 150.45L55.82 150.42L55.93 150.39L56.05 150.37L56.17 150.36L56.29 150.35L56.41 150.34L56.54 150.34L56.66 150.35L56.79 150.36L56.92 150.37L57.05 150.39L57.18 150.41L57.31 150.44L57.45 150.48L57.58 150.51L57.72 150.55L57.85 150.6L57.99 150.65L58.13 150.7L58.27 150.76L58.41 150.82L58.55 150.88L58.69 150.95L58.83 151.02L58.97 151.09L59.11 151.17L59.25 151.24L59.4 151.32L59.54 151.41L59.68 151.49L59.83 151.58L69.05 156.92L69.23 156.82L71.03 155.94L72.86 155.12L74.73 154.37L76.63 153.69L77.5 153.43L80.24 143.13L80.28 142.96L80.32 142.8L80.36 142.64L80.41 142.48L80.45 142.33L80.5 142.17L80.55 142.02L80.6 141.87L80.65 141.73L80.71 141.58L80.76 141.44L80.82 141.3L80.88 141.17L80.94 141.04L81.01 140.91L81.07 140.78L81.14 140.66L81.21 140.54L81.29 140.43L81.36 140.32L81.44 140.21L81.52 140.11L81.6 140.02L81.69 139.92L81.78 139.84L81.87 139.75L81.96 139.67L82.05 139.6L82.15 139.53L82.25 139.47L82.36 139.41L82.46 139.36L82.57 139.31L82.68 139.27L82.8 139.24L82.92 139.21L83.04 139.19L83.16 139.17L83.29 139.16L83.42 139.16L102.47 139.16L102.6 139.16L102.72 139.17ZM90.66 174.97L89.54 175.08L88.43 175.24L87.34 175.44L86.26 175.68L85.2 175.97L84.16 176.29L83.13 176.66L82.13 177.06L81.14 177.5L80.17 177.98L79.23 178.49L78.31 179.04L77.41 179.62L76.53 180.24L75.68 180.88L74.86 181.56L74.07 182.27L73.3 183.01L72.56 183.78L71.85 184.58L71.17 185.4L70.52 186.25L69.9 187.12L69.32 188.02L68.77 188.95L68.26 189.89L67.78 190.86L67.34 191.84L66.94 192.85L66.58 193.88L66.25 194.92L65.97 195.98L65.72 197.06L65.52 198.15L65.37 199.26L65.25 200.38L65.18 201.51L65.16 202.66L65.18 203.8L65.25 204.94L65.37 206.06L65.52 207.16L65.72 208.26L65.97 209.33L66.25 210.39L66.58 211.44L66.94 212.46L67.34 213.47L67.78 214.46L68.26 215.42L68.77 216.37L69.32 217.29L69.9 218.19L70.52 219.06L71.17 219.91L71.85 220.74L72.56 221.53L73.3 222.3L74.07 223.04L74.86 223.75L75.68 224.43L76.53 225.08L77.41 225.69L78.31 226.28L79.23 226.82L80.17 227.34L81.14 227.81L82.13 228.26L83.13 228.66L84.16 229.02L85.2 229.35L86.26 229.63L87.34 229.87L88.43 230.07L89.54 230.23L90.66 230.35L91.8 230.42L92.94 230.44L94.09 230.42L95.22 230.35L96.34 230.23L97.45 230.07L98.54 229.87L99.62 229.63L100.68 229.35L101.72 229.02L102.75 228.66L103.75 228.26L104.74 227.81L105.71 227.34L106.65 226.82L107.58 226.28L108.47 225.69L109.35 225.08L110.2 224.43L111.02 223.75L111.82 223.04L112.59 222.3L113.33 221.53L114.03 220.74L114.71 219.91L115.36 219.06L115.98 218.19L116.56 217.29L117.11 216.37L117.62 215.42L118.1 214.46L118.54 213.47L118.94 212.46L119.31 211.44L119.63 210.39L119.91 209.33L120.16 208.26L120.36 207.16L120.52 206.06L120.63 204.94L120.7 203.8L120.72 202.66L120.7 201.51L120.63 200.38L120.52 199.26L120.36 198.15L120.16 197.06L119.91 195.98L119.63 194.92L119.31 193.88L118.94 192.85L118.54 191.84L118.1 190.86L117.62 189.89L117.11 188.95L116.56 188.02L115.98 187.12L115.36 186.25L114.71 185.4L114.03 184.58L113.33 183.78L112.59 183.01L111.82 182.27L111.02 181.56L110.2 180.88L109.35 180.24L108.47 179.62L107.58 179.04L106.65 178.49L105.71 177.98L104.74 177.5L103.75 177.06L102.75 176.66L101.72 176.29L100.68 175.97L99.62 175.68L98.54 175.44L97.45 175.24L96.34 175.08L95.22 174.97L94.09 174.9L92.94 174.88L91.8 174.9L90.66 174.97Z" id="ajFmKptbV" fill="white" fill-opacity="1" filter="url(#shadow2984165)"></path></g><use xlink:href="#bdTrn3nUA" opacity="1" fill="#c1c8c7" fill-opacity="1"></use></g><g><use xlink:href="#fuAdOw8Km" opacity="1" fill="#ffffff" fill-opacity="0.37"></use></g></g></g></svg>