<?xml version="1.0" encoding="UTF-8" standalone="no"?>
<!DOCTYPE svg PUBLIC "-//W3C//DTD SVG 1.1//EN" "http://www.w3.org/Graphics/SVG/1.1/DTD/svg11.dtd">
<svg version="1.1" xmlns="http://www.w3.org/2000/svg" xmlns:xlink="http://www.w3.org/1999/xlink" preserveAspectRatio="xMidYMid meet" viewBox="0 0 175 220" width="175" height="220"><defs><path d="M16.03 111.64L156.21 111.64L156.21 165.6L16.03 165.6L16.03 111.64Z" id="bf1bxsUk2"></path><path d="M156.35 165.63L156.71 165.66L157.07 165.71L157.42 165.78L157.76 165.85L158.1 165.94L158.43 166.05L158.76 166.16L159.08 166.29L159.4 166.43L159.71 166.59L160.01 166.75L160.3 166.93L160.59 167.11L160.87 167.31L161.14 167.52L161.4 167.73L161.66 167.96L161.9 168.2L162.14 168.44L162.37 168.7L162.58 168.96L162.79 169.23L162.99 169.51L163.17 169.8L163.35 170.09L163.51 170.39L163.67 170.7L163.81 171.02L163.94 171.34L164.05 171.67L164.16 172L164.25 172.34L164.32 172.68L164.39 173.03L164.44 173.39L164.47 173.75L164.5 174.11L164.5 174.47L164.5 199.54L164.5 199.91L164.47 200.27L164.44 200.63L164.39 200.98L164.32 201.33L164.25 201.67L164.16 202.01L164.05 202.35L163.94 202.68L163.81 203L163.67 203.31L163.51 203.62L163.35 203.92L163.17 204.22L162.99 204.5L162.79 204.78L162.58 205.06L162.37 205.32L162.14 205.57L161.9 205.82L161.66 206.06L161.4 206.28L161.14 206.5L160.87 206.71L160.59 206.9L160.3 207.09L160.01 207.26L159.71 207.43L159.4 207.58L159.08 207.72L158.76 207.85L158.43 207.97L158.1 208.07L157.76 208.16L157.42 208.24L157.07 208.3L156.71 208.35L156.35 208.39L155.99 208.41L155.63 208.42L17.51 208.42L17.14 208.41L16.78 208.39L16.42 208.35L16.07 208.3L15.72 208.24L15.37 208.16L15.03 208.07L14.7 207.97L14.37 207.85L14.05 207.72L13.73 207.58L13.43 207.43L13.12 207.26L12.83 207.09L12.54 206.9L12.26 206.71L11.99 206.5L11.73 206.28L11.47 206.06L11.23 205.82L10.99 205.57L10.76 205.32L10.55 205.06L10.34 204.78L10.14 204.5L9.96 204.22L9.78 203.92L9.62 203.62L9.47 203.31L9.33 203L9.2 202.68L9.08 202.35L8.98 202.01L8.89 201.67L8.81 201.33L8.74 200.98L8.69 200.63L8.66 200.27L8.63 199.91L8.63 199.54L8.63 174.47L8.63 174.11L8.66 173.75L8.69 173.39L8.74 173.03L8.81 172.68L8.89 172.34L8.98 172L9.08 171.67L9.2 171.34L9.33 171.02L9.47 170.7L9.62 170.39L9.78 170.09L9.96 169.8L10.14 169.51L10.34 169.23L10.55 168.96L10.76 168.7L10.99 168.44L11.23 168.2L11.47 167.96L11.73 167.73L11.99 167.52L12.26 167.31L12.54 167.11L12.83 166.93L13.12 166.75L13.43 166.59L13.73 166.43L14.05 166.29L14.37 166.16L14.7 166.05L15.03 165.94L15.37 165.85L15.72 165.78L16.07 165.71L16.42 165.66L16.78 165.63L17.14 165.6L17.51 165.6L155.63 165.6L155.99 165.6L156.35 165.63ZM156.35 117.23L156.71 117.27L157.07 117.32L157.42 117.38L157.76 117.46L158.1 117.55L158.43 117.65L158.76 117.77L159.08 117.9L159.4 118.04L159.71 118.19L160.01 118.36L160.3 118.53L160.59 118.72L160.87 118.91L161.14 119.12L161.4 119.34L161.66 119.56L161.9 119.8L162.14 120.05L162.37 120.3L162.58 120.56L162.79 120.83L162.99 121.11L163.17 121.4L163.35 121.7L163.51 122L163.67 122.31L163.81 122.62L163.94 122.94L164.05 123.27L164.16 123.61L164.25 123.94L164.32 124.29L164.39 124.64L164.44 124.99L164.47 125.35L164.5 125.71L164.5 126.08L164.5 151.15L164.5 151.51L164.47 151.87L164.44 152.23L164.39 152.59L164.32 152.93L164.25 153.28L164.16 153.62L164.05 153.95L163.94 154.28L163.81 154.6L163.67 154.92L163.51 155.23L163.35 155.53L163.17 155.82L162.99 156.11L162.79 156.39L162.58 156.66L162.37 156.92L162.14 157.18L161.9 157.42L161.66 157.66L161.4 157.89L161.14 158.1L160.87 158.31L160.59 158.51L160.3 158.69L160.01 158.87L159.71 159.03L159.4 159.18L159.08 159.33L158.76 159.45L158.43 159.57L158.1 159.67L157.76 159.77L157.42 159.84L157.07 159.91L156.71 159.96L156.35 159.99L155.99 160.02L155.63 160.02L17.51 160.02L17.14 160.02L16.78 159.99L16.42 159.96L16.07 159.91L15.72 159.84L15.37 159.77L15.03 159.67L14.7 159.57L14.37 159.45L14.05 159.33L13.73 159.18L13.43 159.03L13.12 158.87L12.83 158.69L12.54 158.51L12.26 158.31L11.99 158.1L11.73 157.89L11.47 157.66L11.23 157.42L10.99 157.18L10.76 156.92L10.55 156.66L10.34 156.39L10.14 156.11L9.96 155.82L9.78 155.53L9.62 155.23L9.47 154.92L9.33 154.6L9.2 154.28L9.08 153.95L8.98 153.62L8.89 153.28L8.81 152.93L8.74 152.59L8.69 152.23L8.66 151.87L8.63 151.51L8.63 151.15L8.63 126.08L8.63 125.71L8.66 125.35L8.69 124.99L8.74 124.64L8.81 124.29L8.89 123.94L8.98 123.61L9.08 123.27L9.2 122.94L9.33 122.62L9.47 122.31L9.62 122L9.78 121.7L9.96 121.4L10.14 121.11L10.34 120.83L10.55 120.56L10.76 120.3L10.99 120.05L11.23 119.8L11.47 119.56L11.73 119.34L11.99 119.12L12.26 118.91L12.54 118.72L12.83 118.53L13.12 118.36L13.43 118.19L13.73 118.04L14.05 117.9L14.37 117.77L14.7 117.65L15.03 117.55L15.37 117.46L15.72 117.38L16.07 117.32L16.42 117.27L16.78 117.23L17.14 117.21L17.51 117.2L155.63 117.2L155.99 117.21L156.35 117.23ZM156.35 68.84L156.71 68.88L157.07 68.93L157.42 68.99L157.76 69.07L158.1 69.16L158.43 69.27L158.76 69.38L159.08 69.51L159.4 69.65L159.71 69.81L160.01 69.97L160.3 70.14L160.59 70.33L160.87 70.53L161.14 70.73L161.4 70.95L161.66 71.18L161.9 71.41L162.14 71.66L162.37 71.91L162.58 72.18L162.79 72.45L162.99 72.73L163.17 73.02L163.35 73.31L163.51 73.61L163.67 73.92L163.81 74.24L163.94 74.56L164.05 74.89L164.16 75.22L164.25 75.56L164.32 75.9L164.39 76.25L164.44 76.61L164.47 76.96L164.5 77.33L164.5 77.69L164.5 102.76L164.5 103.13L164.47 103.49L164.44 103.85L164.39 104.2L164.32 104.55L164.25 104.89L164.16 105.23L164.05 105.57L163.94 105.89L163.81 106.22L163.67 106.53L163.51 106.84L163.35 107.14L163.17 107.44L162.99 107.72L162.79 108L162.58 108.27L162.37 108.54L162.14 108.79L161.9 109.04L161.66 109.27L161.4 109.5L161.14 109.72L160.87 109.92L160.59 110.12L160.3 110.31L160.01 110.48L159.71 110.65L159.4 110.8L159.08 110.94L158.76 111.07L158.43 111.18L158.1 111.29L157.76 111.38L157.42 111.46L157.07 111.52L156.71 111.57L156.35 111.61L155.99 111.63L155.63 111.64L17.51 111.64L17.14 111.63L16.78 111.61L16.42 111.57L16.07 111.52L15.72 111.46L15.37 111.38L15.03 111.29L14.7 111.18L14.37 111.07L14.05 110.94L13.73 110.8L13.43 110.65L13.12 110.48L12.83 110.31L12.54 110.12L12.26 109.92L11.99 109.72L11.73 109.5L11.47 109.27L11.23 109.04L10.99 108.79L10.76 108.54L10.55 108.27L10.34 108L10.14 107.72L9.96 107.44L9.78 107.14L9.62 106.84L9.47 106.53L9.33 106.22L9.2 105.89L9.08 105.57L8.98 105.23L8.89 104.89L8.81 104.55L8.74 104.2L8.69 103.85L8.66 103.49L8.63 103.13L8.63 102.76L8.63 77.69L8.63 77.33L8.66 76.96L8.69 76.61L8.74 76.25L8.81 75.9L8.89 75.56L8.98 75.22L9.08 74.89L9.2 74.56L9.33 74.24L9.47 73.92L9.62 73.61L9.78 73.31L9.96 73.02L10.14 72.73L10.34 72.45L10.55 72.18L10.76 71.91L10.99 71.66L11.23 71.41L11.47 71.18L11.73 70.95L11.99 70.73L12.26 70.53L12.54 70.33L12.83 70.14L13.12 69.97L13.43 69.81L13.73 69.65L14.05 69.51L14.37 69.38L14.7 69.27L15.03 69.16L15.37 69.07L15.72 68.99L16.07 68.93L16.42 68.88L16.78 68.84L17.14 68.82L17.51 68.81L155.63 68.81L155.99 68.82L156.35 68.84ZM128.68 8.45L129.03 8.48L129.39 8.54L129.74 8.6L130.08 8.68L130.42 8.77L130.75 8.87L131.08 8.99L131.4 9.12L131.72 9.26L132.03 9.41L132.33 9.57L132.62 9.75L132.91 9.94L133.19 10.13L133.46 10.34L133.73 10.56L133.98 10.78L134.23 11.02L134.46 11.26L134.69 11.52L134.91 11.78L135.11 12.05L135.31 12.33L135.5 12.62L135.67 12.91L135.83 13.22L135.99 13.53L136.13 13.84L136.26 14.16L136.37 14.49L136.48 14.82L136.57 15.16L136.64 15.51L136.71 15.86L136.76 16.21L136.8 16.57L136.82 16.93L136.83 17.3L136.83 68.81L112.22 68.81L112.22 36.91L112.22 36.72L112.2 36.52L112.18 36.33L112.16 36.15L112.12 35.96L112.08 35.78L112.03 35.6L111.98 35.42L111.92 35.25L111.85 35.08L111.78 34.91L111.69 34.75L111.61 34.59L111.52 34.43L111.42 34.28L111.31 34.13L111.2 33.99L111.09 33.85L110.97 33.72L110.84 33.59L110.71 33.46L110.58 33.34L110.44 33.23L110.3 33.12L110.15 33.01L110 32.91L109.84 32.82L109.68 32.73L109.52 32.65L109.35 32.58L109.18 32.51L109.01 32.45L108.83 32.39L108.65 32.35L108.47 32.3L108.28 32.27L108.09 32.24L107.91 32.22L107.71 32.21L107.52 32.21L63.23 32.21L63.04 32.21L62.85 32.22L62.66 32.24L62.47 32.27L62.29 32.3L62.1 32.35L61.93 32.39L61.75 32.45L61.58 32.51L61.4 32.58L61.24 32.65L61.07 32.73L60.91 32.82L60.76 32.91L60.61 33.01L60.46 33.12L60.31 33.23L60.18 33.34L60.04 33.46L59.91 33.59L59.79 33.72L59.67 33.85L59.55 33.99L59.44 34.13L59.34 34.28L59.24 34.43L59.15 34.59L59.06 34.75L58.98 34.91L58.9 35.08L58.84 35.25L58.77 35.42L58.72 35.6L58.67 35.78L58.63 35.96L58.6 36.15L58.57 36.33L58.55 36.52L58.54 36.72L58.53 36.91L58.53 68.81L35.42 68.81L35.42 17.3L35.43 16.93L35.45 16.57L35.49 16.21L35.54 15.86L35.6 15.51L35.68 15.16L35.77 14.82L35.87 14.49L35.99 14.16L36.12 13.84L36.26 13.53L36.41 13.22L36.57 12.91L36.75 12.62L36.94 12.33L37.13 12.05L37.34 11.78L37.56 11.52L37.78 11.26L38.02 11.02L38.27 10.78L38.52 10.56L38.78 10.34L39.05 10.13L39.33 9.94L39.62 9.75L39.92 9.57L40.22 9.41L40.53 9.26L40.84 9.12L41.16 8.99L41.49 8.87L41.82 8.77L42.16 8.68L42.51 8.6L42.86 8.54L43.21 8.48L43.57 8.45L43.93 8.43L44.3 8.42L127.95 8.42L128.31 8.43L128.68 8.45Z" id="c1QSM8PFfq"></path><path d="M164.5 199.91L164.47 200.27L164.44 200.63L164.39 200.98L164.32 201.33L164.25 201.67L164.16 202.01L164.05 202.35L163.94 202.68L163.81 203L163.67 203.31L163.51 203.62L163.35 203.92L163.17 204.22L162.99 204.5L162.79 204.78L162.58 205.06L162.37 205.32L162.14 205.57L161.9 205.82L161.66 206.06L161.4 206.28L161.14 206.5L160.87 206.71L160.59 206.9L160.3 207.09L160.01 207.26L159.71 207.43L159.4 207.58L159.08 207.72L158.76 207.85L158.43 207.97L158.1 208.07L157.76 208.16L157.42 208.24L157.07 208.3L156.71 208.35L156.35 208.39L155.99 208.41L155.63 208.42L17.51 208.42L17.14 208.41L16.78 208.39L16.42 208.35L16.07 208.3L15.72 208.24L15.37 208.16L15.03 208.07L14.7 207.97L14.37 207.85L14.05 207.72L13.73 207.58L13.43 207.43L13.12 207.26L12.83 207.09L12.54 206.9L12.26 206.71L11.99 206.5L11.73 206.28L11.47 206.06L11.23 205.82L10.99 205.57L10.76 205.32L10.55 205.06L10.34 204.78L10.14 204.5L9.96 204.22L9.78 203.92L9.62 203.62L9.47 203.31L9.33 203L9.2 202.68L9.08 202.35L8.98 202.01L8.89 201.67L8.81 201.33L8.74 200.98L8.69 200.63L8.66 200.27L8.63 199.91L8.63 199.54L8.63 191.66L164.5 191.66L164.5 199.54L164.5 199.91Z" id="g27TRdFWmQ"></path><mask id="maskf3FGFklBOR" x="6.63" y="189.66" width="159.88" height="20.75" maskUnits="userSpaceOnUse"><rect x="6.63" y="189.66" width="159.88" height="20.75" fill="white"></rect><use xlink:href="#g27TRdFWmQ" opacity="1" fill="black"></use></mask><path d="M156.35 68.84L156.71 68.88L157.07 68.93L157.42 68.99L157.76 69.07L158.1 69.16L158.43 69.27L158.76 69.38L159.08 69.51L159.4 69.65L159.71 69.81L160.01 69.97L160.3 70.14L160.59 70.33L160.87 70.53L161.14 70.73L161.4 70.95L161.66 71.18L161.9 71.41L162.14 71.66L162.37 71.91L162.58 72.18L162.79 72.45L162.99 72.73L163.17 73.02L163.35 73.31L163.51 73.61L163.67 73.92L163.81 74.24L163.94 74.56L164.05 74.89L164.16 75.22L164.25 75.56L164.32 75.9L164.39 76.25L164.44 76.61L164.47 76.96L164.5 77.33L164.5 77.69L164.5 85.57L8.63 85.57L8.63 77.69L8.63 77.33L8.66 76.96L8.69 76.61L8.74 76.25L8.81 75.9L8.89 75.56L8.98 75.22L9.08 74.89L9.2 74.56L9.33 74.24L9.47 73.92L9.62 73.61L9.78 73.31L9.96 73.02L10.14 72.73L10.34 72.45L10.55 72.18L10.76 71.91L10.99 71.66L11.23 71.41L11.47 71.18L11.73 70.95L11.99 70.73L12.26 70.53L12.54 70.33L12.83 70.14L13.12 69.97L13.43 69.81L13.73 69.65L14.05 69.51L14.37 69.38L14.7 69.27L15.03 69.16L15.37 69.07L15.72 68.99L16.07 68.93L16.42 68.88L16.78 68.84L17.14 68.82L17.51 68.81L155.63 68.81L155.99 68.82L156.35 68.84Z" id="a4iFxVfPsa"></path><mask id="maska6Oh0bZKsS" x="6.63" y="66.81" width="159.88" height="20.75" maskUnits="userSpaceOnUse"><rect x="6.63" y="66.81" width="159.88" height="20.75" fill="white"></rect><use xlink:href="#a4iFxVfPsa" opacity="1" fill="black"></use></mask><path d="M17.06 208.42L16.7 208.41L16.33 208.39L15.98 208.35L15.62 208.3L15.27 208.24L14.93 208.16L14.59 208.07L14.26 207.97L13.93 207.85L13.61 207.72L13.29 207.58L12.98 207.43L12.68 207.26L12.39 207.09L12.1 206.9L11.82 206.71L11.55 206.5L11.28 206.28L11.03 206.06L10.78 205.82L10.55 205.57L10.32 205.32L10.1 205.06L9.9 204.78L9.7 204.5L9.51 204.22L9.34 203.92L9.18 203.62L9.02 203.31L8.88 203L8.75 202.68L8.64 202.35L8.53 202.01L8.44 201.67L8.36 201.33L8.3 200.98L8.25 200.63L8.21 200.27L8.19 199.91L8.18 199.54L8.18 174.47L8.19 174.11L8.21 173.75L8.25 173.39L8.3 173.03L8.36 172.68L8.44 172.34L8.53 172L8.64 171.67L8.75 171.34L8.88 171.02L9.02 170.7L9.18 170.39L9.34 170.09L9.51 169.8L9.7 169.51L9.9 169.23L10.1 168.96L10.32 168.7L10.55 168.44L10.78 168.2L11.03 167.96L11.28 167.73L11.55 167.52L11.82 167.31L12.1 167.11L12.39 166.93L12.68 166.75L12.98 166.59L13.29 166.43L13.61 166.29L13.93 166.16L14.26 166.05L14.59 165.94L14.93 165.85L15.27 165.78L15.62 165.71L15.98 165.66L16.33 165.63L16.7 165.6L17.06 165.6L86.12 165.6L86.12 208.42L17.06 208.42ZM17.06 160.02L16.7 160.02L16.33 159.99L15.98 159.96L15.62 159.91L15.27 159.84L14.93 159.77L14.59 159.67L14.26 159.57L13.93 159.45L13.61 159.33L13.29 159.18L12.98 159.03L12.68 158.87L12.39 158.69L12.1 158.51L11.82 158.31L11.55 158.1L11.28 157.89L11.03 157.66L10.78 157.42L10.55 157.18L10.32 156.92L10.1 156.66L9.9 156.39L9.7 156.11L9.51 155.82L9.34 155.53L9.18 155.23L9.02 154.92L8.88 154.6L8.75 154.28L8.64 153.95L8.53 153.62L8.44 153.28L8.36 152.93L8.3 152.59L8.25 152.23L8.21 151.87L8.19 151.51L8.18 151.15L8.18 126.08L8.19 125.71L8.21 125.35L8.25 124.99L8.3 124.64L8.36 124.29L8.44 123.94L8.53 123.61L8.64 123.27L8.75 122.94L8.88 122.62L9.02 122.31L9.18 122L9.34 121.7L9.51 121.4L9.7 121.11L9.9 120.83L10.1 120.56L10.32 120.3L10.55 120.05L10.78 119.8L11.03 119.56L11.28 119.34L11.55 119.12L11.82 118.91L12.1 118.72L12.39 118.53L12.68 118.36L12.98 118.19L13.29 118.04L13.61 117.9L13.93 117.77L14.26 117.65L14.59 117.55L14.93 117.46L15.27 117.38L15.62 117.32L15.98 117.27L16.33 117.23L16.7 117.21L17.06 117.2L86.12 117.2L86.12 160.02L17.06 160.02ZM17.06 111.64L16.7 111.63L16.33 111.61L15.98 111.57L15.62 111.52L15.27 111.46L14.93 111.38L14.59 111.29L14.26 111.18L13.93 111.07L13.61 110.94L13.29 110.8L12.98 110.65L12.68 110.48L12.39 110.31L12.1 110.12L11.82 109.92L11.55 109.72L11.28 109.5L11.03 109.27L10.78 109.04L10.55 108.79L10.32 108.54L10.1 108.27L9.9 108L9.7 107.72L9.51 107.44L9.34 107.14L9.18 106.84L9.02 106.53L8.88 106.22L8.75 105.89L8.64 105.57L8.53 105.23L8.44 104.89L8.36 104.55L8.3 104.2L8.25 103.85L8.21 103.49L8.19 103.13L8.18 102.76L8.18 77.69L8.19 77.33L8.21 76.96L8.25 76.61L8.3 76.25L8.36 75.9L8.44 75.56L8.53 75.22L8.64 74.89L8.75 74.56L8.88 74.24L9.02 73.92L9.18 73.61L9.34 73.31L9.51 73.02L9.7 72.73L9.9 72.45L10.1 72.18L10.32 71.91L10.55 71.66L10.78 71.41L11.03 71.18L11.28 70.95L11.55 70.73L11.82 70.53L12.1 70.33L12.39 70.14L12.68 69.97L12.98 69.81L13.29 69.65L13.61 69.51L13.93 69.38L14.26 69.27L14.59 69.16L14.93 69.07L15.27 68.99L15.62 68.93L15.98 68.88L16.33 68.84L16.7 68.82L17.06 68.81L86.12 68.81L86.12 111.64L17.06 111.64ZM62.79 32.21L62.6 32.21L62.41 32.22L62.22 32.24L62.03 32.27L61.84 32.3L61.66 32.35L61.48 32.39L61.31 32.45L61.13 32.51L60.96 32.58L60.79 32.65L60.63 32.73L60.47 32.82L60.32 32.91L60.16 33.01L60.02 33.12L59.87 33.23L59.73 33.34L59.6 33.46L59.47 33.59L59.34 33.72L59.22 33.85L59.11 33.99L59 34.13L58.89 34.28L58.8 34.43L58.7 34.59L58.62 34.75L58.53 34.91L58.46 35.08L58.39 35.25L58.33 35.42L58.28 35.6L58.23 35.78L58.19 35.96L58.15 36.15L58.13 36.33L58.11 36.52L58.09 36.72L58.09 36.91L58.09 68.81L34.98 68.81L34.98 17.3L34.98 16.93L35.01 16.57L35.04 16.21L35.09 15.86L35.16 15.51L35.23 15.16L35.33 14.82L35.43 14.49L35.55 14.16L35.67 13.84L35.81 13.53L35.97 13.22L36.13 12.91L36.31 12.62L36.49 12.33L36.69 12.05L36.9 11.78L37.11 11.52L37.34 11.26L37.58 11.02L37.82 10.78L38.08 10.56L38.34 10.34L38.61 10.13L38.89 9.94L39.18 9.75L39.47 9.57L39.77 9.41L40.08 9.26L40.4 9.12L40.72 8.99L41.05 8.87L41.38 8.77L41.72 8.68L42.06 8.6L42.41 8.54L42.77 8.48L43.13 8.45L43.49 8.43L43.85 8.42L86.12 8.42L86.12 32.21L62.79 32.21Z" id="bfNY3LS2"></path></defs><g><g><g><use xlink:href="#bf1bxsUk2" opacity="1" fill="#898383" fill-opacity="1"></use></g><g><g><filter id="shadow1797979" x="-0.37" y="-0.58" width="173.88" height="219" filterUnits="userSpaceOnUse" primitiveUnits="userSpaceOnUse"><feFlood></feFlood><feComposite in2="SourceAlpha" operator="in"></feComposite><feGaussianBlur stdDeviation="1"></feGaussianBlur><feOffset dx="0" dy="1" result="afterOffset"></feOffset><feFlood flood-color="#000000" flood-opacity="0.5"></feFlood><feComposite in2="afterOffset" operator="in"></feComposite><feMorphology operator="dilate" radius="1"></feMorphology><feComposite in2="SourceAlpha" operator="out"></feComposite></filter><path d="M156.35 165.63L156.71 165.66L157.07 165.71L157.42 165.78L157.76 165.85L158.1 165.94L158.43 166.05L158.76 166.16L159.08 166.29L159.4 166.43L159.71 166.59L160.01 166.75L160.3 166.93L160.59 167.11L160.87 167.31L161.14 167.52L161.4 167.73L161.66 167.96L161.9 168.2L162.14 168.44L162.37 168.7L162.58 168.96L162.79 169.23L162.99 169.51L163.17 169.8L163.35 170.09L163.51 170.39L163.67 170.7L163.81 171.02L163.94 171.34L164.05 171.67L164.16 172L164.25 172.34L164.32 172.68L164.39 173.03L164.44 173.39L164.47 173.75L164.5 174.11L164.5 174.47L164.5 199.54L164.5 199.91L164.47 200.27L164.44 200.63L164.39 200.98L164.32 201.33L164.25 201.67L164.16 202.01L164.05 202.35L163.94 202.68L163.81 203L163.67 203.31L163.51 203.62L163.35 203.92L163.17 204.22L162.99 204.5L162.79 204.78L162.58 205.06L162.37 205.32L162.14 205.57L161.9 205.82L161.66 206.06L161.4 206.28L161.14 206.5L160.87 206.71L160.59 206.9L160.3 207.09L160.01 207.26L159.71 207.43L159.4 207.58L159.08 207.72L158.76 207.85L158.43 207.97L158.1 208.07L157.76 208.16L157.42 208.24L157.07 208.3L156.71 208.35L156.35 208.39L155.99 208.41L155.63 208.42L17.51 208.42L17.14 208.41L16.78 208.39L16.42 208.35L16.07 208.3L15.72 208.24L15.37 208.16L15.03 208.07L14.7 207.97L14.37 207.85L14.05 207.72L13.73 207.58L13.43 207.43L13.12 207.26L12.83 207.09L12.54 206.9L12.26 206.71L11.99 206.5L11.73 206.28L11.47 206.06L11.23 205.82L10.99 205.57L10.76 205.32L10.55 205.06L10.34 204.78L10.14 204.5L9.96 204.22L9.78 203.92L9.62 203.62L9.47 203.31L9.33 203L9.2 202.68L9.08 202.35L8.98 202.01L8.89 201.67L8.81 201.33L8.74 200.98L8.69 200.63L8.66 200.27L8.63 199.91L8.63 199.54L8.63 174.47L8.63 174.11L8.66 173.75L8.69 173.39L8.74 173.03L8.81 172.68L8.89 172.34L8.98 172L9.08 171.67L9.2 171.34L9.33 171.02L9.47 170.7L9.62 170.39L9.78 170.09L9.96 169.8L10.14 169.51L10.34 169.23L10.55 168.96L10.76 168.7L10.99 168.44L11.23 168.2L11.47 167.96L11.73 167.73L11.99 167.52L12.26 167.31L12.54 167.11L12.83 166.93L13.12 166.75L13.43 166.59L13.73 166.43L14.05 166.29L14.37 166.16L14.7 166.05L15.03 165.94L15.37 165.85L15.72 165.78L16.07 165.71L16.42 165.66L16.78 165.63L17.14 165.6L17.51 165.6L155.63 165.6L155.99 165.6L156.35 165.63ZM156.35 117.23L156.71 117.27L157.07 117.32L157.42 117.38L157.76 117.46L158.1 117.55L158.43 117.65L158.76 117.77L159.08 117.9L159.4 118.04L159.71 118.19L160.01 118.36L160.3 118.53L160.59 118.72L160.87 118.91L161.14 119.12L161.4 119.34L161.66 119.56L161.9 119.8L162.14 120.05L162.37 120.3L162.58 120.56L162.79 120.83L162.99 121.11L163.17 121.4L163.35 121.7L163.51 122L163.67 122.31L163.81 122.62L163.94 122.94L164.05 123.27L164.16 123.61L164.25 123.94L164.32 124.29L164.39 124.64L164.44 124.99L164.47 125.35L164.5 125.71L164.5 126.08L164.5 151.15L164.5 151.51L164.47 151.87L164.44 152.23L164.39 152.59L164.32 152.93L164.25 153.28L164.16 153.62L164.05 153.95L163.94 154.28L163.81 154.6L163.67 154.92L163.51 155.23L163.35 155.53L163.17 155.82L162.99 156.11L162.79 156.39L162.58 156.66L162.37 156.92L162.14 157.18L161.9 157.42L161.66 157.66L161.4 157.89L161.14 158.1L160.87 158.31L160.59 158.51L160.3 158.69L160.01 158.87L159.71 159.03L159.4 159.18L159.08 159.33L158.76 159.45L158.43 159.57L158.1 159.67L157.76 159.77L157.42 159.84L157.07 159.91L156.71 159.96L156.35 159.99L155.99 160.02L155.63 160.02L17.51 160.02L17.14 160.02L16.78 159.99L16.42 159.96L16.07 159.91L15.72 159.84L15.37 159.77L15.03 159.67L14.7 159.57L14.37 159.45L14.05 159.33L13.73 159.18L13.43 159.03L13.12 158.87L12.83 158.69L12.54 158.51L12.26 158.31L11.99 158.1L11.73 157.89L11.47 157.66L11.23 157.42L10.99 157.18L10.76 156.92L10.55 156.66L10.34 156.39L10.14 156.11L9.96 155.82L9.78 155.53L9.62 155.23L9.47 154.92L9.33 154.6L9.2 154.28L9.08 153.95L8.98 153.62L8.89 153.28L8.81 152.93L8.74 152.59L8.69 152.23L8.66 151.87L8.63 151.51L8.63 151.15L8.63 126.08L8.63 125.71L8.66 125.35L8.69 124.99L8.74 124.64L8.81 124.29L8.89 123.94L8.98 123.61L9.08 123.27L9.2 122.94L9.33 122.62L9.47 122.31L9.62 122L9.78 121.7L9.96 121.4L10.14 121.11L10.34 120.83L10.55 120.56L10.76 120.3L10.99 120.05L11.23 119.8L11.47 119.56L11.73 119.34L11.99 119.12L12.26 118.91L12.54 118.72L12.83 118.53L13.12 118.36L13.43 118.19L13.73 118.04L14.05 117.9L14.37 117.77L14.7 117.65L15.03 117.55L15.37 117.46L15.72 117.38L16.07 117.32L16.42 117.27L16.78 117.23L17.14 117.21L17.51 117.2L155.63 117.2L155.99 117.21L156.35 117.23ZM156.35 68.84L156.71 68.88L157.07 68.93L157.42 68.99L157.76 69.07L158.1 69.16L158.43 69.27L158.76 69.38L159.08 69.51L159.4 69.65L159.71 69.81L160.01 69.97L160.3 70.14L160.59 70.33L160.87 70.53L161.14 70.73L161.4 70.95L161.66 71.18L161.9 71.41L162.14 71.66L162.37 71.91L162.58 72.18L162.79 72.45L162.99 72.73L163.17 73.02L163.35 73.31L163.51 73.61L163.67 73.92L163.81 74.24L163.94 74.56L164.05 74.89L164.16 75.22L164.25 75.56L164.32 75.9L164.39 76.25L164.44 76.61L164.47 76.96L164.5 77.33L164.5 77.69L164.5 102.76L164.5 103.13L164.47 103.49L164.44 103.85L164.39 104.2L164.32 104.55L164.25 104.89L164.16 105.23L164.05 105.57L163.94 105.89L163.81 106.22L163.67 106.53L163.51 106.84L163.35 107.14L163.17 107.44L162.99 107.72L162.79 108L162.58 108.27L162.37 108.54L162.14 108.79L161.9 109.04L161.66 109.27L161.4 109.5L161.14 109.72L160.87 109.92L160.59 110.12L160.3 110.31L160.01 110.48L159.71 110.65L159.4 110.8L159.08 110.94L158.76 111.07L158.43 111.18L158.1 111.29L157.76 111.38L157.42 111.46L157.07 111.52L156.71 111.57L156.35 111.61L155.99 111.63L155.63 111.64L17.51 111.64L17.14 111.63L16.78 111.61L16.42 111.57L16.07 111.52L15.72 111.46L15.37 111.38L15.03 111.29L14.7 111.18L14.37 111.07L14.05 110.94L13.73 110.8L13.43 110.65L13.12 110.48L12.83 110.31L12.54 110.12L12.26 109.92L11.99 109.72L11.73 109.5L11.47 109.27L11.23 109.04L10.99 108.79L10.76 108.54L10.55 108.27L10.34 108L10.14 107.72L9.96 107.44L9.78 107.14L9.62 106.84L9.47 106.53L9.33 106.22L9.2 105.89L9.08 105.57L8.98 105.23L8.89 104.89L8.81 104.55L8.74 104.2L8.69 103.85L8.66 103.49L8.63 103.13L8.63 102.76L8.63 77.69L8.63 77.33L8.66 76.96L8.69 76.61L8.74 76.25L8.81 75.9L8.89 75.56L8.98 75.22L9.08 74.89L9.2 74.56L9.33 74.24L9.47 73.92L9.62 73.61L9.78 73.31L9.96 73.02L10.14 72.73L10.34 72.45L10.55 72.18L10.76 71.91L10.99 71.66L11.23 71.41L11.47 71.18L11.73 70.95L11.99 70.73L12.26 70.53L12.54 70.33L12.83 70.14L13.12 69.97L13.43 69.81L13.73 69.65L14.05 69.51L14.37 69.38L14.7 69.27L15.03 69.16L15.37 69.07L15.72 68.99L16.07 68.93L16.42 68.88L16.78 68.84L17.14 68.82L17.51 68.81L155.63 68.81L155.99 68.82L156.35 68.84ZM128.68 8.45L129.03 8.48L129.39 8.54L129.74 8.6L130.08 8.68L130.42 8.77L130.75 8.87L131.08 8.99L131.4 9.12L131.72 9.26L132.03 9.41L132.33 9.57L132.62 9.75L132.91 9.94L133.19 10.13L133.46 10.34L133.73 10.56L133.98 10.78L134.23 11.02L134.46 11.26L134.69 11.52L134.91 11.78L135.11 12.05L135.31 12.33L135.5 12.62L135.67 12.91L135.83 13.22L135.99 13.53L136.13 13.84L136.26 14.16L136.37 14.49L136.48 14.82L136.57 15.16L136.64 15.51L136.71 15.86L136.76 16.21L136.8 16.57L136.82 16.93L136.83 17.3L136.83 68.81L112.22 68.81L112.22 36.91L112.22 36.72L112.2 36.52L112.18 36.33L112.16 36.15L112.12 35.96L112.08 35.78L112.03 35.6L111.98 35.42L111.92 35.25L111.85 35.08L111.78 34.91L111.69 34.75L111.61 34.59L111.52 34.43L111.42 34.28L111.31 34.13L111.2 33.99L111.09 33.85L110.97 33.72L110.84 33.59L110.71 33.46L110.58 33.34L110.44 33.23L110.3 33.12L110.15 33.01L110 32.91L109.84 32.82L109.68 32.73L109.52 32.65L109.35 32.58L109.18 32.51L109.01 32.45L108.83 32.39L108.65 32.35L108.47 32.3L108.28 32.27L108.09 32.24L107.91 32.22L107.71 32.21L107.52 32.21L63.23 32.21L63.04 32.21L62.85 32.22L62.66 32.24L62.47 32.27L62.29 32.3L62.1 32.35L61.93 32.39L61.75 32.45L61.58 32.51L61.4 32.58L61.24 32.65L61.07 32.73L60.91 32.82L60.76 32.91L60.61 33.01L60.46 33.12L60.31 33.23L60.18 33.34L60.04 33.46L59.91 33.59L59.79 33.72L59.67 33.85L59.55 33.99L59.44 34.13L59.34 34.28L59.24 34.43L59.15 34.59L59.06 34.75L58.98 34.91L58.9 35.08L58.84 35.25L58.77 35.42L58.72 35.6L58.67 35.78L58.63 35.96L58.6 36.15L58.57 36.33L58.55 36.52L58.54 36.72L58.53 36.91L58.53 68.81L35.42 68.81L35.42 17.3L35.43 16.93L35.45 16.57L35.49 16.21L35.54 15.86L35.6 15.51L35.68 15.16L35.77 14.82L35.87 14.49L35.99 14.16L36.12 13.84L36.26 13.53L36.41 13.22L36.57 12.91L36.75 12.62L36.94 12.33L37.13 12.05L37.34 11.78L37.56 11.52L37.78 11.26L38.02 11.02L38.27 10.78L38.52 10.56L38.78 10.34L39.05 10.13L39.33 9.94L39.62 9.75L39.92 9.57L40.22 9.41L40.53 9.26L40.84 9.12L41.16 8.99L41.49 8.87L41.82 8.77L42.16 8.68L42.51 8.6L42.86 8.54L43.21 8.48L43.57 8.45L43.93 8.43L44.3 8.42L127.95 8.42L128.31 8.43L128.68 8.45Z" id="a2d7Jdm0MC" fill="white" fill-opacity="1" filter="url(#shadow1797979)"></path></g><use xlink:href="#c1QSM8PFfq" opacity="1" fill="#c9c9c9" fill-opacity="1"></use></g><g><use xlink:href="#g27TRdFWmQ" opacity="1" fill="#6c62de" fill-opacity="1"></use><g mask="url(#maskf3FGFklBOR)"><use xlink:href="#g27TRdFWmQ" opacity="1" fill-opacity="0" stroke="#4256bd" stroke-width="2" stroke-opacity="1"></use></g></g><g><use xlink:href="#a4iFxVfPsa" opacity="1" fill="#6c62de" fill-opacity="1"></use><g mask="url(#maska6Oh0bZKsS)"><use xlink:href="#a4iFxVfPsa" opacity="1" fill-opacity="0" stroke="#4256bd" stroke-width="2" stroke-opacity="1"></use></g></g><g><use xlink:href="#bfNY3LS2" opacity="1" fill="#ffffff" fill-opacity="0.27"></use></g></g></g></svg>