<?xml version="1.0" encoding="UTF-8" standalone="no"?>
<!DOCTYPE svg PUBLIC "-//W3C//DTD SVG 1.1//EN" "http://www.w3.org/Graphics/SVG/1.1/DTD/svg11.dtd">
<svg version="1.1" xmlns="http://www.w3.org/2000/svg" xmlns:xlink="http://www.w3.org/1999/xlink" preserveAspectRatio="xMidYMid meet" viewBox="0 0 200 220" width="200" height="220"><defs><path d="M137.73 103.23L173.47 193.73L101.97 193.73L30.47 193.73L66.22 103.23L101.97 12.73L137.73 103.23Z" id="bjsviQvLh"></path><path d="M104.7 9.87L105.61 11.62L106.5 13.32L107.38 14.96L108.23 16.55L109.06 18.1L109.87 19.6L110.65 21.06L111.4 22.48L112.12 23.86L112.81 25.21L113.47 26.54L114.09 27.84L114.25 28.17L114.32 28.05L115.48 29.78L116.6 31.42L117.69 32.98L118.74 34.46L119.74 35.87L120.69 37.22L121.59 38.51L122.42 39.76L123.18 40.97L123.88 42.15L124.5 43.3L125.03 44.43L125.49 45.55L125.85 46.67L126.11 47.8L126.27 48.93L126.32 50.09L126.27 51.24L126.11 52.36L125.85 53.45L125.49 54.49L125.03 55.49L124.5 56.44L123.88 57.33L123.18 58.16L122.42 58.92L121.59 59.61L120.69 60.23L119.74 60.77L118.74 61.21L117.69 61.57L116.6 61.83L115.48 62L114.32 62.05L113.17 62L112.04 61.83L110.96 61.57L110.57 61.44L109.87 61.95L109.06 62.46L108.23 62.9L107.38 63.28L106.5 63.6L105.61 63.85L104.7 64.03L103.77 64.14L102.82 64.18L101.88 64.14L100.95 64.03L100.04 63.85L99.14 63.6L98.27 63.28L97.42 62.9L96.59 62.46L95.78 61.95L95.71 61.9L94.74 62.34L93.69 62.7L92.6 62.96L91.48 63.12L90.32 63.18L89.17 63.12L88.04 62.96L86.96 62.7L85.91 62.34L84.91 61.89L83.96 61.35L83.06 60.74L82.23 60.05L81.46 59.28L80.77 58.45L80.15 57.56L79.61 56.61L79.16 55.62L78.8 54.57L78.54 53.49L78.38 52.36L78.32 51.21L78.38 50.06L78.54 48.92L78.8 47.8L79.16 46.68L79.61 45.56L80.15 44.42L80.77 43.27L81.46 42.09L82.23 40.89L83.06 39.64L83.96 38.34L84.91 36.99L85.91 35.58L86.96 34.1L88.04 32.55L89.17 30.91L90.32 29.18L90.7 29.73L90.97 29.11L91.56 27.84L92.18 26.54L92.84 25.21L93.53 23.86L94.25 22.48L95 21.06L95.78 19.6L96.59 18.1L97.42 16.55L98.27 14.96L99.14 13.32L100.04 11.62L100.95 9.87L101.88 8.05L102.82 6.18L103.77 8.05L104.7 9.87Z" id="f1F9sQ3Fg9"></path><path d="M103.82 194.1L30.47 194.1L66.22 103.6L101.97 13.1L103.82 17.79L103.82 194.1Z" id="c3K7mUcH4U"></path><path d="M91.47 135.92L119.97 208.06L62.97 208.06L5.97 208.06L34.47 135.92L62.97 63.77L91.47 135.92Z" id="bhy7JJJF"></path><path d="M66.36 63.82L67.22 65.44L68.05 66.99L68.86 68.49L69.64 69.94L70.38 71.34L71.09 72.7L71.76 74.02L72.39 75.3L72.76 76.09L72.82 75.99L73.94 77.65L75.01 79.21L76.05 80.68L77.03 82.06L77.95 83.37L78.8 84.62L79.58 85.81L80.28 86.96L80.9 88.08L81.41 89.18L81.83 90.26L82.13 91.35L82.32 92.44L82.39 93.56L82.32 94.67L82.13 95.74L81.83 96.77L81.41 97.75L80.9 98.67L80.28 99.52L79.58 100.3L78.8 101L77.95 101.61L77.03 102.12L76.05 102.54L75.01 102.84L73.94 103.03L72.82 103.09L71.7 103.03L70.63 102.84L69.83 102.61L69.64 102.75L68.86 103.28L68.05 103.72L67.22 104.1L66.36 104.39L65.48 104.61L64.57 104.74L63.65 104.79L62.73 104.74L61.83 104.61L60.94 104.39L60.08 104.1L59.25 103.72L58.44 103.28L57.99 102.97L57.89 103.02L56.91 103.43L55.88 103.74L54.8 103.93L53.69 103.99L52.57 103.93L51.49 103.74L50.46 103.43L49.48 103.02L48.56 102.51L47.7 101.89L46.92 101.2L46.22 100.42L45.61 99.57L45.09 98.65L44.68 97.67L44.37 96.64L44.18 95.57L44.12 94.45L44.18 93.34L44.37 92.24L44.68 91.16L45.09 90.07L45.61 88.97L46.22 87.86L46.92 86.71L47.7 85.51L48.56 84.27L49.48 82.96L50.46 81.58L51.49 80.11L52.57 78.55L53.69 76.89L53.99 77.33L54.33 76.56L54.91 75.3L55.55 74.02L56.22 72.7L56.92 71.34L57.67 69.94L58.44 68.49L59.25 66.99L60.08 65.44L60.94 63.82L61.83 62.13L62.73 60.38L63.65 58.55L64.57 60.38L65.48 62.13L65.48 62.13L66.36 63.82Z" id="a1JqFAwnX0"></path><path d="M164.6 147.83L188.47 208.17L140.72 208.17L92.97 208.17L116.85 147.83L140.72 87.48L164.6 147.83Z" id="aMBIytf83"></path><path d="M144.04 88.43L144.9 90.03L145.73 91.57L146.52 93.03L147.26 94.45L147.96 95.81L148.61 97.13L148.92 97.78L148.97 97.7L150.16 99.46L151.29 101.08L152.35 102.57L153.34 103.97L154.23 105.28L155.02 106.53L155.69 107.73L156.24 108.89L156.65 110.05L156.9 111.21L156.99 112.39L156.9 113.57L156.65 114.7L156.24 115.76L155.69 116.74L155.02 117.63L154.23 118.41L153.34 119.09L152.35 119.63L151.29 120.03L150.16 120.28L148.97 120.37L147.79 120.28L146.66 120.03L146.47 119.96L145.73 120.48L144.9 120.94L144.04 121.3L143.15 121.57L142.23 121.73L141.29 121.79L140.35 121.73L139.43 121.57L138.54 121.3L137.68 120.94L136.85 120.48L136.54 120.26L136.32 120.38L135.26 120.78L134.13 121.03L132.94 121.12L131.76 121.03L130.63 120.78L129.57 120.38L128.58 119.84L127.69 119.16L126.9 118.38L126.22 117.49L125.67 116.51L125.27 115.45L125.02 114.32L124.93 113.14L125.02 111.96L125.27 110.8L125.67 109.65L126.22 108.48L126.9 107.28L127.69 106.03L128.58 104.72L129.57 103.32L130.63 101.83L131.76 100.21L132.94 98.45L133.2 98.82L133.38 98.41L133.97 97.13L134.62 95.81L135.32 94.45L136.07 93.03L136.85 91.57L137.68 90.03L138.54 88.43L139.43 86.74L140.35 84.97L141.29 83.11L142.23 84.97L143.15 86.74L143.15 86.74L144.04 88.43Z" id="a1lkbj1EdL"></path><path d="M141.96 208.42L92.97 208.42L116.85 148.08L140.72 87.73L141.96 90.86L141.96 208.42Z" id="a318zxrxeS"></path><path d="M64.45 208.36L5.97 208.36L34.47 136.22L62.97 64.07L64.45 67.81L64.45 208.36Z" id="b49ZiW4b67"></path></defs><g><g><g><g><filter id="shadow10429540" x="21.47" y="3.73" width="162" height="199" filterUnits="userSpaceOnUse" primitiveUnits="userSpaceOnUse"><feFlood></feFlood><feComposite in2="SourceAlpha" operator="in"></feComposite><feGaussianBlur stdDeviation="1"></feGaussianBlur><feOffset dx="1" dy="0" result="afterOffset"></feOffset><feFlood flood-color="#000000" flood-opacity="0.5"></feFlood><feComposite in2="afterOffset" operator="in"></feComposite><feMorphology operator="dilate" radius="1"></feMorphology><feComposite in2="SourceAlpha" operator="out"></feComposite></filter><path d="M137.73 103.23L173.47 193.73L101.97 193.73L30.47 193.73L66.22 103.23L101.97 12.73L137.73 103.23Z" id="a33JN2qY3d" fill="white" fill-opacity="1" filter="url(#shadow10429540)"></path></g><use xlink:href="#bjsviQvLh" opacity="1" fill="#b07945" fill-opacity="1"></use></g><g><g><filter id="shadow12467361" x="68.32" y="-3.82" width="68" height="81" filterUnits="userSpaceOnUse" primitiveUnits="userSpaceOnUse"><feFlood></feFlood><feComposite in2="SourceAlpha" operator="in"></feComposite><feGaussianBlur stdDeviation="1"></feGaussianBlur><feOffset dx="0" dy="3" result="afterOffset"></feOffset><feFlood flood-color="#000000" flood-opacity="0.5"></feFlood><feComposite in2="afterOffset" operator="in"></feComposite><feMorphology operator="dilate" radius="0"></feMorphology><feComposite in2="SourceAlpha" operator="out"></feComposite></filter><path d="M104.7 9.87L105.61 11.62L106.5 13.32L107.38 14.96L108.23 16.55L109.06 18.1L109.87 19.6L110.65 21.06L111.4 22.48L112.12 23.86L112.81 25.21L113.47 26.54L114.09 27.84L114.25 28.17L114.32 28.05L115.48 29.78L116.6 31.42L117.69 32.98L118.74 34.46L119.74 35.87L120.69 37.22L121.59 38.51L122.42 39.76L123.18 40.97L123.88 42.15L124.5 43.3L125.03 44.43L125.49 45.55L125.85 46.67L126.11 47.8L126.27 48.93L126.32 50.09L126.27 51.24L126.11 52.36L125.85 53.45L125.49 54.49L125.03 55.49L124.5 56.44L123.88 57.33L123.18 58.16L122.42 58.92L121.59 59.61L120.69 60.23L119.74 60.77L118.74 61.21L117.69 61.57L116.6 61.83L115.48 62L114.32 62.05L113.17 62L112.04 61.83L110.96 61.57L110.57 61.44L109.87 61.95L109.06 62.46L108.23 62.9L107.38 63.28L106.5 63.6L105.61 63.85L104.7 64.03L103.77 64.14L102.82 64.18L101.88 64.14L100.95 64.03L100.04 63.85L99.14 63.6L98.27 63.28L97.42 62.9L96.59 62.46L95.78 61.95L95.71 61.9L94.74 62.34L93.69 62.7L92.6 62.96L91.48 63.12L90.32 63.18L89.17 63.12L88.04 62.96L86.96 62.7L85.91 62.34L84.91 61.89L83.96 61.35L83.06 60.74L82.23 60.05L81.46 59.28L80.77 58.45L80.15 57.56L79.61 56.61L79.16 55.62L78.8 54.57L78.54 53.49L78.38 52.36L78.32 51.21L78.38 50.06L78.54 48.92L78.8 47.8L79.16 46.68L79.61 45.56L80.15 44.42L80.77 43.27L81.46 42.09L82.23 40.89L83.06 39.64L83.96 38.34L84.91 36.99L85.91 35.58L86.96 34.1L88.04 32.55L89.17 30.91L90.32 29.18L90.7 29.73L90.97 29.11L91.56 27.84L92.18 26.54L92.84 25.21L93.53 23.86L94.25 22.48L95 21.06L95.78 19.6L96.59 18.1L97.42 16.55L98.27 14.96L99.14 13.32L100.04 11.62L100.95 9.87L101.88 8.05L102.82 6.18L103.77 8.05L104.7 9.87Z" id="hb9XTriiC" fill="white" fill-opacity="1" filter="url(#shadow12467361)"></path></g><use xlink:href="#f1F9sQ3Fg9" opacity="1" fill="#fffaf8" fill-opacity="1"></use></g><g><use xlink:href="#c3K7mUcH4U" opacity="1" fill="#ffffff" fill-opacity="0.14"></use></g><g><g><filter id="shadow11727322" x="-3.03" y="54.77" width="133" height="163.29" filterUnits="userSpaceOnUse" primitiveUnits="userSpaceOnUse"><feFlood></feFlood><feComposite in2="SourceAlpha" operator="in"></feComposite><feGaussianBlur stdDeviation="1"></feGaussianBlur><feOffset dx="1" dy="1" result="afterOffset"></feOffset><feFlood flood-color="#000000" flood-opacity="0.5"></feFlood><feComposite in2="afterOffset" operator="in"></feComposite><feMorphology operator="dilate" radius="1"></feMorphology><feComposite in2="SourceAlpha" operator="out"></feComposite></filter><path d="M91.47 135.92L119.97 208.06L62.97 208.06L5.97 208.06L34.47 135.92L62.97 63.77L91.47 135.92Z" id="dFdN96lwB" fill="white" fill-opacity="1" filter="url(#shadow11727322)"></path></g><use xlink:href="#bhy7JJJF" opacity="1" fill="#b07945" fill-opacity="1"></use></g><g><g><filter id="shadow4920786" x="34.12" y="48.55" width="58.27" height="69.24" filterUnits="userSpaceOnUse" primitiveUnits="userSpaceOnUse"><feFlood></feFlood><feComposite in2="SourceAlpha" operator="in"></feComposite><feGaussianBlur stdDeviation="1"></feGaussianBlur><feOffset dx="0" dy="3" result="afterOffset"></feOffset><feFlood flood-color="#000000" flood-opacity="0.5"></feFlood><feComposite in2="afterOffset" operator="in"></feComposite><feMorphology operator="dilate" radius="0"></feMorphology><feComposite in2="SourceAlpha" operator="out"></feComposite></filter><path d="M66.36 63.82L67.22 65.44L68.05 66.99L68.86 68.49L69.64 69.94L70.38 71.34L71.09 72.7L71.76 74.02L72.39 75.3L72.76 76.09L72.82 75.99L73.94 77.65L75.01 79.21L76.05 80.68L77.03 82.06L77.95 83.37L78.8 84.62L79.58 85.81L80.28 86.96L80.9 88.08L81.41 89.18L81.83 90.26L82.13 91.35L82.32 92.44L82.39 93.56L82.32 94.67L82.13 95.74L81.83 96.77L81.41 97.75L80.9 98.67L80.28 99.52L79.58 100.3L78.8 101L77.95 101.61L77.03 102.12L76.05 102.54L75.01 102.84L73.94 103.03L72.82 103.09L71.7 103.03L70.63 102.84L69.83 102.61L69.64 102.75L68.86 103.28L68.05 103.72L67.22 104.1L66.36 104.39L65.48 104.61L64.57 104.74L63.65 104.79L62.73 104.74L61.83 104.61L60.94 104.39L60.08 104.1L59.25 103.72L58.44 103.28L57.99 102.97L57.89 103.02L56.91 103.43L55.88 103.74L54.8 103.93L53.69 103.99L52.57 103.93L51.49 103.74L50.46 103.43L49.48 103.02L48.56 102.51L47.7 101.89L46.92 101.2L46.22 100.42L45.61 99.57L45.09 98.65L44.68 97.67L44.37 96.64L44.18 95.57L44.12 94.45L44.18 93.34L44.37 92.24L44.68 91.16L45.09 90.07L45.61 88.97L46.22 87.86L46.92 86.71L47.7 85.51L48.56 84.27L49.48 82.96L50.46 81.58L51.49 80.11L52.57 78.55L53.69 76.89L53.99 77.33L54.33 76.56L54.91 75.3L55.55 74.02L56.22 72.7L56.92 71.34L57.67 69.94L58.44 68.49L59.25 66.99L60.08 65.44L60.94 63.82L61.83 62.13L62.73 60.38L63.65 58.55L64.57 60.38L65.48 62.13L65.48 62.13L66.36 63.82Z" id="f2xpX2rCML" fill="white" fill-opacity="1" filter="url(#shadow4920786)"></path></g><use xlink:href="#a1JqFAwnX0" opacity="1" fill="#fffaf8" fill-opacity="1"></use></g><g><g><filter id="shadow3618788" x="84.97" y="79.48" width="111.5" height="136.69" filterUnits="userSpaceOnUse" primitiveUnits="userSpaceOnUse"><feFlood></feFlood><feComposite in2="SourceAlpha" operator="in"></feComposite><feGaussianBlur stdDeviation="1"></feGaussianBlur><feOffset dx="0" dy="0" result="afterOffset"></feOffset><feFlood flood-color="#000000" flood-opacity="0.5"></feFlood><feComposite in2="afterOffset" operator="in"></feComposite><feMorphology operator="dilate" radius="1"></feMorphology><feComposite in2="SourceAlpha" operator="out"></feComposite></filter><path d="M164.6 147.83L188.47 208.17L140.72 208.17L92.97 208.17L116.85 147.83L140.72 87.48L164.6 147.83Z" id="b8hbU3izin" fill="white" fill-opacity="1" filter="url(#shadow3618788)"></path></g><use xlink:href="#aMBIytf83" opacity="1" fill="#b07945" fill-opacity="1"></use></g><g><g><filter id="shadow5014639" x="114.93" y="73.11" width="52.06" height="61.67" filterUnits="userSpaceOnUse" primitiveUnits="userSpaceOnUse"><feFlood></feFlood><feComposite in2="SourceAlpha" operator="in"></feComposite><feGaussianBlur stdDeviation="1"></feGaussianBlur><feOffset dx="0" dy="3" result="afterOffset"></feOffset><feFlood flood-color="#000000" flood-opacity="0.5"></feFlood><feComposite in2="afterOffset" operator="in"></feComposite><feMorphology operator="dilate" radius="0"></feMorphology><feComposite in2="SourceAlpha" operator="out"></feComposite></filter><path d="M144.04 88.43L144.9 90.03L145.73 91.57L146.52 93.03L147.26 94.45L147.96 95.81L148.61 97.13L148.92 97.78L148.97 97.7L150.16 99.46L151.29 101.08L152.35 102.57L153.34 103.97L154.23 105.28L155.02 106.53L155.69 107.73L156.24 108.89L156.65 110.05L156.9 111.21L156.99 112.39L156.9 113.57L156.65 114.7L156.24 115.76L155.69 116.74L155.02 117.63L154.23 118.41L153.34 119.09L152.35 119.63L151.29 120.03L150.16 120.28L148.97 120.37L147.79 120.28L146.66 120.03L146.47 119.96L145.73 120.48L144.9 120.94L144.04 121.3L143.15 121.57L142.23 121.73L141.29 121.79L140.35 121.73L139.43 121.57L138.54 121.3L137.68 120.94L136.85 120.48L136.54 120.26L136.32 120.38L135.26 120.78L134.13 121.03L132.94 121.12L131.76 121.03L130.63 120.78L129.57 120.38L128.58 119.84L127.69 119.16L126.9 118.38L126.22 117.49L125.67 116.51L125.27 115.45L125.02 114.32L124.93 113.14L125.02 111.96L125.27 110.8L125.67 109.65L126.22 108.48L126.9 107.28L127.69 106.03L128.58 104.72L129.57 103.32L130.63 101.83L131.76 100.21L132.94 98.45L133.2 98.82L133.38 98.41L133.97 97.13L134.62 95.81L135.32 94.45L136.07 93.03L136.85 91.57L137.68 90.03L138.54 88.43L139.43 86.74L140.35 84.97L141.29 83.11L142.23 84.97L143.15 86.74L143.15 86.74L144.04 88.43Z" id="a2AIGgMG9" fill="white" fill-opacity="1" filter="url(#shadow5014639)"></path></g><use xlink:href="#a1lkbj1EdL" opacity="1" fill="#fffaf8" fill-opacity="1"></use></g><g><use xlink:href="#a318zxrxeS" opacity="1" fill="#ffffff" fill-opacity="0.23"></use></g><g><use xlink:href="#b49ZiW4b67" opacity="1" fill="#ffffff" fill-opacity="0.23"></use></g></g></g></svg>