<?xml version="1.0" encoding="UTF-8" standalone="no"?>
<!DOCTYPE svg PUBLIC "-//W3C//DTD SVG 1.1//EN" "http://www.w3.org/Graphics/SVG/1.1/DTD/svg11.dtd">
<svg version="1.1" xmlns="http://www.w3.org/2000/svg" xmlns:xlink="http://www.w3.org/1999/xlink" preserveAspectRatio="xMidYMid meet" viewBox="0 0 640 381" width="640" height="381"><defs><path d="M305.16 203.12C305.16 203.12 305.16 203.12 305.16 203.12C305.16 183.3 320.83 167.2 340.13 167.2C340.13 167.2 595.24 167.2 595.24 167.2C614.55 167.2 630.21 183.3 630.21 203.12C630.21 203.12 630.21 203.12 630.21 203.12C630.21 222.95 614.55 239.05 595.24 239.05C595.24 239.05 340.13 239.05 340.13 239.05C320.83 239.05 305.16 222.95 305.16 203.12Z" id="b2iHl1C4OU"></path><path d="M110.39 277.81C110.39 277.81 110.39 277.81 110.39 277.81C110.39 253.14 129.17 233.1 152.3 233.1C152.3 233.1 458.02 233.1 458.02 233.1C481.15 233.1 499.93 253.14 499.93 277.81C499.93 277.81 499.93 277.81 499.93 277.81C499.93 302.48 481.15 322.51 458.02 322.51C458.02 322.51 152.3 322.51 152.3 322.51C129.17 322.51 110.39 302.48 110.39 277.81Z" id="a2vRGjbQSd"></path><path d="M30.21 117.23C30.21 117.23 30.21 117.23 30.21 117.23C30.21 83.18 56.73 55.55 89.38 55.55C89.38 55.55 520.94 55.55 520.94 55.55C553.59 55.55 580.11 83.18 580.11 117.23C580.11 117.23 580.11 117.23 580.11 117.23C580.11 151.27 553.59 178.9 520.94 178.9C520.94 178.9 89.38 178.9 89.38 178.9C56.73 178.9 30.21 151.27 30.21 117.23Z" id="b2w65WyfHp"></path><path d="M322.13 364.29C231.37 364.29 157.68 285.62 157.68 188.72C157.68 91.82 231.37 13.15 322.13 13.15C412.9 13.15 486.58 91.82 486.58 188.72C486.58 285.62 412.9 364.29 322.13 364.29Z" id="afNFfczGH"></path><path d="" id="c1lI99L8tE"></path><path d="M322.13 364.29C231.37 364.29 157.68 285.62 157.68 188.72C157.68 91.82 231.37 13.15 322.13 13.15C412.9 13.15 486.58 91.82 486.58 188.72C486.58 285.62 412.9 364.29 322.13 364.29Z" id="acYMxqKHT"></path><path d="M415.7 222.25C415.7 274.07 373.63 316.15 321.8 316.15C269.98 316.15 227.91 274.07 227.91 222.25C227.91 170.43 269.98 128.36 321.8 128.36C373.63 128.36 415.7 170.43 415.7 222.25Z" id="e3byUQnV4x"></path><path d="M419.29 229.96L418.88 233.9L418.33 237.8L417.62 241.64L416.77 245.43L415.76 249.17L414.62 252.84L413.34 256.45L411.92 260L410.37 263.47L408.69 266.87L406.88 270.2L404.95 273.45L402.9 276.61L400.73 279.69L398.45 282.68L396.05 285.58L393.55 288.38L390.95 291.09L388.24 293.69L385.44 296.19L382.54 298.58L379.55 300.87L376.47 303.03L373.31 305.09L370.06 307.02L366.74 308.82L363.33 310.5L359.86 312.06L356.31 313.48L352.7 314.76L349.03 315.9L345.3 316.9L341.5 317.76L337.66 318.47L333.76 319.02L329.82 319.42L325.83 319.67L321.8 319.75L317.77 319.67L313.79 319.42L309.84 319.02L305.95 318.47L302.1 317.76L298.31 316.9L294.58 315.9L290.9 314.76L287.29 313.48L283.75 312.06L280.27 310.5L276.87 308.82L273.55 307.02L270.3 305.09L267.13 303.03L264.06 300.87L261.07 298.58L258.17 296.19L255.36 293.69L252.66 291.09L250.05 288.38L247.55 285.58L245.16 282.68L242.88 279.69L240.71 276.61L238.66 273.45L236.73 270.2L234.92 266.87L233.24 263.47L231.69 260L230.27 256.45L228.99 252.84L227.84 249.17L226.84 245.43L225.99 241.64L225.28 237.8L224.72 233.9L224.32 229.96L224.08 225.97L224 222.25L225.18 222.4L229.58 222.91L234.12 223.4L238.8 223.87L243.6 224.31L248.53 224.73L253.58 225.11L258.75 225.48L264.02 225.81L269.4 226.11L274.89 226.39L280.46 226.64L286.13 226.85L291.89 227.04L297.73 227.19L303.64 227.31L309.63 227.39L315.69 227.45L321.8 227.46L327.92 227.45L333.98 227.39L339.96 227.31L345.88 227.19L351.72 227.04L357.47 226.85L363.14 226.64L368.72 226.39L374.2 226.11L379.59 225.81L384.86 225.48L390.03 225.11L395.08 224.73L400.01 224.31L404.81 223.87L409.49 223.4L414.03 222.91L418.43 222.4L419.6 222.25L419.53 225.97L419.29 229.96Z" id="c25KMnMjVj"></path><path d="M285.97 191.16C297.66 211.51 298.7 232.9 288.28 238.88C277.86 244.87 259.91 233.2 248.22 212.85C236.52 192.5 235.49 171.11 245.91 165.13C256.32 159.14 274.28 170.81 285.97 191.16Z" id="b18Ovxdyg"></path><path d="M427.34 177.37C443.1 194.77 448.66 215.44 439.76 223.5C430.85 231.57 410.83 223.99 395.07 206.6C379.32 189.2 373.75 168.52 382.66 160.46C391.57 152.39 411.59 159.97 427.34 177.37Z" id="capvFzj7Q9"></path><path d="M254.14 291.56C254.14 311.36 266.64 327.44 282.03 327.44C297.42 327.44 309.92 311.36 309.92 291.56C309.92 271.76 297.42 255.68 282.03 255.68C266.64 255.68 254.14 271.76 254.14 291.56Z" id="c16rAlhrew"></path><path d="M252.18 295.95C252.18 308.11 260.63 317.98 271.03 317.98C281.42 317.98 289.87 308.11 289.87 295.95C289.87 283.78 281.42 273.91 271.03 273.91C260.63 273.91 252.18 283.78 252.18 295.95Z" id="e4aHIgDeLb"></path><path d="M271.13 268.78C271.13 275.29 274.92 280.57 279.59 280.57C284.26 280.57 288.04 275.29 288.04 268.78C288.04 262.27 284.26 256.98 279.59 256.98C274.92 256.98 271.13 262.27 271.13 268.78Z" id="a16fdDhK19"></path><path d="M257.41 272.5C257.41 276.96 260.49 280.57 264.27 280.57C268.06 280.57 271.13 276.96 271.13 272.5C271.13 268.05 268.06 264.43 264.27 264.43C260.49 264.43 257.41 268.05 257.41 272.5Z" id="b3azFvw3rA"></path><path d="M248.14 285.79C248.14 290.24 251.22 293.85 255 293.85C258.79 293.85 261.86 290.24 261.86 285.79C261.86 281.33 258.79 277.72 255 277.72C251.22 277.72 248.14 281.33 248.14 285.79Z" id="b19roexgX6"></path><path d="M245.01 298.16C245.01 301.73 247.25 304.63 250.01 304.63C252.76 304.63 255 301.73 255 298.16C255 294.58 252.76 291.68 250.01 291.68C247.25 291.68 245.01 294.58 245.01 298.16Z" id="dcHSccG5m"></path><path d="M396.8 291.56C396.8 311.36 384.3 327.44 368.91 327.44C353.52 327.44 341.02 311.36 341.02 291.56C341.02 271.76 353.52 255.68 368.91 255.68C384.3 255.68 396.8 271.76 396.8 291.56Z" id="d9NHrYExnM"></path><path d="M395.94 299.75C395.94 311.92 387.49 321.79 377.09 321.79C366.69 321.79 358.25 311.92 358.25 299.75C358.25 287.59 366.69 277.72 377.09 277.72C387.49 277.72 395.94 287.59 395.94 299.75Z" id="bjC4BWs2f"></path><path d="M376.99 272.58C376.99 279.09 373.2 284.38 368.53 284.38C363.86 284.38 360.07 279.09 360.07 272.58C360.07 266.07 363.86 260.79 368.53 260.79C373.2 260.79 376.99 266.07 376.99 272.58Z" id="e4H7VTvBGI"></path><path d="M390.71 276.31C390.71 280.76 387.63 284.38 383.85 284.38C380.06 284.38 376.99 280.76 376.99 276.31C376.99 271.86 380.06 268.24 383.85 268.24C387.63 268.24 390.71 271.86 390.71 276.31Z" id="a1hNaJaOKT"></path><path d="M402.8 285.79C402.8 290.24 399.72 293.85 395.94 293.85C392.15 293.85 389.08 290.24 389.08 285.79C389.08 281.33 392.15 277.72 395.94 277.72C399.72 277.72 402.8 281.33 402.8 285.79Z" id="dCRWFA1KS"></path><path d="M405.93 298.16C405.93 301.73 403.69 304.63 400.93 304.63C398.18 304.63 395.94 301.73 395.94 298.16C395.94 294.58 398.18 291.68 400.93 291.68C403.69 291.68 405.93 294.58 405.93 298.16Z" id="a1fzPklXGr"></path><path d="M406.17 117.91C406.17 158.79 368.89 191.98 322.97 191.98C277.05 191.98 239.77 158.79 239.77 117.91C239.77 77.03 277.05 43.84 322.97 43.84C368.89 43.84 406.17 77.03 406.17 117.91Z" id="bcdGufsLY"></path><path d="M355.28 168.6C355.28 185.87 341.26 199.89 323.99 199.89C306.71 199.89 292.69 185.87 292.69 168.6C292.69 151.32 306.71 137.3 323.99 137.3C341.26 137.3 355.28 151.32 355.28 168.6Z" id="a1XZJH2eT"></path><path d="M342.77 168.6C342.77 178.96 334.35 187.38 323.99 187.38C313.62 187.38 305.21 178.96 305.21 168.6C305.21 158.23 313.62 149.82 323.99 149.82C334.35 149.82 342.77 158.23 342.77 168.6Z" id="a8iMgq0n6"></path><path d="M302.83 87.25L303.98 87.47L305.12 87.76L306.22 88.13L307.29 88.57L308.33 89.09L309.33 89.67L310.29 90.31L311.21 91.02L312.09 91.78L312.92 92.61L313.72 93.49L314.47 94.42L315.18 95.41L315.84 96.44L316.45 97.52L317.02 98.64L317.54 99.8L318 101.01L318.42 102.24L318.78 103.51L319.08 104.82L319.33 106.15L319.53 107.51L319.67 108.89L319.75 110.29L319.77 111.71L319.72 113.15L319.62 114.61L319.45 116.07L319.22 117.55L318.93 119.03L318.57 120.5L318.15 121.93L317.68 123.33L317.16 124.69L316.59 126.02L315.97 127.3L315.3 128.53L314.59 129.73L313.84 130.87L313.05 131.97L312.22 133.02L311.36 134.02L310.46 134.97L309.53 135.86L308.57 136.69L307.81 137.29L307.3 137L305.93 136.25L304.5 135.54L303.01 134.86L301.48 134.21L299.89 133.61L298.26 133.04L296.59 132.53L294.9 132.06L293.23 131.66L291.57 131.31L289.93 131.02L288.31 130.8L286.72 130.63L285.16 130.51L283.64 130.46L282.15 130.46L280.7 130.51L279.3 130.62L279.25 130.63L278.99 130.12L278.47 128.95L278.01 127.75L277.59 126.52L277.23 125.24L276.93 123.94L276.67 122.61L276.48 121.25L276.34 119.87L276.26 118.47L276.24 117.05L276.29 115.61L276.39 114.15L276.56 112.69L276.79 111.21L277.08 109.73L277.44 108.26L277.86 106.82L278.33 105.43L278.85 104.06L279.42 102.74L280.04 101.46L280.71 100.22L281.41 99.03L282.17 97.88L282.96 96.78L283.79 95.73L284.65 94.74L285.55 93.79L286.48 92.9L287.44 92.06L288.43 91.29L289.44 90.57L290.48 89.92L291.53 89.32L292.61 88.8L293.7 88.34L294.81 87.94L295.93 87.62L297.07 87.37L298.21 87.19L299.36 87.09L300.51 87.07L301.67 87.12L302.83 87.25Z" id="a1YmRLHU96"></path><path d="M318.09 113.46C318.09 117.29 314.99 120.39 311.17 120.39C307.35 120.39 304.24 117.29 304.24 113.46C304.24 109.64 307.35 106.54 311.17 106.54C314.99 106.54 318.09 109.64 318.09 113.46Z" id="bOBAC1sWA"></path><path d="M348.82 87.37L349.95 87.62L351.07 87.94L352.18 88.33L353.28 88.8L354.35 89.32L355.41 89.92L356.45 90.57L357.46 91.29L358.45 92.06L359.41 92.9L360.34 93.79L361.23 94.74L362.1 95.73L362.93 96.78L363.72 97.88L364.47 99.03L365.18 100.22L365.85 101.46L366.47 102.74L367.04 104.06L367.56 105.42L368.03 106.82L368.44 108.26L368.8 109.73L369.1 111.21L369.33 112.68L369.5 114.15L369.6 115.6L369.64 117.04L369.62 118.47L369.54 119.87L369.41 121.25L369.21 122.61L368.96 123.94L368.65 125.24L368.29 126.51L367.88 127.75L367.41 128.95L366.9 130.12L366.64 130.63L366.59 130.62L365.19 130.51L363.74 130.46L362.25 130.46L360.72 130.51L359.16 130.63L357.57 130.8L355.96 131.02L354.32 131.31L352.66 131.65L350.98 132.06L349.29 132.52L347.62 133.04L345.99 133.61L344.41 134.21L342.87 134.85L341.39 135.54L339.96 136.25L338.58 137L338.08 137.29L337.32 136.69L336.36 135.86L335.43 134.97L334.53 134.02L333.66 133.02L332.83 131.97L332.04 130.87L331.29 129.73L330.58 128.53L329.92 127.3L329.3 126.01L328.73 124.69L328.2 123.33L327.73 121.93L327.32 120.5L326.96 119.03L326.66 117.55L326.43 116.07L326.27 114.61L326.16 113.15L326.12 111.71L326.14 110.29L326.22 108.89L326.36 107.5L326.55 106.15L326.8 104.82L327.11 103.51L327.47 102.24L327.88 101L328.35 99.8L328.87 98.64L329.43 97.52L330.04 96.44L330.71 95.41L331.41 94.42L332.16 93.49L332.96 92.61L333.8 91.78L334.68 91.02L335.6 90.31L336.56 89.66L337.56 89.08L338.59 88.57L339.66 88.13L340.77 87.76L341.9 87.47L343.06 87.25L344.22 87.12L345.37 87.06L346.53 87.09L347.68 87.19L347.68 87.19L348.82 87.37Z" id="a28gg1qKcY"></path><path d="M346.23 112.18C346.23 116 349.33 119.11 353.15 119.11C356.97 119.11 360.07 116 360.07 112.18C360.07 108.36 356.97 105.25 353.15 105.25C349.33 105.25 346.23 108.36 346.23 112.18Z" id="a1QWDS7SYd"></path><path d="M330.28 160.88C333.35 160.88 335.84 162.97 335.84 165.54C335.84 172.68 324.73 176.21 324.73 176.41C324.73 176.41 324.73 176.41 324.73 176.41C324.73 176.21 313.62 172.68 313.62 165.54C313.62 162.97 316.1 160.88 319.17 160.88C322.24 160.88 324.73 162.71 324.73 165.29C324.73 162.71 327.21 160.88 330.28 160.88Z" id="a2O84271gH"></path></defs><g><g><g><g><filter id="shadow11457906" x="297.16" y="159.2" width="341.05" height="87.85" filterUnits="userSpaceOnUse" primitiveUnits="userSpaceOnUse"><feFlood></feFlood><feComposite in2="SourceAlpha" operator="in"></feComposite><feGaussianBlur stdDeviation="1"></feGaussianBlur><feOffset dx="0" dy="0" result="afterOffset"></feOffset><feFlood flood-color="#000000" flood-opacity="0.5"></feFlood><feComposite in2="afterOffset" operator="in"></feComposite><feMorphology operator="dilate" radius="1"></feMorphology><feComposite in2="SourceAlpha" operator="out"></feComposite></filter><path d="M305.16 203.12C305.16 203.12 305.16 203.12 305.16 203.12C305.16 183.3 320.83 167.2 340.13 167.2C340.13 167.2 595.24 167.2 595.24 167.2C614.55 167.2 630.21 183.3 630.21 203.12C630.21 203.12 630.21 203.12 630.21 203.12C630.21 222.95 614.55 239.05 595.24 239.05C595.24 239.05 340.13 239.05 340.13 239.05C320.83 239.05 305.16 222.95 305.16 203.12Z" id="a1NHpJNSl1" fill="white" fill-opacity="1" filter="url(#shadow11457906)"></path></g><use xlink:href="#b2iHl1C4OU" opacity="1" fill="#9642f5" fill-opacity="1"></use><g><use xlink:href="#b2iHl1C4OU" opacity="1" fill-opacity="0" stroke="#000000" stroke-width="1" stroke-opacity="0"></use></g></g><g><g><filter id="shadow11055319" x="102.39" y="225.1" width="405.54" height="105.41" filterUnits="userSpaceOnUse" primitiveUnits="userSpaceOnUse"><feFlood></feFlood><feComposite in2="SourceAlpha" operator="in"></feComposite><feGaussianBlur stdDeviation="1"></feGaussianBlur><feOffset dx="0" dy="0" result="afterOffset"></feOffset><feFlood flood-color="#000000" flood-opacity="0.5"></feFlood><feComposite in2="afterOffset" operator="in"></feComposite><feMorphology operator="dilate" radius="1"></feMorphology><feComposite in2="SourceAlpha" operator="out"></feComposite></filter><path d="M110.39 277.81C110.39 277.81 110.39 277.81 110.39 277.81C110.39 253.14 129.17 233.1 152.3 233.1C152.3 233.1 458.02 233.1 458.02 233.1C481.15 233.1 499.93 253.14 499.93 277.81C499.93 277.81 499.93 277.81 499.93 277.81C499.93 302.48 481.15 322.51 458.02 322.51C458.02 322.51 152.3 322.51 152.3 322.51C129.17 322.51 110.39 302.48 110.39 277.81Z" id="b2k6bPk78p" fill="white" fill-opacity="1" filter="url(#shadow11055319)"></path></g><use xlink:href="#a2vRGjbQSd" opacity="1" fill="#9642f5" fill-opacity="1"></use><g><use xlink:href="#a2vRGjbQSd" opacity="1" fill-opacity="0" stroke="#000000" stroke-width="1" stroke-opacity="0"></use></g></g><g><g><filter id="shadow10788900" x="22.21" y="47.55" width="565.89" height="139.35" filterUnits="userSpaceOnUse" primitiveUnits="userSpaceOnUse"><feFlood></feFlood><feComposite in2="SourceAlpha" operator="in"></feComposite><feGaussianBlur stdDeviation="1"></feGaussianBlur><feOffset dx="0" dy="0" result="afterOffset"></feOffset><feFlood flood-color="#000000" flood-opacity="0.5"></feFlood><feComposite in2="afterOffset" operator="in"></feComposite><feMorphology operator="dilate" radius="1"></feMorphology><feComposite in2="SourceAlpha" operator="out"></feComposite></filter><path d="M30.21 117.23C30.21 117.23 30.21 117.23 30.21 117.23C30.21 83.18 56.73 55.55 89.38 55.55C89.38 55.55 520.94 55.55 520.94 55.55C553.59 55.55 580.11 83.18 580.11 117.23C580.11 117.23 580.11 117.23 580.11 117.23C580.11 151.27 553.59 178.9 520.94 178.9C520.94 178.9 89.38 178.9 89.38 178.9C56.73 178.9 30.21 151.27 30.21 117.23Z" id="c1jgdmoU0P" fill="white" fill-opacity="1" filter="url(#shadow10788900)"></path></g><use xlink:href="#b2w65WyfHp" opacity="1" fill="#9642f5" fill-opacity="1"></use><g><use xlink:href="#b2w65WyfHp" opacity="1" fill-opacity="0" stroke="#000000" stroke-width="1" stroke-opacity="0"></use></g></g><g><g><filter id="shadow8707983" x="149.68" y="5.15" width="344.9" height="367.14" filterUnits="userSpaceOnUse" primitiveUnits="userSpaceOnUse"><feFlood></feFlood><feComposite in2="SourceAlpha" operator="in"></feComposite><feGaussianBlur stdDeviation="1"></feGaussianBlur><feOffset dx="0" dy="0" result="afterOffset"></feOffset><feFlood flood-color="#000000" flood-opacity="0.5"></feFlood><feComposite in2="afterOffset" operator="in"></feComposite><feMorphology operator="dilate" radius="1"></feMorphology><feComposite in2="SourceAlpha" operator="out"></feComposite></filter><path d="M322.13 364.29C231.37 364.29 157.68 285.62 157.68 188.72C157.68 91.82 231.37 13.15 322.13 13.15C412.9 13.15 486.58 91.82 486.58 188.72C486.58 285.62 412.9 364.29 322.13 364.29Z" id="a3XsJNGET" fill="white" fill-opacity="1" filter="url(#shadow8707983)"></path></g><use xlink:href="#afNFfczGH" opacity="1" fill="#2d2d2d" fill-opacity="1"></use><g><use xlink:href="#afNFfczGH" opacity="1" fill-opacity="0" stroke="#000000" stroke-width="1" stroke-opacity="0"></use></g></g><g><g><use xlink:href="#c1lI99L8tE" opacity="1" fill-opacity="0" stroke="#000000" stroke-width="0" stroke-opacity="0"></use></g></g><g><g><filter id="shadow5567755" x="127.68" y="-16.85" width="388.9" height="411.14" filterUnits="userSpaceOnUse" primitiveUnits="userSpaceOnUse"><feFlood></feFlood><feComposite in2="SourceAlpha" operator="in"></feComposite><feGaussianBlur stdDeviation="3.16"></feGaussianBlur><feOffset dx="0" dy="0" result="afterOffset"></feOffset><feFlood flood-color="#000000" flood-opacity="0.5"></feFlood><feComposite in2="afterOffset" operator="in"></feComposite><feMorphology operator="dilate" radius="5"></feMorphology><feComposite in2="SourceAlpha" operator="out"></feComposite></filter><path d="M322.13 364.29C231.37 364.29 157.68 285.62 157.68 188.72C157.68 91.82 231.37 13.15 322.13 13.15C412.9 13.15 486.58 91.82 486.58 188.72C486.58 285.62 412.9 364.29 322.13 364.29Z" id="cxsHkNdy7" fill="white" fill-opacity="1" filter="url(#shadow5567755)"></path></g><use xlink:href="#acYMxqKHT" opacity="1" fill="#000000" fill-opacity="0"></use><g><use xlink:href="#acYMxqKHT" opacity="1" fill-opacity="0" stroke="#9642f5" stroke-width="10" stroke-opacity="1"></use></g></g><g><g><filter id="shadow1301444" x="220.91" y="121.36" width="201.79" height="201.79" filterUnits="userSpaceOnUse" primitiveUnits="userSpaceOnUse"><feFlood></feFlood><feComposite in2="SourceAlpha" operator="in"></feComposite><feGaussianBlur stdDeviation="1"></feGaussianBlur><feOffset dx="0" dy="0" result="afterOffset"></feOffset><feFlood flood-color="#000000" flood-opacity="0.5"></feFlood><feComposite in2="afterOffset" operator="in"></feComposite><feMorphology operator="dilate" radius="0"></feMorphology><feComposite in2="SourceAlpha" operator="out"></feComposite></filter><path d="M415.7 222.25C415.7 274.07 373.63 316.15 321.8 316.15C269.98 316.15 227.91 274.07 227.91 222.25C227.91 170.43 269.98 128.36 321.8 128.36C373.63 128.36 415.7 170.43 415.7 222.25Z" id="jlBUzgQAk" fill="white" fill-opacity="1" filter="url(#shadow1301444)"></path></g><use xlink:href="#e3byUQnV4x" opacity="1" fill="#ffd7d7" fill-opacity="1"></use></g><g><g><filter id="shadow14829020" x="217" y="215.25" width="209.6" height="111.5" filterUnits="userSpaceOnUse" primitiveUnits="userSpaceOnUse"><feFlood></feFlood><feComposite in2="SourceAlpha" operator="in"></feComposite><feGaussianBlur stdDeviation="1"></feGaussianBlur><feOffset dx="0" dy="0" result="afterOffset"></feOffset><feFlood flood-color="#000000" flood-opacity="0.5"></feFlood><feComposite in2="afterOffset" operator="in"></feComposite><feMorphology operator="dilate" radius="0"></feMorphology><feComposite in2="SourceAlpha" operator="out"></feComposite></filter><path d="M419.29 229.96L418.88 233.9L418.33 237.8L417.62 241.64L416.77 245.43L415.76 249.17L414.62 252.84L413.34 256.45L411.92 260L410.37 263.47L408.69 266.87L406.88 270.2L404.95 273.45L402.9 276.61L400.73 279.69L398.45 282.68L396.05 285.58L393.55 288.38L390.95 291.09L388.24 293.69L385.44 296.19L382.54 298.58L379.55 300.87L376.47 303.03L373.31 305.09L370.06 307.02L366.74 308.82L363.33 310.5L359.86 312.06L356.31 313.48L352.7 314.76L349.03 315.9L345.3 316.9L341.5 317.76L337.66 318.47L333.76 319.02L329.82 319.42L325.83 319.67L321.8 319.75L317.77 319.67L313.79 319.42L309.84 319.02L305.95 318.47L302.1 317.76L298.31 316.9L294.58 315.9L290.9 314.76L287.29 313.48L283.75 312.06L280.27 310.5L276.87 308.82L273.55 307.02L270.3 305.09L267.13 303.03L264.06 300.87L261.07 298.58L258.17 296.19L255.36 293.69L252.66 291.09L250.05 288.38L247.55 285.58L245.16 282.68L242.88 279.69L240.71 276.61L238.66 273.45L236.73 270.2L234.92 266.87L233.24 263.47L231.69 260L230.27 256.45L228.99 252.84L227.84 249.17L226.84 245.43L225.99 241.64L225.28 237.8L224.72 233.9L224.32 229.96L224.08 225.97L224 222.25L225.18 222.4L229.58 222.91L234.12 223.4L238.8 223.87L243.6 224.31L248.53 224.73L253.58 225.11L258.75 225.48L264.02 225.81L269.4 226.11L274.89 226.39L280.46 226.64L286.13 226.85L291.89 227.04L297.73 227.19L303.64 227.31L309.63 227.39L315.69 227.45L321.8 227.46L327.92 227.45L333.98 227.39L339.96 227.31L345.88 227.19L351.72 227.04L357.47 226.85L363.14 226.64L368.72 226.39L374.2 226.11L379.59 225.81L384.86 225.48L390.03 225.11L395.08 224.73L400.01 224.31L404.81 223.87L409.49 223.4L414.03 222.91L418.43 222.4L419.6 222.25L419.53 225.97L419.29 229.96Z" id="de25GrfBx" fill="white" fill-opacity="1" filter="url(#shadow14829020)"></path></g><use xlink:href="#c25KMnMjVj" opacity="1" fill="#f8f8f8" fill-opacity="1"></use></g><g><g><filter id="shadow12693427" x="231.72" y="156.56" width="70.74" height="90.89" filterUnits="userSpaceOnUse" primitiveUnits="userSpaceOnUse"><feFlood></feFlood><feComposite in2="SourceAlpha" operator="in"></feComposite><feGaussianBlur stdDeviation="1"></feGaussianBlur><feOffset dx="0" dy="0" result="afterOffset"></feOffset><feFlood flood-color="#000000" flood-opacity="0.5"></feFlood><feComposite in2="afterOffset" operator="in"></feComposite><feMorphology operator="dilate" radius="0"></feMorphology><feComposite in2="SourceAlpha" operator="out"></feComposite></filter><path d="M285.97 191.16C297.66 211.51 298.7 232.9 288.28 238.88C277.86 244.87 259.91 233.2 248.22 212.85C236.52 192.5 235.49 171.11 245.91 165.13C256.32 159.14 274.28 170.81 285.97 191.16Z" id="cKFnCSUxx" fill="white" fill-opacity="1" filter="url(#shadow12693427)"></path></g><use xlink:href="#b18Ovxdyg" opacity="1" fill="#ffd7d7" fill-opacity="1"></use></g><g><g><filter id="shadow11748227" x="371.41" y="150.23" width="79.59" height="83.5" filterUnits="userSpaceOnUse" primitiveUnits="userSpaceOnUse"><feFlood></feFlood><feComposite in2="SourceAlpha" operator="in"></feComposite><feGaussianBlur stdDeviation="1"></feGaussianBlur><feOffset dx="0" dy="0" result="afterOffset"></feOffset><feFlood flood-color="#000000" flood-opacity="0.5"></feFlood><feComposite in2="afterOffset" operator="in"></feComposite><feMorphology operator="dilate" radius="0"></feMorphology><feComposite in2="SourceAlpha" operator="out"></feComposite></filter><path d="M427.34 177.37C443.1 194.77 448.66 215.44 439.76 223.5C430.85 231.57 410.83 223.99 395.07 206.6C379.32 189.2 373.75 168.52 382.66 160.46C391.57 152.39 411.59 159.97 427.34 177.37Z" id="acV5KpnQr" fill="white" fill-opacity="1" filter="url(#shadow11748227)"></path></g><use xlink:href="#capvFzj7Q9" opacity="1" fill="#ffd7d7" fill-opacity="1"></use></g><g><g><filter id="shadow5425074" x="247.14" y="248.68" width="69.78" height="85.75" filterUnits="userSpaceOnUse" primitiveUnits="userSpaceOnUse"><feFlood></feFlood><feComposite in2="SourceAlpha" operator="in"></feComposite><feGaussianBlur stdDeviation="1"></feGaussianBlur><feOffset dx="0" dy="0" result="afterOffset"></feOffset><feFlood flood-color="#000000" flood-opacity="0.5"></feFlood><feComposite in2="afterOffset" operator="in"></feComposite><feMorphology operator="dilate" radius="0"></feMorphology><feComposite in2="SourceAlpha" operator="out"></feComposite></filter><path d="M254.14 291.56C254.14 311.36 266.64 327.44 282.03 327.44C297.42 327.44 309.92 311.36 309.92 291.56C309.92 271.76 297.42 255.68 282.03 255.68C266.64 255.68 254.14 271.76 254.14 291.56Z" id="j3YdPbeXS" fill="white" fill-opacity="1" filter="url(#shadow5425074)"></path></g><use xlink:href="#c16rAlhrew" opacity="1" fill="#ffd7d7" fill-opacity="1"></use></g><g><g><filter id="shadow4823262" x="245.18" y="266.91" width="51.69" height="58.07" filterUnits="userSpaceOnUse" primitiveUnits="userSpaceOnUse"><feFlood></feFlood><feComposite in2="SourceAlpha" operator="in"></feComposite><feGaussianBlur stdDeviation="1"></feGaussianBlur><feOffset dx="0" dy="0" result="afterOffset"></feOffset><feFlood flood-color="#000000" flood-opacity="0.5"></feFlood><feComposite in2="afterOffset" operator="in"></feComposite><feMorphology operator="dilate" radius="0"></feMorphology><feComposite in2="SourceAlpha" operator="out"></feComposite></filter><path d="M252.18 295.95C252.18 308.11 260.63 317.98 271.03 317.98C281.42 317.98 289.87 308.11 289.87 295.95C289.87 283.78 281.42 273.91 271.03 273.91C260.63 273.91 252.18 283.78 252.18 295.95Z" id="dgOw2jBUT" fill="white" fill-opacity="1" filter="url(#shadow4823262)"></path></g><use xlink:href="#e4aHIgDeLb" opacity="1" fill="#ffd7d7" fill-opacity="1"></use></g><g><g><filter id="shadow8633127" x="264.13" y="249.98" width="30.91" height="37.59" filterUnits="userSpaceOnUse" primitiveUnits="userSpaceOnUse"><feFlood></feFlood><feComposite in2="SourceAlpha" operator="in"></feComposite><feGaussianBlur stdDeviation="1"></feGaussianBlur><feOffset dx="0" dy="0" result="afterOffset"></feOffset><feFlood flood-color="#000000" flood-opacity="0.5"></feFlood><feComposite in2="afterOffset" operator="in"></feComposite><feMorphology operator="dilate" radius="0"></feMorphology><feComposite in2="SourceAlpha" operator="out"></feComposite></filter><path d="M271.13 268.78C271.13 275.29 274.92 280.57 279.59 280.57C284.26 280.57 288.04 275.29 288.04 268.78C288.04 262.27 284.26 256.98 279.59 256.98C274.92 256.98 271.13 262.27 271.13 268.78Z" id="b404CewVBx" fill="white" fill-opacity="1" filter="url(#shadow8633127)"></path></g><use xlink:href="#a16fdDhK19" opacity="1" fill="#ffd7d7" fill-opacity="1"></use></g><g><g><filter id="shadow2793726" x="250.41" y="257.43" width="27.72" height="30.14" filterUnits="userSpaceOnUse" primitiveUnits="userSpaceOnUse"><feFlood></feFlood><feComposite in2="SourceAlpha" operator="in"></feComposite><feGaussianBlur stdDeviation="1"></feGaussianBlur><feOffset dx="0" dy="0" result="afterOffset"></feOffset><feFlood flood-color="#000000" flood-opacity="0.5"></feFlood><feComposite in2="afterOffset" operator="in"></feComposite><feMorphology operator="dilate" radius="0"></feMorphology><feComposite in2="SourceAlpha" operator="out"></feComposite></filter><path d="M257.41 272.5C257.41 276.96 260.49 280.57 264.27 280.57C268.06 280.57 271.13 276.96 271.13 272.5C271.13 268.05 268.06 264.43 264.27 264.43C260.49 264.43 257.41 268.05 257.41 272.5Z" id="aKJRBQgk" fill="white" fill-opacity="1" filter="url(#shadow2793726)"></path></g><use xlink:href="#b3azFvw3rA" opacity="1" fill="#ffd7d7" fill-opacity="1"></use></g><g><g><filter id="shadow4011342" x="241.14" y="270.72" width="27.72" height="30.14" filterUnits="userSpaceOnUse" primitiveUnits="userSpaceOnUse"><feFlood></feFlood><feComposite in2="SourceAlpha" operator="in"></feComposite><feGaussianBlur stdDeviation="1"></feGaussianBlur><feOffset dx="0" dy="0" result="afterOffset"></feOffset><feFlood flood-color="#000000" flood-opacity="0.5"></feFlood><feComposite in2="afterOffset" operator="in"></feComposite><feMorphology operator="dilate" radius="0"></feMorphology><feComposite in2="SourceAlpha" operator="out"></feComposite></filter><path d="M248.14 285.79C248.14 290.24 251.22 293.85 255 293.85C258.79 293.85 261.86 290.24 261.86 285.79C261.86 281.33 258.79 277.72 255 277.72C251.22 277.72 248.14 281.33 248.14 285.79Z" id="b1yvSTpkz" fill="white" fill-opacity="1" filter="url(#shadow4011342)"></path></g><use xlink:href="#b19roexgX6" opacity="1" fill="#ffd7d7" fill-opacity="1"></use></g><g><g><filter id="shadow14240032" x="238.01" y="284.68" width="23.99" height="26.94" filterUnits="userSpaceOnUse" primitiveUnits="userSpaceOnUse"><feFlood></feFlood><feComposite in2="SourceAlpha" operator="in"></feComposite><feGaussianBlur stdDeviation="1"></feGaussianBlur><feOffset dx="0" dy="0" result="afterOffset"></feOffset><feFlood flood-color="#000000" flood-opacity="0.5"></feFlood><feComposite in2="afterOffset" operator="in"></feComposite><feMorphology operator="dilate" radius="0"></feMorphology><feComposite in2="SourceAlpha" operator="out"></feComposite></filter><path d="M245.01 298.16C245.01 301.73 247.25 304.63 250.01 304.63C252.76 304.63 255 301.73 255 298.16C255 294.58 252.76 291.68 250.01 291.68C247.25 291.68 245.01 294.58 245.01 298.16Z" id="a2Hjpan7hy" fill="white" fill-opacity="1" filter="url(#shadow14240032)"></path></g><use xlink:href="#dcHSccG5m" opacity="1" fill="#ffd7d7" fill-opacity="1"></use></g><g><g><filter id="shadow11455941" x="334.02" y="248.68" width="69.78" height="85.75" filterUnits="userSpaceOnUse" primitiveUnits="userSpaceOnUse"><feFlood></feFlood><feComposite in2="SourceAlpha" operator="in"></feComposite><feGaussianBlur stdDeviation="1"></feGaussianBlur><feOffset dx="0" dy="0" result="afterOffset"></feOffset><feFlood flood-color="#000000" flood-opacity="0.5"></feFlood><feComposite in2="afterOffset" operator="in"></feComposite><feMorphology operator="dilate" radius="0"></feMorphology><feComposite in2="SourceAlpha" operator="out"></feComposite></filter><path d="M396.8 291.56C396.8 311.36 384.3 327.44 368.91 327.44C353.52 327.44 341.02 311.36 341.02 291.56C341.02 271.76 353.52 255.68 368.91 255.68C384.3 255.68 396.8 271.76 396.8 291.56Z" id="a9l1pqOe4" fill="white" fill-opacity="1" filter="url(#shadow11455941)"></path></g><use xlink:href="#d9NHrYExnM" opacity="1" fill="#ffd7d7" fill-opacity="1"></use></g><g><g><filter id="shadow2299896" x="351.25" y="270.72" width="51.69" height="58.07" filterUnits="userSpaceOnUse" primitiveUnits="userSpaceOnUse"><feFlood></feFlood><feComposite in2="SourceAlpha" operator="in"></feComposite><feGaussianBlur stdDeviation="1"></feGaussianBlur><feOffset dx="0" dy="0" result="afterOffset"></feOffset><feFlood flood-color="#000000" flood-opacity="0.5"></feFlood><feComposite in2="afterOffset" operator="in"></feComposite><feMorphology operator="dilate" radius="0"></feMorphology><feComposite in2="SourceAlpha" operator="out"></feComposite></filter><path d="M395.94 299.75C395.94 311.92 387.49 321.79 377.09 321.79C366.69 321.79 358.25 311.92 358.25 299.75C358.25 287.59 366.69 277.72 377.09 277.72C387.49 277.72 395.94 287.59 395.94 299.75Z" id="b2QdPCBSi4" fill="white" fill-opacity="1" filter="url(#shadow2299896)"></path></g><use xlink:href="#bjC4BWs2f" opacity="1" fill="#ffd7d7" fill-opacity="1"></use></g><g><g><filter id="shadow1186715" x="353.07" y="253.79" width="30.91" height="37.59" filterUnits="userSpaceOnUse" primitiveUnits="userSpaceOnUse"><feFlood></feFlood><feComposite in2="SourceAlpha" operator="in"></feComposite><feGaussianBlur stdDeviation="1"></feGaussianBlur><feOffset dx="0" dy="0" result="afterOffset"></feOffset><feFlood flood-color="#000000" flood-opacity="0.5"></feFlood><feComposite in2="afterOffset" operator="in"></feComposite><feMorphology operator="dilate" radius="0"></feMorphology><feComposite in2="SourceAlpha" operator="out"></feComposite></filter><path d="M376.99 272.58C376.99 279.09 373.2 284.38 368.53 284.38C363.86 284.38 360.07 279.09 360.07 272.58C360.07 266.07 363.86 260.79 368.53 260.79C373.2 260.79 376.99 266.07 376.99 272.58Z" id="b1HkFexhNg" fill="white" fill-opacity="1" filter="url(#shadow1186715)"></path></g><use xlink:href="#e4H7VTvBGI" opacity="1" fill="#ffd7d7" fill-opacity="1"></use></g><g><g><filter id="shadow14597737" x="369.99" y="261.24" width="27.72" height="30.14" filterUnits="userSpaceOnUse" primitiveUnits="userSpaceOnUse"><feFlood></feFlood><feComposite in2="SourceAlpha" operator="in"></feComposite><feGaussianBlur stdDeviation="1"></feGaussianBlur><feOffset dx="0" dy="0" result="afterOffset"></feOffset><feFlood flood-color="#000000" flood-opacity="0.5"></feFlood><feComposite in2="afterOffset" operator="in"></feComposite><feMorphology operator="dilate" radius="0"></feMorphology><feComposite in2="SourceAlpha" operator="out"></feComposite></filter><path d="M390.71 276.31C390.71 280.76 387.63 284.38 383.85 284.38C380.06 284.38 376.99 280.76 376.99 276.31C376.99 271.86 380.06 268.24 383.85 268.24C387.63 268.24 390.71 271.86 390.71 276.31Z" id="a22GcZ16Y" fill="white" fill-opacity="1" filter="url(#shadow14597737)"></path></g><use xlink:href="#a1hNaJaOKT" opacity="1" fill="#ffd7d7" fill-opacity="1"></use></g><g><g><filter id="shadow11084749" x="382.08" y="270.72" width="27.72" height="30.14" filterUnits="userSpaceOnUse" primitiveUnits="userSpaceOnUse"><feFlood></feFlood><feComposite in2="SourceAlpha" operator="in"></feComposite><feGaussianBlur stdDeviation="1"></feGaussianBlur><feOffset dx="0" dy="0" result="afterOffset"></feOffset><feFlood flood-color="#000000" flood-opacity="0.5"></feFlood><feComposite in2="afterOffset" operator="in"></feComposite><feMorphology operator="dilate" radius="0"></feMorphology><feComposite in2="SourceAlpha" operator="out"></feComposite></filter><path d="M402.8 285.79C402.8 290.24 399.72 293.85 395.94 293.85C392.15 293.85 389.08 290.24 389.08 285.79C389.08 281.33 392.15 277.72 395.94 277.72C399.72 277.72 402.8 281.33 402.8 285.79Z" id="fxCYkdUc6" fill="white" fill-opacity="1" filter="url(#shadow11084749)"></path></g><use xlink:href="#dCRWFA1KS" opacity="1" fill="#ffd7d7" fill-opacity="1"></use></g><g><g><filter id="shadow10156199" x="388.94" y="284.68" width="23.99" height="26.94" filterUnits="userSpaceOnUse" primitiveUnits="userSpaceOnUse"><feFlood></feFlood><feComposite in2="SourceAlpha" operator="in"></feComposite><feGaussianBlur stdDeviation="1"></feGaussianBlur><feOffset dx="0" dy="0" result="afterOffset"></feOffset><feFlood flood-color="#000000" flood-opacity="0.5"></feFlood><feComposite in2="afterOffset" operator="in"></feComposite><feMorphology operator="dilate" radius="0"></feMorphology><feComposite in2="SourceAlpha" operator="out"></feComposite></filter><path d="M405.93 298.16C405.93 301.73 403.69 304.63 400.93 304.63C398.18 304.63 395.94 301.73 395.94 298.16C395.94 294.58 398.18 291.68 400.93 291.68C403.69 291.68 405.93 294.58 405.93 298.16Z" id="dgGqNxlEh" fill="white" fill-opacity="1" filter="url(#shadow10156199)"></path></g><use xlink:href="#a1fzPklXGr" opacity="1" fill="#ffd7d7" fill-opacity="1"></use></g><g><g><filter id="shadow7738701" x="232.77" y="36.84" width="180.4" height="162.15" filterUnits="userSpaceOnUse" primitiveUnits="userSpaceOnUse"><feFlood></feFlood><feComposite in2="SourceAlpha" operator="in"></feComposite><feGaussianBlur stdDeviation="1"></feGaussianBlur><feOffset dx="0" dy="0" result="afterOffset"></feOffset><feFlood flood-color="#000000" flood-opacity="0.5"></feFlood><feComposite in2="afterOffset" operator="in"></feComposite><feMorphology operator="dilate" radius="0"></feMorphology><feComposite in2="SourceAlpha" operator="out"></feComposite></filter><path d="M406.17 117.91C406.17 158.79 368.89 191.98 322.97 191.98C277.05 191.98 239.77 158.79 239.77 117.91C239.77 77.03 277.05 43.84 322.97 43.84C368.89 43.84 406.17 77.03 406.17 117.91Z" id="e19dOzswoh" fill="white" fill-opacity="1" filter="url(#shadow7738701)"></path></g><use xlink:href="#bcdGufsLY" opacity="1" fill="#ffd7d7" fill-opacity="1"></use></g><g><g><filter id="shadow10528921" x="285.69" y="130.3" width="76.6" height="76.6" filterUnits="userSpaceOnUse" primitiveUnits="userSpaceOnUse"><feFlood></feFlood><feComposite in2="SourceAlpha" operator="in"></feComposite><feGaussianBlur stdDeviation="1"></feGaussianBlur><feOffset dx="0" dy="0" result="afterOffset"></feOffset><feFlood flood-color="#000000" flood-opacity="0.5"></feFlood><feComposite in2="afterOffset" operator="in"></feComposite><feMorphology operator="dilate" radius="0"></feMorphology><feComposite in2="SourceAlpha" operator="out"></feComposite></filter><path d="M355.28 168.6C355.28 185.87 341.26 199.89 323.99 199.89C306.71 199.89 292.69 185.87 292.69 168.6C292.69 151.32 306.71 137.3 323.99 137.3C341.26 137.3 355.28 151.32 355.28 168.6Z" id="a1mOU8rn6g" fill="white" fill-opacity="1" filter="url(#shadow10528921)"></path></g><use xlink:href="#a1XZJH2eT" opacity="1" fill="#8ee5fa" fill-opacity="1"></use></g><g><g><filter id="shadow13641227" x="298.21" y="142.82" width="51.56" height="51.56" filterUnits="userSpaceOnUse" primitiveUnits="userSpaceOnUse"><feFlood></feFlood><feComposite in2="SourceAlpha" operator="in"></feComposite><feGaussianBlur stdDeviation="1"></feGaussianBlur><feOffset dx="0" dy="0" result="afterOffset"></feOffset><feFlood flood-color="#000000" flood-opacity="0.5"></feFlood><feComposite in2="afterOffset" operator="in"></feComposite><feMorphology operator="dilate" radius="0"></feMorphology><feComposite in2="SourceAlpha" operator="out"></feComposite></filter><path d="M342.77 168.6C342.77 178.96 334.35 187.38 323.99 187.38C313.62 187.38 305.21 178.96 305.21 168.6C305.21 158.23 313.62 149.82 323.99 149.82C334.35 149.82 342.77 158.23 342.77 168.6Z" id="b1IrEqi0tV" fill="white" fill-opacity="1" filter="url(#shadow13641227)"></path></g><use xlink:href="#a8iMgq0n6" opacity="1" fill="#8ee5fa" fill-opacity="1"></use></g><g><g><filter id="shadow3018628" x="269.24" y="80.07" width="57.52" height="64.23" filterUnits="userSpaceOnUse" primitiveUnits="userSpaceOnUse"><feFlood></feFlood><feComposite in2="SourceAlpha" operator="in"></feComposite><feGaussianBlur stdDeviation="1"></feGaussianBlur><feOffset dx="0" dy="0" result="afterOffset"></feOffset><feFlood flood-color="#000000" flood-opacity="0.5"></feFlood><feComposite in2="afterOffset" operator="in"></feComposite><feMorphology operator="dilate" radius="0"></feMorphology><feComposite in2="SourceAlpha" operator="out"></feComposite></filter><path d="M302.83 87.25L303.98 87.47L305.12 87.76L306.22 88.13L307.29 88.57L308.33 89.09L309.33 89.67L310.29 90.31L311.21 91.02L312.09 91.78L312.92 92.61L313.72 93.49L314.47 94.42L315.18 95.41L315.84 96.44L316.45 97.52L317.02 98.64L317.54 99.8L318 101.01L318.42 102.24L318.78 103.51L319.08 104.82L319.33 106.15L319.53 107.51L319.67 108.89L319.75 110.29L319.77 111.71L319.72 113.15L319.62 114.61L319.45 116.07L319.22 117.55L318.93 119.03L318.57 120.5L318.15 121.93L317.68 123.33L317.16 124.69L316.59 126.02L315.97 127.3L315.3 128.53L314.59 129.73L313.84 130.87L313.05 131.97L312.22 133.02L311.36 134.02L310.46 134.97L309.53 135.86L308.57 136.69L307.81 137.29L307.3 137L305.93 136.25L304.5 135.54L303.01 134.86L301.48 134.21L299.89 133.61L298.26 133.04L296.59 132.53L294.9 132.06L293.23 131.66L291.57 131.31L289.93 131.02L288.31 130.8L286.72 130.63L285.16 130.51L283.64 130.46L282.15 130.46L280.7 130.51L279.3 130.62L279.25 130.63L278.99 130.12L278.47 128.95L278.01 127.75L277.59 126.52L277.23 125.24L276.93 123.94L276.67 122.61L276.48 121.25L276.34 119.87L276.26 118.47L276.24 117.05L276.29 115.61L276.39 114.15L276.56 112.69L276.79 111.21L277.08 109.73L277.44 108.26L277.86 106.82L278.33 105.43L278.85 104.06L279.42 102.74L280.04 101.46L280.71 100.22L281.41 99.03L282.17 97.88L282.96 96.78L283.79 95.73L284.65 94.74L285.55 93.79L286.48 92.9L287.44 92.06L288.43 91.29L289.44 90.57L290.48 89.92L291.53 89.32L292.61 88.8L293.7 88.34L294.81 87.94L295.93 87.62L297.07 87.37L298.21 87.19L299.36 87.09L300.51 87.07L301.67 87.12L302.83 87.25Z" id="b1K2yJ83wF" fill="white" fill-opacity="1" filter="url(#shadow3018628)"></path></g><use xlink:href="#a1YmRLHU96" opacity="1" fill="#f4f4f4" fill-opacity="1"></use></g><g><g><filter id="shadow10927502" x="297.24" y="99.54" width="27.85" height="27.86" filterUnits="userSpaceOnUse" primitiveUnits="userSpaceOnUse"><feFlood></feFlood><feComposite in2="SourceAlpha" operator="in"></feComposite><feGaussianBlur stdDeviation="1"></feGaussianBlur><feOffset dx="0" dy="0" result="afterOffset"></feOffset><feFlood flood-color="#777777" flood-opacity="0.76"></feFlood><feComposite in2="afterOffset" operator="in"></feComposite><feMorphology operator="dilate" radius="0"></feMorphology><feComposite in2="SourceAlpha" operator="out"></feComposite></filter><path d="M318.09 113.46C318.09 117.29 314.99 120.39 311.17 120.39C307.35 120.39 304.24 117.29 304.24 113.46C304.24 109.64 307.35 106.54 311.17 106.54C314.99 106.54 318.09 109.64 318.09 113.46Z" id="a68DYRQ8p5" fill="white" fill-opacity="1" filter="url(#shadow10927502)"></path></g><use xlink:href="#bOBAC1sWA" opacity="1" fill="#676767" fill-opacity="1"></use></g><g><g><filter id="shadow14811309" x="319.12" y="80.06" width="57.52" height="64.23" filterUnits="userSpaceOnUse" primitiveUnits="userSpaceOnUse"><feFlood></feFlood><feComposite in2="SourceAlpha" operator="in"></feComposite><feGaussianBlur stdDeviation="1"></feGaussianBlur><feOffset dx="0" dy="0" result="afterOffset"></feOffset><feFlood flood-color="#000000" flood-opacity="0.5"></feFlood><feComposite in2="afterOffset" operator="in"></feComposite><feMorphology operator="dilate" radius="0"></feMorphology><feComposite in2="SourceAlpha" operator="out"></feComposite></filter><path d="M348.82 87.37L349.95 87.62L351.07 87.94L352.18 88.33L353.28 88.8L354.35 89.32L355.41 89.92L356.45 90.57L357.46 91.29L358.45 92.06L359.41 92.9L360.34 93.79L361.23 94.74L362.1 95.73L362.93 96.78L363.72 97.88L364.47 99.03L365.18 100.22L365.85 101.46L366.47 102.74L367.04 104.06L367.56 105.42L368.03 106.82L368.44 108.26L368.8 109.73L369.1 111.21L369.33 112.68L369.5 114.15L369.6 115.6L369.64 117.04L369.62 118.47L369.54 119.87L369.41 121.25L369.21 122.61L368.96 123.94L368.65 125.24L368.29 126.51L367.88 127.75L367.41 128.95L366.9 130.12L366.64 130.63L366.59 130.62L365.19 130.51L363.74 130.46L362.25 130.46L360.72 130.51L359.16 130.63L357.57 130.8L355.96 131.02L354.32 131.31L352.66 131.65L350.98 132.06L349.29 132.52L347.62 133.04L345.99 133.61L344.41 134.21L342.87 134.85L341.39 135.54L339.96 136.25L338.58 137L338.08 137.29L337.32 136.69L336.36 135.86L335.43 134.97L334.53 134.02L333.66 133.02L332.83 131.97L332.04 130.87L331.29 129.73L330.58 128.53L329.92 127.3L329.3 126.01L328.73 124.69L328.2 123.33L327.73 121.93L327.32 120.5L326.96 119.03L326.66 117.55L326.43 116.07L326.27 114.61L326.16 113.15L326.12 111.71L326.14 110.29L326.22 108.89L326.36 107.5L326.55 106.15L326.8 104.82L327.11 103.51L327.47 102.24L327.88 101L328.35 99.8L328.87 98.64L329.43 97.52L330.04 96.44L330.71 95.41L331.41 94.42L332.16 93.49L332.96 92.61L333.8 91.78L334.68 91.02L335.6 90.31L336.56 89.66L337.56 89.08L338.59 88.57L339.66 88.13L340.77 87.76L341.9 87.47L343.06 87.25L344.22 87.12L345.37 87.06L346.53 87.09L347.68 87.19L347.68 87.19L348.82 87.37Z" id="j6lBVr4aHV" fill="white" fill-opacity="1" filter="url(#shadow14811309)"></path></g><use xlink:href="#a28gg1qKcY" opacity="1" fill="#f4f4f4" fill-opacity="1"></use></g><g><g><filter id="shadow13461547" x="339.23" y="98.25" width="27.85" height="27.86" filterUnits="userSpaceOnUse" primitiveUnits="userSpaceOnUse"><feFlood></feFlood><feComposite in2="SourceAlpha" operator="in"></feComposite><feGaussianBlur stdDeviation="1"></feGaussianBlur><feOffset dx="0" dy="0" result="afterOffset"></feOffset><feFlood flood-color="#777777" flood-opacity="0.76"></feFlood><feComposite in2="afterOffset" operator="in"></feComposite><feMorphology operator="dilate" radius="0"></feMorphology><feComposite in2="SourceAlpha" operator="out"></feComposite></filter><path d="M346.23 112.18C346.23 116 349.33 119.11 353.15 119.11C356.97 119.11 360.07 116 360.07 112.18C360.07 108.36 356.97 105.25 353.15 105.25C349.33 105.25 346.23 108.36 346.23 112.18Z" id="b1uogUCgZq" fill="white" fill-opacity="1" filter="url(#shadow13461547)"></path></g><use xlink:href="#a1QWDS7SYd" opacity="1" fill="#676767" fill-opacity="1"></use></g><g><g><filter id="shadow2348178" x="306.62" y="153.88" width="36.22" height="29.53" filterUnits="userSpaceOnUse" primitiveUnits="userSpaceOnUse"><feFlood></feFlood><feComposite in2="SourceAlpha" operator="in"></feComposite><feGaussianBlur stdDeviation="1"></feGaussianBlur><feOffset dx="0" dy="0" result="afterOffset"></feOffset><feFlood flood-color="#000000" flood-opacity="0.5"></feFlood><feComposite in2="afterOffset" operator="in"></feComposite><feMorphology operator="dilate" radius="0"></feMorphology><feComposite in2="SourceAlpha" operator="out"></feComposite></filter><path d="M330.28 160.88C333.35 160.88 335.84 162.97 335.84 165.54C335.84 172.68 324.73 176.21 324.73 176.41C324.73 176.41 324.73 176.41 324.73 176.41C324.73 176.21 313.62 172.68 313.62 165.54C313.62 162.97 316.1 160.88 319.17 160.88C322.24 160.88 324.73 162.71 324.73 165.29C324.73 162.71 327.21 160.88 330.28 160.88Z" id="e2mmnIK3L0" fill="white" fill-opacity="1" filter="url(#shadow2348178)"></path></g><use xlink:href="#a2O84271gH" opacity="1" fill="#757fda" fill-opacity="1"></use></g></g></g></svg>