<?xml version="1.0" encoding="UTF-8" standalone="no"?>
<!DOCTYPE svg PUBLIC "-//W3C//DTD SVG 1.1//EN" "http://www.w3.org/Graphics/SVG/1.1/DTD/svg11.dtd">
<svg version="1.1" xmlns="http://www.w3.org/2000/svg" xmlns:xlink="http://www.w3.org/1999/xlink" preserveAspectRatio="xMidYMid meet" viewBox="0 0 640 380" width="640" height="380"><defs><path d="M305.16 203.12C305.16 203.12 305.16 203.12 305.16 203.12C305.16 183.3 320.83 167.2 340.13 167.2C340.13 167.2 595.24 167.2 595.24 167.2C614.55 167.2 630.21 183.3 630.21 203.12C630.21 203.12 630.21 203.12 630.21 203.12C630.21 222.95 614.55 239.05 595.24 239.05C595.24 239.05 340.13 239.05 340.13 239.05C320.83 239.05 305.16 222.95 305.16 203.12Z" id="a7s63bbBt"></path><path d="M30.21 117.23C30.21 117.23 30.21 117.23 30.21 117.23C30.21 83.18 56.73 55.55 89.38 55.55C89.38 55.55 520.94 55.55 520.94 55.55C553.59 55.55 580.11 83.18 580.11 117.23C580.11 117.23 580.11 117.23 580.11 117.23C580.11 151.27 553.59 178.9 520.94 178.9C520.94 178.9 89.38 178.9 89.38 178.9C56.73 178.9 30.21 151.27 30.21 117.23Z" id="anNzg3HMO"></path><path d="M110.39 277.81C110.39 277.81 110.39 277.81 110.39 277.81C110.39 253.14 129.17 233.1 152.3 233.1C152.3 233.1 458.02 233.1 458.02 233.1C481.15 233.1 499.93 253.14 499.93 277.81C499.93 277.81 499.93 277.81 499.93 277.81C499.93 302.48 481.15 322.51 458.02 322.51C458.02 322.51 152.3 322.51 152.3 322.51C129.17 322.51 110.39 302.48 110.39 277.81Z" id="dkDTI4hrU"></path><path d="M322.13 364.29C231.37 364.29 157.68 285.62 157.68 188.72C157.68 91.82 231.37 13.15 322.13 13.15C412.9 13.15 486.58 91.82 486.58 188.72C486.58 285.62 412.9 364.29 322.13 364.29Z" id="b1PgCc8Tv6"></path><path d="M322.13 364.29C231.37 364.29 157.68 285.62 157.68 188.72C157.68 91.82 231.37 13.15 322.13 13.15C412.9 13.15 486.58 91.82 486.58 188.72C486.58 285.62 412.9 364.29 322.13 364.29Z" id="a6HKvYnohG"></path><path d="" id="aOivAfJl9"></path><path d="M395.7 80.26L396.09 80.29L396.46 80.33L396.84 80.38L397.21 80.45L397.57 80.53L397.93 80.63L398.28 80.73L398.63 80.86L398.97 80.99L399.3 81.14L399.63 81.3L399.94 81.48L400.26 81.66L400.56 81.86L400.85 82.07L401.14 82.28L401.42 82.51L401.69 82.75L401.95 83L402.2 83.26L402.44 83.53L402.67 83.81L402.88 84.1L403.09 84.39L403.29 84.69L403.47 85L403.65 85.32L403.81 85.65L403.96 85.98L404.09 86.32L404.21 86.67L404.32 87.02L404.42 87.38L404.5 87.74L404.57 88.11L404.62 88.48L404.66 88.86L404.68 89.25L404.69 89.63L404.69 91.16L404.69 92.79L404.69 94.52L404.69 96.34L404.69 98.26L404.69 100.26L404.69 102.34L404.69 104.49L404.69 106.7L404.69 108.98L404.69 111.32L404.69 113.7L404.69 116.13L404.69 118.6L404.69 121.1L404.69 123.63L404.69 126.19L404.69 128.76L404.69 131.34L404.69 133.92L404.69 136.51L404.69 139.09L404.69 141.66L404.69 144.21L404.69 146.74L404.69 149.25L404.69 151.71L404.69 154.14L404.69 156.53L404.69 158.86L404.69 161.14L404.69 163.36L404.69 165.51L404.69 167.59L404.69 169.59L404.69 171.5L404.69 173.33L404.69 175.06L404.69 176.69L404.69 178.22L404.68 178.6L404.66 178.98L404.62 179.36L404.57 179.74L404.5 180.1L404.42 180.47L404.32 180.83L404.21 181.18L404.09 181.52L403.96 181.86L403.81 182.2L403.65 182.52L403.47 182.84L403.29 183.15L403.09 183.46L402.88 183.75L402.67 184.04L402.44 184.32L402.2 184.58L401.95 184.84L401.69 185.09L401.42 185.33L401.14 185.56L400.85 185.78L400.56 185.99L400.26 186.19L399.94 186.37L399.63 186.54L399.3 186.7L398.97 186.85L398.63 186.99L398.28 187.11L397.93 187.22L397.57 187.32L397.21 187.4L396.84 187.47L396.46 187.52L396.09 187.56L395.7 187.58L395.32 187.59L392.81 187.59L390.1 187.59L387.21 187.59L384.14 187.59L380.91 187.59L377.53 187.59L374 187.59L370.34 187.59L366.55 187.59L362.65 187.59L358.65 187.59L354.55 187.59L350.37 187.59L346.13 187.59L341.81 187.59L337.45 187.59L333.05 187.59L328.61 187.59L324.16 187.59L319.69 187.59L315.23 187.59L310.77 187.59L306.34 187.59L301.93 187.59L297.57 187.59L293.26 187.59L289.01 187.59L284.83 187.59L280.74 187.59L276.74 187.59L272.84 187.59L269.05 187.59L265.39 187.59L261.86 187.59L258.47 187.59L255.24 187.59L252.18 187.59L249.28 187.59L246.58 187.59L244.07 187.59L243.68 187.58L243.3 187.56L242.92 187.52L242.55 187.47L242.18 187.4L241.81 187.32L241.46 187.22L241.1 187.11L240.76 186.99L240.42 186.85L240.09 186.7L239.76 186.54L239.44 186.37L239.13 186.19L238.83 185.99L238.53 185.78L238.24 185.56L237.97 185.33L237.7 185.09L237.44 184.84L237.19 184.58L236.95 184.32L236.72 184.04L236.5 183.75L236.29 183.46L236.1 183.15L235.91 182.84L235.74 182.52L235.58 182.2L235.43 181.86L235.29 181.52L235.17 181.18L235.06 180.83L234.97 180.47L234.88 180.1L234.82 179.74L234.76 179.36L234.72 178.98L234.7 178.6L234.69 178.22L234.69 176.69L234.69 175.06L234.69 173.33L234.69 171.5L234.69 169.59L234.69 167.59L234.69 165.51L234.69 163.36L234.69 161.14L234.69 158.86L234.69 156.53L234.69 154.14L234.69 151.71L234.69 149.25L234.69 146.74L234.69 144.21L234.69 141.66L234.69 139.09L234.69 136.51L234.69 133.92L234.69 131.34L234.69 128.76L234.69 126.19L234.69 123.63L234.69 121.1L234.69 118.6L234.69 116.13L234.69 113.7L234.69 111.32L234.69 108.98L234.69 106.7L234.69 104.49L234.69 102.34L234.69 100.26L234.69 98.26L234.69 96.34L234.69 94.52L234.69 92.79L234.69 91.16L234.69 89.63L234.7 89.25L234.72 88.86L234.76 88.48L234.82 88.11L234.88 87.74L234.97 87.38L235.06 87.02L235.17 86.67L235.29 86.32L235.43 85.98L235.58 85.65L235.74 85.32L235.91 85L236.1 84.69L236.29 84.39L236.5 84.1L236.72 83.81L236.95 83.53L237.19 83.26L237.44 83L237.7 82.75L237.97 82.51L238.24 82.28L238.53 82.07L238.83 81.86L239.13 81.66L239.44 81.48L239.76 81.3L240.09 81.14L240.42 80.99L240.76 80.86L241.1 80.73L241.46 80.63L241.81 80.53L242.18 80.45L242.55 80.38L242.92 80.33L243.3 80.29L243.68 80.26L244.07 80.26L246.58 80.26L249.28 80.26L252.18 80.26L255.24 80.26L258.47 80.26L261.86 80.26L265.39 80.26L269.05 80.26L272.84 80.26L276.74 80.26L280.74 80.26L284.83 80.26L289.01 80.26L293.26 80.26L297.57 80.26L301.93 80.26L306.34 80.26L310.77 80.26L315.23 80.26L319.69 80.26L324.16 80.26L328.61 80.26L333.05 80.26L337.45 80.26L341.81 80.26L346.13 80.26L350.37 80.26L354.55 80.26L358.65 80.26L362.65 80.26L366.55 80.26L370.34 80.26L374 80.26L377.53 80.26L380.91 80.26L384.14 80.26L387.21 80.26L390.1 80.26L392.81 80.26L395.32 80.26L395.32 80.26L395.7 80.26Z" id="c8VuUXCHR"></path><mask id="maskb3e5iHR17v" x="232.69" y="78.26" width="174" height="111.33" maskUnits="userSpaceOnUse"><rect x="232.69" y="78.26" width="174" height="111.33" fill="white"></rect><use xlink:href="#c8VuUXCHR" opacity="1" fill="black"></use></mask><path d="" id="c815xCuUE"></path><path d="M246.69 89.22L391.19 89.22L391.19 147.13L246.69 147.13L246.69 89.22Z" id="e129rXh3st"></path><path d="M275.43 97.28L276.66 97.43L277.87 97.67L279.07 97.98L280.25 98.37L281.42 98.83L282.56 99.37L283.67 99.98L284.75 100.67L285.79 101.44L286.8 102.29L287.75 103.2L288.63 104.15L289.43 105.15L290.16 106.19L290.82 107.27L291.41 108.38L291.92 109.51L292.36 110.67L292.72 111.85L293.01 113.05L293.23 114.26L293.37 115.48L293.43 116.71L293.42 117.94L293.34 119.16L293.18 120.39L292.95 121.6L292.64 122.8L292.25 123.98L291.79 125.15L291.25 126.29L290.63 127.4L289.94 128.48L289.17 129.53L288.33 130.53L287.42 131.48L286.46 132.36L285.46 133.16L284.42 133.89L283.35 134.55L282.24 135.14L281.11 135.65L279.95 136.09L278.77 136.45L277.57 136.74L276.36 136.96L275.14 137.1L273.91 137.16L272.68 137.16L271.45 137.07L270.23 136.91L269.02 136.68L267.82 136.37L266.63 135.98L265.47 135.52L264.33 134.98L263.22 134.37L262.14 133.67L261.09 132.9L260.08 132.06L259.14 131.15L258.26 130.19L257.45 129.19L256.72 128.15L256.06 127.08L255.48 125.97L254.97 124.84L254.53 123.68L254.16 122.5L253.87 121.3L253.66 120.09L253.52 118.87L253.45 117.64L253.46 116.41L253.54 115.18L253.7 113.96L253.94 112.75L254.25 111.55L254.63 110.36L255.1 109.2L255.64 108.06L256.25 106.95L256.94 105.87L257.71 104.82L258.56 103.82L259.47 102.87L260.42 101.99L261.42 101.18L262.46 100.45L263.54 99.79L264.64 99.21L265.78 98.7L266.94 98.26L268.12 97.9L269.32 97.61L270.53 97.39L271.75 97.25L272.98 97.18L274.21 97.19L275.43 97.28ZM271.36 102.32L270.1 102.55L268.86 102.89L267.65 103.34L266.47 103.89L265.34 104.55L264.26 105.31L263.24 106.18L262.28 107.15L261.41 108.21L260.66 109.32L260.02 110.48L259.48 111.68L259.06 112.9L258.75 114.16L258.55 115.43L258.45 116.7L258.47 117.98L258.59 119.26L258.82 120.52L259.16 121.76L259.61 122.97L260.16 124.14L260.82 125.28L261.58 126.36L262.45 127.38L263.42 128.34L264.48 129.2L265.59 129.96L266.75 130.6L267.95 131.13L269.17 131.55L270.43 131.87L271.69 132.07L272.97 132.16L274.25 132.15L275.53 132.03L276.79 131.79L278.03 131.46L279.24 131.01L280.41 130.46L281.55 129.8L282.63 129.04L283.65 128.17L284.61 127.19L285.47 126.14L286.23 125.03L286.87 123.87L287.4 122.67L287.82 121.44L288.14 120.19L288.34 118.92L288.43 117.64L288.42 116.36L288.29 115.09L288.06 113.83L287.73 112.59L287.28 111.38L286.73 110.2L286.07 109.07L285.31 107.99L284.44 106.97L283.46 106.01L282.41 105.14L281.29 104.39L280.14 103.75L278.94 103.21L277.71 102.79L276.46 102.48L275.19 102.28L273.91 102.18L272.63 102.2L271.36 102.32Z" id="g1bJxo5q9U"></path><path d="M261.41 108.21L260.66 109.32L260.02 110.48L259.48 111.68L259.06 112.9L258.75 114.16L258.55 115.43L258.45 116.7L258.47 117.98L258.59 119.26L258.82 120.52L259.16 121.76L259.61 122.97L260.16 124.14L260.82 125.28L261.58 126.36L262.45 127.38L263.42 128.34L260.09 132.06L260.08 132.06L259.14 131.15L258.26 130.19L257.45 129.19L256.72 128.15L256.06 127.08L255.48 125.97L254.97 124.84L254.53 123.68L254.16 122.5L253.87 121.3L253.66 120.09L253.52 118.87L253.45 117.64L253.46 116.41L253.54 115.18L253.7 113.96L253.94 112.75L254.25 111.55L254.63 110.36L255.1 109.2L255.64 108.06L256.25 106.95L256.94 105.87L257.71 104.82L258.56 103.82L262.28 107.16L261.41 108.21Z" id="b28Fu4DRqx"></path><path d="M285.47 126.14L286.23 125.03L286.87 123.87L287.4 122.67L287.82 121.44L288.14 120.19L288.34 118.92L288.43 117.64L288.42 116.36L288.29 115.09L288.06 113.83L287.73 112.59L287.28 111.38L286.73 110.2L286.07 109.07L285.31 107.99L284.44 106.97L283.46 106.01L283.46 106.01L282.41 105.14L281.29 104.39L280.14 103.75L278.94 103.21L277.71 102.79L276.46 102.48L275.19 102.28L273.91 102.18L272.63 102.2L271.36 102.32L270.1 102.55L268.86 102.89L267.65 103.34L266.47 103.89L265.34 104.55L264.26 105.31L263.24 106.18L262.28 107.15L262.28 107.16L258.56 103.82L258.56 103.82L259.47 102.87L260.42 101.99L261.42 101.18L262.46 100.45L263.54 99.79L264.64 99.21L265.78 98.7L266.94 98.26L268.12 97.9L269.32 97.61L270.53 97.39L271.75 97.25L272.98 97.18L274.21 97.19L275.43 97.28L276.66 97.43L277.87 97.67L279.07 97.98L280.25 98.37L281.42 98.83L282.56 99.37L283.67 99.98L284.75 100.67L285.79 101.44L286.8 102.29L286.8 102.29L287.75 103.2L288.63 104.15L289.43 105.15L290.16 106.19L290.82 107.27L291.41 108.38L291.92 109.51L292.36 110.67L292.72 111.85L293.01 113.05L293.23 114.26L293.37 115.48L293.43 116.71L293.42 117.94L293.34 119.16L293.18 120.39L292.95 121.6L292.64 122.8L292.25 123.98L291.79 125.15L291.25 126.29L290.63 127.4L289.94 128.48L289.17 129.53L288.33 130.53L284.61 127.19L284.61 127.19L285.47 126.14Z" id="d6Aj7BiFH"></path><path d="M246.69 162.59L391.19 162.59L391.19 178.93L246.69 178.93L246.69 162.59Z" id="a1uFhBqrO4"></path><path d="M286.45 152.88C287.63 152.88 288.59 153.84 288.59 155.02C288.59 155.69 288.59 155.56 288.59 156.24C288.59 157.42 287.63 158.38 286.45 158.38C282.74 158.38 273.79 158.38 270.09 158.38C268.9 158.38 267.94 157.42 267.94 156.24C267.94 155.56 267.94 155.69 267.94 155.02C267.94 153.84 268.9 152.88 270.09 152.88C273.79 152.88 282.74 152.88 286.45 152.88Z" id="a190co51fu"></path><path d="M382.05 152.88C383.23 152.88 384.19 153.84 384.19 155.02C384.19 155.69 384.19 155.56 384.19 156.24C384.19 157.42 383.23 158.38 382.05 158.38C378.35 158.38 369.39 158.38 365.69 158.38C364.51 158.38 363.55 157.42 363.55 156.24C363.55 155.56 363.55 155.69 363.55 155.02C363.55 153.84 364.51 152.88 365.69 152.88C369.39 152.88 378.35 152.88 382.05 152.88Z" id="c8vjYjIODB"></path><path d="M286.45 168.01C287.63 168.01 288.59 168.97 288.59 170.15C288.59 170.82 288.59 170.7 288.59 171.37C288.59 172.55 287.63 173.51 286.45 173.51C282.74 173.51 273.79 173.51 270.09 173.51C268.9 173.51 267.94 172.55 267.94 171.37C267.94 170.7 267.94 170.82 267.94 170.15C267.94 168.97 268.9 168.01 270.09 168.01C273.79 168.01 282.74 168.01 286.45 168.01Z" id="bkSCJ1niN"></path><path d="M382.05 168.01C383.23 168.01 384.19 168.97 384.19 170.15C384.19 170.82 384.19 170.7 384.19 171.37C384.19 172.55 383.23 173.51 382.05 173.51C378.35 173.51 369.39 173.51 365.69 173.51C364.51 173.51 363.55 172.55 363.55 171.37C363.55 170.7 363.55 170.82 363.55 170.15C363.55 168.97 364.51 168.01 365.69 168.01C369.39 168.01 378.35 168.01 382.05 168.01Z" id="a4ujdQ8kmS"></path><path d="M251.94 167.51L258.39 167.51L258.39 174.01L251.94 174.01L251.94 167.51Z" id="cLdFQl822"></path><path d="M251.94 152.84L258.39 152.84L258.39 159.34L251.94 159.34L251.94 152.84Z" id="i4QG4lt4p"></path><path d="M300.69 125.84L327.19 125.84L327.19 137.17L300.69 137.17L300.69 125.84Z" id="doGXDhBgA"></path><path d="M329.19 97.17L355.69 97.17L355.69 137.17L329.19 137.17L329.19 97.17Z" id="a3Bkn2pfwX"></path><path d="M357.69 125.84L384.19 125.84L384.19 137.17L357.69 137.17L357.69 125.84Z" id="aOBZtrHg9"></path><path d="M396.46 80.33L396.84 80.38L397.21 80.45L397.57 80.53L397.93 80.63L398.28 80.73L398.63 80.86L398.97 80.99L399.3 81.14L399.63 81.3L399.94 81.48L400.26 81.66L400.56 81.86L400.85 82.07L401.14 82.28L401.42 82.51L401.69 82.75L401.95 83L402.2 83.26L402.44 83.53L402.67 83.81L402.88 84.1L403.09 84.39L403.29 84.69L403.47 85L403.65 85.32L403.81 85.65L403.96 85.98L404.09 86.32L404.21 86.67L404.32 87.02L404.42 87.38L404.5 87.74L404.57 88.11L404.62 88.48L404.66 88.86L404.68 89.25L404.69 89.63L404.69 178.22L404.68 178.6L404.66 178.98L404.62 179.36L404.57 179.74L404.5 180.1L404.42 180.47L404.32 180.83L404.21 181.18L404.09 181.52L403.96 181.86L403.81 182.2L403.65 182.52L403.47 182.84L403.29 183.15L403.09 183.46L402.88 183.75L402.67 184.04L402.44 184.32L402.2 184.58L401.95 184.84L401.69 185.09L401.42 185.33L401.14 185.56L400.85 185.78L400.56 185.99L400.26 186.19L399.94 186.37L399.63 186.54L399.3 186.7L398.97 186.85L398.63 186.99L398.28 187.11L397.93 187.22L397.57 187.32L397.21 187.4L396.84 187.47L396.46 187.52L396.09 187.56L395.7 187.58L395.32 187.59L301.85 187.59L351.99 80.26L395.32 80.26L395.7 80.26L396.09 80.29L396.09 80.29L396.46 80.33Z" id="caTLg9LvL"></path><path d="M404.69 194.37L404.68 194.56L404.66 194.75L404.63 194.93L404.6 195.12L404.56 195.3L404.51 195.48L404.46 195.65L404.39 195.82L404.33 195.99L404.25 196.16L404.17 196.32L404.09 196.48L403.99 196.63L403.9 196.78L403.79 196.93L403.69 197.07L403.57 197.21L403.45 197.34L403.33 197.47L403.2 197.6L403.07 197.72L402.93 197.83L402.79 197.94L402.64 198.04L402.49 198.14L402.33 198.23L402.17 198.32L402.01 198.4L401.85 198.47L401.68 198.54L401.51 198.6L401.33 198.65L401.15 198.7L400.97 198.74L400.79 198.78L400.6 198.8L400.42 198.82L400.23 198.83L400.03 198.84L239.35 198.84L239.16 198.83L238.97 198.82L238.78 198.8L238.6 198.78L238.41 198.74L238.23 198.7L238.05 198.65L237.88 198.6L237.71 198.54L237.54 198.47L237.37 198.4L237.21 198.32L237.05 198.23L236.9 198.14L236.75 198.04L236.6 197.94L236.46 197.83L236.32 197.72L236.19 197.6L236.06 197.47L235.93 197.34L235.81 197.21L235.7 197.07L235.59 196.93L235.49 196.78L235.39 196.63L235.3 196.48L235.21 196.32L235.13 196.16L235.06 195.99L234.99 195.82L234.93 195.65L234.88 195.48L234.83 195.3L234.79 195.12L234.75 194.93L234.73 194.75L234.71 194.56L234.7 194.37L234.69 194.18L234.69 189.09L404.69 189.09L404.69 194.18L404.69 194.37Z" id="hBIWZPclj"></path><mask id="maskai6WytYt1" x="232.69" y="187.09" width="174" height="13.75" maskUnits="userSpaceOnUse"><rect x="232.69" y="187.09" width="174" height="13.75" fill="white"></rect><use xlink:href="#hBIWZPclj" opacity="1" fill="black"></use></mask><path d="M338.48 189.69L338.1 190.23L337.69 190.74L337.25 191.22L336.77 191.66L336.26 192.08L335.72 192.45L335.16 192.79L334.57 193.09L333.96 193.35L333.32 193.57L332.67 193.74L332 193.86L331.32 193.94L330.62 193.96L308.77 193.96L308.07 193.94L307.38 193.86L306.71 193.74L306.06 193.57L305.43 193.35L304.82 193.09L304.23 192.79L303.66 192.45L303.13 192.08L302.62 191.66L302.14 191.22L301.69 190.74L301.28 190.23L300.9 189.69L300.57 189.13L300.54 189.09L338.84 189.09L338.82 189.13L338.48 189.69Z" id="a8PRT8ES"></path><path d="M406.32 208.95L406.61 208.96L406.9 208.99L407.19 209.03L407.47 209.09L407.75 209.15L408.02 209.22L408.29 209.31L408.55 209.4L408.81 209.5L409.07 209.62L409.32 209.74L409.56 209.87L409.8 210.02L410.03 210.17L410.26 210.32L410.48 210.49L410.69 210.67L410.89 210.85L411.09 211.04L411.28 211.24L411.47 211.44L411.64 211.66L411.81 211.88L411.97 212.1L412.12 212.33L412.26 212.57L412.39 212.82L412.52 213.06L412.63 213.32L412.73 213.58L412.83 213.84L412.91 214.11L412.98 214.39L413.05 214.67L413.1 214.95L413.14 215.23L413.17 215.52L413.19 215.81L413.19 216.11L413.19 217.28L413.19 218.52L413.19 219.85L413.19 221.24L413.19 222.71L413.19 224.24L413.19 225.83L413.19 227.47L413.19 229.17L413.19 230.91L413.19 232.69L413.19 234.52L413.19 236.38L413.19 238.26L413.19 240.18L413.19 242.11L413.19 244.06L413.19 246.03L413.19 248L413.19 249.98L413.19 251.96L413.19 253.93L413.19 255.9L413.19 257.85L413.19 259.78L413.19 261.7L413.19 263.59L413.19 265.44L413.19 267.27L413.19 269.05L413.19 270.8L413.19 272.49L413.19 274.14L413.19 275.73L413.19 277.25L413.19 278.72L413.19 280.12L413.19 281.44L413.19 282.69L413.19 283.85L413.19 284.15L413.17 284.44L413.14 284.73L413.1 285.01L413.05 285.3L412.98 285.57L412.91 285.85L412.83 286.12L412.73 286.38L412.63 286.64L412.52 286.9L412.39 287.15L412.26 287.39L412.12 287.63L411.97 287.86L411.81 288.09L411.64 288.31L411.47 288.52L411.28 288.72L411.09 288.92L410.89 289.11L410.69 289.3L410.48 289.47L410.26 289.64L410.03 289.8L409.8 289.95L409.56 290.09L409.32 290.22L409.07 290.34L408.81 290.46L408.55 290.56L408.29 290.66L408.02 290.74L407.75 290.81L407.47 290.88L407.19 290.93L406.9 290.97L406.61 291L406.32 291.02L406.02 291.02L404.1 291.02L402.03 291.02L399.82 291.02L397.48 291.02L395.01 291.02L392.42 291.02L389.72 291.02L386.92 291.02L384.02 291.02L381.04 291.02L377.98 291.02L374.85 291.02L371.66 291.02L368.41 291.02L365.11 291.02L361.77 291.02L358.41 291.02L355.01 291.02L351.61 291.02L348.19 291.02L344.78 291.02L341.37 291.02L337.98 291.02L334.61 291.02L331.28 291.02L327.98 291.02L324.73 291.02L321.54 291.02L318.4 291.02L315.34 291.02L312.36 291.02L309.47 291.02L306.66 291.02L303.97 291.02L301.38 291.02L298.91 291.02L296.56 291.02L294.35 291.02L292.28 291.02L290.36 291.02L290.07 291.02L289.77 291L289.48 290.97L289.2 290.93L288.92 290.88L288.64 290.81L288.37 290.74L288.1 290.66L287.83 290.56L287.57 290.46L287.32 290.34L287.07 290.22L286.82 290.09L286.59 289.95L286.35 289.8L286.13 289.64L285.91 289.47L285.7 289.3L285.49 289.11L285.29 288.92L285.1 288.72L284.92 288.52L284.74 288.31L284.58 288.09L284.42 287.86L284.27 287.63L284.13 287.39L283.99 287.15L283.87 286.9L283.76 286.64L283.65 286.38L283.56 286.12L283.47 285.85L283.4 285.57L283.34 285.3L283.29 285.01L283.25 284.73L283.22 284.44L283.2 284.15L283.19 283.85L283.19 282.69L283.19 281.44L283.19 280.12L283.19 278.72L283.19 277.25L283.19 275.73L283.19 274.14L283.19 272.49L283.19 270.8L283.19 269.05L283.19 267.27L283.19 265.44L283.19 263.59L283.19 261.7L283.19 259.78L283.19 257.85L283.19 255.9L283.19 253.93L283.19 251.96L283.19 249.98L283.19 248L283.19 246.03L283.19 244.06L283.19 242.11L283.19 240.18L283.19 238.26L283.19 236.38L283.19 234.52L283.19 232.69L283.19 230.91L283.19 229.17L283.19 227.47L283.19 225.83L283.19 224.24L283.19 222.71L283.19 221.24L283.19 219.85L283.19 218.52L283.19 217.28L283.19 216.11L283.2 215.81L283.22 215.52L283.25 215.23L283.29 214.95L283.34 214.67L283.4 214.39L283.47 214.11L283.56 213.84L283.65 213.58L283.76 213.32L283.87 213.06L283.99 212.82L284.13 212.57L284.27 212.33L284.42 212.1L284.58 211.88L284.74 211.66L284.92 211.44L285.1 211.24L285.29 211.04L285.49 210.85L285.7 210.67L285.91 210.49L286.13 210.32L286.35 210.17L286.59 210.02L286.82 209.87L287.07 209.74L287.32 209.62L287.57 209.5L287.83 209.4L288.1 209.31L288.37 209.22L288.64 209.15L288.92 209.09L289.2 209.03L289.48 208.99L289.77 208.96L290.07 208.95L290.36 208.94L292.28 208.94L294.35 208.94L296.56 208.94L298.91 208.94L301.38 208.94L303.97 208.94L306.66 208.94L309.47 208.94L312.36 208.94L315.34 208.94L318.4 208.94L321.54 208.94L324.73 208.94L327.98 208.94L331.28 208.94L334.61 208.94L337.98 208.94L341.37 208.94L344.78 208.94L348.19 208.94L351.61 208.94L355.01 208.94L358.41 208.94L361.77 208.94L365.11 208.94L368.41 208.94L371.66 208.94L374.85 208.94L377.98 208.94L381.04 208.94L384.02 208.94L386.92 208.94L389.72 208.94L392.42 208.94L395.01 208.94L397.48 208.94L399.82 208.94L402.03 208.94L404.1 208.94L406.02 208.94L406.02 208.94L406.32 208.95Z" id="a1qjXRfWst"></path><mask id="maskc1eLU0Ec6T" x="281.19" y="206.94" width="134" height="86.08" maskUnits="userSpaceOnUse"><rect x="281.19" y="206.94" width="134" height="86.08" fill="white"></rect><use xlink:href="#a1qjXRfWst" opacity="1" fill="black"></use></mask><path d="M291.41 214.85L333.47 214.85L333.47 284.97L291.41 284.97L291.41 214.85Z" id="b1fiuOLQr1"></path><path d="M314.58 222.05L315.8 222.28L317 222.61L318.18 223.04L319.33 223.58L320.44 224.21L321.51 224.95L322.53 225.79L323.48 226.71L324.32 227.7L325.07 228.73L325.73 229.82L326.29 230.94L326.75 232.11L327.11 233.29L327.37 234.5L327.54 235.73L327.61 236.96L327.57 238.2L327.44 239.43L327.21 240.65L326.88 241.86L326.44 243.04L325.91 244.19L325.27 245.3L324.54 246.37L323.7 247.39L322.78 248.33L321.79 249.18L320.76 249.93L319.67 250.59L318.54 251.14L317.38 251.6L316.19 251.97L314.98 252.23L313.76 252.4L312.52 252.46L311.29 252.43L310.06 252.3L308.83 252.07L307.63 251.73L306.45 251.3L305.3 250.77L304.19 250.13L303.12 249.39L302.1 248.55L301.16 247.63L300.31 246.65L299.56 245.61L298.9 244.53L298.35 243.4L297.88 242.24L297.52 241.05L297.26 239.84L297.09 238.61L297.03 237.38L297.06 236.14L297.19 234.91L297.42 233.69L297.76 232.49L298.19 231.31L298.72 230.16L299.36 229.04L300.09 227.98L300.93 226.96L301.86 226.01L302.84 225.16L303.88 224.41L304.96 223.76L306.09 223.2L307.25 222.74L308.44 222.38L309.65 222.11L310.87 221.95L312.11 221.88L313.34 221.91L314.58 222.05ZM309.21 226.13L308.02 226.54L306.86 227.08L305.76 227.76L304.73 228.57L303.78 229.51L302.94 230.56L302.25 231.67L301.69 232.84L301.28 234.04L301 235.28L300.86 236.53L300.86 237.79L301 239.04L301.27 240.27L301.68 241.47L302.22 242.63L302.9 243.73L303.71 244.76L304.65 245.71L305.7 246.54L306.81 247.24L307.98 247.79L309.19 248.21L310.42 248.49L311.68 248.62L312.93 248.62L314.19 248.49L315.42 248.22L316.62 247.81L317.77 247.26L318.87 246.59L319.9 245.78L320.85 244.83L321.69 243.79L322.38 242.67L322.94 241.51L323.35 240.3L323.63 239.06L323.77 237.81L323.77 236.55L323.63 235.3L323.36 234.07L322.95 232.87L322.41 231.72L321.73 230.62L320.92 229.59L319.98 228.64L318.93 227.8L317.82 227.1L316.65 226.55L315.45 226.14L314.21 225.86L312.96 225.72L311.7 225.72L310.45 225.86L309.21 226.13Z" id="a3voiTEp1p"></path><path d="M302.94 230.56L302.25 231.67L301.69 232.84L301.28 234.04L301 235.28L300.86 236.53L300.86 237.79L301 239.04L301.27 240.27L301.68 241.47L302.22 242.63L302.9 243.73L303.71 244.76L304.66 245.71L302.1 248.55L301.16 247.63L300.31 246.65L299.56 245.61L298.9 244.53L298.35 243.4L297.88 242.24L297.52 241.05L297.26 239.84L297.09 238.61L297.03 237.38L297.06 236.14L297.19 234.91L297.42 233.69L297.76 232.49L298.19 231.31L298.72 230.16L299.36 229.04L300.09 227.98L300.93 226.96L303.78 229.51L302.94 230.56Z" id="ilBl7lDP7"></path><path d="M316.65 226.55L315.45 226.14L314.21 225.86L312.96 225.72L311.7 225.72L310.45 225.86L309.21 226.13L308.02 226.54L306.86 227.08L305.76 227.76L304.73 228.57L303.78 229.51L303.78 229.51L300.93 226.96L300.93 226.96L301.86 226.01L302.84 225.16L303.88 224.41L304.96 223.76L306.09 223.2L307.25 222.74L308.44 222.38L309.65 222.11L310.87 221.95L312.11 221.88L313.34 221.91L314.58 222.05L315.8 222.28L317 222.61L318.18 223.04L319.33 223.58L320.44 224.21L321.51 224.95L322.53 225.79L322.53 225.79L323.48 226.71L324.32 227.7L325.07 228.73L325.73 229.82L326.29 230.94L326.75 232.11L327.11 233.29L327.37 234.5L327.54 235.73L327.61 236.96L327.57 238.2L327.44 239.43L327.21 240.65L326.88 241.86L326.44 243.04L325.91 244.19L325.27 245.3L324.54 246.37L323.7 247.39L320.85 244.83L320.85 244.83L321.69 243.79L322.38 242.67L322.94 241.51L323.35 240.3L323.63 239.06L323.77 237.81L323.77 236.55L323.63 235.3L323.36 234.07L322.95 232.87L322.41 231.72L321.73 230.62L320.92 229.59L319.98 228.64L319.98 228.64L318.93 227.8L317.82 227.1L316.65 226.55Z" id="aPeSCch6"></path><path d="M297.56 273.19L306.3 273.19L306.3 278.72L297.56 278.72L297.56 273.19Z" id="b1xxIthyRK"></path><path d="M306.96 259.22L315.69 259.22L315.69 278.72L306.96 278.72L306.96 259.22Z" id="a1dGgV0YiE"></path><path d="M316.35 273.19L325.09 273.19L325.09 278.72L316.35 278.72L316.35 273.19Z" id="ihOg15AqO"></path><path d="M340.35 276.3L399.62 276.3L399.62 284.97L340.35 284.97L340.35 276.3Z" id="b6P5720zt"></path><path d="M368.35 278.53C369.25 278.53 369.99 279.27 369.99 280.17C369.99 280.69 369.99 280.59 369.99 281.1C369.99 282.01 369.25 282.74 368.35 282.74C365.52 282.74 358.67 282.74 355.84 282.74C354.93 282.74 354.2 282.01 354.2 281.1C354.2 280.59 354.2 280.69 354.2 280.17C354.2 279.27 354.93 278.53 355.84 278.53C358.67 278.53 365.52 278.53 368.35 278.53Z" id="ajN0dYfFW"></path><path d="M393.89 278.53C394.79 278.53 395.52 279.27 395.52 280.17C395.52 280.69 395.52 280.59 395.52 281.1C395.52 282.01 394.79 282.74 393.89 282.74C391.06 282.74 384.21 282.74 381.38 282.74C380.47 282.74 379.74 282.01 379.74 281.1C379.74 280.59 379.74 280.69 379.74 280.17C379.74 279.27 380.47 278.53 381.38 278.53C384.21 278.53 391.06 278.53 393.89 278.53Z" id="bDWEZ20j0"></path><path d="M343.26 278.15L348.19 278.15L348.19 283.12L343.26 283.12L343.26 278.15Z" id="a17F5XPSZ"></path><path d="M340.35 264.64L399.62 264.64L399.62 273.3L340.35 273.3L340.35 264.64Z" id="d6DqM9ef9y"></path><path d="M368.35 266.87C369.25 266.87 369.99 267.61 369.99 268.51C369.99 269.02 369.99 268.93 369.99 269.44C369.99 270.35 369.25 271.08 368.35 271.08C365.52 271.08 358.67 271.08 355.84 271.08C354.93 271.08 354.2 270.35 354.2 269.44C354.2 268.93 354.2 269.02 354.2 268.51C354.2 267.61 354.93 266.87 355.84 266.87C358.67 266.87 365.52 266.87 368.35 266.87Z" id="b373ibGm3"></path><path d="M393.89 266.87C394.79 266.87 395.52 267.61 395.52 268.51C395.52 269.02 395.52 268.93 395.52 269.44C395.52 270.35 394.79 271.08 393.89 271.08C391.06 271.08 384.21 271.08 381.38 271.08C380.47 271.08 379.74 270.35 379.74 269.44C379.74 268.93 379.74 269.02 379.74 268.51C379.74 267.61 380.47 266.87 381.38 266.87C384.21 266.87 391.06 266.87 393.89 266.87Z" id="j3dMKjwCkc"></path><path d="M343.26 266.49L348.19 266.49L348.19 271.46L343.26 271.46L343.26 266.49Z" id="aE8iORxxZ"></path><path d="M340.35 252.47L399.62 252.47L399.62 261.13L340.35 261.13L340.35 252.47Z" id="b4FsTak2S"></path><path d="M368.35 254.7C369.25 254.7 369.99 255.44 369.99 256.34C369.99 256.85 369.99 256.76 369.99 257.27C369.99 258.18 369.25 258.91 368.35 258.91C365.52 258.91 358.67 258.91 355.84 258.91C354.93 258.91 354.2 258.18 354.2 257.27C354.2 256.76 354.2 256.85 354.2 256.34C354.2 255.44 354.93 254.7 355.84 254.7C358.67 254.7 365.52 254.7 368.35 254.7Z" id="b2eKThhm4R"></path><path d="M393.89 254.7C394.79 254.7 395.52 255.44 395.52 256.34C395.52 256.85 395.52 256.76 395.52 257.27C395.52 258.18 394.79 258.91 393.89 258.91C391.06 258.91 384.21 258.91 381.38 258.91C380.47 258.91 379.74 258.18 379.74 257.27C379.74 256.76 379.74 256.85 379.74 256.34C379.74 255.44 380.47 254.7 381.38 254.7C384.21 254.7 391.06 254.7 393.89 254.7Z" id="c16RubuJOP"></path><path d="M343.26 254.32L348.19 254.32L348.19 259.29L343.26 259.29L343.26 254.32Z" id="d1Y9ZwDTX"></path><path d="M340.35 239.89L399.62 239.89L399.62 248.55L340.35 248.55L340.35 239.89Z" id="f27InRosiY"></path><path d="M368.35 242.12C369.25 242.12 369.99 242.86 369.99 243.76C369.99 244.27 369.99 244.18 369.99 244.69C369.99 245.6 369.25 246.33 368.35 246.33C365.52 246.33 358.67 246.33 355.84 246.33C354.93 246.33 354.2 245.6 354.2 244.69C354.2 244.18 354.2 244.27 354.2 243.76C354.2 242.86 354.93 242.12 355.84 242.12C358.67 242.12 365.52 242.12 368.35 242.12Z" id="b1k0uyzN4p"></path><path d="M393.89 242.12C394.79 242.12 395.52 242.86 395.52 243.76C395.52 244.27 395.52 244.18 395.52 244.69C395.52 245.6 394.79 246.33 393.89 246.33C391.06 246.33 384.21 246.33 381.38 246.33C380.47 246.33 379.74 245.6 379.74 244.69C379.74 244.18 379.74 244.27 379.74 243.76C379.74 242.86 380.47 242.12 381.38 242.12C384.21 242.12 391.06 242.12 393.89 242.12Z" id="bFreldF7R"></path><path d="M343.26 241.74L348.19 241.74L348.19 246.71L343.26 246.71L343.26 241.74Z" id="c35TFWashZ"></path><path d="M340.35 226.96L399.62 226.96L399.62 235.63L340.35 235.63L340.35 226.96Z" id="bRw23IXiA"></path><path d="M368.35 229.19C369.25 229.19 369.99 229.93 369.99 230.83C369.99 231.35 369.99 231.25 369.99 231.76C369.99 232.67 369.25 233.4 368.35 233.4C365.52 233.4 358.67 233.4 355.84 233.4C354.93 233.4 354.2 232.67 354.2 231.76C354.2 231.25 354.2 231.35 354.2 230.83C354.2 229.93 354.93 229.19 355.84 229.19C358.67 229.19 365.52 229.19 368.35 229.19Z" id="a2SGB5HRCU"></path><path d="M393.89 229.19C394.79 229.19 395.52 229.93 395.52 230.83C395.52 231.35 395.52 231.25 395.52 231.76C395.52 232.67 394.79 233.4 393.89 233.4C391.06 233.4 384.21 233.4 381.38 233.4C380.47 233.4 379.74 232.67 379.74 231.76C379.74 231.25 379.74 231.35 379.74 230.83C379.74 229.93 380.47 229.19 381.38 229.19C384.21 229.19 391.06 229.19 393.89 229.19Z" id="b4G77LeKP"></path><path d="M343.26 228.81L348.19 228.81L348.19 233.78L343.26 233.78L343.26 228.81Z" id="d2YMCMG529"></path><path d="M368.35 217.68C369.25 217.68 369.99 218.41 369.99 219.32C369.99 219.83 369.99 219.73 369.99 220.25C369.99 221.15 369.25 221.88 368.35 221.88C365.52 221.88 358.67 221.88 355.84 221.88C354.93 221.88 354.2 221.15 354.2 220.25C354.2 219.73 354.2 219.83 354.2 219.32C354.2 218.41 354.93 217.68 355.84 217.68C358.67 217.68 365.52 217.68 368.35 217.68Z" id="blHLTbJ15"></path><path d="M393.89 217.67C394.79 217.67 395.52 218.41 395.52 219.31C395.52 219.82 395.52 219.73 395.52 220.24C395.52 221.14 394.79 221.88 393.89 221.88C391.06 221.88 384.21 221.88 381.38 221.88C380.47 221.88 379.74 221.14 379.74 220.24C379.74 219.73 379.74 219.82 379.74 219.31C379.74 218.41 380.47 217.67 381.38 217.67C384.21 217.67 391.06 217.67 393.89 217.67Z" id="a3Nhicm6jN"></path><path d="M343.26 217.3L348.19 217.3L348.19 222.27L343.26 222.27L343.26 217.3Z" id="dNKf7v8dm"></path><path d="M406.9 208.99L407.19 209.03L407.47 209.09L407.75 209.15L408.02 209.22L408.29 209.31L408.55 209.4L408.81 209.5L409.07 209.62L409.32 209.74L409.56 209.87L409.8 210.02L410.03 210.17L410.26 210.32L410.48 210.49L410.69 210.67L410.89 210.85L411.09 211.04L411.28 211.24L411.47 211.44L411.64 211.66L411.81 211.88L411.97 212.1L412.12 212.33L412.26 212.57L412.39 212.82L412.52 213.06L412.63 213.32L412.73 213.58L412.83 213.84L412.91 214.11L412.98 214.39L413.05 214.67L413.1 214.95L413.14 215.23L413.17 215.52L413.19 215.81L413.19 216.11L413.19 283.85L413.19 284.15L413.17 284.44L413.14 284.73L413.1 285.01L413.05 285.3L412.98 285.57L412.91 285.85L412.83 286.12L412.73 286.38L412.63 286.64L412.52 286.9L412.39 287.15L412.26 287.39L412.12 287.63L411.97 287.86L411.81 288.09L411.64 288.31L411.47 288.52L411.28 288.72L411.09 288.92L410.89 289.11L410.69 289.3L410.48 289.47L410.26 289.64L410.03 289.8L409.8 289.95L409.56 290.09L409.32 290.22L409.07 290.34L408.81 290.46L408.55 290.56L408.29 290.66L408.02 290.74L407.75 290.81L407.47 290.88L407.19 290.93L406.9 290.97L406.61 291L406.32 291.02L406.02 291.02L334.55 291.02L372.89 208.94L406.02 208.94L406.32 208.95L406.61 208.96L406.61 208.96L406.9 208.99Z" id="c3NZrJhpmX"></path><path d="M410.18 250.4C410.18 252.61 408.38 254.4 406.18 254.4C403.97 254.4 402.18 252.61 402.18 250.4C402.18 248.19 403.97 246.4 406.18 246.4C408.38 246.4 410.18 248.19 410.18 250.4Z" id="amQFG8PM5"></path><path d="M270.16 208.94L270.25 208.95L270.35 208.96L270.44 208.97L270.53 208.99L270.61 209.01L270.7 209.03L270.79 209.06L270.87 209.09L270.95 209.12L271.03 209.16L271.11 209.2L271.19 209.24L271.27 209.28L271.34 209.33L271.41 209.38L271.48 209.43L271.55 209.49L271.61 209.55L271.68 209.61L271.74 209.67L271.8 209.74L271.85 209.8L271.9 209.87L271.96 209.94L272 210.02L272.05 210.09L272.09 210.17L272.13 210.25L272.16 210.33L272.2 210.41L272.23 210.5L272.25 210.58L272.28 210.67L272.3 210.76L272.31 210.85L272.33 210.94L272.34 211.03L272.34 211.12L272.34 211.22L272.34 212.33L272.34 213.55L272.34 214.85L272.34 216.23L272.34 217.69L272.34 219.23L272.34 220.83L272.34 222.5L272.34 224.23L272.34 226.01L272.34 227.85L272.34 229.72L272.34 231.64L272.34 233.59L272.34 235.56L272.34 237.57L272.34 239.59L272.34 241.63L272.34 243.68L272.34 245.73L272.34 247.78L272.34 249.83L272.34 251.87L272.34 253.89L272.34 255.9L272.34 257.88L272.34 259.83L272.34 261.74L272.34 263.62L272.34 265.45L272.34 267.23L272.34 268.96L272.34 270.63L272.34 272.23L272.34 273.77L272.34 275.23L272.34 276.62L272.34 277.92L272.34 279.13L272.34 280.25L272.34 280.34L272.34 280.43L272.33 280.52L272.31 280.61L272.3 280.7L272.28 280.79L272.25 280.88L272.23 280.96L272.2 281.05L272.16 281.13L272.13 281.21L272.09 281.29L272.05 281.37L272 281.44L271.96 281.52L271.9 281.59L271.85 281.66L271.8 281.73L271.74 281.79L271.68 281.85L271.61 281.92L271.55 281.97L271.48 282.03L271.41 282.08L271.34 282.13L271.27 282.18L271.19 282.22L271.11 282.27L271.03 282.31L270.95 282.34L270.87 282.38L270.79 282.41L270.7 282.43L270.61 282.45L270.53 282.47L270.44 282.49L270.35 282.5L270.25 282.51L270.16 282.52L270.07 282.52L269.46 282.52L268.8 282.52L268.1 282.52L267.36 282.52L266.57 282.52L265.75 282.52L264.89 282.52L264 282.52L263.08 282.52L262.14 282.52L261.17 282.52L260.17 282.52L259.16 282.52L258.13 282.52L257.08 282.52L256.02 282.52L254.95 282.52L253.87 282.52L252.79 282.52L251.71 282.52L250.62 282.52L249.54 282.52L248.47 282.52L247.4 282.52L246.34 282.52L245.29 282.52L244.26 282.52L243.25 282.52L242.25 282.52L241.28 282.52L240.33 282.52L239.41 282.52L238.52 282.52L237.67 282.52L236.85 282.52L236.06 282.52L235.32 282.52L234.61 282.52L233.96 282.52L233.35 282.52L233.25 282.52L233.16 282.51L233.07 282.5L232.98 282.49L232.89 282.47L232.8 282.45L232.71 282.43L232.63 282.41L232.55 282.38L232.46 282.34L232.38 282.31L232.3 282.27L232.23 282.22L232.15 282.18L232.08 282.13L232 282.08L231.93 282.03L231.87 281.97L231.8 281.92L231.74 281.85L231.68 281.79L231.62 281.73L231.56 281.66L231.51 281.59L231.46 281.52L231.41 281.44L231.37 281.37L231.33 281.29L231.29 281.21L231.25 281.13L231.22 281.05L231.19 280.96L231.16 280.88L231.14 280.79L231.12 280.7L231.1 280.61L231.09 280.52L231.08 280.43L231.07 280.34L231.07 280.25L231.07 279.13L231.07 277.92L231.07 276.62L231.07 275.23L231.07 273.77L231.07 272.23L231.07 270.63L231.07 268.96L231.07 267.23L231.07 265.45L231.07 263.62L231.07 261.74L231.07 259.83L231.07 257.88L231.07 255.9L231.07 253.89L231.07 251.87L231.07 249.83L231.07 247.78L231.07 245.73L231.07 243.68L231.07 241.63L231.07 239.59L231.07 237.57L231.07 235.56L231.07 233.59L231.07 231.64L231.07 229.72L231.07 227.85L231.07 226.01L231.07 224.23L231.07 222.5L231.07 220.83L231.07 219.23L231.07 217.69L231.07 216.23L231.07 214.85L231.07 213.55L231.07 212.33L231.07 211.22L231.07 211.12L231.08 211.03L231.09 210.94L231.1 210.85L231.12 210.76L231.14 210.67L231.16 210.58L231.19 210.5L231.22 210.41L231.25 210.33L231.29 210.25L231.33 210.17L231.37 210.09L231.41 210.02L231.46 209.94L231.51 209.87L231.56 209.8L231.62 209.74L231.68 209.67L231.74 209.61L231.8 209.55L231.87 209.49L231.93 209.43L232 209.38L232.08 209.33L232.15 209.28L232.23 209.24L232.3 209.2L232.38 209.16L232.46 209.12L232.55 209.09L232.63 209.06L232.71 209.03L232.8 209.01L232.89 208.99L232.98 208.97L233.07 208.96L233.16 208.95L233.25 208.94L233.35 208.94L233.96 208.94L234.61 208.94L235.32 208.94L236.06 208.94L236.85 208.94L237.67 208.94L238.52 208.94L239.41 208.94L240.33 208.94L241.28 208.94L242.25 208.94L243.25 208.94L244.26 208.94L245.29 208.94L246.34 208.94L247.4 208.94L248.47 208.94L249.54 208.94L250.62 208.94L251.71 208.94L252.79 208.94L253.87 208.94L254.95 208.94L256.02 208.94L257.08 208.94L258.13 208.94L259.16 208.94L260.17 208.94L261.17 208.94L262.14 208.94L263.08 208.94L264 208.94L264.89 208.94L265.75 208.94L266.57 208.94L267.36 208.94L268.1 208.94L268.8 208.94L269.46 208.94L270.07 208.94L270.07 208.94L270.16 208.94Z" id="inXDwJM2t"></path><mask id="maskbzpYCZDoj" x="229.07" y="206.94" width="45.27" height="77.58" maskUnits="userSpaceOnUse"><rect x="229.07" y="206.94" width="45.27" height="77.58" fill="white"></rect><use xlink:href="#inXDwJM2t" opacity="1" fill="black"></use></mask><path d="M255.71 275.4C255.71 277.61 253.92 279.4 251.71 279.4C249.5 279.4 247.71 277.61 247.71 275.4C247.71 273.19 249.5 271.4 251.71 271.4C253.92 271.4 255.71 273.19 255.71 275.4Z" id="bhPLxrX0G"></path><path d="M245.42 213.71L245.42 215.54L236.21 215.54L236.21 213.71L245.42 213.71Z" id="fVAZvQA6x"></path><path d="M268.71 217L268.71 218.83L236.21 218.83L236.21 217L268.71 217Z" id="b26DSoEKwL"></path><path d="M245.42 220.54L245.42 222.37L236.21 222.37L236.21 220.54L245.42 220.54Z" id="e31iOAmk7"></path><path d="M231.54 210.74L272.81 210.74L272.81 225.1L231.54 225.1L231.54 210.74Z" id="a2ZkyGtPbz"></path><path d="M231.07 229.11L272.34 229.11L272.34 269.11L231.07 269.11L231.07 229.11Z" id="igvunxOoP"></path><path d="M240.24 232.18C240.61 232.18 240.91 232.48 240.91 232.85C240.91 233.81 240.91 236.04 240.91 237.01C240.91 237.38 240.61 237.68 240.24 237.68C239.08 237.68 236.28 237.68 235.13 237.68C234.76 237.68 234.46 237.38 234.46 237.01C234.46 236.04 234.46 233.81 234.46 232.85C234.46 232.48 234.76 232.18 235.13 232.18C236.28 232.18 239.08 232.18 240.24 232.18Z" id="a1sHkW1TEw"></path><path d="M267.05 232.18C268.44 232.18 269.56 233.3 269.56 234.68C269.56 235.28 269.56 234.57 269.56 235.17C269.56 236.56 268.44 237.68 267.05 237.68C262.73 237.68 252.25 237.68 247.92 237.68C246.54 237.68 245.42 236.56 245.42 235.17C245.42 234.57 245.42 235.28 245.42 234.68C245.42 233.3 246.54 232.18 247.92 232.18C252.25 232.18 262.73 232.18 267.05 232.18Z" id="e3ka9NfjbP"></path><path d="M240.24 240.23C240.61 240.23 240.91 240.53 240.91 240.9C240.91 241.87 240.91 244.1 240.91 245.06C240.91 245.43 240.61 245.73 240.24 245.73C239.08 245.73 236.28 245.73 235.13 245.73C234.76 245.73 234.46 245.43 234.46 245.06C234.46 244.1 234.46 241.87 234.46 240.9C234.46 240.53 234.76 240.23 235.13 240.23C236.28 240.23 239.08 240.23 240.24 240.23Z" id="dCgxBmjPO"></path><path d="M267.05 240.23C268.44 240.23 269.56 241.35 269.56 242.74C269.56 243.34 269.56 242.63 269.56 243.23C269.56 244.61 268.44 245.73 267.05 245.73C262.73 245.73 252.25 245.73 247.92 245.73C246.54 245.73 245.42 244.61 245.42 243.23C245.42 242.63 245.42 243.34 245.42 242.74C245.42 241.35 246.54 240.23 247.92 240.23C252.25 240.23 262.73 240.23 267.05 240.23Z" id="i2vFAgXNBo"></path><path d="M240.24 249.11C240.61 249.11 240.91 249.41 240.91 249.78C240.91 250.75 240.91 252.97 240.91 253.94C240.91 254.31 240.61 254.61 240.24 254.61C239.08 254.61 236.28 254.61 235.13 254.61C234.76 254.61 234.46 254.31 234.46 253.94C234.46 252.97 234.46 250.75 234.46 249.78C234.46 249.41 234.76 249.11 235.13 249.11C236.28 249.11 239.08 249.11 240.24 249.11Z" id="bd5Zzblj8"></path><path d="M267.05 249.11C268.44 249.11 269.56 250.23 269.56 251.62C269.56 252.21 269.56 251.51 269.56 252.11C269.56 253.49 268.44 254.61 267.05 254.61C262.73 254.61 252.25 254.61 247.92 254.61C246.54 254.61 245.42 253.49 245.42 252.11C245.42 251.51 245.42 252.21 245.42 251.62C245.42 250.23 246.54 249.11 247.92 249.11C252.25 249.11 262.73 249.11 267.05 249.11Z" id="aMF6ykCGH"></path><path d="M240.24 257.99C240.61 257.99 240.91 258.28 240.91 258.65C240.91 259.62 240.91 261.85 240.91 262.82C240.91 263.19 240.61 263.49 240.24 263.49C239.08 263.49 236.28 263.49 235.13 263.49C234.76 263.49 234.46 263.19 234.46 262.82C234.46 261.85 234.46 259.62 234.46 258.65C234.46 258.28 234.76 257.99 235.13 257.99C236.28 257.99 239.08 257.99 240.24 257.99Z" id="b4fP3lfAWW"></path><path d="M267.05 257.99C268.44 257.99 269.56 259.11 269.56 260.49C269.56 261.09 269.56 260.38 269.56 260.98C269.56 262.36 268.44 263.49 267.05 263.49C262.73 263.49 252.25 263.49 247.92 263.49C246.54 263.49 245.42 262.36 245.42 260.98C245.42 260.38 245.42 261.09 245.42 260.49C245.42 259.11 246.54 257.99 247.92 257.99C252.25 257.99 262.73 257.99 267.05 257.99Z" id="e1S0LM6TJl"></path><path d="M270.09 208.95L270.18 208.96L270.27 208.97L270.36 208.99L270.45 209.01L270.54 209.03L270.63 209.06L270.71 209.09L270.79 209.12L270.87 209.16L270.95 209.19L271.03 209.24L271.1 209.28L271.18 209.33L271.25 209.38L271.32 209.43L271.39 209.49L271.45 209.55L271.52 209.61L271.58 209.67L271.63 209.74L271.69 209.8L271.74 209.87L271.79 209.94L271.84 210.02L271.89 210.09L271.93 210.17L271.97 210.25L272 210.33L272.04 210.41L272.07 210.5L272.09 210.58L272.12 210.67L272.14 210.76L272.15 210.85L272.16 210.94L272.17 211.03L272.18 211.12L272.18 211.22L272.18 280.24L272.18 280.34L272.17 280.43L272.16 280.52L272.15 280.61L272.14 280.7L272.12 280.79L272.09 280.88L272.07 280.96L272.04 281.05L272 281.13L271.97 281.21L271.93 281.29L271.89 281.37L271.84 281.44L271.79 281.52L271.74 281.59L271.69 281.66L271.63 281.73L271.58 281.79L271.52 281.85L271.45 281.91L271.39 281.97L271.32 282.03L271.25 282.08L271.18 282.13L271.1 282.18L271.03 282.22L270.95 282.27L270.87 282.31L270.79 282.34L270.71 282.37L270.63 282.4L270.54 282.43L270.45 282.45L270.36 282.47L270.27 282.49L270.18 282.5L270.09 282.51L270 282.52L269.91 282.52L238.46 282.52L269.91 208.94L270 208.94L270.09 208.95Z" id="a2soGPMu32"></path></defs><g><g><g><g><filter id="shadow841928" x="297.16" y="159.2" width="341.05" height="87.85" filterUnits="userSpaceOnUse" primitiveUnits="userSpaceOnUse"><feFlood></feFlood><feComposite in2="SourceAlpha" operator="in"></feComposite><feGaussianBlur stdDeviation="1"></feGaussianBlur><feOffset dx="0" dy="0" result="afterOffset"></feOffset><feFlood flood-color="#000000" flood-opacity="0.5"></feFlood><feComposite in2="afterOffset" operator="in"></feComposite><feMorphology operator="dilate" radius="1"></feMorphology><feComposite in2="SourceAlpha" operator="out"></feComposite></filter><path d="M305.16 203.12C305.16 203.12 305.16 203.12 305.16 203.12C305.16 183.3 320.83 167.2 340.13 167.2C340.13 167.2 595.24 167.2 595.24 167.2C614.55 167.2 630.21 183.3 630.21 203.12C630.21 203.12 630.21 203.12 630.21 203.12C630.21 222.95 614.55 239.05 595.24 239.05C595.24 239.05 340.13 239.05 340.13 239.05C320.83 239.05 305.16 222.95 305.16 203.12Z" id="n23dEJREE" fill="white" fill-opacity="1" filter="url(#shadow841928)"></path></g><use xlink:href="#a7s63bbBt" opacity="1" fill="#9642f5" fill-opacity="1"></use><g><use xlink:href="#a7s63bbBt" opacity="1" fill-opacity="0" stroke="#000000" stroke-width="1" stroke-opacity="0"></use></g></g><g><g><filter id="shadow11936107" x="22.21" y="47.55" width="565.89" height="139.35" filterUnits="userSpaceOnUse" primitiveUnits="userSpaceOnUse"><feFlood></feFlood><feComposite in2="SourceAlpha" operator="in"></feComposite><feGaussianBlur stdDeviation="1"></feGaussianBlur><feOffset dx="0" dy="0" result="afterOffset"></feOffset><feFlood flood-color="#000000" flood-opacity="0.5"></feFlood><feComposite in2="afterOffset" operator="in"></feComposite><feMorphology operator="dilate" radius="1"></feMorphology><feComposite in2="SourceAlpha" operator="out"></feComposite></filter><path d="M30.21 117.23C30.21 117.23 30.21 117.23 30.21 117.23C30.21 83.18 56.73 55.55 89.38 55.55C89.38 55.55 520.94 55.55 520.94 55.55C553.59 55.55 580.11 83.18 580.11 117.23C580.11 117.23 580.11 117.23 580.11 117.23C580.11 151.27 553.59 178.9 520.94 178.9C520.94 178.9 89.38 178.9 89.38 178.9C56.73 178.9 30.21 151.27 30.21 117.23Z" id="b2v9xYAFaM" fill="white" fill-opacity="1" filter="url(#shadow11936107)"></path></g><use xlink:href="#anNzg3HMO" opacity="1" fill="#9642f5" fill-opacity="1"></use><g><use xlink:href="#anNzg3HMO" opacity="1" fill-opacity="0" stroke="#000000" stroke-width="1" stroke-opacity="0"></use></g></g><g><g><filter id="shadow347428" x="102.39" y="225.1" width="405.54" height="105.41" filterUnits="userSpaceOnUse" primitiveUnits="userSpaceOnUse"><feFlood></feFlood><feComposite in2="SourceAlpha" operator="in"></feComposite><feGaussianBlur stdDeviation="1"></feGaussianBlur><feOffset dx="0" dy="0" result="afterOffset"></feOffset><feFlood flood-color="#000000" flood-opacity="0.5"></feFlood><feComposite in2="afterOffset" operator="in"></feComposite><feMorphology operator="dilate" radius="1"></feMorphology><feComposite in2="SourceAlpha" operator="out"></feComposite></filter><path d="M110.39 277.81C110.39 277.81 110.39 277.81 110.39 277.81C110.39 253.14 129.17 233.1 152.3 233.1C152.3 233.1 458.02 233.1 458.02 233.1C481.15 233.1 499.93 253.14 499.93 277.81C499.93 277.81 499.93 277.81 499.93 277.81C499.93 302.48 481.15 322.51 458.02 322.51C458.02 322.51 152.3 322.51 152.3 322.51C129.17 322.51 110.39 302.48 110.39 277.81Z" id="a5VFC4eG5u" fill="white" fill-opacity="1" filter="url(#shadow347428)"></path></g><use xlink:href="#dkDTI4hrU" opacity="1" fill="#9642f5" fill-opacity="1"></use><g><use xlink:href="#dkDTI4hrU" opacity="1" fill-opacity="0" stroke="#000000" stroke-width="1" stroke-opacity="0"></use></g></g><g><g><filter id="shadow5156939" x="149.68" y="5.15" width="344.9" height="367.14" filterUnits="userSpaceOnUse" primitiveUnits="userSpaceOnUse"><feFlood></feFlood><feComposite in2="SourceAlpha" operator="in"></feComposite><feGaussianBlur stdDeviation="1"></feGaussianBlur><feOffset dx="0" dy="0" result="afterOffset"></feOffset><feFlood flood-color="#000000" flood-opacity="0.5"></feFlood><feComposite in2="afterOffset" operator="in"></feComposite><feMorphology operator="dilate" radius="1"></feMorphology><feComposite in2="SourceAlpha" operator="out"></feComposite></filter><path d="M322.13 364.29C231.37 364.29 157.68 285.62 157.68 188.72C157.68 91.82 231.37 13.15 322.13 13.15C412.9 13.15 486.58 91.82 486.58 188.72C486.58 285.62 412.9 364.29 322.13 364.29Z" id="b9cdG5oIj1" fill="white" fill-opacity="1" filter="url(#shadow5156939)"></path></g><use xlink:href="#b1PgCc8Tv6" opacity="1" fill="#2d2d2d" fill-opacity="1"></use><g><use xlink:href="#b1PgCc8Tv6" opacity="1" fill-opacity="0" stroke="#000000" stroke-width="1" stroke-opacity="0"></use></g></g><g><g><filter id="shadow2725112" x="127.68" y="-16.85" width="388.9" height="411.14" filterUnits="userSpaceOnUse" primitiveUnits="userSpaceOnUse"><feFlood></feFlood><feComposite in2="SourceAlpha" operator="in"></feComposite><feGaussianBlur stdDeviation="3.16"></feGaussianBlur><feOffset dx="0" dy="0" result="afterOffset"></feOffset><feFlood flood-color="#000000" flood-opacity="0.5"></feFlood><feComposite in2="afterOffset" operator="in"></feComposite><feMorphology operator="dilate" radius="5"></feMorphology><feComposite in2="SourceAlpha" operator="out"></feComposite></filter><path d="M322.13 364.29C231.37 364.29 157.68 285.62 157.68 188.72C157.68 91.82 231.37 13.15 322.13 13.15C412.9 13.15 486.58 91.82 486.58 188.72C486.58 285.62 412.9 364.29 322.13 364.29Z" id="b1wxtuySdL" fill="white" fill-opacity="1" filter="url(#shadow2725112)"></path></g><use xlink:href="#a6HKvYnohG" opacity="1" fill="#000000" fill-opacity="0"></use><g><use xlink:href="#a6HKvYnohG" opacity="1" fill-opacity="0" stroke="#9642f5" stroke-width="10" stroke-opacity="1"></use></g></g><g><g><use xlink:href="#aOivAfJl9" opacity="1" fill-opacity="0" stroke="#000000" stroke-width="0" stroke-opacity="0"></use></g></g><g><use xlink:href="#c8VuUXCHR" opacity="1" fill="#2d2d2d" fill-opacity="1"></use><g mask="url(#maskb3e5iHR17v)"><use xlink:href="#c8VuUXCHR" opacity="1" fill-opacity="0" stroke="#b7b7b7" stroke-width="2" stroke-opacity="1"></use></g></g><g><g><use xlink:href="#c815xCuUE" opacity="1" fill-opacity="0" stroke="#000000" stroke-width="0" stroke-opacity="0"></use></g></g><g><use xlink:href="#e129rXh3st" opacity="1" fill="#ffffff" fill-opacity="0.11"></use></g><g><use xlink:href="#g1bJxo5q9U" opacity="1" fill="#f25d5b" fill-opacity="1"></use></g><g><use xlink:href="#b28Fu4DRqx" opacity="1" fill="#f0ad2b" fill-opacity="1"></use></g><g><use xlink:href="#d6Aj7BiFH" opacity="1" fill="#86dd60" fill-opacity="1"></use></g><g><use xlink:href="#a1uFhBqrO4" opacity="1" fill="#ffffff" fill-opacity="0.11"></use></g><g><use xlink:href="#a190co51fu" opacity="1" fill="#898787" fill-opacity="1"></use></g><g><use xlink:href="#c8vjYjIODB" opacity="1" fill="#898787" fill-opacity="1"></use></g><g><use xlink:href="#bkSCJ1niN" opacity="1" fill="#e6e6e6" fill-opacity="1"></use></g><g><use xlink:href="#a4ujdQ8kmS" opacity="1" fill="#e6e6e6" fill-opacity="1"></use></g><g><use xlink:href="#cLdFQl822" opacity="1" fill="#e6e6e6" fill-opacity="1"></use></g><g><use xlink:href="#i4QG4lt4p" opacity="1" fill="#898787" fill-opacity="1"></use></g><g><use xlink:href="#doGXDhBgA" opacity="1" fill="#f25d5b" fill-opacity="1"></use></g><g><use xlink:href="#a3Bkn2pfwX" opacity="1" fill="#86dd60" fill-opacity="1"></use></g><g><use xlink:href="#aOBZtrHg9" opacity="1" fill="#f0ad2b" fill-opacity="1"></use></g><g><use xlink:href="#caTLg9LvL" opacity="1" fill="#ffffff" fill-opacity="0.28"></use></g><g><use xlink:href="#hBIWZPclj" opacity="1" fill="#e6e6e6" fill-opacity="0.52"></use><g mask="url(#maskai6WytYt1)"><use xlink:href="#hBIWZPclj" opacity="1" fill-opacity="0" stroke="#c7c7c7" stroke-width="2" stroke-opacity="1"></use></g></g><g><use xlink:href="#a8PRT8ES" opacity="1" fill="#c7c7c7" fill-opacity="1"></use></g><g><use xlink:href="#a1qjXRfWst" opacity="1" fill="#2d2d2d" fill-opacity="1"></use><g mask="url(#maskc1eLU0Ec6T)"><use xlink:href="#a1qjXRfWst" opacity="1" fill-opacity="0" stroke="#b7b7b7" stroke-width="2" stroke-opacity="1"></use></g></g><g><use xlink:href="#b1fiuOLQr1" opacity="1" fill="#ffffff" fill-opacity="0.11"></use></g><g><use xlink:href="#a3voiTEp1p" opacity="1" fill="#f25d5b" fill-opacity="1"></use></g><g><use xlink:href="#ilBl7lDP7" opacity="1" fill="#f0ad2b" fill-opacity="1"></use></g><g><use xlink:href="#aPeSCch6" opacity="1" fill="#86dd60" fill-opacity="1"></use></g><g><use xlink:href="#b1xxIthyRK" opacity="1" fill="#f25d5b" fill-opacity="1"></use></g><g><use xlink:href="#a1dGgV0YiE" opacity="1" fill="#86dd60" fill-opacity="1"></use></g><g><use xlink:href="#ihOg15AqO" opacity="1" fill="#f0ad2b" fill-opacity="1"></use></g><g><use xlink:href="#b6P5720zt" opacity="1" fill="#ffffff" fill-opacity="0.11"></use></g><g><use xlink:href="#ajN0dYfFW" opacity="1" fill="#e6e6e6" fill-opacity="1"></use></g><g><use xlink:href="#bDWEZ20j0" opacity="1" fill="#e6e6e6" fill-opacity="1"></use></g><g><use xlink:href="#a17F5XPSZ" opacity="1" fill="#e6e6e6" fill-opacity="1"></use></g><g><use xlink:href="#d6DqM9ef9y" opacity="1" fill="#ffffff" fill-opacity="0.11"></use></g><g><use xlink:href="#b373ibGm3" opacity="1" fill="#e6e6e6" fill-opacity="1"></use></g><g><use xlink:href="#j3dMKjwCkc" opacity="1" fill="#e6e6e6" fill-opacity="1"></use></g><g><use xlink:href="#aE8iORxxZ" opacity="1" fill="#e6e6e6" fill-opacity="1"></use></g><g><use xlink:href="#b4FsTak2S" opacity="1" fill="#ffffff" fill-opacity="0.11"></use></g><g><use xlink:href="#b2eKThhm4R" opacity="1" fill="#e6e6e6" fill-opacity="1"></use></g><g><use xlink:href="#c16RubuJOP" opacity="1" fill="#e6e6e6" fill-opacity="1"></use></g><g><use xlink:href="#d1Y9ZwDTX" opacity="1" fill="#e6e6e6" fill-opacity="1"></use></g><g><use xlink:href="#f27InRosiY" opacity="1" fill="#ffffff" fill-opacity="0.11"></use></g><g><use xlink:href="#b1k0uyzN4p" opacity="1" fill="#e6e6e6" fill-opacity="1"></use></g><g><use xlink:href="#bFreldF7R" opacity="1" fill="#e6e6e6" fill-opacity="1"></use></g><g><use xlink:href="#c35TFWashZ" opacity="1" fill="#e6e6e6" fill-opacity="1"></use></g><g><use xlink:href="#bRw23IXiA" opacity="1" fill="#ffffff" fill-opacity="0.11"></use></g><g><use xlink:href="#a2SGB5HRCU" opacity="1" fill="#e6e6e6" fill-opacity="1"></use></g><g><use xlink:href="#b4G77LeKP" opacity="1" fill="#e6e6e6" fill-opacity="1"></use></g><g><use xlink:href="#d2YMCMG529" opacity="1" fill="#e6e6e6" fill-opacity="1"></use></g><g><use xlink:href="#blHLTbJ15" opacity="1" fill="#898787" fill-opacity="1"></use></g><g><use xlink:href="#a3Nhicm6jN" opacity="1" fill="#898787" fill-opacity="1"></use></g><g><use xlink:href="#dNKf7v8dm" opacity="1" fill="#898787" fill-opacity="1"></use></g><g><use xlink:href="#c3NZrJhpmX" opacity="1" fill="#ffffff" fill-opacity="0.28"></use></g><g><use xlink:href="#amQFG8PM5" opacity="1" fill="#ffffff" fill-opacity="0.18"></use></g><g><use xlink:href="#inXDwJM2t" opacity="1" fill="#2d2d2d" fill-opacity="1"></use><g mask="url(#maskbzpYCZDoj)"><use xlink:href="#inXDwJM2t" opacity="1" fill-opacity="0" stroke="#b7b7b7" stroke-width="2" stroke-opacity="1"></use></g></g><g><use xlink:href="#bhPLxrX0G" opacity="1" fill="#ffffff" fill-opacity="0.18"></use></g><g><use xlink:href="#fVAZvQA6x" opacity="1" fill="#f25d5b" fill-opacity="1"></use></g><g><use xlink:href="#b26DSoEKwL" opacity="1" fill="#86dd60" fill-opacity="1"></use></g><g><use xlink:href="#e31iOAmk7" opacity="1" fill="#f0ad2b" fill-opacity="1"></use></g><g><use xlink:href="#a2ZkyGtPbz" opacity="1" fill="#ffffff" fill-opacity="0.11"></use></g><g><use xlink:href="#igvunxOoP" opacity="1" fill="#ffffff" fill-opacity="0.11"></use></g><g><use xlink:href="#a1sHkW1TEw" opacity="1" fill="#898787" fill-opacity="1"></use></g><g><use xlink:href="#e3ka9NfjbP" opacity="1" fill="#898787" fill-opacity="1"></use></g><g><use xlink:href="#dCgxBmjPO" opacity="1" fill="#898787" fill-opacity="1"></use></g><g><use xlink:href="#i2vFAgXNBo" opacity="1" fill="#898787" fill-opacity="1"></use></g><g><use xlink:href="#bd5Zzblj8" opacity="1" fill="#898787" fill-opacity="1"></use></g><g><use xlink:href="#aMF6ykCGH" opacity="1" fill="#898787" fill-opacity="1"></use></g><g><use xlink:href="#b4fP3lfAWW" opacity="1" fill="#898787" fill-opacity="1"></use></g><g><use xlink:href="#e1S0LM6TJl" opacity="1" fill="#898787" fill-opacity="1"></use></g><g><use xlink:href="#a2soGPMu32" opacity="1" fill="#ffffff" fill-opacity="0.17"></use></g></g></g></svg>