<?xml version="1.0" encoding="UTF-8" standalone="no"?>
<!DOCTYPE svg PUBLIC "-//W3C//DTD SVG 1.1//EN" "http://www.w3.org/Graphics/SVG/1.1/DTD/svg11.dtd">
<svg version="1.1" xmlns="http://www.w3.org/2000/svg" xmlns:xlink="http://www.w3.org/1999/xlink" preserveAspectRatio="xMidYMid meet" viewBox="0 0 223 176" width="223" height="176"><defs><path d="M14.52 90.55L126.03 90.55L126.03 133.48L14.52 133.48L14.52 90.55Z" id="b1tSbjUJLy"></path><path d="M126.14 133.51L126.43 133.54L126.71 133.58L126.99 133.63L127.26 133.69L127.53 133.76L127.8 133.84L128.06 133.94L128.31 134.04L128.57 134.15L128.81 134.27L129.05 134.4L129.29 134.54L129.51 134.69L129.74 134.85L129.95 135.01L130.16 135.18L130.36 135.37L130.56 135.55L130.75 135.75L130.93 135.95L131.1 136.16L131.26 136.38L131.42 136.6L131.57 136.83L131.71 137.06L131.84 137.3L131.96 137.55L132.07 137.8L132.17 138.05L132.27 138.31L132.35 138.58L132.42 138.85L132.48 139.12L132.54 139.4L132.58 139.68L132.6 139.97L132.62 140.26L132.63 140.55L132.63 160.5L132.62 160.79L132.6 161.08L132.58 161.36L132.54 161.64L132.48 161.92L132.42 162.19L132.35 162.46L132.27 162.73L132.17 162.99L132.07 163.25L131.96 163.5L131.84 163.74L131.71 163.98L131.57 164.22L131.42 164.45L131.26 164.67L131.1 164.88L130.93 165.09L130.75 165.3L130.56 165.49L130.36 165.68L130.16 165.86L129.95 166.03L129.74 166.2L129.51 166.35L129.29 166.5L129.05 166.64L128.81 166.77L128.57 166.89L128.31 167L128.06 167.11L127.8 167.2L127.53 167.28L127.26 167.35L126.99 167.42L126.71 167.47L126.43 167.51L126.14 167.54L125.86 167.55L125.57 167.56L15.69 167.56L15.4 167.55L15.11 167.54L14.83 167.51L14.54 167.47L14.27 167.42L13.99 167.35L13.72 167.28L13.46 167.2L13.2 167.11L12.94 167L12.69 166.89L12.44 166.77L12.2 166.64L11.97 166.5L11.74 166.35L11.52 166.2L11.3 166.03L11.09 165.86L10.89 165.68L10.7 165.49L10.51 165.3L10.33 165.09L10.15 164.88L9.99 164.67L9.83 164.45L9.69 164.22L9.55 163.98L9.42 163.74L9.29 163.5L9.18 163.25L9.08 162.99L8.99 162.73L8.91 162.46L8.83 162.19L8.77 161.92L8.72 161.64L8.68 161.36L8.65 161.08L8.63 160.79L8.63 160.5L8.63 140.55L8.63 140.26L8.65 139.97L8.68 139.68L8.72 139.4L8.77 139.12L8.83 138.85L8.91 138.58L8.99 138.31L9.08 138.05L9.18 137.8L9.29 137.55L9.42 137.3L9.55 137.06L9.69 136.83L9.83 136.6L9.99 136.38L10.15 136.16L10.33 135.95L10.51 135.75L10.7 135.55L10.89 135.37L11.09 135.18L11.3 135.01L11.52 134.85L11.74 134.69L11.97 134.54L12.2 134.4L12.44 134.27L12.69 134.15L12.94 134.04L13.2 133.94L13.46 133.84L13.72 133.76L13.99 133.69L14.27 133.63L14.54 133.58L14.83 133.54L15.11 133.51L15.4 133.49L15.69 133.48L125.57 133.48L125.86 133.49L126.14 133.51ZM126.14 95L126.43 95.03L126.71 95.07L126.99 95.12L127.26 95.18L127.53 95.25L127.8 95.34L128.06 95.43L128.31 95.53L128.57 95.64L128.81 95.76L129.05 95.89L129.29 96.03L129.51 96.18L129.74 96.34L129.95 96.5L130.16 96.68L130.36 96.86L130.56 97.04L130.75 97.24L130.93 97.44L131.1 97.65L131.26 97.87L131.42 98.09L131.57 98.32L131.71 98.55L131.84 98.79L131.96 99.04L132.07 99.29L132.17 99.55L132.27 99.81L132.35 100.07L132.42 100.34L132.48 100.62L132.54 100.89L132.58 101.17L132.6 101.46L132.62 101.75L132.63 102.04L132.63 121.99L132.62 122.28L132.6 122.57L132.58 122.85L132.54 123.13L132.48 123.41L132.42 123.69L132.35 123.96L132.27 124.22L132.17 124.48L132.07 124.74L131.96 124.99L131.84 125.23L131.71 125.47L131.57 125.71L131.42 125.94L131.26 126.16L131.1 126.38L130.93 126.58L130.75 126.79L130.56 126.98L130.36 127.17L130.16 127.35L129.95 127.52L129.74 127.69L129.51 127.84L129.29 127.99L129.05 128.13L128.81 128.26L128.57 128.38L128.31 128.5L128.06 128.6L127.8 128.69L127.53 128.77L127.26 128.85L126.99 128.91L126.71 128.96L126.43 129L126.14 129.03L125.86 129.04L125.57 129.05L15.69 129.05L15.4 129.04L15.11 129.03L14.83 129L14.54 128.96L14.27 128.91L13.99 128.85L13.72 128.77L13.46 128.69L13.2 128.6L12.94 128.5L12.69 128.38L12.44 128.26L12.2 128.13L11.97 127.99L11.74 127.84L11.52 127.69L11.3 127.52L11.09 127.35L10.89 127.17L10.7 126.98L10.51 126.79L10.33 126.58L10.15 126.38L9.99 126.16L9.83 125.94L9.69 125.71L9.55 125.47L9.42 125.23L9.29 124.99L9.18 124.74L9.08 124.48L8.99 124.22L8.91 123.96L8.83 123.69L8.77 123.41L8.72 123.13L8.68 122.85L8.65 122.57L8.63 122.28L8.63 121.99L8.63 102.04L8.63 101.75L8.65 101.46L8.68 101.17L8.72 100.89L8.77 100.62L8.83 100.34L8.91 100.07L8.99 99.81L9.08 99.55L9.18 99.29L9.29 99.04L9.42 98.79L9.55 98.55L9.69 98.32L9.83 98.09L9.99 97.87L10.15 97.65L10.33 97.44L10.51 97.24L10.7 97.04L10.89 96.86L11.09 96.68L11.3 96.5L11.52 96.34L11.74 96.18L11.97 96.03L12.2 95.89L12.44 95.76L12.69 95.64L12.94 95.53L13.2 95.43L13.46 95.34L13.72 95.25L13.99 95.18L14.27 95.12L14.54 95.07L14.83 95.03L15.11 95L15.4 94.98L15.69 94.98L125.57 94.98L125.86 94.98L126.14 95ZM126.14 56.5L126.43 56.53L126.71 56.57L126.99 56.62L127.26 56.68L127.53 56.75L127.8 56.84L128.06 56.93L128.31 57.03L128.57 57.14L128.81 57.26L129.05 57.39L129.29 57.53L129.51 57.68L129.74 57.84L129.95 58L130.16 58.18L130.36 58.36L130.56 58.54L130.75 58.74L130.93 58.94L131.1 59.15L131.26 59.37L131.42 59.59L131.57 59.82L131.71 60.05L131.84 60.29L131.96 60.54L132.07 60.79L132.17 61.04L132.27 61.31L132.35 61.57L132.42 61.84L132.48 62.11L132.54 62.39L132.58 62.67L132.6 62.96L132.62 63.25L132.63 63.54L132.63 83.49L132.62 83.78L132.6 84.07L132.58 84.35L132.54 84.63L132.48 84.91L132.42 85.18L132.35 85.45L132.27 85.72L132.17 85.98L132.07 86.24L131.96 86.49L131.84 86.73L131.71 86.97L131.57 87.21L131.42 87.44L131.26 87.66L131.1 87.87L130.93 88.08L130.75 88.29L130.56 88.48L130.36 88.67L130.16 88.85L129.95 89.02L129.74 89.19L129.51 89.34L129.29 89.49L129.05 89.63L128.81 89.76L128.57 89.88L128.31 90L128.06 90.1L127.8 90.19L127.53 90.27L127.26 90.34L126.99 90.41L126.71 90.46L126.43 90.5L126.14 90.53L125.86 90.54L125.57 90.55L15.69 90.55L15.4 90.54L15.11 90.53L14.83 90.5L14.54 90.46L14.27 90.41L13.99 90.34L13.72 90.27L13.46 90.19L13.2 90.1L12.94 90L12.69 89.88L12.44 89.76L12.2 89.63L11.97 89.49L11.74 89.34L11.52 89.19L11.3 89.02L11.09 88.85L10.89 88.67L10.7 88.48L10.51 88.29L10.33 88.08L10.15 87.87L9.99 87.66L9.83 87.44L9.69 87.21L9.55 86.97L9.42 86.73L9.29 86.49L9.18 86.24L9.08 85.98L8.99 85.72L8.91 85.45L8.83 85.18L8.77 84.91L8.72 84.63L8.68 84.35L8.65 84.07L8.63 83.78L8.63 83.49L8.63 63.54L8.63 63.25L8.65 62.96L8.68 62.67L8.72 62.39L8.77 62.11L8.83 61.84L8.91 61.57L8.99 61.31L9.08 61.04L9.18 60.79L9.29 60.54L9.42 60.29L9.55 60.05L9.69 59.82L9.83 59.59L9.99 59.37L10.15 59.15L10.33 58.94L10.51 58.74L10.7 58.54L10.89 58.36L11.09 58.18L11.3 58L11.52 57.84L11.74 57.68L11.97 57.53L12.2 57.39L12.44 57.26L12.69 57.14L12.94 57.03L13.2 56.93L13.46 56.84L13.72 56.75L13.99 56.68L14.27 56.62L14.54 56.57L14.83 56.53L15.11 56.5L15.4 56.48L15.69 56.48L125.57 56.48L125.86 56.48L126.14 56.5ZM104.13 8.44L104.41 8.47L104.69 8.51L104.97 8.56L105.24 8.62L105.51 8.7L105.78 8.78L106.04 8.87L106.3 8.97L106.55 9.09L106.79 9.21L107.03 9.34L107.27 9.48L107.5 9.63L107.72 9.78L107.93 9.95L108.14 10.12L108.35 10.3L108.54 10.49L108.73 10.68L108.91 10.89L109.08 11.09L109.25 11.31L109.4 11.53L109.55 11.76L109.69 12L109.82 12.24L109.94 12.48L110.05 12.73L110.16 12.99L110.25 13.25L110.33 13.51L110.4 13.78L110.47 14.06L110.52 14.34L110.56 14.62L110.59 14.9L110.6 15.19L110.61 15.48L110.61 56.48L91.04 56.48L91.04 31.09L91.03 30.9L91.02 30.72L90.99 30.53L90.96 30.36L90.92 30.18L90.88 30.01L90.82 29.84L90.76 29.67L90.69 29.51L90.61 29.35L90.52 29.2L90.43 29.05L90.33 28.91L90.23 28.77L90.12 28.63L90 28.51L89.88 28.38L89.75 28.27L89.62 28.15L89.48 28.05L89.33 27.95L89.18 27.86L89.03 27.77L88.87 27.7L88.71 27.63L88.55 27.56L88.38 27.51L88.2 27.46L88.03 27.42L87.85 27.39L87.67 27.37L87.48 27.35L87.3 27.35L52.07 27.35L51.88 27.35L51.7 27.37L51.51 27.39L51.34 27.42L51.16 27.46L50.99 27.51L50.82 27.56L50.65 27.63L50.49 27.7L50.33 27.77L50.18 27.86L50.03 27.95L49.89 28.05L49.75 28.15L49.61 28.27L49.49 28.38L49.36 28.51L49.25 28.63L49.13 28.77L49.03 28.91L48.93 29.05L48.84 29.2L48.75 29.35L48.68 29.51L48.61 29.67L48.54 29.84L48.49 30.01L48.44 30.18L48.4 30.36L48.37 30.53L48.35 30.72L48.33 30.9L48.33 31.09L48.33 56.48L29.94 56.48L29.94 15.48L29.95 15.19L29.96 14.9L29.99 14.62L30.03 14.34L30.08 14.06L30.15 13.78L30.22 13.51L30.3 13.25L30.39 12.99L30.5 12.73L30.61 12.48L30.73 12.24L30.86 12L31 11.76L31.15 11.53L31.3 11.31L31.47 11.09L31.64 10.89L31.82 10.68L32.01 10.49L32.2 10.3L32.41 10.12L32.62 9.95L32.83 9.78L33.05 9.63L33.28 9.48L33.52 9.34L33.76 9.21L34 9.09L34.25 8.97L34.51 8.87L34.77 8.78L35.04 8.7L35.31 8.62L35.58 8.56L35.86 8.51L36.14 8.47L36.42 8.44L36.71 8.42L37 8.42L103.55 8.42L103.84 8.42L104.13 8.44Z" id="a4MKrRQUKv"></path><path d="M132.62 160.79L132.6 161.08L132.58 161.36L132.54 161.64L132.48 161.92L132.42 162.19L132.35 162.46L132.27 162.73L132.17 162.99L132.07 163.25L131.96 163.5L131.84 163.74L131.71 163.98L131.57 164.22L131.42 164.45L131.26 164.67L131.1 164.88L130.93 165.09L130.75 165.3L130.56 165.49L130.36 165.68L130.16 165.86L129.95 166.03L129.74 166.2L129.51 166.35L129.29 166.5L129.05 166.64L128.81 166.77L128.57 166.89L128.31 167L128.06 167.11L127.8 167.2L127.53 167.28L127.26 167.35L126.99 167.42L126.71 167.47L126.43 167.51L126.14 167.54L125.86 167.55L125.57 167.56L15.69 167.56L15.4 167.55L15.11 167.54L14.83 167.51L14.54 167.47L14.27 167.42L13.99 167.35L13.72 167.28L13.46 167.2L13.2 167.11L12.94 167L12.69 166.89L12.44 166.77L12.2 166.64L11.97 166.5L11.74 166.35L11.52 166.2L11.3 166.03L11.09 165.86L10.89 165.68L10.7 165.49L10.51 165.3L10.33 165.09L10.15 164.88L9.99 164.67L9.83 164.45L9.69 164.22L9.55 163.98L9.42 163.74L9.29 163.5L9.18 163.25L9.08 162.99L8.99 162.73L8.91 162.46L8.83 162.19L8.77 161.92L8.72 161.64L8.68 161.36L8.65 161.08L8.63 160.79L8.63 160.5L8.63 154.23L132.63 154.23L132.63 160.5L132.62 160.79Z" id="eph2jm3ud"></path><mask id="maskaq6z73xLt" x="6.63" y="152.23" width="128" height="17.33" maskUnits="userSpaceOnUse"><rect x="6.63" y="152.23" width="128" height="17.33" fill="white"></rect><use xlink:href="#eph2jm3ud" opacity="1" fill="black"></use></mask><path d="M126.14 56.5L126.43 56.53L126.71 56.57L126.99 56.62L127.26 56.68L127.53 56.75L127.8 56.84L128.06 56.93L128.31 57.03L128.57 57.14L128.81 57.26L129.05 57.39L129.29 57.53L129.51 57.68L129.74 57.84L129.95 58L130.16 58.18L130.36 58.36L130.56 58.54L130.75 58.74L130.93 58.94L131.1 59.15L131.26 59.37L131.42 59.59L131.57 59.82L131.71 60.05L131.84 60.29L131.96 60.54L132.07 60.79L132.17 61.04L132.27 61.31L132.35 61.57L132.42 61.84L132.48 62.11L132.54 62.39L132.58 62.67L132.6 62.96L132.62 63.25L132.63 63.54L132.63 69.81L8.63 69.81L8.63 63.54L8.63 63.25L8.65 62.96L8.68 62.67L8.72 62.39L8.77 62.11L8.83 61.84L8.91 61.57L8.99 61.31L9.08 61.04L9.18 60.79L9.29 60.54L9.42 60.29L9.55 60.05L9.69 59.82L9.83 59.59L9.99 59.37L10.15 59.15L10.33 58.94L10.51 58.74L10.7 58.54L10.89 58.36L11.09 58.18L11.3 58L11.52 57.84L11.74 57.68L11.97 57.53L12.2 57.39L12.44 57.26L12.69 57.14L12.94 57.03L13.2 56.93L13.46 56.84L13.72 56.75L13.99 56.68L14.27 56.62L14.54 56.57L14.83 56.53L15.11 56.5L15.4 56.48L15.69 56.48L125.57 56.48L125.86 56.48L126.14 56.5Z" id="a1BS9IaEZG"></path><mask id="maskd1wSrKbY3z" x="6.63" y="54.48" width="128" height="17.33" maskUnits="userSpaceOnUse"><rect x="6.63" y="54.48" width="128" height="17.33" fill="white"></rect><use xlink:href="#a1BS9IaEZG" opacity="1" fill="black"></use></mask><path d="M15.69 167.56L15.4 167.55L15.11 167.54L14.83 167.51L14.54 167.47L14.27 167.42L13.99 167.35L13.72 167.28L13.46 167.2L13.2 167.11L12.94 167L12.69 166.89L12.44 166.77L12.2 166.64L11.97 166.5L11.74 166.35L11.52 166.2L11.3 166.03L11.09 165.86L10.89 165.68L10.7 165.49L10.51 165.3L10.33 165.09L10.15 164.88L9.99 164.67L9.83 164.45L9.69 164.22L9.55 163.98L9.42 163.74L9.29 163.5L9.18 163.25L9.08 162.99L8.99 162.73L8.91 162.46L8.83 162.19L8.77 161.92L8.72 161.64L8.68 161.36L8.65 161.08L8.63 160.79L8.63 160.5L8.63 140.55L8.63 140.26L8.65 139.97L8.68 139.68L8.72 139.4L8.77 139.12L8.83 138.85L8.91 138.58L8.99 138.31L9.08 138.05L9.18 137.8L9.29 137.55L9.42 137.3L9.55 137.06L9.69 136.83L9.83 136.6L9.99 136.38L10.15 136.16L10.33 135.95L10.51 135.75L10.7 135.55L10.89 135.37L11.09 135.18L11.3 135.01L11.52 134.85L11.74 134.69L11.97 134.54L12.2 134.4L12.44 134.27L12.69 134.15L12.94 134.04L13.2 133.94L13.46 133.84L13.72 133.76L13.99 133.69L14.27 133.63L14.54 133.58L14.83 133.54L15.11 133.51L15.4 133.49L15.69 133.48L70.63 133.48L70.63 167.56L15.69 167.56ZM15.69 129.05L15.4 129.04L15.11 129.03L14.83 129L14.54 128.96L14.27 128.91L13.99 128.85L13.72 128.77L13.46 128.69L13.2 128.6L12.94 128.5L12.69 128.38L12.44 128.26L12.2 128.13L11.97 127.99L11.74 127.84L11.52 127.69L11.3 127.52L11.09 127.35L10.89 127.17L10.7 126.98L10.51 126.79L10.33 126.58L10.15 126.38L9.99 126.16L9.83 125.94L9.69 125.71L9.55 125.47L9.42 125.23L9.29 124.99L9.18 124.74L9.08 124.48L8.99 124.22L8.91 123.96L8.83 123.69L8.77 123.41L8.72 123.13L8.68 122.85L8.65 122.57L8.63 122.28L8.63 121.99L8.63 102.04L8.63 101.75L8.65 101.46L8.68 101.17L8.72 100.89L8.77 100.62L8.83 100.34L8.91 100.07L8.99 99.81L9.08 99.55L9.18 99.29L9.29 99.04L9.42 98.79L9.55 98.55L9.69 98.32L9.83 98.09L9.99 97.87L10.15 97.65L10.33 97.44L10.51 97.24L10.7 97.04L10.89 96.86L11.09 96.68L11.3 96.5L11.52 96.34L11.74 96.18L11.97 96.03L12.2 95.89L12.44 95.76L12.69 95.64L12.94 95.53L13.2 95.43L13.46 95.34L13.72 95.25L13.99 95.18L14.27 95.12L14.54 95.07L14.83 95.03L15.11 95L15.4 94.98L15.69 94.98L70.63 94.98L70.63 129.05L15.69 129.05ZM52.07 27.35L51.88 27.35L51.7 27.37L51.51 27.39L51.34 27.42L51.16 27.46L50.99 27.51L50.82 27.56L50.65 27.63L50.49 27.7L50.33 27.77L50.18 27.86L50.03 27.95L49.89 28.05L49.75 28.15L49.61 28.27L49.49 28.38L49.36 28.51L49.25 28.63L49.13 28.77L49.03 28.91L48.93 29.05L48.84 29.2L48.75 29.35L48.68 29.51L48.61 29.67L48.54 29.84L48.49 30.01L48.44 30.18L48.4 30.36L48.37 30.53L48.35 30.72L48.33 30.9L48.33 31.09L48.33 56.48L70.63 56.48L70.63 90.55L15.69 90.55L15.4 90.54L15.11 90.53L14.83 90.5L14.54 90.46L14.27 90.41L13.99 90.34L13.72 90.27L13.46 90.19L13.2 90.1L12.94 90L12.69 89.88L12.44 89.76L12.2 89.63L11.97 89.49L11.74 89.34L11.52 89.19L11.3 89.02L11.09 88.85L10.89 88.67L10.7 88.48L10.51 88.29L10.33 88.08L10.15 87.87L9.99 87.66L9.83 87.44L9.69 87.21L9.55 86.97L9.42 86.73L9.29 86.49L9.18 86.24L9.08 85.98L8.99 85.72L8.91 85.45L8.83 85.18L8.77 84.91L8.72 84.63L8.68 84.35L8.65 84.07L8.63 83.78L8.63 83.49L8.63 63.54L8.63 63.25L8.65 62.96L8.68 62.67L8.72 62.39L8.77 62.11L8.83 61.84L8.91 61.57L8.99 61.31L9.08 61.04L9.18 60.79L9.29 60.54L9.42 60.29L9.55 60.05L9.69 59.82L9.83 59.59L9.99 59.37L10.15 59.15L10.33 58.94L10.51 58.74L10.7 58.54L10.89 58.36L11.09 58.18L11.3 58L11.52 57.84L11.74 57.68L11.97 57.53L12.2 57.39L12.44 57.26L12.69 57.14L12.94 57.03L13.2 56.93L13.46 56.84L13.72 56.75L13.99 56.68L14.27 56.62L14.54 56.57L14.83 56.53L15.11 56.5L15.4 56.48L15.69 56.48L29.94 56.48L29.94 15.48L29.95 15.19L29.96 14.9L29.99 14.62L30.03 14.34L30.08 14.06L30.15 13.78L30.22 13.51L30.3 13.25L30.39 12.99L30.5 12.73L30.61 12.48L30.73 12.24L30.86 12L31 11.76L31.15 11.53L31.3 11.31L31.47 11.09L31.64 10.89L31.82 10.68L32.01 10.49L32.2 10.3L32.41 10.12L32.62 9.95L32.83 9.78L33.05 9.63L33.28 9.48L33.52 9.34L33.76 9.21L34 9.09L34.25 8.97L34.51 8.87L34.77 8.78L35.04 8.7L35.31 8.62L35.58 8.56L35.86 8.51L36.14 8.47L36.42 8.44L36.71 8.42L37 8.42L70.63 8.42L70.63 27.35L52.07 27.35Z" id="ae6uqUvmq"></path><path d="M181.27 16.13L182.79 16.28L184.28 16.5L185.75 16.77L187.21 17.1L188.64 17.48L190.05 17.92L191.43 18.41L192.79 18.95L194.12 19.55L195.43 20.19L196.7 20.89L197.95 21.63L199.16 22.41L200.34 23.24L201.49 24.12L202.6 25.04L203.67 25.99L204.71 26.99L205.71 28.03L206.67 29.11L207.59 30.22L208.46 31.36L209.29 32.54L210.08 33.76L210.82 35L211.51 36.28L212.16 37.58L212.75 38.91L213.3 40.27L213.79 41.66L214.23 43.07L214.61 44.5L214.94 45.95L215.21 47.43L215.42 48.92L215.58 50.43L215.67 51.96L215.7 53.5L215.67 55.05L215.58 56.58L215.42 58.09L215.21 59.58L214.94 61.06L214.61 62.51L214.23 63.94L213.79 65.35L213.3 66.74L212.75 68.1L212.16 69.43L211.51 70.73L210.82 72.01L210.08 73.25L209.29 74.47L208.46 75.65L207.59 76.79L206.67 77.9L205.71 78.98L204.71 80.02L203.67 81.01L202.6 81.97L201.49 82.89L200.34 83.77L199.16 84.6L197.95 85.38L196.7 86.12L195.43 86.82L194.12 87.46L193.47 87.75L193.47 160.8L193.47 160.98L193.46 161.15L193.44 161.32L193.42 161.5L193.39 161.66L193.35 161.83L193.3 162L193.25 162.16L193.2 162.32L193.14 162.47L193.07 162.62L192.99 162.77L192.91 162.92L192.83 163.06L192.74 163.2L192.64 163.34L192.54 163.47L192.44 163.59L192.33 163.72L192.21 163.84L192.1 163.95L191.97 164.06L191.84 164.17L191.71 164.27L191.58 164.36L191.44 164.45L191.3 164.54L191.15 164.62L191 164.69L190.85 164.76L190.69 164.82L190.53 164.88L190.37 164.93L190.21 164.97L190.04 165.01L189.87 165.04L189.7 165.06L189.53 165.08L189.35 165.09L189.18 165.1L176.65 165.1L162.93 151.37L162.93 141.6L168.51 136.01L168.76 135.74L168.99 135.45L169.18 135.15L169.35 134.83L169.49 134.51L169.6 134.18L169.68 133.84L169.74 133.49L169.77 133.15L169.77 132.8L169.74 132.45L169.68 132.11L169.6 131.77L169.49 131.44L169.35 131.12L169.18 130.8L168.99 130.5L168.76 130.21L168.51 129.94L162.93 124.35L162.93 117.27L169.54 110.66L169.79 110.39L170.01 110.1L170.2 109.8L170.37 109.49L170.51 109.16L170.62 108.83L170.71 108.49L170.76 108.15L170.79 107.8L170.79 107.45L170.76 107.11L170.71 106.76L170.62 106.42L170.51 106.09L170.37 105.77L170.2 105.45L170.01 105.15L169.79 104.86L169.54 104.59L162.93 97.98L162.93 87.75L162.28 87.46L160.97 86.82L159.7 86.12L158.45 85.38L157.24 84.6L156.06 83.77L154.91 82.89L153.8 81.97L152.73 81.01L151.69 80.02L150.69 78.98L149.73 77.9L148.81 76.79L147.94 75.65L147.11 74.47L146.32 73.25L145.58 72.01L144.89 70.73L144.24 69.43L143.65 68.1L143.1 66.74L142.61 65.35L142.17 63.94L141.79 62.51L141.46 61.06L141.19 59.58L140.98 58.09L140.82 56.58L140.73 55.05L140.7 53.5L140.73 51.96L140.82 50.43L140.98 48.92L141.19 47.43L141.46 45.95L141.79 44.5L142.17 43.07L142.61 41.66L143.1 40.27L143.65 38.91L144.24 37.58L144.89 36.28L145.58 35L146.32 33.76L147.11 32.54L147.94 31.36L148.81 30.22L149.73 29.11L150.69 28.03L151.69 26.99L152.73 25.99L153.8 25.04L154.91 24.12L156.06 23.24L157.24 22.41L158.45 21.63L159.7 20.89L160.97 20.19L162.28 19.55L163.61 18.95L164.97 18.41L166.35 17.92L167.76 17.48L169.19 17.1L170.65 16.77L172.12 16.5L173.61 16.28L175.13 16.13L176.66 16.04L178.2 16L179.74 16.04L181.27 16.13ZM175.56 28.51L174.27 28.68L173.01 28.91L171.76 29.21L170.54 29.56L169.35 29.98L168.18 30.46L167.05 30.99L165.95 31.58L164.88 32.22L163.84 32.9L162.85 33.64L161.89 34.43L160.97 35.26L160.09 36.14L159.26 37.06L158.48 38.01L157.74 39.01L157.05 40.05L156.41 41.11L155.82 42.22L155.33 43.28L201.07 43.28L200.58 42.22L199.99 41.11L199.35 40.05L198.66 39.01L197.92 38.01L197.14 37.06L196.31 36.14L195.43 35.26L194.51 34.43L193.55 33.64L192.56 32.9L191.52 32.22L190.45 31.58L189.35 30.99L188.22 30.46L187.05 29.98L185.86 29.56L184.64 29.21L183.39 28.91L182.13 28.68L180.84 28.51L179.53 28.4L178.2 28.37L176.87 28.4L175.56 28.51Z" id="bnTy6xvjC"></path><path d="M179.83 92.91L187.1 92.91L187.1 165.1L179.83 165.1L179.83 92.91Z" id="b1vgGzqXyQ"></path><path d="M139.47 6.3L174.08 6.3L174.08 173.78L139.47 173.78L139.47 6.3Z" id="c1ABd2PZce"></path><path d="M173.01 28.68L171.76 28.98L170.54 29.33L169.35 29.75L168.18 30.23L167.05 30.76L165.95 31.35L164.88 31.98L163.84 32.67L162.85 33.41L161.89 34.2L160.97 35.03L160.09 35.91L159.26 36.82L158.48 37.78L157.74 38.78L157.05 39.81L156.41 40.88L155.82 41.99L155.33 43.05L174.08 43.05L174.08 162.3L162.93 151.14L162.93 141.37L168.51 135.78L168.76 135.51L168.99 135.22L169.18 134.92L169.35 134.6L169.49 134.28L169.6 133.95L169.68 133.61L169.74 133.26L169.77 132.92L169.77 132.57L169.74 132.22L169.68 131.88L169.6 131.54L169.49 131.21L169.35 130.88L169.18 130.57L168.99 130.27L168.76 129.98L168.51 129.71L162.93 124.12L162.93 117.04L169.54 110.43L169.79 110.16L170.01 109.87L170.2 109.57L170.37 109.25L170.51 108.93L170.62 108.6L170.71 108.26L170.76 107.92L170.79 107.57L170.79 107.22L170.76 106.88L170.71 106.53L170.62 106.19L170.51 105.86L170.37 105.54L170.2 105.22L170.01 104.92L169.79 104.63L169.54 104.36L162.93 97.75L162.93 87.52L162.28 87.23L160.97 86.59L159.7 85.89L158.45 85.15L157.24 84.37L156.06 83.53L154.91 82.66L153.8 81.74L152.73 80.78L151.69 79.79L150.69 78.75L149.73 77.67L148.81 76.56L147.94 75.42L147.11 74.23L146.32 73.02L145.58 71.78L144.89 70.5L144.24 69.2L143.65 67.86L143.1 66.51L142.61 65.12L142.17 63.71L141.79 62.28L141.46 60.83L141.19 59.35L140.98 57.86L140.82 56.35L140.73 54.82L140.7 53.27L140.73 51.73L140.82 50.2L140.98 48.69L141.19 47.19L141.46 45.72L141.79 44.27L142.17 42.84L142.61 41.43L143.1 40.04L143.65 38.68L144.24 37.35L144.89 36.05L145.58 34.77L146.32 33.53L147.11 32.31L147.94 31.13L148.81 29.99L149.73 28.88L150.69 27.8L151.69 26.76L152.73 25.76L153.8 24.81L154.91 23.89L156.06 23.01L157.24 22.18L158.45 21.4L159.7 20.66L160.97 19.96L162.28 19.32L163.61 18.72L164.97 18.18L166.35 17.69L167.76 17.25L169.19 16.86L170.65 16.54L172.12 16.27L173.61 16.05L174.08 16L174.08 28.48L173.01 28.68Z" id="a1cZug7fvn"></path></defs><g><g><g><use xlink:href="#b1tSbjUJLy" opacity="1" fill="#898383" fill-opacity="1"></use></g><g><g><filter id="shadow7887983" x="-0.37" y="-0.58" width="142" height="178.14" filterUnits="userSpaceOnUse" primitiveUnits="userSpaceOnUse"><feFlood></feFlood><feComposite in2="SourceAlpha" operator="in"></feComposite><feGaussianBlur stdDeviation="1"></feGaussianBlur><feOffset dx="0" dy="1" result="afterOffset"></feOffset><feFlood flood-color="#000000" flood-opacity="0.5"></feFlood><feComposite in2="afterOffset" operator="in"></feComposite><feMorphology operator="dilate" radius="1"></feMorphology><feComposite in2="SourceAlpha" operator="out"></feComposite></filter><path d="M126.14 133.51L126.43 133.54L126.71 133.58L126.99 133.63L127.26 133.69L127.53 133.76L127.8 133.84L128.06 133.94L128.31 134.04L128.57 134.15L128.81 134.27L129.05 134.4L129.29 134.54L129.51 134.69L129.74 134.85L129.95 135.01L130.16 135.18L130.36 135.37L130.56 135.55L130.75 135.75L130.93 135.95L131.1 136.16L131.26 136.38L131.42 136.6L131.57 136.83L131.71 137.06L131.84 137.3L131.96 137.55L132.07 137.8L132.17 138.05L132.27 138.31L132.35 138.58L132.42 138.85L132.48 139.12L132.54 139.4L132.58 139.68L132.6 139.97L132.62 140.26L132.63 140.55L132.63 160.5L132.62 160.79L132.6 161.08L132.58 161.36L132.54 161.64L132.48 161.92L132.42 162.19L132.35 162.46L132.27 162.73L132.17 162.99L132.07 163.25L131.96 163.5L131.84 163.74L131.71 163.98L131.57 164.22L131.42 164.45L131.26 164.67L131.1 164.88L130.93 165.09L130.75 165.3L130.56 165.49L130.36 165.68L130.16 165.86L129.95 166.03L129.74 166.2L129.51 166.35L129.29 166.5L129.05 166.64L128.81 166.77L128.57 166.89L128.31 167L128.06 167.11L127.8 167.2L127.53 167.28L127.26 167.35L126.99 167.42L126.71 167.47L126.43 167.51L126.14 167.54L125.86 167.55L125.57 167.56L15.69 167.56L15.4 167.55L15.11 167.54L14.83 167.51L14.54 167.47L14.27 167.42L13.99 167.35L13.72 167.28L13.46 167.2L13.2 167.11L12.94 167L12.69 166.89L12.44 166.77L12.2 166.64L11.97 166.5L11.74 166.35L11.52 166.2L11.3 166.03L11.09 165.86L10.89 165.68L10.7 165.49L10.51 165.3L10.33 165.09L10.15 164.88L9.99 164.67L9.83 164.45L9.69 164.22L9.55 163.98L9.42 163.74L9.29 163.5L9.18 163.25L9.08 162.99L8.99 162.73L8.91 162.46L8.83 162.19L8.77 161.92L8.72 161.64L8.68 161.36L8.65 161.08L8.63 160.79L8.63 160.5L8.63 140.55L8.63 140.26L8.65 139.97L8.68 139.68L8.72 139.4L8.77 139.12L8.83 138.85L8.91 138.58L8.99 138.31L9.08 138.05L9.18 137.8L9.29 137.55L9.42 137.3L9.55 137.06L9.69 136.83L9.83 136.6L9.99 136.38L10.15 136.16L10.33 135.95L10.51 135.75L10.7 135.55L10.89 135.37L11.09 135.18L11.3 135.01L11.52 134.85L11.74 134.69L11.97 134.54L12.2 134.4L12.44 134.27L12.69 134.15L12.94 134.04L13.2 133.94L13.46 133.84L13.72 133.76L13.99 133.69L14.27 133.63L14.54 133.58L14.83 133.54L15.11 133.51L15.4 133.49L15.69 133.48L125.57 133.48L125.86 133.49L126.14 133.51ZM126.14 95L126.43 95.03L126.71 95.07L126.99 95.12L127.26 95.18L127.53 95.25L127.8 95.34L128.06 95.43L128.31 95.53L128.57 95.64L128.81 95.76L129.05 95.89L129.29 96.03L129.51 96.18L129.74 96.34L129.95 96.5L130.16 96.68L130.36 96.86L130.56 97.04L130.75 97.24L130.93 97.44L131.1 97.65L131.26 97.87L131.42 98.09L131.57 98.32L131.71 98.55L131.84 98.79L131.96 99.04L132.07 99.29L132.17 99.55L132.27 99.81L132.35 100.07L132.42 100.34L132.48 100.62L132.54 100.89L132.58 101.17L132.6 101.46L132.62 101.75L132.63 102.04L132.63 121.99L132.62 122.28L132.6 122.57L132.58 122.85L132.54 123.13L132.48 123.41L132.42 123.69L132.35 123.96L132.27 124.22L132.17 124.48L132.07 124.74L131.96 124.99L131.84 125.23L131.71 125.47L131.57 125.71L131.42 125.94L131.26 126.16L131.1 126.38L130.93 126.58L130.75 126.79L130.56 126.98L130.36 127.17L130.16 127.35L129.95 127.52L129.74 127.69L129.51 127.84L129.29 127.99L129.05 128.13L128.81 128.26L128.57 128.38L128.31 128.5L128.06 128.6L127.8 128.69L127.53 128.77L127.26 128.85L126.99 128.91L126.71 128.96L126.43 129L126.14 129.03L125.86 129.04L125.57 129.05L15.69 129.05L15.4 129.04L15.11 129.03L14.83 129L14.54 128.96L14.27 128.91L13.99 128.85L13.72 128.77L13.46 128.69L13.2 128.6L12.94 128.5L12.69 128.38L12.44 128.26L12.2 128.13L11.97 127.99L11.74 127.84L11.52 127.69L11.3 127.52L11.09 127.35L10.89 127.17L10.7 126.98L10.51 126.79L10.33 126.58L10.15 126.38L9.99 126.16L9.83 125.94L9.69 125.71L9.55 125.47L9.42 125.23L9.29 124.99L9.18 124.74L9.08 124.48L8.99 124.22L8.91 123.96L8.83 123.69L8.77 123.41L8.72 123.13L8.68 122.85L8.65 122.57L8.63 122.28L8.63 121.99L8.63 102.04L8.63 101.75L8.65 101.46L8.68 101.17L8.72 100.89L8.77 100.62L8.83 100.34L8.91 100.07L8.99 99.81L9.08 99.55L9.18 99.29L9.29 99.04L9.42 98.79L9.55 98.55L9.69 98.32L9.83 98.09L9.99 97.87L10.15 97.65L10.33 97.44L10.51 97.24L10.7 97.04L10.89 96.86L11.09 96.68L11.3 96.5L11.52 96.34L11.74 96.18L11.97 96.03L12.2 95.89L12.44 95.76L12.69 95.64L12.94 95.53L13.2 95.43L13.46 95.34L13.72 95.25L13.99 95.18L14.27 95.12L14.54 95.07L14.83 95.03L15.11 95L15.4 94.98L15.69 94.98L125.57 94.98L125.86 94.98L126.14 95ZM126.14 56.5L126.43 56.53L126.71 56.57L126.99 56.62L127.26 56.68L127.53 56.75L127.8 56.84L128.06 56.93L128.31 57.03L128.57 57.14L128.81 57.26L129.05 57.39L129.29 57.53L129.51 57.68L129.74 57.84L129.95 58L130.16 58.18L130.36 58.36L130.56 58.54L130.75 58.74L130.93 58.94L131.1 59.15L131.26 59.37L131.42 59.59L131.57 59.82L131.71 60.05L131.84 60.29L131.96 60.54L132.07 60.79L132.17 61.04L132.27 61.31L132.35 61.57L132.42 61.84L132.48 62.11L132.54 62.39L132.58 62.67L132.6 62.96L132.62 63.25L132.63 63.54L132.63 83.49L132.62 83.78L132.6 84.07L132.58 84.35L132.54 84.63L132.48 84.91L132.42 85.18L132.35 85.45L132.27 85.72L132.17 85.98L132.07 86.24L131.96 86.49L131.84 86.73L131.71 86.97L131.57 87.21L131.42 87.44L131.26 87.66L131.1 87.87L130.93 88.08L130.75 88.29L130.56 88.48L130.36 88.67L130.16 88.85L129.95 89.02L129.74 89.19L129.51 89.34L129.29 89.49L129.05 89.63L128.81 89.76L128.57 89.88L128.31 90L128.06 90.1L127.8 90.19L127.53 90.27L127.26 90.34L126.99 90.41L126.71 90.46L126.43 90.5L126.14 90.53L125.86 90.54L125.57 90.55L15.69 90.55L15.4 90.54L15.11 90.53L14.83 90.5L14.54 90.46L14.27 90.41L13.99 90.34L13.72 90.27L13.46 90.19L13.2 90.1L12.94 90L12.69 89.88L12.44 89.76L12.2 89.63L11.97 89.49L11.74 89.34L11.52 89.19L11.3 89.02L11.09 88.85L10.89 88.67L10.7 88.48L10.51 88.29L10.33 88.08L10.15 87.87L9.99 87.66L9.83 87.44L9.69 87.21L9.55 86.97L9.42 86.73L9.29 86.49L9.18 86.24L9.08 85.98L8.99 85.72L8.91 85.45L8.83 85.18L8.77 84.91L8.72 84.63L8.68 84.35L8.65 84.07L8.63 83.78L8.63 83.49L8.63 63.54L8.63 63.25L8.65 62.96L8.68 62.67L8.72 62.39L8.77 62.11L8.83 61.84L8.91 61.57L8.99 61.31L9.08 61.04L9.18 60.79L9.29 60.54L9.42 60.29L9.55 60.05L9.69 59.82L9.83 59.59L9.99 59.37L10.15 59.15L10.33 58.94L10.51 58.74L10.7 58.54L10.89 58.36L11.09 58.18L11.3 58L11.52 57.84L11.74 57.68L11.97 57.53L12.2 57.39L12.44 57.26L12.69 57.14L12.94 57.03L13.2 56.93L13.46 56.84L13.72 56.75L13.99 56.68L14.27 56.62L14.54 56.57L14.83 56.53L15.11 56.5L15.4 56.48L15.69 56.48L125.57 56.48L125.86 56.48L126.14 56.5ZM104.13 8.44L104.41 8.47L104.69 8.51L104.97 8.56L105.24 8.62L105.51 8.7L105.78 8.78L106.04 8.87L106.3 8.97L106.55 9.09L106.79 9.21L107.03 9.34L107.27 9.48L107.5 9.63L107.72 9.78L107.93 9.95L108.14 10.12L108.35 10.3L108.54 10.49L108.73 10.68L108.91 10.89L109.08 11.09L109.25 11.31L109.4 11.53L109.55 11.76L109.69 12L109.82 12.24L109.94 12.48L110.05 12.73L110.16 12.99L110.25 13.25L110.33 13.51L110.4 13.78L110.47 14.06L110.52 14.34L110.56 14.62L110.59 14.9L110.6 15.19L110.61 15.48L110.61 56.48L91.04 56.48L91.04 31.09L91.03 30.9L91.02 30.72L90.99 30.53L90.96 30.36L90.92 30.18L90.88 30.01L90.82 29.84L90.76 29.67L90.69 29.51L90.61 29.35L90.52 29.2L90.43 29.05L90.33 28.91L90.23 28.77L90.12 28.63L90 28.51L89.88 28.38L89.75 28.27L89.62 28.15L89.48 28.05L89.33 27.95L89.18 27.86L89.03 27.77L88.87 27.7L88.71 27.63L88.55 27.56L88.38 27.51L88.2 27.46L88.03 27.42L87.85 27.39L87.67 27.37L87.48 27.35L87.3 27.35L52.07 27.35L51.88 27.35L51.7 27.37L51.51 27.39L51.34 27.42L51.16 27.46L50.99 27.51L50.82 27.56L50.65 27.63L50.49 27.7L50.33 27.77L50.18 27.86L50.03 27.95L49.89 28.05L49.75 28.15L49.61 28.27L49.49 28.38L49.36 28.51L49.25 28.63L49.13 28.77L49.03 28.91L48.93 29.05L48.84 29.2L48.75 29.35L48.68 29.51L48.61 29.67L48.54 29.84L48.49 30.01L48.44 30.18L48.4 30.36L48.37 30.53L48.35 30.72L48.33 30.9L48.33 31.09L48.33 56.48L29.94 56.48L29.94 15.48L29.95 15.19L29.96 14.9L29.99 14.62L30.03 14.34L30.08 14.06L30.15 13.78L30.22 13.51L30.3 13.25L30.39 12.99L30.5 12.73L30.61 12.48L30.73 12.24L30.86 12L31 11.76L31.15 11.53L31.3 11.31L31.47 11.09L31.64 10.89L31.82 10.68L32.01 10.49L32.2 10.3L32.41 10.12L32.62 9.95L32.83 9.78L33.05 9.63L33.28 9.48L33.52 9.34L33.76 9.21L34 9.09L34.25 8.97L34.51 8.87L34.77 8.78L35.04 8.7L35.31 8.62L35.58 8.56L35.86 8.51L36.14 8.47L36.42 8.44L36.71 8.42L37 8.42L103.55 8.42L103.84 8.42L104.13 8.44Z" id="a3vAeD7Qo5" fill="white" fill-opacity="1" filter="url(#shadow7887983)"></path></g><use xlink:href="#a4MKrRQUKv" opacity="1" fill="#c9c9c9" fill-opacity="1"></use><g><filter id="shadow8790870" x="1.63" y="1.42" width="139" height="174.14" filterUnits="userSpaceOnUse" primitiveUnits="userSpaceOnUse"><feFlood></feFlood><feComposite in2="SourceAlpha" operator="out"></feComposite><feGaussianBlur stdDeviation="0"></feGaussianBlur><feOffset dx="1" dy="1" result="afterOffset"></feOffset><feFlood flood-color="#ffffff" flood-opacity="0.8"></feFlood><feComposite in2="afterOffset" operator="in"></feComposite><feMorphology operator="dilate" radius="1"></feMorphology><feComposite in2="SourceAlpha" operator="in"></feComposite></filter><path d="M126.14 133.51L126.43 133.54L126.71 133.58L126.99 133.63L127.26 133.69L127.53 133.76L127.8 133.84L128.06 133.94L128.31 134.04L128.57 134.15L128.81 134.27L129.05 134.4L129.29 134.54L129.51 134.69L129.74 134.85L129.95 135.01L130.16 135.18L130.36 135.37L130.56 135.55L130.75 135.75L130.93 135.95L131.1 136.16L131.26 136.38L131.42 136.6L131.57 136.83L131.71 137.06L131.84 137.3L131.96 137.55L132.07 137.8L132.17 138.05L132.27 138.31L132.35 138.58L132.42 138.85L132.48 139.12L132.54 139.4L132.58 139.68L132.6 139.97L132.62 140.26L132.63 140.55L132.63 160.5L132.62 160.79L132.6 161.08L132.58 161.36L132.54 161.64L132.48 161.92L132.42 162.19L132.35 162.46L132.27 162.73L132.17 162.99L132.07 163.25L131.96 163.5L131.84 163.74L131.71 163.98L131.57 164.22L131.42 164.45L131.26 164.67L131.1 164.88L130.93 165.09L130.75 165.3L130.56 165.49L130.36 165.68L130.16 165.86L129.95 166.03L129.74 166.2L129.51 166.35L129.29 166.5L129.05 166.64L128.81 166.77L128.57 166.89L128.31 167L128.06 167.11L127.8 167.2L127.53 167.28L127.26 167.35L126.99 167.42L126.71 167.47L126.43 167.51L126.14 167.54L125.86 167.55L125.57 167.56L15.69 167.56L15.4 167.55L15.11 167.54L14.83 167.51L14.54 167.47L14.27 167.42L13.99 167.35L13.72 167.28L13.46 167.2L13.2 167.11L12.94 167L12.69 166.89L12.44 166.77L12.2 166.64L11.97 166.5L11.74 166.35L11.52 166.2L11.3 166.03L11.09 165.86L10.89 165.68L10.7 165.49L10.51 165.3L10.33 165.09L10.15 164.88L9.99 164.67L9.83 164.45L9.69 164.22L9.55 163.98L9.42 163.74L9.29 163.5L9.18 163.25L9.08 162.99L8.99 162.73L8.91 162.46L8.83 162.19L8.77 161.92L8.72 161.64L8.68 161.36L8.65 161.08L8.63 160.79L8.63 160.5L8.63 140.55L8.63 140.26L8.65 139.97L8.68 139.68L8.72 139.4L8.77 139.12L8.83 138.85L8.91 138.58L8.99 138.31L9.08 138.05L9.18 137.8L9.29 137.55L9.42 137.3L9.55 137.06L9.69 136.83L9.83 136.6L9.99 136.38L10.15 136.16L10.33 135.95L10.51 135.75L10.7 135.55L10.89 135.37L11.09 135.18L11.3 135.01L11.52 134.85L11.74 134.69L11.97 134.54L12.2 134.4L12.44 134.27L12.69 134.15L12.94 134.04L13.2 133.94L13.46 133.84L13.72 133.76L13.99 133.69L14.27 133.63L14.54 133.58L14.83 133.54L15.11 133.51L15.4 133.49L15.69 133.48L125.57 133.48L125.86 133.49L126.14 133.51ZM126.14 95L126.43 95.03L126.71 95.07L126.99 95.12L127.26 95.18L127.53 95.25L127.8 95.34L128.06 95.43L128.31 95.53L128.57 95.64L128.81 95.76L129.05 95.89L129.29 96.03L129.51 96.18L129.74 96.34L129.95 96.5L130.16 96.68L130.36 96.86L130.56 97.04L130.75 97.24L130.93 97.44L131.1 97.65L131.26 97.87L131.42 98.09L131.57 98.32L131.71 98.55L131.84 98.79L131.96 99.04L132.07 99.29L132.17 99.55L132.27 99.81L132.35 100.07L132.42 100.34L132.48 100.62L132.54 100.89L132.58 101.17L132.6 101.46L132.62 101.75L132.63 102.04L132.63 121.99L132.62 122.28L132.6 122.57L132.58 122.85L132.54 123.13L132.48 123.41L132.42 123.69L132.35 123.96L132.27 124.22L132.17 124.48L132.07 124.74L131.96 124.99L131.84 125.23L131.71 125.47L131.57 125.71L131.42 125.94L131.26 126.16L131.1 126.38L130.93 126.58L130.75 126.79L130.56 126.98L130.36 127.17L130.16 127.35L129.95 127.52L129.74 127.69L129.51 127.84L129.29 127.99L129.05 128.13L128.81 128.26L128.57 128.38L128.31 128.5L128.06 128.6L127.8 128.69L127.53 128.77L127.26 128.85L126.99 128.91L126.71 128.96L126.43 129L126.14 129.03L125.86 129.04L125.57 129.05L15.69 129.05L15.4 129.04L15.11 129.03L14.83 129L14.54 128.96L14.27 128.91L13.99 128.85L13.72 128.77L13.46 128.69L13.2 128.6L12.94 128.5L12.69 128.38L12.44 128.26L12.2 128.13L11.97 127.99L11.74 127.84L11.52 127.69L11.3 127.52L11.09 127.35L10.89 127.17L10.7 126.98L10.51 126.79L10.33 126.58L10.15 126.38L9.99 126.16L9.83 125.94L9.69 125.71L9.55 125.47L9.42 125.23L9.29 124.99L9.18 124.74L9.08 124.48L8.99 124.22L8.91 123.96L8.83 123.69L8.77 123.41L8.72 123.13L8.68 122.85L8.65 122.57L8.63 122.28L8.63 121.99L8.63 102.04L8.63 101.75L8.65 101.46L8.68 101.17L8.72 100.89L8.77 100.62L8.83 100.34L8.91 100.07L8.99 99.81L9.08 99.55L9.18 99.29L9.29 99.04L9.42 98.79L9.55 98.55L9.69 98.32L9.83 98.09L9.99 97.87L10.15 97.65L10.33 97.44L10.51 97.24L10.7 97.04L10.89 96.86L11.09 96.68L11.3 96.5L11.52 96.34L11.74 96.18L11.97 96.03L12.2 95.89L12.44 95.76L12.69 95.64L12.94 95.53L13.2 95.43L13.46 95.34L13.72 95.25L13.99 95.18L14.27 95.12L14.54 95.07L14.83 95.03L15.11 95L15.4 94.98L15.69 94.98L125.57 94.98L125.86 94.98L126.14 95ZM126.14 56.5L126.43 56.53L126.71 56.57L126.99 56.62L127.26 56.68L127.53 56.75L127.8 56.84L128.06 56.93L128.31 57.03L128.57 57.14L128.81 57.26L129.05 57.39L129.29 57.53L129.51 57.68L129.74 57.84L129.95 58L130.16 58.18L130.36 58.36L130.56 58.54L130.75 58.74L130.93 58.94L131.1 59.15L131.26 59.37L131.42 59.59L131.57 59.82L131.71 60.05L131.84 60.29L131.96 60.54L132.07 60.79L132.17 61.04L132.27 61.31L132.35 61.57L132.42 61.84L132.48 62.11L132.54 62.39L132.58 62.67L132.6 62.96L132.62 63.25L132.63 63.54L132.63 83.49L132.62 83.78L132.6 84.07L132.58 84.35L132.54 84.63L132.48 84.91L132.42 85.18L132.35 85.45L132.27 85.72L132.17 85.98L132.07 86.24L131.96 86.49L131.84 86.73L131.71 86.97L131.57 87.21L131.42 87.44L131.26 87.66L131.1 87.87L130.93 88.08L130.75 88.29L130.56 88.48L130.36 88.67L130.16 88.85L129.95 89.02L129.74 89.19L129.51 89.34L129.29 89.49L129.05 89.63L128.81 89.76L128.57 89.88L128.31 90L128.06 90.1L127.8 90.19L127.53 90.27L127.26 90.34L126.99 90.41L126.71 90.46L126.43 90.5L126.14 90.53L125.86 90.54L125.57 90.55L15.69 90.55L15.4 90.54L15.11 90.53L14.83 90.5L14.54 90.46L14.27 90.41L13.99 90.34L13.72 90.27L13.46 90.19L13.2 90.1L12.94 90L12.69 89.88L12.44 89.76L12.2 89.63L11.97 89.49L11.74 89.34L11.52 89.19L11.3 89.02L11.09 88.85L10.89 88.67L10.7 88.48L10.51 88.29L10.33 88.08L10.15 87.87L9.99 87.66L9.83 87.44L9.69 87.21L9.55 86.97L9.42 86.73L9.29 86.49L9.18 86.24L9.08 85.98L8.99 85.72L8.91 85.45L8.83 85.18L8.77 84.91L8.72 84.63L8.68 84.35L8.65 84.07L8.63 83.78L8.63 83.49L8.63 63.54L8.63 63.25L8.65 62.96L8.68 62.67L8.72 62.39L8.77 62.11L8.83 61.84L8.91 61.57L8.99 61.31L9.08 61.04L9.18 60.79L9.29 60.54L9.42 60.29L9.55 60.05L9.69 59.82L9.83 59.59L9.99 59.37L10.15 59.15L10.33 58.94L10.51 58.74L10.7 58.54L10.89 58.36L11.09 58.18L11.3 58L11.52 57.84L11.74 57.68L11.97 57.53L12.2 57.39L12.44 57.26L12.69 57.14L12.94 57.03L13.2 56.93L13.46 56.84L13.72 56.75L13.99 56.68L14.27 56.62L14.54 56.57L14.83 56.53L15.11 56.5L15.4 56.48L15.69 56.48L125.57 56.48L125.86 56.48L126.14 56.5ZM104.13 8.44L104.41 8.47L104.69 8.51L104.97 8.56L105.24 8.62L105.51 8.7L105.78 8.78L106.04 8.87L106.3 8.97L106.55 9.09L106.79 9.21L107.03 9.34L107.27 9.48L107.5 9.63L107.72 9.78L107.93 9.95L108.14 10.12L108.35 10.3L108.54 10.49L108.73 10.68L108.91 10.89L109.08 11.09L109.25 11.31L109.4 11.53L109.55 11.76L109.69 12L109.82 12.24L109.94 12.48L110.05 12.73L110.16 12.99L110.25 13.25L110.33 13.51L110.4 13.78L110.47 14.06L110.52 14.34L110.56 14.62L110.59 14.9L110.6 15.19L110.61 15.48L110.61 56.48L91.04 56.48L91.04 31.09L91.03 30.9L91.02 30.72L90.99 30.53L90.96 30.36L90.92 30.18L90.88 30.01L90.82 29.84L90.76 29.67L90.69 29.51L90.61 29.35L90.52 29.2L90.43 29.05L90.33 28.91L90.23 28.77L90.12 28.63L90 28.51L89.88 28.38L89.75 28.27L89.62 28.15L89.48 28.05L89.33 27.95L89.18 27.86L89.03 27.77L88.87 27.7L88.71 27.63L88.55 27.56L88.38 27.51L88.2 27.46L88.03 27.42L87.85 27.39L87.67 27.37L87.48 27.35L87.3 27.35L52.07 27.35L51.88 27.35L51.7 27.37L51.51 27.39L51.34 27.42L51.16 27.46L50.99 27.51L50.82 27.56L50.65 27.63L50.49 27.7L50.33 27.77L50.18 27.86L50.03 27.95L49.89 28.05L49.75 28.15L49.61 28.27L49.49 28.38L49.36 28.51L49.25 28.63L49.13 28.77L49.03 28.91L48.93 29.05L48.84 29.2L48.75 29.35L48.68 29.51L48.61 29.67L48.54 29.84L48.49 30.01L48.44 30.18L48.4 30.36L48.37 30.53L48.35 30.72L48.33 30.9L48.33 31.09L48.33 56.48L29.94 56.48L29.94 15.48L29.95 15.19L29.96 14.9L29.99 14.62L30.03 14.34L30.08 14.06L30.15 13.78L30.22 13.51L30.3 13.25L30.39 12.99L30.5 12.73L30.61 12.48L30.73 12.24L30.86 12L31 11.76L31.15 11.53L31.3 11.31L31.47 11.09L31.64 10.89L31.82 10.68L32.01 10.49L32.2 10.3L32.41 10.12L32.62 9.95L32.83 9.78L33.05 9.63L33.28 9.48L33.52 9.34L33.76 9.21L34 9.09L34.25 8.97L34.51 8.87L34.77 8.78L35.04 8.7L35.31 8.62L35.58 8.56L35.86 8.51L36.14 8.47L36.42 8.44L36.71 8.42L37 8.42L103.55 8.42L103.84 8.42L104.13 8.44Z" id="a1cZAGLnyv" fill="white" fill-opacity="1" filter="url(#shadow8790870)"></path></g></g><g><use xlink:href="#eph2jm3ud" opacity="1" fill="#6c62de" fill-opacity="1"></use><g mask="url(#maskaq6z73xLt)"><use xlink:href="#eph2jm3ud" opacity="1" fill-opacity="0" stroke="#4256bd" stroke-width="2" stroke-opacity="1"></use></g></g><g><use xlink:href="#a1BS9IaEZG" opacity="1" fill="#6c62de" fill-opacity="1"></use><g mask="url(#maskd1wSrKbY3z)"><use xlink:href="#a1BS9IaEZG" opacity="1" fill-opacity="0" stroke="#4256bd" stroke-width="2" stroke-opacity="1"></use></g><g><filter id="shadow709311" x="1.63" y="49.48" width="139" height="28.33" filterUnits="userSpaceOnUse" primitiveUnits="userSpaceOnUse"><feFlood></feFlood><feComposite in2="SourceAlpha" operator="out"></feComposite><feGaussianBlur stdDeviation="0"></feGaussianBlur><feOffset dx="1" dy="1" result="afterOffset"></feOffset><feFlood flood-color="#ffffff" flood-opacity="0.8"></feFlood><feComposite in2="afterOffset" operator="in"></feComposite><feMorphology operator="dilate" radius="1"></feMorphology><feComposite in2="SourceAlpha" operator="in"></feComposite></filter><path d="M126.14 56.5L126.43 56.53L126.71 56.57L126.99 56.62L127.26 56.68L127.53 56.75L127.8 56.84L128.06 56.93L128.31 57.03L128.57 57.14L128.81 57.26L129.05 57.39L129.29 57.53L129.51 57.68L129.74 57.84L129.95 58L130.16 58.18L130.36 58.36L130.56 58.54L130.75 58.74L130.93 58.94L131.1 59.15L131.26 59.37L131.42 59.59L131.57 59.82L131.71 60.05L131.84 60.29L131.96 60.54L132.07 60.79L132.17 61.04L132.27 61.31L132.35 61.57L132.42 61.84L132.48 62.11L132.54 62.39L132.58 62.67L132.6 62.96L132.62 63.25L132.63 63.54L132.63 69.81L8.63 69.81L8.63 63.54L8.63 63.25L8.65 62.96L8.68 62.67L8.72 62.39L8.77 62.11L8.83 61.84L8.91 61.57L8.99 61.31L9.08 61.04L9.18 60.79L9.29 60.54L9.42 60.29L9.55 60.05L9.69 59.82L9.83 59.59L9.99 59.37L10.15 59.15L10.33 58.94L10.51 58.74L10.7 58.54L10.89 58.36L11.09 58.18L11.3 58L11.52 57.84L11.74 57.68L11.97 57.53L12.2 57.39L12.44 57.26L12.69 57.14L12.94 57.03L13.2 56.93L13.46 56.84L13.72 56.75L13.99 56.68L14.27 56.62L14.54 56.57L14.83 56.53L15.11 56.5L15.4 56.48L15.69 56.48L125.57 56.48L125.86 56.48L126.14 56.5Z" id="g2fa2gmCZ" fill="white" fill-opacity="1" filter="url(#shadow709311)"></path></g></g><g><use xlink:href="#ae6uqUvmq" opacity="1" fill="#ffffff" fill-opacity="0.27"></use></g><g><g><filter id="shadow4073444" x="133.7" y="9" width="89" height="163.09" filterUnits="userSpaceOnUse" primitiveUnits="userSpaceOnUse"><feFlood></feFlood><feComposite in2="SourceAlpha" operator="in"></feComposite><feGaussianBlur stdDeviation="1"></feGaussianBlur><feOffset dx="0" dy="0" result="afterOffset"></feOffset><feFlood flood-color="#000000" flood-opacity="0.5"></feFlood><feComposite in2="afterOffset" operator="in"></feComposite><feMorphology operator="dilate" radius="0"></feMorphology><feComposite in2="SourceAlpha" operator="out"></feComposite></filter><path d="M181.27 16.13L182.79 16.28L184.28 16.5L185.75 16.77L187.21 17.1L188.64 17.48L190.05 17.92L191.43 18.41L192.79 18.95L194.12 19.55L195.43 20.19L196.7 20.89L197.95 21.63L199.16 22.41L200.34 23.24L201.49 24.12L202.6 25.04L203.67 25.99L204.71 26.99L205.71 28.03L206.67 29.11L207.59 30.22L208.46 31.36L209.29 32.54L210.08 33.76L210.82 35L211.51 36.28L212.16 37.58L212.75 38.91L213.3 40.27L213.79 41.66L214.23 43.07L214.61 44.5L214.94 45.95L215.21 47.43L215.42 48.92L215.58 50.43L215.67 51.96L215.7 53.5L215.67 55.05L215.58 56.58L215.42 58.09L215.21 59.58L214.94 61.06L214.61 62.51L214.23 63.94L213.79 65.35L213.3 66.74L212.75 68.1L212.16 69.43L211.51 70.73L210.82 72.01L210.08 73.25L209.29 74.47L208.46 75.65L207.59 76.79L206.67 77.9L205.71 78.98L204.71 80.02L203.67 81.01L202.6 81.97L201.49 82.89L200.34 83.77L199.16 84.6L197.95 85.38L196.7 86.12L195.43 86.82L194.12 87.46L193.47 87.75L193.47 160.8L193.47 160.98L193.46 161.15L193.44 161.32L193.42 161.5L193.39 161.66L193.35 161.83L193.3 162L193.25 162.16L193.2 162.32L193.14 162.47L193.07 162.62L192.99 162.77L192.91 162.92L192.83 163.06L192.74 163.2L192.64 163.34L192.54 163.47L192.44 163.59L192.33 163.72L192.21 163.84L192.1 163.95L191.97 164.06L191.84 164.17L191.71 164.27L191.58 164.36L191.44 164.45L191.3 164.54L191.15 164.62L191 164.69L190.85 164.76L190.69 164.82L190.53 164.88L190.37 164.93L190.21 164.97L190.04 165.01L189.87 165.04L189.7 165.06L189.53 165.08L189.35 165.09L189.18 165.1L176.65 165.1L162.93 151.37L162.93 141.6L168.51 136.01L168.76 135.74L168.99 135.45L169.18 135.15L169.35 134.83L169.49 134.51L169.6 134.18L169.68 133.84L169.74 133.49L169.77 133.15L169.77 132.8L169.74 132.45L169.68 132.11L169.6 131.77L169.49 131.44L169.35 131.12L169.18 130.8L168.99 130.5L168.76 130.21L168.51 129.94L162.93 124.35L162.93 117.27L169.54 110.66L169.79 110.39L170.01 110.1L170.2 109.8L170.37 109.49L170.51 109.16L170.62 108.83L170.71 108.49L170.76 108.15L170.79 107.8L170.79 107.45L170.76 107.11L170.71 106.76L170.62 106.42L170.51 106.09L170.37 105.77L170.2 105.45L170.01 105.15L169.79 104.86L169.54 104.59L162.93 97.98L162.93 87.75L162.28 87.46L160.97 86.82L159.7 86.12L158.45 85.38L157.24 84.6L156.06 83.77L154.91 82.89L153.8 81.97L152.73 81.01L151.69 80.02L150.69 78.98L149.73 77.9L148.81 76.79L147.94 75.65L147.11 74.47L146.32 73.25L145.58 72.01L144.89 70.73L144.24 69.43L143.65 68.1L143.1 66.74L142.61 65.35L142.17 63.94L141.79 62.51L141.46 61.06L141.19 59.58L140.98 58.09L140.82 56.58L140.73 55.05L140.7 53.5L140.73 51.96L140.82 50.43L140.98 48.92L141.19 47.43L141.46 45.95L141.79 44.5L142.17 43.07L142.61 41.66L143.1 40.27L143.65 38.91L144.24 37.58L144.89 36.28L145.58 35L146.32 33.76L147.11 32.54L147.94 31.36L148.81 30.22L149.73 29.11L150.69 28.03L151.69 26.99L152.73 25.99L153.8 25.04L154.91 24.12L156.06 23.24L157.24 22.41L158.45 21.63L159.7 20.89L160.97 20.19L162.28 19.55L163.61 18.95L164.97 18.41L166.35 17.92L167.76 17.48L169.19 17.1L170.65 16.77L172.12 16.5L173.61 16.28L175.13 16.13L176.66 16.04L178.2 16L179.74 16.04L181.27 16.13ZM175.56 28.51L174.27 28.68L173.01 28.91L171.76 29.21L170.54 29.56L169.35 29.98L168.18 30.46L167.05 30.99L165.95 31.58L164.88 32.22L163.84 32.9L162.85 33.64L161.89 34.43L160.97 35.26L160.09 36.14L159.26 37.06L158.48 38.01L157.74 39.01L157.05 40.05L156.41 41.11L155.82 42.22L155.33 43.28L201.07 43.28L200.58 42.22L199.99 41.11L199.35 40.05L198.66 39.01L197.92 38.01L197.14 37.06L196.31 36.14L195.43 35.26L194.51 34.43L193.55 33.64L192.56 32.9L191.52 32.22L190.45 31.58L189.35 30.99L188.22 30.46L187.05 29.98L185.86 29.56L184.64 29.21L183.39 28.91L182.13 28.68L180.84 28.51L179.53 28.4L178.2 28.37L176.87 28.4L175.56 28.51Z" id="iAVs54bMA" fill="white" fill-opacity="1" filter="url(#shadow4073444)"></path></g><use xlink:href="#bnTy6xvjC" opacity="1" fill="#c9c9c9" fill-opacity="1"></use><g><filter id="shadow11753678" x="133.7" y="9" width="91" height="164.09" filterUnits="userSpaceOnUse" primitiveUnits="userSpaceOnUse"><feFlood></feFlood><feComposite in2="SourceAlpha" operator="out"></feComposite><feGaussianBlur stdDeviation="0"></feGaussianBlur><feOffset dx="2" dy="1" result="afterOffset"></feOffset><feFlood flood-color="#fefefe" flood-opacity="0.8"></feFlood><feComposite in2="afterOffset" operator="in"></feComposite><feMorphology operator="dilate" radius="0"></feMorphology><feComposite in2="SourceAlpha" operator="in"></feComposite></filter><path d="M181.27 16.13L182.79 16.28L184.28 16.5L185.75 16.77L187.21 17.1L188.64 17.48L190.05 17.92L191.43 18.41L192.79 18.95L194.12 19.55L195.43 20.19L196.7 20.89L197.95 21.63L199.16 22.41L200.34 23.24L201.49 24.12L202.6 25.04L203.67 25.99L204.71 26.99L205.71 28.03L206.67 29.11L207.59 30.22L208.46 31.36L209.29 32.54L210.08 33.76L210.82 35L211.51 36.28L212.16 37.58L212.75 38.91L213.3 40.27L213.79 41.66L214.23 43.07L214.61 44.5L214.94 45.95L215.21 47.43L215.42 48.92L215.58 50.43L215.67 51.96L215.7 53.5L215.67 55.05L215.58 56.58L215.42 58.09L215.21 59.58L214.94 61.06L214.61 62.51L214.23 63.94L213.79 65.35L213.3 66.74L212.75 68.1L212.16 69.43L211.51 70.73L210.82 72.01L210.08 73.25L209.29 74.47L208.46 75.65L207.59 76.79L206.67 77.9L205.71 78.98L204.71 80.02L203.67 81.01L202.6 81.97L201.49 82.89L200.34 83.77L199.16 84.6L197.95 85.38L196.7 86.12L195.43 86.82L194.12 87.46L193.47 87.75L193.47 160.8L193.47 160.98L193.46 161.15L193.44 161.32L193.42 161.5L193.39 161.66L193.35 161.83L193.3 162L193.25 162.16L193.2 162.32L193.14 162.47L193.07 162.62L192.99 162.77L192.91 162.92L192.83 163.06L192.74 163.2L192.64 163.34L192.54 163.47L192.44 163.59L192.33 163.72L192.21 163.84L192.1 163.95L191.97 164.06L191.84 164.17L191.71 164.27L191.58 164.36L191.44 164.45L191.3 164.54L191.15 164.62L191 164.69L190.85 164.76L190.69 164.82L190.53 164.88L190.37 164.93L190.21 164.97L190.04 165.01L189.87 165.04L189.7 165.06L189.53 165.08L189.35 165.09L189.18 165.1L176.65 165.1L162.93 151.37L162.93 141.6L168.51 136.01L168.76 135.74L168.99 135.45L169.18 135.15L169.35 134.83L169.49 134.51L169.6 134.18L169.68 133.84L169.74 133.49L169.77 133.15L169.77 132.8L169.74 132.45L169.68 132.11L169.6 131.77L169.49 131.44L169.35 131.12L169.18 130.8L168.99 130.5L168.76 130.21L168.51 129.94L162.93 124.35L162.93 117.27L169.54 110.66L169.79 110.39L170.01 110.1L170.2 109.8L170.37 109.49L170.51 109.16L170.62 108.83L170.71 108.49L170.76 108.15L170.79 107.8L170.79 107.45L170.76 107.11L170.71 106.76L170.62 106.42L170.51 106.09L170.37 105.77L170.2 105.45L170.01 105.15L169.79 104.86L169.54 104.59L162.93 97.98L162.93 87.75L162.28 87.46L160.97 86.82L159.7 86.12L158.45 85.38L157.24 84.6L156.06 83.77L154.91 82.89L153.8 81.97L152.73 81.01L151.69 80.02L150.69 78.98L149.73 77.9L148.81 76.79L147.94 75.65L147.11 74.47L146.32 73.25L145.58 72.01L144.89 70.73L144.24 69.43L143.65 68.1L143.1 66.74L142.61 65.35L142.17 63.94L141.79 62.51L141.46 61.06L141.19 59.58L140.98 58.09L140.82 56.58L140.73 55.05L140.7 53.5L140.73 51.96L140.82 50.43L140.98 48.92L141.19 47.43L141.46 45.95L141.79 44.5L142.17 43.07L142.61 41.66L143.1 40.27L143.65 38.91L144.24 37.58L144.89 36.28L145.58 35L146.32 33.76L147.11 32.54L147.94 31.36L148.81 30.22L149.73 29.11L150.69 28.03L151.69 26.99L152.73 25.99L153.8 25.04L154.91 24.12L156.06 23.24L157.24 22.41L158.45 21.63L159.7 20.89L160.97 20.19L162.28 19.55L163.61 18.95L164.97 18.41L166.35 17.92L167.76 17.48L169.19 17.1L170.65 16.77L172.12 16.5L173.61 16.28L175.13 16.13L176.66 16.04L178.2 16L179.74 16.04L181.27 16.13ZM175.56 28.51L174.27 28.68L173.01 28.91L171.76 29.21L170.54 29.56L169.35 29.98L168.18 30.46L167.05 30.99L165.95 31.58L164.88 32.22L163.84 32.9L162.85 33.64L161.89 34.43L160.97 35.26L160.09 36.14L159.26 37.06L158.48 38.01L157.74 39.01L157.05 40.05L156.41 41.11L155.82 42.22L155.33 43.28L201.07 43.28L200.58 42.22L199.99 41.11L199.35 40.05L198.66 39.01L197.92 38.01L197.14 37.06L196.31 36.14L195.43 35.26L194.51 34.43L193.55 33.64L192.56 32.9L191.52 32.22L190.45 31.58L189.35 30.99L188.22 30.46L187.05 29.98L185.86 29.56L184.64 29.21L183.39 28.91L182.13 28.68L180.84 28.51L179.53 28.4L178.2 28.37L176.87 28.4L175.56 28.51Z" id="b2qSwwv2if" fill="white" fill-opacity="1" filter="url(#shadow11753678)"></path></g></g><g><use xlink:href="#b1vgGzqXyQ" opacity="1" fill="#c9c9c9" fill-opacity="1"></use><g><filter id="shadow8639271" x="171.83" y="84.91" width="23.27" height="89.18" filterUnits="userSpaceOnUse" primitiveUnits="userSpaceOnUse"><feFlood></feFlood><feComposite in2="SourceAlpha" operator="out"></feComposite><feGaussianBlur stdDeviation="1"></feGaussianBlur><feOffset dx="0" dy="1" result="afterOffset"></feOffset><feFlood flood-color="#000000" flood-opacity="0.27"></feFlood><feComposite in2="afterOffset" operator="in"></feComposite><feMorphology operator="dilate" radius="0"></feMorphology><feComposite in2="SourceAlpha" operator="in"></feComposite></filter><path d="M179.83 92.91L187.1 92.91L187.1 165.1L179.83 165.1L179.83 92.91Z" id="i43Z8fES81" fill="white" fill-opacity="1" filter="url(#shadow8639271)"></path></g></g><g><use xlink:href="#c1ABd2PZce" opacity="1" fill="#757fda" fill-opacity="0.01"></use></g><g><use xlink:href="#a1cZug7fvn" opacity="1" fill="#ffffff" fill-opacity="0.3"></use></g></g></g></svg>