<?xml version="1.0" encoding="UTF-8" standalone="no"?>
<!DOCTYPE svg PUBLIC "-//W3C//DTD SVG 1.1//EN" "http://www.w3.org/Graphics/SVG/1.1/DTD/svg11.dtd">
<svg version="1.1" xmlns="http://www.w3.org/2000/svg" xmlns:xlink="http://www.w3.org/1999/xlink" preserveAspectRatio="xMidYMid meet" viewBox="0 0 640 381" width="640" height="381"><defs><path d="M305.16 203.12C305.16 203.12 305.16 203.12 305.16 203.12C305.16 183.3 320.83 167.2 340.13 167.2C340.13 167.2 595.24 167.2 595.24 167.2C614.55 167.2 630.21 183.3 630.21 203.12C630.21 203.12 630.21 203.12 630.21 203.12C630.21 222.95 614.55 239.05 595.24 239.05C595.24 239.05 340.13 239.05 340.13 239.05C320.83 239.05 305.16 222.95 305.16 203.12Z" id="e3mjQ0t2ZA"></path><path d="M110.39 277.81C110.39 277.81 110.39 277.81 110.39 277.81C110.39 253.14 129.17 233.1 152.3 233.1C152.3 233.1 458.02 233.1 458.02 233.1C481.15 233.1 499.93 253.14 499.93 277.81C499.93 277.81 499.93 277.81 499.93 277.81C499.93 302.48 481.15 322.51 458.02 322.51C458.02 322.51 152.3 322.51 152.3 322.51C129.17 322.51 110.39 302.48 110.39 277.81Z" id="aEWna0ZsK"></path><path d="M30.21 117.23C30.21 117.23 30.21 117.23 30.21 117.23C30.21 83.18 56.73 55.55 89.38 55.55C89.38 55.55 520.94 55.55 520.94 55.55C553.59 55.55 580.11 83.18 580.11 117.23C580.11 117.23 580.11 117.23 580.11 117.23C580.11 151.27 553.59 178.9 520.94 178.9C520.94 178.9 89.38 178.9 89.38 178.9C56.73 178.9 30.21 151.27 30.21 117.23Z" id="d1CLFJrkx7"></path><path d="M322.13 364.29C231.37 364.29 157.68 285.62 157.68 188.72C157.68 91.82 231.37 13.15 322.13 13.15C412.9 13.15 486.58 91.82 486.58 188.72C486.58 285.62 412.9 364.29 322.13 364.29Z" id="biNbJeHJX"></path><path d="" id="e54YCHSCZL"></path><path d="M322.13 364.29C231.37 364.29 157.68 285.62 157.68 188.72C157.68 91.82 231.37 13.15 322.13 13.15C412.9 13.15 486.58 91.82 486.58 188.72C486.58 285.62 412.9 364.29 322.13 364.29Z" id="c3219UPAZS"></path><path d="M227.62 181.46L339.13 181.46L339.13 224.4L227.62 224.4L227.62 181.46Z" id="f1nR7kxVg"></path><path d="M339.25 224.42L339.53 224.45L339.81 224.49L340.09 224.54L340.37 224.6L340.64 224.68L340.9 224.76L341.16 224.85L341.42 224.95L341.67 225.06L341.91 225.19L342.15 225.32L342.39 225.46L342.62 225.6L342.84 225.76L343.06 225.93L343.26 226.1L343.47 226.28L343.66 226.47L343.85 226.66L344.03 226.86L344.2 227.07L344.37 227.29L344.52 227.51L344.67 227.74L344.81 227.97L344.94 228.21L345.06 228.46L345.18 228.71L345.28 228.97L345.37 229.23L345.45 229.49L345.53 229.76L345.59 230.04L345.64 230.31L345.68 230.6L345.71 230.88L345.73 231.17L345.73 231.46L345.73 251.41L345.73 251.7L345.71 251.99L345.68 252.27L345.64 252.56L345.59 252.83L345.53 253.11L345.45 253.38L345.37 253.64L345.28 253.9L345.18 254.16L345.06 254.41L344.94 254.66L344.81 254.9L344.67 255.13L344.52 255.36L344.37 255.58L344.2 255.8L344.03 256.01L343.85 256.21L343.66 256.4L343.47 256.59L343.26 256.77L343.06 256.94L342.84 257.11L342.62 257.27L342.39 257.41L342.15 257.55L341.91 257.68L341.67 257.81L341.42 257.92L341.16 258.02L340.9 258.11L340.64 258.19L340.37 258.27L340.09 258.33L339.81 258.38L339.53 258.42L339.25 258.45L338.96 258.47L338.67 258.47L228.79 258.47L228.5 258.47L228.21 258.45L227.93 258.42L227.65 258.38L227.37 258.33L227.1 258.27L226.83 258.19L226.56 258.11L226.3 258.02L226.04 257.92L225.79 257.81L225.55 257.68L225.31 257.55L225.07 257.41L224.84 257.27L224.62 257.11L224.41 256.94L224.2 256.77L223.99 256.59L223.8 256.4L223.61 256.21L223.43 256.01L223.26 255.8L223.09 255.58L222.94 255.36L222.79 255.13L222.65 254.9L222.52 254.66L222.4 254.41L222.29 254.16L222.18 253.9L222.09 253.64L222.01 253.38L221.94 253.11L221.87 252.83L221.82 252.56L221.78 252.27L221.75 251.99L221.74 251.7L221.73 251.41L221.73 231.46L221.74 231.17L221.75 230.88L221.78 230.6L221.82 230.31L221.87 230.04L221.94 229.76L222.01 229.49L222.09 229.23L222.18 228.97L222.29 228.71L222.4 228.46L222.52 228.21L222.65 227.97L222.79 227.74L222.94 227.51L223.09 227.29L223.26 227.07L223.43 226.86L223.61 226.66L223.8 226.47L223.99 226.28L224.2 226.1L224.41 225.93L224.62 225.76L224.84 225.6L225.07 225.46L225.31 225.32L225.55 225.19L225.79 225.06L226.04 224.95L226.3 224.85L226.56 224.76L226.83 224.68L227.1 224.6L227.37 224.54L227.65 224.49L227.93 224.45L228.21 224.42L228.5 224.4L228.79 224.4L338.67 224.4L338.96 224.4L339.25 224.42ZM339.25 185.91L339.53 185.94L339.81 185.98L340.09 186.03L340.37 186.09L340.64 186.17L340.9 186.25L341.16 186.34L341.42 186.44L341.67 186.56L341.91 186.68L342.15 186.81L342.39 186.95L342.62 187.1L342.84 187.25L343.06 187.42L343.26 187.59L343.47 187.77L343.66 187.96L343.85 188.15L344.03 188.36L344.2 188.56L344.37 188.78L344.52 189L344.67 189.23L344.81 189.47L344.94 189.71L345.06 189.95L345.18 190.2L345.28 190.46L345.37 190.72L345.45 190.98L345.53 191.25L345.59 191.53L345.64 191.81L345.68 192.09L345.71 192.37L345.73 192.66L345.73 192.95L345.73 212.9L345.73 213.19L345.71 213.48L345.68 213.77L345.64 214.05L345.59 214.32L345.53 214.6L345.45 214.87L345.37 215.13L345.28 215.39L345.18 215.65L345.06 215.9L344.94 216.15L344.81 216.39L344.67 216.62L344.52 216.85L344.37 217.07L344.2 217.29L344.03 217.5L343.85 217.7L343.66 217.9L343.47 218.08L343.26 218.26L343.06 218.44L342.84 218.6L342.62 218.76L342.39 218.91L342.15 219.04L341.91 219.18L341.67 219.3L341.42 219.41L341.16 219.51L340.9 219.6L340.64 219.69L340.37 219.76L340.09 219.82L339.81 219.87L339.53 219.91L339.25 219.94L338.96 219.96L338.67 219.96L228.79 219.96L228.5 219.96L228.21 219.94L227.93 219.91L227.65 219.87L227.37 219.82L227.1 219.76L226.83 219.69L226.56 219.6L226.3 219.51L226.04 219.41L225.79 219.3L225.55 219.18L225.31 219.04L225.07 218.91L224.84 218.76L224.62 218.6L224.41 218.44L224.2 218.26L223.99 218.08L223.8 217.9L223.61 217.7L223.43 217.5L223.26 217.29L223.09 217.07L222.94 216.85L222.79 216.62L222.65 216.39L222.52 216.15L222.4 215.9L222.29 215.65L222.18 215.39L222.09 215.13L222.01 214.87L221.94 214.6L221.87 214.32L221.82 214.05L221.78 213.77L221.75 213.48L221.74 213.19L221.73 212.9L221.73 192.95L221.74 192.66L221.75 192.37L221.78 192.09L221.82 191.81L221.87 191.53L221.94 191.25L222.01 190.98L222.09 190.72L222.18 190.46L222.29 190.2L222.4 189.95L222.52 189.71L222.65 189.47L222.79 189.23L222.94 189L223.09 188.78L223.26 188.56L223.43 188.36L223.61 188.15L223.8 187.96L223.99 187.77L224.2 187.59L224.41 187.42L224.62 187.25L224.84 187.1L225.07 186.95L225.31 186.81L225.55 186.68L225.79 186.56L226.04 186.44L226.3 186.34L226.56 186.25L226.83 186.17L227.1 186.09L227.37 186.03L227.65 185.98L227.93 185.94L228.21 185.91L228.5 185.9L228.79 185.89L338.67 185.89L338.96 185.9L339.25 185.91ZM339.25 147.41L339.53 147.44L339.81 147.48L340.09 147.53L340.37 147.59L340.64 147.67L340.9 147.75L341.16 147.84L341.42 147.94L341.67 148.06L341.91 148.18L342.15 148.31L342.39 148.45L342.62 148.6L342.84 148.75L343.06 148.92L343.26 149.09L343.47 149.27L343.66 149.46L343.85 149.65L344.03 149.86L344.2 150.06L344.37 150.28L344.52 150.5L344.67 150.73L344.81 150.97L344.94 151.21L345.06 151.45L345.18 151.7L345.28 151.96L345.37 152.22L345.45 152.48L345.53 152.75L345.59 153.03L345.64 153.31L345.68 153.59L345.71 153.87L345.73 154.16L345.73 154.45L345.73 174.4L345.73 174.69L345.71 174.98L345.68 175.27L345.64 175.55L345.59 175.82L345.53 176.1L345.45 176.37L345.37 176.63L345.28 176.89L345.18 177.15L345.06 177.4L344.94 177.65L344.81 177.89L344.67 178.12L344.52 178.35L344.37 178.57L344.2 178.79L344.03 179L343.85 179.2L343.66 179.39L343.47 179.58L343.26 179.76L343.06 179.94L342.84 180.1L342.62 180.26L342.39 180.41L342.15 180.54L341.91 180.67L341.67 180.8L341.42 180.91L341.16 181.01L340.9 181.1L340.64 181.19L340.37 181.26L340.09 181.32L339.81 181.37L339.53 181.41L339.25 181.44L338.96 181.46L338.67 181.46L228.79 181.46L228.5 181.46L228.21 181.44L227.93 181.41L227.65 181.37L227.37 181.32L227.1 181.26L226.83 181.19L226.56 181.1L226.3 181.01L226.04 180.91L225.79 180.8L225.55 180.67L225.31 180.54L225.07 180.41L224.84 180.26L224.62 180.1L224.41 179.94L224.2 179.76L223.99 179.58L223.8 179.39L223.61 179.2L223.43 179L223.26 178.79L223.09 178.57L222.94 178.35L222.79 178.12L222.65 177.89L222.52 177.65L222.4 177.4L222.29 177.15L222.18 176.89L222.09 176.63L222.01 176.37L221.94 176.1L221.87 175.82L221.82 175.55L221.78 175.27L221.75 174.98L221.74 174.69L221.73 174.4L221.73 154.45L221.74 154.16L221.75 153.87L221.78 153.59L221.82 153.31L221.87 153.03L221.94 152.75L222.01 152.48L222.09 152.22L222.18 151.96L222.29 151.7L222.4 151.45L222.52 151.21L222.65 150.97L222.79 150.73L222.94 150.5L223.09 150.28L223.26 150.06L223.43 149.86L223.61 149.65L223.8 149.46L223.99 149.27L224.2 149.09L224.41 148.92L224.62 148.75L224.84 148.6L225.07 148.45L225.31 148.31L225.55 148.18L225.79 148.06L226.04 147.94L226.3 147.84L226.56 147.75L226.83 147.67L227.1 147.59L227.37 147.53L227.65 147.48L227.93 147.44L228.21 147.41L228.5 147.39L228.79 147.39L338.67 147.39L338.96 147.39L339.25 147.41ZM317.23 99.36L317.51 99.38L317.8 99.42L318.07 99.48L318.35 99.54L318.62 99.61L318.88 99.69L319.14 99.78L319.4 99.89L319.65 100L319.9 100.12L320.14 100.25L320.37 100.39L320.6 100.54L320.82 100.69L321.04 100.86L321.25 101.03L321.45 101.21L321.64 101.4L321.83 101.6L322.01 101.8L322.19 102.01L322.35 102.22L322.51 102.45L322.65 102.67L322.79 102.91L322.92 103.15L323.05 103.39L323.16 103.65L323.26 103.9L323.35 104.16L323.43 104.43L323.51 104.7L323.57 104.97L323.62 105.25L323.66 105.53L323.69 105.82L323.71 106.1L323.71 106.39L323.71 147.39L304.14 147.39L304.14 122L304.13 121.81L304.12 121.63L304.1 121.45L304.07 121.27L304.03 121.09L303.98 120.92L303.92 120.75L303.86 120.59L303.79 120.42L303.71 120.27L303.63 120.11L303.54 119.96L303.44 119.82L303.33 119.68L303.22 119.55L303.1 119.42L302.98 119.3L302.85 119.18L302.72 119.07L302.58 118.96L302.44 118.86L302.29 118.77L302.13 118.69L301.98 118.61L301.81 118.54L301.65 118.48L301.48 118.42L301.31 118.37L301.13 118.33L300.95 118.3L300.77 118.28L300.59 118.27L300.4 118.26L265.17 118.26L264.98 118.27L264.8 118.28L264.62 118.3L264.44 118.33L264.26 118.37L264.09 118.42L263.92 118.48L263.76 118.54L263.59 118.61L263.44 118.69L263.28 118.77L263.13 118.86L262.99 118.96L262.85 119.07L262.72 119.18L262.59 119.3L262.47 119.42L262.35 119.55L262.24 119.68L262.13 119.82L262.03 119.96L261.94 120.11L261.86 120.27L261.78 120.42L261.71 120.59L261.65 120.75L261.59 120.92L261.54 121.09L261.5 121.27L261.47 121.45L261.45 121.63L261.44 121.81L261.43 122L261.43 147.39L243.04 147.39L243.04 106.39L243.05 106.1L243.07 105.82L243.1 105.53L243.14 105.25L243.19 104.97L243.25 104.7L243.32 104.43L243.4 104.16L243.5 103.9L243.6 103.65L243.71 103.39L243.83 103.15L243.96 102.91L244.1 102.67L244.25 102.45L244.41 102.22L244.57 102.01L244.74 101.8L244.92 101.6L245.11 101.4L245.31 101.21L245.51 101.03L245.72 100.86L245.94 100.69L246.16 100.54L246.39 100.39L246.62 100.25L246.86 100.12L247.11 100L247.36 99.89L247.61 99.78L247.87 99.69L248.14 99.61L248.41 99.54L248.68 99.48L248.96 99.42L249.24 99.38L249.53 99.36L249.82 99.34L250.11 99.33L316.65 99.33L316.94 99.34L317.23 99.36Z" id="bqMUFal41"></path><path d="M345.73 251.7L345.71 251.99L345.68 252.27L345.64 252.56L345.59 252.83L345.53 253.11L345.45 253.38L345.37 253.64L345.28 253.9L345.18 254.16L345.06 254.41L344.94 254.66L344.81 254.9L344.67 255.13L344.52 255.36L344.37 255.58L344.2 255.8L344.03 256.01L343.85 256.21L343.66 256.4L343.47 256.59L343.26 256.77L343.06 256.94L342.84 257.11L342.62 257.27L342.39 257.41L342.15 257.55L341.91 257.68L341.67 257.81L341.42 257.92L341.16 258.02L340.9 258.11L340.64 258.19L340.37 258.27L340.09 258.33L339.81 258.38L339.53 258.42L339.25 258.45L338.96 258.47L338.67 258.47L228.79 258.47L228.5 258.47L228.21 258.45L227.93 258.42L227.65 258.38L227.37 258.33L227.1 258.27L226.83 258.19L226.56 258.11L226.3 258.02L226.04 257.92L225.79 257.81L225.55 257.68L225.31 257.55L225.07 257.41L224.84 257.27L224.62 257.11L224.41 256.94L224.2 256.77L223.99 256.59L223.8 256.4L223.61 256.21L223.43 256.01L223.26 255.8L223.09 255.58L222.94 255.36L222.79 255.13L222.65 254.9L222.52 254.66L222.4 254.41L222.29 254.16L222.18 253.9L222.09 253.64L222.01 253.38L221.94 253.11L221.87 252.83L221.82 252.56L221.78 252.27L221.75 251.99L221.74 251.7L221.73 251.41L221.73 245.14L345.73 245.14L345.73 251.41L345.73 251.7Z" id="dYRbkXaCb"></path><mask id="maskmsoDRrCT" x="219.73" y="243.14" width="128" height="17.33" maskUnits="userSpaceOnUse"><rect x="219.73" y="243.14" width="128" height="17.33" fill="white"></rect><use xlink:href="#dYRbkXaCb" opacity="1" fill="black"></use></mask><path d="M339.25 147.41L339.53 147.44L339.81 147.48L340.09 147.53L340.37 147.59L340.64 147.67L340.9 147.75L341.16 147.84L341.42 147.94L341.67 148.06L341.91 148.18L342.15 148.31L342.39 148.45L342.62 148.6L342.84 148.75L343.06 148.92L343.26 149.09L343.47 149.27L343.66 149.46L343.85 149.65L344.03 149.86L344.2 150.06L344.37 150.28L344.52 150.5L344.67 150.73L344.81 150.97L344.94 151.21L345.06 151.45L345.18 151.7L345.28 151.96L345.37 152.22L345.45 152.48L345.53 152.75L345.59 153.03L345.64 153.31L345.68 153.59L345.71 153.87L345.73 154.16L345.73 154.45L345.73 160.72L221.73 160.72L221.73 154.45L221.74 154.16L221.75 153.87L221.78 153.59L221.82 153.31L221.87 153.03L221.94 152.75L222.01 152.48L222.09 152.22L222.18 151.96L222.29 151.7L222.4 151.45L222.52 151.21L222.65 150.97L222.79 150.73L222.94 150.5L223.09 150.28L223.26 150.06L223.43 149.86L223.61 149.65L223.8 149.46L223.99 149.27L224.2 149.09L224.41 148.92L224.62 148.75L224.84 148.6L225.07 148.45L225.31 148.31L225.55 148.18L225.79 148.06L226.04 147.94L226.3 147.84L226.56 147.75L226.83 147.67L227.1 147.59L227.37 147.53L227.65 147.48L227.93 147.44L228.21 147.41L228.5 147.39L228.79 147.39L338.67 147.39L338.96 147.39L339.25 147.41Z" id="bkjbN7lV"></path><mask id="maskdEDcaZCA" x="219.73" y="145.39" width="128" height="17.33" maskUnits="userSpaceOnUse"><rect x="219.73" y="145.39" width="128" height="17.33" fill="white"></rect><use xlink:href="#bkjbN7lV" opacity="1" fill="black"></use></mask><path d="M228.79 258.47L228.5 258.47L228.21 258.45L227.93 258.42L227.65 258.38L227.37 258.33L227.1 258.27L226.83 258.19L226.56 258.11L226.3 258.02L226.04 257.92L225.79 257.81L225.55 257.68L225.31 257.55L225.07 257.41L224.84 257.27L224.62 257.11L224.41 256.94L224.2 256.77L223.99 256.59L223.8 256.4L223.61 256.21L223.43 256.01L223.26 255.8L223.09 255.58L222.94 255.36L222.79 255.13L222.65 254.9L222.52 254.66L222.4 254.41L222.29 254.16L222.18 253.9L222.09 253.64L222.01 253.38L221.94 253.11L221.87 252.83L221.82 252.56L221.78 252.27L221.75 251.99L221.74 251.7L221.73 251.41L221.73 231.46L221.74 231.17L221.75 230.88L221.78 230.6L221.82 230.31L221.87 230.04L221.94 229.76L222.01 229.49L222.09 229.23L222.18 228.97L222.29 228.71L222.4 228.46L222.52 228.21L222.65 227.97L222.79 227.74L222.94 227.51L223.09 227.29L223.26 227.07L223.43 226.86L223.61 226.66L223.8 226.47L223.99 226.28L224.2 226.1L224.41 225.93L224.62 225.76L224.84 225.6L225.07 225.46L225.31 225.32L225.55 225.19L225.79 225.06L226.04 224.95L226.3 224.85L226.56 224.76L226.83 224.68L227.1 224.6L227.37 224.54L227.65 224.49L227.93 224.45L228.21 224.42L228.5 224.4L228.79 224.4L283.73 224.4L283.73 258.47L228.79 258.47ZM228.79 219.96L228.5 219.96L228.21 219.94L227.93 219.91L227.65 219.87L227.37 219.82L227.1 219.76L226.83 219.69L226.56 219.6L226.3 219.51L226.04 219.41L225.79 219.3L225.55 219.18L225.31 219.04L225.07 218.91L224.84 218.76L224.62 218.6L224.41 218.44L224.2 218.26L223.99 218.08L223.8 217.9L223.61 217.7L223.43 217.5L223.26 217.29L223.09 217.07L222.94 216.85L222.79 216.62L222.65 216.39L222.52 216.15L222.4 215.9L222.29 215.65L222.18 215.39L222.09 215.13L222.01 214.87L221.94 214.6L221.87 214.32L221.82 214.05L221.78 213.77L221.75 213.48L221.74 213.19L221.73 212.9L221.73 192.95L221.74 192.66L221.75 192.37L221.78 192.09L221.82 191.81L221.87 191.53L221.94 191.25L222.01 190.98L222.09 190.72L222.18 190.46L222.29 190.2L222.4 189.95L222.52 189.71L222.65 189.47L222.79 189.23L222.94 189L223.09 188.78L223.26 188.56L223.43 188.36L223.61 188.15L223.8 187.96L223.99 187.77L224.2 187.59L224.41 187.42L224.62 187.25L224.84 187.1L225.07 186.95L225.31 186.81L225.55 186.68L225.79 186.56L226.04 186.44L226.3 186.34L226.56 186.25L226.83 186.17L227.1 186.09L227.37 186.03L227.65 185.98L227.93 185.94L228.21 185.91L228.5 185.9L228.79 185.89L283.73 185.89L283.73 219.96L228.79 219.96ZM265.17 118.26L264.98 118.27L264.8 118.28L264.62 118.3L264.44 118.33L264.26 118.37L264.09 118.42L263.92 118.48L263.76 118.54L263.59 118.61L263.44 118.69L263.28 118.77L263.13 118.86L262.99 118.96L262.85 119.07L262.72 119.18L262.59 119.3L262.47 119.42L262.35 119.55L262.24 119.68L262.13 119.82L262.03 119.96L261.94 120.11L261.86 120.27L261.78 120.42L261.71 120.59L261.65 120.75L261.59 120.92L261.54 121.09L261.5 121.27L261.47 121.45L261.45 121.63L261.44 121.81L261.43 122L261.43 147.39L283.73 147.39L283.73 181.46L228.79 181.46L228.5 181.46L228.21 181.44L227.93 181.41L227.65 181.37L227.37 181.32L227.1 181.26L226.83 181.19L226.56 181.1L226.3 181.01L226.04 180.91L225.79 180.8L225.55 180.67L225.31 180.54L225.07 180.41L224.84 180.26L224.62 180.1L224.41 179.94L224.2 179.76L223.99 179.58L223.8 179.39L223.61 179.2L223.43 179L223.26 178.79L223.09 178.57L222.94 178.35L222.79 178.12L222.65 177.89L222.52 177.65L222.4 177.4L222.29 177.15L222.18 176.89L222.09 176.63L222.01 176.37L221.94 176.1L221.87 175.82L221.82 175.55L221.78 175.27L221.75 174.98L221.74 174.69L221.73 174.4L221.73 154.45L221.74 154.16L221.75 153.87L221.78 153.59L221.82 153.31L221.87 153.03L221.94 152.75L222.01 152.48L222.09 152.22L222.18 151.96L222.29 151.7L222.4 151.45L222.52 151.21L222.65 150.97L222.79 150.73L222.94 150.5L223.09 150.28L223.26 150.06L223.43 149.86L223.61 149.65L223.8 149.46L223.99 149.27L224.2 149.09L224.41 148.92L224.62 148.75L224.84 148.6L225.07 148.45L225.31 148.31L225.55 148.18L225.79 148.06L226.04 147.94L226.3 147.84L226.56 147.75L226.83 147.67L227.1 147.59L227.37 147.53L227.65 147.48L227.93 147.44L228.21 147.41L228.5 147.39L228.79 147.39L243.04 147.39L243.04 106.39L243.05 106.1L243.07 105.82L243.1 105.53L243.14 105.25L243.19 104.97L243.25 104.7L243.32 104.43L243.4 104.16L243.5 103.9L243.6 103.65L243.71 103.39L243.83 103.15L243.96 102.91L244.1 102.67L244.25 102.45L244.41 102.22L244.57 102.01L244.74 101.8L244.92 101.6L245.11 101.4L245.31 101.21L245.51 101.03L245.72 100.86L245.94 100.69L246.16 100.54L246.39 100.39L246.62 100.25L246.86 100.12L247.11 100L247.36 99.89L247.61 99.78L247.87 99.69L248.14 99.61L248.41 99.54L248.68 99.48L248.96 99.42L249.24 99.38L249.53 99.36L249.82 99.34L250.11 99.33L283.73 99.33L283.73 118.26L265.17 118.26Z" id="a1Hk7x0Ash"></path><path d="M395.89 107.2L397.38 107.41L398.86 107.68L400.31 108.01L401.74 108.39L403.15 108.83L404.54 109.32L405.89 109.87L407.23 110.46L408.53 111.11L409.81 111.8L411.05 112.54L412.26 113.33L413.44 114.16L414.59 115.03L415.7 115.95L416.78 116.91L417.81 117.91L418.81 118.94L419.77 120.02L420.69 121.13L421.56 122.28L422.4 123.46L423.18 124.67L423.92 125.92L424.62 127.19L425.26 128.49L425.85 129.83L426.4 131.19L426.89 132.57L427.33 133.98L427.71 135.41L428.04 136.86L428.31 138.34L428.53 139.83L428.68 141.34L428.77 142.87L428.8 144.42L428.77 145.96L428.68 147.49L428.53 149L428.31 150.5L428.04 151.97L427.71 153.42L427.33 154.86L426.89 156.27L426.4 157.65L425.85 159.01L425.26 160.34L424.62 161.65L423.92 162.92L423.18 164.17L422.4 165.38L421.56 166.56L420.69 167.71L419.77 168.82L418.81 169.89L417.81 170.93L416.78 171.93L415.7 172.89L414.59 173.8L413.44 174.68L412.26 175.51L411.05 176.3L409.81 177.04L408.53 177.73L407.23 178.37L406.58 178.66L406.58 251.71L406.57 251.89L406.56 252.06L406.54 252.24L406.52 252.41L406.49 252.58L406.45 252.74L406.41 252.91L406.36 253.07L406.3 253.23L406.24 253.38L406.17 253.54L406.1 253.69L406.02 253.83L405.93 253.98L405.84 254.11L405.75 254.25L405.65 254.38L405.54 254.51L405.43 254.63L405.32 254.75L405.2 254.86L405.08 254.97L404.95 255.08L404.82 255.18L404.68 255.27L404.54 255.36L404.4 255.45L404.25 255.53L404.1 255.6L403.95 255.67L403.8 255.73L403.64 255.79L403.48 255.84L403.31 255.88L403.15 255.92L402.98 255.95L402.81 255.98L402.63 255.99L402.46 256.01L402.28 256.01L389.76 256.01L376.03 242.28L376.03 232.51L381.61 226.93L381.87 226.65L382.09 226.36L382.28 226.06L382.45 225.75L382.59 225.42L382.7 225.09L382.79 224.75L382.84 224.41L382.87 224.06L382.87 223.71L382.84 223.37L382.79 223.02L382.7 222.69L382.59 222.35L382.45 222.03L382.28 221.71L382.09 221.41L381.87 221.12L381.61 220.85L376.03 215.27L376.03 208.19L382.64 201.58L382.89 201.3L383.11 201.02L383.31 200.71L383.48 200.4L383.61 200.07L383.73 199.74L383.81 199.4L383.87 199.06L383.89 198.71L383.89 198.37L383.87 198.02L383.81 197.68L383.73 197.34L383.61 197L383.48 196.68L383.31 196.37L383.11 196.06L382.89 195.77L382.64 195.5L376.03 188.89L376.03 178.66L375.38 178.37L374.08 177.73L372.8 177.04L371.56 176.3L370.34 175.51L369.16 174.68L368.02 173.8L366.9 172.89L365.83 171.93L364.79 170.93L363.79 169.89L362.84 168.82L361.92 167.71L361.04 166.56L360.21 165.38L359.43 164.17L358.68 162.92L357.99 161.65L357.35 160.34L356.75 159.01L356.21 157.65L355.72 156.27L355.28 154.86L354.89 153.42L354.57 151.97L354.29 150.5L354.08 149L353.93 147.49L353.83 145.96L353.8 144.42L353.83 142.87L353.93 141.34L354.08 139.83L354.29 138.34L354.57 136.86L354.89 135.41L355.28 133.98L355.72 132.57L356.21 131.19L356.75 129.83L357.35 128.49L357.99 127.19L358.68 125.92L359.43 124.67L360.21 123.46L361.04 122.28L361.92 121.13L362.84 120.02L363.79 118.94L364.79 117.91L365.83 116.91L366.9 115.95L368.02 115.03L369.16 114.16L370.34 113.33L371.56 112.54L372.8 111.8L374.08 111.11L375.38 110.46L376.71 109.87L378.07 109.32L379.46 108.83L380.86 108.39L382.3 108.01L383.75 107.68L385.22 107.41L386.72 107.2L388.23 107.04L389.76 106.95L391.3 106.92L392.85 106.95L394.38 107.04L394.38 107.04L395.89 107.2ZM387.38 119.59L386.11 119.82L384.87 120.12L383.65 120.48L382.45 120.9L381.29 121.37L380.15 121.9L379.05 122.49L377.98 123.13L376.95 123.82L375.95 124.56L374.99 125.34L374.07 126.17L373.2 127.05L372.36 127.97L371.58 128.93L370.84 129.92L370.15 130.96L369.51 132.03L368.93 133.13L368.43 134.19L414.18 134.19L413.68 133.13L413.1 132.03L412.46 130.96L411.77 129.92L411.03 128.93L410.24 127.97L409.41 127.05L408.53 126.17L407.62 125.34L406.66 124.56L405.66 123.82L404.63 123.13L403.56 122.49L402.45 121.9L401.32 121.37L400.15 120.9L398.96 120.48L397.74 120.12L396.5 119.82L395.23 119.59L393.94 119.42L392.63 119.32L391.3 119.28L389.98 119.32L388.67 119.42L388.67 119.42L387.38 119.59Z" id="a23I8yB6Fb"></path><path d="M392.93 183.83L400.2 183.83L400.2 256.01L392.93 256.01L392.93 183.83Z" id="aFUIRQI1R"></path><path d="M388.67 119.39L387.38 119.56L386.11 119.79L384.87 120.09L383.65 120.45L382.45 120.86L381.29 121.34L380.15 121.87L379.05 122.46L377.98 123.1L376.95 123.79L375.95 124.53L374.99 125.31L374.07 126.14L373.2 127.02L372.36 127.94L371.58 128.9L370.84 129.89L370.15 130.93L369.51 132L368.93 133.1L368.43 134.16L389.77 134.16L389.77 255.98L389.76 255.98L376.03 242.25L376.03 232.48L381.61 226.9L381.87 226.62L382.09 226.33L382.28 226.03L382.45 225.72L382.59 225.39L382.7 225.06L382.79 224.72L382.84 224.38L382.87 224.03L382.87 223.68L382.84 223.34L382.79 222.99L382.7 222.65L382.59 222.32L382.45 222L382.28 221.68L382.09 221.38L381.87 221.09L381.61 220.82L376.03 215.24L376.03 208.15L382.64 201.55L382.89 201.27L383.11 200.98L383.31 200.68L383.48 200.37L383.61 200.04L383.73 199.71L383.81 199.37L383.87 199.03L383.89 198.68L383.89 198.33L383.87 197.99L383.81 197.64L383.73 197.31L383.61 196.97L383.48 196.65L383.31 196.33L383.11 196.03L382.89 195.74L382.64 195.47L376.03 188.86L376.03 178.63L375.38 178.34L374.08 177.7L372.8 177.01L371.56 176.27L370.34 175.48L369.16 174.65L368.02 173.77L366.9 172.86L365.83 171.9L364.79 170.9L363.79 169.86L362.84 168.79L361.92 167.67L361.04 166.53L360.21 165.35L359.43 164.13L358.68 162.89L357.99 161.61L357.35 160.31L356.75 158.98L356.21 157.62L355.72 156.23L355.28 154.83L354.89 153.39L354.57 151.94L354.29 150.47L354.08 148.97L353.93 147.46L353.83 145.93L353.8 144.39L353.83 142.84L353.93 141.31L354.08 139.8L354.29 138.31L354.57 136.83L354.89 135.38L355.28 133.95L355.72 132.54L356.21 131.15L356.75 129.8L357.35 128.46L357.99 127.16L358.68 125.88L359.43 124.64L360.21 123.43L361.04 122.25L361.92 121.1L362.84 119.99L363.79 118.91L364.79 117.88L365.83 116.88L366.9 115.92L368.02 115L369.16 114.13L370.34 113.29L371.56 112.51L372.8 111.77L374.08 111.07L375.38 110.43L376.71 109.84L378.07 109.29L379.46 108.8L380.86 108.36L382.3 107.98L383.75 107.65L385.22 107.38L386.72 107.16L388.23 107.01L389.76 106.92L389.77 106.92L389.77 119.3L388.67 119.39Z" id="bNSpiA3jN"></path></defs><g><g><g><g><filter id="shadow10378719" x="297.16" y="159.2" width="341.05" height="87.85" filterUnits="userSpaceOnUse" primitiveUnits="userSpaceOnUse"><feFlood></feFlood><feComposite in2="SourceAlpha" operator="in"></feComposite><feGaussianBlur stdDeviation="1"></feGaussianBlur><feOffset dx="0" dy="0" result="afterOffset"></feOffset><feFlood flood-color="#000000" flood-opacity="0.5"></feFlood><feComposite in2="afterOffset" operator="in"></feComposite><feMorphology operator="dilate" radius="1"></feMorphology><feComposite in2="SourceAlpha" operator="out"></feComposite></filter><path d="M305.16 203.12C305.16 203.12 305.16 203.12 305.16 203.12C305.16 183.3 320.83 167.2 340.13 167.2C340.13 167.2 595.24 167.2 595.24 167.2C614.55 167.2 630.21 183.3 630.21 203.12C630.21 203.12 630.21 203.12 630.21 203.12C630.21 222.95 614.55 239.05 595.24 239.05C595.24 239.05 340.13 239.05 340.13 239.05C320.83 239.05 305.16 222.95 305.16 203.12Z" id="a5pzsURatd" fill="white" fill-opacity="1" filter="url(#shadow10378719)"></path></g><use xlink:href="#e3mjQ0t2ZA" opacity="1" fill="#9642f5" fill-opacity="1"></use><g><use xlink:href="#e3mjQ0t2ZA" opacity="1" fill-opacity="0" stroke="#000000" stroke-width="1" stroke-opacity="0"></use></g></g><g><g><filter id="shadow10731910" x="102.39" y="225.1" width="405.54" height="105.41" filterUnits="userSpaceOnUse" primitiveUnits="userSpaceOnUse"><feFlood></feFlood><feComposite in2="SourceAlpha" operator="in"></feComposite><feGaussianBlur stdDeviation="1"></feGaussianBlur><feOffset dx="0" dy="0" result="afterOffset"></feOffset><feFlood flood-color="#000000" flood-opacity="0.5"></feFlood><feComposite in2="afterOffset" operator="in"></feComposite><feMorphology operator="dilate" radius="1"></feMorphology><feComposite in2="SourceAlpha" operator="out"></feComposite></filter><path d="M110.39 277.81C110.39 277.81 110.39 277.81 110.39 277.81C110.39 253.14 129.17 233.1 152.3 233.1C152.3 233.1 458.02 233.1 458.02 233.1C481.15 233.1 499.93 253.14 499.93 277.81C499.93 277.81 499.93 277.81 499.93 277.81C499.93 302.48 481.15 322.51 458.02 322.51C458.02 322.51 152.3 322.51 152.3 322.51C129.17 322.51 110.39 302.48 110.39 277.81Z" id="a2iH5KD9fJ" fill="white" fill-opacity="1" filter="url(#shadow10731910)"></path></g><use xlink:href="#aEWna0ZsK" opacity="1" fill="#9642f5" fill-opacity="1"></use><g><use xlink:href="#aEWna0ZsK" opacity="1" fill-opacity="0" stroke="#000000" stroke-width="1" stroke-opacity="0"></use></g></g><g><g><filter id="shadow463256" x="22.21" y="47.55" width="565.89" height="139.35" filterUnits="userSpaceOnUse" primitiveUnits="userSpaceOnUse"><feFlood></feFlood><feComposite in2="SourceAlpha" operator="in"></feComposite><feGaussianBlur stdDeviation="1"></feGaussianBlur><feOffset dx="0" dy="0" result="afterOffset"></feOffset><feFlood flood-color="#000000" flood-opacity="0.5"></feFlood><feComposite in2="afterOffset" operator="in"></feComposite><feMorphology operator="dilate" radius="1"></feMorphology><feComposite in2="SourceAlpha" operator="out"></feComposite></filter><path d="M30.21 117.23C30.21 117.23 30.21 117.23 30.21 117.23C30.21 83.18 56.73 55.55 89.38 55.55C89.38 55.55 520.94 55.55 520.94 55.55C553.59 55.55 580.11 83.18 580.11 117.23C580.11 117.23 580.11 117.23 580.11 117.23C580.11 151.27 553.59 178.9 520.94 178.9C520.94 178.9 89.38 178.9 89.38 178.9C56.73 178.9 30.21 151.27 30.21 117.23Z" id="b2dvlPMMWG" fill="white" fill-opacity="1" filter="url(#shadow463256)"></path></g><use xlink:href="#d1CLFJrkx7" opacity="1" fill="#9642f5" fill-opacity="1"></use><g><use xlink:href="#d1CLFJrkx7" opacity="1" fill-opacity="0" stroke="#000000" stroke-width="1" stroke-opacity="0"></use></g></g><g><g><filter id="shadow8709117" x="149.68" y="5.15" width="344.9" height="367.14" filterUnits="userSpaceOnUse" primitiveUnits="userSpaceOnUse"><feFlood></feFlood><feComposite in2="SourceAlpha" operator="in"></feComposite><feGaussianBlur stdDeviation="1"></feGaussianBlur><feOffset dx="0" dy="0" result="afterOffset"></feOffset><feFlood flood-color="#000000" flood-opacity="0.5"></feFlood><feComposite in2="afterOffset" operator="in"></feComposite><feMorphology operator="dilate" radius="1"></feMorphology><feComposite in2="SourceAlpha" operator="out"></feComposite></filter><path d="M322.13 364.29C231.37 364.29 157.68 285.62 157.68 188.72C157.68 91.82 231.37 13.15 322.13 13.15C412.9 13.15 486.58 91.82 486.58 188.72C486.58 285.62 412.9 364.29 322.13 364.29Z" id="f3dkbF6arH" fill="white" fill-opacity="1" filter="url(#shadow8709117)"></path></g><use xlink:href="#biNbJeHJX" opacity="1" fill="#2d2d2d" fill-opacity="1"></use><g><use xlink:href="#biNbJeHJX" opacity="1" fill-opacity="0" stroke="#000000" stroke-width="1" stroke-opacity="0"></use></g></g><g><g><use xlink:href="#e54YCHSCZL" opacity="1" fill-opacity="0" stroke="#000000" stroke-width="0" stroke-opacity="0"></use></g></g><g><g><filter id="shadow9893425" x="127.68" y="-16.85" width="388.9" height="411.14" filterUnits="userSpaceOnUse" primitiveUnits="userSpaceOnUse"><feFlood></feFlood><feComposite in2="SourceAlpha" operator="in"></feComposite><feGaussianBlur stdDeviation="3.16"></feGaussianBlur><feOffset dx="0" dy="0" result="afterOffset"></feOffset><feFlood flood-color="#000000" flood-opacity="0.5"></feFlood><feComposite in2="afterOffset" operator="in"></feComposite><feMorphology operator="dilate" radius="5"></feMorphology><feComposite in2="SourceAlpha" operator="out"></feComposite></filter><path d="M322.13 364.29C231.37 364.29 157.68 285.62 157.68 188.72C157.68 91.82 231.37 13.15 322.13 13.15C412.9 13.15 486.58 91.82 486.58 188.72C486.58 285.62 412.9 364.29 322.13 364.29Z" id="b1bdYdkazd" fill="white" fill-opacity="1" filter="url(#shadow9893425)"></path></g><use xlink:href="#c3219UPAZS" opacity="1" fill="#000000" fill-opacity="0"></use><g><use xlink:href="#c3219UPAZS" opacity="1" fill-opacity="0" stroke="#9642f5" stroke-width="10" stroke-opacity="1"></use></g></g><g><use xlink:href="#f1nR7kxVg" opacity="1" fill="#898383" fill-opacity="1"></use></g><g><g><filter id="shadow12594599" x="212.73" y="90.33" width="142" height="178.14" filterUnits="userSpaceOnUse" primitiveUnits="userSpaceOnUse"><feFlood></feFlood><feComposite in2="SourceAlpha" operator="in"></feComposite><feGaussianBlur stdDeviation="1"></feGaussianBlur><feOffset dx="0" dy="1" result="afterOffset"></feOffset><feFlood flood-color="#000000" flood-opacity="0.5"></feFlood><feComposite in2="afterOffset" operator="in"></feComposite><feMorphology operator="dilate" radius="1"></feMorphology><feComposite in2="SourceAlpha" operator="out"></feComposite></filter><path d="M339.25 224.42L339.53 224.45L339.81 224.49L340.09 224.54L340.37 224.6L340.64 224.68L340.9 224.76L341.16 224.85L341.42 224.95L341.67 225.06L341.91 225.19L342.15 225.32L342.39 225.46L342.62 225.6L342.84 225.76L343.06 225.93L343.26 226.1L343.47 226.28L343.66 226.47L343.85 226.66L344.03 226.86L344.2 227.07L344.37 227.29L344.52 227.51L344.67 227.74L344.81 227.97L344.94 228.21L345.06 228.46L345.18 228.71L345.28 228.97L345.37 229.23L345.45 229.49L345.53 229.76L345.59 230.04L345.64 230.31L345.68 230.6L345.71 230.88L345.73 231.17L345.73 231.46L345.73 251.41L345.73 251.7L345.71 251.99L345.68 252.27L345.64 252.56L345.59 252.83L345.53 253.11L345.45 253.38L345.37 253.64L345.28 253.9L345.18 254.16L345.06 254.41L344.94 254.66L344.81 254.9L344.67 255.13L344.52 255.36L344.37 255.58L344.2 255.8L344.03 256.01L343.85 256.21L343.66 256.4L343.47 256.59L343.26 256.77L343.06 256.94L342.84 257.11L342.62 257.27L342.39 257.41L342.15 257.55L341.91 257.68L341.67 257.81L341.42 257.92L341.16 258.02L340.9 258.11L340.64 258.19L340.37 258.27L340.09 258.33L339.81 258.38L339.53 258.42L339.25 258.45L338.96 258.47L338.67 258.47L228.79 258.47L228.5 258.47L228.21 258.45L227.93 258.42L227.65 258.38L227.37 258.33L227.1 258.27L226.83 258.19L226.56 258.11L226.3 258.02L226.04 257.92L225.79 257.81L225.55 257.68L225.31 257.55L225.07 257.41L224.84 257.27L224.62 257.11L224.41 256.94L224.2 256.77L223.99 256.59L223.8 256.4L223.61 256.21L223.43 256.01L223.26 255.8L223.09 255.58L222.94 255.36L222.79 255.13L222.65 254.9L222.52 254.66L222.4 254.41L222.29 254.16L222.18 253.9L222.09 253.64L222.01 253.38L221.94 253.11L221.87 252.83L221.82 252.56L221.78 252.27L221.75 251.99L221.74 251.7L221.73 251.41L221.73 231.46L221.74 231.17L221.75 230.88L221.78 230.6L221.82 230.31L221.87 230.04L221.94 229.76L222.01 229.49L222.09 229.23L222.18 228.97L222.29 228.71L222.4 228.46L222.52 228.21L222.65 227.97L222.79 227.74L222.94 227.51L223.09 227.29L223.26 227.07L223.43 226.86L223.61 226.66L223.8 226.47L223.99 226.28L224.2 226.1L224.41 225.93L224.62 225.76L224.84 225.6L225.07 225.46L225.31 225.32L225.55 225.19L225.79 225.06L226.04 224.95L226.3 224.85L226.56 224.76L226.83 224.68L227.1 224.6L227.37 224.54L227.65 224.49L227.93 224.45L228.21 224.42L228.5 224.4L228.79 224.4L338.67 224.4L338.96 224.4L339.25 224.42ZM339.25 185.91L339.53 185.94L339.81 185.98L340.09 186.03L340.37 186.09L340.64 186.17L340.9 186.25L341.16 186.34L341.42 186.44L341.67 186.56L341.91 186.68L342.15 186.81L342.39 186.95L342.62 187.1L342.84 187.25L343.06 187.42L343.26 187.59L343.47 187.77L343.66 187.96L343.85 188.15L344.03 188.36L344.2 188.56L344.37 188.78L344.52 189L344.67 189.23L344.81 189.47L344.94 189.71L345.06 189.95L345.18 190.2L345.28 190.46L345.37 190.72L345.45 190.98L345.53 191.25L345.59 191.53L345.64 191.81L345.68 192.09L345.71 192.37L345.73 192.66L345.73 192.95L345.73 212.9L345.73 213.19L345.71 213.48L345.68 213.77L345.64 214.05L345.59 214.32L345.53 214.6L345.45 214.87L345.37 215.13L345.28 215.39L345.18 215.65L345.06 215.9L344.94 216.15L344.81 216.39L344.67 216.62L344.52 216.85L344.37 217.07L344.2 217.29L344.03 217.5L343.85 217.7L343.66 217.9L343.47 218.08L343.26 218.26L343.06 218.44L342.84 218.6L342.62 218.76L342.39 218.91L342.15 219.04L341.91 219.18L341.67 219.3L341.42 219.41L341.16 219.51L340.9 219.6L340.64 219.69L340.37 219.76L340.09 219.82L339.81 219.87L339.53 219.91L339.25 219.94L338.96 219.96L338.67 219.96L228.79 219.96L228.5 219.96L228.21 219.94L227.93 219.91L227.65 219.87L227.37 219.82L227.1 219.76L226.83 219.69L226.56 219.6L226.3 219.51L226.04 219.41L225.79 219.3L225.55 219.18L225.31 219.04L225.07 218.91L224.84 218.76L224.62 218.6L224.41 218.44L224.2 218.26L223.99 218.08L223.8 217.9L223.61 217.7L223.43 217.5L223.26 217.29L223.09 217.07L222.94 216.85L222.79 216.62L222.65 216.39L222.52 216.15L222.4 215.9L222.29 215.65L222.18 215.39L222.09 215.13L222.01 214.87L221.94 214.6L221.87 214.32L221.82 214.05L221.78 213.77L221.75 213.48L221.74 213.19L221.73 212.9L221.73 192.95L221.74 192.66L221.75 192.37L221.78 192.09L221.82 191.81L221.87 191.53L221.94 191.25L222.01 190.98L222.09 190.72L222.18 190.46L222.29 190.2L222.4 189.95L222.52 189.71L222.65 189.47L222.79 189.23L222.94 189L223.09 188.78L223.26 188.56L223.43 188.36L223.61 188.15L223.8 187.96L223.99 187.77L224.2 187.59L224.41 187.42L224.62 187.25L224.84 187.1L225.07 186.95L225.31 186.81L225.55 186.68L225.79 186.56L226.04 186.44L226.3 186.34L226.56 186.25L226.83 186.17L227.1 186.09L227.37 186.03L227.65 185.98L227.93 185.94L228.21 185.91L228.5 185.9L228.79 185.89L338.67 185.89L338.96 185.9L339.25 185.91ZM339.25 147.41L339.53 147.44L339.81 147.48L340.09 147.53L340.37 147.59L340.64 147.67L340.9 147.75L341.16 147.84L341.42 147.94L341.67 148.06L341.91 148.18L342.15 148.31L342.39 148.45L342.62 148.6L342.84 148.75L343.06 148.92L343.26 149.09L343.47 149.27L343.66 149.46L343.85 149.65L344.03 149.86L344.2 150.06L344.37 150.28L344.52 150.5L344.67 150.73L344.81 150.97L344.94 151.21L345.06 151.45L345.18 151.7L345.28 151.96L345.37 152.22L345.45 152.48L345.53 152.75L345.59 153.03L345.64 153.31L345.68 153.59L345.71 153.87L345.73 154.16L345.73 154.45L345.73 174.4L345.73 174.69L345.71 174.98L345.68 175.27L345.64 175.55L345.59 175.82L345.53 176.1L345.45 176.37L345.37 176.63L345.28 176.89L345.18 177.15L345.06 177.4L344.94 177.65L344.81 177.89L344.67 178.12L344.52 178.35L344.37 178.57L344.2 178.79L344.03 179L343.85 179.2L343.66 179.39L343.47 179.58L343.26 179.76L343.06 179.94L342.84 180.1L342.62 180.26L342.39 180.41L342.15 180.54L341.91 180.67L341.67 180.8L341.42 180.91L341.16 181.01L340.9 181.1L340.64 181.19L340.37 181.26L340.09 181.32L339.81 181.37L339.53 181.41L339.25 181.44L338.96 181.46L338.67 181.46L228.79 181.46L228.5 181.46L228.21 181.44L227.93 181.41L227.65 181.37L227.37 181.32L227.1 181.26L226.83 181.19L226.56 181.1L226.3 181.01L226.04 180.91L225.79 180.8L225.55 180.67L225.31 180.54L225.07 180.41L224.84 180.26L224.62 180.1L224.41 179.94L224.2 179.76L223.99 179.58L223.8 179.39L223.61 179.2L223.43 179L223.26 178.79L223.09 178.57L222.94 178.35L222.79 178.12L222.65 177.89L222.52 177.65L222.4 177.4L222.29 177.15L222.18 176.89L222.09 176.63L222.01 176.37L221.94 176.1L221.87 175.82L221.82 175.55L221.78 175.27L221.75 174.98L221.74 174.69L221.73 174.4L221.73 154.45L221.74 154.16L221.75 153.87L221.78 153.59L221.82 153.31L221.87 153.03L221.94 152.75L222.01 152.48L222.09 152.22L222.18 151.96L222.29 151.7L222.4 151.45L222.52 151.21L222.65 150.97L222.79 150.73L222.94 150.5L223.09 150.28L223.26 150.06L223.43 149.86L223.61 149.65L223.8 149.46L223.99 149.27L224.2 149.09L224.41 148.92L224.62 148.75L224.84 148.6L225.07 148.45L225.31 148.31L225.55 148.18L225.79 148.06L226.04 147.94L226.3 147.84L226.56 147.75L226.83 147.67L227.1 147.59L227.37 147.53L227.65 147.48L227.93 147.44L228.21 147.41L228.5 147.39L228.79 147.39L338.67 147.39L338.96 147.39L339.25 147.41ZM317.23 99.36L317.51 99.38L317.8 99.42L318.07 99.48L318.35 99.54L318.62 99.61L318.88 99.69L319.14 99.78L319.4 99.89L319.65 100L319.9 100.12L320.14 100.25L320.37 100.39L320.6 100.54L320.82 100.69L321.04 100.86L321.25 101.03L321.45 101.21L321.64 101.4L321.83 101.6L322.01 101.8L322.19 102.01L322.35 102.22L322.51 102.45L322.65 102.67L322.79 102.91L322.92 103.15L323.05 103.39L323.16 103.65L323.26 103.9L323.35 104.16L323.43 104.43L323.51 104.7L323.57 104.97L323.62 105.25L323.66 105.53L323.69 105.82L323.71 106.1L323.71 106.39L323.71 147.39L304.14 147.39L304.14 122L304.13 121.81L304.12 121.63L304.1 121.45L304.07 121.27L304.03 121.09L303.98 120.92L303.92 120.75L303.86 120.59L303.79 120.42L303.71 120.27L303.63 120.11L303.54 119.96L303.44 119.82L303.33 119.68L303.22 119.55L303.1 119.42L302.98 119.3L302.85 119.18L302.72 119.07L302.58 118.96L302.44 118.86L302.29 118.77L302.13 118.69L301.98 118.61L301.81 118.54L301.65 118.48L301.48 118.42L301.31 118.37L301.13 118.33L300.95 118.3L300.77 118.28L300.59 118.27L300.4 118.26L265.17 118.26L264.98 118.27L264.8 118.28L264.62 118.3L264.44 118.33L264.26 118.37L264.09 118.42L263.92 118.48L263.76 118.54L263.59 118.61L263.44 118.69L263.28 118.77L263.13 118.86L262.99 118.96L262.85 119.07L262.72 119.18L262.59 119.3L262.47 119.42L262.35 119.55L262.24 119.68L262.13 119.82L262.03 119.96L261.94 120.11L261.86 120.27L261.78 120.42L261.71 120.59L261.65 120.75L261.59 120.92L261.54 121.09L261.5 121.27L261.47 121.45L261.45 121.63L261.44 121.81L261.43 122L261.43 147.39L243.04 147.39L243.04 106.39L243.05 106.1L243.07 105.82L243.1 105.53L243.14 105.25L243.19 104.97L243.25 104.7L243.32 104.43L243.4 104.16L243.5 103.9L243.6 103.65L243.71 103.39L243.83 103.15L243.96 102.91L244.1 102.67L244.25 102.45L244.41 102.22L244.57 102.01L244.74 101.8L244.92 101.6L245.11 101.4L245.31 101.21L245.51 101.03L245.72 100.86L245.94 100.69L246.16 100.54L246.39 100.39L246.62 100.25L246.86 100.12L247.11 100L247.36 99.89L247.61 99.78L247.87 99.69L248.14 99.61L248.41 99.54L248.68 99.48L248.96 99.42L249.24 99.38L249.53 99.36L249.82 99.34L250.11 99.33L316.65 99.33L316.94 99.34L317.23 99.36Z" id="aijqIQPa" fill="white" fill-opacity="1" filter="url(#shadow12594599)"></path></g><use xlink:href="#bqMUFal41" opacity="1" fill="#c9c9c9" fill-opacity="1"></use></g><g><use xlink:href="#dYRbkXaCb" opacity="1" fill="#6c62de" fill-opacity="1"></use><g mask="url(#maskmsoDRrCT)"><use xlink:href="#dYRbkXaCb" opacity="1" fill-opacity="0" stroke="#4256bd" stroke-width="2" stroke-opacity="1"></use></g></g><g><use xlink:href="#bkjbN7lV" opacity="1" fill="#6c62de" fill-opacity="1"></use><g mask="url(#maskdEDcaZCA)"><use xlink:href="#bkjbN7lV" opacity="1" fill-opacity="0" stroke="#4256bd" stroke-width="2" stroke-opacity="1"></use></g></g><g><use xlink:href="#a1Hk7x0Ash" opacity="1" fill="#ffffff" fill-opacity="0.27"></use></g><g><g><filter id="shadow10410826" x="346.8" y="99.92" width="89" height="163.09" filterUnits="userSpaceOnUse" primitiveUnits="userSpaceOnUse"><feFlood></feFlood><feComposite in2="SourceAlpha" operator="in"></feComposite><feGaussianBlur stdDeviation="1"></feGaussianBlur><feOffset dx="0" dy="0" result="afterOffset"></feOffset><feFlood flood-color="#000000" flood-opacity="0.5"></feFlood><feComposite in2="afterOffset" operator="in"></feComposite><feMorphology operator="dilate" radius="0"></feMorphology><feComposite in2="SourceAlpha" operator="out"></feComposite></filter><path d="M395.89 107.2L397.38 107.41L398.86 107.68L400.31 108.01L401.74 108.39L403.15 108.83L404.54 109.32L405.89 109.87L407.23 110.46L408.53 111.11L409.81 111.8L411.05 112.54L412.26 113.33L413.44 114.16L414.59 115.03L415.7 115.95L416.78 116.91L417.81 117.91L418.81 118.94L419.77 120.02L420.69 121.13L421.56 122.28L422.4 123.46L423.18 124.67L423.92 125.92L424.62 127.19L425.26 128.49L425.85 129.83L426.4 131.19L426.89 132.57L427.33 133.98L427.71 135.41L428.04 136.86L428.31 138.34L428.53 139.83L428.68 141.34L428.77 142.87L428.8 144.42L428.77 145.96L428.68 147.49L428.53 149L428.31 150.5L428.04 151.97L427.71 153.42L427.33 154.86L426.89 156.27L426.4 157.65L425.85 159.01L425.26 160.34L424.62 161.65L423.92 162.92L423.18 164.17L422.4 165.38L421.56 166.56L420.69 167.71L419.77 168.82L418.81 169.89L417.81 170.93L416.78 171.93L415.7 172.89L414.59 173.8L413.44 174.68L412.26 175.51L411.05 176.3L409.81 177.04L408.53 177.73L407.23 178.37L406.58 178.66L406.58 251.71L406.57 251.89L406.56 252.06L406.54 252.24L406.52 252.41L406.49 252.58L406.45 252.74L406.41 252.91L406.36 253.07L406.3 253.23L406.24 253.38L406.17 253.54L406.1 253.69L406.02 253.83L405.93 253.98L405.84 254.11L405.75 254.25L405.65 254.38L405.54 254.51L405.43 254.63L405.32 254.75L405.2 254.86L405.08 254.97L404.95 255.08L404.82 255.18L404.68 255.27L404.54 255.36L404.4 255.45L404.25 255.53L404.1 255.6L403.95 255.67L403.8 255.73L403.64 255.79L403.48 255.84L403.31 255.88L403.15 255.92L402.98 255.95L402.81 255.98L402.63 255.99L402.46 256.01L402.28 256.01L389.76 256.01L376.03 242.28L376.03 232.51L381.61 226.93L381.87 226.65L382.09 226.36L382.28 226.06L382.45 225.75L382.59 225.42L382.7 225.09L382.79 224.75L382.84 224.41L382.87 224.06L382.87 223.71L382.84 223.37L382.79 223.02L382.7 222.69L382.59 222.35L382.45 222.03L382.28 221.71L382.09 221.41L381.87 221.12L381.61 220.85L376.03 215.27L376.03 208.19L382.64 201.58L382.89 201.3L383.11 201.02L383.31 200.71L383.48 200.4L383.61 200.07L383.73 199.74L383.81 199.4L383.87 199.06L383.89 198.71L383.89 198.37L383.87 198.02L383.81 197.68L383.73 197.34L383.61 197L383.48 196.68L383.31 196.37L383.11 196.06L382.89 195.77L382.64 195.5L376.03 188.89L376.03 178.66L375.38 178.37L374.08 177.73L372.8 177.04L371.56 176.3L370.34 175.51L369.16 174.68L368.02 173.8L366.9 172.89L365.83 171.93L364.79 170.93L363.79 169.89L362.84 168.82L361.92 167.71L361.04 166.56L360.21 165.38L359.43 164.17L358.68 162.92L357.99 161.65L357.35 160.34L356.75 159.01L356.21 157.65L355.72 156.27L355.28 154.86L354.89 153.42L354.57 151.97L354.29 150.5L354.08 149L353.93 147.49L353.83 145.96L353.8 144.42L353.83 142.87L353.93 141.34L354.08 139.83L354.29 138.34L354.57 136.86L354.89 135.41L355.28 133.98L355.72 132.57L356.21 131.19L356.75 129.83L357.35 128.49L357.99 127.19L358.68 125.92L359.43 124.67L360.21 123.46L361.04 122.28L361.92 121.13L362.84 120.02L363.79 118.94L364.79 117.91L365.83 116.91L366.9 115.95L368.02 115.03L369.16 114.16L370.34 113.33L371.56 112.54L372.8 111.8L374.08 111.11L375.38 110.46L376.71 109.87L378.07 109.32L379.46 108.83L380.86 108.39L382.3 108.01L383.75 107.68L385.22 107.41L386.72 107.2L388.23 107.04L389.76 106.95L391.3 106.92L392.85 106.95L394.38 107.04L394.38 107.04L395.89 107.2ZM387.38 119.59L386.11 119.82L384.87 120.12L383.65 120.48L382.45 120.9L381.29 121.37L380.15 121.9L379.05 122.49L377.98 123.13L376.95 123.82L375.95 124.56L374.99 125.34L374.07 126.17L373.2 127.05L372.36 127.97L371.58 128.93L370.84 129.92L370.15 130.96L369.51 132.03L368.93 133.13L368.43 134.19L414.18 134.19L413.68 133.13L413.1 132.03L412.46 130.96L411.77 129.92L411.03 128.93L410.24 127.97L409.41 127.05L408.53 126.17L407.62 125.34L406.66 124.56L405.66 123.82L404.63 123.13L403.56 122.49L402.45 121.9L401.32 121.37L400.15 120.9L398.96 120.48L397.74 120.12L396.5 119.82L395.23 119.59L393.94 119.42L392.63 119.32L391.3 119.28L389.98 119.32L388.67 119.42L388.67 119.42L387.38 119.59Z" id="aoFPqzEEG" fill="white" fill-opacity="1" filter="url(#shadow10410826)"></path></g><use xlink:href="#a23I8yB6Fb" opacity="1" fill="#c9c9c9" fill-opacity="1"></use></g><g><use xlink:href="#aFUIRQI1R" opacity="1" fill="#c9c9c9" fill-opacity="1"></use><g><filter id="shadow10327082" x="384.93" y="175.83" width="23.27" height="89.18" filterUnits="userSpaceOnUse" primitiveUnits="userSpaceOnUse"><feFlood></feFlood><feComposite in2="SourceAlpha" operator="out"></feComposite><feGaussianBlur stdDeviation="1"></feGaussianBlur><feOffset dx="0" dy="1" result="afterOffset"></feOffset><feFlood flood-color="#000000" flood-opacity="0.27"></feFlood><feComposite in2="afterOffset" operator="in"></feComposite><feMorphology operator="dilate" radius="0"></feMorphology><feComposite in2="SourceAlpha" operator="in"></feComposite></filter><path d="M392.93 183.83L400.2 183.83L400.2 256.01L392.93 256.01L392.93 183.83Z" id="aBt7C5HAD" fill="white" fill-opacity="1" filter="url(#shadow10327082)"></path></g></g><g><use xlink:href="#bNSpiA3jN" opacity="1" fill="#ffffff" fill-opacity="0.3"></use></g></g></g></svg>