<?xml version="1.0" encoding="UTF-8" standalone="no"?>
<!DOCTYPE svg PUBLIC "-//W3C//DTD SVG 1.1//EN" "http://www.w3.org/Graphics/SVG/1.1/DTD/svg11.dtd">
<svg version="1.1" xmlns="http://www.w3.org/2000/svg" xmlns:xlink="http://www.w3.org/1999/xlink" preserveAspectRatio="xMidYMid meet" viewBox="0 0 640 381" width="640" height="381"><defs><path d="M305.16 203.12C305.16 203.12 305.16 203.12 305.16 203.12C305.16 183.3 320.83 167.2 340.13 167.2C340.13 167.2 595.24 167.2 595.24 167.2C614.55 167.2 630.21 183.3 630.21 203.12C630.21 203.12 630.21 203.12 630.21 203.12C630.21 222.95 614.55 239.05 595.24 239.05C595.24 239.05 340.13 239.05 340.13 239.05C320.83 239.05 305.16 222.95 305.16 203.12Z" id="bJs6Gbse9"></path><path d="M30.21 117.23C30.21 117.23 30.21 117.23 30.21 117.23C30.21 83.18 56.73 55.55 89.38 55.55C89.38 55.55 520.94 55.55 520.94 55.55C553.59 55.55 580.11 83.18 580.11 117.23C580.11 117.23 580.11 117.23 580.11 117.23C580.11 151.27 553.59 178.9 520.94 178.9C520.94 178.9 89.38 178.9 89.38 178.9C56.73 178.9 30.21 151.27 30.21 117.23Z" id="a6zHOfotK"></path><path d="M110.39 277.81C110.39 277.81 110.39 277.81 110.39 277.81C110.39 253.14 129.17 233.1 152.3 233.1C152.3 233.1 458.02 233.1 458.02 233.1C481.15 233.1 499.93 253.14 499.93 277.81C499.93 277.81 499.93 277.81 499.93 277.81C499.93 302.48 481.15 322.51 458.02 322.51C458.02 322.51 152.3 322.51 152.3 322.51C129.17 322.51 110.39 302.48 110.39 277.81Z" id="cSC3Bjnic"></path><path d="M322.13 364.29C231.37 364.29 157.68 285.62 157.68 188.72C157.68 91.82 231.37 13.15 322.13 13.15C412.9 13.15 486.58 91.82 486.58 188.72C486.58 285.62 412.9 364.29 322.13 364.29Z" id="bQZCz0hFh"></path><path d="M322.13 364.29C231.37 364.29 157.68 285.62 157.68 188.72C157.68 91.82 231.37 13.15 322.13 13.15C412.9 13.15 486.58 91.82 486.58 188.72C486.58 285.62 412.9 364.29 322.13 364.29Z" id="d1ptm1cJTw"></path><path d="" id="n3hrJVEnxH"></path><path d="M238.19 111.03L237.7 110.94L237.23 110.81L236.77 110.66L236.33 110.47L235.91 110.26L235.5 110.01L235.11 109.74L234.74 109.44L234.4 109.12L234.08 108.77L233.78 108.41L233.51 108.02L233.26 107.61L233.04 107.19L232.86 106.74L232.7 106.29L232.58 105.82L232.49 105.33L232.43 104.84L232.42 104.33L232.43 103.83L232.49 103.33L232.58 102.85L232.7 102.38L232.86 101.92L233.04 101.48L233.26 101.05L233.51 100.65L233.78 100.26L234.08 99.89L234.4 99.54L234.74 99.22L235.11 98.92L235.5 98.65L235.91 98.41L236.33 98.19L236.77 98L237.23 97.85L237.7 97.73L238.19 97.64L238.68 97.58L239.19 97.56L273.86 97.56L274.37 97.58L274.86 97.64L275.35 97.73L275.82 97.85L276.28 98L276.72 98.19L277.14 98.41L277.55 98.65L277.94 98.92L278.3 99.22L278.65 99.54L278.97 99.89L279.27 100.26L279.54 100.65L279.79 101.05L280 101.48L280.19 101.92L280.35 102.38L280.47 102.85L280.56 103.33L280.61 103.83L280.63 104.33L280.61 104.84L280.56 105.33L280.47 105.82L280.35 106.29L280.19 106.74L280 107.19L279.79 107.61L279.54 108.02L279.27 108.41L278.97 108.77L278.65 109.12L278.3 109.44L277.94 109.74L277.55 110.01L277.14 110.26L276.72 110.47L276.28 110.66L275.82 110.81L275.35 110.94L274.86 111.03L274.37 111.08L273.86 111.1L273.37 111.1L273.37 164.72L275.09 165.33L277 166.09L278.87 166.93L280.7 167.83L282.48 168.81L284.23 169.84L285.93 170.95L287.59 172.11L289.2 173.34L290.76 174.63L292.27 175.97L293.72 177.37L295.12 178.83L296.47 180.34L297.75 181.9L298.98 183.51L300.15 185.16L301.25 186.86L302.29 188.61L303.26 190.4L304.17 192.23L305 194.1L305.77 196L306.46 197.95L307.07 199.92L307.61 201.93L308.07 203.97L308.45 206.04L308.75 208.14L308.96 210.26L309.1 212.4L309.14 214.57L309.1 216.74L308.96 218.88L308.75 221L308.45 223.1L308.07 225.17L307.61 227.21L307.07 229.21L306.46 231.19L305.77 233.13L305 235.04L304.17 236.91L303.26 238.74L302.29 240.53L301.25 242.27L300.15 243.98L298.98 245.63L297.75 247.24L296.47 248.8L295.12 250.31L293.72 251.76L292.27 253.16L290.76 254.51L289.2 255.8L287.59 257.02L285.93 258.19L284.23 259.29L282.48 260.33L280.7 261.3L278.87 262.21L277 263.04L275.09 263.81L273.15 264.5L271.17 265.11L269.16 265.65L267.12 266.11L265.05 266.49L262.96 266.79L260.84 267.01L258.69 267.14L256.52 267.18L254.36 267.14L252.21 267.01L250.09 266.79L247.99 266.49L245.93 266.11L243.89 265.65L241.88 265.11L239.9 264.5L237.96 263.81L236.05 263.04L234.18 262.21L232.35 261.3L230.56 260.33L228.82 259.29L227.12 258.19L225.46 257.02L223.85 255.8L222.29 254.51L220.78 253.16L219.33 251.76L217.93 250.31L216.58 248.8L215.29 247.24L214.07 245.63L212.9 243.98L211.8 242.27L210.76 240.53L209.79 238.74L208.88 236.91L208.05 235.04L207.28 233.13L206.59 231.19L205.98 229.21L205.44 227.21L204.98 225.17L204.6 223.1L204.3 221L204.08 218.88L203.95 216.74L203.91 214.57L203.95 212.4L204.08 210.26L204.3 208.14L204.6 206.04L204.98 203.97L205.44 201.93L205.98 199.92L206.59 197.95L207.28 196L208.05 194.1L208.88 192.23L209.79 190.4L210.76 188.61L211.8 186.86L212.9 185.16L214.07 183.51L215.29 181.9L216.58 180.34L217.93 178.83L219.33 177.37L220.78 175.97L222.29 174.63L223.85 173.34L225.46 172.11L227.12 170.95L228.82 169.84L230.56 168.81L232.35 167.83L234.18 166.93L236.05 166.09L237.96 165.33L239.68 164.72L239.68 111.1L239.19 111.1L238.68 111.08L238.19 111.03Z" id="kqg0jBYi4"></path><path d="M303.1 216.41L303.37 216.44L303.65 216.47L303.92 216.52L304.18 216.58L304.44 216.65L304.7 216.73L304.95 216.82L305.2 216.92L305.44 217.03L305.68 217.15L305.92 217.28L306.14 217.41L306.36 217.55L306.58 217.71L306.79 217.87L306.99 218.03L307.19 218.21L307.38 218.39L307.56 218.58L307.73 218.78L307.9 218.98L308.06 219.19L308.21 219.4L308.36 219.62L308.49 219.85L308.62 220.08L308.74 220.32L308.84 220.57L308.94 220.81L309.03 221.07L309.11 221.32L309.14 221.42L308.9 223.1L308.52 225.17L308.05 227.21L307.51 229.21L306.89 231.19L306.19 233.13L305.42 235.04L304.58 236.91L303.67 238.74L302.69 240.53L301.64 242.27L300.53 243.98L299.36 245.63L298.12 247.24L296.82 248.8L295.46 250.31L294.05 251.76L292.59 253.16L291.06 254.51L289.49 255.8L287.87 257.02L286.2 258.19L284.49 259.29L282.73 260.33L280.92 261.3L279.08 262.21L277.19 263.04L275.27 263.81L273.31 264.5L271.32 265.11L269.3 265.65L267.24 266.11L265.15 266.49L263.04 266.79L260.9 267.01L258.74 267.14L256.56 267.18L254.37 267.14L252.21 267.01L250.07 266.79L247.96 266.49L245.87 266.11L243.82 265.65L241.79 265.11L239.8 264.5L237.84 263.81L235.92 263.04L234.04 262.21L232.19 261.3L230.39 260.33L228.63 259.29L226.91 258.19L225.24 257.02L223.62 255.8L222.05 254.51L220.53 253.16L219.06 251.76L217.65 250.31L216.29 248.8L215 247.24L213.76 245.63L212.58 243.98L211.47 242.27L210.42 240.53L209.44 238.74L208.53 236.91L207.69 235.04L206.92 233.13L206.23 231.19L205.61 229.21L205.06 227.21L204.6 225.17L204.21 223.1L203.91 221L203.91 220.96L203.96 220.81L204.06 220.57L204.17 220.32L204.28 220.08L204.41 219.85L204.55 219.62L204.69 219.4L204.84 219.19L205 218.98L205.17 218.78L205.34 218.58L205.52 218.39L205.71 218.21L205.91 218.03L206.11 217.87L206.32 217.71L206.54 217.55L206.76 217.41L206.99 217.28L207.22 217.15L207.46 217.03L207.7 216.92L207.95 216.82L208.2 216.73L208.46 216.65L208.72 216.58L208.99 216.52L209.26 216.47L209.53 216.44L209.8 216.41L210.08 216.39L210.37 216.38L302.54 216.38L302.82 216.39L303.1 216.41Z" id="aTyGrWwwV"></path><path d="M244.64 234.55C244.64 239.83 240.34 244.12 235.06 244.12C229.77 244.12 225.48 239.83 225.48 234.55C225.48 229.26 229.77 224.97 235.06 224.97C240.34 224.97 244.64 229.26 244.64 234.55Z" id="b3bcizs3Z"></path><path d="M290.48 217.86C290.48 223.14 286.19 227.43 280.9 227.43C275.62 227.43 271.33 223.14 271.33 217.86C271.33 212.57 275.62 208.28 280.9 208.28C286.19 208.28 290.48 212.57 290.48 217.86Z" id="b7hs24HsB"></path><path d="M280.9 248.11C280.9 251.6 278.07 254.43 274.58 254.43C271.09 254.43 268.25 251.6 268.25 248.11C268.25 244.62 271.09 241.78 274.58 241.78C278.07 241.78 280.9 244.62 280.9 248.11Z" id="a5V4Md9OFS"></path><path d="M309.94 134.71L310.36 134.82L310.77 134.97L311.16 135.15L311.52 135.37L311.86 135.63L312.18 135.91L312.46 136.23L312.72 136.57L312.94 136.94L313.13 137.32L313.27 137.73L313.38 138.15L313.45 138.59L313.47 139.05L313.45 139.5L313.38 139.94L313.27 140.36L313.13 140.77L312.94 141.16L312.72 141.52L312.46 141.86L312.18 142.18L311.86 142.46L311.52 142.72L311.16 142.94L310.77 143.13L310.36 143.27L309.94 143.38L309.5 143.45L309.05 143.47L305.27 143.47L305.27 255.06L304.9 255.06L304.79 256.41L304.49 257.71L304 258.93L303.35 260.06L302.54 261.08L301.6 261.99L300.53 262.76L299.35 263.38L298.08 263.85L296.73 264.14L295.32 264.24L293.9 264.14L292.55 263.85L291.28 263.38L290.1 262.76L289.04 261.99L288.09 261.08L287.28 260.06L286.63 258.93L286.15 257.71L285.84 256.41L285.74 255.06L285.37 255.06L285.37 143.47L281.59 143.47L281.14 143.45L280.7 143.38L280.27 143.27L279.87 143.13L279.48 142.94L279.11 142.72L278.77 142.46L278.46 142.18L278.17 141.86L277.92 141.52L277.7 141.16L277.51 140.77L277.36 140.36L277.25 139.94L277.19 139.5L277.16 139.05L277.19 138.59L277.25 138.15L277.36 137.73L277.51 137.32L277.7 136.94L277.92 136.57L278.17 136.23L278.46 135.91L278.77 135.63L279.11 135.37L279.48 135.15L279.87 134.97L280.27 134.82L280.7 134.71L281.14 134.64L281.59 134.62L309.05 134.62L309.5 134.64L309.94 134.71Z" id="ajVuno0Tb"></path><path d="M303.31 187.72L303.61 187.75L303.91 187.79L304.2 187.84L304.49 187.91L304.77 187.98L305.05 188.07L305.27 188.15L305.27 255.06L304.9 255.06L304.79 256.41L304.49 257.71L304 258.93L303.35 260.06L302.54 261.08L301.6 261.99L300.53 262.76L299.35 263.38L298.08 263.85L296.73 264.14L295.32 264.24L293.9 264.14L292.55 263.85L291.28 263.38L290.1 262.76L289.04 261.99L288.09 261.08L287.28 260.06L286.63 258.93L286.15 257.71L285.84 256.41L285.74 255.06L285.37 255.06L285.37 188.66L285.37 188.66L285.62 188.52L285.88 188.39L286.14 188.28L286.41 188.17L286.69 188.07L286.97 187.98L287.25 187.91L287.54 187.84L287.83 187.79L288.13 187.75L288.42 187.72L288.73 187.7L289.03 187.69L302.7 187.69L303.01 187.7L303.31 187.72Z" id="d3gF25xEml"></path><path d="M301.64 227.06C301.64 230.55 298.81 233.38 295.32 233.38C291.83 233.38 288.99 230.55 288.99 227.06C288.99 223.57 291.83 220.73 295.32 220.73C298.81 220.73 301.64 223.57 301.64 227.06Z" id="c2td4O1VGq"></path><path d="M301.64 207.04C301.64 210.53 298.81 213.36 295.32 213.36C291.83 213.36 288.99 210.53 288.99 207.04C288.99 203.55 291.83 200.71 295.32 200.71C298.81 200.71 301.64 203.55 301.64 207.04Z" id="b3eKiwH4NB"></path><path d="M301.64 188.69C301.64 192.18 298.81 195.02 295.32 195.02C291.83 195.02 288.99 192.18 288.99 188.69C288.99 185.2 291.83 182.37 295.32 182.37C298.81 182.37 301.64 185.2 301.64 188.69Z" id="b10znZhGY6"></path><path d="M362.3 134.71L362.73 134.82L363.14 134.97L363.52 135.15L363.89 135.37L364.23 135.63L364.54 135.91L364.83 136.23L365.08 136.57L365.31 136.94L365.49 137.32L365.64 137.73L365.75 138.15L365.82 138.59L365.84 139.05L365.82 139.5L365.75 139.94L365.64 140.36L365.49 140.77L365.31 141.16L365.08 141.52L364.83 141.86L364.54 142.18L364.23 142.46L363.89 142.72L363.52 142.94L363.14 143.13L362.73 143.27L362.3 143.38L361.86 143.45L361.41 143.47L357.63 143.47L357.63 255.06L357.26 255.06L357.16 256.41L356.86 257.71L356.37 258.93L355.72 260.06L354.91 261.08L353.97 261.99L352.9 262.76L351.72 263.38L350.45 263.85L349.1 264.14L347.68 264.24L346.27 264.14L344.92 263.85L343.65 263.38L342.47 262.76L341.4 261.99L340.46 261.08L339.65 260.06L339 258.93L338.51 257.71L338.21 256.41L338.11 255.06L337.73 255.06L337.73 143.47L333.96 143.47L333.5 143.45L333.06 143.38L332.64 143.27L332.23 143.13L331.85 142.94L331.48 142.72L331.14 142.46L330.83 142.18L330.54 141.86L330.28 141.52L330.06 141.16L329.88 140.77L329.73 140.36L329.62 139.94L329.55 139.5L329.53 139.05L329.55 138.59L329.62 138.15L329.73 137.73L329.88 137.32L330.06 136.94L330.28 136.57L330.54 136.23L330.83 135.91L331.14 135.63L331.48 135.37L331.85 135.15L332.23 134.97L332.64 134.82L333.06 134.71L333.5 134.64L333.96 134.62L361.41 134.62L361.86 134.64L362.3 134.71Z" id="egGPEwweb"></path><path d="M293.9 264.14L292.55 263.85L291.28 263.38L290.1 262.76L289.04 261.99L288.09 261.08L287.28 260.06L286.63 258.93L286.15 257.71L285.84 256.41L285.74 255.06L285.37 255.06L285.37 143.47L295.32 143.47L295.32 264.24L293.9 264.14ZM281.59 143.47L281.14 143.45L280.7 143.38L280.27 143.27L279.87 143.13L279.48 142.94L279.11 142.72L278.77 142.46L278.46 142.18L278.17 141.86L277.92 141.52L277.7 141.16L277.51 140.77L277.36 140.36L277.25 139.94L277.19 139.5L277.16 139.05L277.19 138.59L277.25 138.15L277.36 137.73L277.51 137.32L277.7 136.94L277.92 136.57L278.17 136.23L278.46 135.91L278.77 135.63L279.11 135.37L279.48 135.15L279.87 134.97L280.27 134.82L280.7 134.71L281.14 134.64L281.59 134.62L295.32 134.62L295.32 143.47L281.59 143.47Z" id="asT0olRh9"></path><path d="M355.68 187.72L355.98 187.75L356.27 187.79L356.57 187.84L356.86 187.91L357.14 187.98L357.42 188.07L357.63 188.15L357.63 255.06L357.26 255.06L357.16 256.41L356.86 257.71L356.37 258.93L355.72 260.06L354.91 261.08L353.97 261.99L352.9 262.76L351.72 263.38L350.45 263.85L349.1 264.14L347.68 264.24L346.27 264.14L344.92 263.85L343.65 263.38L342.47 262.76L341.4 261.99L340.46 261.08L339.65 260.06L339 258.93L338.51 257.71L338.21 256.41L338.11 255.06L337.73 255.06L337.73 188.66L337.73 188.66L337.99 188.52L338.24 188.39L338.51 188.28L338.78 188.17L339.05 188.07L339.33 187.98L339.61 187.91L339.9 187.84L340.2 187.79L340.49 187.75L340.79 187.72L341.09 187.7L341.4 187.69L355.07 187.69L355.38 187.7L355.68 187.72Z" id="g5JMLkQP1"></path><path d="M354.01 227.06C354.01 230.55 351.17 233.38 347.68 233.38C344.19 233.38 341.36 230.55 341.36 227.06C341.36 223.57 344.19 220.73 347.68 220.73C351.17 220.73 354.01 223.57 354.01 227.06Z" id="bxGitNgXV"></path><path d="M354.01 207.04C354.01 210.53 351.17 213.36 347.68 213.36C344.19 213.36 341.36 210.53 341.36 207.04C341.36 203.55 344.19 200.71 347.68 200.71C351.17 200.71 354.01 203.55 354.01 207.04Z" id="c7eknmL1Te"></path><path d="M354.01 188.69C354.01 192.18 351.17 195.02 347.68 195.02C344.19 195.02 341.36 192.18 341.36 188.69C341.36 185.2 344.19 182.37 347.68 182.37C351.17 182.37 354.01 185.2 354.01 188.69Z" id="g24RWihMjI"></path><path d="M346.27 264.14L344.92 263.85L343.65 263.38L342.47 262.76L341.4 261.99L340.46 261.08L339.65 260.06L339 258.93L338.51 257.71L338.21 256.41L338.11 255.06L337.73 255.06L337.73 143.47L347.68 143.47L347.68 264.24L346.27 264.14ZM333.96 143.47L333.5 143.45L333.06 143.38L332.64 143.27L332.23 143.13L331.85 142.94L331.48 142.72L331.14 142.46L330.83 142.18L330.54 141.86L330.28 141.52L330.06 141.16L329.88 140.77L329.73 140.36L329.62 139.94L329.55 139.5L329.53 139.05L329.55 138.59L329.62 138.15L329.73 137.73L329.88 137.32L330.06 136.94L330.28 136.57L330.54 136.23L330.83 135.91L331.14 135.63L331.48 135.37L331.85 135.15L332.23 134.97L332.64 134.82L333.06 134.71L333.5 134.64L333.96 134.62L347.68 134.62L347.68 143.47L333.96 143.47Z" id="a495iOlHsX"></path><path d="M415.7 134.71L416.12 134.82L416.53 134.97L416.92 135.15L417.28 135.37L417.62 135.63L417.94 135.91L418.22 136.23L418.48 136.57L418.7 136.94L418.89 137.32L419.03 137.73L419.14 138.15L419.21 138.59L419.23 139.05L419.21 139.5L419.14 139.94L419.03 140.36L418.89 140.77L418.7 141.16L418.48 141.52L418.22 141.86L417.94 142.18L417.62 142.46L417.28 142.72L416.92 142.94L416.53 143.13L416.12 143.27L415.7 143.38L415.26 143.45L414.81 143.47L411.03 143.47L411.03 255.06L410.66 255.06L410.55 256.41L410.25 257.71L409.76 258.93L409.11 260.06L408.3 261.08L407.36 261.99L406.29 262.76L405.11 263.38L403.84 263.85L402.49 264.14L401.08 264.24L399.66 264.14L398.31 263.85L397.04 263.38L395.86 262.76L394.8 261.99L393.85 261.08L393.04 260.06L392.39 258.93L391.91 257.71L391.6 256.41L391.5 255.06L391.13 255.06L391.13 143.47L387.35 143.47L386.9 143.45L386.46 143.38L386.03 143.27L385.63 143.13L385.24 142.94L384.87 142.72L384.53 142.46L384.22 142.18L383.93 141.86L383.68 141.52L383.46 141.16L383.27 140.77L383.12 140.36L383.01 139.94L382.94 139.5L382.92 139.05L382.94 138.59L383.01 138.15L383.12 137.73L383.27 137.32L383.46 136.94L383.68 136.57L383.93 136.23L384.22 135.91L384.53 135.63L384.87 135.37L385.24 135.15L385.63 134.97L386.03 134.82L386.46 134.71L386.9 134.64L387.35 134.62L414.81 134.62L415.26 134.64L415.7 134.71Z" id="a4pEgqLmI"></path><path d="M409.07 187.72L409.37 187.75L409.67 187.79L409.96 187.84L410.25 187.91L410.53 187.98L410.81 188.07L411.03 188.15L411.03 255.06L410.66 255.06L410.55 256.41L410.25 257.71L409.76 258.93L409.11 260.06L408.3 261.08L407.36 261.99L406.29 262.76L405.11 263.38L403.84 263.85L402.49 264.14L401.08 264.24L399.66 264.14L398.31 263.85L397.04 263.38L395.86 262.76L394.8 261.99L393.85 261.08L393.04 260.06L392.39 258.93L391.91 257.71L391.6 256.41L391.5 255.06L391.13 255.06L391.13 188.66L391.13 188.66L391.38 188.52L391.64 188.39L391.9 188.28L392.17 188.17L392.45 188.07L392.73 187.98L393.01 187.91L393.3 187.84L393.59 187.79L393.89 187.75L394.18 187.72L394.49 187.7L394.79 187.69L408.46 187.69L408.77 187.7L409.07 187.72Z" id="b5a8ZJCo7j"></path><path d="M407.4 227.06C407.4 230.55 404.57 233.38 401.08 233.38C397.59 233.38 394.75 230.55 394.75 227.06C394.75 223.57 397.59 220.73 401.08 220.73C404.57 220.73 407.4 223.57 407.4 227.06Z" id="bxyCpYBkH"></path><path d="M407.4 207.04C407.4 210.53 404.57 213.36 401.08 213.36C397.59 213.36 394.75 210.53 394.75 207.04C394.75 203.55 397.59 200.71 401.08 200.71C404.57 200.71 407.4 203.55 407.4 207.04Z" id="axBJ8wFL2"></path><path d="M407.4 188.69C407.4 192.18 404.57 195.02 401.08 195.02C397.59 195.02 394.75 192.18 394.75 188.69C394.75 185.2 397.59 182.37 401.08 182.37C404.57 182.37 407.4 185.2 407.4 188.69Z" id="a4iENMCM3C"></path><path d="M399.66 264.14L398.31 263.85L397.04 263.38L395.86 262.76L394.8 261.99L393.85 261.08L393.04 260.06L392.39 258.93L391.91 257.71L391.6 256.41L391.5 255.06L391.13 255.06L391.13 143.47L401.08 143.47L401.08 264.24L399.66 264.14ZM387.35 143.47L386.9 143.45L386.46 143.38L386.03 143.27L385.63 143.13L385.24 142.94L384.87 142.72L384.53 142.46L384.22 142.18L383.93 141.86L383.68 141.52L383.46 141.16L383.27 140.77L383.12 140.36L383.01 139.94L382.94 139.5L382.92 139.05L382.94 138.59L383.01 138.15L383.12 137.73L383.27 137.32L383.46 136.94L383.68 136.57L383.93 136.23L384.22 135.91L384.53 135.63L384.87 135.37L385.24 135.15L385.63 134.97L386.03 134.82L386.46 134.71L386.9 134.64L387.35 134.62L401.08 134.62L401.08 143.47L387.35 143.47Z" id="a11lUVobHj"></path><path d="M256.41 164.04L255.26 164.25L254.12 164.54L253 164.92L251.89 165.37L250.8 165.9L249.73 166.5L248.68 167.18L247.64 167.93L246.63 168.75L245.64 169.64L244.67 170.59L243.72 171.61L242.8 172.69L241.9 173.84L241.03 175.04L240.18 176.31L239.37 177.63L238.58 179L237.82 180.43L237.09 181.91L236.39 183.45L235.72 185.02L235.09 186.65L234.49 188.32L233.93 190.04L233.4 191.79L232.91 193.59L232.46 195.42L232.05 197.3L231.67 199.2L231.34 201.14L231.05 203.12L230.8 205.12L230.59 207.15L230.43 209.21L230.31 211.29L230.24 213.4L230.22 215.52L230.24 217.65L230.31 219.76L230.43 221.84L230.59 223.9L230.8 225.93L231.05 227.93L231.34 229.9L231.67 231.84L232.05 233.75L232.46 235.62L232.91 237.46L233.4 239.25L233.93 241.01L234.49 242.73L235.09 244.4L235.72 246.02L236.39 247.6L237.09 249.13L237.82 250.61L238.58 252.04L239.37 253.42L240.18 254.74L241.03 256L241.9 257.21L242.8 258.35L243.72 259.44L244.67 260.46L245.64 261.41L246.63 262.3L247.64 263.12L248.68 263.87L249.73 264.54L250.8 265.15L251.89 265.68L253 266.13L254.12 266.5L255.26 266.8L256.41 267.01L256.52 267.02L256.52 267.18L254.36 267.14L252.21 267.01L250.09 266.79L247.99 266.49L245.93 266.11L243.89 265.65L241.88 265.11L239.9 264.5L237.96 263.81L236.05 263.04L234.18 262.21L232.35 261.3L230.56 260.33L228.82 259.29L227.12 258.19L225.46 257.02L223.85 255.8L222.29 254.51L220.78 253.16L219.33 251.76L217.93 250.31L216.58 248.8L215.29 247.24L214.07 245.63L212.9 243.98L211.8 242.27L210.76 240.53L209.79 238.74L208.88 236.91L208.05 235.04L207.28 233.13L206.59 231.19L205.98 229.21L205.44 227.21L204.98 225.17L204.6 223.1L204.3 221L204.08 218.88L203.95 216.74L203.91 214.57L203.95 212.4L204.08 210.26L204.3 208.14L204.6 206.04L204.98 203.97L205.44 201.93L205.98 199.92L206.59 197.95L207.28 196L208.05 194.1L208.88 192.23L209.79 190.4L210.76 188.61L211.8 186.86L212.9 185.16L214.07 183.51L215.29 181.9L216.58 180.34L217.93 178.83L219.33 177.37L220.78 175.97L222.29 174.63L223.85 173.34L225.46 172.11L227.12 170.95L228.82 169.84L230.56 168.81L232.35 167.83L234.18 166.93L236.05 166.09L237.96 165.33L239.68 164.72L239.68 111.1L239.19 111.1L238.68 111.08L238.19 111.03L237.7 110.94L237.23 110.81L236.77 110.66L236.33 110.47L235.91 110.26L235.5 110.01L235.11 109.74L234.74 109.44L234.4 109.12L234.08 108.77L233.78 108.41L233.51 108.02L233.26 107.61L233.04 107.19L232.86 106.74L232.7 106.29L232.58 105.82L232.49 105.33L232.43 104.84L232.42 104.33L232.43 103.83L232.49 103.33L232.58 102.85L232.7 102.38L232.86 101.92L233.04 101.48L233.26 101.05L233.51 100.65L233.78 100.26L234.08 99.89L234.4 99.54L234.74 99.22L235.11 98.92L235.5 98.65L235.91 98.41L236.33 98.19L236.77 98L237.23 97.85L237.7 97.73L238.19 97.64L238.68 97.58L239.19 97.56L256.52 97.56L256.52 164.03L256.41 164.04Z" id="boySkhj51"></path><path d="M264.46 164.46L430.91 164.46L430.91 170.34L264.46 170.34L264.46 164.46Z" id="kYQGxjjHP"></path><path d="M264.46 264.24L430.91 264.24L430.91 270.12L264.46 270.12L264.46 264.24Z" id="b7Rr50UXx"></path><path d="M271.58 170.34L275.44 170.34L275.44 264.24L271.58 264.24L271.58 170.34Z" id="e2yAxZ7y9F"></path><path d="M420.78 170.34L424.63 170.34L424.63 264.24L420.78 264.24L420.78 170.34Z" id="c2KpbE1h2"></path></defs><g><g><g><g><filter id="shadow3177776" x="297.16" y="159.2" width="341.05" height="87.85" filterUnits="userSpaceOnUse" primitiveUnits="userSpaceOnUse"><feFlood></feFlood><feComposite in2="SourceAlpha" operator="in"></feComposite><feGaussianBlur stdDeviation="1"></feGaussianBlur><feOffset dx="0" dy="0" result="afterOffset"></feOffset><feFlood flood-color="#000000" flood-opacity="0.5"></feFlood><feComposite in2="afterOffset" operator="in"></feComposite><feMorphology operator="dilate" radius="1"></feMorphology><feComposite in2="SourceAlpha" operator="out"></feComposite></filter><path d="M305.16 203.12C305.16 203.12 305.16 203.12 305.16 203.12C305.16 183.3 320.83 167.2 340.13 167.2C340.13 167.2 595.24 167.2 595.24 167.2C614.55 167.2 630.21 183.3 630.21 203.12C630.21 203.12 630.21 203.12 630.21 203.12C630.21 222.95 614.55 239.05 595.24 239.05C595.24 239.05 340.13 239.05 340.13 239.05C320.83 239.05 305.16 222.95 305.16 203.12Z" id="b1hQjPdaH3" fill="white" fill-opacity="1" filter="url(#shadow3177776)"></path></g><use xlink:href="#bJs6Gbse9" opacity="1" fill="#9642f5" fill-opacity="1"></use><g><use xlink:href="#bJs6Gbse9" opacity="1" fill-opacity="0" stroke="#000000" stroke-width="1" stroke-opacity="0"></use></g></g><g><g><filter id="shadow14044176" x="22.21" y="47.55" width="565.89" height="139.35" filterUnits="userSpaceOnUse" primitiveUnits="userSpaceOnUse"><feFlood></feFlood><feComposite in2="SourceAlpha" operator="in"></feComposite><feGaussianBlur stdDeviation="1"></feGaussianBlur><feOffset dx="0" dy="0" result="afterOffset"></feOffset><feFlood flood-color="#000000" flood-opacity="0.5"></feFlood><feComposite in2="afterOffset" operator="in"></feComposite><feMorphology operator="dilate" radius="1"></feMorphology><feComposite in2="SourceAlpha" operator="out"></feComposite></filter><path d="M30.21 117.23C30.21 117.23 30.21 117.23 30.21 117.23C30.21 83.18 56.73 55.55 89.38 55.55C89.38 55.55 520.94 55.55 520.94 55.55C553.59 55.55 580.11 83.18 580.11 117.23C580.11 117.23 580.11 117.23 580.11 117.23C580.11 151.27 553.59 178.9 520.94 178.9C520.94 178.9 89.38 178.9 89.38 178.9C56.73 178.9 30.21 151.27 30.21 117.23Z" id="c3wH393ZuQ" fill="white" fill-opacity="1" filter="url(#shadow14044176)"></path></g><use xlink:href="#a6zHOfotK" opacity="1" fill="#9642f5" fill-opacity="1"></use><g><use xlink:href="#a6zHOfotK" opacity="1" fill-opacity="0" stroke="#000000" stroke-width="1" stroke-opacity="0"></use></g></g><g><g><filter id="shadow15071972" x="102.39" y="225.1" width="405.54" height="105.41" filterUnits="userSpaceOnUse" primitiveUnits="userSpaceOnUse"><feFlood></feFlood><feComposite in2="SourceAlpha" operator="in"></feComposite><feGaussianBlur stdDeviation="1"></feGaussianBlur><feOffset dx="0" dy="0" result="afterOffset"></feOffset><feFlood flood-color="#000000" flood-opacity="0.5"></feFlood><feComposite in2="afterOffset" operator="in"></feComposite><feMorphology operator="dilate" radius="1"></feMorphology><feComposite in2="SourceAlpha" operator="out"></feComposite></filter><path d="M110.39 277.81C110.39 277.81 110.39 277.81 110.39 277.81C110.39 253.14 129.17 233.1 152.3 233.1C152.3 233.1 458.02 233.1 458.02 233.1C481.15 233.1 499.93 253.14 499.93 277.81C499.93 277.81 499.93 277.81 499.93 277.81C499.93 302.48 481.15 322.51 458.02 322.51C458.02 322.51 152.3 322.51 152.3 322.51C129.17 322.51 110.39 302.48 110.39 277.81Z" id="a7kIOAxtxb" fill="white" fill-opacity="1" filter="url(#shadow15071972)"></path></g><use xlink:href="#cSC3Bjnic" opacity="1" fill="#9642f5" fill-opacity="1"></use><g><use xlink:href="#cSC3Bjnic" opacity="1" fill-opacity="0" stroke="#000000" stroke-width="1" stroke-opacity="0"></use></g></g><g><g><filter id="shadow3394840" x="149.68" y="5.15" width="344.9" height="367.14" filterUnits="userSpaceOnUse" primitiveUnits="userSpaceOnUse"><feFlood></feFlood><feComposite in2="SourceAlpha" operator="in"></feComposite><feGaussianBlur stdDeviation="1"></feGaussianBlur><feOffset dx="0" dy="0" result="afterOffset"></feOffset><feFlood flood-color="#000000" flood-opacity="0.5"></feFlood><feComposite in2="afterOffset" operator="in"></feComposite><feMorphology operator="dilate" radius="1"></feMorphology><feComposite in2="SourceAlpha" operator="out"></feComposite></filter><path d="M322.13 364.29C231.37 364.29 157.68 285.62 157.68 188.72C157.68 91.82 231.37 13.15 322.13 13.15C412.9 13.15 486.58 91.82 486.58 188.72C486.58 285.62 412.9 364.29 322.13 364.29Z" id="a1wqcQ8qdL" fill="white" fill-opacity="1" filter="url(#shadow3394840)"></path></g><use xlink:href="#bQZCz0hFh" opacity="1" fill="#2d2d2d" fill-opacity="1"></use><g><use xlink:href="#bQZCz0hFh" opacity="1" fill-opacity="0" stroke="#000000" stroke-width="1" stroke-opacity="0"></use></g></g><g><g><filter id="shadow871088" x="127.68" y="-16.85" width="388.9" height="411.14" filterUnits="userSpaceOnUse" primitiveUnits="userSpaceOnUse"><feFlood></feFlood><feComposite in2="SourceAlpha" operator="in"></feComposite><feGaussianBlur stdDeviation="3.16"></feGaussianBlur><feOffset dx="0" dy="0" result="afterOffset"></feOffset><feFlood flood-color="#000000" flood-opacity="0.5"></feFlood><feComposite in2="afterOffset" operator="in"></feComposite><feMorphology operator="dilate" radius="5"></feMorphology><feComposite in2="SourceAlpha" operator="out"></feComposite></filter><path d="M322.13 364.29C231.37 364.29 157.68 285.62 157.68 188.72C157.68 91.82 231.37 13.15 322.13 13.15C412.9 13.15 486.58 91.82 486.58 188.72C486.58 285.62 412.9 364.29 322.13 364.29Z" id="cckAw6AbF" fill="white" fill-opacity="1" filter="url(#shadow871088)"></path></g><use xlink:href="#d1ptm1cJTw" opacity="1" fill="#000000" fill-opacity="0"></use><g><use xlink:href="#d1ptm1cJTw" opacity="1" fill-opacity="0" stroke="#9642f5" stroke-width="10" stroke-opacity="1"></use></g></g><g><g><use xlink:href="#n3hrJVEnxH" opacity="1" fill-opacity="0" stroke="#000000" stroke-width="0" stroke-opacity="0"></use></g></g><g><g><filter id="shadow5824911" x="194.91" y="88.56" width="123.23" height="188.62" filterUnits="userSpaceOnUse" primitiveUnits="userSpaceOnUse"><feFlood></feFlood><feComposite in2="SourceAlpha" operator="in"></feComposite><feGaussianBlur stdDeviation="1"></feGaussianBlur><feOffset dx="0" dy="1" result="afterOffset"></feOffset><feFlood flood-color="#000000" flood-opacity="0.5"></feFlood><feComposite in2="afterOffset" operator="in"></feComposite><feMorphology operator="dilate" radius="1"></feMorphology><feComposite in2="SourceAlpha" operator="out"></feComposite></filter><path d="M238.19 111.03L237.7 110.94L237.23 110.81L236.77 110.66L236.33 110.47L235.91 110.26L235.5 110.01L235.11 109.74L234.74 109.44L234.4 109.12L234.08 108.77L233.78 108.41L233.51 108.02L233.26 107.61L233.04 107.19L232.86 106.74L232.7 106.29L232.58 105.82L232.49 105.33L232.43 104.84L232.42 104.33L232.43 103.83L232.49 103.33L232.58 102.85L232.7 102.38L232.86 101.92L233.04 101.48L233.26 101.05L233.51 100.65L233.78 100.26L234.08 99.89L234.4 99.54L234.74 99.22L235.11 98.92L235.5 98.65L235.91 98.41L236.33 98.19L236.77 98L237.23 97.85L237.7 97.73L238.19 97.64L238.68 97.58L239.19 97.56L273.86 97.56L274.37 97.58L274.86 97.64L275.35 97.73L275.82 97.85L276.28 98L276.72 98.19L277.14 98.41L277.55 98.65L277.94 98.92L278.3 99.22L278.65 99.54L278.97 99.89L279.27 100.26L279.54 100.65L279.79 101.05L280 101.48L280.19 101.92L280.35 102.38L280.47 102.85L280.56 103.33L280.61 103.83L280.63 104.33L280.61 104.84L280.56 105.33L280.47 105.82L280.35 106.29L280.19 106.74L280 107.19L279.79 107.61L279.54 108.02L279.27 108.41L278.97 108.77L278.65 109.12L278.3 109.44L277.94 109.74L277.55 110.01L277.14 110.26L276.72 110.47L276.28 110.66L275.82 110.81L275.35 110.94L274.86 111.03L274.37 111.08L273.86 111.1L273.37 111.1L273.37 164.72L275.09 165.33L277 166.09L278.87 166.93L280.7 167.83L282.48 168.81L284.23 169.84L285.93 170.95L287.59 172.11L289.2 173.34L290.76 174.63L292.27 175.97L293.72 177.37L295.12 178.83L296.47 180.34L297.75 181.9L298.98 183.51L300.15 185.16L301.25 186.86L302.29 188.61L303.26 190.4L304.17 192.23L305 194.1L305.77 196L306.46 197.95L307.07 199.92L307.61 201.93L308.07 203.97L308.45 206.04L308.75 208.14L308.96 210.26L309.1 212.4L309.14 214.57L309.1 216.74L308.96 218.88L308.75 221L308.45 223.1L308.07 225.17L307.61 227.21L307.07 229.21L306.46 231.19L305.77 233.13L305 235.04L304.17 236.91L303.26 238.74L302.29 240.53L301.25 242.27L300.15 243.98L298.98 245.63L297.75 247.24L296.47 248.8L295.12 250.31L293.72 251.76L292.27 253.16L290.76 254.51L289.2 255.8L287.59 257.02L285.93 258.19L284.23 259.29L282.48 260.33L280.7 261.3L278.87 262.21L277 263.04L275.09 263.81L273.15 264.5L271.17 265.11L269.16 265.65L267.12 266.11L265.05 266.49L262.96 266.79L260.84 267.01L258.69 267.14L256.52 267.18L254.36 267.14L252.21 267.01L250.09 266.79L247.99 266.49L245.93 266.11L243.89 265.65L241.88 265.11L239.9 264.5L237.96 263.81L236.05 263.04L234.18 262.21L232.35 261.3L230.56 260.33L228.82 259.29L227.12 258.19L225.46 257.02L223.85 255.8L222.29 254.51L220.78 253.16L219.33 251.76L217.93 250.31L216.58 248.8L215.29 247.24L214.07 245.63L212.9 243.98L211.8 242.27L210.76 240.53L209.79 238.74L208.88 236.91L208.05 235.04L207.28 233.13L206.59 231.19L205.98 229.21L205.44 227.21L204.98 225.17L204.6 223.1L204.3 221L204.08 218.88L203.95 216.74L203.91 214.57L203.95 212.4L204.08 210.26L204.3 208.14L204.6 206.04L204.98 203.97L205.44 201.93L205.98 199.92L206.59 197.95L207.28 196L208.05 194.1L208.88 192.23L209.79 190.4L210.76 188.61L211.8 186.86L212.9 185.16L214.07 183.51L215.29 181.9L216.58 180.34L217.93 178.83L219.33 177.37L220.78 175.97L222.29 174.63L223.85 173.34L225.46 172.11L227.12 170.95L228.82 169.84L230.56 168.81L232.35 167.83L234.18 166.93L236.05 166.09L237.96 165.33L239.68 164.72L239.68 111.1L239.19 111.1L238.68 111.08L238.19 111.03Z" id="c8TmRhiWS" fill="white" fill-opacity="1" filter="url(#shadow5824911)"></path></g><use xlink:href="#kqg0jBYi4" opacity="1" fill="#dad4d4" fill-opacity="1"></use></g><g><use xlink:href="#aTyGrWwwV" opacity="1" fill="#6fcb56" fill-opacity="1"></use></g><g><use xlink:href="#b3bcizs3Z" opacity="1" fill="#ffffff" fill-opacity="0.35"></use></g><g><use xlink:href="#b7hs24HsB" opacity="1" fill="#ffffff" fill-opacity="0.35"></use></g><g><use xlink:href="#a5V4Md9OFS" opacity="1" fill="#ffffff" fill-opacity="0.35"></use></g><g><g><filter id="shadow6014616" x="268.16" y="125.62" width="54.31" height="148.62" filterUnits="userSpaceOnUse" primitiveUnits="userSpaceOnUse"><feFlood></feFlood><feComposite in2="SourceAlpha" operator="in"></feComposite><feGaussianBlur stdDeviation="1"></feGaussianBlur><feOffset dx="0" dy="1" result="afterOffset"></feOffset><feFlood flood-color="#000000" flood-opacity="0.5"></feFlood><feComposite in2="afterOffset" operator="in"></feComposite><feMorphology operator="dilate" radius="1"></feMorphology><feComposite in2="SourceAlpha" operator="out"></feComposite></filter><path d="M309.94 134.71L310.36 134.82L310.77 134.97L311.16 135.15L311.52 135.37L311.86 135.63L312.18 135.91L312.46 136.23L312.72 136.57L312.94 136.94L313.13 137.32L313.27 137.73L313.38 138.15L313.45 138.59L313.47 139.05L313.45 139.5L313.38 139.94L313.27 140.36L313.13 140.77L312.94 141.16L312.72 141.52L312.46 141.86L312.18 142.18L311.86 142.46L311.52 142.72L311.16 142.94L310.77 143.13L310.36 143.27L309.94 143.38L309.5 143.45L309.05 143.47L305.27 143.47L305.27 255.06L304.9 255.06L304.79 256.41L304.49 257.71L304 258.93L303.35 260.06L302.54 261.08L301.6 261.99L300.53 262.76L299.35 263.38L298.08 263.85L296.73 264.14L295.32 264.24L293.9 264.14L292.55 263.85L291.28 263.38L290.1 262.76L289.04 261.99L288.09 261.08L287.28 260.06L286.63 258.93L286.15 257.71L285.84 256.41L285.74 255.06L285.37 255.06L285.37 143.47L281.59 143.47L281.14 143.45L280.7 143.38L280.27 143.27L279.87 143.13L279.48 142.94L279.11 142.72L278.77 142.46L278.46 142.18L278.17 141.86L277.92 141.52L277.7 141.16L277.51 140.77L277.36 140.36L277.25 139.94L277.19 139.5L277.16 139.05L277.19 138.59L277.25 138.15L277.36 137.73L277.51 137.32L277.7 136.94L277.92 136.57L278.17 136.23L278.46 135.91L278.77 135.63L279.11 135.37L279.48 135.15L279.87 134.97L280.27 134.82L280.7 134.71L281.14 134.64L281.59 134.62L309.05 134.62L309.5 134.64L309.94 134.71Z" id="a3LZT8YEnV" fill="white" fill-opacity="1" filter="url(#shadow6014616)"></path></g><use xlink:href="#ajVuno0Tb" opacity="1" fill="#dad4d4" fill-opacity="1"></use></g><g><use xlink:href="#d3gF25xEml" opacity="1" fill="#9f63b3" fill-opacity="1"></use></g><g><use xlink:href="#c2td4O1VGq" opacity="1" fill="#ffffff" fill-opacity="0.35"></use></g><g><use xlink:href="#b3eKiwH4NB" opacity="1" fill="#ffffff" fill-opacity="0.35"></use></g><g><use xlink:href="#b10znZhGY6" opacity="1" fill="#ffffff" fill-opacity="0.35"></use></g><g><g><filter id="shadow328123" x="320.53" y="125.62" width="54.31" height="148.62" filterUnits="userSpaceOnUse" primitiveUnits="userSpaceOnUse"><feFlood></feFlood><feComposite in2="SourceAlpha" operator="in"></feComposite><feGaussianBlur stdDeviation="1"></feGaussianBlur><feOffset dx="0" dy="1" result="afterOffset"></feOffset><feFlood flood-color="#000000" flood-opacity="0.5"></feFlood><feComposite in2="afterOffset" operator="in"></feComposite><feMorphology operator="dilate" radius="1"></feMorphology><feComposite in2="SourceAlpha" operator="out"></feComposite></filter><path d="M362.3 134.71L362.73 134.82L363.14 134.97L363.52 135.15L363.89 135.37L364.23 135.63L364.54 135.91L364.83 136.23L365.08 136.57L365.31 136.94L365.49 137.32L365.64 137.73L365.75 138.15L365.82 138.59L365.84 139.05L365.82 139.5L365.75 139.94L365.64 140.36L365.49 140.77L365.31 141.16L365.08 141.52L364.83 141.86L364.54 142.18L364.23 142.46L363.89 142.72L363.52 142.94L363.14 143.13L362.73 143.27L362.3 143.38L361.86 143.45L361.41 143.47L357.63 143.47L357.63 255.06L357.26 255.06L357.16 256.41L356.86 257.71L356.37 258.93L355.72 260.06L354.91 261.08L353.97 261.99L352.9 262.76L351.72 263.38L350.45 263.85L349.1 264.14L347.68 264.24L346.27 264.14L344.92 263.85L343.65 263.38L342.47 262.76L341.4 261.99L340.46 261.08L339.65 260.06L339 258.93L338.51 257.71L338.21 256.41L338.11 255.06L337.73 255.06L337.73 143.47L333.96 143.47L333.5 143.45L333.06 143.38L332.64 143.27L332.23 143.13L331.85 142.94L331.48 142.72L331.14 142.46L330.83 142.18L330.54 141.86L330.28 141.52L330.06 141.16L329.88 140.77L329.73 140.36L329.62 139.94L329.55 139.5L329.53 139.05L329.55 138.59L329.62 138.15L329.73 137.73L329.88 137.32L330.06 136.94L330.28 136.57L330.54 136.23L330.83 135.91L331.14 135.63L331.48 135.37L331.85 135.15L332.23 134.97L332.64 134.82L333.06 134.71L333.5 134.64L333.96 134.62L361.41 134.62L361.86 134.64L362.3 134.71Z" id="g1TwPmgtmR" fill="white" fill-opacity="1" filter="url(#shadow328123)"></path></g><use xlink:href="#egGPEwweb" opacity="1" fill="#dad4d4" fill-opacity="1"></use></g><g><use xlink:href="#asT0olRh9" opacity="1" fill="#ffffff" fill-opacity="0.25"></use></g><g><use xlink:href="#g5JMLkQP1" opacity="1" fill="#da5858" fill-opacity="1"></use></g><g><use xlink:href="#bxGitNgXV" opacity="1" fill="#ffffff" fill-opacity="0.35"></use></g><g><use xlink:href="#c7eknmL1Te" opacity="1" fill="#ffffff" fill-opacity="0.35"></use></g><g><use xlink:href="#g24RWihMjI" opacity="1" fill="#ffffff" fill-opacity="0.35"></use></g><g><use xlink:href="#a495iOlHsX" opacity="1" fill="#ffffff" fill-opacity="0.25"></use></g><g><g><filter id="shadow1963519" x="373.92" y="125.62" width="54.31" height="148.62" filterUnits="userSpaceOnUse" primitiveUnits="userSpaceOnUse"><feFlood></feFlood><feComposite in2="SourceAlpha" operator="in"></feComposite><feGaussianBlur stdDeviation="1"></feGaussianBlur><feOffset dx="0" dy="1" result="afterOffset"></feOffset><feFlood flood-color="#000000" flood-opacity="0.5"></feFlood><feComposite in2="afterOffset" operator="in"></feComposite><feMorphology operator="dilate" radius="1"></feMorphology><feComposite in2="SourceAlpha" operator="out"></feComposite></filter><path d="M415.7 134.71L416.12 134.82L416.53 134.97L416.92 135.15L417.28 135.37L417.62 135.63L417.94 135.91L418.22 136.23L418.48 136.57L418.7 136.94L418.89 137.32L419.03 137.73L419.14 138.15L419.21 138.59L419.23 139.05L419.21 139.5L419.14 139.94L419.03 140.36L418.89 140.77L418.7 141.16L418.48 141.52L418.22 141.86L417.94 142.18L417.62 142.46L417.28 142.72L416.92 142.94L416.53 143.13L416.12 143.27L415.7 143.38L415.26 143.45L414.81 143.47L411.03 143.47L411.03 255.06L410.66 255.06L410.55 256.41L410.25 257.71L409.76 258.93L409.11 260.06L408.3 261.08L407.36 261.99L406.29 262.76L405.11 263.38L403.84 263.85L402.49 264.14L401.08 264.24L399.66 264.14L398.31 263.85L397.04 263.38L395.86 262.76L394.8 261.99L393.85 261.08L393.04 260.06L392.39 258.93L391.91 257.71L391.6 256.41L391.5 255.06L391.13 255.06L391.13 143.47L387.35 143.47L386.9 143.45L386.46 143.38L386.03 143.27L385.63 143.13L385.24 142.94L384.87 142.72L384.53 142.46L384.22 142.18L383.93 141.86L383.68 141.52L383.46 141.16L383.27 140.77L383.12 140.36L383.01 139.94L382.94 139.5L382.92 139.05L382.94 138.59L383.01 138.15L383.12 137.73L383.27 137.32L383.46 136.94L383.68 136.57L383.93 136.23L384.22 135.91L384.53 135.63L384.87 135.37L385.24 135.15L385.63 134.97L386.03 134.82L386.46 134.71L386.9 134.64L387.35 134.62L414.81 134.62L415.26 134.64L415.7 134.71Z" id="b8eaxWisAb" fill="white" fill-opacity="1" filter="url(#shadow1963519)"></path></g><use xlink:href="#a4pEgqLmI" opacity="1" fill="#dad4d4" fill-opacity="1"></use></g><g><use xlink:href="#b5a8ZJCo7j" opacity="1" fill="#e7a35a" fill-opacity="1"></use></g><g><use xlink:href="#bxyCpYBkH" opacity="1" fill="#ffffff" fill-opacity="0.35"></use></g><g><use xlink:href="#axBJ8wFL2" opacity="1" fill="#ffffff" fill-opacity="0.35"></use></g><g><use xlink:href="#a4iENMCM3C" opacity="1" fill="#ffffff" fill-opacity="0.35"></use></g><g><use xlink:href="#a11lUVobHj" opacity="1" fill="#ffffff" fill-opacity="0.25"></use></g><g><use xlink:href="#boySkhj51" opacity="1" fill="#ffffff" fill-opacity="0.37"></use></g><g><g><filter id="shadow14052328" x="256.46" y="156.46" width="182.45" height="22.88" filterUnits="userSpaceOnUse" primitiveUnits="userSpaceOnUse"><feFlood></feFlood><feComposite in2="SourceAlpha" operator="in"></feComposite><feGaussianBlur stdDeviation="1"></feGaussianBlur><feOffset dx="0" dy="1" result="afterOffset"></feOffset><feFlood flood-color="#000000" flood-opacity="0.5"></feFlood><feComposite in2="afterOffset" operator="in"></feComposite><feMorphology operator="dilate" radius="0"></feMorphology><feComposite in2="SourceAlpha" operator="out"></feComposite></filter><path d="M264.46 164.46L430.91 164.46L430.91 170.34L264.46 170.34L264.46 164.46Z" id="a2rbRJtDPU" fill="white" fill-opacity="1" filter="url(#shadow14052328)"></path></g><use xlink:href="#kYQGxjjHP" opacity="1" fill="#c5a47b" fill-opacity="1"></use></g><g><g><filter id="shadow11414007" x="256.46" y="256.24" width="182.45" height="22.88" filterUnits="userSpaceOnUse" primitiveUnits="userSpaceOnUse"><feFlood></feFlood><feComposite in2="SourceAlpha" operator="in"></feComposite><feGaussianBlur stdDeviation="1"></feGaussianBlur><feOffset dx="0" dy="1" result="afterOffset"></feOffset><feFlood flood-color="#000000" flood-opacity="0.5"></feFlood><feComposite in2="afterOffset" operator="in"></feComposite><feMorphology operator="dilate" radius="0"></feMorphology><feComposite in2="SourceAlpha" operator="out"></feComposite></filter><path d="M264.46 264.24L430.91 264.24L430.91 270.12L264.46 270.12L264.46 264.24Z" id="a1Httqkk9E" fill="white" fill-opacity="1" filter="url(#shadow11414007)"></path></g><use xlink:href="#b7Rr50UXx" opacity="1" fill="#c5a47b" fill-opacity="1"></use></g><g><use xlink:href="#e2yAxZ7y9F" opacity="1" fill="#a4a4a4" fill-opacity="1"></use></g><g><use xlink:href="#c2KpbE1h2" opacity="1" fill="#a4a4a4" fill-opacity="1"></use></g></g></g></svg>