<?xml version="1.0" encoding="UTF-8" standalone="no"?>
<!DOCTYPE svg PUBLIC "-//W3C//DTD SVG 1.1//EN" "http://www.w3.org/Graphics/SVG/1.1/DTD/svg11.dtd">
<svg version="1.1" xmlns="http://www.w3.org/2000/svg" xmlns:xlink="http://www.w3.org/1999/xlink" preserveAspectRatio="xMidYMid meet" viewBox="0 0 263 335" width="263" height="335"><defs><path d="M65.18 258.05L46.64 237.06L109.23 181.78L127.76 202.77L65.18 258.05ZM61.26 236.4L60.15 237.14L59.27 238.15L58.71 239.32L58.47 240.58L58.55 241.86L58.96 243.08L59.71 244.2L60.72 245.08L61.89 245.64L63.15 245.88L64.42 245.79L65.65 245.38L66.77 244.64L67.64 243.62L68.2 242.45L68.45 241.2L68.36 239.92L67.95 238.69L67.2 237.58L66.19 236.7L65.02 236.14L63.77 235.9L62.49 235.98L61.26 236.4ZM74.58 224.69L73.47 225.44L72.59 226.45L72.03 227.62L71.79 228.87L71.87 230.15L72.29 231.38L73.03 232.49L74.05 233.37L75.22 233.93L76.47 234.17L77.75 234.09L78.98 233.68L80.09 232.93L80.97 231.92L81.53 230.75L81.77 229.49L81.69 228.22L81.27 226.99L80.53 225.87L79.51 225L78.35 224.43L77.09 224.19L75.81 224.28L74.58 224.69ZM87.82 212.93L86.71 213.68L85.83 214.69L85.27 215.86L85.03 217.12L85.11 218.39L85.53 219.62L86.27 220.74L87.28 221.61L88.45 222.17L89.71 222.42L90.99 222.33L92.21 221.92L93.33 221.17L94.21 220.16L94.77 218.99L95.01 217.74L94.92 216.46L94.51 215.23L93.77 214.12L92.75 213.24L91.58 212.68L90.33 212.44L89.05 212.52L87.82 212.93ZM100.85 201.43L99.73 202.17L98.85 203.19L98.29 204.36L98.05 205.61L98.14 206.89L98.55 208.12L99.29 209.23L100.31 210.11L101.48 210.67L102.73 210.91L104.01 210.83L105.24 210.42L106.35 209.67L107.23 208.66L107.79 207.49L108.03 206.23L107.95 204.96L107.54 203.73L106.79 202.61L105.78 201.73L104.61 201.17L103.35 200.93L102.07 201.02L100.85 201.43Z" id="a1sfXHNK28"></path><path d="M62.63 255.16L65.18 258.05L127.76 202.77L125.21 199.88L62.63 255.16Z" id="chajgPxXN"></path><path d="M46.64 237.06L49.19 239.95L111.78 184.67L109.23 181.78L46.64 237.06Z" id="b149UMsF4O"></path><path d="M50.83 302.53C50.83 294.75 44.45 288.45 36.58 288.45C28.71 288.45 22.33 294.75 22.33 302.53C22.33 310.3 28.71 316.6 36.58 328.45C44.45 316.6 50.83 310.3 50.83 302.53Z" id="c1ssBCSrkP"></path><linearGradient id="gradienta2d4GEIFDT" gradientUnits="userSpaceOnUse" x1="36.58" y1="288.45" x2="36.58" y2="328.45"><stop style="stop-color: #feda66;stop-opacity: 1" offset="0%"></stop><stop style="stop-color: #e0952a;stop-opacity: 1" offset="100%"></stop></linearGradient><path d="M38.35 241.26L39.21 241.39L40.07 241.57L40.92 241.79L41.75 242.07L42.57 242.39L43.38 242.76L44.17 243.17L44.94 243.63L45.7 244.12L46.44 244.66L47.16 245.24L47.87 245.86L48.55 246.52L49.21 247.21L49.86 247.94L50.48 248.7L51.07 249.5L51.65 250.33L52.2 251.19L52.72 252.09L53.22 253.01L53.69 253.96L54.14 254.94L54.55 255.94L54.94 256.97L55.3 258.02L55.63 259.1L55.92 260.2L56.19 261.32L56.42 262.46L56.62 263.62L56.78 264.79L56.91 265.99L57 267.19L57.06 268.42L57.08 269.65L57.06 270.89L57 272.12L56.91 273.33L56.78 274.54L56.62 275.74L56.42 276.94L56.19 278.14L55.92 279.33L55.63 280.52L55.3 281.72L54.94 282.92L54.55 284.12L54.14 285.33L53.69 286.55L53.22 287.77L52.72 289.01L52.2 290.26L51.65 291.53L51.07 292.81L50.48 294.1L50.33 294.4L22.82 294.4L22.68 294.1L22.08 292.81L21.51 291.53L20.96 290.26L20.43 289.01L19.93 287.77L19.46 286.55L19.02 285.33L18.6 284.12L18.21 282.92L17.86 281.72L17.53 280.52L17.23 279.33L16.97 278.14L16.74 276.94L16.54 275.74L16.37 274.54L16.25 273.33L16.15 272.12L16.1 270.89L16.08 269.65L16.1 268.42L16.15 267.19L16.25 265.99L16.37 264.79L16.54 263.62L16.74 262.46L16.97 261.32L17.23 260.2L17.53 259.1L17.86 258.02L18.21 256.97L18.6 255.94L19.02 254.94L19.46 253.96L19.93 253.01L20.43 252.09L20.96 251.19L21.51 250.33L22.08 249.5L22.68 248.7L23.3 247.94L23.94 247.21L24.6 246.52L25.29 245.86L25.99 245.24L26.71 244.66L27.45 244.12L28.21 243.63L28.99 243.17L29.78 242.76L30.58 242.39L31.4 242.07L32.24 241.79L33.08 241.57L33.94 241.39L34.81 241.26L35.69 241.18L36.58 241.15L37.47 241.18L38.35 241.26Z" id="h1Ggq2qVrJ"></path><path d="M38.96 235.24L40.13 235.36L41.28 235.52L42.42 235.72L43.55 235.97L44.65 236.26L45.74 236.6L46.81 236.97L47.87 237.38L48.9 237.84L49.9 238.33L50.89 238.85L51.85 239.41L52.79 240.01L53.7 240.64L54.59 241.31L55.45 242L56.28 242.73L57.08 243.49L57.86 244.28L58.6 245.1L59.31 245.94L59.98 246.81L60.62 247.71L61.23 248.63L61.8 249.58L62.34 250.55L62.84 251.54L63.3 252.55L63.72 253.58L64.1 254.64L64.44 255.71L64.73 256.8L64.99 257.9L65.2 259.02L65.36 260.16L65.48 261.31L65.55 262.47L65.58 263.64L65.55 264.82L65.48 265.98L65.36 267.14L65.2 268.29L64.99 269.43L64.73 270.57L64.44 271.71L64.1 272.84L63.72 273.98L63.3 275.11L62.84 276.25L62.34 277.39L61.8 278.53L61.23 279.69L60.62 280.84L59.98 282.01L59.31 283.19L59.18 283.39L13.97 283.39L13.85 283.19L13.17 282.01L12.53 280.84L11.92 279.69L11.35 278.53L10.81 277.39L10.32 276.25L9.86 275.11L9.44 273.98L9.06 272.84L8.72 271.71L8.42 270.57L8.17 269.43L7.96 268.29L7.79 267.14L7.67 265.98L7.6 264.82L7.58 263.64L7.6 262.47L7.67 261.31L7.79 260.16L7.96 259.02L8.17 257.9L8.42 256.8L8.72 255.71L9.06 254.64L9.44 253.58L9.86 252.55L10.32 251.54L10.81 250.55L11.35 249.58L11.92 248.63L12.53 247.71L13.17 246.81L13.85 245.94L14.56 245.1L15.3 244.28L16.07 243.49L16.87 242.73L17.7 242L18.56 241.31L19.45 240.64L20.36 240.01L21.3 239.41L22.26 238.85L23.25 238.33L24.26 237.84L25.29 237.38L26.34 236.97L27.41 236.6L28.5 236.26L29.61 235.97L30.73 235.72L31.87 235.52L33.03 235.36L34.2 235.24L35.38 235.17L36.58 235.14L37.77 235.17L38.96 235.24Z" id="f3JIe7MXz4"></path><path d="M196.14 258.05L133.56 202.77L152.09 181.78L214.68 237.06L196.14 258.05ZM195.13 236.7L194.12 237.58L193.37 238.69L192.96 239.92L192.87 241.2L193.11 242.45L193.68 243.62L194.55 244.64L195.67 245.38L196.9 245.79L198.17 245.88L199.43 245.64L200.6 245.08L201.61 244.2L202.36 243.08L202.77 241.86L202.85 240.58L202.61 239.32L202.05 238.15L201.17 237.14L200.06 236.4L198.83 235.98L197.55 235.9L196.3 236.14L195.13 236.7ZM181.8 225L180.79 225.87L180.05 226.99L179.63 228.22L179.55 229.49L179.79 230.75L180.35 231.92L181.23 232.93L182.34 233.68L183.57 234.09L184.85 234.17L186.1 233.93L187.27 233.37L188.29 232.49L189.03 231.38L189.44 230.15L189.53 228.87L189.29 227.62L188.73 226.45L187.85 225.44L186.73 224.69L185.51 224.28L184.23 224.19L182.97 224.43L181.8 225ZM168.57 213.24L167.55 214.12L166.81 215.23L166.4 216.46L166.31 217.74L166.55 218.99L167.11 220.16L167.99 221.17L169.1 221.92L170.33 222.33L171.61 222.42L172.87 222.17L174.03 221.61L175.05 220.74L175.79 219.62L176.21 218.39L176.29 217.12L176.05 215.86L175.49 214.69L174.61 213.68L173.5 212.93L172.27 212.52L170.99 212.44L169.74 212.68L168.57 213.24ZM155.54 201.73L154.53 202.61L153.78 203.73L153.37 204.96L153.29 206.23L153.53 207.49L154.09 208.66L154.97 209.67L156.08 210.42L157.31 210.83L158.59 210.91L159.84 210.67L161.01 210.11L162.02 209.23L162.77 208.12L163.18 206.89L163.27 205.61L163.03 204.36L162.46 203.19L161.59 202.17L160.47 201.43L159.24 201.02L157.97 200.93L156.71 201.17L155.54 201.73Z" id="g1tr0aPyV"></path><path d="M198.69 255.16L196.14 258.05L133.56 202.77L136.11 199.88L198.69 255.16Z" id="d1fp4f2Avw"></path><path d="M214.68 237.06L212.13 239.95L149.54 184.67L152.09 181.78L214.68 237.06Z" id="b5pGxOTGdQ"></path><path d="M210.49 302.53C210.49 294.75 216.87 288.45 224.74 288.45C232.61 288.45 238.99 294.75 238.99 302.53C238.99 310.3 232.61 316.6 224.74 328.45C216.87 316.6 210.49 310.3 210.49 302.53Z" id="g1e1Qkxi7e"></path><linearGradient id="gradienta1jQKVicPX" gradientUnits="userSpaceOnUse" x1="224.74" y1="288.45" x2="224.74" y2="328.45"><stop style="stop-color: #feda66;stop-opacity: 1" offset="0%"></stop><stop style="stop-color: #e0952a;stop-opacity: 1" offset="100%"></stop></linearGradient><path d="M226.51 241.26L227.38 241.39L228.24 241.57L229.08 241.79L229.92 242.07L230.74 242.39L231.54 242.76L232.33 243.17L233.11 243.63L233.86 244.12L234.61 244.66L235.33 245.24L236.03 245.86L236.71 246.52L237.38 247.21L238.02 247.94L238.64 248.7L239.24 249.5L239.81 250.33L240.36 251.19L240.89 252.09L241.38 253.01L241.86 253.96L242.3 254.94L242.72 255.94L243.11 256.97L243.46 258.02L243.79 259.1L244.09 260.2L244.35 261.32L244.58 262.46L244.78 263.62L244.95 264.79L245.07 265.99L245.17 267.19L245.22 268.42L245.24 269.65L245.22 270.89L245.17 272.12L245.07 273.33L244.95 274.54L244.78 275.74L244.58 276.94L244.35 278.14L244.09 279.33L243.79 280.52L243.46 281.72L243.11 282.92L242.72 284.12L242.3 285.33L241.86 286.55L241.38 287.77L240.89 289.01L240.36 290.26L239.81 291.53L239.24 292.81L238.64 294.1L238.5 294.4L210.99 294.4L210.84 294.1L210.25 292.81L209.67 291.53L209.12 290.26L208.6 289.01L208.1 287.77L207.63 286.55L207.18 285.33L206.77 284.12L206.38 282.92L206.02 281.72L205.69 280.52L205.4 279.33L205.13 278.14L204.9 276.94L204.7 275.74L204.54 274.54L204.41 273.33L204.32 272.12L204.26 270.89L204.24 269.65L204.26 268.42L204.32 267.19L204.41 265.99L204.54 264.79L204.7 263.62L204.9 262.46L205.13 261.32L205.4 260.2L205.69 259.1L206.02 258.02L206.38 256.97L206.77 255.94L207.18 254.94L207.63 253.96L208.1 253.01L208.6 252.09L209.12 251.19L209.67 250.33L210.25 249.5L210.84 248.7L211.46 247.94L212.11 247.21L212.77 246.52L213.45 245.86L214.16 245.24L214.88 244.66L215.62 244.12L216.38 243.63L217.15 243.17L217.94 242.76L218.75 242.39L219.57 242.07L220.4 241.79L221.25 241.57L222.1 241.39L222.97 241.26L223.85 241.18L224.74 241.15L225.63 241.18L226.51 241.26Z" id="bpXi23skC"></path><path d="M227.12 235.24L228.29 235.36L229.45 235.52L230.59 235.72L231.71 235.97L232.82 236.26L233.91 236.6L234.98 236.97L236.03 237.38L237.06 237.84L238.07 238.33L239.06 238.85L240.02 239.41L240.96 240.01L241.87 240.64L242.76 241.31L243.61 242L244.45 242.73L245.25 243.49L246.02 244.28L246.76 245.1L247.47 245.94L248.15 246.81L248.79 247.71L249.4 248.63L249.97 249.58L250.51 250.55L251 251.54L251.46 252.55L251.88 253.58L252.26 254.64L252.6 255.71L252.9 256.8L253.15 257.9L253.36 259.02L253.53 260.16L253.65 261.31L253.72 262.47L253.74 263.64L253.72 264.82L253.65 265.98L253.53 267.14L253.36 268.29L253.15 269.43L252.9 270.57L252.6 271.71L252.26 272.84L251.88 273.98L251.46 275.11L251 276.25L250.51 277.39L249.97 278.53L249.4 279.69L248.79 280.84L248.15 282.01L247.47 283.19L247.35 283.39L202.14 283.39L202.01 283.19L201.34 282.01L200.69 280.84L200.09 279.69L199.51 278.53L198.98 277.39L198.48 276.25L198.02 275.11L197.6 273.98L197.22 272.84L196.88 271.71L196.58 270.57L196.33 269.43L196.12 268.29L195.96 267.14L195.84 265.98L195.77 264.82L195.74 263.64L195.77 262.47L195.84 261.31L195.96 260.16L196.12 259.02L196.33 257.9L196.58 256.8L196.88 255.71L197.22 254.64L197.6 253.58L198.02 252.55L198.48 251.54L198.98 250.55L199.51 249.58L200.09 248.63L200.69 247.71L201.34 246.81L202.01 245.94L202.72 245.1L203.46 244.28L204.24 243.49L205.04 242.73L205.87 242L206.73 241.31L207.62 240.64L208.53 240.01L209.47 239.41L210.43 238.85L211.41 238.33L212.42 237.84L213.45 237.38L214.51 236.97L215.58 236.6L216.67 236.26L217.77 235.97L218.9 235.72L220.04 235.52L221.19 235.36L222.36 235.24L223.55 235.17L224.74 235.14L225.94 235.17L227.12 235.24Z" id="aa2oexdkm"></path><path d="M227.12 235.24L228.29 235.36L229.45 235.52L230.59 235.72L231.71 235.97L232.82 236.26L233.91 236.6L234.98 236.97L236.03 237.38L237.06 237.84L238.07 238.33L239.06 238.85L240.02 239.41L240.96 240.01L241.87 240.64L242.76 241.31L243.61 242L244.45 242.73L245.25 243.49L246.02 244.28L246.76 245.1L247.47 245.94L248.15 246.81L248.79 247.71L249.4 248.63L249.97 249.58L250.51 250.55L251 251.54L251.46 252.55L251.88 253.58L252.26 254.64L252.6 255.71L252.9 256.8L253.15 257.9L253.36 259.02L253.53 260.16L253.65 261.31L253.72 262.47L253.74 263.64L253.72 264.82L253.65 265.98L253.53 267.14L253.36 268.29L253.15 269.43L252.9 270.57L252.6 271.71L252.26 272.84L251.88 273.98L251.46 275.11L251 276.25L250.51 277.39L249.97 278.53L249.4 279.69L248.79 280.84L248.15 282.01L247.47 283.19L247.35 283.39L240.35 283.39L240.44 282.2L240.52 280.47L240.57 278.72L240.59 276.96L240.57 275.19L240.52 273.44L240.44 271.72L240.32 270.01L240.17 268.33L239.99 266.67L239.78 265.04L239.54 263.43L239.28 261.86L238.98 260.31L238.65 258.8L238.3 257.31L237.92 255.87L237.52 254.46L237.09 253.08L236.64 251.75L236.16 250.46L235.67 249.2L235.14 248L234.6 246.83L234.04 245.71L233.45 244.64L232.85 243.62L232.23 242.65L231.59 241.74L230.93 240.87L230.25 240.06L229.56 239.31L228.86 238.61L228.14 237.98L227.4 237.4L226.65 236.89L225.89 236.44L225.12 236.05L224.33 235.74L223.54 235.49L223.49 235.48L223.49 235.29L224.01 235.24L225.2 235.17L225.57 235.16L225.94 235.17L227.12 235.24Z" id="a4Y5E0oR1s"></path><path d="M242.45 285.33L242 286.55L241.53 287.77L241.03 289.01L240.51 290.26L239.96 291.53L239.38 292.81L238.79 294.1L238.64 294.4L229.66 294.4L229.66 283.39L243.1 283.39L242.86 284.12L242.45 285.33Z" id="haFx0oEUZX"></path><path d="M194.67 198.89C194.67 257 166.24 304.1 131.17 304.1C96.1 304.1 67.67 257 67.67 198.89C67.67 140.79 96.1 93.69 131.17 5.1C166.24 93.69 194.67 140.79 194.67 198.89Z" id="c1J3gKqApR"></path><path d="M130.7 15.47L130.24 15.83L129.79 16.43L129.34 17.25L128.9 18.29L128.46 19.55L128.03 21.03L127.6 22.72L127.19 24.61L126.78 26.71L126.38 29L125.99 31.48L125.6 34.15L125.23 37L124.86 40.02L124.51 43.23L124.16 46.59L123.83 50.13L123.51 53.82L123.19 57.66L122.89 61.65L122.6 65.79L122.33 70.07L122.06 74.49L121.81 79.03L121.58 83.7L121.36 88.49L121.15 93.4L120.95 98.42L120.77 103.55L120.61 108.78L120.46 114.11L120.33 119.54L120.22 125.05L120.12 130.65L120.09 132.18L120.02 132.22L118.92 132.81L117.85 133.44L116.81 134.13L115.81 134.87L114.86 135.66L113.94 136.49L113.06 137.37L112.23 138.28L111.44 139.24L110.71 140.24L110.02 141.27L109.38 142.34L108.79 143.45L108.26 144.58L107.78 145.75L107.37 146.94L107.01 148.16L106.71 149.4L106.48 150.67L106.31 151.96L106.2 153.27L106.17 154.6L106.2 155.92L106.31 157.23L106.48 158.52L106.71 159.79L107.01 161.04L107.37 162.26L107.78 163.45L108.26 164.61L108.79 165.75L109.38 166.85L110.02 167.92L110.71 168.96L111.44 169.95L112.23 170.91L113.06 171.83L113.94 172.7L114.86 173.54L115.81 174.32L116.81 175.06L117.85 175.75L118.92 176.39L119.97 176.95L119.97 177.38L120.03 183.13L120.12 188.81L120.22 194.4L120.33 199.92L120.46 205.34L120.61 210.67L120.77 215.9L120.95 221.03L121.15 226.05L121.36 230.96L121.58 235.75L121.81 240.42L122.06 244.97L122.33 249.38L122.6 253.66L122.89 257.8L123.19 261.79L123.51 265.64L123.83 269.33L124.16 272.86L124.51 276.23L124.86 279.43L125.23 282.45L125.6 285.31L125.99 287.97L126.38 290.45L126.78 292.74L127.19 294.84L127.6 296.73L128.03 298.42L128.46 299.9L128.9 301.16L129.34 302.21L129.79 303.03L130.24 303.62L130.7 303.98L131.17 304.1L128.55 304.01L125.96 303.75L123.4 303.32L120.87 302.72L118.37 301.96L115.91 301.04L113.48 299.96L111.1 298.73L108.75 297.36L106.45 295.83L104.2 294.16L101.99 292.36L99.83 290.41L97.72 288.34L95.67 286.13L93.67 283.8L91.73 281.35L89.84 278.77L88.02 276.09L86.27 273.28L84.58 270.37L82.95 267.36L81.4 264.24L79.92 261.03L78.51 257.71L77.18 254.31L75.93 250.82L74.76 247.24L73.67 243.58L72.66 239.84L71.74 236.03L70.91 232.15L70.16 228.19L69.51 224.18L68.96 220.1L68.5 215.96L68.14 211.77L67.88 207.52L67.72 203.23L67.67 198.89L67.72 194.56L67.88 190.25L68.14 185.98L68.5 181.74L68.96 177.52L69.51 173.31L70.16 169.12L70.91 164.93L71.74 160.75L72.66 156.56L73.67 152.36L74.76 148.16L75.93 143.93L77.18 139.68L78.51 135.4L79.92 131.09L81.4 126.75L82.95 122.36L84.58 117.92L86.27 113.43L88.02 108.88L89.84 104.28L91.73 99.6L93.67 94.85L95.67 90.03L97.72 85.12L99.83 80.13L101.99 75.05L104.2 69.87L106.45 64.58L108.75 59.19L111.1 53.69L113.48 48.08L115.91 42.34L118.37 36.48L120.87 30.48L123.4 24.35L125.96 18.08L128.55 11.67L131.17 5.1L131.17 15.35L130.7 15.47Z" id="aOfFASW9R"></path><path d="M156.17 154.6C156.17 168.4 144.97 179.6 131.17 179.6C117.37 179.6 106.17 168.4 106.17 154.6C106.17 140.8 117.37 129.6 131.17 129.6C144.97 129.6 156.17 140.8 156.17 154.6Z" id="beZSmcSZR"></path><path d="M149.92 154.6C149.92 164.95 141.52 173.35 131.17 173.35C120.82 173.35 112.42 164.95 112.42 154.6C112.42 144.25 120.82 135.85 131.17 135.85C141.52 135.85 149.92 144.25 149.92 154.6Z" id="egq8o2x7e"></path><path d="M130.11 138.09L129.44 139.16L128.81 140.27L128.23 141.42L127.7 142.61L127.22 143.83L126.79 145.08L126.41 146.36L126.09 147.68L125.82 149.01L125.61 150.38L125.45 151.76L125.36 153.17L125.33 154.6L125.36 156.02L125.45 157.43L125.61 158.82L125.82 160.18L126.09 161.52L126.41 162.83L126.79 164.11L127.22 165.37L127.7 166.59L128.23 167.77L128.81 168.92L129.44 170.04L130.11 171.11L130.82 172.14L131.17 172.6L130.79 172.58L129.47 172.44L128.19 172.2L126.94 171.87L125.73 171.45L124.56 170.95L123.43 170.38L122.35 169.72L121.32 169L120.35 168.21L119.43 167.35L118.58 166.43L117.79 165.45L117.06 164.41L116.41 163.33L115.84 162.2L115.34 161.02L114.93 159.8L114.6 158.55L114.36 157.26L114.22 155.94L114.17 154.6L114.22 153.25L114.36 151.93L114.6 150.65L114.93 149.39L115.34 148.17L115.84 147L116.41 145.87L117.06 144.78L117.79 143.75L118.58 142.77L119.43 141.85L120.35 140.99L121.32 140.2L122.35 139.47L123.43 138.82L124.56 138.24L125.73 137.74L126.94 137.33L128.19 137L129.47 136.76L130.79 136.61L131.17 136.6L130.82 137.06L130.11 138.09Z" id="b9O2N4M23"></path><path d="M37.31 235.24L37.83 235.29L37.83 235.48L37.78 235.49L36.99 235.74L36.2 236.05L35.43 236.44L34.67 236.89L33.92 237.4L33.18 237.98L32.46 238.61L31.76 239.31L31.06 240.06L30.39 240.87L29.73 241.74L29.09 242.65L28.47 243.62L27.87 244.64L27.28 245.71L26.72 246.83L26.17 248L25.65 249.2L25.15 250.46L24.68 251.75L24.23 253.08L23.8 254.46L23.39 255.87L23.02 257.31L22.67 258.8L22.34 260.31L22.04 261.86L21.78 263.43L21.54 265.04L21.33 266.67L21.15 268.33L21 270.01L20.88 271.72L20.8 273.44L20.75 275.19L20.73 276.96L20.75 278.72L20.8 280.47L20.88 282.2L20.96 283.39L13.97 283.39L13.85 283.19L13.17 282.01L12.53 280.84L11.92 279.69L11.35 278.53L10.81 277.39L10.32 276.25L9.86 275.11L9.44 273.98L9.06 272.84L8.72 271.71L8.42 270.57L8.17 269.43L7.96 268.29L7.79 267.14L7.67 265.98L7.6 264.82L7.58 263.64L7.6 262.47L7.67 261.31L7.79 260.16L7.96 259.02L8.17 257.9L8.42 256.8L8.72 255.71L9.06 254.64L9.44 253.58L9.86 252.55L10.32 251.54L10.81 250.55L11.35 249.58L11.92 248.63L12.53 247.71L13.17 246.81L13.85 245.94L14.56 245.1L15.3 244.28L16.07 243.49L16.87 242.73L17.7 242L18.56 241.31L19.45 240.64L20.36 240.01L21.3 239.41L22.26 238.85L23.25 238.33L24.26 237.84L25.29 237.38L26.34 236.97L27.41 236.6L28.5 236.26L29.61 235.97L30.73 235.72L31.87 235.52L33.03 235.36L34.2 235.24L35.38 235.17L35.75 235.16L36.12 235.17L37.31 235.24Z" id="a67NRMbll"></path><path d="M22.68 294.4L22.53 294.1L21.94 292.81L21.36 291.53L20.81 290.26L20.29 289.01L19.79 287.77L19.32 286.55L18.87 285.33L18.46 284.12L18.22 283.39L31.66 283.39L31.66 294.4L22.68 294.4Z" id="acGOoOHuz"></path></defs><g><g><g><g><filter id="shadow5664657" x="39.64" y="174.78" width="95.12" height="90.26" filterUnits="userSpaceOnUse" primitiveUnits="userSpaceOnUse"><feFlood></feFlood><feComposite in2="SourceAlpha" operator="in"></feComposite><feGaussianBlur stdDeviation="1"></feGaussianBlur><feOffset dx="0" dy="0" result="afterOffset"></feOffset><feFlood flood-color="#000000" flood-opacity="0.5"></feFlood><feComposite in2="afterOffset" operator="in"></feComposite><feMorphology operator="dilate" radius="0"></feMorphology><feComposite in2="SourceAlpha" operator="out"></feComposite></filter><path d="M65.18 258.05L46.64 237.06L109.23 181.78L127.76 202.77L65.18 258.05ZM61.26 236.4L60.15 237.14L59.27 238.15L58.71 239.32L58.47 240.58L58.55 241.86L58.96 243.08L59.71 244.2L60.72 245.08L61.89 245.64L63.15 245.88L64.42 245.79L65.65 245.38L66.77 244.64L67.64 243.62L68.2 242.45L68.45 241.2L68.36 239.92L67.95 238.69L67.2 237.58L66.19 236.7L65.02 236.14L63.77 235.9L62.49 235.98L61.26 236.4ZM74.58 224.69L73.47 225.44L72.59 226.45L72.03 227.62L71.79 228.87L71.87 230.15L72.29 231.38L73.03 232.49L74.05 233.37L75.22 233.93L76.47 234.17L77.75 234.09L78.98 233.68L80.09 232.93L80.97 231.92L81.53 230.75L81.77 229.49L81.69 228.22L81.27 226.99L80.53 225.87L79.51 225L78.35 224.43L77.09 224.19L75.81 224.28L74.58 224.69ZM87.82 212.93L86.71 213.68L85.83 214.69L85.27 215.86L85.03 217.12L85.11 218.39L85.53 219.62L86.27 220.74L87.28 221.61L88.45 222.17L89.71 222.42L90.99 222.33L92.21 221.92L93.33 221.17L94.21 220.16L94.77 218.99L95.01 217.74L94.92 216.46L94.51 215.23L93.77 214.12L92.75 213.24L91.58 212.68L90.33 212.44L89.05 212.52L87.82 212.93ZM100.85 201.43L99.73 202.17L98.85 203.19L98.29 204.36L98.05 205.61L98.14 206.89L98.55 208.12L99.29 209.23L100.31 210.11L101.48 210.67L102.73 210.91L104.01 210.83L105.24 210.42L106.35 209.67L107.23 208.66L107.79 207.49L108.03 206.23L107.95 204.96L107.54 203.73L106.79 202.61L105.78 201.73L104.61 201.17L103.35 200.93L102.07 201.02L100.85 201.43Z" id="b1POwclTTf" fill="white" fill-opacity="1" filter="url(#shadow5664657)"></path></g><use xlink:href="#a1sfXHNK28" opacity="1" fill="#a8a8a8" fill-opacity="1"></use></g><g><g><filter id="shadow14769436" x="55.63" y="192.88" width="79.13" height="72.17" filterUnits="userSpaceOnUse" primitiveUnits="userSpaceOnUse"><feFlood></feFlood><feComposite in2="SourceAlpha" operator="in"></feComposite><feGaussianBlur stdDeviation="1"></feGaussianBlur><feOffset dx="0" dy="0" result="afterOffset"></feOffset><feFlood flood-color="#000000" flood-opacity="0.5"></feFlood><feComposite in2="afterOffset" operator="in"></feComposite><feMorphology operator="dilate" radius="0"></feMorphology><feComposite in2="SourceAlpha" operator="out"></feComposite></filter><path d="M62.63 255.16L65.18 258.05L127.76 202.77L125.21 199.88L62.63 255.16Z" id="i6a0DAYBXg" fill="white" fill-opacity="1" filter="url(#shadow14769436)"></path></g><use xlink:href="#chajgPxXN" opacity="1" fill="#a8a8a8" fill-opacity="1"></use></g><g><g><filter id="shadow3773558" x="39.64" y="174.78" width="79.13" height="72.17" filterUnits="userSpaceOnUse" primitiveUnits="userSpaceOnUse"><feFlood></feFlood><feComposite in2="SourceAlpha" operator="in"></feComposite><feGaussianBlur stdDeviation="1"></feGaussianBlur><feOffset dx="0" dy="0" result="afterOffset"></feOffset><feFlood flood-color="#000000" flood-opacity="0.5"></feFlood><feComposite in2="afterOffset" operator="in"></feComposite><feMorphology operator="dilate" radius="0"></feMorphology><feComposite in2="SourceAlpha" operator="out"></feComposite></filter><path d="M46.64 237.06L49.19 239.95L111.78 184.67L109.23 181.78L46.64 237.06Z" id="bLFNKPTmr" fill="white" fill-opacity="1" filter="url(#shadow3773558)"></path></g><use xlink:href="#b149UMsF4O" opacity="1" fill="#a8a8a8" fill-opacity="1"></use></g><g><use xlink:href="#c1ssBCSrkP" opacity="1" fill="url(#gradienta2d4GEIFDT)"></use></g><g><use xlink:href="#h1Ggq2qVrJ" opacity="1" fill="#626262" fill-opacity="1"></use></g><g><g><filter id="shadow6458378" x="0.58" y="228.14" width="72" height="62.25" filterUnits="userSpaceOnUse" primitiveUnits="userSpaceOnUse"><feFlood></feFlood><feComposite in2="SourceAlpha" operator="in"></feComposite><feGaussianBlur stdDeviation="1"></feGaussianBlur><feOffset dx="0" dy="0" result="afterOffset"></feOffset><feFlood flood-color="#000000" flood-opacity="0.5"></feFlood><feComposite in2="afterOffset" operator="in"></feComposite><feMorphology operator="dilate" radius="0"></feMorphology><feComposite in2="SourceAlpha" operator="out"></feComposite></filter><path d="M38.96 235.24L40.13 235.36L41.28 235.52L42.42 235.72L43.55 235.97L44.65 236.26L45.74 236.6L46.81 236.97L47.87 237.38L48.9 237.84L49.9 238.33L50.89 238.85L51.85 239.41L52.79 240.01L53.7 240.64L54.59 241.31L55.45 242L56.28 242.73L57.08 243.49L57.86 244.28L58.6 245.1L59.31 245.94L59.98 246.81L60.62 247.71L61.23 248.63L61.8 249.58L62.34 250.55L62.84 251.54L63.3 252.55L63.72 253.58L64.1 254.64L64.44 255.71L64.73 256.8L64.99 257.9L65.2 259.02L65.36 260.16L65.48 261.31L65.55 262.47L65.58 263.64L65.55 264.82L65.48 265.98L65.36 267.14L65.2 268.29L64.99 269.43L64.73 270.57L64.44 271.71L64.1 272.84L63.72 273.98L63.3 275.11L62.84 276.25L62.34 277.39L61.8 278.53L61.23 279.69L60.62 280.84L59.98 282.01L59.31 283.19L59.18 283.39L13.97 283.39L13.85 283.19L13.17 282.01L12.53 280.84L11.92 279.69L11.35 278.53L10.81 277.39L10.32 276.25L9.86 275.11L9.44 273.98L9.06 272.84L8.72 271.71L8.42 270.57L8.17 269.43L7.96 268.29L7.79 267.14L7.67 265.98L7.6 264.82L7.58 263.64L7.6 262.47L7.67 261.31L7.79 260.16L7.96 259.02L8.17 257.9L8.42 256.8L8.72 255.71L9.06 254.64L9.44 253.58L9.86 252.55L10.32 251.54L10.81 250.55L11.35 249.58L11.92 248.63L12.53 247.71L13.17 246.81L13.85 245.94L14.56 245.1L15.3 244.28L16.07 243.49L16.87 242.73L17.7 242L18.56 241.31L19.45 240.64L20.36 240.01L21.3 239.41L22.26 238.85L23.25 238.33L24.26 237.84L25.29 237.38L26.34 236.97L27.41 236.6L28.5 236.26L29.61 235.97L30.73 235.72L31.87 235.52L33.03 235.36L34.2 235.24L35.38 235.17L36.58 235.14L37.77 235.17L38.96 235.24Z" id="g2NMm9gi6I" fill="white" fill-opacity="1" filter="url(#shadow6458378)"></path></g><use xlink:href="#f3JIe7MXz4" opacity="1" fill="#a8a8a8" fill-opacity="1"></use></g><g><g><filter id="shadow5033972" x="126.56" y="174.78" width="95.12" height="90.26" filterUnits="userSpaceOnUse" primitiveUnits="userSpaceOnUse"><feFlood></feFlood><feComposite in2="SourceAlpha" operator="in"></feComposite><feGaussianBlur stdDeviation="1"></feGaussianBlur><feOffset dx="0" dy="0" result="afterOffset"></feOffset><feFlood flood-color="#000000" flood-opacity="0.5"></feFlood><feComposite in2="afterOffset" operator="in"></feComposite><feMorphology operator="dilate" radius="0"></feMorphology><feComposite in2="SourceAlpha" operator="out"></feComposite></filter><path d="M196.14 258.05L133.56 202.77L152.09 181.78L214.68 237.06L196.14 258.05ZM195.13 236.7L194.12 237.58L193.37 238.69L192.96 239.92L192.87 241.2L193.11 242.45L193.68 243.62L194.55 244.64L195.67 245.38L196.9 245.79L198.17 245.88L199.43 245.64L200.6 245.08L201.61 244.2L202.36 243.08L202.77 241.86L202.85 240.58L202.61 239.32L202.05 238.15L201.17 237.14L200.06 236.4L198.83 235.98L197.55 235.9L196.3 236.14L195.13 236.7ZM181.8 225L180.79 225.87L180.05 226.99L179.63 228.22L179.55 229.49L179.79 230.75L180.35 231.92L181.23 232.93L182.34 233.68L183.57 234.09L184.85 234.17L186.1 233.93L187.27 233.37L188.29 232.49L189.03 231.38L189.44 230.15L189.53 228.87L189.29 227.62L188.73 226.45L187.85 225.44L186.73 224.69L185.51 224.28L184.23 224.19L182.97 224.43L181.8 225ZM168.57 213.24L167.55 214.12L166.81 215.23L166.4 216.46L166.31 217.74L166.55 218.99L167.11 220.16L167.99 221.17L169.1 221.92L170.33 222.33L171.61 222.42L172.87 222.17L174.03 221.61L175.05 220.74L175.79 219.62L176.21 218.39L176.29 217.12L176.05 215.86L175.49 214.69L174.61 213.68L173.5 212.93L172.27 212.52L170.99 212.44L169.74 212.68L168.57 213.24ZM155.54 201.73L154.53 202.61L153.78 203.73L153.37 204.96L153.29 206.23L153.53 207.49L154.09 208.66L154.97 209.67L156.08 210.42L157.31 210.83L158.59 210.91L159.84 210.67L161.01 210.11L162.02 209.23L162.77 208.12L163.18 206.89L163.27 205.61L163.03 204.36L162.46 203.19L161.59 202.17L160.47 201.43L159.24 201.02L157.97 200.93L156.71 201.17L155.54 201.73Z" id="d1BAj5PQoB" fill="white" fill-opacity="1" filter="url(#shadow5033972)"></path></g><use xlink:href="#g1tr0aPyV" opacity="1" fill="#a8a8a8" fill-opacity="1"></use></g><g><g><filter id="shadow4859516" x="126.56" y="192.88" width="79.13" height="72.17" filterUnits="userSpaceOnUse" primitiveUnits="userSpaceOnUse"><feFlood></feFlood><feComposite in2="SourceAlpha" operator="in"></feComposite><feGaussianBlur stdDeviation="1"></feGaussianBlur><feOffset dx="0" dy="0" result="afterOffset"></feOffset><feFlood flood-color="#000000" flood-opacity="0.5"></feFlood><feComposite in2="afterOffset" operator="in"></feComposite><feMorphology operator="dilate" radius="0"></feMorphology><feComposite in2="SourceAlpha" operator="out"></feComposite></filter><path d="M198.69 255.16L196.14 258.05L133.56 202.77L136.11 199.88L198.69 255.16Z" id="ddU5C7vr6" fill="white" fill-opacity="1" filter="url(#shadow4859516)"></path></g><use xlink:href="#d1fp4f2Avw" opacity="1" fill="#a8a8a8" fill-opacity="1"></use></g><g><g><filter id="shadow4861932" x="142.54" y="174.78" width="79.13" height="72.17" filterUnits="userSpaceOnUse" primitiveUnits="userSpaceOnUse"><feFlood></feFlood><feComposite in2="SourceAlpha" operator="in"></feComposite><feGaussianBlur stdDeviation="1"></feGaussianBlur><feOffset dx="0" dy="0" result="afterOffset"></feOffset><feFlood flood-color="#000000" flood-opacity="0.5"></feFlood><feComposite in2="afterOffset" operator="in"></feComposite><feMorphology operator="dilate" radius="0"></feMorphology><feComposite in2="SourceAlpha" operator="out"></feComposite></filter><path d="M214.68 237.06L212.13 239.95L149.54 184.67L152.09 181.78L214.68 237.06Z" id="c2iqYRwj71" fill="white" fill-opacity="1" filter="url(#shadow4861932)"></path></g><use xlink:href="#b5pGxOTGdQ" opacity="1" fill="#a8a8a8" fill-opacity="1"></use></g><g><use xlink:href="#g1e1Qkxi7e" opacity="1" fill="url(#gradienta1jQKVicPX)"></use></g><g><use xlink:href="#bpXi23skC" opacity="1" fill="#626262" fill-opacity="1"></use></g><g><g><filter id="shadow4402531" x="188.74" y="228.14" width="72" height="62.25" filterUnits="userSpaceOnUse" primitiveUnits="userSpaceOnUse"><feFlood></feFlood><feComposite in2="SourceAlpha" operator="in"></feComposite><feGaussianBlur stdDeviation="1"></feGaussianBlur><feOffset dx="0" dy="0" result="afterOffset"></feOffset><feFlood flood-color="#000000" flood-opacity="0.5"></feFlood><feComposite in2="afterOffset" operator="in"></feComposite><feMorphology operator="dilate" radius="0"></feMorphology><feComposite in2="SourceAlpha" operator="out"></feComposite></filter><path d="M227.12 235.24L228.29 235.36L229.45 235.52L230.59 235.72L231.71 235.97L232.82 236.26L233.91 236.6L234.98 236.97L236.03 237.38L237.06 237.84L238.07 238.33L239.06 238.85L240.02 239.41L240.96 240.01L241.87 240.64L242.76 241.31L243.61 242L244.45 242.73L245.25 243.49L246.02 244.28L246.76 245.1L247.47 245.94L248.15 246.81L248.79 247.71L249.4 248.63L249.97 249.58L250.51 250.55L251 251.54L251.46 252.55L251.88 253.58L252.26 254.64L252.6 255.71L252.9 256.8L253.15 257.9L253.36 259.02L253.53 260.16L253.65 261.31L253.72 262.47L253.74 263.64L253.72 264.82L253.65 265.98L253.53 267.14L253.36 268.29L253.15 269.43L252.9 270.57L252.6 271.71L252.26 272.84L251.88 273.98L251.46 275.11L251 276.25L250.51 277.39L249.97 278.53L249.4 279.69L248.79 280.84L248.15 282.01L247.47 283.19L247.35 283.39L202.14 283.39L202.01 283.19L201.34 282.01L200.69 280.84L200.09 279.69L199.51 278.53L198.98 277.39L198.48 276.25L198.02 275.11L197.6 273.98L197.22 272.84L196.88 271.71L196.58 270.57L196.33 269.43L196.12 268.29L195.96 267.14L195.84 265.98L195.77 264.82L195.74 263.64L195.77 262.47L195.84 261.31L195.96 260.16L196.12 259.02L196.33 257.9L196.58 256.8L196.88 255.71L197.22 254.64L197.6 253.58L198.02 252.55L198.48 251.54L198.98 250.55L199.51 249.58L200.09 248.63L200.69 247.71L201.34 246.81L202.01 245.94L202.72 245.1L203.46 244.28L204.24 243.49L205.04 242.73L205.87 242L206.73 241.31L207.62 240.64L208.53 240.01L209.47 239.41L210.43 238.85L211.41 238.33L212.42 237.84L213.45 237.38L214.51 236.97L215.58 236.6L216.67 236.26L217.77 235.97L218.9 235.72L220.04 235.52L221.19 235.36L222.36 235.24L223.55 235.17L224.74 235.14L225.94 235.17L227.12 235.24Z" id="aMA8grzn" fill="white" fill-opacity="1" filter="url(#shadow4402531)"></path></g><use xlink:href="#aa2oexdkm" opacity="1" fill="#a8a8a8" fill-opacity="1"></use></g><g><use xlink:href="#a4Y5E0oR1s" opacity="1" fill="#ffffff" fill-opacity="0.3"></use></g><g><use xlink:href="#haFx0oEUZX" opacity="1" fill="#ffffff" fill-opacity="0.3"></use></g><g><g><filter id="shadow12603832" x="60.67" y="-1.9" width="141" height="313" filterUnits="userSpaceOnUse" primitiveUnits="userSpaceOnUse"><feFlood></feFlood><feComposite in2="SourceAlpha" operator="in"></feComposite><feGaussianBlur stdDeviation="1"></feGaussianBlur><feOffset dx="0" dy="0" result="afterOffset"></feOffset><feFlood flood-color="#000000" flood-opacity="0.5"></feFlood><feComposite in2="afterOffset" operator="in"></feComposite><feMorphology operator="dilate" radius="0"></feMorphology><feComposite in2="SourceAlpha" operator="out"></feComposite></filter><path d="M194.67 198.89C194.67 257 166.24 304.1 131.17 304.1C96.1 304.1 67.67 257 67.67 198.89C67.67 140.79 96.1 93.69 131.17 5.1C166.24 93.69 194.67 140.79 194.67 198.89Z" id="e429bgtwY" fill="white" fill-opacity="1" filter="url(#shadow12603832)"></path></g><use xlink:href="#c1J3gKqApR" opacity="1" fill="#a8a8a8" fill-opacity="1"></use></g><g><use xlink:href="#aOfFASW9R" opacity="1" fill="#ffffff" fill-opacity="0.3"></use></g><g><g><filter id="shadow9539403" x="99.17" y="122.6" width="64" height="64" filterUnits="userSpaceOnUse" primitiveUnits="userSpaceOnUse"><feFlood></feFlood><feComposite in2="SourceAlpha" operator="in"></feComposite><feGaussianBlur stdDeviation="1"></feGaussianBlur><feOffset dx="0" dy="0" result="afterOffset"></feOffset><feFlood flood-color="#000000" flood-opacity="0.5"></feFlood><feComposite in2="afterOffset" operator="in"></feComposite><feMorphology operator="dilate" radius="0"></feMorphology><feComposite in2="SourceAlpha" operator="out"></feComposite></filter><path d="M156.17 154.6C156.17 168.4 144.97 179.6 131.17 179.6C117.37 179.6 106.17 168.4 106.17 154.6C106.17 140.8 117.37 129.6 131.17 129.6C144.97 129.6 156.17 140.8 156.17 154.6Z" id="gRbYnfOXI" fill="white" fill-opacity="1" filter="url(#shadow9539403)"></path></g><use xlink:href="#beZSmcSZR" opacity="1" fill="#a8a8a8" fill-opacity="1"></use></g><g><use xlink:href="#egq8o2x7e" opacity="1" fill="#72deff" fill-opacity="1"></use><g><use xlink:href="#egq8o2x7e" opacity="1" fill-opacity="0" stroke="#424242" stroke-width="1" stroke-opacity="0.27"></use></g><g><filter id="shadow12711319" x="104.42" y="127.85" width="53.5" height="53.5" filterUnits="userSpaceOnUse" primitiveUnits="userSpaceOnUse"><feFlood></feFlood><feComposite in2="SourceAlpha" operator="out"></feComposite><feGaussianBlur stdDeviation="1"></feGaussianBlur><feOffset dx="0" dy="0" result="afterOffset"></feOffset><feFlood flood-color="#2a2a2a" flood-opacity="0.35"></feFlood><feComposite in2="afterOffset" operator="in"></feComposite><feMorphology operator="dilate" radius="1"></feMorphology><feComposite in2="SourceAlpha" operator="in"></feComposite></filter><path d="M149.92 154.6C149.92 164.95 141.52 173.35 131.17 173.35C120.82 173.35 112.42 164.95 112.42 154.6C112.42 144.25 120.82 135.85 131.17 135.85C141.52 135.85 149.92 144.25 149.92 154.6Z" id="eKbzy7qYH" fill="white" fill-opacity="1" filter="url(#shadow12711319)"></path></g></g><g><use xlink:href="#b9O2N4M23" opacity="1" fill="#ffffff" fill-opacity="0.34"></use></g><g><use xlink:href="#a67NRMbll" opacity="1" fill="#ffffff" fill-opacity="0.3"></use></g><g><use xlink:href="#acGOoOHuz" opacity="1" fill="#ffffff" fill-opacity="0.3"></use></g></g></g></svg>