<?xml version="1.0" encoding="UTF-8" standalone="no"?>
<!DOCTYPE svg PUBLIC "-//W3C//DTD SVG 1.1//EN" "http://www.w3.org/Graphics/SVG/1.1/DTD/svg11.dtd">
<svg version="1.1" xmlns="http://www.w3.org/2000/svg" xmlns:xlink="http://www.w3.org/1999/xlink" preserveAspectRatio="xMidYMid meet" viewBox="0 0 640 381" width="640" height="381"><defs><path d="M305.16 203.12C305.16 203.12 305.16 203.12 305.16 203.12C305.16 183.3 320.83 167.2 340.13 167.2C340.13 167.2 595.24 167.2 595.24 167.2C614.55 167.2 630.21 183.3 630.21 203.12C630.21 203.12 630.21 203.12 630.21 203.12C630.21 222.95 614.55 239.05 595.24 239.05C595.24 239.05 340.13 239.05 340.13 239.05C320.83 239.05 305.16 222.95 305.16 203.12Z" id="bVQdfp71L"></path><path d="M30.21 117.23C30.21 117.23 30.21 117.23 30.21 117.23C30.21 83.18 56.73 55.55 89.38 55.55C89.38 55.55 520.94 55.55 520.94 55.55C553.59 55.55 580.11 83.18 580.11 117.23C580.11 117.23 580.11 117.23 580.11 117.23C580.11 151.27 553.59 178.9 520.94 178.9C520.94 178.9 89.38 178.9 89.38 178.9C56.73 178.9 30.21 151.27 30.21 117.23Z" id="a1Ji1mZPQZ"></path><path d="M110.39 277.81C110.39 277.81 110.39 277.81 110.39 277.81C110.39 253.14 129.17 233.1 152.3 233.1C152.3 233.1 458.02 233.1 458.02 233.1C481.15 233.1 499.93 253.14 499.93 277.81C499.93 277.81 499.93 277.81 499.93 277.81C499.93 302.48 481.15 322.51 458.02 322.51C458.02 322.51 152.3 322.51 152.3 322.51C129.17 322.51 110.39 302.48 110.39 277.81Z" id="eHJ4lCjeD"></path><path d="M322.13 364.29C231.37 364.29 157.68 285.62 157.68 188.72C157.68 91.82 231.37 13.15 322.13 13.15C412.9 13.15 486.58 91.82 486.58 188.72C486.58 285.62 412.9 364.29 322.13 364.29Z" id="a1Z1PBz7SF"></path><path d="M322.13 364.29C231.37 364.29 157.68 285.62 157.68 188.72C157.68 91.82 231.37 13.15 322.13 13.15C412.9 13.15 486.58 91.82 486.58 188.72C486.58 285.62 412.9 364.29 322.13 364.29Z" id="eaWNuVS5p"></path><path d="" id="a6oYOFGaU"></path><path d="M377.44 255.4L324.99 209.07L340.53 191.48L392.98 237.81L377.44 255.4ZM376.78 237.39L375.75 238.25L375.03 239.38L374.71 240.64L374.79 241.92L375.26 243.12L376.11 244.16L377.25 244.88L378.5 245.19L379.78 245.11L380.99 244.64L382.03 243.79L382.74 242.66L383.06 241.4L382.98 240.12L382.51 238.92L381.66 237.88L380.53 237.16L379.27 236.85L377.99 236.93L376.78 237.39ZM365.61 227.58L364.58 228.43L363.86 229.57L363.55 230.82L363.63 232.11L364.09 233.31L364.94 234.35L366.08 235.07L367.33 235.38L368.62 235.3L369.82 234.83L370.86 233.98L371.58 232.85L371.89 231.59L371.81 230.31L371.34 229.11L370.49 228.07L369.36 227.35L368.1 227.04L366.82 227.12L365.61 227.58ZM354.52 217.73L353.48 218.58L352.77 219.71L352.45 220.97L352.53 222.25L353 223.46L353.85 224.5L354.98 225.21L356.24 225.53L357.52 225.45L358.73 224.98L359.76 224.13L360.48 223L360.8 221.74L360.72 220.46L360.25 219.25L359.4 218.21L358.26 217.5L357.01 217.18L355.73 217.26L354.52 217.73ZM343.6 208.09L342.57 208.94L341.85 210.07L341.54 211.33L341.61 212.61L342.08 213.82L342.93 214.85L344.07 215.57L345.32 215.89L346.6 215.81L347.81 215.34L348.85 214.49L349.56 213.35L349.88 212.1L349.8 210.82L349.33 209.61L348.48 208.57L347.35 207.86L346.09 207.54L344.81 207.62L343.6 208.09Z" id="albBZrVfZ"></path><path d="M379.58 252.98L377.44 255.4L324.99 209.07L327.13 206.65L379.58 252.98Z" id="a13LJAR6Tw"></path><path d="M392.98 237.81L390.84 240.23L338.39 193.9L340.53 191.48L392.98 237.81Z" id="a30vMMMIq"></path><path d="M389.47 292.68C389.47 286.17 394.82 280.89 401.42 280.89C408.01 280.89 413.36 286.17 413.36 292.68C413.36 299.2 408.01 304.48 401.42 314.41C394.82 304.48 389.47 299.2 389.47 292.68Z" id="a7Th7JqBI"></path><linearGradient id="gradienta1a4tMElBg" gradientUnits="userSpaceOnUse" x1="401.42" y1="280.89" x2="401.42" y2="314.41"><stop style="stop-color: #feda66;stop-opacity: 1" offset="0%"></stop><stop style="stop-color: #e0952a;stop-opacity: 1" offset="100%"></stop></linearGradient><path d="M403.17 241.36L404.03 241.52L404.88 241.73L405.71 241.99L406.53 242.32L407.32 242.69L408.1 243.12L408.87 243.6L409.61 244.12L410.33 244.7L411.02 245.32L411.7 245.99L412.35 246.7L412.97 247.45L413.57 248.24L414.13 249.07L414.67 249.93L415.18 250.84L415.66 251.77L416.11 252.74L416.52 253.74L416.9 254.77L417.25 255.83L417.56 256.92L417.83 258.03L418.06 259.16L418.25 260.31L418.4 261.49L418.51 262.69L418.58 263.9L418.6 265.13L418.58 266.36L418.51 267.58L418.4 268.78L418.25 269.98L418.06 271.18L417.83 272.36L417.56 273.55L417.25 274.74L416.9 275.93L416.52 277.13L416.11 278.33L415.66 279.55L415.18 280.77L414.67 282.01L414.13 283.26L413.57 284.53L412.97 285.83L412.95 285.87L389.89 285.87L389.86 285.83L389.27 284.53L388.7 283.26L388.16 282.01L387.65 280.77L387.17 279.55L386.72 278.33L386.31 277.13L385.93 275.93L385.58 274.74L385.28 273.55L385.01 272.36L384.77 271.18L384.58 269.98L384.43 268.78L384.32 267.58L384.26 266.36L384.23 265.13L384.26 263.9L384.32 262.69L384.43 261.49L384.58 260.31L384.77 259.16L385.01 258.03L385.28 256.92L385.58 255.83L385.93 254.77L386.31 253.74L386.72 252.74L387.17 251.77L387.65 250.84L388.16 249.93L388.7 249.07L389.27 248.24L389.86 247.45L390.49 246.7L391.14 245.99L391.81 245.32L392.51 244.7L393.23 244.12L393.97 243.6L394.73 243.12L395.51 242.69L396.31 242.32L397.12 241.99L397.95 241.73L398.8 241.52L399.66 241.36L400.53 241.27L401.42 241.24L402.3 241.27L403.17 241.36Z" id="a1y2U3bUP8"></path><path d="M266.82 255.4L251.29 237.81L303.74 191.48L319.28 209.07L266.82 255.4ZM262.6 237.88L261.75 238.92L261.28 240.12L261.21 241.4L261.52 242.66L262.24 243.79L263.27 244.64L264.48 245.11L265.76 245.19L267.02 244.88L268.15 244.16L269 243.12L269.47 241.92L269.55 240.64L269.24 239.38L268.52 238.25L267.48 237.39L266.27 236.93L264.99 236.85L263.74 237.16L262.6 237.88ZM273.77 228.07L272.92 229.11L272.45 230.31L272.37 231.59L272.69 232.85L273.41 233.98L274.44 234.83L275.65 235.3L276.93 235.38L278.19 235.07L279.32 234.35L280.17 233.31L280.64 232.11L280.72 230.82L280.4 229.57L279.69 228.43L278.65 227.58L277.44 227.12L276.16 227.04L274.91 227.35L273.77 228.07ZM284.87 218.21L284.02 219.25L283.55 220.46L283.47 221.74L283.78 223L284.5 224.13L285.54 224.98L286.74 225.45L288.03 225.53L289.28 225.21L290.42 224.5L291.27 223.46L291.73 222.25L291.81 220.97L291.5 219.71L290.78 218.58L289.75 217.73L288.54 217.26L287.26 217.18L286 217.5L284.87 218.21ZM295.78 208.57L294.93 209.61L294.46 210.82L294.38 212.1L294.7 213.35L295.42 214.49L296.45 215.34L297.66 215.81L298.94 215.89L300.2 215.57L301.33 214.85L302.18 213.82L302.65 212.61L302.73 211.33L302.41 210.07L301.7 208.94L300.66 208.09L299.45 207.62L298.17 207.54L296.92 207.86L295.78 208.57Z" id="awNyCYI1U"></path><path d="M264.68 252.98L266.82 255.4L319.28 209.07L317.14 206.65L264.68 252.98Z" id="c13rYzcvrM"></path><path d="M251.29 237.81L253.42 240.23L305.88 193.9L303.74 191.48L251.29 237.81Z" id="c1ksUBNF7E"></path><path d="M254.79 292.68C254.79 286.17 249.45 280.89 242.85 280.89C236.25 280.89 230.91 286.17 230.91 292.68C230.91 299.2 236.25 304.48 242.85 314.41C249.45 304.48 254.79 299.2 254.79 292.68Z" id="h2IB0AqYVB"></path><linearGradient id="gradienta6OakMa2hy" gradientUnits="userSpaceOnUse" x1="242.85" y1="280.89" x2="242.85" y2="314.41"><stop style="stop-color: #feda66;stop-opacity: 1" offset="0%"></stop><stop style="stop-color: #e0952a;stop-opacity: 1" offset="100%"></stop></linearGradient><path d="M244.61 241.36L245.47 241.52L246.31 241.73L247.14 241.99L247.96 242.32L248.76 242.69L249.54 243.12L250.3 243.6L251.04 244.12L251.76 244.7L252.46 245.32L253.13 245.99L253.78 246.7L254.4 247.45L255 248.24L255.57 249.07L256.11 249.93L256.62 250.84L257.1 251.77L257.54 252.74L257.96 253.74L258.34 254.77L258.68 255.83L258.99 256.92L259.26 258.03L259.49 259.16L259.68 260.31L259.83 261.49L259.94 262.69L260.01 263.9L260.03 265.13L260.01 266.36L259.94 267.58L259.83 268.78L259.68 269.98L259.49 271.18L259.26 272.36L258.99 273.55L258.68 274.74L258.34 275.93L257.96 277.13L257.54 278.33L257.1 279.55L256.62 280.77L256.11 282.01L255.57 283.26L255 284.53L254.4 285.83L254.38 285.87L231.32 285.87L231.3 285.83L230.7 284.53L230.13 283.26L229.59 282.01L229.08 280.77L228.6 279.55L228.15 278.33L227.74 277.13L227.36 275.93L227.02 274.74L226.71 273.55L226.44 272.36L226.21 271.18L226.02 269.98L225.86 268.78L225.76 267.58L225.69 266.36L225.67 265.13L225.69 263.9L225.76 262.69L225.86 261.49L226.02 260.31L226.21 259.16L226.44 258.03L226.71 256.92L227.02 255.83L227.36 254.77L227.74 253.74L228.15 252.74L228.6 251.77L229.08 250.84L229.59 249.93L230.13 249.07L230.7 248.24L231.3 247.45L231.92 246.7L232.57 245.99L233.24 245.32L233.94 244.7L234.66 244.12L235.4 243.6L236.16 243.12L236.94 242.69L237.74 242.32L238.56 241.99L239.39 241.73L240.23 241.52L241.09 241.36L241.97 241.27L242.85 241.24L243.73 241.27L244.61 241.36Z" id="bkdCyPJxN"></path><path d="M245.12 236.31L246.24 236.44L247.34 236.61L248.42 236.84L249.49 237.11L250.53 237.42L251.56 237.78L252.56 238.19L253.54 238.63L254.49 239.12L255.42 239.65L256.33 240.21L257.2 240.81L258.05 241.45L258.87 242.13L259.66 242.84L260.41 243.58L261.13 244.35L261.82 245.15L262.47 245.99L263.08 246.85L263.65 247.73L264.19 248.65L264.69 249.59L265.14 250.55L265.55 251.54L265.92 252.54L266.24 253.57L266.51 254.62L266.74 255.68L266.92 256.76L267.05 257.86L267.13 258.97L267.16 260.09L267.13 261.22L267.05 262.33L266.92 263.44L266.74 264.54L266.51 265.63L266.24 266.72L265.92 267.8L265.55 268.89L265.14 269.98L264.69 271.07L264.19 272.16L263.65 273.26L263.08 274.37L262.47 275.49L261.82 276.62L261.8 276.65L223.9 276.65L223.88 276.62L223.23 275.49L222.62 274.37L222.04 273.26L221.51 272.16L221.01 271.07L220.56 269.98L220.15 268.89L219.78 267.8L219.46 266.72L219.18 265.63L218.96 264.54L218.78 263.44L218.65 262.33L218.57 261.22L218.54 260.09L218.57 258.97L218.65 257.86L218.78 256.76L218.96 255.68L219.18 254.62L219.46 253.57L219.78 252.54L220.15 251.54L220.56 250.55L221.01 249.59L221.51 248.65L222.04 247.73L222.62 246.85L223.23 245.99L223.88 245.15L224.57 244.35L225.29 243.58L226.04 242.84L226.83 242.13L227.65 241.45L228.49 240.81L229.37 240.21L230.27 239.65L231.2 239.12L232.16 238.63L233.14 238.19L234.14 237.78L235.17 237.42L236.21 237.11L237.28 236.84L238.36 236.61L239.46 236.44L240.57 236.31L241.71 236.23L242.85 236.21L243.99 236.23L245.12 236.31Z" id="ahsPqUpEU"></path><path d="M403.69 236.31L404.81 236.44L405.91 236.61L406.99 236.84L408.05 237.11L409.1 237.42L410.12 237.78L411.13 238.19L412.11 238.63L413.06 239.12L413.99 239.65L414.9 240.21L415.77 240.81L416.62 241.45L417.44 242.13L418.22 242.84L418.98 243.58L419.7 244.35L420.38 245.15L421.03 245.99L421.65 246.85L422.22 247.73L422.76 248.65L423.25 249.59L423.71 250.55L424.12 251.54L424.48 252.54L424.81 253.57L425.08 254.62L425.31 255.68L425.49 256.76L425.62 257.86L425.7 258.97L425.72 260.09L425.7 261.22L425.62 262.33L425.49 263.44L425.31 264.54L425.08 265.63L424.81 266.72L424.48 267.8L424.12 268.89L423.71 269.98L423.25 271.07L422.76 272.16L422.22 273.26L421.65 274.37L421.03 275.49L420.38 276.62L420.36 276.65L382.47 276.65L382.45 276.62L381.8 275.49L381.19 274.37L380.61 273.26L380.08 272.16L379.58 271.07L379.13 269.98L378.72 268.89L378.35 267.8L378.03 266.72L377.75 265.63L377.52 264.54L377.34 263.44L377.21 262.33L377.14 261.22L377.11 260.09L377.14 258.97L377.21 257.86L377.34 256.76L377.52 255.68L377.75 254.62L378.03 253.57L378.35 252.54L378.72 251.54L379.13 250.55L379.58 249.59L380.08 248.65L380.61 247.73L381.19 246.85L381.8 245.99L382.45 245.15L383.14 244.35L383.86 243.58L384.61 242.84L385.4 242.13L386.21 241.45L387.06 240.81L387.94 240.21L388.84 239.65L389.77 239.12L390.73 238.63L391.71 238.19L392.71 237.78L393.73 237.42L394.78 237.11L395.84 236.84L396.93 236.61L398.03 236.44L399.14 236.31L400.27 236.23L401.42 236.21L402.56 236.23L403.69 236.31Z" id="avqlnjzXg"></path><path d="M402.31 236.31L402.46 236.33L402.46 236.49L402.06 236.6L401.28 236.89L400.51 237.26L399.76 237.7L399.02 238.22L398.3 238.82L397.59 239.48L396.9 240.21L396.23 241.01L395.58 241.87L394.95 242.79L394.34 243.77L393.76 244.82L393.19 245.92L392.66 247.07L392.14 248.27L391.66 249.53L391.2 250.83L390.77 252.18L390.37 253.58L389.99 255.01L389.65 256.49L389.35 258L389.07 259.55L388.83 261.14L388.62 262.75L388.45 264.4L388.31 266.08L388.21 267.78L388.15 269.5L388.13 271.25L388.15 273L388.21 274.72L388.31 276.42L388.33 276.65L382.47 276.65L382.45 276.62L381.8 275.49L381.19 274.37L380.61 273.26L380.08 272.16L379.58 271.07L379.13 269.98L378.72 268.89L378.35 267.8L378.03 266.72L377.75 265.63L377.52 264.54L377.34 263.44L377.21 262.33L377.14 261.22L377.11 260.09L377.14 258.97L377.21 257.86L377.34 256.76L377.52 255.68L377.75 254.62L378.03 253.57L378.35 252.54L378.72 251.54L379.13 250.55L379.58 249.59L380.08 248.65L380.61 247.74L381.19 246.85L381.8 245.99L382.45 245.15L383.14 244.35L383.86 243.58L384.61 242.84L385.4 242.13L386.21 241.45L387.06 240.82L387.94 240.21L388.84 239.65L389.77 239.12L390.73 238.63L391.71 238.19L392.71 237.78L393.73 237.42L394.78 237.11L395.84 236.84L396.93 236.61L398.03 236.44L399.14 236.31L400.27 236.23L400.73 236.22L401.18 236.23L402.31 236.31Z" id="a3AUgB60J5"></path><path d="M375.36 205.82C375.36 254.52 351.53 294 322.13 294C292.74 294 268.91 254.52 268.91 205.82C268.91 157.12 292.74 117.65 322.13 43.39C351.53 117.65 375.36 157.12 375.36 205.82Z" id="dvPX4SHtR"></path><path d="M321.74 52.09L321.36 52.39L320.98 52.89L320.6 53.57L320.23 54.45L319.86 55.51L319.5 56.75L319.14 58.16L318.8 59.75L318.45 61.5L318.12 63.42L317.79 65.5L317.47 67.74L317.15 70.13L316.85 72.67L316.55 75.35L316.26 78.17L315.98 81.13L315.71 84.22L315.45 87.45L315.2 90.79L314.95 94.26L314.72 97.85L314.5 101.55L314.29 105.36L314.09 109.27L313.91 113.29L313.73 117.4L313.57 121.61L313.42 125.91L313.28 130.3L313.16 134.76L313.05 139.31L312.95 143.93L312.87 148.62L312.85 149.92L312.29 150.2L311.2 150.82L310.16 151.5L309.17 152.24L308.22 153.03L307.32 153.88L306.47 154.78L305.67 155.73L304.93 156.73L304.25 157.77L303.64 158.85L303.08 159.97L302.59 161.13L302.17 162.32L301.82 163.54L301.54 164.79L301.34 166.07L301.22 167.37L301.18 168.7L301.22 170.02L301.34 171.32L301.54 172.6L301.82 173.85L302.17 175.07L302.59 176.27L303.08 177.42L303.64 178.54L304.25 179.62L304.93 180.66L305.67 181.66L306.47 182.61L307.32 183.51L308.22 184.36L309.17 185.15L310.16 185.89L311.2 186.57L312.29 187.19L312.74 187.42L312.75 187.79L312.8 192.61L312.87 197.37L312.95 202.06L313.05 206.68L313.16 211.22L313.28 215.69L313.42 220.08L313.57 224.37L313.73 228.58L313.91 232.7L314.09 236.71L314.29 240.63L314.5 244.44L314.72 248.14L314.95 251.72L315.2 255.19L315.45 258.54L315.71 261.76L315.98 264.86L316.26 267.82L316.55 270.64L316.85 273.32L317.15 275.86L317.47 278.25L317.79 280.48L318.12 282.56L318.45 284.48L318.8 286.24L319.14 287.83L319.5 289.24L319.86 290.48L320.23 291.54L320.6 292.41L320.98 293.1L321.36 293.6L321.74 293.9L322.13 294L322.13 294L319.94 293.93L317.77 293.71L315.62 293.35L313.5 292.85L311.41 292.21L309.34 291.44L307.31 290.53L305.31 289.5L303.34 288.35L301.42 287.07L299.52 285.67L297.67 284.16L295.86 282.53L294.1 280.79L292.37 278.94L290.7 276.99L289.07 274.93L287.5 272.77L285.97 270.52L284.5 268.17L283.08 265.73L281.72 263.21L280.42 260.59L279.18 257.9L278 255.12L276.88 252.27L275.83 249.34L274.85 246.34L273.94 243.28L273.09 240.14L272.32 236.95L271.62 233.69L271 230.38L270.46 227.01L269.99 223.59L269.61 220.13L269.3 216.61L269.09 213.05L268.95 209.46L268.91 205.82L268.95 202.19L269.09 198.58L269.3 195L269.61 191.45L269.99 187.91L270.46 184.38L271 180.87L271.62 177.36L272.32 173.85L273.09 170.34L273.94 166.82L274.85 163.3L275.83 159.75L276.88 156.19L278 152.61L279.18 148.99L280.42 145.35L281.72 141.67L283.08 137.95L284.5 134.19L285.97 130.38L287.5 126.52L289.07 122.6L290.7 118.62L292.37 114.58L294.1 110.46L295.86 106.28L297.67 102.02L299.52 97.68L301.42 93.25L303.34 88.73L305.31 84.12L307.31 79.42L309.34 74.61L311.41 69.69L313.5 64.67L315.62 59.53L317.77 54.27L319.94 48.9L322.13 43.39L322.13 51.99L321.74 52.09Z" id="fdaiUe3ow"></path><path d="M343.09 168.7C343.09 180.26 333.7 189.65 322.13 189.65C310.57 189.65 301.18 180.26 301.18 168.7C301.18 157.13 310.57 147.74 322.13 147.74C333.7 147.74 343.09 157.13 343.09 168.7Z" id="c1pJULBaZ"></path><path d="M337.85 168.7C337.85 177.37 330.81 184.41 322.13 184.41C313.46 184.41 306.42 177.37 306.42 168.7C306.42 160.02 313.46 152.98 322.13 152.98C330.81 152.98 337.85 160.02 337.85 168.7Z" id="g1TXjWsLn3"></path><path d="M321.31 154.76L320.64 155.83L320.02 156.95L319.46 158.11L318.96 159.31L318.52 160.56L318.13 161.84L317.82 163.15L317.57 164.5L317.38 165.87L317.27 167.27L317.24 168.7L317.27 170.12L317.38 171.52L317.57 172.89L317.82 174.24L318.13 175.55L318.52 176.84L318.96 178.08L319.46 179.28L320.02 180.45L320.64 181.56L321.31 182.63L322.03 183.66L322.12 183.77L321.56 183.75L320.23 183.57L318.93 183.27L317.68 182.86L316.48 182.35L315.34 181.75L314.26 181.04L313.24 180.25L312.29 179.38L311.43 178.43L310.64 177.41L309.94 176.32L309.33 175.17L308.83 173.97L308.42 172.71L308.13 171.41L307.95 170.07L307.88 168.7L307.95 167.32L308.13 165.98L308.42 164.68L308.83 163.42L309.33 162.22L309.94 161.07L310.64 159.98L311.43 158.96L312.29 158.01L313.24 157.14L314.26 156.35L315.34 155.65L316.48 155.04L317.68 154.53L318.93 154.12L320.23 153.82L321.56 153.64L322.12 153.62L322.03 153.74L321.31 154.76Z" id="acQVc5bkf"></path><path d="M243.74 236.31L243.9 236.33L243.9 236.49L243.49 236.6L242.71 236.89L241.95 237.26L241.19 237.7L240.45 238.22L239.73 238.82L239.02 239.48L238.33 240.21L237.66 241.01L237.01 241.87L236.38 242.79L235.78 243.77L235.19 244.82L234.63 245.91L234.09 247.07L233.58 248.27L233.09 249.53L232.63 250.83L232.2 252.18L231.8 253.58L231.43 255.01L231.09 256.49L230.78 258L230.5 259.55L230.26 261.14L230.05 262.75L229.88 264.4L229.74 266.08L229.65 267.78L229.59 269.5L229.57 271.25L229.59 273L229.65 274.72L229.74 276.42L229.76 276.65L223.9 276.65L223.88 276.62L223.23 275.49L222.62 274.37L222.04 273.26L221.51 272.16L221.01 271.07L220.56 269.98L220.15 268.89L219.78 267.8L219.46 266.72L219.18 265.63L218.96 264.54L218.78 263.44L218.65 262.33L218.57 261.22L218.54 260.09L218.57 258.97L218.65 257.86L218.78 256.76L218.96 255.68L219.18 254.62L219.46 253.57L219.78 252.54L220.15 251.54L220.56 250.55L221.01 249.59L221.51 248.65L222.04 247.73L222.62 246.85L223.23 245.99L223.88 245.15L224.57 244.35L225.29 243.58L226.04 242.84L226.83 242.13L227.65 241.45L228.49 240.81L229.37 240.21L230.27 239.65L231.2 239.12L232.16 238.63L233.14 238.19L234.14 237.78L235.17 237.42L236.21 237.11L237.28 236.84L238.36 236.61L239.46 236.44L240.57 236.31L241.71 236.23L242.16 236.22L242.61 236.23L243.74 236.31Z" id="b67ueIxvHf"></path><path d="M389.79 285.87L389.77 285.83L389.17 284.53L388.6 283.26L388.06 282.01L387.55 280.77L387.07 279.55L386.63 278.33L386.21 277.13L386.06 276.65L397.32 276.65L397.32 285.87L389.79 285.87Z" id="e1YELv3mcq"></path><path d="M231.2 285.87L231.18 285.83L230.58 284.53L230.01 283.26L229.47 282.01L228.96 280.77L228.48 279.55L228.03 278.33L227.62 277.13L227.47 276.65L238.73 276.65L238.73 285.87L231.2 285.87Z" id="b1X18DL4yY"></path></defs><g><g><g><g><filter id="shadow12295225" x="297.16" y="159.2" width="341.05" height="87.85" filterUnits="userSpaceOnUse" primitiveUnits="userSpaceOnUse"><feFlood></feFlood><feComposite in2="SourceAlpha" operator="in"></feComposite><feGaussianBlur stdDeviation="1"></feGaussianBlur><feOffset dx="0" dy="0" result="afterOffset"></feOffset><feFlood flood-color="#000000" flood-opacity="0.5"></feFlood><feComposite in2="afterOffset" operator="in"></feComposite><feMorphology operator="dilate" radius="1"></feMorphology><feComposite in2="SourceAlpha" operator="out"></feComposite></filter><path d="M305.16 203.12C305.16 203.12 305.16 203.12 305.16 203.12C305.16 183.3 320.83 167.2 340.13 167.2C340.13 167.2 595.24 167.2 595.24 167.2C614.55 167.2 630.21 183.3 630.21 203.12C630.21 203.12 630.21 203.12 630.21 203.12C630.21 222.95 614.55 239.05 595.24 239.05C595.24 239.05 340.13 239.05 340.13 239.05C320.83 239.05 305.16 222.95 305.16 203.12Z" id="d34K29o4" fill="white" fill-opacity="1" filter="url(#shadow12295225)"></path></g><use xlink:href="#bVQdfp71L" opacity="1" fill="#4982e8" fill-opacity="1"></use><g><use xlink:href="#bVQdfp71L" opacity="1" fill-opacity="0" stroke="#000000" stroke-width="1" stroke-opacity="0"></use></g></g><g><g><filter id="shadow11373792" x="22.21" y="47.55" width="565.89" height="139.35" filterUnits="userSpaceOnUse" primitiveUnits="userSpaceOnUse"><feFlood></feFlood><feComposite in2="SourceAlpha" operator="in"></feComposite><feGaussianBlur stdDeviation="1"></feGaussianBlur><feOffset dx="0" dy="0" result="afterOffset"></feOffset><feFlood flood-color="#000000" flood-opacity="0.5"></feFlood><feComposite in2="afterOffset" operator="in"></feComposite><feMorphology operator="dilate" radius="1"></feMorphology><feComposite in2="SourceAlpha" operator="out"></feComposite></filter><path d="M30.21 117.23C30.21 117.23 30.21 117.23 30.21 117.23C30.21 83.18 56.73 55.55 89.38 55.55C89.38 55.55 520.94 55.55 520.94 55.55C553.59 55.55 580.11 83.18 580.11 117.23C580.11 117.23 580.11 117.23 580.11 117.23C580.11 151.27 553.59 178.9 520.94 178.9C520.94 178.9 89.38 178.9 89.38 178.9C56.73 178.9 30.21 151.27 30.21 117.23Z" id="a1cD8p5O9L" fill="white" fill-opacity="1" filter="url(#shadow11373792)"></path></g><use xlink:href="#a1Ji1mZPQZ" opacity="1" fill="#4982e8" fill-opacity="1"></use><g><use xlink:href="#a1Ji1mZPQZ" opacity="1" fill-opacity="0" stroke="#000000" stroke-width="1" stroke-opacity="0"></use></g></g><g><g><filter id="shadow16079421" x="102.39" y="225.1" width="405.54" height="105.41" filterUnits="userSpaceOnUse" primitiveUnits="userSpaceOnUse"><feFlood></feFlood><feComposite in2="SourceAlpha" operator="in"></feComposite><feGaussianBlur stdDeviation="1"></feGaussianBlur><feOffset dx="0" dy="0" result="afterOffset"></feOffset><feFlood flood-color="#000000" flood-opacity="0.5"></feFlood><feComposite in2="afterOffset" operator="in"></feComposite><feMorphology operator="dilate" radius="1"></feMorphology><feComposite in2="SourceAlpha" operator="out"></feComposite></filter><path d="M110.39 277.81C110.39 277.81 110.39 277.81 110.39 277.81C110.39 253.14 129.17 233.1 152.3 233.1C152.3 233.1 458.02 233.1 458.02 233.1C481.15 233.1 499.93 253.14 499.93 277.81C499.93 277.81 499.93 277.81 499.93 277.81C499.93 302.48 481.15 322.51 458.02 322.51C458.02 322.51 152.3 322.51 152.3 322.51C129.17 322.51 110.39 302.48 110.39 277.81Z" id="d4QeuBZVG5" fill="white" fill-opacity="1" filter="url(#shadow16079421)"></path></g><use xlink:href="#eHJ4lCjeD" opacity="1" fill="#4982e8" fill-opacity="1"></use><g><use xlink:href="#eHJ4lCjeD" opacity="1" fill-opacity="0" stroke="#000000" stroke-width="1" stroke-opacity="0"></use></g></g><g><g><filter id="shadow1856360" x="149.68" y="5.15" width="344.9" height="367.14" filterUnits="userSpaceOnUse" primitiveUnits="userSpaceOnUse"><feFlood></feFlood><feComposite in2="SourceAlpha" operator="in"></feComposite><feGaussianBlur stdDeviation="1"></feGaussianBlur><feOffset dx="0" dy="0" result="afterOffset"></feOffset><feFlood flood-color="#000000" flood-opacity="0.5"></feFlood><feComposite in2="afterOffset" operator="in"></feComposite><feMorphology operator="dilate" radius="1"></feMorphology><feComposite in2="SourceAlpha" operator="out"></feComposite></filter><path d="M322.13 364.29C231.37 364.29 157.68 285.62 157.68 188.72C157.68 91.82 231.37 13.15 322.13 13.15C412.9 13.15 486.58 91.82 486.58 188.72C486.58 285.62 412.9 364.29 322.13 364.29Z" id="k3jmRvPyz" fill="white" fill-opacity="1" filter="url(#shadow1856360)"></path></g><use xlink:href="#a1Z1PBz7SF" opacity="1" fill="#2d2d2d" fill-opacity="1"></use><g><use xlink:href="#a1Z1PBz7SF" opacity="1" fill-opacity="0" stroke="#000000" stroke-width="1" stroke-opacity="0"></use></g></g><g><g><filter id="shadow14597099" x="127.68" y="-16.85" width="388.9" height="411.14" filterUnits="userSpaceOnUse" primitiveUnits="userSpaceOnUse"><feFlood></feFlood><feComposite in2="SourceAlpha" operator="in"></feComposite><feGaussianBlur stdDeviation="3.16"></feGaussianBlur><feOffset dx="0" dy="0" result="afterOffset"></feOffset><feFlood flood-color="#000000" flood-opacity="0.5"></feFlood><feComposite in2="afterOffset" operator="in"></feComposite><feMorphology operator="dilate" radius="5"></feMorphology><feComposite in2="SourceAlpha" operator="out"></feComposite></filter><path d="M322.13 364.29C231.37 364.29 157.68 285.62 157.68 188.72C157.68 91.82 231.37 13.15 322.13 13.15C412.9 13.15 486.58 91.82 486.58 188.72C486.58 285.62 412.9 364.29 322.13 364.29Z" id="a4l6kDVVVI" fill="white" fill-opacity="1" filter="url(#shadow14597099)"></path></g><use xlink:href="#eaWNuVS5p" opacity="1" fill="#000000" fill-opacity="0"></use><g><use xlink:href="#eaWNuVS5p" opacity="1" fill-opacity="0" stroke="#4982e8" stroke-width="10" stroke-opacity="1"></use></g></g><g><g><use xlink:href="#a6oYOFGaU" opacity="1" fill-opacity="0" stroke="#000000" stroke-width="0" stroke-opacity="0"></use></g></g><g><g><filter id="shadow7906648" x="317.99" y="184.48" width="81.99" height="77.92" filterUnits="userSpaceOnUse" primitiveUnits="userSpaceOnUse"><feFlood></feFlood><feComposite in2="SourceAlpha" operator="in"></feComposite><feGaussianBlur stdDeviation="1"></feGaussianBlur><feOffset dx="0" dy="0" result="afterOffset"></feOffset><feFlood flood-color="#000000" flood-opacity="0.5"></feFlood><feComposite in2="afterOffset" operator="in"></feComposite><feMorphology operator="dilate" radius="0"></feMorphology><feComposite in2="SourceAlpha" operator="out"></feComposite></filter><path d="M377.44 255.4L324.99 209.07L340.53 191.48L392.98 237.81L377.44 255.4ZM376.78 237.39L375.75 238.25L375.03 239.38L374.71 240.64L374.79 241.92L375.26 243.12L376.11 244.16L377.25 244.88L378.5 245.19L379.78 245.11L380.99 244.64L382.03 243.79L382.74 242.66L383.06 241.4L382.98 240.12L382.51 238.92L381.66 237.88L380.53 237.16L379.27 236.85L377.99 236.93L376.78 237.39ZM365.61 227.58L364.58 228.43L363.86 229.57L363.55 230.82L363.63 232.11L364.09 233.31L364.94 234.35L366.08 235.07L367.33 235.38L368.62 235.3L369.82 234.83L370.86 233.98L371.58 232.85L371.89 231.59L371.81 230.31L371.34 229.11L370.49 228.07L369.36 227.35L368.1 227.04L366.82 227.12L365.61 227.58ZM354.52 217.73L353.48 218.58L352.77 219.71L352.45 220.97L352.53 222.25L353 223.46L353.85 224.5L354.98 225.21L356.24 225.53L357.52 225.45L358.73 224.98L359.76 224.13L360.48 223L360.8 221.74L360.72 220.46L360.25 219.25L359.4 218.21L358.26 217.5L357.01 217.18L355.73 217.26L354.52 217.73ZM343.6 208.09L342.57 208.94L341.85 210.07L341.54 211.33L341.61 212.61L342.08 213.82L342.93 214.85L344.07 215.57L345.32 215.89L346.6 215.81L347.81 215.34L348.85 214.49L349.56 213.35L349.88 212.1L349.8 210.82L349.33 209.61L348.48 208.57L347.35 207.86L346.09 207.54L344.81 207.62L343.6 208.09Z" id="bMqycvaD" fill="white" fill-opacity="1" filter="url(#shadow7906648)"></path></g><use xlink:href="#albBZrVfZ" opacity="1" fill="#a8a8a8" fill-opacity="1"></use></g><g><g><filter id="shadow4345699" x="317.99" y="199.65" width="68.59" height="62.75" filterUnits="userSpaceOnUse" primitiveUnits="userSpaceOnUse"><feFlood></feFlood><feComposite in2="SourceAlpha" operator="in"></feComposite><feGaussianBlur stdDeviation="1"></feGaussianBlur><feOffset dx="0" dy="0" result="afterOffset"></feOffset><feFlood flood-color="#000000" flood-opacity="0.5"></feFlood><feComposite in2="afterOffset" operator="in"></feComposite><feMorphology operator="dilate" radius="0"></feMorphology><feComposite in2="SourceAlpha" operator="out"></feComposite></filter><path d="M379.58 252.98L377.44 255.4L324.99 209.07L327.13 206.65L379.58 252.98Z" id="d1PEtzuLG1" fill="white" fill-opacity="1" filter="url(#shadow4345699)"></path></g><use xlink:href="#a13LJAR6Tw" opacity="1" fill="#a8a8a8" fill-opacity="1"></use></g><g><g><filter id="shadow5815447" x="331.39" y="184.48" width="68.59" height="62.75" filterUnits="userSpaceOnUse" primitiveUnits="userSpaceOnUse"><feFlood></feFlood><feComposite in2="SourceAlpha" operator="in"></feComposite><feGaussianBlur stdDeviation="1"></feGaussianBlur><feOffset dx="0" dy="0" result="afterOffset"></feOffset><feFlood flood-color="#000000" flood-opacity="0.5"></feFlood><feComposite in2="afterOffset" operator="in"></feComposite><feMorphology operator="dilate" radius="0"></feMorphology><feComposite in2="SourceAlpha" operator="out"></feComposite></filter><path d="M392.98 237.81L390.84 240.23L338.39 193.9L340.53 191.48L392.98 237.81Z" id="ci9epCNMq" fill="white" fill-opacity="1" filter="url(#shadow5815447)"></path></g><use xlink:href="#a30vMMMIq" opacity="1" fill="#a8a8a8" fill-opacity="1"></use></g><g><use xlink:href="#a7Th7JqBI" opacity="1" fill="url(#gradienta1a4tMElBg)"></use></g><g><use xlink:href="#a1y2U3bUP8" opacity="1" fill="#626262" fill-opacity="1"></use></g><g><g><filter id="shadow12124034" x="244.29" y="184.48" width="81.99" height="77.92" filterUnits="userSpaceOnUse" primitiveUnits="userSpaceOnUse"><feFlood></feFlood><feComposite in2="SourceAlpha" operator="in"></feComposite><feGaussianBlur stdDeviation="1"></feGaussianBlur><feOffset dx="0" dy="0" result="afterOffset"></feOffset><feFlood flood-color="#000000" flood-opacity="0.5"></feFlood><feComposite in2="afterOffset" operator="in"></feComposite><feMorphology operator="dilate" radius="0"></feMorphology><feComposite in2="SourceAlpha" operator="out"></feComposite></filter><path d="M266.82 255.4L251.29 237.81L303.74 191.48L319.28 209.07L266.82 255.4ZM262.6 237.88L261.75 238.92L261.28 240.12L261.21 241.4L261.52 242.66L262.24 243.79L263.27 244.64L264.48 245.11L265.76 245.19L267.02 244.88L268.15 244.16L269 243.12L269.47 241.92L269.55 240.64L269.24 239.38L268.52 238.25L267.48 237.39L266.27 236.93L264.99 236.85L263.74 237.16L262.6 237.88ZM273.77 228.07L272.92 229.11L272.45 230.31L272.37 231.59L272.69 232.85L273.41 233.98L274.44 234.83L275.65 235.3L276.93 235.38L278.19 235.07L279.32 234.35L280.17 233.31L280.64 232.11L280.72 230.82L280.4 229.57L279.69 228.43L278.65 227.58L277.44 227.12L276.16 227.04L274.91 227.35L273.77 228.07ZM284.87 218.21L284.02 219.25L283.55 220.46L283.47 221.74L283.78 223L284.5 224.13L285.54 224.98L286.74 225.45L288.03 225.53L289.28 225.21L290.42 224.5L291.27 223.46L291.73 222.25L291.81 220.97L291.5 219.71L290.78 218.58L289.75 217.73L288.54 217.26L287.26 217.18L286 217.5L284.87 218.21ZM295.78 208.57L294.93 209.61L294.46 210.82L294.38 212.1L294.7 213.35L295.42 214.49L296.45 215.34L297.66 215.81L298.94 215.89L300.2 215.57L301.33 214.85L302.18 213.82L302.65 212.61L302.73 211.33L302.41 210.07L301.7 208.94L300.66 208.09L299.45 207.62L298.17 207.54L296.92 207.86L295.78 208.57Z" id="blJFBvIoB" fill="white" fill-opacity="1" filter="url(#shadow12124034)"></path></g><use xlink:href="#awNyCYI1U" opacity="1" fill="#a8a8a8" fill-opacity="1"></use></g><g><g><filter id="shadow4098473" x="257.68" y="199.65" width="68.59" height="62.75" filterUnits="userSpaceOnUse" primitiveUnits="userSpaceOnUse"><feFlood></feFlood><feComposite in2="SourceAlpha" operator="in"></feComposite><feGaussianBlur stdDeviation="1"></feGaussianBlur><feOffset dx="0" dy="0" result="afterOffset"></feOffset><feFlood flood-color="#000000" flood-opacity="0.5"></feFlood><feComposite in2="afterOffset" operator="in"></feComposite><feMorphology operator="dilate" radius="0"></feMorphology><feComposite in2="SourceAlpha" operator="out"></feComposite></filter><path d="M264.68 252.98L266.82 255.4L319.28 209.07L317.14 206.65L264.68 252.98Z" id="c4vIwnyXmY" fill="white" fill-opacity="1" filter="url(#shadow4098473)"></path></g><use xlink:href="#c13rYzcvrM" opacity="1" fill="#a8a8a8" fill-opacity="1"></use></g><g><g><filter id="shadow5424962" x="244.29" y="184.48" width="68.59" height="62.75" filterUnits="userSpaceOnUse" primitiveUnits="userSpaceOnUse"><feFlood></feFlood><feComposite in2="SourceAlpha" operator="in"></feComposite><feGaussianBlur stdDeviation="1"></feGaussianBlur><feOffset dx="0" dy="0" result="afterOffset"></feOffset><feFlood flood-color="#000000" flood-opacity="0.5"></feFlood><feComposite in2="afterOffset" operator="in"></feComposite><feMorphology operator="dilate" radius="0"></feMorphology><feComposite in2="SourceAlpha" operator="out"></feComposite></filter><path d="M251.29 237.81L253.42 240.23L305.88 193.9L303.74 191.48L251.29 237.81Z" id="c12xdEOWKm" fill="white" fill-opacity="1" filter="url(#shadow5424962)"></path></g><use xlink:href="#c1ksUBNF7E" opacity="1" fill="#a8a8a8" fill-opacity="1"></use></g><g><use xlink:href="#h2IB0AqYVB" opacity="1" fill="url(#gradienta6OakMa2hy)"></use></g><g><use xlink:href="#bkdCyPJxN" opacity="1" fill="#626262" fill-opacity="1"></use></g><g><g><filter id="shadow15452737" x="211.54" y="229.21" width="62.61" height="54.44" filterUnits="userSpaceOnUse" primitiveUnits="userSpaceOnUse"><feFlood></feFlood><feComposite in2="SourceAlpha" operator="in"></feComposite><feGaussianBlur stdDeviation="1"></feGaussianBlur><feOffset dx="0" dy="0" result="afterOffset"></feOffset><feFlood flood-color="#000000" flood-opacity="0.5"></feFlood><feComposite in2="afterOffset" operator="in"></feComposite><feMorphology operator="dilate" radius="0"></feMorphology><feComposite in2="SourceAlpha" operator="out"></feComposite></filter><path d="M245.12 236.31L246.24 236.44L247.34 236.61L248.42 236.84L249.49 237.11L250.53 237.42L251.56 237.78L252.56 238.19L253.54 238.63L254.49 239.12L255.42 239.65L256.33 240.21L257.2 240.81L258.05 241.45L258.87 242.13L259.66 242.84L260.41 243.58L261.13 244.35L261.82 245.15L262.47 245.99L263.08 246.85L263.65 247.73L264.19 248.65L264.69 249.59L265.14 250.55L265.55 251.54L265.92 252.54L266.24 253.57L266.51 254.62L266.74 255.68L266.92 256.76L267.05 257.86L267.13 258.97L267.16 260.09L267.13 261.22L267.05 262.33L266.92 263.44L266.74 264.54L266.51 265.63L266.24 266.72L265.92 267.8L265.55 268.89L265.14 269.98L264.69 271.07L264.19 272.16L263.65 273.26L263.08 274.37L262.47 275.49L261.82 276.62L261.8 276.65L223.9 276.65L223.88 276.62L223.23 275.49L222.62 274.37L222.04 273.26L221.51 272.16L221.01 271.07L220.56 269.98L220.15 268.89L219.78 267.8L219.46 266.72L219.18 265.63L218.96 264.54L218.78 263.44L218.65 262.33L218.57 261.22L218.54 260.09L218.57 258.97L218.65 257.86L218.78 256.76L218.96 255.68L219.18 254.62L219.46 253.57L219.78 252.54L220.15 251.54L220.56 250.55L221.01 249.59L221.51 248.65L222.04 247.73L222.62 246.85L223.23 245.99L223.88 245.15L224.57 244.35L225.29 243.58L226.04 242.84L226.83 242.13L227.65 241.45L228.49 240.81L229.37 240.21L230.27 239.65L231.2 239.12L232.16 238.63L233.14 238.19L234.14 237.78L235.17 237.42L236.21 237.11L237.28 236.84L238.36 236.61L239.46 236.44L240.57 236.31L241.71 236.23L242.85 236.21L243.99 236.23L245.12 236.31Z" id="d1e5lZLGSL" fill="white" fill-opacity="1" filter="url(#shadow15452737)"></path></g><use xlink:href="#ahsPqUpEU" opacity="1" fill="#a8a8a8" fill-opacity="1"></use></g><g><g><filter id="shadow4284075" x="370.11" y="229.21" width="62.61" height="54.44" filterUnits="userSpaceOnUse" primitiveUnits="userSpaceOnUse"><feFlood></feFlood><feComposite in2="SourceAlpha" operator="in"></feComposite><feGaussianBlur stdDeviation="1"></feGaussianBlur><feOffset dx="0" dy="0" result="afterOffset"></feOffset><feFlood flood-color="#000000" flood-opacity="0.5"></feFlood><feComposite in2="afterOffset" operator="in"></feComposite><feMorphology operator="dilate" radius="0"></feMorphology><feComposite in2="SourceAlpha" operator="out"></feComposite></filter><path d="M403.69 236.31L404.81 236.44L405.91 236.61L406.99 236.84L408.05 237.11L409.1 237.42L410.12 237.78L411.13 238.19L412.11 238.63L413.06 239.12L413.99 239.65L414.9 240.21L415.77 240.81L416.62 241.45L417.44 242.13L418.22 242.84L418.98 243.58L419.7 244.35L420.38 245.15L421.03 245.99L421.65 246.85L422.22 247.73L422.76 248.65L423.25 249.59L423.71 250.55L424.12 251.54L424.48 252.54L424.81 253.57L425.08 254.62L425.31 255.68L425.49 256.76L425.62 257.86L425.7 258.97L425.72 260.09L425.7 261.22L425.62 262.33L425.49 263.44L425.31 264.54L425.08 265.63L424.81 266.72L424.48 267.8L424.12 268.89L423.71 269.98L423.25 271.07L422.76 272.16L422.22 273.26L421.65 274.37L421.03 275.49L420.38 276.62L420.36 276.65L382.47 276.65L382.45 276.62L381.8 275.49L381.19 274.37L380.61 273.26L380.08 272.16L379.58 271.07L379.13 269.98L378.72 268.89L378.35 267.8L378.03 266.72L377.75 265.63L377.52 264.54L377.34 263.44L377.21 262.33L377.14 261.22L377.11 260.09L377.14 258.97L377.21 257.86L377.34 256.76L377.52 255.68L377.75 254.62L378.03 253.57L378.35 252.54L378.72 251.54L379.13 250.55L379.58 249.59L380.08 248.65L380.61 247.73L381.19 246.85L381.8 245.99L382.45 245.15L383.14 244.35L383.86 243.58L384.61 242.84L385.4 242.13L386.21 241.45L387.06 240.81L387.94 240.21L388.84 239.65L389.77 239.12L390.73 238.63L391.71 238.19L392.71 237.78L393.73 237.42L394.78 237.11L395.84 236.84L396.93 236.61L398.03 236.44L399.14 236.31L400.27 236.23L401.42 236.21L402.56 236.23L403.69 236.31Z" id="c1kPTGrfpU" fill="white" fill-opacity="1" filter="url(#shadow4284075)"></path></g><use xlink:href="#avqlnjzXg" opacity="1" fill="#a8a8a8" fill-opacity="1"></use></g><g><use xlink:href="#a3AUgB60J5" opacity="1" fill="#ffffff" fill-opacity="0.3"></use></g><g><g><filter id="shadow4273745" x="261.91" y="36.39" width="120.45" height="264.61" filterUnits="userSpaceOnUse" primitiveUnits="userSpaceOnUse"><feFlood></feFlood><feComposite in2="SourceAlpha" operator="in"></feComposite><feGaussianBlur stdDeviation="1"></feGaussianBlur><feOffset dx="0" dy="0" result="afterOffset"></feOffset><feFlood flood-color="#000000" flood-opacity="0.5"></feFlood><feComposite in2="afterOffset" operator="in"></feComposite><feMorphology operator="dilate" radius="0"></feMorphology><feComposite in2="SourceAlpha" operator="out"></feComposite></filter><path d="M375.36 205.82C375.36 254.52 351.53 294 322.13 294C292.74 294 268.91 254.52 268.91 205.82C268.91 157.12 292.74 117.65 322.13 43.39C351.53 117.65 375.36 157.12 375.36 205.82Z" id="b8cDH5Jz2" fill="white" fill-opacity="1" filter="url(#shadow4273745)"></path></g><use xlink:href="#dvPX4SHtR" opacity="1" fill="#a8a8a8" fill-opacity="1"></use></g><g><use xlink:href="#fdaiUe3ow" opacity="1" fill="#ffffff" fill-opacity="0.3"></use></g><g><g><filter id="shadow6364336" x="294.18" y="140.74" width="55.91" height="55.91" filterUnits="userSpaceOnUse" primitiveUnits="userSpaceOnUse"><feFlood></feFlood><feComposite in2="SourceAlpha" operator="in"></feComposite><feGaussianBlur stdDeviation="1"></feGaussianBlur><feOffset dx="0" dy="0" result="afterOffset"></feOffset><feFlood flood-color="#000000" flood-opacity="0.5"></feFlood><feComposite in2="afterOffset" operator="in"></feComposite><feMorphology operator="dilate" radius="0"></feMorphology><feComposite in2="SourceAlpha" operator="out"></feComposite></filter><path d="M343.09 168.7C343.09 180.26 333.7 189.65 322.13 189.65C310.57 189.65 301.18 180.26 301.18 168.7C301.18 157.13 310.57 147.74 322.13 147.74C333.7 147.74 343.09 157.13 343.09 168.7Z" id="baCebI3y" fill="white" fill-opacity="1" filter="url(#shadow6364336)"></path></g><use xlink:href="#c1pJULBaZ" opacity="1" fill="#a8a8a8" fill-opacity="1"></use></g><g><use xlink:href="#g1TXjWsLn3" opacity="1" fill="#72deff" fill-opacity="1"></use><g><use xlink:href="#g1TXjWsLn3" opacity="1" fill-opacity="0" stroke="#424242" stroke-width="1" stroke-opacity="0.27"></use></g><g><filter id="shadow10053976" x="298.42" y="144.98" width="47.43" height="47.43" filterUnits="userSpaceOnUse" primitiveUnits="userSpaceOnUse"><feFlood></feFlood><feComposite in2="SourceAlpha" operator="out"></feComposite><feGaussianBlur stdDeviation="1"></feGaussianBlur><feOffset dx="0" dy="0" result="afterOffset"></feOffset><feFlood flood-color="#2a2a2a" flood-opacity="0.35"></feFlood><feComposite in2="afterOffset" operator="in"></feComposite><feMorphology operator="dilate" radius="1"></feMorphology><feComposite in2="SourceAlpha" operator="in"></feComposite></filter><path d="M337.85 168.7C337.85 177.37 330.81 184.41 322.13 184.41C313.46 184.41 306.42 177.37 306.42 168.7C306.42 160.02 313.46 152.98 322.13 152.98C330.81 152.98 337.85 160.02 337.85 168.7Z" id="b2Fnvy3H4H" fill="white" fill-opacity="1" filter="url(#shadow10053976)"></path></g></g><g><use xlink:href="#acQVc5bkf" opacity="1" fill="#ffffff" fill-opacity="0.34"></use></g><g><use xlink:href="#b67ueIxvHf" opacity="1" fill="#ffffff" fill-opacity="0.3"></use></g><g><use xlink:href="#e1YELv3mcq" opacity="1" fill="#ffffff" fill-opacity="0.3"></use></g><g><use xlink:href="#b1X18DL4yY" opacity="1" fill="#ffffff" fill-opacity="0.3"></use></g></g></g></svg>