<?xml version="1.0" encoding="UTF-8" standalone="no"?>
<!DOCTYPE svg PUBLIC "-//W3C//DTD SVG 1.1//EN" "http://www.w3.org/Graphics/SVG/1.1/DTD/svg11.dtd">
<svg version="1.1" xmlns="http://www.w3.org/2000/svg" xmlns:xlink="http://www.w3.org/1999/xlink" preserveAspectRatio="xMidYMid meet" viewBox="0 0 640 381" width="640" height="381"><defs><path d="M305.16 203.12C305.16 203.12 305.16 203.12 305.16 203.12C305.16 183.3 320.83 167.2 340.13 167.2C340.13 167.2 595.24 167.2 595.24 167.2C614.55 167.2 630.21 183.3 630.21 203.12C630.21 203.12 630.21 203.12 630.21 203.12C630.21 222.95 614.55 239.05 595.24 239.05C595.24 239.05 340.13 239.05 340.13 239.05C320.83 239.05 305.16 222.95 305.16 203.12Z" id="a7s63bbBt"></path><path d="M30.21 117.23C30.21 117.23 30.21 117.23 30.21 117.23C30.21 83.18 56.73 55.55 89.38 55.55C89.38 55.55 520.94 55.55 520.94 55.55C553.59 55.55 580.11 83.18 580.11 117.23C580.11 117.23 580.11 117.23 580.11 117.23C580.11 151.27 553.59 178.9 520.94 178.9C520.94 178.9 89.38 178.9 89.38 178.9C56.73 178.9 30.21 151.27 30.21 117.23Z" id="anNzg3HMO"></path><path d="M110.39 277.81C110.39 277.81 110.39 277.81 110.39 277.81C110.39 253.14 129.17 233.1 152.3 233.1C152.3 233.1 458.02 233.1 458.02 233.1C481.15 233.1 499.93 253.14 499.93 277.81C499.93 277.81 499.93 277.81 499.93 277.81C499.93 302.48 481.15 322.51 458.02 322.51C458.02 322.51 152.3 322.51 152.3 322.51C129.17 322.51 110.39 302.48 110.39 277.81Z" id="dkDTI4hrU"></path><path d="M322.13 364.29C231.37 364.29 157.68 285.62 157.68 188.72C157.68 91.82 231.37 13.15 322.13 13.15C412.9 13.15 486.58 91.82 486.58 188.72C486.58 285.62 412.9 364.29 322.13 364.29Z" id="b1PgCc8Tv6"></path><path d="M322.13 364.29C231.37 364.29 157.68 285.62 157.68 188.72C157.68 91.82 231.37 13.15 322.13 13.15C412.9 13.15 486.58 91.82 486.58 188.72C486.58 285.62 412.9 364.29 322.13 364.29Z" id="a6HKvYnohG"></path><path d="" id="aOivAfJl9"></path><path d="M276.51 148.75L276.51 98.83L292.74 98.83L292.74 148.75L276.51 148.75ZM305.89 65.54L306.35 65.6L306.8 65.67L307.25 65.76L307.69 65.88L308.12 66.01L308.54 66.16L308.95 66.33L309.35 66.52L309.75 66.72L310.13 66.94L310.5 67.18L310.86 67.43L311.21 67.7L311.55 67.98L311.87 68.28L312.18 68.59L312.48 68.91L312.76 69.25L313.03 69.59L313.28 69.95L313.51 70.33L313.73 70.71L313.94 71.1L314.12 71.51L314.29 71.92L314.44 72.34L314.58 72.77L314.69 73.21L314.78 73.65L314.86 74.11L314.91 74.56L314.94 75.03L314.95 75.5L314.95 88.83L314.94 89.3L314.91 89.77L314.86 90.23L314.78 90.68L314.69 91.13L314.58 91.56L314.44 91.99L314.29 92.42L314.12 92.83L313.94 93.23L313.73 93.62L313.51 94.01L313.28 94.38L313.03 94.74L312.76 95.09L312.48 95.42L312.18 95.75L311.87 96.06L311.55 96.35L311.21 96.64L310.86 96.9L310.5 97.16L310.13 97.39L309.75 97.61L309.35 97.82L308.95 98L308.54 98.17L308.12 98.32L307.69 98.46L307.25 98.57L306.8 98.66L306.35 98.74L305.89 98.79L305.43 98.82L304.95 98.83L261.91 98.83L261.44 98.82L260.97 98.79L260.51 98.74L260.06 98.66L259.61 98.57L259.18 98.46L258.75 98.32L258.32 98.17L257.91 98L257.51 97.82L257.12 97.61L256.73 97.39L256.36 97.16L256 96.9L255.65 96.64L255.32 96.35L254.99 96.06L254.68 95.75L254.39 95.42L254.1 95.09L253.84 94.74L253.58 94.38L253.35 94.01L253.13 93.62L252.92 93.23L252.74 92.83L252.57 92.42L252.42 91.99L252.28 91.56L252.17 91.13L252.08 90.68L252 90.23L251.95 89.77L251.92 89.3L251.91 88.83L251.91 75.5L251.92 75.03L251.95 74.56L252 74.11L252.08 73.65L252.17 73.21L252.28 72.77L252.42 72.34L252.57 71.92L252.74 71.51L252.92 71.1L253.13 70.71L253.35 70.33L253.58 69.95L253.84 69.59L254.1 69.25L254.39 68.91L254.68 68.59L254.99 68.28L255.32 67.98L255.65 67.7L256 67.43L256.36 67.18L256.73 66.94L257.12 66.72L257.51 66.52L257.91 66.33L258.32 66.16L258.75 66.01L259.18 65.88L259.61 65.76L260.06 65.67L260.51 65.6L260.97 65.54L261.44 65.51L261.91 65.5L304.95 65.5L305.43 65.51L305.89 65.54Z" id="c7fJXlIUWC"></path><path d="M292.39 148.75C295.05 148.75 297.21 150.9 297.21 153.57C297.21 163.07 297.21 186.77 297.21 196.28C297.21 198.94 295.05 201.1 292.39 201.1C288.32 201.1 280.93 201.1 276.87 201.1C274.2 201.1 272.05 198.94 272.05 196.28C272.05 186.77 272.05 163.07 272.05 153.57C272.05 150.9 274.2 148.75 276.87 148.75C280.93 148.75 288.32 148.75 292.39 148.75Z" id="d4CmxsZY6"></path><path d="M337.44 148.75C340.1 148.75 342.26 150.9 342.26 153.57C342.26 163.07 342.26 186.77 342.26 196.28C342.26 198.94 340.1 201.1 337.44 201.1C333.37 201.1 325.98 201.1 321.92 201.1C319.25 201.1 317.1 198.94 317.1 196.28C317.1 186.77 317.1 163.07 317.1 153.57C317.1 150.9 319.25 148.75 321.92 148.75C325.98 148.75 333.37 148.75 337.44 148.75Z" id="b3HIFIFZw1"></path><path d="M276.51 148.75L276.51 98.83L283.43 98.83L283.43 148.75L276.51 148.75ZM261.91 98.83L261.44 98.82L260.97 98.79L260.51 98.74L260.06 98.66L259.61 98.57L259.18 98.46L258.75 98.32L258.32 98.17L257.91 98L257.51 97.82L257.12 97.61L256.73 97.39L256.36 97.16L256 96.9L255.65 96.64L255.32 96.35L254.99 96.06L254.68 95.75L254.39 95.42L254.1 95.09L253.84 94.74L253.58 94.38L253.35 94.01L253.13 93.62L252.92 93.23L252.74 92.83L252.57 92.42L252.42 91.99L252.28 91.56L252.17 91.13L252.08 90.68L252 90.23L251.95 89.77L251.92 89.3L251.91 88.83L251.91 75.5L251.92 75.03L251.95 74.56L252 74.11L252.08 73.65L252.17 73.21L252.28 72.77L252.42 72.34L252.57 71.92L252.74 71.51L252.92 71.1L253.13 70.71L253.35 70.33L253.58 69.95L253.84 69.59L254.1 69.25L254.39 68.91L254.68 68.59L254.99 68.28L255.32 67.98L255.65 67.7L256 67.43L256.36 67.18L256.73 66.94L257.12 66.72L257.51 66.52L257.91 66.33L258.32 66.16L258.75 66.01L259.18 65.88L259.61 65.76L260.06 65.67L260.51 65.6L260.97 65.54L261.44 65.51L261.91 65.5L283.43 65.5L283.43 98.83L261.91 98.83Z" id="d2nxilEDNC"></path><path d="M276.87 201.1L276.59 201.09L276.32 201.07L276.06 201.03L275.8 200.98L275.54 200.92L275.29 200.84L275.05 200.75L274.81 200.64L274.58 200.53L274.36 200.4L274.15 200.26L273.94 200.11L273.74 199.95L273.55 199.78L273.37 199.6L273.2 199.41L273.04 199.21L272.89 199L272.75 198.79L272.62 198.56L272.5 198.33L272.4 198.1L272.31 197.85L272.23 197.6L272.17 197.35L272.11 197.09L272.08 196.82L272.05 196.56L272.05 196.28L272.05 153.57L272.05 153.29L272.08 153.02L272.11 152.76L272.17 152.5L272.23 152.24L272.31 151.99L272.4 151.75L272.5 151.51L272.62 151.28L272.75 151.06L272.89 150.84L273.04 150.64L273.2 150.44L273.37 150.25L273.55 150.07L273.74 149.9L273.94 149.74L274.15 149.59L274.36 149.45L274.58 149.32L274.81 149.2L275.05 149.1L275.29 149.01L275.54 148.93L275.8 148.87L276.06 148.81L276.32 148.78L276.59 148.75L276.87 148.75L283.43 148.75L283.43 201.1L276.87 201.1Z" id="a10jxLPFEJ"></path><path d="M321.92 201.1L321.64 201.09L321.37 201.07L321.11 201.03L320.85 200.98L320.59 200.92L320.34 200.84L320.1 200.75L319.86 200.64L319.63 200.53L319.41 200.4L319.19 200.26L318.99 200.11L318.79 199.95L318.6 199.78L318.42 199.6L318.25 199.41L318.09 199.21L317.94 199L317.8 198.79L317.67 198.56L317.55 198.33L317.45 198.1L317.36 197.85L317.28 197.6L317.21 197.35L317.16 197.09L317.13 196.82L317.1 196.56L317.1 196.28L317.1 153.57L317.1 153.29L317.13 153.02L317.16 152.76L317.21 152.5L317.28 152.24L317.36 151.99L317.45 151.75L317.55 151.51L317.67 151.28L317.8 151.06L317.94 150.84L318.09 150.64L318.25 150.44L318.42 150.25L318.6 150.07L318.79 149.9L318.99 149.74L319.19 149.59L319.41 149.45L319.63 149.32L319.86 149.2L320.1 149.1L320.34 149.01L320.59 148.93L320.85 148.87L321.11 148.81L321.37 148.78L321.64 148.75L321.92 148.75L328.48 148.75L328.48 201.1L321.92 201.1Z" id="dwwWfqOuz"></path><path d="M321.56 148.75L321.56 99.31L337.79 99.31L337.79 148.75L321.56 148.75Z" id="a2Jre4Sam"></path><path d="M321.56 148.75L321.56 99.31L328.48 99.31L328.48 148.75L321.56 148.75ZM328.48 110.6L328.48 99.31L337.79 99.31L337.79 110.6L328.48 110.6Z" id="dQu58xzW1"></path><path d="M367.39 148.75C370.05 148.75 372.21 150.9 372.21 153.57C372.21 162.85 372.21 185.87 372.21 195.15C372.21 197.81 370.05 199.96 367.39 199.96C365.11 199.96 363.08 199.96 360.8 199.96C358.13 199.96 355.98 197.81 355.98 195.15C355.98 185.87 355.98 162.85 355.98 153.57C355.98 150.9 358.13 148.75 360.8 148.75C363.08 148.75 365.11 148.75 367.39 148.75Z" id="g713EsA2D"></path><path d="M360.8 199.96L360.48 199.95L360.17 199.92L359.86 199.87L359.56 199.81L359.27 199.72L358.99 199.61L358.71 199.49L358.45 199.36L358.19 199.2L357.95 199.03L357.72 198.85L357.49 198.66L357.28 198.45L357.09 198.23L356.91 197.99L356.74 197.75L356.58 197.49L356.45 197.23L356.33 196.95L356.22 196.67L356.13 196.38L356.07 196.08L356.02 195.77L355.99 195.46L355.98 195.15L355.98 153.57L355.99 153.25L356.02 152.94L356.07 152.63L356.13 152.33L356.22 152.04L356.33 151.76L356.45 151.48L356.58 151.22L356.74 150.96L356.91 150.72L357.09 150.49L357.28 150.26L357.49 150.05L357.72 149.86L357.95 149.68L358.19 149.51L358.45 149.36L358.71 149.22L358.99 149.1L359.27 148.99L359.56 148.91L359.86 148.84L360.17 148.79L360.48 148.76L360.8 148.75L362.76 148.75L362.76 199.96L360.8 199.96Z" id="b32Qjb0BZ"></path><path d="M366.31 76.91L367.51 77.31L368.65 77.85L369.73 78.51L370.73 79.31L371.64 80.21L372.46 81.22L373.17 82.33L373.77 83.52L374.26 84.79L374.61 86.13L374.83 87.52L374.91 88.96L374.83 90.41L374.61 91.8L374.26 93.14L373.77 94.41L373.17 95.6L372.46 96.7L371.64 97.72L370.73 98.62L369.73 99.41L368.65 100.08L368.13 100.33L368.13 148.75L359.37 148.75L359.37 100.33L358.84 100.08L357.77 99.41L356.77 98.62L355.86 97.72L355.04 96.7L354.33 95.6L353.72 94.41L353.24 93.14L352.88 91.8L352.66 90.41L352.59 88.96L352.66 87.52L352.88 86.13L353.24 84.79L353.72 83.52L354.33 82.33L355.04 81.22L355.86 80.21L356.77 79.31L357.77 78.51L358.84 77.85L359.99 77.31L361.19 76.91L362.45 76.67L363.75 76.59L365.05 76.67L366.31 76.91Z" id="bJeKriqO0"></path><path d="M359.37 100.49L358.5 100.08L357.42 99.41L356.43 98.62L355.51 97.72L354.7 96.7L353.98 95.6L353.38 94.41L352.89 93.14L352.54 91.8L352.32 90.41L352.24 88.96L352.32 87.52L352.54 86.13L352.89 84.79L353.38 83.52L353.98 82.33L354.7 81.22L355.51 80.21L356.43 79.31L357.42 78.51L358.5 77.85L359.64 77.31L360.85 76.91L362.1 76.67L363.4 76.59L363.75 76.61L363.75 148.75L359.37 148.75L359.37 100.49Z" id="ecUnNaluR"></path><path d="M368.96 219.7L369.15 219.73L369.34 219.77L369.53 219.81L369.71 219.86L369.89 219.91L370.07 219.98L370.24 220.05L370.42 220.12L370.58 220.21L370.75 220.3L370.91 220.39L371.06 220.49L371.21 220.6L371.36 220.71L371.5 220.83L371.64 220.95L371.78 221.08L371.9 221.21L372.03 221.35L372.15 221.49L372.26 221.64L372.36 221.79L372.47 221.95L372.56 222.11L372.65 222.27L372.73 222.44L372.81 222.61L372.88 222.79L372.94 222.96L373 223.15L373.05 223.33L373.09 223.52L373.12 223.71L373.15 223.9L373.17 224.09L373.18 224.29L373.19 224.49L373.19 267.2L373.18 267.4L373.17 267.6L373.15 267.79L373.12 267.99L373.09 268.18L373.05 268.36L373 268.55L372.94 268.73L372.88 268.91L372.81 269.08L372.73 269.25L372.65 269.42L372.56 269.58L372.47 269.74L372.36 269.9L372.26 270.05L372.15 270.2L372.03 270.34L371.9 270.48L371.78 270.61L371.64 270.74L371.5 270.86L371.36 270.98L371.21 271.09L371.06 271.2L370.91 271.3L370.75 271.4L370.58 271.49L370.42 271.57L370.24 271.64L370.07 271.71L369.89 271.78L369.71 271.83L369.53 271.88L369.34 271.93L369.15 271.96L368.96 271.99L368.76 272.01L368.57 272.02L368.37 272.02L292.83 272.02L292.83 310.68L292.82 310.95L292.8 311.22L292.76 311.49L292.71 311.75L292.65 312L292.57 312.25L292.48 312.5L292.37 312.73L292.26 312.96L292.13 313.19L291.99 313.4L291.84 313.61L291.68 313.81L291.51 314L291.33 314.18L291.14 314.35L290.94 314.51L290.73 314.66L290.52 314.8L290.29 314.93L290.06 315.04L289.83 315.15L289.58 315.24L289.33 315.32L289.08 315.38L288.82 315.43L288.55 315.47L288.28 315.49L288.01 315.5L272.49 315.5L272.21 315.49L271.94 315.47L271.68 315.43L271.42 315.38L271.16 315.32L270.91 315.24L270.67 315.15L270.43 315.04L270.2 314.93L269.98 314.8L269.77 314.66L269.56 314.51L269.36 314.35L269.17 314.18L268.99 314L268.82 313.81L268.66 313.61L268.51 313.4L268.37 313.19L268.24 312.96L268.13 312.73L268.02 312.5L267.93 312.25L267.85 312L267.79 311.75L267.74 311.49L267.7 311.22L267.68 310.95L267.67 310.68L267.67 267.96L267.68 267.69L267.68 267.6L267.67 267.4L267.67 267.2L267.67 224.49L267.67 224.29L267.68 224.09L267.7 223.9L267.73 223.71L267.77 223.52L267.81 223.33L267.86 223.15L267.91 222.96L267.98 222.79L268.05 222.61L268.12 222.44L268.21 222.27L268.3 222.11L268.39 221.95L268.49 221.79L268.6 221.64L268.71 221.49L268.83 221.35L268.95 221.21L269.08 221.08L269.21 220.95L269.35 220.83L269.49 220.71L269.64 220.6L269.79 220.49L269.95 220.39L270.11 220.3L270.27 220.21L270.44 220.12L270.61 220.05L270.79 219.98L270.96 219.91L271.15 219.86L271.33 219.81L271.52 219.77L271.71 219.73L271.9 219.7L272.09 219.68L272.29 219.67L272.49 219.67L368.37 219.67L368.57 219.67L368.76 219.68L368.76 219.68L368.96 219.7Z" id="bHRHJYKba"></path><path d="M383.47 229.47L383.83 229.54L384.18 229.63L384.52 229.75L384.85 229.9L385.16 230.07L385.46 230.26L385.74 230.47L386.01 230.7L386.26 230.95L386.49 231.21L386.7 231.5L386.89 231.8L387.06 232.11L387.2 232.44L387.32 232.77L387.42 233.12L387.49 233.48L387.53 233.85L387.55 234.23L387.55 257.46L387.53 257.84L387.49 258.21L387.42 258.57L387.32 258.92L387.2 259.26L387.06 259.58L386.89 259.9L386.7 260.19L386.49 260.48L386.26 260.74L386.01 260.99L385.74 261.22L385.46 261.43L385.16 261.62L384.85 261.79L384.52 261.94L384.18 262.06L383.83 262.16L383.47 262.23L383.1 262.27L382.73 262.28L373.19 262.28L373.19 229.41L382.73 229.41L383.1 229.42L383.47 229.47Z" id="d1y52tuOoN"></path><path d="M387.71 242.4L404.25 242.4L404.25 249.3L387.71 249.3L387.71 242.4Z" id="c5vIuUAKkA"></path><path d="M368.76 219.68L368.96 219.7L369.15 219.73L369.34 219.77L369.53 219.81L369.71 219.86L369.89 219.91L370.07 219.98L370.24 220.05L370.42 220.12L370.58 220.21L370.75 220.3L370.91 220.39L371.06 220.49L371.21 220.6L371.36 220.71L371.5 220.83L371.64 220.95L371.78 221.08L371.9 221.21L372.03 221.35L372.15 221.49L372.26 221.64L372.36 221.79L372.47 221.95L372.56 222.11L372.65 222.27L372.73 222.44L372.81 222.61L372.88 222.79L372.94 222.96L373 223.15L373.05 223.33L373.09 223.52L373.12 223.71L373.15 223.9L373.17 224.09L373.18 224.29L373.19 224.49L373.19 240.47L267.67 240.47L267.67 224.49L267.67 224.29L267.68 224.09L267.7 223.9L267.73 223.71L267.77 223.52L267.81 223.33L267.86 223.15L267.91 222.96L267.98 222.79L268.05 222.61L268.12 222.44L268.21 222.27L268.3 222.11L268.39 221.95L268.49 221.79L268.6 221.64L268.71 221.49L268.83 221.35L268.95 221.21L269.08 221.08L269.21 220.95L269.35 220.83L269.49 220.71L269.64 220.6L269.79 220.49L269.95 220.39L270.11 220.3L270.27 220.21L270.44 220.12L270.61 220.05L270.79 219.98L270.96 219.91L271.15 219.86L271.33 219.81L271.52 219.77L271.71 219.73L271.9 219.7L272.09 219.68L272.29 219.67L272.49 219.67L368.37 219.67L368.57 219.67L368.76 219.68Z" id="iZU3wq7Zu"></path><path d="M383.47 229.47L383.83 229.54L384.18 229.63L384.52 229.75L384.85 229.9L385.16 230.07L385.46 230.26L385.74 230.47L386.01 230.7L386.26 230.95L386.49 231.21L386.7 231.5L386.89 231.8L387.06 232.11L387.2 232.44L387.32 232.77L387.42 233.12L387.49 233.48L387.53 233.85L387.55 234.23L387.55 240.47L373.19 240.47L373.19 229.41L382.73 229.41L383.1 229.42L383.47 229.47Z" id="b1XbjYD4ea"></path></defs><g><g><g><g><filter id="shadow841928" x="297.16" y="159.2" width="341.05" height="87.85" filterUnits="userSpaceOnUse" primitiveUnits="userSpaceOnUse"><feFlood></feFlood><feComposite in2="SourceAlpha" operator="in"></feComposite><feGaussianBlur stdDeviation="1"></feGaussianBlur><feOffset dx="0" dy="0" result="afterOffset"></feOffset><feFlood flood-color="#000000" flood-opacity="0.5"></feFlood><feComposite in2="afterOffset" operator="in"></feComposite><feMorphology operator="dilate" radius="1"></feMorphology><feComposite in2="SourceAlpha" operator="out"></feComposite></filter><path d="M305.16 203.12C305.16 203.12 305.16 203.12 305.16 203.12C305.16 183.3 320.83 167.2 340.13 167.2C340.13 167.2 595.24 167.2 595.24 167.2C614.55 167.2 630.21 183.3 630.21 203.12C630.21 203.12 630.21 203.12 630.21 203.12C630.21 222.95 614.55 239.05 595.24 239.05C595.24 239.05 340.13 239.05 340.13 239.05C320.83 239.05 305.16 222.95 305.16 203.12Z" id="n23dEJREE" fill="white" fill-opacity="1" filter="url(#shadow841928)"></path></g><use xlink:href="#a7s63bbBt" opacity="1" fill="#9642f5" fill-opacity="1"></use><g><use xlink:href="#a7s63bbBt" opacity="1" fill-opacity="0" stroke="#000000" stroke-width="1" stroke-opacity="0"></use></g></g><g><g><filter id="shadow11936107" x="22.21" y="47.55" width="565.89" height="139.35" filterUnits="userSpaceOnUse" primitiveUnits="userSpaceOnUse"><feFlood></feFlood><feComposite in2="SourceAlpha" operator="in"></feComposite><feGaussianBlur stdDeviation="1"></feGaussianBlur><feOffset dx="0" dy="0" result="afterOffset"></feOffset><feFlood flood-color="#000000" flood-opacity="0.5"></feFlood><feComposite in2="afterOffset" operator="in"></feComposite><feMorphology operator="dilate" radius="1"></feMorphology><feComposite in2="SourceAlpha" operator="out"></feComposite></filter><path d="M30.21 117.23C30.21 117.23 30.21 117.23 30.21 117.23C30.21 83.18 56.73 55.55 89.38 55.55C89.38 55.55 520.94 55.55 520.94 55.55C553.59 55.55 580.11 83.18 580.11 117.23C580.11 117.23 580.11 117.23 580.11 117.23C580.11 151.27 553.59 178.9 520.94 178.9C520.94 178.9 89.38 178.9 89.38 178.9C56.73 178.9 30.21 151.27 30.21 117.23Z" id="b2v9xYAFaM" fill="white" fill-opacity="1" filter="url(#shadow11936107)"></path></g><use xlink:href="#anNzg3HMO" opacity="1" fill="#9642f5" fill-opacity="1"></use><g><use xlink:href="#anNzg3HMO" opacity="1" fill-opacity="0" stroke="#000000" stroke-width="1" stroke-opacity="0"></use></g></g><g><g><filter id="shadow347428" x="102.39" y="225.1" width="405.54" height="105.41" filterUnits="userSpaceOnUse" primitiveUnits="userSpaceOnUse"><feFlood></feFlood><feComposite in2="SourceAlpha" operator="in"></feComposite><feGaussianBlur stdDeviation="1"></feGaussianBlur><feOffset dx="0" dy="0" result="afterOffset"></feOffset><feFlood flood-color="#000000" flood-opacity="0.5"></feFlood><feComposite in2="afterOffset" operator="in"></feComposite><feMorphology operator="dilate" radius="1"></feMorphology><feComposite in2="SourceAlpha" operator="out"></feComposite></filter><path d="M110.39 277.81C110.39 277.81 110.39 277.81 110.39 277.81C110.39 253.14 129.17 233.1 152.3 233.1C152.3 233.1 458.02 233.1 458.02 233.1C481.15 233.1 499.93 253.14 499.93 277.81C499.93 277.81 499.93 277.81 499.93 277.81C499.93 302.48 481.15 322.51 458.02 322.51C458.02 322.51 152.3 322.51 152.3 322.51C129.17 322.51 110.39 302.48 110.39 277.81Z" id="a5VFC4eG5u" fill="white" fill-opacity="1" filter="url(#shadow347428)"></path></g><use xlink:href="#dkDTI4hrU" opacity="1" fill="#9642f5" fill-opacity="1"></use><g><use xlink:href="#dkDTI4hrU" opacity="1" fill-opacity="0" stroke="#000000" stroke-width="1" stroke-opacity="0"></use></g></g><g><g><filter id="shadow5156939" x="149.68" y="5.15" width="344.9" height="367.14" filterUnits="userSpaceOnUse" primitiveUnits="userSpaceOnUse"><feFlood></feFlood><feComposite in2="SourceAlpha" operator="in"></feComposite><feGaussianBlur stdDeviation="1"></feGaussianBlur><feOffset dx="0" dy="0" result="afterOffset"></feOffset><feFlood flood-color="#000000" flood-opacity="0.5"></feFlood><feComposite in2="afterOffset" operator="in"></feComposite><feMorphology operator="dilate" radius="1"></feMorphology><feComposite in2="SourceAlpha" operator="out"></feComposite></filter><path d="M322.13 364.29C231.37 364.29 157.68 285.62 157.68 188.72C157.68 91.82 231.37 13.15 322.13 13.15C412.9 13.15 486.58 91.82 486.58 188.72C486.58 285.62 412.9 364.29 322.13 364.29Z" id="b9cdG5oIj1" fill="white" fill-opacity="1" filter="url(#shadow5156939)"></path></g><use xlink:href="#b1PgCc8Tv6" opacity="1" fill="#2d2d2d" fill-opacity="1"></use><g><use xlink:href="#b1PgCc8Tv6" opacity="1" fill-opacity="0" stroke="#000000" stroke-width="1" stroke-opacity="0"></use></g></g><g><g><filter id="shadow2725112" x="127.68" y="-16.85" width="388.9" height="411.14" filterUnits="userSpaceOnUse" primitiveUnits="userSpaceOnUse"><feFlood></feFlood><feComposite in2="SourceAlpha" operator="in"></feComposite><feGaussianBlur stdDeviation="3.16"></feGaussianBlur><feOffset dx="0" dy="0" result="afterOffset"></feOffset><feFlood flood-color="#000000" flood-opacity="0.5"></feFlood><feComposite in2="afterOffset" operator="in"></feComposite><feMorphology operator="dilate" radius="5"></feMorphology><feComposite in2="SourceAlpha" operator="out"></feComposite></filter><path d="M322.13 364.29C231.37 364.29 157.68 285.62 157.68 188.72C157.68 91.82 231.37 13.15 322.13 13.15C412.9 13.15 486.58 91.82 486.58 188.72C486.58 285.62 412.9 364.29 322.13 364.29Z" id="b1wxtuySdL" fill="white" fill-opacity="1" filter="url(#shadow2725112)"></path></g><use xlink:href="#a6HKvYnohG" opacity="1" fill="#000000" fill-opacity="0"></use><g><use xlink:href="#a6HKvYnohG" opacity="1" fill-opacity="0" stroke="#9642f5" stroke-width="10" stroke-opacity="1"></use></g></g><g><g><use xlink:href="#aOivAfJl9" opacity="1" fill-opacity="0" stroke="#000000" stroke-width="0" stroke-opacity="0"></use></g></g><g><g><filter id="shadow14640461" x="242.91" y="56.5" width="82.05" height="102.25" filterUnits="userSpaceOnUse" primitiveUnits="userSpaceOnUse"><feFlood></feFlood><feComposite in2="SourceAlpha" operator="in"></feComposite><feGaussianBlur stdDeviation="1"></feGaussianBlur><feOffset dx="1" dy="1" result="afterOffset"></feOffset><feFlood flood-color="#000000" flood-opacity="0.26"></feFlood><feComposite in2="afterOffset" operator="in"></feComposite><feMorphology operator="dilate" radius="1"></feMorphology><feComposite in2="SourceAlpha" operator="out"></feComposite></filter><path d="M276.51 148.75L276.51 98.83L292.74 98.83L292.74 148.75L276.51 148.75ZM305.89 65.54L306.35 65.6L306.8 65.67L307.25 65.76L307.69 65.88L308.12 66.01L308.54 66.16L308.95 66.33L309.35 66.52L309.75 66.72L310.13 66.94L310.5 67.18L310.86 67.43L311.21 67.7L311.55 67.98L311.87 68.28L312.18 68.59L312.48 68.91L312.76 69.25L313.03 69.59L313.28 69.95L313.51 70.33L313.73 70.71L313.94 71.1L314.12 71.51L314.29 71.92L314.44 72.34L314.58 72.77L314.69 73.21L314.78 73.65L314.86 74.11L314.91 74.56L314.94 75.03L314.95 75.5L314.95 88.83L314.94 89.3L314.91 89.77L314.86 90.23L314.78 90.68L314.69 91.13L314.58 91.56L314.44 91.99L314.29 92.42L314.12 92.83L313.94 93.23L313.73 93.62L313.51 94.01L313.28 94.38L313.03 94.74L312.76 95.09L312.48 95.42L312.18 95.75L311.87 96.06L311.55 96.35L311.21 96.64L310.86 96.9L310.5 97.16L310.13 97.39L309.75 97.61L309.35 97.82L308.95 98L308.54 98.17L308.12 98.32L307.69 98.46L307.25 98.57L306.8 98.66L306.35 98.74L305.89 98.79L305.43 98.82L304.95 98.83L261.91 98.83L261.44 98.82L260.97 98.79L260.51 98.74L260.06 98.66L259.61 98.57L259.18 98.46L258.75 98.32L258.32 98.17L257.91 98L257.51 97.82L257.12 97.61L256.73 97.39L256.36 97.16L256 96.9L255.65 96.64L255.32 96.35L254.99 96.06L254.68 95.75L254.39 95.42L254.1 95.09L253.84 94.74L253.58 94.38L253.35 94.01L253.13 93.62L252.92 93.23L252.74 92.83L252.57 92.42L252.42 91.99L252.28 91.56L252.17 91.13L252.08 90.68L252 90.23L251.95 89.77L251.92 89.3L251.91 88.83L251.91 75.5L251.92 75.03L251.95 74.56L252 74.11L252.08 73.65L252.17 73.21L252.28 72.77L252.42 72.34L252.57 71.92L252.74 71.51L252.92 71.1L253.13 70.71L253.35 70.33L253.58 69.95L253.84 69.59L254.1 69.25L254.39 68.91L254.68 68.59L254.99 68.28L255.32 67.98L255.65 67.7L256 67.43L256.36 67.18L256.73 66.94L257.12 66.72L257.51 66.52L257.91 66.33L258.32 66.16L258.75 66.01L259.18 65.88L259.61 65.76L260.06 65.67L260.51 65.6L260.97 65.54L261.44 65.51L261.91 65.5L304.95 65.5L305.43 65.51L305.89 65.54Z" id="dSU1dOpHF" fill="white" fill-opacity="1" filter="url(#shadow14640461)"></path></g><use xlink:href="#c7fJXlIUWC" opacity="1" fill="#adadad" fill-opacity="1"></use></g><g><g><filter id="shadow4440771" x="263.05" y="139.75" width="44.16" height="71.35" filterUnits="userSpaceOnUse" primitiveUnits="userSpaceOnUse"><feFlood></feFlood><feComposite in2="SourceAlpha" operator="in"></feComposite><feGaussianBlur stdDeviation="1"></feGaussianBlur><feOffset dx="1" dy="1" result="afterOffset"></feOffset><feFlood flood-color="#000000" flood-opacity="0.29"></feFlood><feComposite in2="afterOffset" operator="in"></feComposite><feMorphology operator="dilate" radius="1"></feMorphology><feComposite in2="SourceAlpha" operator="out"></feComposite></filter><path d="M292.39 148.75C295.05 148.75 297.21 150.9 297.21 153.57C297.21 163.07 297.21 186.77 297.21 196.28C297.21 198.94 295.05 201.1 292.39 201.1C288.32 201.1 280.93 201.1 276.87 201.1C274.2 201.1 272.05 198.94 272.05 196.28C272.05 186.77 272.05 163.07 272.05 153.57C272.05 150.9 274.2 148.75 276.87 148.75C280.93 148.75 288.32 148.75 292.39 148.75Z" id="b2bWfswpMV" fill="white" fill-opacity="1" filter="url(#shadow4440771)"></path></g><use xlink:href="#d4CmxsZY6" opacity="1" fill="#9c6040" fill-opacity="1"></use></g><g><g><filter id="shadow16275386" x="308.1" y="139.75" width="44.16" height="71.35" filterUnits="userSpaceOnUse" primitiveUnits="userSpaceOnUse"><feFlood></feFlood><feComposite in2="SourceAlpha" operator="in"></feComposite><feGaussianBlur stdDeviation="1"></feGaussianBlur><feOffset dx="1" dy="1" result="afterOffset"></feOffset><feFlood flood-color="#000000" flood-opacity="0.24"></feFlood><feComposite in2="afterOffset" operator="in"></feComposite><feMorphology operator="dilate" radius="1"></feMorphology><feComposite in2="SourceAlpha" operator="out"></feComposite></filter><path d="M337.44 148.75C340.1 148.75 342.26 150.9 342.26 153.57C342.26 163.07 342.26 186.77 342.26 196.28C342.26 198.94 340.1 201.1 337.44 201.1C333.37 201.1 325.98 201.1 321.92 201.1C319.25 201.1 317.1 198.94 317.1 196.28C317.1 186.77 317.1 163.07 317.1 153.57C317.1 150.9 319.25 148.75 321.92 148.75C325.98 148.75 333.37 148.75 337.44 148.75Z" id="cq8ZKvNrU" fill="white" fill-opacity="1" filter="url(#shadow16275386)"></path></g><use xlink:href="#b3HIFIFZw1" opacity="1" fill="#404f9c" fill-opacity="1"></use></g><g><use xlink:href="#d2nxilEDNC" opacity="1" fill="#ffffff" fill-opacity="0.29"></use></g><g><use xlink:href="#a10jxLPFEJ" opacity="1" fill="#fcfcfc" fill-opacity="0.11"></use></g><g><use xlink:href="#dwwWfqOuz" opacity="1" fill="#fcfcfc" fill-opacity="0.11"></use></g><g><g><filter id="shadow14806621" x="312.56" y="90.31" width="35.23" height="68.43" filterUnits="userSpaceOnUse" primitiveUnits="userSpaceOnUse"><feFlood></feFlood><feComposite in2="SourceAlpha" operator="in"></feComposite><feGaussianBlur stdDeviation="1"></feGaussianBlur><feOffset dx="1" dy="1" result="afterOffset"></feOffset><feFlood flood-color="#000000" flood-opacity="0.22"></feFlood><feComposite in2="afterOffset" operator="in"></feComposite><feMorphology operator="dilate" radius="1"></feMorphology><feComposite in2="SourceAlpha" operator="out"></feComposite></filter><path d="M321.56 148.75L321.56 99.31L337.79 99.31L337.79 148.75L321.56 148.75Z" id="dbxE4yZCG" fill="white" fill-opacity="1" filter="url(#shadow14806621)"></path></g><use xlink:href="#a2Jre4Sam" opacity="1" fill="#adadad" fill-opacity="1"></use></g><g><use xlink:href="#dQu58xzW1" opacity="1" fill="#ffffff" fill-opacity="0.29"></use></g><g><g><filter id="shadow6927203" x="346.98" y="139.75" width="35.23" height="70.22" filterUnits="userSpaceOnUse" primitiveUnits="userSpaceOnUse"><feFlood></feFlood><feComposite in2="SourceAlpha" operator="in"></feComposite><feGaussianBlur stdDeviation="1"></feGaussianBlur><feOffset dx="1" dy="1" result="afterOffset"></feOffset><feFlood flood-color="#000000" flood-opacity="0.24"></feFlood><feComposite in2="afterOffset" operator="in"></feComposite><feMorphology operator="dilate" radius="1"></feMorphology><feComposite in2="SourceAlpha" operator="out"></feComposite></filter><path d="M367.39 148.75C370.05 148.75 372.21 150.9 372.21 153.57C372.21 162.85 372.21 185.87 372.21 195.15C372.21 197.81 370.05 199.96 367.39 199.96C365.11 199.96 363.08 199.96 360.8 199.96C358.13 199.96 355.98 197.81 355.98 195.15C355.98 185.87 355.98 162.85 355.98 153.57C355.98 150.9 358.13 148.75 360.8 148.75C363.08 148.75 365.11 148.75 367.39 148.75Z" id="a2XuYhhrag" fill="white" fill-opacity="1" filter="url(#shadow6927203)"></path></g><use xlink:href="#g713EsA2D" opacity="1" fill="#9c8040" fill-opacity="1"></use></g><g><use xlink:href="#b32Qjb0BZ" opacity="1" fill="#ffffff" fill-opacity="0.08"></use></g><g><g><filter id="shadow10419543" x="343.59" y="67.59" width="41.32" height="91.16" filterUnits="userSpaceOnUse" primitiveUnits="userSpaceOnUse"><feFlood></feFlood><feComposite in2="SourceAlpha" operator="in"></feComposite><feGaussianBlur stdDeviation="1"></feGaussianBlur><feOffset dx="1" dy="1" result="afterOffset"></feOffset><feFlood flood-color="#000000" flood-opacity="0.24"></feFlood><feComposite in2="afterOffset" operator="in"></feComposite><feMorphology operator="dilate" radius="1"></feMorphology><feComposite in2="SourceAlpha" operator="out"></feComposite></filter><path d="M366.31 76.91L367.51 77.31L368.65 77.85L369.73 78.51L370.73 79.31L371.64 80.21L372.46 81.22L373.17 82.33L373.77 83.52L374.26 84.79L374.61 86.13L374.83 87.52L374.91 88.96L374.83 90.41L374.61 91.8L374.26 93.14L373.77 94.41L373.17 95.6L372.46 96.7L371.64 97.72L370.73 98.62L369.73 99.41L368.65 100.08L368.13 100.33L368.13 148.75L359.37 148.75L359.37 100.33L358.84 100.08L357.77 99.41L356.77 98.62L355.86 97.72L355.04 96.7L354.33 95.6L353.72 94.41L353.24 93.14L352.88 91.8L352.66 90.41L352.59 88.96L352.66 87.52L352.88 86.13L353.24 84.79L353.72 83.52L354.33 82.33L355.04 81.22L355.86 80.21L356.77 79.31L357.77 78.51L358.84 77.85L359.99 77.31L361.19 76.91L362.45 76.67L363.75 76.59L365.05 76.67L366.31 76.91Z" id="e4Nvd54XL4" fill="white" fill-opacity="1" filter="url(#shadow10419543)"></path></g><use xlink:href="#bJeKriqO0" opacity="1" fill="#adadad" fill-opacity="1"></use></g><g><use xlink:href="#ecUnNaluR" opacity="1" fill="#ffffff" fill-opacity="0.29"></use></g><g><g><filter id="shadow10435762" x="258.67" y="210.67" width="124.52" height="114.83" filterUnits="userSpaceOnUse" primitiveUnits="userSpaceOnUse"><feFlood></feFlood><feComposite in2="SourceAlpha" operator="in"></feComposite><feGaussianBlur stdDeviation="1"></feGaussianBlur><feOffset dx="1" dy="1" result="afterOffset"></feOffset><feFlood flood-color="#000000" flood-opacity="0.25"></feFlood><feComposite in2="afterOffset" operator="in"></feComposite><feMorphology operator="dilate" radius="1"></feMorphology><feComposite in2="SourceAlpha" operator="out"></feComposite></filter><path d="M368.96 219.7L369.15 219.73L369.34 219.77L369.53 219.81L369.71 219.86L369.89 219.91L370.07 219.98L370.24 220.05L370.42 220.12L370.58 220.21L370.75 220.3L370.91 220.39L371.06 220.49L371.21 220.6L371.36 220.71L371.5 220.83L371.64 220.95L371.78 221.08L371.9 221.21L372.03 221.35L372.15 221.49L372.26 221.64L372.36 221.79L372.47 221.95L372.56 222.11L372.65 222.27L372.73 222.44L372.81 222.61L372.88 222.79L372.94 222.96L373 223.15L373.05 223.33L373.09 223.52L373.12 223.71L373.15 223.9L373.17 224.09L373.18 224.29L373.19 224.49L373.19 267.2L373.18 267.4L373.17 267.6L373.15 267.79L373.12 267.99L373.09 268.18L373.05 268.36L373 268.55L372.94 268.73L372.88 268.91L372.81 269.08L372.73 269.25L372.65 269.42L372.56 269.58L372.47 269.74L372.36 269.9L372.26 270.05L372.15 270.2L372.03 270.34L371.9 270.48L371.78 270.61L371.64 270.74L371.5 270.86L371.36 270.98L371.21 271.09L371.06 271.2L370.91 271.3L370.75 271.4L370.58 271.49L370.42 271.57L370.24 271.64L370.07 271.71L369.89 271.78L369.71 271.83L369.53 271.88L369.34 271.93L369.15 271.96L368.96 271.99L368.76 272.01L368.57 272.02L368.37 272.02L292.83 272.02L292.83 310.68L292.82 310.95L292.8 311.22L292.76 311.49L292.71 311.75L292.65 312L292.57 312.25L292.48 312.5L292.37 312.73L292.26 312.96L292.13 313.19L291.99 313.4L291.84 313.61L291.68 313.81L291.51 314L291.33 314.18L291.14 314.35L290.94 314.51L290.73 314.66L290.52 314.8L290.29 314.93L290.06 315.04L289.83 315.15L289.58 315.24L289.33 315.32L289.08 315.38L288.82 315.43L288.55 315.47L288.28 315.49L288.01 315.5L272.49 315.5L272.21 315.49L271.94 315.47L271.68 315.43L271.42 315.38L271.16 315.32L270.91 315.24L270.67 315.15L270.43 315.04L270.2 314.93L269.98 314.8L269.77 314.66L269.56 314.51L269.36 314.35L269.17 314.18L268.99 314L268.82 313.81L268.66 313.61L268.51 313.4L268.37 313.19L268.24 312.96L268.13 312.73L268.02 312.5L267.93 312.25L267.85 312L267.79 311.75L267.74 311.49L267.7 311.22L267.68 310.95L267.67 310.68L267.67 267.96L267.68 267.69L267.68 267.6L267.67 267.4L267.67 267.2L267.67 224.49L267.67 224.29L267.68 224.09L267.7 223.9L267.73 223.71L267.77 223.52L267.81 223.33L267.86 223.15L267.91 222.96L267.98 222.79L268.05 222.61L268.12 222.44L268.21 222.27L268.3 222.11L268.39 221.95L268.49 221.79L268.6 221.64L268.71 221.49L268.83 221.35L268.95 221.21L269.08 221.08L269.21 220.95L269.35 220.83L269.49 220.71L269.64 220.6L269.79 220.49L269.95 220.39L270.11 220.3L270.27 220.21L270.44 220.12L270.61 220.05L270.79 219.98L270.96 219.91L271.15 219.86L271.33 219.81L271.52 219.77L271.71 219.73L271.9 219.7L272.09 219.68L272.29 219.67L272.49 219.67L368.37 219.67L368.57 219.67L368.76 219.68L368.76 219.68L368.96 219.7Z" id="d36oLJc2NY" fill="white" fill-opacity="1" filter="url(#shadow10435762)"></path></g><use xlink:href="#bHRHJYKba" opacity="1" fill="#9c4040" fill-opacity="1"></use></g><g><g><filter id="shadow12507489" x="364.19" y="220.41" width="33.36" height="51.87" filterUnits="userSpaceOnUse" primitiveUnits="userSpaceOnUse"><feFlood></feFlood><feComposite in2="SourceAlpha" operator="in"></feComposite><feGaussianBlur stdDeviation="1"></feGaussianBlur><feOffset dx="1" dy="1" result="afterOffset"></feOffset><feFlood flood-color="#000000" flood-opacity="0.16"></feFlood><feComposite in2="afterOffset" operator="in"></feComposite><feMorphology operator="dilate" radius="1"></feMorphology><feComposite in2="SourceAlpha" operator="out"></feComposite></filter><path d="M383.47 229.47L383.83 229.54L384.18 229.63L384.52 229.75L384.85 229.9L385.16 230.07L385.46 230.26L385.74 230.47L386.01 230.7L386.26 230.95L386.49 231.21L386.7 231.5L386.89 231.8L387.06 232.11L387.2 232.44L387.32 232.77L387.42 233.12L387.49 233.48L387.53 233.85L387.55 234.23L387.55 257.46L387.53 257.84L387.49 258.21L387.42 258.57L387.32 258.92L387.2 259.26L387.06 259.58L386.89 259.9L386.7 260.19L386.49 260.48L386.26 260.74L386.01 260.99L385.74 261.22L385.46 261.43L385.16 261.62L384.85 261.79L384.52 261.94L384.18 262.06L383.83 262.16L383.47 262.23L383.1 262.27L382.73 262.28L373.19 262.28L373.19 229.41L382.73 229.41L383.1 229.42L383.47 229.47Z" id="c1mxFk0Isa" fill="white" fill-opacity="1" filter="url(#shadow12507489)"></path></g><use xlink:href="#d1y52tuOoN" opacity="1" fill="#adadad" fill-opacity="1"></use></g><g><use xlink:href="#c5vIuUAKkA" opacity="1" fill="#adadad" fill-opacity="1"></use></g><g><use xlink:href="#iZU3wq7Zu" opacity="1" fill="#fdfdfd" fill-opacity="0.11"></use></g><g><use xlink:href="#b1XbjYD4ea" opacity="1" fill="#fffdfd" fill-opacity="0.1"></use></g></g></g></svg>