<?xml version="1.0" encoding="UTF-8" standalone="no"?>
<!DOCTYPE svg PUBLIC "-//W3C//DTD SVG 1.1//EN" "http://www.w3.org/Graphics/SVG/1.1/DTD/svg11.dtd">
<svg version="1.1" xmlns="http://www.w3.org/2000/svg" xmlns:xlink="http://www.w3.org/1999/xlink" preserveAspectRatio="xMidYMid meet" viewBox="0 0 175 272" width="175" height="272"><defs><path d="M34.82 90.53L34.82 40.62L51.05 40.62L51.05 90.53L34.82 90.53ZM64.2 7.33L64.66 7.38L65.11 7.46L65.55 7.55L65.99 7.66L66.42 7.8L66.84 7.95L67.26 8.12L67.66 8.3L68.05 8.51L68.43 8.73L68.81 8.96L69.17 9.22L69.52 9.48L69.85 9.77L70.18 10.06L70.49 10.37L70.78 10.7L71.06 11.03L71.33 11.38L71.58 11.74L71.82 12.11L72.04 12.5L72.25 12.89L72.43 13.29L72.6 13.7L72.75 14.13L72.88 14.56L73 14.99L73.09 15.44L73.16 15.89L73.22 16.35L73.25 16.82L73.26 17.29L73.26 30.62L73.25 31.09L73.22 31.56L73.16 32.01L73.09 32.47L73 32.91L72.88 33.35L72.75 33.78L72.6 34.2L72.43 34.61L72.25 35.02L72.04 35.41L71.82 35.79L71.58 36.16L71.33 36.53L71.06 36.87L70.78 37.21L70.49 37.53L70.18 37.84L69.85 38.14L69.52 38.42L69.17 38.69L68.81 38.94L68.43 39.18L68.05 39.4L67.66 39.6L67.26 39.79L66.84 39.96L66.42 40.11L65.99 40.24L65.55 40.36L65.11 40.45L64.66 40.52L64.2 40.58L63.73 40.61L63.26 40.62L20.21 40.62L19.74 40.61L19.28 40.58L18.82 40.52L18.37 40.45L17.92 40.36L17.48 40.24L17.05 40.11L16.63 39.96L16.22 39.79L15.82 39.6L15.42 39.4L15.04 39.18L14.67 38.94L14.31 38.69L13.96 38.42L13.62 38.14L13.3 37.84L12.99 37.53L12.69 37.21L12.41 36.87L12.14 36.53L11.89 36.16L11.65 35.79L11.43 35.41L11.23 35.02L11.04 34.61L10.87 34.2L10.72 33.78L10.59 33.35L10.48 32.91L10.38 32.47L10.31 32.01L10.26 31.56L10.22 31.09L10.21 30.62L10.21 17.29L10.22 16.82L10.26 16.35L10.31 15.89L10.38 15.44L10.48 14.99L10.59 14.56L10.72 14.13L10.87 13.7L11.04 13.29L11.23 12.89L11.43 12.5L11.65 12.11L11.89 11.74L12.14 11.38L12.41 11.03L12.69 10.7L12.99 10.37L13.3 10.06L13.62 9.77L13.96 9.48L14.31 9.22L14.67 8.96L15.04 8.73L15.42 8.51L15.82 8.3L16.22 8.12L16.63 7.95L17.05 7.8L17.48 7.66L17.92 7.55L18.37 7.46L18.82 7.38L19.28 7.33L19.74 7.3L20.21 7.29L63.26 7.29L63.73 7.3L64.2 7.33Z" id="a2Cxa8C3ja"></path><path d="M50.7 90.53C53.36 90.53 55.52 92.69 55.52 95.35C55.52 104.86 55.52 128.56 55.52 138.07C55.52 140.73 53.36 142.89 50.7 142.89C46.63 142.89 39.24 142.89 35.17 142.89C32.51 142.89 30.35 140.73 30.35 138.07C30.35 128.56 30.35 104.86 30.35 95.35C30.35 92.69 32.51 90.53 35.17 90.53C39.24 90.53 46.63 90.53 50.7 90.53Z" id="b5kshAgoaO"></path><path d="M95.75 90.53C98.41 90.53 100.56 92.69 100.56 95.35C100.56 104.86 100.56 128.56 100.56 138.07C100.56 140.73 98.41 142.89 95.75 142.89C91.68 142.89 84.29 142.89 80.22 142.89C77.56 142.89 75.4 140.73 75.4 138.07C75.4 128.56 75.4 104.86 75.4 95.35C75.4 92.69 77.56 90.53 80.22 90.53C84.29 90.53 91.68 90.53 95.75 90.53Z" id="b1a6VY2ibQ"></path><path d="M34.82 90.53L34.82 40.62L41.74 40.62L41.74 90.53L34.82 90.53ZM20.21 40.62L19.74 40.61L19.28 40.58L18.82 40.52L18.37 40.45L17.92 40.36L17.48 40.24L17.05 40.11L16.63 39.96L16.22 39.79L15.82 39.6L15.42 39.4L15.04 39.18L14.67 38.94L14.31 38.69L13.96 38.42L13.62 38.14L13.3 37.84L12.99 37.53L12.69 37.21L12.41 36.87L12.14 36.53L11.89 36.16L11.65 35.79L11.43 35.41L11.23 35.02L11.04 34.61L10.87 34.2L10.72 33.78L10.59 33.35L10.48 32.91L10.38 32.47L10.31 32.01L10.26 31.56L10.22 31.09L10.21 30.62L10.21 17.29L10.22 16.82L10.26 16.35L10.31 15.89L10.38 15.44L10.48 14.99L10.59 14.56L10.72 14.13L10.87 13.7L11.04 13.29L11.23 12.89L11.43 12.5L11.65 12.11L11.89 11.74L12.14 11.38L12.41 11.03L12.69 10.7L12.99 10.37L13.3 10.06L13.62 9.77L13.96 9.48L14.31 9.22L14.67 8.96L15.04 8.73L15.42 8.51L15.82 8.3L16.22 8.12L16.63 7.95L17.05 7.8L17.48 7.66L17.92 7.55L18.37 7.46L18.82 7.38L19.28 7.33L19.74 7.3L20.21 7.29L41.74 7.29L41.74 40.62L20.21 40.62Z" id="bA4aVbViM"></path><path d="M35.17 142.89L34.9 142.88L34.63 142.86L34.37 142.82L34.1 142.77L33.85 142.7L33.6 142.62L33.36 142.53L33.12 142.43L32.89 142.31L32.67 142.19L32.45 142.05L32.25 141.9L32.05 141.74L31.86 141.56L31.68 141.38L31.51 141.19L31.34 141L31.19 140.79L31.06 140.57L30.93 140.35L30.81 140.12L30.71 139.88L30.62 139.64L30.54 139.39L30.47 139.14L30.42 138.88L30.38 138.61L30.36 138.34L30.35 138.07L30.35 95.35L30.36 95.08L30.38 94.81L30.42 94.54L30.47 94.28L30.54 94.03L30.62 93.78L30.71 93.54L30.81 93.3L30.93 93.07L31.06 92.85L31.19 92.63L31.34 92.42L31.51 92.23L31.68 92.04L31.86 91.85L32.05 91.68L32.25 91.52L32.45 91.37L32.67 91.23L32.89 91.11L33.12 90.99L33.36 90.89L33.6 90.79L33.85 90.72L34.1 90.65L34.37 90.6L34.63 90.56L34.9 90.54L35.17 90.53L41.74 90.53L41.74 142.89L35.17 142.89Z" id="dh4cfAely"></path><path d="M80.22 142.89L79.95 142.88L79.68 142.86L79.41 142.82L79.15 142.77L78.9 142.7L78.65 142.62L78.41 142.53L78.17 142.43L77.94 142.31L77.72 142.19L77.5 142.05L77.29 141.9L77.1 141.74L76.91 141.56L76.73 141.38L76.55 141.19L76.39 141L76.24 140.79L76.1 140.57L75.98 140.35L75.86 140.12L75.76 139.88L75.66 139.64L75.59 139.39L75.52 139.14L75.47 138.88L75.43 138.61L75.41 138.34L75.4 138.07L75.4 95.35L75.41 95.08L75.43 94.81L75.47 94.54L75.52 94.28L75.59 94.03L75.66 93.78L75.76 93.54L75.86 93.3L75.98 93.07L76.1 92.85L76.24 92.63L76.39 92.42L76.55 92.23L76.73 92.04L76.91 91.85L77.1 91.68L77.29 91.52L77.5 91.37L77.72 91.23L77.94 91.11L78.17 90.99L78.41 90.89L78.65 90.79L78.9 90.72L79.15 90.65L79.41 90.6L79.68 90.56L79.95 90.54L80.22 90.53L86.79 90.53L86.79 142.89L80.22 142.89Z" id="g8iSePMZSp"></path><path d="M79.87 90.53L79.87 41.1L96.1 41.1L96.1 90.53L79.87 90.53Z" id="a3ZHudnixk"></path><path d="M79.87 90.53L79.87 41.1L86.79 41.1L86.79 90.53L79.87 90.53ZM86.79 52.38L86.79 41.1L96.1 41.1L96.1 52.38L86.79 52.38Z" id="a1YfJTtFw4"></path><path d="M125.7 90.53C128.36 90.53 130.52 92.69 130.52 95.35C130.52 104.63 130.52 127.65 130.52 136.93C130.52 139.59 128.36 141.75 125.7 141.75C123.41 141.75 121.38 141.75 119.1 141.75C116.44 141.75 114.28 139.59 114.28 136.93C114.28 127.65 114.28 104.63 114.28 95.35C114.28 92.69 116.44 90.53 119.1 90.53C121.38 90.53 123.41 90.53 125.7 90.53Z" id="cNSrYSD7I"></path><path d="M119.1 141.75L118.79 141.74L118.47 141.71L118.17 141.66L117.87 141.59L117.58 141.5L117.3 141.4L117.02 141.28L116.76 141.14L116.5 140.99L116.26 140.82L116.02 140.64L115.8 140.44L115.59 140.23L115.39 140.01L115.21 139.78L115.04 139.53L114.89 139.28L114.75 139.01L114.63 138.74L114.53 138.45L114.44 138.16L114.37 137.86L114.32 137.56L114.29 137.25L114.28 136.93L114.28 95.35L114.29 95.03L114.32 94.72L114.37 94.42L114.44 94.12L114.53 93.83L114.63 93.55L114.75 93.27L114.89 93.01L115.04 92.75L115.21 92.51L115.39 92.27L115.59 92.05L115.8 91.84L116.02 91.64L116.26 91.46L116.5 91.29L116.76 91.14L117.02 91L117.3 90.88L117.58 90.78L117.87 90.69L118.17 90.62L118.47 90.57L118.79 90.54L119.1 90.53L121.07 90.53L121.07 141.75L119.1 141.75Z" id="e3Ha8xHgBr"></path><path d="M124.61 18.7L125.82 19.09L126.96 19.63L128.04 20.3L129.03 21.09L129.95 22L130.76 23.01L131.48 24.12L132.08 25.31L132.56 26.58L132.92 27.91L133.14 29.31L133.22 30.75L133.14 32.19L132.92 33.59L132.56 34.92L132.08 36.19L131.48 37.38L130.76 38.49L129.95 39.5L129.03 40.41L128.04 41.2L126.96 41.87L126.43 42.12L126.43 90.53L117.68 90.53L117.68 42.12L117.15 41.87L116.07 41.2L115.08 40.41L114.16 39.5L113.35 38.49L112.63 37.38L112.03 36.19L111.55 34.92L111.19 33.59L110.97 32.19L110.89 30.75L110.97 29.31L111.19 27.91L111.55 26.58L112.03 25.31L112.63 24.12L113.35 23.01L114.16 22L115.08 21.09L116.07 20.3L117.15 19.63L118.29 19.09L119.5 18.7L120.75 18.46L122.06 18.37L123.36 18.46L124.61 18.7Z" id="a1fKMWwpxX"></path><path d="M117.68 42.28L116.8 41.87L115.73 41.2L114.73 40.41L113.82 39.5L113 38.49L112.29 37.38L111.69 36.19L111.2 34.92L110.85 33.59L110.63 32.19L110.55 30.75L110.63 29.31L110.85 27.91L111.2 26.58L111.69 25.31L112.29 24.12L113 23.01L113.82 22L114.73 21.09L115.73 20.3L116.8 19.63L117.95 19.09L119.15 18.7L120.41 18.46L121.71 18.37L122.06 18.39L122.06 90.53L117.68 90.53L117.68 42.28Z" id="c3E1sLlhZh"></path><path d="M127.07 161.47L127.26 161.49L127.46 161.52L127.65 161.55L127.83 161.59L128.02 161.64L128.2 161.7L128.38 161.76L128.55 161.83L128.72 161.91L128.89 161.99L129.05 162.08L129.21 162.18L129.37 162.28L129.52 162.38L129.67 162.5L129.81 162.61L129.95 162.74L130.08 162.87L130.21 163L130.33 163.14L130.45 163.28L130.56 163.43L130.67 163.58L130.77 163.74L130.87 163.9L130.96 164.06L131.04 164.23L131.12 164.4L131.19 164.57L131.25 164.75L131.31 164.93L131.35 165.12L131.4 165.3L131.43 165.49L131.46 165.68L131.48 165.88L131.49 166.08L131.49 166.27L131.49 208.99L131.49 209.19L131.48 209.39L131.46 209.58L131.43 209.77L131.4 209.96L131.35 210.15L131.31 210.33L131.25 210.51L131.19 210.69L131.12 210.87L131.04 211.04L130.96 211.2L130.87 211.37L130.77 211.53L130.67 211.68L130.56 211.84L130.45 211.98L130.33 212.13L130.21 212.26L130.08 212.4L129.95 212.53L129.81 212.65L129.67 212.77L129.52 212.88L129.37 212.99L129.21 213.09L129.05 213.18L128.89 213.27L128.72 213.35L128.55 213.43L128.38 213.5L128.2 213.56L128.02 213.62L127.83 213.67L127.65 213.71L127.46 213.75L127.26 213.77L127.07 213.79L126.87 213.81L126.68 213.81L51.14 213.81L51.14 252.47L51.13 252.74L51.11 253.01L51.07 253.27L51.02 253.53L50.95 253.79L50.87 254.04L50.78 254.28L50.68 254.52L50.56 254.75L50.44 254.97L50.3 255.19L50.15 255.39L49.99 255.59L49.81 255.78L49.63 255.96L49.44 256.13L49.25 256.29L49.04 256.44L48.82 256.58L48.6 256.71L48.37 256.83L48.13 256.93L47.89 257.02L47.64 257.1L47.39 257.17L47.13 257.22L46.86 257.26L46.59 257.28L46.32 257.29L30.79 257.29L30.52 257.28L30.25 257.26L29.99 257.22L29.73 257.17L29.47 257.1L29.22 257.02L28.98 256.93L28.74 256.83L28.51 256.71L28.29 256.58L28.07 256.44L27.87 256.29L27.67 256.13L27.48 255.96L27.3 255.78L27.13 255.59L26.97 255.39L26.82 255.19L26.68 254.97L26.55 254.75L26.43 254.52L26.33 254.28L26.24 254.04L26.16 253.79L26.09 253.53L26.04 253.27L26.01 253.01L25.98 252.74L25.97 252.47L25.97 209.75L25.98 209.48L25.99 209.38L25.98 209.19L25.97 208.99L25.97 166.27L25.98 166.08L25.99 165.88L26.01 165.68L26.04 165.49L26.07 165.3L26.12 165.12L26.16 164.93L26.22 164.75L26.28 164.57L26.35 164.4L26.43 164.23L26.51 164.06L26.6 163.9L26.7 163.74L26.8 163.58L26.9 163.43L27.02 163.28L27.14 163.14L27.26 163L27.39 162.87L27.52 162.74L27.66 162.61L27.8 162.5L27.95 162.38L28.1 162.28L28.26 162.18L28.42 162.08L28.58 161.99L28.75 161.91L28.92 161.83L29.09 161.76L29.27 161.7L29.45 161.64L29.64 161.59L29.82 161.55L30.01 161.52L30.2 161.49L30.4 161.47L30.6 161.46L30.79 161.45L126.68 161.45L126.87 161.46L127.07 161.47Z" id="c7Ltunu8gb"></path><path d="M141.78 171.25L142.14 171.32L142.49 171.42L142.83 171.54L143.15 171.68L143.47 171.85L143.76 172.04L144.05 172.25L144.31 172.48L144.56 172.73L144.79 173L145 173.28L145.19 173.58L145.36 173.9L145.51 174.22L145.63 174.56L145.73 174.91L145.8 175.27L145.84 175.64L145.85 176.01L145.85 199.25L145.84 199.63L145.8 199.99L145.73 200.35L145.63 200.7L145.51 201.04L145.36 201.37L145.19 201.68L145 201.98L144.79 202.26L144.56 202.53L144.31 202.78L144.05 203.01L143.76 203.22L143.47 203.41L143.15 203.58L142.83 203.72L142.49 203.85L142.14 203.94L141.78 204.01L141.41 204.05L141.03 204.07L131.49 204.07L131.49 171.2L141.03 171.2L141.41 171.21L141.78 171.25Z" id="a1aFnS1G"></path><path d="M146.02 184.18L162.55 184.18L162.55 191.08L146.02 191.08L146.02 184.18Z" id="b7Sc5tWcPn"></path><path d="M127.07 161.47L127.26 161.49L127.46 161.52L127.65 161.55L127.83 161.59L128.02 161.64L128.2 161.7L128.38 161.76L128.55 161.83L128.72 161.91L128.89 161.99L129.05 162.08L129.21 162.18L129.37 162.28L129.52 162.38L129.67 162.5L129.81 162.61L129.95 162.74L130.08 162.87L130.21 163L130.33 163.14L130.45 163.28L130.56 163.43L130.67 163.58L130.77 163.74L130.87 163.9L130.96 164.06L131.04 164.23L131.12 164.4L131.19 164.57L131.25 164.75L131.31 164.93L131.35 165.12L131.4 165.3L131.43 165.49L131.46 165.68L131.48 165.88L131.49 166.08L131.49 166.27L131.49 182.25L25.97 182.25L25.97 166.27L25.98 166.08L25.99 165.88L26.01 165.68L26.04 165.49L26.07 165.3L26.12 165.12L26.16 164.93L26.22 164.75L26.28 164.57L26.35 164.4L26.43 164.23L26.51 164.06L26.6 163.9L26.7 163.74L26.8 163.58L26.9 163.43L27.02 163.28L27.14 163.14L27.26 163L27.39 162.87L27.52 162.74L27.66 162.61L27.8 162.5L27.95 162.38L28.1 162.28L28.26 162.18L28.42 162.08L28.58 161.99L28.75 161.91L28.92 161.83L29.09 161.76L29.27 161.7L29.45 161.64L29.64 161.59L29.82 161.55L30.01 161.52L30.2 161.49L30.4 161.47L30.6 161.46L30.79 161.45L126.68 161.45L126.87 161.46L127.07 161.47Z" id="alnHwxX2h"></path><path d="M141.78 171.25L142.14 171.32L142.49 171.42L142.83 171.54L143.15 171.68L143.47 171.85L143.76 172.04L144.05 172.25L144.31 172.48L144.56 172.73L144.79 173L145 173.28L145.19 173.58L145.36 173.9L145.51 174.22L145.63 174.56L145.73 174.91L145.8 175.27L145.84 175.64L145.85 176.01L145.85 182.25L131.49 182.25L131.49 171.2L141.03 171.2L141.41 171.21L141.78 171.25Z" id="a1asKo06Z1"></path><path d="M151.36 54.87C151.77 54.87 152.1 55.2 152.1 55.61C152.1 57.05 152.1 60.62 152.1 62.06C152.1 62.46 151.77 62.79 151.36 62.79C150.23 62.79 147.57 62.79 146.44 62.79C146.03 62.79 145.7 62.46 145.7 62.06C145.7 60.62 145.7 57.05 145.7 55.61C145.7 55.2 146.03 54.87 146.44 54.87C147.57 54.87 150.23 54.87 151.36 54.87Z" id="j4HJhfQsdV"></path><path d="M162.28 54.66C162.69 54.66 163.02 54.99 163.02 55.4C163.02 56.84 163.02 60.41 163.02 61.85C163.02 62.25 162.69 62.58 162.28 62.58C161.14 62.58 158.48 62.58 157.35 62.58C156.94 62.58 156.61 62.25 156.61 61.85C156.61 60.41 156.61 56.84 156.61 55.4C156.61 54.99 156.94 54.66 157.35 54.66C158.48 54.66 161.14 54.66 162.28 54.66Z" id="bAM5odAfD"></path><path d="M165.18 58.62C167.45 58.62 169.29 60.46 169.29 62.73C169.29 69.36 169.29 85.17 169.29 91.81C169.29 94.08 167.45 95.91 165.18 95.91C160 95.91 148.57 95.91 143.39 95.91C141.12 95.91 139.29 94.08 139.29 91.81C139.29 85.17 139.29 69.36 139.29 62.73C139.29 60.46 141.12 58.62 143.39 58.62C148.57 58.62 160 58.62 165.18 58.62Z" id="c41tIsfhSj"></path><path d="M165.72 58.66L165.98 58.7L166.23 58.76L166.48 58.83L166.72 58.92L166.96 59.02L167.18 59.14L167.4 59.27L167.61 59.41L167.81 59.57L167.99 59.74L168.17 59.92L168.34 60.1L168.49 60.3L168.64 60.51L168.77 60.73L168.89 60.95L168.99 61.19L169.08 61.43L169.15 61.68L169.21 61.93L169.25 62.19L169.28 62.46L169.29 62.73L169.29 72.15L139.29 72.15L139.29 62.73L139.29 62.46L139.32 62.19L139.36 61.93L139.42 61.68L139.5 61.43L139.58 61.19L139.69 60.95L139.8 60.73L139.93 60.51L140.08 60.3L140.23 60.1L140.4 59.92L140.58 59.74L140.77 59.57L140.97 59.41L141.17 59.27L141.39 59.14L141.62 59.02L141.85 58.92L142.09 58.83L142.34 58.76L142.59 58.7L142.85 58.66L143.12 58.63L143.39 58.62L165.18 58.62L165.45 58.63L165.72 58.66Z" id="b1dTEg7MS"></path><path d="M152.4 54.45C152.98 54.45 153.45 54.92 153.45 55.5C153.45 55.71 153.45 55.29 153.45 55.5C153.45 56.08 152.98 56.55 152.4 56.55C150.79 56.55 147.01 56.55 145.4 56.55C144.82 56.55 144.35 56.08 144.35 55.5C144.35 55.29 144.35 55.71 144.35 55.5C144.35 54.92 144.82 54.45 145.4 54.45C147.01 54.45 150.79 54.45 152.4 54.45Z" id="byFbQyxev"></path><path d="M142.59 95.88L142.34 95.83L142.09 95.75L141.85 95.66L141.62 95.56L141.39 95.44L141.17 95.31L140.97 95.17L140.77 95.01L140.58 94.85L140.4 94.67L140.23 94.48L140.08 94.28L139.93 94.07L139.8 93.86L139.69 93.63L139.58 93.4L139.5 93.16L139.42 92.91L139.36 92.65L139.32 92.39L139.29 92.13L139.29 91.86L139.29 62.77L139.29 62.5L139.32 62.24L139.36 61.98L139.42 61.73L139.5 61.48L139.58 61.24L139.69 61L139.8 60.78L139.93 60.56L140.08 60.35L140.23 60.15L140.4 59.96L140.58 59.79L140.77 59.62L140.97 59.46L141.17 59.32L141.39 59.19L141.62 59.07L141.85 58.97L142.09 58.88L142.34 58.81L142.59 58.75L142.85 58.71L143.12 58.68L143.39 58.67L154.36 58.67L142.76 95.91L142.59 95.88Z" id="ag5YuBmQj"></path></defs><g><g><g><g><filter id="shadow13050997" x="1.21" y="-1.71" width="82.05" height="102.25" filterUnits="userSpaceOnUse" primitiveUnits="userSpaceOnUse"><feFlood></feFlood><feComposite in2="SourceAlpha" operator="in"></feComposite><feGaussianBlur stdDeviation="1"></feGaussianBlur><feOffset dx="1" dy="1" result="afterOffset"></feOffset><feFlood flood-color="#000000" flood-opacity="0.26"></feFlood><feComposite in2="afterOffset" operator="in"></feComposite><feMorphology operator="dilate" radius="1"></feMorphology><feComposite in2="SourceAlpha" operator="out"></feComposite></filter><path d="M34.82 90.53L34.82 40.62L51.05 40.62L51.05 90.53L34.82 90.53ZM64.2 7.33L64.66 7.38L65.11 7.46L65.55 7.55L65.99 7.66L66.42 7.8L66.84 7.95L67.26 8.12L67.66 8.3L68.05 8.51L68.43 8.73L68.81 8.96L69.17 9.22L69.52 9.48L69.85 9.77L70.18 10.06L70.49 10.37L70.78 10.7L71.06 11.03L71.33 11.38L71.58 11.74L71.82 12.11L72.04 12.5L72.25 12.89L72.43 13.29L72.6 13.7L72.75 14.13L72.88 14.56L73 14.99L73.09 15.44L73.16 15.89L73.22 16.35L73.25 16.82L73.26 17.29L73.26 30.62L73.25 31.09L73.22 31.56L73.16 32.01L73.09 32.47L73 32.91L72.88 33.35L72.75 33.78L72.6 34.2L72.43 34.61L72.25 35.02L72.04 35.41L71.82 35.79L71.58 36.16L71.33 36.53L71.06 36.87L70.78 37.21L70.49 37.53L70.18 37.84L69.85 38.14L69.52 38.42L69.17 38.69L68.81 38.94L68.43 39.18L68.05 39.4L67.66 39.6L67.26 39.79L66.84 39.96L66.42 40.11L65.99 40.24L65.55 40.36L65.11 40.45L64.66 40.52L64.2 40.58L63.73 40.61L63.26 40.62L20.21 40.62L19.74 40.61L19.28 40.58L18.82 40.52L18.37 40.45L17.92 40.36L17.48 40.24L17.05 40.11L16.63 39.96L16.22 39.79L15.82 39.6L15.42 39.4L15.04 39.18L14.67 38.94L14.31 38.69L13.96 38.42L13.62 38.14L13.3 37.84L12.99 37.53L12.69 37.21L12.41 36.87L12.14 36.53L11.89 36.16L11.65 35.79L11.43 35.41L11.23 35.02L11.04 34.61L10.87 34.2L10.72 33.78L10.59 33.35L10.48 32.91L10.38 32.47L10.31 32.01L10.26 31.56L10.22 31.09L10.21 30.62L10.21 17.29L10.22 16.82L10.26 16.35L10.31 15.89L10.38 15.44L10.48 14.99L10.59 14.56L10.72 14.13L10.87 13.7L11.04 13.29L11.23 12.89L11.43 12.5L11.65 12.11L11.89 11.74L12.14 11.38L12.41 11.03L12.69 10.7L12.99 10.37L13.3 10.06L13.62 9.77L13.96 9.48L14.31 9.22L14.67 8.96L15.04 8.73L15.42 8.51L15.82 8.3L16.22 8.12L16.63 7.95L17.05 7.8L17.48 7.66L17.92 7.55L18.37 7.46L18.82 7.38L19.28 7.33L19.74 7.3L20.21 7.29L63.26 7.29L63.73 7.3L64.2 7.33Z" id="a5x3zZz29" fill="white" fill-opacity="1" filter="url(#shadow13050997)"></path></g><use xlink:href="#a2Cxa8C3ja" opacity="1" fill="#adadad" fill-opacity="1"></use></g><g><g><filter id="shadow13338578" x="21.35" y="81.53" width="44.16" height="71.35" filterUnits="userSpaceOnUse" primitiveUnits="userSpaceOnUse"><feFlood></feFlood><feComposite in2="SourceAlpha" operator="in"></feComposite><feGaussianBlur stdDeviation="1"></feGaussianBlur><feOffset dx="1" dy="1" result="afterOffset"></feOffset><feFlood flood-color="#000000" flood-opacity="0.29"></feFlood><feComposite in2="afterOffset" operator="in"></feComposite><feMorphology operator="dilate" radius="1"></feMorphology><feComposite in2="SourceAlpha" operator="out"></feComposite></filter><path d="M50.7 90.53C53.36 90.53 55.52 92.69 55.52 95.35C55.52 104.86 55.52 128.56 55.52 138.07C55.52 140.73 53.36 142.89 50.7 142.89C46.63 142.89 39.24 142.89 35.17 142.89C32.51 142.89 30.35 140.73 30.35 138.07C30.35 128.56 30.35 104.86 30.35 95.35C30.35 92.69 32.51 90.53 35.17 90.53C39.24 90.53 46.63 90.53 50.7 90.53Z" id="ak7DSRj5Z" fill="white" fill-opacity="1" filter="url(#shadow13338578)"></path></g><use xlink:href="#b5kshAgoaO" opacity="1" fill="#9c6040" fill-opacity="1"></use></g><g><g><filter id="shadow4873475" x="66.4" y="81.53" width="44.16" height="71.35" filterUnits="userSpaceOnUse" primitiveUnits="userSpaceOnUse"><feFlood></feFlood><feComposite in2="SourceAlpha" operator="in"></feComposite><feGaussianBlur stdDeviation="1"></feGaussianBlur><feOffset dx="1" dy="1" result="afterOffset"></feOffset><feFlood flood-color="#000000" flood-opacity="0.24"></feFlood><feComposite in2="afterOffset" operator="in"></feComposite><feMorphology operator="dilate" radius="1"></feMorphology><feComposite in2="SourceAlpha" operator="out"></feComposite></filter><path d="M95.75 90.53C98.41 90.53 100.56 92.69 100.56 95.35C100.56 104.86 100.56 128.56 100.56 138.07C100.56 140.73 98.41 142.89 95.75 142.89C91.68 142.89 84.29 142.89 80.22 142.89C77.56 142.89 75.4 140.73 75.4 138.07C75.4 128.56 75.4 104.86 75.4 95.35C75.4 92.69 77.56 90.53 80.22 90.53C84.29 90.53 91.68 90.53 95.75 90.53Z" id="a1G1Ue678H" fill="white" fill-opacity="1" filter="url(#shadow4873475)"></path></g><use xlink:href="#b1a6VY2ibQ" opacity="1" fill="#404f9c" fill-opacity="1"></use></g><g><use xlink:href="#bA4aVbViM" opacity="1" fill="#ffffff" fill-opacity="0.29"></use></g><g><use xlink:href="#dh4cfAely" opacity="1" fill="#fcfcfc" fill-opacity="0.11"></use></g><g><use xlink:href="#g8iSePMZSp" opacity="1" fill="#fcfcfc" fill-opacity="0.11"></use></g><g><g><filter id="shadow1015518" x="70.87" y="32.1" width="35.23" height="68.43" filterUnits="userSpaceOnUse" primitiveUnits="userSpaceOnUse"><feFlood></feFlood><feComposite in2="SourceAlpha" operator="in"></feComposite><feGaussianBlur stdDeviation="1"></feGaussianBlur><feOffset dx="1" dy="1" result="afterOffset"></feOffset><feFlood flood-color="#000000" flood-opacity="0.22"></feFlood><feComposite in2="afterOffset" operator="in"></feComposite><feMorphology operator="dilate" radius="1"></feMorphology><feComposite in2="SourceAlpha" operator="out"></feComposite></filter><path d="M79.87 90.53L79.87 41.1L96.1 41.1L96.1 90.53L79.87 90.53Z" id="m2Ui2y9Lv" fill="white" fill-opacity="1" filter="url(#shadow1015518)"></path></g><use xlink:href="#a3ZHudnixk" opacity="1" fill="#adadad" fill-opacity="1"></use></g><g><use xlink:href="#a1YfJTtFw4" opacity="1" fill="#ffffff" fill-opacity="0.29"></use></g><g><g><filter id="shadow15164296" x="105.28" y="81.53" width="35.23" height="70.22" filterUnits="userSpaceOnUse" primitiveUnits="userSpaceOnUse"><feFlood></feFlood><feComposite in2="SourceAlpha" operator="in"></feComposite><feGaussianBlur stdDeviation="1"></feGaussianBlur><feOffset dx="1" dy="1" result="afterOffset"></feOffset><feFlood flood-color="#000000" flood-opacity="0.24"></feFlood><feComposite in2="afterOffset" operator="in"></feComposite><feMorphology operator="dilate" radius="1"></feMorphology><feComposite in2="SourceAlpha" operator="out"></feComposite></filter><path d="M125.7 90.53C128.36 90.53 130.52 92.69 130.52 95.35C130.52 104.63 130.52 127.65 130.52 136.93C130.52 139.59 128.36 141.75 125.7 141.75C123.41 141.75 121.38 141.75 119.1 141.75C116.44 141.75 114.28 139.59 114.28 136.93C114.28 127.65 114.28 104.63 114.28 95.35C114.28 92.69 116.44 90.53 119.1 90.53C121.38 90.53 123.41 90.53 125.7 90.53Z" id="a6JixcgAk" fill="white" fill-opacity="1" filter="url(#shadow15164296)"></path></g><use xlink:href="#cNSrYSD7I" opacity="1" fill="#9c8040" fill-opacity="1"></use></g><g><use xlink:href="#e3Ha8xHgBr" opacity="1" fill="#ffffff" fill-opacity="0.08"></use></g><g><g><filter id="shadow15506136" x="101.89" y="9.37" width="41.32" height="91.16" filterUnits="userSpaceOnUse" primitiveUnits="userSpaceOnUse"><feFlood></feFlood><feComposite in2="SourceAlpha" operator="in"></feComposite><feGaussianBlur stdDeviation="1"></feGaussianBlur><feOffset dx="1" dy="1" result="afterOffset"></feOffset><feFlood flood-color="#000000" flood-opacity="0.24"></feFlood><feComposite in2="afterOffset" operator="in"></feComposite><feMorphology operator="dilate" radius="1"></feMorphology><feComposite in2="SourceAlpha" operator="out"></feComposite></filter><path d="M124.61 18.7L125.82 19.09L126.96 19.63L128.04 20.3L129.03 21.09L129.95 22L130.76 23.01L131.48 24.12L132.08 25.31L132.56 26.58L132.92 27.91L133.14 29.31L133.22 30.75L133.14 32.19L132.92 33.59L132.56 34.92L132.08 36.19L131.48 37.38L130.76 38.49L129.95 39.5L129.03 40.41L128.04 41.2L126.96 41.87L126.43 42.12L126.43 90.53L117.68 90.53L117.68 42.12L117.15 41.87L116.07 41.2L115.08 40.41L114.16 39.5L113.35 38.49L112.63 37.38L112.03 36.19L111.55 34.92L111.19 33.59L110.97 32.19L110.89 30.75L110.97 29.31L111.19 27.91L111.55 26.58L112.03 25.31L112.63 24.12L113.35 23.01L114.16 22L115.08 21.09L116.07 20.3L117.15 19.63L118.29 19.09L119.5 18.7L120.75 18.46L122.06 18.37L123.36 18.46L124.61 18.7Z" id="d1aNWwJ9wb" fill="white" fill-opacity="1" filter="url(#shadow15506136)"></path></g><use xlink:href="#a1fKMWwpxX" opacity="1" fill="#adadad" fill-opacity="1"></use></g><g><use xlink:href="#c3E1sLlhZh" opacity="1" fill="#ffffff" fill-opacity="0.29"></use></g><g><g><filter id="shadow6823200" x="16.97" y="152.45" width="124.52" height="114.83" filterUnits="userSpaceOnUse" primitiveUnits="userSpaceOnUse"><feFlood></feFlood><feComposite in2="SourceAlpha" operator="in"></feComposite><feGaussianBlur stdDeviation="1"></feGaussianBlur><feOffset dx="1" dy="1" result="afterOffset"></feOffset><feFlood flood-color="#000000" flood-opacity="0.25"></feFlood><feComposite in2="afterOffset" operator="in"></feComposite><feMorphology operator="dilate" radius="1"></feMorphology><feComposite in2="SourceAlpha" operator="out"></feComposite></filter><path d="M127.07 161.47L127.26 161.49L127.46 161.52L127.65 161.55L127.83 161.59L128.02 161.64L128.2 161.7L128.38 161.76L128.55 161.83L128.72 161.91L128.89 161.99L129.05 162.08L129.21 162.18L129.37 162.28L129.52 162.38L129.67 162.5L129.81 162.61L129.95 162.74L130.08 162.87L130.21 163L130.33 163.14L130.45 163.28L130.56 163.43L130.67 163.58L130.77 163.74L130.87 163.9L130.96 164.06L131.04 164.23L131.12 164.4L131.19 164.57L131.25 164.75L131.31 164.93L131.35 165.12L131.4 165.3L131.43 165.49L131.46 165.68L131.48 165.88L131.49 166.08L131.49 166.27L131.49 208.99L131.49 209.19L131.48 209.39L131.46 209.58L131.43 209.77L131.4 209.96L131.35 210.15L131.31 210.33L131.25 210.51L131.19 210.69L131.12 210.87L131.04 211.04L130.96 211.2L130.87 211.37L130.77 211.53L130.67 211.68L130.56 211.84L130.45 211.98L130.33 212.13L130.21 212.26L130.08 212.4L129.95 212.53L129.81 212.65L129.67 212.77L129.52 212.88L129.37 212.99L129.21 213.09L129.05 213.18L128.89 213.27L128.72 213.35L128.55 213.43L128.38 213.5L128.2 213.56L128.02 213.62L127.83 213.67L127.65 213.71L127.46 213.75L127.26 213.77L127.07 213.79L126.87 213.81L126.68 213.81L51.14 213.81L51.14 252.47L51.13 252.74L51.11 253.01L51.07 253.27L51.02 253.53L50.95 253.79L50.87 254.04L50.78 254.28L50.68 254.52L50.56 254.75L50.44 254.97L50.3 255.19L50.15 255.39L49.99 255.59L49.81 255.78L49.63 255.96L49.44 256.13L49.25 256.29L49.04 256.44L48.82 256.58L48.6 256.71L48.37 256.83L48.13 256.93L47.89 257.02L47.64 257.1L47.39 257.17L47.13 257.22L46.86 257.26L46.59 257.28L46.32 257.29L30.79 257.29L30.52 257.28L30.25 257.26L29.99 257.22L29.73 257.17L29.47 257.1L29.22 257.02L28.98 256.93L28.74 256.83L28.51 256.71L28.29 256.58L28.07 256.44L27.87 256.29L27.67 256.13L27.48 255.96L27.3 255.78L27.13 255.59L26.97 255.39L26.82 255.19L26.68 254.97L26.55 254.75L26.43 254.52L26.33 254.28L26.24 254.04L26.16 253.79L26.09 253.53L26.04 253.27L26.01 253.01L25.98 252.74L25.97 252.47L25.97 209.75L25.98 209.48L25.99 209.38L25.98 209.19L25.97 208.99L25.97 166.27L25.98 166.08L25.99 165.88L26.01 165.68L26.04 165.49L26.07 165.3L26.12 165.12L26.16 164.93L26.22 164.75L26.28 164.57L26.35 164.4L26.43 164.23L26.51 164.06L26.6 163.9L26.7 163.74L26.8 163.58L26.9 163.43L27.02 163.28L27.14 163.14L27.26 163L27.39 162.87L27.52 162.74L27.66 162.61L27.8 162.5L27.95 162.38L28.1 162.28L28.26 162.18L28.42 162.08L28.58 161.99L28.75 161.91L28.92 161.83L29.09 161.76L29.27 161.7L29.45 161.64L29.64 161.59L29.82 161.55L30.01 161.52L30.2 161.49L30.4 161.47L30.6 161.46L30.79 161.45L126.68 161.45L126.87 161.46L127.07 161.47Z" id="b1LTYewasT" fill="white" fill-opacity="1" filter="url(#shadow6823200)"></path></g><use xlink:href="#c7Ltunu8gb" opacity="1" fill="#9c4040" fill-opacity="1"></use></g><g><g><filter id="shadow9208112" x="122.49" y="162.2" width="33.36" height="51.87" filterUnits="userSpaceOnUse" primitiveUnits="userSpaceOnUse"><feFlood></feFlood><feComposite in2="SourceAlpha" operator="in"></feComposite><feGaussianBlur stdDeviation="1"></feGaussianBlur><feOffset dx="1" dy="1" result="afterOffset"></feOffset><feFlood flood-color="#000000" flood-opacity="0.16"></feFlood><feComposite in2="afterOffset" operator="in"></feComposite><feMorphology operator="dilate" radius="1"></feMorphology><feComposite in2="SourceAlpha" operator="out"></feComposite></filter><path d="M141.78 171.25L142.14 171.32L142.49 171.42L142.83 171.54L143.15 171.68L143.47 171.85L143.76 172.04L144.05 172.25L144.31 172.48L144.56 172.73L144.79 173L145 173.28L145.19 173.58L145.36 173.9L145.51 174.22L145.63 174.56L145.73 174.91L145.8 175.27L145.84 175.64L145.85 176.01L145.85 199.25L145.84 199.63L145.8 199.99L145.73 200.35L145.63 200.7L145.51 201.04L145.36 201.37L145.19 201.68L145 201.98L144.79 202.26L144.56 202.53L144.31 202.78L144.05 203.01L143.76 203.22L143.47 203.41L143.15 203.58L142.83 203.72L142.49 203.85L142.14 203.94L141.78 204.01L141.41 204.05L141.03 204.07L131.49 204.07L131.49 171.2L141.03 171.2L141.41 171.21L141.78 171.25Z" id="b4Z7eX8Nmo" fill="white" fill-opacity="1" filter="url(#shadow9208112)"></path></g><use xlink:href="#a1aFnS1G" opacity="1" fill="#adadad" fill-opacity="1"></use></g><g><use xlink:href="#b7Sc5tWcPn" opacity="1" fill="#adadad" fill-opacity="1"></use></g><g><use xlink:href="#alnHwxX2h" opacity="1" fill="#fdfdfd" fill-opacity="0.11"></use></g><g><use xlink:href="#a1asKo06Z1" opacity="1" fill="#fffdfd" fill-opacity="0.1"></use></g><g><use xlink:href="#j4HJhfQsdV" opacity="1" fill="#b9b9b9" fill-opacity="1"></use></g><g><g><filter id="shadow7841560" x="149.61" y="47.66" width="20.4" height="21.92" filterUnits="userSpaceOnUse" primitiveUnits="userSpaceOnUse"><feFlood></feFlood><feComposite in2="SourceAlpha" operator="in"></feComposite><feGaussianBlur stdDeviation="1"></feGaussianBlur><feOffset dx="0" dy="0" result="afterOffset"></feOffset><feFlood flood-color="#000000" flood-opacity="0.5"></feFlood><feComposite in2="afterOffset" operator="in"></feComposite><feMorphology operator="dilate" radius="0"></feMorphology><feComposite in2="SourceAlpha" operator="out"></feComposite></filter><path d="M162.28 54.66C162.69 54.66 163.02 54.99 163.02 55.4C163.02 56.84 163.02 60.41 163.02 61.85C163.02 62.25 162.69 62.58 162.28 62.58C161.14 62.58 158.48 62.58 157.35 62.58C156.94 62.58 156.61 62.25 156.61 61.85C156.61 60.41 156.61 56.84 156.61 55.4C156.61 54.99 156.94 54.66 157.35 54.66C158.48 54.66 161.14 54.66 162.28 54.66Z" id="frloKREGK" fill="white" fill-opacity="1" filter="url(#shadow7841560)"></path></g><use xlink:href="#bAM5odAfD" opacity="1" fill="#b9b9b9" fill-opacity="1"></use></g><g><g><filter id="shadow15855576" x="132.29" y="51.62" width="44" height="51.29" filterUnits="userSpaceOnUse" primitiveUnits="userSpaceOnUse"><feFlood></feFlood><feComposite in2="SourceAlpha" operator="in"></feComposite><feGaussianBlur stdDeviation="1"></feGaussianBlur><feOffset dx="0" dy="0" result="afterOffset"></feOffset><feFlood flood-color="#000000" flood-opacity="0.5"></feFlood><feComposite in2="afterOffset" operator="in"></feComposite><feMorphology operator="dilate" radius="0"></feMorphology><feComposite in2="SourceAlpha" operator="out"></feComposite></filter><path d="M165.18 58.62C167.45 58.62 169.29 60.46 169.29 62.73C169.29 69.36 169.29 85.17 169.29 91.81C169.29 94.08 167.45 95.91 165.18 95.91C160 95.91 148.57 95.91 143.39 95.91C141.12 95.91 139.29 94.08 139.29 91.81C139.29 85.17 139.29 69.36 139.29 62.73C139.29 60.46 141.12 58.62 143.39 58.62C148.57 58.62 160 58.62 165.18 58.62Z" id="a4jKybj2E" fill="white" fill-opacity="1" filter="url(#shadow15855576)"></path></g><use xlink:href="#c41tIsfhSj" opacity="1" fill="#7b7d7b" fill-opacity="1"></use></g><g><use xlink:href="#b1dTEg7MS" opacity="1" fill="#e7c53b" fill-opacity="1"></use></g><g><g><filter id="shadow16286519" x="137.35" y="47.45" width="23.1" height="16.1" filterUnits="userSpaceOnUse" primitiveUnits="userSpaceOnUse"><feFlood></feFlood><feComposite in2="SourceAlpha" operator="in"></feComposite><feGaussianBlur stdDeviation="1"></feGaussianBlur><feOffset dx="0" dy="0" result="afterOffset"></feOffset><feFlood flood-color="#000000" flood-opacity="0.5"></feFlood><feComposite in2="afterOffset" operator="in"></feComposite><feMorphology operator="dilate" radius="0"></feMorphology><feComposite in2="SourceAlpha" operator="out"></feComposite></filter><path d="M152.4 54.45C152.98 54.45 153.45 54.92 153.45 55.5C153.45 55.71 153.45 55.29 153.45 55.5C153.45 56.08 152.98 56.55 152.4 56.55C150.79 56.55 147.01 56.55 145.4 56.55C144.82 56.55 144.35 56.08 144.35 55.5C144.35 55.29 144.35 55.71 144.35 55.5C144.35 54.92 144.82 54.45 145.4 54.45C147.01 54.45 150.79 54.45 152.4 54.45Z" id="b2UC2FaZap" fill="white" fill-opacity="1" filter="url(#shadow16286519)"></path></g><use xlink:href="#byFbQyxev" opacity="1" fill="#b9b9b9" fill-opacity="1"></use></g><g><use xlink:href="#ag5YuBmQj" opacity="1" fill="#ffffff" fill-opacity="0.17"></use></g></g></g></svg>