<?xml version="1.0" encoding="UTF-8" standalone="no"?>
<!DOCTYPE svg PUBLIC "-//W3C//DTD SVG 1.1//EN" "http://www.w3.org/Graphics/SVG/1.1/DTD/svg11.dtd">
<svg version="1.1" xmlns="http://www.w3.org/2000/svg" xmlns:xlink="http://www.w3.org/1999/xlink" preserveAspectRatio="xMidYMid meet" viewBox="0 0 188 216" width="188" height="216"><defs><path d="M75.69 186.48C75.69 191.79 71.39 196.09 66.08 196.09C61.85 196.09 58.77 196.09 54.55 196.09C49.24 196.09 44.93 191.79 44.93 186.48C44.93 168.04 44.93 122.33 44.93 103.89C44.93 98.58 49.24 94.27 54.55 94.27C58.77 94.27 61.85 94.27 66.08 94.27C71.39 94.27 75.69 98.58 75.69 103.89C75.69 122.33 75.69 168.04 75.69 186.48Z" id="a4nPPUG7W1"></path><path d="M75.69 186.48C75.69 191.79 71.39 196.09 66.08 196.09C61.85 196.09 58.77 196.09 54.55 196.09C49.24 196.09 44.93 191.79 44.93 186.48C44.93 168.04 44.93 122.33 44.93 103.89C44.93 98.58 49.24 94.27 54.55 94.27C58.77 94.27 61.85 94.27 66.08 94.27C71.39 94.27 75.69 98.58 75.69 103.89C75.69 122.33 75.69 168.04 75.69 186.48Z" id="fYJAePoOQ"></path><path d="M72.19 109.41C72.19 98.02 81.57 88.77 93.11 88.77C104.66 88.77 114.04 98.02 114.04 109.41C114.04 120.8 104.66 130.05 93.11 130.05C81.57 130.05 72.19 120.8 72.19 109.41Z" id="a2BtFMellH"></path><path d="M72.19 109.41C72.19 98.02 81.57 88.77 93.11 88.77C104.66 88.77 114.04 98.02 114.04 109.41C114.04 120.8 104.66 130.05 93.11 130.05C81.57 130.05 72.19 120.8 72.19 109.41Z" id="c4gaBFxPKq"></path><path d="M7.63 109.41C7.63 98.02 17 88.77 28.55 88.77C40.1 88.77 49.48 98.02 49.48 109.41C49.48 120.8 40.1 130.05 28.55 130.05C17 130.05 7.63 120.8 7.63 109.41Z" id="blLpDiisp"></path><path d="M7.63 109.41C7.63 98.02 17 88.77 28.55 88.77C40.1 88.77 49.48 98.02 49.48 109.41C49.48 120.8 40.1 130.05 28.55 130.05C17 130.05 7.63 120.8 7.63 109.41Z" id="b2AgfvO6Ux"></path><path d="M7.63 74.55C7.63 63.16 17 53.92 28.55 53.92C40.1 53.92 49.48 63.16 49.48 74.55C49.48 85.94 40.1 95.19 28.55 95.19C17 95.19 7.63 85.94 7.63 74.55Z" id="fKLdoiAj5"></path><path d="M7.63 74.55C7.63 63.16 17 53.92 28.55 53.92C40.1 53.92 49.48 63.16 49.48 74.55C49.48 85.94 40.1 95.19 28.55 95.19C17 95.19 7.63 85.94 7.63 74.55Z" id="a1VQCj9nbn"></path><path d="M91.33 154.83L91.45 154.84L91.69 154.9L91.91 154.97L92.02 155.01L92.13 155.07L92.33 155.19L92.42 155.25L92.52 155.32L92.61 155.4L92.77 155.56L92.84 155.65L92.98 155.84L93.1 156.04L93.2 156.26L93.24 156.37L93.27 156.48L93.3 156.6L93.33 156.72L93.34 156.84L93.36 157.09L93.36 157.79L93.37 157.78L93.47 157.77L93.56 157.77L93.66 157.76L145.99 157.76L145.99 156.96L146 156.84L146.04 156.6L146.1 156.37L146.14 156.26L146.19 156.15L146.24 156.04L146.29 155.94L146.36 155.84L146.42 155.75L146.5 155.65L146.57 155.56L146.74 155.4L146.83 155.32L146.92 155.25L147.01 155.19L147.21 155.07L147.32 155.01L147.43 154.97L147.54 154.93L147.66 154.9L147.77 154.87L147.89 154.84L148.01 154.83L148.26 154.81L148.28 154.81L148.41 154.82L148.53 154.83L148.65 154.84L148.89 154.9L149.11 154.97L149.23 155.01L149.43 155.13L149.63 155.25L149.72 155.32L149.81 155.4L149.89 155.48L149.97 155.56L150.05 155.65L150.19 155.84L150.31 156.04L150.35 156.15L150.4 156.26L150.44 156.37L150.48 156.48L150.51 156.6L150.53 156.72L150.54 156.84L150.55 156.96L150.56 157.09L150.56 193.82L150.55 193.94L150.54 194.07L150.53 194.18L150.51 194.31L150.48 194.42L150.44 194.54L150.4 194.65L150.31 194.86L150.19 195.06L150.05 195.25L149.97 195.34L149.89 195.42L149.81 195.51L149.72 195.58L149.63 195.65L149.53 195.72L149.43 195.78L149.33 195.84L149.23 195.89L149.11 195.94L149 195.98L148.89 196.01L148.77 196.04L148.65 196.06L148.53 196.08L148.41 196.09L148.14 196.09L148.01 196.08L147.89 196.06L147.77 196.04L147.66 196.01L147.54 195.98L147.43 195.94L147.32 195.89L147.21 195.84L147.11 195.78L147.01 195.72L146.74 195.51L146.57 195.34L146.5 195.25L146.42 195.16L146.36 195.06L146.29 194.96L146.24 194.86L146.19 194.76L146.14 194.65L146.1 194.54L146.07 194.42L146.04 194.31L146.02 194.18L146 194.07L145.99 193.94L145.99 183.22L93.36 183.22L93.36 193.82L93.34 194.07L93.33 194.18L93.3 194.31L93.27 194.42L93.24 194.54L93.2 194.65L93.1 194.86L92.98 195.06L92.84 195.25L92.77 195.34L92.61 195.51L92.52 195.58L92.42 195.65L92.33 195.72L92.23 195.78L92.13 195.84L91.91 195.94L91.8 195.98L91.69 196.01L91.57 196.04L91.45 196.06L91.33 196.08L91.21 196.09L90.93 196.09L90.81 196.08L90.69 196.06L90.57 196.04L90.34 195.98L90.22 195.94L90.12 195.89L90.01 195.84L89.91 195.78L89.81 195.72L89.72 195.65L89.62 195.58L89.53 195.51L89.37 195.34L89.29 195.25L89.22 195.16L89.16 195.06L89.09 194.96L89.04 194.86L88.98 194.76L88.94 194.65L88.9 194.54L88.87 194.42L88.84 194.31L88.81 194.18L88.8 194.07L88.78 193.94L88.78 156.96L88.8 156.84L88.81 156.72L88.84 156.6L88.9 156.37L88.94 156.26L88.98 156.15L89.04 156.04L89.09 155.94L89.16 155.84L89.22 155.75L89.29 155.65L89.37 155.56L89.53 155.4L89.62 155.32L89.72 155.25L89.81 155.19L90.01 155.07L90.12 155.01L90.22 154.97L90.34 154.93L90.45 154.9L90.69 154.84L90.81 154.83L91.05 154.81L91.08 154.81L91.21 154.82L91.33 154.83ZM93.36 178.63L145.99 178.63L145.99 175.27L93.36 175.27L93.36 178.63ZM93.36 170.68L145.99 170.68L145.99 168.69L93.36 168.69L93.36 170.68ZM145.99 164.1L145.99 162.35L93.66 162.35L93.37 162.34L93.36 162.33L93.36 164.11L145.99 164.1Z" id="mHmAKZ4YB"></path><path d="M91.33 154.83L91.45 154.84L91.69 154.9L91.91 154.97L92.02 155.01L92.13 155.07L92.33 155.19L92.42 155.25L92.52 155.32L92.61 155.4L92.77 155.56L92.84 155.65L92.98 155.84L93.1 156.04L93.2 156.26L93.24 156.37L93.27 156.48L93.3 156.6L93.33 156.72L93.34 156.84L93.36 157.09L93.36 157.79L93.37 157.78L93.47 157.77L93.56 157.77L93.66 157.76L145.99 157.76L145.99 156.96L146 156.84L146.04 156.6L146.1 156.37L146.14 156.26L146.19 156.15L146.24 156.04L146.29 155.94L146.36 155.84L146.42 155.75L146.5 155.65L146.57 155.56L146.74 155.4L146.83 155.32L146.92 155.25L147.01 155.19L147.21 155.07L147.32 155.01L147.43 154.97L147.54 154.93L147.66 154.9L147.77 154.87L147.89 154.84L148.01 154.83L148.26 154.81L148.28 154.81L148.41 154.82L148.53 154.83L148.65 154.84L148.89 154.9L149.11 154.97L149.23 155.01L149.43 155.13L149.63 155.25L149.72 155.32L149.81 155.4L149.89 155.48L149.97 155.56L150.05 155.65L150.19 155.84L150.31 156.04L150.35 156.15L150.4 156.26L150.44 156.37L150.48 156.48L150.51 156.6L150.53 156.72L150.54 156.84L150.55 156.96L150.56 157.09L150.56 193.82L150.55 193.94L150.54 194.07L150.53 194.18L150.51 194.31L150.48 194.42L150.44 194.54L150.4 194.65L150.31 194.86L150.19 195.06L150.05 195.25L149.97 195.34L149.89 195.42L149.81 195.51L149.72 195.58L149.63 195.65L149.53 195.72L149.43 195.78L149.33 195.84L149.23 195.89L149.11 195.94L149 195.98L148.89 196.01L148.77 196.04L148.65 196.06L148.53 196.08L148.41 196.09L148.14 196.09L148.01 196.08L147.89 196.06L147.77 196.04L147.66 196.01L147.54 195.98L147.43 195.94L147.32 195.89L147.21 195.84L147.11 195.78L147.01 195.72L146.74 195.51L146.57 195.34L146.5 195.25L146.42 195.16L146.36 195.06L146.29 194.96L146.24 194.86L146.19 194.76L146.14 194.65L146.1 194.54L146.07 194.42L146.04 194.31L146.02 194.18L146 194.07L145.99 193.94L145.99 183.22L93.36 183.22L93.36 193.82L93.34 194.07L93.33 194.18L93.3 194.31L93.27 194.42L93.24 194.54L93.2 194.65L93.1 194.86L92.98 195.06L92.84 195.25L92.77 195.34L92.61 195.51L92.52 195.58L92.42 195.65L92.33 195.72L92.23 195.78L92.13 195.84L91.91 195.94L91.8 195.98L91.69 196.01L91.57 196.04L91.45 196.06L91.33 196.08L91.21 196.09L90.93 196.09L90.81 196.08L90.69 196.06L90.57 196.04L90.34 195.98L90.22 195.94L90.12 195.89L90.01 195.84L89.91 195.78L89.81 195.72L89.72 195.65L89.62 195.58L89.53 195.51L89.37 195.34L89.29 195.25L89.22 195.16L89.16 195.06L89.09 194.96L89.04 194.86L88.98 194.76L88.94 194.65L88.9 194.54L88.87 194.42L88.84 194.31L88.81 194.18L88.8 194.07L88.78 193.94L88.78 156.96L88.8 156.84L88.81 156.72L88.84 156.6L88.9 156.37L88.94 156.26L88.98 156.15L89.04 156.04L89.09 155.94L89.16 155.84L89.22 155.75L89.29 155.65L89.37 155.56L89.53 155.4L89.62 155.32L89.72 155.25L89.81 155.19L90.01 155.07L90.12 155.01L90.22 154.97L90.34 154.93L90.45 154.9L90.69 154.84L90.81 154.83L91.05 154.81L91.08 154.81L91.21 154.82L91.33 154.83ZM93.36 178.63L145.99 178.63L145.99 175.27L93.36 175.27L93.36 178.63ZM93.36 170.68L145.99 170.68L145.99 168.69L93.36 168.69L93.36 170.68ZM145.99 164.1L145.99 162.35L93.66 162.35L93.37 162.34L93.36 162.33L93.36 164.11L145.99 164.1Z" id="aoNUgi29v"></path><path d="M163.09 32.86C171.44 34.76 177.58 41.13 177.58 48.69C177.58 48.69 177.58 48.69 177.58 48.69C177.58 57.75 168.76 65.1 157.89 65.1C152.94 65.1 113.42 65.1 108.48 65.1C97.6 65.1 88.78 57.75 88.78 48.69C88.78 48.69 88.78 48.69 88.78 48.69C88.78 40.79 95.49 34.19 104.41 32.63C105.21 24.07 111.9 17.38 120.04 17.38C121.82 17.38 123.54 17.7 125.14 18.3C128.95 12.56 135.16 8.82 142.19 8.82C153.75 8.82 163.13 18.95 163.13 31.45C163.13 31.93 163.12 32.4 163.09 32.86Z" id="b1wmhYU6c1"></path><path d="M163.09 32.86C171.44 34.76 177.58 41.13 177.58 48.69C177.58 48.69 177.58 48.69 177.58 48.69C177.58 57.75 168.76 65.1 157.89 65.1C152.94 65.1 113.42 65.1 108.48 65.1C97.6 65.1 88.78 57.75 88.78 48.69C88.78 48.69 88.78 48.69 88.78 48.69C88.78 40.79 95.49 34.19 104.41 32.63C105.21 24.07 111.9 17.38 120.04 17.38C121.82 17.38 123.54 17.7 125.14 18.3C128.95 12.56 135.16 8.82 142.19 8.82C153.75 8.82 163.13 18.95 163.13 31.45C163.13 31.93 163.12 32.4 163.09 32.86Z" id="akIO5lQ5P"></path><path d="M67.45 74.55C67.45 63.16 76.83 53.92 88.37 53.92C99.92 53.92 109.3 63.16 109.3 74.55C109.3 85.94 99.92 95.19 88.37 95.19C76.83 95.19 67.45 85.94 67.45 74.55Z" id="a8NLfC4DZ3"></path><path d="M67.45 74.55C67.45 63.16 76.83 53.92 88.37 53.92C99.92 53.92 109.3 63.16 109.3 74.55C109.3 85.94 99.92 95.19 88.37 95.19C76.83 95.19 67.45 85.94 67.45 74.55Z" id="jwCyVHkeE"></path><path d="M39.47 53.92C39.47 42.53 48.85 33.28 60.4 33.28C71.95 33.28 81.32 42.53 81.32 53.92C81.32 65.31 71.95 74.55 60.4 74.55C48.85 74.55 39.47 65.31 39.47 53.92Z" id="d2L5A9XYx5"></path><path d="M39.47 53.92C39.47 42.53 48.85 33.28 60.4 33.28C71.95 33.28 81.32 42.53 81.32 53.92C81.32 65.31 71.95 74.55 60.4 74.55C48.85 74.55 39.47 65.31 39.47 53.92Z" id="c451TadwkU"></path><path d="M39.47 88.77C39.47 77.38 48.85 68.13 60.4 68.13C71.95 68.13 81.32 77.38 81.32 88.77C81.32 100.16 71.95 109.41 60.4 109.41C48.85 109.41 39.47 100.16 39.47 88.77Z" id="d1Hmsfbjy9"></path><path d="M39.47 88.77C39.47 77.38 48.85 68.13 60.4 68.13C71.95 68.13 81.32 77.38 81.32 88.77C81.32 100.16 71.95 109.41 60.4 109.41C48.85 109.41 39.47 100.16 39.47 88.77Z" id="d6sDvGxQQo"></path><path d="M149.61 170.42L149.72 170.47L149.82 170.52L149.92 170.58L150.01 170.65L150.1 170.72L150.18 170.8L150.26 170.89L150.32 170.98L150.38 171.08L150.44 171.18L150.48 171.3L150.51 171.41L150.54 171.52L150.55 171.64L150.56 171.76L150.56 180.91L150.56 180.92L150.56 180.94L150.56 194.67L150.55 194.8L150.54 194.92L150.51 195.03L150.48 195.15L150.44 195.25L150.38 195.35L150.32 195.45L150.26 195.55L150.18 195.64L150.1 195.71L150.02 195.79L149.92 195.85L149.82 195.92L149.72 195.97L149.61 196.01L149.5 196.04L149.38 196.07L149.26 196.08L149.14 196.09L147.43 196.09L147.3 196.08L147.19 196.07L147.07 196.04L146.96 196.01L146.85 195.97L146.74 195.92L146.65 195.85L146.55 195.79L146.47 195.72L146.38 195.64L146.31 195.55L146.24 195.45L146.18 195.35L146.13 195.25L146.09 195.15L146.05 195.03L146.03 194.92L146.01 194.8L146.01 194.67L146.01 183.22L93.66 183.22L93.56 183.22L93.47 183.21L93.37 183.2L93.33 183.19L93.33 194.67L93.33 194.8L93.31 194.92L93.28 195.03L93.26 195.15L93.21 195.25L93.16 195.35L93.1 195.45L93.03 195.55L92.95 195.64L92.88 195.71L92.79 195.79L92.69 195.85L92.59 195.92L92.49 195.97L92.38 196.01L92.27 196.04L92.16 196.07L92.04 196.08L91.92 196.09L90.2 196.09L90.08 196.08L89.96 196.07L89.85 196.04L89.73 196.01L89.62 195.97L89.52 195.92L89.42 195.85L89.33 195.79L89.24 195.72L89.16 195.64L89.08 195.55L89.02 195.45L88.96 195.35L88.91 195.25L88.87 195.15L88.83 195.03L88.8 194.92L88.79 194.8L88.78 194.67L88.78 171.76L88.79 171.64L88.8 171.52L88.83 171.41L88.86 171.3L88.91 171.18L88.95 171.08L89.02 170.98L89.08 170.89L89.16 170.8L89.24 170.72L89.33 170.65L89.42 170.58L89.52 170.52L89.62 170.47L89.73 170.43L89.85 170.39L89.96 170.36L90.08 170.35L90.2 170.35L91.92 170.35L92.03 170.35L92.16 170.36L92.27 170.39L92.38 170.42L92.49 170.47L92.59 170.52L92.69 170.58L92.79 170.65L92.88 170.72L92.95 170.8L93.03 170.89L93.1 170.98L93.16 171.08L93.21 171.18L93.25 171.3L93.28 171.41L93.31 171.52L93.33 171.64L93.33 171.76L93.33 178.66L93.37 178.65L93.47 178.64L93.56 178.63L93.66 178.63L146.01 178.63L146.01 171.76L146.01 171.64L146.03 171.52L146.05 171.41L146.09 171.3L146.13 171.18L146.18 171.08L146.24 170.98L146.31 170.89L146.38 170.8L146.47 170.72L146.55 170.65L146.64 170.58L146.74 170.52L146.85 170.47L146.96 170.43L147.07 170.39L147.19 170.36L147.3 170.35L147.43 170.35L149.14 170.35L149.26 170.35L149.38 170.36L149.5 170.39L149.61 170.42Z" id="b1p0kFFHA"></path><path d="M149.61 170.42L149.72 170.47L149.82 170.52L149.92 170.58L150.01 170.65L150.1 170.72L150.18 170.8L150.26 170.89L150.32 170.98L150.38 171.08L150.44 171.18L150.48 171.3L150.51 171.41L150.54 171.52L150.55 171.64L150.56 171.76L150.56 180.91L150.56 180.92L150.56 180.94L150.56 194.67L150.55 194.8L150.54 194.92L150.51 195.03L150.48 195.15L150.44 195.25L150.38 195.35L150.32 195.45L150.26 195.55L150.18 195.64L150.1 195.71L150.02 195.79L149.92 195.85L149.82 195.92L149.72 195.97L149.61 196.01L149.5 196.04L149.38 196.07L149.26 196.08L149.14 196.09L147.43 196.09L147.3 196.08L147.19 196.07L147.07 196.04L146.96 196.01L146.85 195.97L146.74 195.92L146.65 195.85L146.55 195.79L146.47 195.72L146.38 195.64L146.31 195.55L146.24 195.45L146.18 195.35L146.13 195.25L146.09 195.15L146.05 195.03L146.03 194.92L146.01 194.8L146.01 194.67L146.01 183.22L93.66 183.22L93.56 183.22L93.47 183.21L93.37 183.2L93.33 183.19L93.33 194.67L93.33 194.8L93.31 194.92L93.28 195.03L93.26 195.15L93.21 195.25L93.16 195.35L93.1 195.45L93.03 195.55L92.95 195.64L92.88 195.71L92.79 195.79L92.69 195.85L92.59 195.92L92.49 195.97L92.38 196.01L92.27 196.04L92.16 196.07L92.04 196.08L91.92 196.09L90.2 196.09L90.08 196.08L89.96 196.07L89.85 196.04L89.73 196.01L89.62 195.97L89.52 195.92L89.42 195.85L89.33 195.79L89.24 195.72L89.16 195.64L89.08 195.55L89.02 195.45L88.96 195.35L88.91 195.25L88.87 195.15L88.83 195.03L88.8 194.92L88.79 194.8L88.78 194.67L88.78 171.76L88.79 171.64L88.8 171.52L88.83 171.41L88.86 171.3L88.91 171.18L88.95 171.08L89.02 170.98L89.08 170.89L89.16 170.8L89.24 170.72L89.33 170.65L89.42 170.58L89.52 170.52L89.62 170.47L89.73 170.43L89.85 170.39L89.96 170.36L90.08 170.35L90.2 170.35L91.92 170.35L92.03 170.35L92.16 170.36L92.27 170.39L92.38 170.42L92.49 170.47L92.59 170.52L92.69 170.58L92.79 170.65L92.88 170.72L92.95 170.8L93.03 170.89L93.1 170.98L93.16 171.08L93.21 171.18L93.25 171.3L93.28 171.41L93.31 171.52L93.33 171.64L93.33 171.76L93.33 178.66L93.37 178.65L93.47 178.64L93.56 178.63L93.66 178.63L146.01 178.63L146.01 171.76L146.01 171.64L146.03 171.52L146.05 171.41L146.09 171.3L146.13 171.18L146.18 171.08L146.24 170.98L146.31 170.89L146.38 170.8L146.47 170.72L146.55 170.65L146.64 170.58L146.74 170.52L146.85 170.47L146.96 170.43L147.07 170.39L147.19 170.36L147.3 170.35L147.43 170.35L149.14 170.35L149.26 170.35L149.38 170.36L149.5 170.39L149.61 170.42Z" id="bguwYoAvi"></path></defs><g><g><g><g><filter id="shadow16745780" x="37.93" y="87.27" width="44.76" height="115.82" filterUnits="userSpaceOnUse" primitiveUnits="userSpaceOnUse"><feFlood></feFlood><feComposite in2="SourceAlpha" operator="in"></feComposite><feGaussianBlur stdDeviation="1"></feGaussianBlur><feOffset dx="0" dy="0" result="afterOffset"></feOffset><feFlood flood-color="#000000" flood-opacity="0.5"></feFlood><feComposite in2="afterOffset" operator="in"></feComposite><feMorphology operator="dilate" radius="0"></feMorphology><feComposite in2="SourceAlpha" operator="out"></feComposite></filter><path d="M75.69 186.48C75.69 191.79 71.39 196.09 66.08 196.09C61.85 196.09 58.77 196.09 54.55 196.09C49.24 196.09 44.93 191.79 44.93 186.48C44.93 168.04 44.93 122.33 44.93 103.89C44.93 98.58 49.24 94.27 54.55 94.27C58.77 94.27 61.85 94.27 66.08 94.27C71.39 94.27 75.69 98.58 75.69 103.89C75.69 122.33 75.69 168.04 75.69 186.48Z" id="aq81soc5N" fill="white" fill-opacity="1" filter="url(#shadow16745780)"></path></g><use xlink:href="#a4nPPUG7W1" opacity="1" fill="#8f5933" fill-opacity="1"></use><g><use xlink:href="#a4nPPUG7W1" opacity="1" fill-opacity="0" stroke="#000000" stroke-width="1" stroke-opacity="0"></use></g></g><g><g><filter id="shadow186894" x="37.93" y="87.27" width="44.76" height="115.82" filterUnits="userSpaceOnUse" primitiveUnits="userSpaceOnUse"><feFlood></feFlood><feComposite in2="SourceAlpha" operator="in"></feComposite><feGaussianBlur stdDeviation="1"></feGaussianBlur><feOffset dx="0" dy="0" result="afterOffset"></feOffset><feFlood flood-color="#000000" flood-opacity="0.5"></feFlood><feComposite in2="afterOffset" operator="in"></feComposite><feMorphology operator="dilate" radius="0"></feMorphology><feComposite in2="SourceAlpha" operator="out"></feComposite></filter><path d="M75.69 186.48C75.69 191.79 71.39 196.09 66.08 196.09C61.85 196.09 58.77 196.09 54.55 196.09C49.24 196.09 44.93 191.79 44.93 186.48C44.93 168.04 44.93 122.33 44.93 103.89C44.93 98.58 49.24 94.27 54.55 94.27C58.77 94.27 61.85 94.27 66.08 94.27C71.39 94.27 75.69 98.58 75.69 103.89C75.69 122.33 75.69 168.04 75.69 186.48Z" id="agnSCyxtt" fill="white" fill-opacity="1" filter="url(#shadow186894)"></path></g><use xlink:href="#fYJAePoOQ" opacity="1" fill="#000000" fill-opacity="0"></use><g><use xlink:href="#fYJAePoOQ" opacity="1" fill-opacity="0" stroke="#000000" stroke-width="1" stroke-opacity="0"></use></g></g><g><g><filter id="shadow6170440" x="65.19" y="81.77" width="55.85" height="55.28" filterUnits="userSpaceOnUse" primitiveUnits="userSpaceOnUse"><feFlood></feFlood><feComposite in2="SourceAlpha" operator="in"></feComposite><feGaussianBlur stdDeviation="1"></feGaussianBlur><feOffset dx="0" dy="0" result="afterOffset"></feOffset><feFlood flood-color="#000000" flood-opacity="0.5"></feFlood><feComposite in2="afterOffset" operator="in"></feComposite><feMorphology operator="dilate" radius="0"></feMorphology><feComposite in2="SourceAlpha" operator="out"></feComposite></filter><path d="M72.19 109.41C72.19 98.02 81.57 88.77 93.11 88.77C104.66 88.77 114.04 98.02 114.04 109.41C114.04 120.8 104.66 130.05 93.11 130.05C81.57 130.05 72.19 120.8 72.19 109.41Z" id="a9ZVzhdLM" fill="white" fill-opacity="1" filter="url(#shadow6170440)"></path></g><use xlink:href="#a2BtFMellH" opacity="1" fill="#4ca81a" fill-opacity="1"></use><g><use xlink:href="#a2BtFMellH" opacity="1" fill-opacity="0" stroke="#000000" stroke-width="1" stroke-opacity="0"></use></g></g><g><g><filter id="shadow12147881" x="65.19" y="81.77" width="55.85" height="55.28" filterUnits="userSpaceOnUse" primitiveUnits="userSpaceOnUse"><feFlood></feFlood><feComposite in2="SourceAlpha" operator="in"></feComposite><feGaussianBlur stdDeviation="1"></feGaussianBlur><feOffset dx="0" dy="0" result="afterOffset"></feOffset><feFlood flood-color="#000000" flood-opacity="0.5"></feFlood><feComposite in2="afterOffset" operator="in"></feComposite><feMorphology operator="dilate" radius="0"></feMorphology><feComposite in2="SourceAlpha" operator="out"></feComposite></filter><path d="M72.19 109.41C72.19 98.02 81.57 88.77 93.11 88.77C104.66 88.77 114.04 98.02 114.04 109.41C114.04 120.8 104.66 130.05 93.11 130.05C81.57 130.05 72.19 120.8 72.19 109.41Z" id="b1PkocBStE" fill="white" fill-opacity="1" filter="url(#shadow12147881)"></path></g><use xlink:href="#c4gaBFxPKq" opacity="1" fill="#000000" fill-opacity="0"></use><g><use xlink:href="#c4gaBFxPKq" opacity="1" fill-opacity="0" stroke="#000000" stroke-width="1" stroke-opacity="0"></use></g></g><g><g><filter id="shadow8948034" x="0.63" y="81.77" width="55.85" height="55.28" filterUnits="userSpaceOnUse" primitiveUnits="userSpaceOnUse"><feFlood></feFlood><feComposite in2="SourceAlpha" operator="in"></feComposite><feGaussianBlur stdDeviation="1"></feGaussianBlur><feOffset dx="0" dy="0" result="afterOffset"></feOffset><feFlood flood-color="#000000" flood-opacity="0.5"></feFlood><feComposite in2="afterOffset" operator="in"></feComposite><feMorphology operator="dilate" radius="0"></feMorphology><feComposite in2="SourceAlpha" operator="out"></feComposite></filter><path d="M7.63 109.41C7.63 98.02 17 88.77 28.55 88.77C40.1 88.77 49.48 98.02 49.48 109.41C49.48 120.8 40.1 130.05 28.55 130.05C17 130.05 7.63 120.8 7.63 109.41Z" id="bMvLKmmk2" fill="white" fill-opacity="1" filter="url(#shadow8948034)"></path></g><use xlink:href="#blLpDiisp" opacity="1" fill="#4ca81a" fill-opacity="1"></use><g><use xlink:href="#blLpDiisp" opacity="1" fill-opacity="0" stroke="#000000" stroke-width="1" stroke-opacity="0"></use></g></g><g><g><filter id="shadow14882064" x="0.63" y="81.77" width="55.85" height="55.28" filterUnits="userSpaceOnUse" primitiveUnits="userSpaceOnUse"><feFlood></feFlood><feComposite in2="SourceAlpha" operator="in"></feComposite><feGaussianBlur stdDeviation="1"></feGaussianBlur><feOffset dx="0" dy="0" result="afterOffset"></feOffset><feFlood flood-color="#000000" flood-opacity="0.5"></feFlood><feComposite in2="afterOffset" operator="in"></feComposite><feMorphology operator="dilate" radius="0"></feMorphology><feComposite in2="SourceAlpha" operator="out"></feComposite></filter><path d="M7.63 109.41C7.63 98.02 17 88.77 28.55 88.77C40.1 88.77 49.48 98.02 49.48 109.41C49.48 120.8 40.1 130.05 28.55 130.05C17 130.05 7.63 120.8 7.63 109.41Z" id="aYnGfTIcj" fill="white" fill-opacity="1" filter="url(#shadow14882064)"></path></g><use xlink:href="#b2AgfvO6Ux" opacity="1" fill="#000000" fill-opacity="0"></use><g><use xlink:href="#b2AgfvO6Ux" opacity="1" fill-opacity="0" stroke="#000000" stroke-width="1" stroke-opacity="0"></use></g></g><g><g><filter id="shadow1217415" x="0.63" y="46.92" width="55.85" height="55.27" filterUnits="userSpaceOnUse" primitiveUnits="userSpaceOnUse"><feFlood></feFlood><feComposite in2="SourceAlpha" operator="in"></feComposite><feGaussianBlur stdDeviation="1"></feGaussianBlur><feOffset dx="0" dy="0" result="afterOffset"></feOffset><feFlood flood-color="#000000" flood-opacity="0.5"></feFlood><feComposite in2="afterOffset" operator="in"></feComposite><feMorphology operator="dilate" radius="0"></feMorphology><feComposite in2="SourceAlpha" operator="out"></feComposite></filter><path d="M7.63 74.55C7.63 63.16 17 53.92 28.55 53.92C40.1 53.92 49.48 63.16 49.48 74.55C49.48 85.94 40.1 95.19 28.55 95.19C17 95.19 7.63 85.94 7.63 74.55Z" id="l10ECIK4ve" fill="white" fill-opacity="1" filter="url(#shadow1217415)"></path></g><use xlink:href="#fKLdoiAj5" opacity="1" fill="#4ca81a" fill-opacity="1"></use><g><use xlink:href="#fKLdoiAj5" opacity="1" fill-opacity="0" stroke="#000000" stroke-width="1" stroke-opacity="0"></use></g></g><g><g><filter id="shadow6620777" x="0.63" y="46.92" width="55.85" height="55.27" filterUnits="userSpaceOnUse" primitiveUnits="userSpaceOnUse"><feFlood></feFlood><feComposite in2="SourceAlpha" operator="in"></feComposite><feGaussianBlur stdDeviation="1"></feGaussianBlur><feOffset dx="0" dy="0" result="afterOffset"></feOffset><feFlood flood-color="#000000" flood-opacity="0.5"></feFlood><feComposite in2="afterOffset" operator="in"></feComposite><feMorphology operator="dilate" radius="0"></feMorphology><feComposite in2="SourceAlpha" operator="out"></feComposite></filter><path d="M7.63 74.55C7.63 63.16 17 53.92 28.55 53.92C40.1 53.92 49.48 63.16 49.48 74.55C49.48 85.94 40.1 95.19 28.55 95.19C17 95.19 7.63 85.94 7.63 74.55Z" id="c16iQT5crH" fill="white" fill-opacity="1" filter="url(#shadow6620777)"></path></g><use xlink:href="#a1VQCj9nbn" opacity="1" fill="#000000" fill-opacity="0"></use><g><use xlink:href="#a1VQCj9nbn" opacity="1" fill-opacity="0" stroke="#000000" stroke-width="1" stroke-opacity="0"></use></g></g><g><g><filter id="shadow10750063" x="81.78" y="147.81" width="75.78" height="55.28" filterUnits="userSpaceOnUse" primitiveUnits="userSpaceOnUse"><feFlood></feFlood><feComposite in2="SourceAlpha" operator="in"></feComposite><feGaussianBlur stdDeviation="1"></feGaussianBlur><feOffset dx="0" dy="0" result="afterOffset"></feOffset><feFlood flood-color="#000000" flood-opacity="0.5"></feFlood><feComposite in2="afterOffset" operator="in"></feComposite><feMorphology operator="dilate" radius="0"></feMorphology><feComposite in2="SourceAlpha" operator="out"></feComposite></filter><path d="M91.33 154.83L91.45 154.84L91.69 154.9L91.91 154.97L92.02 155.01L92.13 155.07L92.33 155.19L92.42 155.25L92.52 155.32L92.61 155.4L92.77 155.56L92.84 155.65L92.98 155.84L93.1 156.04L93.2 156.26L93.24 156.37L93.27 156.48L93.3 156.6L93.33 156.72L93.34 156.84L93.36 157.09L93.36 157.79L93.37 157.78L93.47 157.77L93.56 157.77L93.66 157.76L145.99 157.76L145.99 156.96L146 156.84L146.04 156.6L146.1 156.37L146.14 156.26L146.19 156.15L146.24 156.04L146.29 155.94L146.36 155.84L146.42 155.75L146.5 155.65L146.57 155.56L146.74 155.4L146.83 155.32L146.92 155.25L147.01 155.19L147.21 155.07L147.32 155.01L147.43 154.97L147.54 154.93L147.66 154.9L147.77 154.87L147.89 154.84L148.01 154.83L148.26 154.81L148.28 154.81L148.41 154.82L148.53 154.83L148.65 154.84L148.89 154.9L149.11 154.97L149.23 155.01L149.43 155.13L149.63 155.25L149.72 155.32L149.81 155.4L149.89 155.48L149.97 155.56L150.05 155.65L150.19 155.84L150.31 156.04L150.35 156.15L150.4 156.26L150.44 156.37L150.48 156.48L150.51 156.6L150.53 156.72L150.54 156.84L150.55 156.96L150.56 157.09L150.56 193.82L150.55 193.94L150.54 194.07L150.53 194.18L150.51 194.31L150.48 194.42L150.44 194.54L150.4 194.65L150.31 194.86L150.19 195.06L150.05 195.25L149.97 195.34L149.89 195.42L149.81 195.51L149.72 195.58L149.63 195.65L149.53 195.72L149.43 195.78L149.33 195.84L149.23 195.89L149.11 195.94L149 195.98L148.89 196.01L148.77 196.04L148.65 196.06L148.53 196.08L148.41 196.09L148.14 196.09L148.01 196.08L147.89 196.06L147.77 196.04L147.66 196.01L147.54 195.98L147.43 195.94L147.32 195.89L147.21 195.84L147.11 195.78L147.01 195.72L146.74 195.51L146.57 195.34L146.5 195.25L146.42 195.16L146.36 195.06L146.29 194.96L146.24 194.86L146.19 194.76L146.14 194.65L146.1 194.54L146.07 194.42L146.04 194.31L146.02 194.18L146 194.07L145.99 193.94L145.99 183.22L93.36 183.22L93.36 193.82L93.34 194.07L93.33 194.18L93.3 194.31L93.27 194.42L93.24 194.54L93.2 194.65L93.1 194.86L92.98 195.06L92.84 195.25L92.77 195.34L92.61 195.51L92.52 195.58L92.42 195.65L92.33 195.72L92.23 195.78L92.13 195.84L91.91 195.94L91.8 195.98L91.69 196.01L91.57 196.04L91.45 196.06L91.33 196.08L91.21 196.09L90.93 196.09L90.81 196.08L90.69 196.06L90.57 196.04L90.34 195.98L90.22 195.94L90.12 195.89L90.01 195.84L89.91 195.78L89.81 195.72L89.72 195.65L89.62 195.58L89.53 195.51L89.37 195.34L89.29 195.25L89.22 195.16L89.16 195.06L89.09 194.96L89.04 194.86L88.98 194.76L88.94 194.65L88.9 194.54L88.87 194.42L88.84 194.31L88.81 194.18L88.8 194.07L88.78 193.94L88.78 156.96L88.8 156.84L88.81 156.72L88.84 156.6L88.9 156.37L88.94 156.26L88.98 156.15L89.04 156.04L89.09 155.94L89.16 155.84L89.22 155.75L89.29 155.65L89.37 155.56L89.53 155.4L89.62 155.32L89.72 155.25L89.81 155.19L90.01 155.07L90.12 155.01L90.22 154.97L90.34 154.93L90.45 154.9L90.69 154.84L90.81 154.83L91.05 154.81L91.08 154.81L91.21 154.82L91.33 154.83ZM93.36 178.63L145.99 178.63L145.99 175.27L93.36 175.27L93.36 178.63ZM93.36 170.68L145.99 170.68L145.99 168.69L93.36 168.69L93.36 170.68ZM145.99 164.1L145.99 162.35L93.66 162.35L93.37 162.34L93.36 162.33L93.36 164.11L145.99 164.1Z" id="biGdXv2RY" fill="white" fill-opacity="1" filter="url(#shadow10750063)"></path></g><use xlink:href="#mHmAKZ4YB" opacity="1" fill="#ce7c4a" fill-opacity="1"></use><g><use xlink:href="#mHmAKZ4YB" opacity="1" fill-opacity="0" stroke="#000000" stroke-width="1" stroke-opacity="0"></use></g></g><g><g><filter id="shadow2379830" x="81.78" y="147.81" width="75.78" height="55.28" filterUnits="userSpaceOnUse" primitiveUnits="userSpaceOnUse"><feFlood></feFlood><feComposite in2="SourceAlpha" operator="in"></feComposite><feGaussianBlur stdDeviation="1"></feGaussianBlur><feOffset dx="0" dy="0" result="afterOffset"></feOffset><feFlood flood-color="#000000" flood-opacity="0.5"></feFlood><feComposite in2="afterOffset" operator="in"></feComposite><feMorphology operator="dilate" radius="0"></feMorphology><feComposite in2="SourceAlpha" operator="out"></feComposite></filter><path d="M91.33 154.83L91.45 154.84L91.69 154.9L91.91 154.97L92.02 155.01L92.13 155.07L92.33 155.19L92.42 155.25L92.52 155.32L92.61 155.4L92.77 155.56L92.84 155.65L92.98 155.84L93.1 156.04L93.2 156.26L93.24 156.37L93.27 156.48L93.3 156.6L93.33 156.72L93.34 156.84L93.36 157.09L93.36 157.79L93.37 157.78L93.47 157.77L93.56 157.77L93.66 157.76L145.99 157.76L145.99 156.96L146 156.84L146.04 156.6L146.1 156.37L146.14 156.26L146.19 156.15L146.24 156.04L146.29 155.94L146.36 155.84L146.42 155.75L146.5 155.65L146.57 155.56L146.74 155.4L146.83 155.32L146.92 155.25L147.01 155.19L147.21 155.07L147.32 155.01L147.43 154.97L147.54 154.93L147.66 154.9L147.77 154.87L147.89 154.84L148.01 154.83L148.26 154.81L148.28 154.81L148.41 154.82L148.53 154.83L148.65 154.84L148.89 154.9L149.11 154.97L149.23 155.01L149.43 155.13L149.63 155.25L149.72 155.32L149.81 155.4L149.89 155.48L149.97 155.56L150.05 155.65L150.19 155.84L150.31 156.04L150.35 156.15L150.4 156.26L150.44 156.37L150.48 156.48L150.51 156.6L150.53 156.72L150.54 156.84L150.55 156.96L150.56 157.09L150.56 193.82L150.55 193.94L150.54 194.07L150.53 194.18L150.51 194.31L150.48 194.42L150.44 194.54L150.4 194.65L150.31 194.86L150.19 195.06L150.05 195.25L149.97 195.34L149.89 195.42L149.81 195.51L149.72 195.58L149.63 195.65L149.53 195.72L149.43 195.78L149.33 195.84L149.23 195.89L149.11 195.94L149 195.98L148.89 196.01L148.77 196.04L148.65 196.06L148.53 196.08L148.41 196.09L148.14 196.09L148.01 196.08L147.89 196.06L147.77 196.04L147.66 196.01L147.54 195.98L147.43 195.94L147.32 195.89L147.21 195.84L147.11 195.78L147.01 195.72L146.74 195.51L146.57 195.34L146.5 195.25L146.42 195.16L146.36 195.06L146.29 194.96L146.24 194.86L146.19 194.76L146.14 194.65L146.1 194.54L146.07 194.42L146.04 194.31L146.02 194.18L146 194.07L145.99 193.94L145.99 183.22L93.36 183.22L93.36 193.82L93.34 194.07L93.33 194.18L93.3 194.31L93.27 194.42L93.24 194.54L93.2 194.65L93.1 194.86L92.98 195.06L92.84 195.25L92.77 195.34L92.61 195.51L92.52 195.58L92.42 195.65L92.33 195.72L92.23 195.78L92.13 195.84L91.91 195.94L91.8 195.98L91.69 196.01L91.57 196.04L91.45 196.06L91.33 196.08L91.21 196.09L90.93 196.09L90.81 196.08L90.69 196.06L90.57 196.04L90.34 195.98L90.22 195.94L90.12 195.89L90.01 195.84L89.91 195.78L89.81 195.72L89.72 195.65L89.62 195.58L89.53 195.51L89.37 195.34L89.29 195.25L89.22 195.16L89.16 195.06L89.09 194.96L89.04 194.86L88.98 194.76L88.94 194.65L88.9 194.54L88.87 194.42L88.84 194.31L88.81 194.18L88.8 194.07L88.78 193.94L88.78 156.96L88.8 156.84L88.81 156.72L88.84 156.6L88.9 156.37L88.94 156.26L88.98 156.15L89.04 156.04L89.09 155.94L89.16 155.84L89.22 155.75L89.29 155.65L89.37 155.56L89.53 155.4L89.62 155.32L89.72 155.25L89.81 155.19L90.01 155.07L90.12 155.01L90.22 154.97L90.34 154.93L90.45 154.9L90.69 154.84L90.81 154.83L91.05 154.81L91.08 154.81L91.21 154.82L91.33 154.83ZM93.36 178.63L145.99 178.63L145.99 175.27L93.36 175.27L93.36 178.63ZM93.36 170.68L145.99 170.68L145.99 168.69L93.36 168.69L93.36 170.68ZM145.99 164.1L145.99 162.35L93.66 162.35L93.37 162.34L93.36 162.33L93.36 164.11L145.99 164.1Z" id="elcENCpAG" fill="white" fill-opacity="1" filter="url(#shadow2379830)"></path></g><use xlink:href="#aoNUgi29v" opacity="1" fill="#000000" fill-opacity="0"></use><g><use xlink:href="#aoNUgi29v" opacity="1" fill-opacity="0" stroke="#000000" stroke-width="1" stroke-opacity="0"></use></g></g><g><g><filter id="shadow11367030" x="81.78" y="1.82" width="102.8" height="70.28" filterUnits="userSpaceOnUse" primitiveUnits="userSpaceOnUse"><feFlood></feFlood><feComposite in2="SourceAlpha" operator="in"></feComposite><feGaussianBlur stdDeviation="1"></feGaussianBlur><feOffset dx="0" dy="0" result="afterOffset"></feOffset><feFlood flood-color="#000000" flood-opacity="0.5"></feFlood><feComposite in2="afterOffset" operator="in"></feComposite><feMorphology operator="dilate" radius="0"></feMorphology><feComposite in2="SourceAlpha" operator="out"></feComposite></filter><path d="M163.09 32.86C171.44 34.76 177.58 41.13 177.58 48.69C177.58 48.69 177.58 48.69 177.58 48.69C177.58 57.75 168.76 65.1 157.89 65.1C152.94 65.1 113.42 65.1 108.48 65.1C97.6 65.1 88.78 57.75 88.78 48.69C88.78 48.69 88.78 48.69 88.78 48.69C88.78 40.79 95.49 34.19 104.41 32.63C105.21 24.07 111.9 17.38 120.04 17.38C121.82 17.38 123.54 17.7 125.14 18.3C128.95 12.56 135.16 8.82 142.19 8.82C153.75 8.82 163.13 18.95 163.13 31.45C163.13 31.93 163.12 32.4 163.09 32.86Z" id="bn0KyfPc7" fill="white" fill-opacity="1" filter="url(#shadow11367030)"></path></g><use xlink:href="#b1wmhYU6c1" opacity="1" fill="#e4e2e0" fill-opacity="1"></use><g><use xlink:href="#b1wmhYU6c1" opacity="1" fill-opacity="0" stroke="#000000" stroke-width="1" stroke-opacity="0"></use></g></g><g><g><filter id="shadow11472131" x="81.78" y="1.82" width="102.8" height="70.28" filterUnits="userSpaceOnUse" primitiveUnits="userSpaceOnUse"><feFlood></feFlood><feComposite in2="SourceAlpha" operator="in"></feComposite><feGaussianBlur stdDeviation="1"></feGaussianBlur><feOffset dx="0" dy="0" result="afterOffset"></feOffset><feFlood flood-color="#000000" flood-opacity="0.5"></feFlood><feComposite in2="afterOffset" operator="in"></feComposite><feMorphology operator="dilate" radius="0"></feMorphology><feComposite in2="SourceAlpha" operator="out"></feComposite></filter><path d="M163.09 32.86C171.44 34.76 177.58 41.13 177.58 48.69C177.58 48.69 177.58 48.69 177.58 48.69C177.58 57.75 168.76 65.1 157.89 65.1C152.94 65.1 113.42 65.1 108.48 65.1C97.6 65.1 88.78 57.75 88.78 48.69C88.78 48.69 88.78 48.69 88.78 48.69C88.78 40.79 95.49 34.19 104.41 32.63C105.21 24.07 111.9 17.38 120.04 17.38C121.82 17.38 123.54 17.7 125.14 18.3C128.95 12.56 135.16 8.82 142.19 8.82C153.75 8.82 163.13 18.95 163.13 31.45C163.13 31.93 163.12 32.4 163.09 32.86Z" id="eF1wpZ3Vp" fill="white" fill-opacity="1" filter="url(#shadow11472131)"></path></g><use xlink:href="#akIO5lQ5P" opacity="1" fill="#000000" fill-opacity="0"></use><g><use xlink:href="#akIO5lQ5P" opacity="1" fill-opacity="0" stroke="#000000" stroke-width="1" stroke-opacity="0"></use></g></g><g><g><filter id="shadow1113498" x="60.45" y="46.92" width="55.85" height="55.27" filterUnits="userSpaceOnUse" primitiveUnits="userSpaceOnUse"><feFlood></feFlood><feComposite in2="SourceAlpha" operator="in"></feComposite><feGaussianBlur stdDeviation="1"></feGaussianBlur><feOffset dx="0" dy="0" result="afterOffset"></feOffset><feFlood flood-color="#000000" flood-opacity="0.5"></feFlood><feComposite in2="afterOffset" operator="in"></feComposite><feMorphology operator="dilate" radius="0"></feMorphology><feComposite in2="SourceAlpha" operator="out"></feComposite></filter><path d="M67.45 74.55C67.45 63.16 76.83 53.92 88.37 53.92C99.92 53.92 109.3 63.16 109.3 74.55C109.3 85.94 99.92 95.19 88.37 95.19C76.83 95.19 67.45 85.94 67.45 74.55Z" id="c2Cbcg0vfK" fill="white" fill-opacity="1" filter="url(#shadow1113498)"></path></g><use xlink:href="#a8NLfC4DZ3" opacity="1" fill="#4ca81a" fill-opacity="1"></use><g><use xlink:href="#a8NLfC4DZ3" opacity="1" fill-opacity="0" stroke="#000000" stroke-width="1" stroke-opacity="0"></use></g></g><g><g><filter id="shadow15509733" x="60.45" y="46.92" width="55.85" height="55.27" filterUnits="userSpaceOnUse" primitiveUnits="userSpaceOnUse"><feFlood></feFlood><feComposite in2="SourceAlpha" operator="in"></feComposite><feGaussianBlur stdDeviation="1"></feGaussianBlur><feOffset dx="0" dy="0" result="afterOffset"></feOffset><feFlood flood-color="#000000" flood-opacity="0.5"></feFlood><feComposite in2="afterOffset" operator="in"></feComposite><feMorphology operator="dilate" radius="0"></feMorphology><feComposite in2="SourceAlpha" operator="out"></feComposite></filter><path d="M67.45 74.55C67.45 63.16 76.83 53.92 88.37 53.92C99.92 53.92 109.3 63.16 109.3 74.55C109.3 85.94 99.92 95.19 88.37 95.19C76.83 95.19 67.45 85.94 67.45 74.55Z" id="fb5tpaeqt" fill="white" fill-opacity="1" filter="url(#shadow15509733)"></path></g><use xlink:href="#jwCyVHkeE" opacity="1" fill="#000000" fill-opacity="0"></use><g><use xlink:href="#jwCyVHkeE" opacity="1" fill-opacity="0" stroke="#000000" stroke-width="1" stroke-opacity="0"></use></g></g><g><g><filter id="shadow4967769" x="32.47" y="26.28" width="55.85" height="55.27" filterUnits="userSpaceOnUse" primitiveUnits="userSpaceOnUse"><feFlood></feFlood><feComposite in2="SourceAlpha" operator="in"></feComposite><feGaussianBlur stdDeviation="1"></feGaussianBlur><feOffset dx="0" dy="0" result="afterOffset"></feOffset><feFlood flood-color="#000000" flood-opacity="0.5"></feFlood><feComposite in2="afterOffset" operator="in"></feComposite><feMorphology operator="dilate" radius="0"></feMorphology><feComposite in2="SourceAlpha" operator="out"></feComposite></filter><path d="M39.47 53.92C39.47 42.53 48.85 33.28 60.4 33.28C71.95 33.28 81.32 42.53 81.32 53.92C81.32 65.31 71.95 74.55 60.4 74.55C48.85 74.55 39.47 65.31 39.47 53.92Z" id="b1Qf69HCe" fill="white" fill-opacity="1" filter="url(#shadow4967769)"></path></g><use xlink:href="#d2L5A9XYx5" opacity="1" fill="#4ca81a" fill-opacity="1"></use><g><use xlink:href="#d2L5A9XYx5" opacity="1" fill-opacity="0" stroke="#000000" stroke-width="1" stroke-opacity="0"></use></g></g><g><g><filter id="shadow2389521" x="32.47" y="26.28" width="55.85" height="55.27" filterUnits="userSpaceOnUse" primitiveUnits="userSpaceOnUse"><feFlood></feFlood><feComposite in2="SourceAlpha" operator="in"></feComposite><feGaussianBlur stdDeviation="1"></feGaussianBlur><feOffset dx="0" dy="0" result="afterOffset"></feOffset><feFlood flood-color="#000000" flood-opacity="0.5"></feFlood><feComposite in2="afterOffset" operator="in"></feComposite><feMorphology operator="dilate" radius="0"></feMorphology><feComposite in2="SourceAlpha" operator="out"></feComposite></filter><path d="M39.47 53.92C39.47 42.53 48.85 33.28 60.4 33.28C71.95 33.28 81.32 42.53 81.32 53.92C81.32 65.31 71.95 74.55 60.4 74.55C48.85 74.55 39.47 65.31 39.47 53.92Z" id="a2s8Rwjmln" fill="white" fill-opacity="1" filter="url(#shadow2389521)"></path></g><use xlink:href="#c451TadwkU" opacity="1" fill="#000000" fill-opacity="0"></use><g><use xlink:href="#c451TadwkU" opacity="1" fill-opacity="0" stroke="#000000" stroke-width="1" stroke-opacity="0"></use></g></g><g><g><filter id="shadow7111625" x="32.47" y="61.13" width="55.85" height="55.28" filterUnits="userSpaceOnUse" primitiveUnits="userSpaceOnUse"><feFlood></feFlood><feComposite in2="SourceAlpha" operator="in"></feComposite><feGaussianBlur stdDeviation="1"></feGaussianBlur><feOffset dx="0" dy="0" result="afterOffset"></feOffset><feFlood flood-color="#000000" flood-opacity="0.5"></feFlood><feComposite in2="afterOffset" operator="in"></feComposite><feMorphology operator="dilate" radius="0"></feMorphology><feComposite in2="SourceAlpha" operator="out"></feComposite></filter><path d="M39.47 88.77C39.47 77.38 48.85 68.13 60.4 68.13C71.95 68.13 81.32 77.38 81.32 88.77C81.32 100.16 71.95 109.41 60.4 109.41C48.85 109.41 39.47 100.16 39.47 88.77Z" id="duA2VO04D" fill="white" fill-opacity="1" filter="url(#shadow7111625)"></path></g><use xlink:href="#d1Hmsfbjy9" opacity="1" fill="#4ca81a" fill-opacity="1"></use><g><use xlink:href="#d1Hmsfbjy9" opacity="1" fill-opacity="0" stroke="#000000" stroke-width="1" stroke-opacity="0"></use></g></g><g><g><filter id="shadow2885634" x="32.47" y="61.13" width="55.85" height="55.28" filterUnits="userSpaceOnUse" primitiveUnits="userSpaceOnUse"><feFlood></feFlood><feComposite in2="SourceAlpha" operator="in"></feComposite><feGaussianBlur stdDeviation="1"></feGaussianBlur><feOffset dx="0" dy="0" result="afterOffset"></feOffset><feFlood flood-color="#000000" flood-opacity="0.5"></feFlood><feComposite in2="afterOffset" operator="in"></feComposite><feMorphology operator="dilate" radius="0"></feMorphology><feComposite in2="SourceAlpha" operator="out"></feComposite></filter><path d="M39.47 88.77C39.47 77.38 48.85 68.13 60.4 68.13C71.95 68.13 81.32 77.38 81.32 88.77C81.32 100.16 71.95 109.41 60.4 109.41C48.85 109.41 39.47 100.16 39.47 88.77Z" id="bkE10PlJR" fill="white" fill-opacity="1" filter="url(#shadow2885634)"></path></g><use xlink:href="#d6sDvGxQQo" opacity="1" fill="#000000" fill-opacity="0"></use><g><use xlink:href="#d6sDvGxQQo" opacity="1" fill-opacity="0" stroke="#000000" stroke-width="1" stroke-opacity="0"></use></g></g><g><g><filter id="shadow3656367" x="81.78" y="163.35" width="75.78" height="39.74" filterUnits="userSpaceOnUse" primitiveUnits="userSpaceOnUse"><feFlood></feFlood><feComposite in2="SourceAlpha" operator="in"></feComposite><feGaussianBlur stdDeviation="1"></feGaussianBlur><feOffset dx="0" dy="0" result="afterOffset"></feOffset><feFlood flood-color="#000000" flood-opacity="0.5"></feFlood><feComposite in2="afterOffset" operator="in"></feComposite><feMorphology operator="dilate" radius="0"></feMorphology><feComposite in2="SourceAlpha" operator="out"></feComposite></filter><path d="M149.61 170.42L149.72 170.47L149.82 170.52L149.92 170.58L150.01 170.65L150.1 170.72L150.18 170.8L150.26 170.89L150.32 170.98L150.38 171.08L150.44 171.18L150.48 171.3L150.51 171.41L150.54 171.52L150.55 171.64L150.56 171.76L150.56 180.91L150.56 180.92L150.56 180.94L150.56 194.67L150.55 194.8L150.54 194.92L150.51 195.03L150.48 195.15L150.44 195.25L150.38 195.35L150.32 195.45L150.26 195.55L150.18 195.64L150.1 195.71L150.02 195.79L149.92 195.85L149.82 195.92L149.72 195.97L149.61 196.01L149.5 196.04L149.38 196.07L149.26 196.08L149.14 196.09L147.43 196.09L147.3 196.08L147.19 196.07L147.07 196.04L146.96 196.01L146.85 195.97L146.74 195.92L146.65 195.85L146.55 195.79L146.47 195.72L146.38 195.64L146.31 195.55L146.24 195.45L146.18 195.35L146.13 195.25L146.09 195.15L146.05 195.03L146.03 194.92L146.01 194.8L146.01 194.67L146.01 183.22L93.66 183.22L93.56 183.22L93.47 183.21L93.37 183.2L93.33 183.19L93.33 194.67L93.33 194.8L93.31 194.92L93.28 195.03L93.26 195.15L93.21 195.25L93.16 195.35L93.1 195.45L93.03 195.55L92.95 195.64L92.88 195.71L92.79 195.79L92.69 195.85L92.59 195.92L92.49 195.97L92.38 196.01L92.27 196.04L92.16 196.07L92.04 196.08L91.92 196.09L90.2 196.09L90.08 196.08L89.96 196.07L89.85 196.04L89.73 196.01L89.62 195.97L89.52 195.92L89.42 195.85L89.33 195.79L89.24 195.72L89.16 195.64L89.08 195.55L89.02 195.45L88.96 195.35L88.91 195.25L88.87 195.15L88.83 195.03L88.8 194.92L88.79 194.8L88.78 194.67L88.78 171.76L88.79 171.64L88.8 171.52L88.83 171.41L88.86 171.3L88.91 171.18L88.95 171.08L89.02 170.98L89.08 170.89L89.16 170.8L89.24 170.72L89.33 170.65L89.42 170.58L89.52 170.52L89.62 170.47L89.73 170.43L89.85 170.39L89.96 170.36L90.08 170.35L90.2 170.35L91.92 170.35L92.03 170.35L92.16 170.36L92.27 170.39L92.38 170.42L92.49 170.47L92.59 170.52L92.69 170.58L92.79 170.65L92.88 170.72L92.95 170.8L93.03 170.89L93.1 170.98L93.16 171.08L93.21 171.18L93.25 171.3L93.28 171.41L93.31 171.52L93.33 171.64L93.33 171.76L93.33 178.66L93.37 178.65L93.47 178.64L93.56 178.63L93.66 178.63L146.01 178.63L146.01 171.76L146.01 171.64L146.03 171.52L146.05 171.41L146.09 171.3L146.13 171.18L146.18 171.08L146.24 170.98L146.31 170.89L146.38 170.8L146.47 170.72L146.55 170.65L146.64 170.58L146.74 170.52L146.85 170.47L146.96 170.43L147.07 170.39L147.19 170.36L147.3 170.35L147.43 170.35L149.14 170.35L149.26 170.35L149.38 170.36L149.5 170.39L149.61 170.42Z" id="huC34jmLf" fill="white" fill-opacity="1" filter="url(#shadow3656367)"></path></g><use xlink:href="#b1p0kFFHA" opacity="1" fill="#ba6e40" fill-opacity="1"></use><g><use xlink:href="#b1p0kFFHA" opacity="1" fill-opacity="0" stroke="#000000" stroke-width="1" stroke-opacity="0"></use></g></g><g><g><filter id="shadow8191022" x="81.78" y="163.35" width="75.78" height="39.74" filterUnits="userSpaceOnUse" primitiveUnits="userSpaceOnUse"><feFlood></feFlood><feComposite in2="SourceAlpha" operator="in"></feComposite><feGaussianBlur stdDeviation="1"></feGaussianBlur><feOffset dx="0" dy="0" result="afterOffset"></feOffset><feFlood flood-color="#000000" flood-opacity="0.5"></feFlood><feComposite in2="afterOffset" operator="in"></feComposite><feMorphology operator="dilate" radius="0"></feMorphology><feComposite in2="SourceAlpha" operator="out"></feComposite></filter><path d="M149.61 170.42L149.72 170.47L149.82 170.52L149.92 170.58L150.01 170.65L150.1 170.72L150.18 170.8L150.26 170.89L150.32 170.98L150.38 171.08L150.44 171.18L150.48 171.3L150.51 171.41L150.54 171.52L150.55 171.64L150.56 171.76L150.56 180.91L150.56 180.92L150.56 180.94L150.56 194.67L150.55 194.8L150.54 194.92L150.51 195.03L150.48 195.15L150.44 195.25L150.38 195.35L150.32 195.45L150.26 195.55L150.18 195.64L150.1 195.71L150.02 195.79L149.92 195.85L149.82 195.92L149.72 195.97L149.61 196.01L149.5 196.04L149.38 196.07L149.26 196.08L149.14 196.09L147.43 196.09L147.3 196.08L147.19 196.07L147.07 196.04L146.96 196.01L146.85 195.97L146.74 195.92L146.65 195.85L146.55 195.79L146.47 195.72L146.38 195.64L146.31 195.55L146.24 195.45L146.18 195.35L146.13 195.25L146.09 195.15L146.05 195.03L146.03 194.92L146.01 194.8L146.01 194.67L146.01 183.22L93.66 183.22L93.56 183.22L93.47 183.21L93.37 183.2L93.33 183.19L93.33 194.67L93.33 194.8L93.31 194.92L93.28 195.03L93.26 195.15L93.21 195.25L93.16 195.35L93.1 195.45L93.03 195.55L92.95 195.64L92.88 195.71L92.79 195.79L92.69 195.85L92.59 195.92L92.49 195.97L92.38 196.01L92.27 196.04L92.16 196.07L92.04 196.08L91.92 196.09L90.2 196.09L90.08 196.08L89.96 196.07L89.85 196.04L89.73 196.01L89.62 195.97L89.52 195.92L89.42 195.85L89.33 195.79L89.24 195.72L89.16 195.64L89.08 195.55L89.02 195.45L88.96 195.35L88.91 195.25L88.87 195.15L88.83 195.03L88.8 194.92L88.79 194.8L88.78 194.67L88.78 171.76L88.79 171.64L88.8 171.52L88.83 171.41L88.86 171.3L88.91 171.18L88.95 171.08L89.02 170.98L89.08 170.89L89.16 170.8L89.24 170.72L89.33 170.65L89.42 170.58L89.52 170.52L89.62 170.47L89.73 170.43L89.85 170.39L89.96 170.36L90.08 170.35L90.2 170.35L91.92 170.35L92.03 170.35L92.16 170.36L92.27 170.39L92.38 170.42L92.49 170.47L92.59 170.52L92.69 170.58L92.79 170.65L92.88 170.72L92.95 170.8L93.03 170.89L93.1 170.98L93.16 171.08L93.21 171.18L93.25 171.3L93.28 171.41L93.31 171.52L93.33 171.64L93.33 171.76L93.33 178.66L93.37 178.65L93.47 178.64L93.56 178.63L93.66 178.63L146.01 178.63L146.01 171.76L146.01 171.64L146.03 171.52L146.05 171.41L146.09 171.3L146.13 171.18L146.18 171.08L146.24 170.98L146.31 170.89L146.38 170.8L146.47 170.72L146.55 170.65L146.64 170.58L146.74 170.52L146.85 170.47L146.96 170.43L147.07 170.39L147.19 170.36L147.3 170.35L147.43 170.35L149.14 170.35L149.26 170.35L149.38 170.36L149.5 170.39L149.61 170.42Z" id="d93f7R6uJ" fill="white" fill-opacity="1" filter="url(#shadow8191022)"></path></g><use xlink:href="#bguwYoAvi" opacity="1" fill="#000000" fill-opacity="0"></use><g><use xlink:href="#bguwYoAvi" opacity="1" fill-opacity="0" stroke="#000000" stroke-width="1" stroke-opacity="0"></use></g></g></g></g></svg>