<?xml version="1.0" encoding="UTF-8" standalone="no"?>
<!DOCTYPE svg PUBLIC "-//W3C//DTD SVG 1.1//EN" "http://www.w3.org/Graphics/SVG/1.1/DTD/svg11.dtd">
<svg version="1.1" xmlns="http://www.w3.org/2000/svg" xmlns:xlink="http://www.w3.org/1999/xlink" preserveAspectRatio="xMidYMid meet" viewBox="0 0 400 269" width="400" height="269"><defs><path d="M15.49 18.83L15.58 18.32L15.69 17.82L15.84 17.34L16.01 16.87L16.21 16.41L16.44 15.96L16.7 15.54L16.98 15.13L17.28 14.74L17.61 14.37L17.96 14.02L18.33 13.69L18.72 13.39L19.13 13.11L19.56 12.85L20 12.62L20.46 12.42L20.93 12.24L21.42 12.1L21.92 11.98L22.43 11.9L22.95 11.85L23.48 11.83L43.67 11.83L44.2 11.85L44.72 11.9L45.23 11.98L45.73 12.1L46.22 12.24L46.69 12.42L47.15 12.62L47.59 12.85L48.02 13.11L48.43 13.39L48.82 13.69L49.19 14.02L49.54 14.37L49.86 14.74L50.17 15.13L50.45 15.54L50.71 15.96L50.94 16.41L51.14 16.87L51.31 17.34L51.46 17.82L51.57 18.32L51.65 18.83L51.71 19.35L51.72 19.88L51.72 34.5L15.43 34.5L15.43 19.88L15.44 19.35L15.44 19.35L15.49 18.83Z" id="g2iruJVBSD"></path><path d="M42.65 208.29L51.72 191.93L33.57 191.93L15.43 191.93L24.5 208.29L33.57 224.65L42.65 208.29Z" id="aVyeR692w"></path><path d="M15.43 34.5L15.43 19.88L15.44 19.35L15.49 18.83L15.58 18.32L15.69 17.82L15.84 17.34L16.01 16.87L16.21 16.41L16.44 15.96L16.7 15.54L16.98 15.13L17.28 14.74L17.61 14.37L17.96 14.02L18.33 13.69L18.72 13.39L19.13 13.11L19.56 12.85L20 12.62L20.46 12.42L20.93 12.24L21.42 12.1L21.92 11.98L22.43 11.9L22.95 11.85L23.48 11.83L33.57 11.83L33.57 34.5L15.43 34.5Z" id="a5yMdz2fu"></path><path d="M41.42 210.51L25.73 210.51L24.5 208.29L15.43 191.93L51.72 191.93L42.65 208.29L41.42 210.51Z" id="d4xuBWOTti"></path><path d="M15.43 48.96L51.72 48.96L51.72 191.93L15.43 191.93L15.43 48.96Z" id="b3dCxw9Q"></path><path d="M15.43 191.93L15.43 48.96L26.54 48.96L26.54 191.93L15.43 191.93Z" id="bdQfM5SfR"></path><path d="M15.43 34.5L51.72 34.5L51.72 48.96L15.43 48.96L15.43 34.5Z" id="d25h3hymuU"></path><path d="M15.43 48.96L15.43 34.5L33.57 34.5L33.57 48.96L15.43 48.96Z" id="f1SyGnYqjx"></path><path d="M101.75 8.95L101.89 8.97L102.02 8.98L102.14 9.01L102.27 9.04L102.4 9.07L102.52 9.11L102.64 9.15L102.76 9.2L102.87 9.25L102.99 9.31L103.1 9.37L103.2 9.43L103.31 9.5L103.41 9.57L103.51 9.65L103.61 9.73L103.7 9.81L103.79 9.9L103.88 9.99L103.96 10.08L104.04 10.18L104.12 10.28L104.19 10.38L104.26 10.48L104.32 10.59L104.38 10.7L104.44 10.82L104.49 10.93L104.54 11.05L104.58 11.17L104.62 11.29L104.65 11.42L104.68 11.54L104.7 11.67L104.72 11.8L104.74 11.93L104.74 12.07L104.75 12.2L104.75 109.3L104.74 109.43L104.74 109.57L104.72 109.7L104.7 109.83L104.68 109.96L104.65 110.08L104.62 110.21L104.58 110.33L104.54 110.45L104.49 110.57L104.44 110.68L104.38 110.8L104.32 110.91L104.26 111.02L104.19 111.12L104.12 111.22L104.04 111.32L103.96 111.42L103.88 111.51L103.79 111.6L103.7 111.69L103.61 111.77L103.51 111.85L103.41 111.93L103.31 112L103.2 112.07L103.1 112.13L102.99 112.19L102.87 112.25L102.76 112.3L102.64 112.35L102.52 112.39L102.4 112.43L102.27 112.46L102.14 112.49L102.02 112.52L101.89 112.53L101.75 112.55L101.62 112.56L101.49 112.56L101.25 112.56L101.25 221.95L101.24 222.06L101.24 222.17L101.23 222.28L101.21 222.39L101.19 222.5L101.17 222.6L101.14 222.7L101.11 222.8L101.07 222.9L101.03 223L100.99 223.1L100.94 223.19L100.89 223.28L100.84 223.37L100.79 223.46L100.73 223.55L100.66 223.63L100.6 223.71L100.53 223.79L100.46 223.86L100.38 223.93L100.3 224L100.22 224.07L100.14 224.13L100.06 224.19L99.97 224.25L99.88 224.3L99.79 224.35L99.69 224.4L99.6 224.44L99.5 224.48L99.4 224.51L99.3 224.55L99.19 224.57L99.09 224.6L98.98 224.62L98.88 224.63L98.77 224.64L98.66 224.65L98.55 224.65L67.65 224.65L67.54 224.65L67.43 224.64L67.32 224.63L67.21 224.62L67.11 224.6L67 224.57L66.9 224.55L66.8 224.51L66.7 224.48L66.6 224.44L66.5 224.4L66.41 224.35L66.32 224.3L66.23 224.25L66.14 224.19L66.06 224.13L65.97 224.07L65.89 224L65.82 223.93L65.74 223.86L65.67 223.79L65.6 223.71L65.53 223.63L65.47 223.55L65.41 223.46L65.35 223.37L65.3 223.28L65.25 223.19L65.21 223.1L65.16 223L65.12 222.9L65.09 222.8L65.06 222.7L65.03 222.6L65 222.5L64.99 222.39L64.97 222.28L64.96 222.17L64.95 222.06L64.95 221.95L64.95 112.56L64.21 112.56L64.07 112.56L63.94 112.55L63.81 112.53L63.68 112.52L63.55 112.49L63.43 112.46L63.3 112.43L63.18 112.39L63.06 112.35L62.94 112.3L62.82 112.25L62.71 112.19L62.6 112.13L62.49 112.07L62.39 112L62.28 111.93L62.18 111.85L62.09 111.77L61.99 111.69L61.9 111.6L61.82 111.51L61.73 111.42L61.65 111.32L61.58 111.22L61.51 111.12L61.44 111.02L61.37 110.91L61.31 110.8L61.26 110.68L61.21 110.57L61.16 110.45L61.12 110.33L61.08 110.21L61.04 110.08L61.02 109.96L60.99 109.83L60.97 109.7L60.96 109.57L60.95 109.43L60.95 109.3L60.95 12.2L60.95 12.07L60.96 11.93L60.97 11.8L60.99 11.67L61.02 11.54L61.04 11.42L61.08 11.29L61.12 11.17L61.16 11.05L61.21 10.93L61.26 10.82L61.31 10.7L61.37 10.59L61.44 10.48L61.51 10.38L61.58 10.28L61.65 10.18L61.73 10.08L61.82 9.99L61.9 9.9L61.99 9.81L62.09 9.73L62.18 9.65L62.28 9.57L62.39 9.5L62.49 9.43L62.6 9.37L62.71 9.31L62.82 9.25L62.94 9.2L63.06 9.15L63.18 9.11L63.3 9.07L63.43 9.04L63.55 9.01L63.68 8.98L63.81 8.97L63.94 8.95L64.07 8.94L64.21 8.94L101.49 8.94L101.62 8.94L101.75 8.95Z" id="bSygx6krq"></path><path d="M37.49 62.22C37.49 66.21 35.74 69.45 33.57 69.45C31.41 69.45 29.65 66.21 29.65 62.22C29.65 58.23 31.41 54.99 33.57 54.99C35.74 54.99 37.49 58.23 37.49 62.22Z" id="beaPgpkj6"></path><path d="M104.74 109.43L104.74 109.57L104.72 109.7L104.7 109.83L104.68 109.96L104.65 110.08L104.62 110.21L104.58 110.33L104.54 110.45L104.49 110.57L104.44 110.68L104.38 110.8L104.32 110.91L104.26 111.02L104.19 111.12L104.12 111.22L104.04 111.32L103.96 111.42L103.88 111.51L103.79 111.6L103.7 111.69L103.61 111.77L103.51 111.85L103.41 111.93L103.31 112L103.2 112.07L103.1 112.13L102.99 112.19L102.87 112.25L102.76 112.3L102.64 112.35L102.52 112.39L102.4 112.43L102.27 112.46L102.14 112.49L102.02 112.52L101.89 112.53L101.75 112.55L101.62 112.56L101.49 112.56L64.21 112.56L64.07 112.56L63.94 112.55L63.81 112.53L63.68 112.52L63.55 112.49L63.43 112.46L63.3 112.43L63.18 112.39L63.06 112.35L62.94 112.3L62.82 112.25L62.71 112.19L62.6 112.13L62.49 112.07L62.39 112L62.28 111.93L62.18 111.85L62.09 111.77L61.99 111.69L61.9 111.6L61.82 111.51L61.73 111.42L61.65 111.32L61.58 111.22L61.51 111.12L61.44 111.02L61.37 110.91L61.31 110.8L61.26 110.68L61.21 110.57L61.16 110.45L61.12 110.33L61.08 110.21L61.04 110.08L61.02 109.96L60.99 109.83L60.97 109.7L60.96 109.57L60.95 109.43L60.95 109.3L60.95 104.04L104.75 104.04L104.75 109.3L104.74 109.43Z" id="e6tXdLSb"></path><path d="M83.95 16.02L84.25 16.05L84.54 16.1L84.82 16.16L85.1 16.24L85.38 16.32L85.65 16.42L85.91 16.54L86.17 16.66L86.42 16.79L86.66 16.94L86.9 17.09L87.13 17.26L87.35 17.44L87.56 17.62L87.77 17.82L87.96 18.02L88.15 18.23L88.32 18.46L88.49 18.68L88.65 18.92L88.79 19.16L88.93 19.42L89.05 19.67L89.16 19.94L89.26 20.21L89.35 20.48L89.42 20.76L89.49 21.05L89.53 21.34L89.57 21.64L89.59 21.93L89.6 22.24L89.6 87.74L89.59 88.04L89.57 88.34L89.53 88.63L89.49 88.92L89.42 89.21L89.35 89.49L89.26 89.77L89.16 90.04L89.05 90.3L88.93 90.56L88.79 90.81L88.65 91.05L88.49 91.29L88.32 91.52L88.15 91.74L87.96 91.95L87.77 92.16L87.56 92.35L87.35 92.54L87.13 92.71L86.9 92.88L86.66 93.04L86.42 93.18L86.17 93.32L85.91 93.44L85.65 93.55L85.38 93.65L85.1 93.74L84.82 93.81L84.54 93.87L84.25 93.92L83.95 93.96L83.65 93.98L83.35 93.99L82.85 93.99L82.55 93.98L82.25 93.96L81.95 93.92L81.66 93.87L81.37 93.81L81.09 93.74L80.82 93.65L80.55 93.55L80.28 93.44L80.03 93.32L79.78 93.18L79.53 93.04L79.3 92.88L79.07 92.71L78.85 92.54L78.63 92.35L78.43 92.16L78.23 91.95L78.05 91.74L77.87 91.52L77.71 91.29L77.55 91.05L77.4 90.81L77.27 90.56L77.15 90.3L77.03 90.04L76.94 89.77L76.85 89.49L76.77 89.21L76.71 88.92L76.66 88.63L76.63 88.34L76.61 88.04L76.6 87.74L76.6 22.24L76.61 21.93L76.63 21.64L76.66 21.34L76.71 21.05L76.77 20.76L76.85 20.48L76.94 20.21L77.03 19.94L77.15 19.67L77.27 19.42L77.4 19.16L77.55 18.92L77.71 18.68L77.87 18.46L78.05 18.23L78.23 18.02L78.43 17.82L78.63 17.62L78.85 17.44L79.07 17.26L79.3 17.09L79.53 16.94L79.78 16.79L80.03 16.66L80.28 16.54L80.55 16.42L80.82 16.32L81.09 16.24L81.37 16.16L81.66 16.1L81.95 16.05L82.25 16.02L82.55 15.99L82.85 15.99L83.35 15.99L83.65 15.99L83.95 16.02ZM80.12 74.39L79.71 74.85L79.44 75.42L79.35 76.09L79.74 77.82L80.67 79.18L81.78 80.15L82.71 80.75L83.1 80.99L83.49 80.75L84.42 80.15L85.53 79.18L86.46 77.82L86.85 76.09L86.75 75.42L86.49 74.85L86.08 74.39L85.57 74.09L84.97 73.99L84.38 74.08L83.87 74.35L83.46 74.77L83.19 75.32L83.1 75.97L83 75.32L82.74 74.77L82.33 74.35L81.82 74.08L81.22 73.99L80.63 74.09L80.12 74.39Z" id="cMcsMHRtC"></path><path d="M133.95 192.57C133.95 182.95 129.25 175.15 123.45 175.15C117.65 175.15 112.95 182.95 112.95 192.57C112.95 202.19 117.65 209.99 123.45 224.65C129.25 209.99 133.95 202.19 133.95 192.57Z" id="cSyFYTaLf"></path><path d="M67.65 224.65L67.54 224.65L67.43 224.64L67.32 224.63L67.21 224.62L67.11 224.6L67 224.57L66.9 224.55L66.8 224.51L66.7 224.48L66.6 224.44L66.5 224.4L66.41 224.35L66.32 224.3L66.23 224.25L66.14 224.19L66.06 224.13L65.97 224.07L65.89 224L65.82 223.93L65.74 223.86L65.67 223.79L65.6 223.71L65.53 223.63L65.47 223.55L65.41 223.46L65.35 223.37L65.3 223.28L65.25 223.19L65.21 223.1L65.16 223L65.12 222.9L65.09 222.8L65.06 222.7L65.03 222.6L65 222.5L64.99 222.39L64.97 222.28L64.96 222.17L64.95 222.06L64.95 221.95L64.95 112.56L64.21 112.56L64.07 112.56L63.94 112.55L63.81 112.53L63.68 112.52L63.55 112.49L63.43 112.46L63.3 112.43L63.18 112.39L63.06 112.35L62.94 112.3L62.82 112.25L62.71 112.19L62.6 112.13L62.49 112.07L62.39 112L62.28 111.93L62.18 111.85L62.09 111.77L61.99 111.69L61.9 111.6L61.82 111.51L61.73 111.42L61.65 111.32L61.58 111.22L61.51 111.12L61.44 111.02L61.37 110.91L61.31 110.8L61.26 110.68L61.21 110.57L61.16 110.45L61.12 110.33L61.08 110.21L61.04 110.08L61.02 109.96L60.99 109.83L60.97 109.7L60.96 109.57L60.95 109.43L60.95 109.3L60.95 12.2L60.95 12.07L60.96 11.93L60.97 11.8L60.99 11.67L61.02 11.54L61.04 11.42L61.08 11.29L61.12 11.17L61.16 11.05L61.21 10.93L61.26 10.82L61.31 10.7L61.37 10.59L61.44 10.48L61.51 10.38L61.58 10.28L61.65 10.18L61.73 10.08L61.82 9.99L61.9 9.9L61.99 9.81L62.09 9.73L62.18 9.65L62.28 9.57L62.39 9.5L62.49 9.43L62.6 9.37L62.71 9.31L62.82 9.25L62.94 9.2L63.06 9.15L63.18 9.11L63.3 9.07L63.43 9.04L63.55 9.01L63.68 8.98L63.81 8.97L63.94 8.95L64.07 8.94L64.21 8.94L83.1 8.94L83.1 224.65L67.65 224.65Z" id="d1B7q150bR"></path><path d="M125.5 11.85L125.74 11.88L125.97 11.91L126.21 11.95L126.44 12.01L126.66 12.07L126.89 12.14L127.11 12.21L127.32 12.3L127.53 12.39L127.74 12.5L127.94 12.61L128.14 12.72L128.33 12.85L128.52 12.98L128.7 13.12L128.88 13.26L129.05 13.42L129.21 13.57L129.37 13.74L129.52 13.91L129.67 14.08L129.8 14.27L129.94 14.45L130.06 14.64L130.18 14.84L130.29 15.04L130.39 15.25L130.48 15.46L130.57 15.68L130.65 15.9L130.72 16.12L130.78 16.35L130.83 16.58L130.87 16.81L130.91 17.05L130.93 17.29L130.95 17.53L130.95 17.77L130.95 159.51L130.95 159.75L130.93 159.95L115.97 159.95L115.95 159.75L115.95 159.51L115.95 17.77L115.95 17.53L115.97 17.29L115.99 17.05L116.03 16.81L116.07 16.58L116.12 16.35L116.18 16.12L116.25 15.9L116.33 15.68L116.42 15.46L116.51 15.25L116.61 15.04L116.72 14.84L116.84 14.64L116.96 14.45L117.1 14.27L117.23 14.08L117.38 13.91L117.53 13.74L117.69 13.57L117.85 13.42L118.02 13.26L118.2 13.12L118.38 12.98L118.57 12.85L118.76 12.72L118.96 12.61L119.16 12.5L119.37 12.39L119.58 12.3L119.79 12.21L120.01 12.14L120.24 12.07L120.46 12.01L120.69 11.95L120.93 11.91L121.16 11.88L121.4 11.85L121.65 11.84L121.89 11.83L125.01 11.83L125.25 11.84L125.5 11.85Z" id="d3tYYugtIm"></path><path d="M115.95 159.95L130.95 159.95L130.95 178.95L115.95 178.95L115.95 159.95Z" id="aZTdrvn9P"></path><path d="M115.97 159.95L115.95 159.75L115.95 159.51L115.95 17.77L115.95 17.53L115.97 17.29L115.99 17.05L116.03 16.81L116.07 16.58L116.12 16.35L116.18 16.12L116.25 15.9L116.33 15.68L116.42 15.46L116.51 15.25L116.61 15.04L116.72 14.84L116.84 14.64L116.96 14.45L117.1 14.27L117.23 14.08L117.38 13.91L117.53 13.74L117.69 13.57L117.85 13.42L118.02 13.26L118.2 13.12L118.38 12.98L118.57 12.85L118.76 12.72L118.96 12.61L119.16 12.5L119.37 12.39L119.58 12.3L119.79 12.21L120.01 12.14L120.24 12.07L120.46 12.01L120.69 11.95L120.93 11.91L121.16 11.88L121.4 11.85L121.65 11.84L121.89 11.83L123.45 11.83L123.45 159.95L115.97 159.95Z" id="deWocCY02"></path><path d="M115.95 178.95L115.95 159.95L123.45 159.95L123.45 178.95L115.95 178.95Z" id="d1qqwKVqz"></path><path d="M184.74 101.78L184.79 102.03L184.83 102.27L184.87 102.52L184.9 102.77L184.91 103.03L184.92 103.29L184.92 218.4L184.91 218.66L184.9 218.91L184.87 219.17L184.83 219.42L184.79 219.66L184.74 219.9L184.67 220.14L184.6 220.38L184.52 220.61L184.43 220.83L184.33 221.06L184.22 221.27L184.1 221.49L183.98 221.69L183.85 221.9L183.71 222.09L183.57 222.28L183.41 222.47L183.25 222.65L183.09 222.82L182.91 222.99L182.73 223.15L182.55 223.3L182.36 223.45L182.16 223.58L181.96 223.72L181.75 223.84L181.54 223.95L181.32 224.06L181.1 224.16L180.87 224.25L180.64 224.33L180.41 224.41L180.17 224.47L179.93 224.52L179.68 224.57L179.43 224.61L179.18 224.63L178.92 224.65L178.67 224.65L152.62 224.65L152.36 224.65L152.1 224.63L151.85 224.61L151.6 224.57L151.36 224.52L151.11 224.47L150.88 224.41L150.64 224.33L150.41 224.25L150.18 224.16L149.96 224.06L149.74 223.95L149.53 223.84L149.32 223.72L149.12 223.58L148.93 223.45L148.73 223.3L148.55 223.15L148.37 222.99L148.2 222.82L148.03 222.65L147.87 222.47L147.72 222.28L147.57 222.09L147.43 221.9L147.3 221.69L147.18 221.49L147.06 221.27L146.96 221.06L146.86 220.83L146.77 220.61L146.69 220.38L146.61 220.14L146.55 219.9L146.49 219.66L146.45 219.42L146.41 219.17L146.39 218.91L146.37 218.66L146.37 218.4L146.37 103.29L146.37 103.03L146.39 102.77L146.41 102.52L146.45 102.27L146.49 102.03L146.55 101.78L146.57 101.7L146.64 101.72L146.87 101.78L147.1 101.83L147.33 101.87L147.57 101.91L147.81 101.93L148.05 101.95L148.29 101.95L182.49 101.95L182.73 101.95L182.97 101.93L183.21 101.91L183.45 101.87L183.68 101.83L183.91 101.78L184.14 101.72L184.36 101.65L184.58 101.57L184.67 101.54L184.67 101.54L184.74 101.78Z" id="f58t6azUI"></path><path d="M152.62 224.6L152.36 224.6L152.1 224.58L151.85 224.56L151.6 224.52L151.36 224.48L151.11 224.42L150.88 224.36L150.64 224.28L150.41 224.2L150.18 224.11L149.96 224.01L149.74 223.91L149.53 223.79L149.32 223.67L149.12 223.54L148.93 223.4L148.73 223.25L148.55 223.1L148.37 222.94L148.2 222.77L148.03 222.6L147.87 222.42L147.72 222.24L147.57 222.04L147.43 221.85L147.3 221.65L147.18 221.44L147.06 221.23L146.96 221.01L146.86 220.79L146.77 220.56L146.69 220.33L146.61 220.09L146.55 219.86L146.49 219.61L146.45 219.37L146.41 219.12L146.39 218.87L146.37 218.61L146.37 218.35L146.37 103.24L146.37 102.98L146.39 102.72L146.41 102.47L146.45 102.22L146.49 101.98L146.55 101.73L146.6 101.53L165.39 101.53L165.39 224.6L152.62 224.6Z" id="b240EGjNox"></path><path d="M182.74 11.83C186.01 11.83 188.67 14.49 188.67 17.76C188.67 34.6 188.67 79.18 188.67 96.02C188.67 99.3 186.01 101.95 182.74 101.95C174.71 101.95 156.57 101.95 148.54 101.95C145.27 101.95 142.62 99.3 142.62 96.02C142.62 79.18 142.62 34.6 142.62 17.76C142.62 14.49 145.27 11.83 148.54 11.83C156.57 11.83 174.71 11.83 182.74 11.83Z" id="b8id0XnIa"></path><path d="M169.39 20.89C171.05 20.89 172.39 22.23 172.39 23.89C172.39 36.93 172.39 73.04 172.39 86.08C172.39 87.74 171.05 89.08 169.39 89.08C167.39 89.08 164.39 89.08 162.39 89.08C160.73 89.08 159.39 87.74 159.39 86.08C159.39 73.04 159.39 36.93 159.39 23.89C159.39 22.23 160.73 20.89 162.39 20.89C164.39 20.89 167.39 20.89 169.39 20.89Z" id="c7atBY9qQi"></path><path d="M146.36 101.53L146.24 101.48L146.03 101.39L145.82 101.29L145.62 101.18L145.42 101.06L145.23 100.94L145.04 100.81L144.86 100.67L144.69 100.52L144.52 100.37L144.35 100.21L144.2 100.05L144.04 99.88L143.9 99.7L143.76 99.52L143.63 99.34L143.5 99.14L143.39 98.95L143.28 98.75L143.18 98.54L143.08 98.33L143 98.11L142.92 97.9L142.85 97.67L142.79 97.45L142.74 97.22L142.69 96.98L142.66 96.75L142.64 96.51L142.62 96.27L142.62 96.02L142.62 17.76L142.62 17.52L142.64 17.28L142.66 17.04L142.69 16.8L142.74 16.57L142.79 16.34L142.85 16.11L142.92 15.89L143 15.67L143.08 15.45L143.18 15.24L143.28 15.04L143.39 14.84L143.5 14.64L143.63 14.45L143.76 14.26L143.9 14.08L144.04 13.9L144.2 13.73L144.35 13.57L144.52 13.41L144.69 13.26L144.86 13.12L145.04 12.98L145.23 12.85L145.42 12.72L145.62 12.6L145.82 12.5L146.03 12.39L146.24 12.3L146.45 12.21L146.67 12.14L146.89 12.07L147.12 12.01L147.35 11.95L147.58 11.91L147.82 11.88L148.06 11.85L148.3 11.84L148.54 11.83L165.39 11.83L165.39 101.53L146.36 101.53Z" id="cpwH4PTVB"></path><path d="M40.61 191.93L40.61 48.96L51.72 48.96L51.72 191.93L40.61 191.93Z" id="bYo5YGqia"></path><path d="M33.57 224.65L24.5 208.29L15.43 191.93L33.57 191.93L33.57 224.65L33.57 224.65Z" id="asEJb2DI0"></path></defs><g><g><g><g><filter id="shadow2981951" x="8.43" y="4.83" width="50.3" height="36.67" filterUnits="userSpaceOnUse" primitiveUnits="userSpaceOnUse"><feFlood></feFlood><feComposite in2="SourceAlpha" operator="in"></feComposite><feGaussianBlur stdDeviation="1"></feGaussianBlur><feOffset dx="0" dy="0" result="afterOffset"></feOffset><feFlood flood-color="#000000" flood-opacity="0.5"></feFlood><feComposite in2="afterOffset" operator="in"></feComposite><feMorphology operator="dilate" radius="0"></feMorphology><feComposite in2="SourceAlpha" operator="out"></feComposite></filter><path d="M15.49 18.83L15.58 18.32L15.69 17.82L15.84 17.34L16.01 16.87L16.21 16.41L16.44 15.96L16.7 15.54L16.98 15.13L17.28 14.74L17.61 14.37L17.96 14.02L18.33 13.69L18.72 13.39L19.13 13.11L19.56 12.85L20 12.62L20.46 12.42L20.93 12.24L21.42 12.1L21.92 11.98L22.43 11.9L22.95 11.85L23.48 11.83L43.67 11.83L44.2 11.85L44.72 11.9L45.23 11.98L45.73 12.1L46.22 12.24L46.69 12.42L47.15 12.62L47.59 12.85L48.02 13.11L48.43 13.39L48.82 13.69L49.19 14.02L49.54 14.37L49.86 14.74L50.17 15.13L50.45 15.54L50.71 15.96L50.94 16.41L51.14 16.87L51.31 17.34L51.46 17.82L51.57 18.32L51.65 18.83L51.71 19.35L51.72 19.88L51.72 34.5L15.43 34.5L15.43 19.88L15.44 19.35L15.44 19.35L15.49 18.83Z" id="b8oKwwvmgE" fill="white" fill-opacity="1" filter="url(#shadow2981951)"></path></g><use xlink:href="#g2iruJVBSD" opacity="1" fill="#eda2a2" fill-opacity="1"></use></g><g><g><filter id="shadow4088528" x="8.43" y="184.93" width="50.3" height="46.73" filterUnits="userSpaceOnUse" primitiveUnits="userSpaceOnUse"><feFlood></feFlood><feComposite in2="SourceAlpha" operator="in"></feComposite><feGaussianBlur stdDeviation="1"></feGaussianBlur><feOffset dx="0" dy="0" result="afterOffset"></feOffset><feFlood flood-color="#000000" flood-opacity="0.5"></feFlood><feComposite in2="afterOffset" operator="in"></feComposite><feMorphology operator="dilate" radius="0"></feMorphology><feComposite in2="SourceAlpha" operator="out"></feComposite></filter><path d="M42.65 208.29L51.72 191.93L33.57 191.93L15.43 191.93L24.5 208.29L33.57 224.65L42.65 208.29Z" id="d6Ch1lI2v6" fill="white" fill-opacity="1" filter="url(#shadow4088528)"></path></g><use xlink:href="#aVyeR692w" opacity="1" fill="#535353" fill-opacity="1"></use></g><g><use xlink:href="#a5yMdz2fu" opacity="1" fill="#ffffff" fill-opacity="0.18"></use></g><g><use xlink:href="#d4xuBWOTti" opacity="1" fill="#e1c176" fill-opacity="1"></use></g><g><g><filter id="shadow13298268" x="8.43" y="41.96" width="50.3" height="156.96" filterUnits="userSpaceOnUse" primitiveUnits="userSpaceOnUse"><feFlood></feFlood><feComposite in2="SourceAlpha" operator="in"></feComposite><feGaussianBlur stdDeviation="1"></feGaussianBlur><feOffset dx="0" dy="0" result="afterOffset"></feOffset><feFlood flood-color="#000000" flood-opacity="0.5"></feFlood><feComposite in2="afterOffset" operator="in"></feComposite><feMorphology operator="dilate" radius="0"></feMorphology><feComposite in2="SourceAlpha" operator="out"></feComposite></filter><path d="M15.43 48.96L51.72 48.96L51.72 191.93L15.43 191.93L15.43 48.96Z" id="a43GLSdyFC" fill="white" fill-opacity="1" filter="url(#shadow13298268)"></path></g><use xlink:href="#b3dCxw9Q" opacity="1" fill="#eae039" fill-opacity="1"></use></g><g><use xlink:href="#bdQfM5SfR" opacity="1" fill="#ffffff" fill-opacity="0.36"></use></g><path></path><path></path><g><g><filter id="shadow3689278" x="8.43" y="27.5" width="50.3" height="28.46" filterUnits="userSpaceOnUse" primitiveUnits="userSpaceOnUse"><feFlood></feFlood><feComposite in2="SourceAlpha" operator="in"></feComposite><feGaussianBlur stdDeviation="1"></feGaussianBlur><feOffset dx="0" dy="0" result="afterOffset"></feOffset><feFlood flood-color="#000000" flood-opacity="0.5"></feFlood><feComposite in2="afterOffset" operator="in"></feComposite><feMorphology operator="dilate" radius="0"></feMorphology><feComposite in2="SourceAlpha" operator="out"></feComposite></filter><path d="M15.43 34.5L51.72 34.5L51.72 48.96L15.43 48.96L15.43 34.5Z" id="biuVonu0z" fill="white" fill-opacity="1" filter="url(#shadow3689278)"></path></g><use xlink:href="#d25h3hymuU" opacity="1" fill="#c0c0c0" fill-opacity="1"></use></g><g><use xlink:href="#f1SyGnYqjx" opacity="1" fill="#ffffff" fill-opacity="0.32"></use></g><g><g><filter id="shadow9270605" x="53.95" y="1.94" width="57.8" height="229.71" filterUnits="userSpaceOnUse" primitiveUnits="userSpaceOnUse"><feFlood></feFlood><feComposite in2="SourceAlpha" operator="in"></feComposite><feGaussianBlur stdDeviation="1"></feGaussianBlur><feOffset dx="0" dy="0" result="afterOffset"></feOffset><feFlood flood-color="#000000" flood-opacity="0.5"></feFlood><feComposite in2="afterOffset" operator="in"></feComposite><feMorphology operator="dilate" radius="0"></feMorphology><feComposite in2="SourceAlpha" operator="out"></feComposite></filter><path d="M101.75 8.95L101.89 8.97L102.02 8.98L102.14 9.01L102.27 9.04L102.4 9.07L102.52 9.11L102.64 9.15L102.76 9.2L102.87 9.25L102.99 9.31L103.1 9.37L103.2 9.43L103.31 9.5L103.41 9.57L103.51 9.65L103.61 9.73L103.7 9.81L103.79 9.9L103.88 9.99L103.96 10.08L104.04 10.18L104.12 10.28L104.19 10.38L104.26 10.48L104.32 10.59L104.38 10.7L104.44 10.82L104.49 10.93L104.54 11.05L104.58 11.17L104.62 11.29L104.65 11.42L104.68 11.54L104.7 11.67L104.72 11.8L104.74 11.93L104.74 12.07L104.75 12.2L104.75 109.3L104.74 109.43L104.74 109.57L104.72 109.7L104.7 109.83L104.68 109.96L104.65 110.08L104.62 110.21L104.58 110.33L104.54 110.45L104.49 110.57L104.44 110.68L104.38 110.8L104.32 110.91L104.26 111.02L104.19 111.12L104.12 111.22L104.04 111.32L103.96 111.42L103.88 111.51L103.79 111.6L103.7 111.69L103.61 111.77L103.51 111.85L103.41 111.93L103.31 112L103.2 112.07L103.1 112.13L102.99 112.19L102.87 112.25L102.76 112.3L102.64 112.35L102.52 112.39L102.4 112.43L102.27 112.46L102.14 112.49L102.02 112.52L101.89 112.53L101.75 112.55L101.62 112.56L101.49 112.56L101.25 112.56L101.25 221.95L101.24 222.06L101.24 222.17L101.23 222.28L101.21 222.39L101.19 222.5L101.17 222.6L101.14 222.7L101.11 222.8L101.07 222.9L101.03 223L100.99 223.1L100.94 223.19L100.89 223.28L100.84 223.37L100.79 223.46L100.73 223.55L100.66 223.63L100.6 223.71L100.53 223.79L100.46 223.86L100.38 223.93L100.3 224L100.22 224.07L100.14 224.13L100.06 224.19L99.97 224.25L99.88 224.3L99.79 224.35L99.69 224.4L99.6 224.44L99.5 224.48L99.4 224.51L99.3 224.55L99.19 224.57L99.09 224.6L98.98 224.62L98.88 224.63L98.77 224.64L98.66 224.65L98.55 224.65L67.65 224.65L67.54 224.65L67.43 224.64L67.32 224.63L67.21 224.62L67.11 224.6L67 224.57L66.9 224.55L66.8 224.51L66.7 224.48L66.6 224.44L66.5 224.4L66.41 224.35L66.32 224.3L66.23 224.25L66.14 224.19L66.06 224.13L65.97 224.07L65.89 224L65.82 223.93L65.74 223.86L65.67 223.79L65.6 223.71L65.53 223.63L65.47 223.55L65.41 223.46L65.35 223.37L65.3 223.28L65.25 223.19L65.21 223.1L65.16 223L65.12 222.9L65.09 222.8L65.06 222.7L65.03 222.6L65 222.5L64.99 222.39L64.97 222.28L64.96 222.17L64.95 222.06L64.95 221.95L64.95 112.56L64.21 112.56L64.07 112.56L63.94 112.55L63.81 112.53L63.68 112.52L63.55 112.49L63.43 112.46L63.3 112.43L63.18 112.39L63.06 112.35L62.94 112.3L62.82 112.25L62.71 112.19L62.6 112.13L62.49 112.07L62.39 112L62.28 111.93L62.18 111.85L62.09 111.77L61.99 111.69L61.9 111.6L61.82 111.51L61.73 111.42L61.65 111.32L61.58 111.22L61.51 111.12L61.44 111.02L61.37 110.91L61.31 110.8L61.26 110.68L61.21 110.57L61.16 110.45L61.12 110.33L61.08 110.21L61.04 110.08L61.02 109.96L60.99 109.83L60.97 109.7L60.96 109.57L60.95 109.43L60.95 109.3L60.95 12.2L60.95 12.07L60.96 11.93L60.97 11.8L60.99 11.67L61.02 11.54L61.04 11.42L61.08 11.29L61.12 11.17L61.16 11.05L61.21 10.93L61.26 10.82L61.31 10.7L61.37 10.59L61.44 10.48L61.51 10.38L61.58 10.28L61.65 10.18L61.73 10.08L61.82 9.99L61.9 9.9L61.99 9.81L62.09 9.73L62.18 9.65L62.28 9.57L62.39 9.5L62.49 9.43L62.6 9.37L62.71 9.31L62.82 9.25L62.94 9.2L63.06 9.15L63.18 9.11L63.3 9.07L63.43 9.04L63.55 9.01L63.68 8.98L63.81 8.97L63.94 8.95L64.07 8.94L64.21 8.94L101.49 8.94L101.62 8.94L101.75 8.95Z" id="a2M4Qkq9Ri" fill="white" fill-opacity="1" filter="url(#shadow9270605)"></path></g><use xlink:href="#bSygx6krq" opacity="1" fill="#7188cf" fill-opacity="1"></use></g><g><use xlink:href="#beaPgpkj6" opacity="1" fill="#86d780" fill-opacity="1"></use></g><g><g><filter id="shadow9413752" x="53.95" y="97.04" width="57.8" height="22.52" filterUnits="userSpaceOnUse" primitiveUnits="userSpaceOnUse"><feFlood></feFlood><feComposite in2="SourceAlpha" operator="in"></feComposite><feGaussianBlur stdDeviation="1"></feGaussianBlur><feOffset dx="0" dy="0" result="afterOffset"></feOffset><feFlood flood-color="#000000" flood-opacity="0.5"></feFlood><feComposite in2="afterOffset" operator="in"></feComposite><feMorphology operator="dilate" radius="0"></feMorphology><feComposite in2="SourceAlpha" operator="out"></feComposite></filter><path d="M104.74 109.43L104.74 109.57L104.72 109.7L104.7 109.83L104.68 109.96L104.65 110.08L104.62 110.21L104.58 110.33L104.54 110.45L104.49 110.57L104.44 110.68L104.38 110.8L104.32 110.91L104.26 111.02L104.19 111.12L104.12 111.22L104.04 111.32L103.96 111.42L103.88 111.51L103.79 111.6L103.7 111.69L103.61 111.77L103.51 111.85L103.41 111.93L103.31 112L103.2 112.07L103.1 112.13L102.99 112.19L102.87 112.25L102.76 112.3L102.64 112.35L102.52 112.39L102.4 112.43L102.27 112.46L102.14 112.49L102.02 112.52L101.89 112.53L101.75 112.55L101.62 112.56L101.49 112.56L64.21 112.56L64.07 112.56L63.94 112.55L63.81 112.53L63.68 112.52L63.55 112.49L63.43 112.46L63.3 112.43L63.18 112.39L63.06 112.35L62.94 112.3L62.82 112.25L62.71 112.19L62.6 112.13L62.49 112.07L62.39 112L62.28 111.93L62.18 111.85L62.09 111.77L61.99 111.69L61.9 111.6L61.82 111.51L61.73 111.42L61.65 111.32L61.58 111.22L61.51 111.12L61.44 111.02L61.37 110.91L61.31 110.8L61.26 110.68L61.21 110.57L61.16 110.45L61.12 110.33L61.08 110.21L61.04 110.08L61.02 109.96L60.99 109.83L60.97 109.7L60.96 109.57L60.95 109.43L60.95 109.3L60.95 104.04L104.75 104.04L104.75 109.3L104.74 109.43Z" id="c1dF6NfWH1" fill="white" fill-opacity="1" filter="url(#shadow9413752)"></path></g><use xlink:href="#e6tXdLSb" opacity="1" fill="#c8c8c8" fill-opacity="1"></use></g><g><g><filter id="shadow4994697" x="69.6" y="8.99" width="27" height="92" filterUnits="userSpaceOnUse" primitiveUnits="userSpaceOnUse"><feFlood></feFlood><feComposite in2="SourceAlpha" operator="in"></feComposite><feGaussianBlur stdDeviation="1"></feGaussianBlur><feOffset dx="0" dy="0" result="afterOffset"></feOffset><feFlood flood-color="#000000" flood-opacity="0.5"></feFlood><feComposite in2="afterOffset" operator="in"></feComposite><feMorphology operator="dilate" radius="0"></feMorphology><feComposite in2="SourceAlpha" operator="out"></feComposite></filter><path d="M83.95 16.02L84.25 16.05L84.54 16.1L84.82 16.16L85.1 16.24L85.38 16.32L85.65 16.42L85.91 16.54L86.17 16.66L86.42 16.79L86.66 16.94L86.9 17.09L87.13 17.26L87.35 17.44L87.56 17.62L87.77 17.82L87.96 18.02L88.15 18.23L88.32 18.46L88.49 18.68L88.65 18.92L88.79 19.16L88.93 19.42L89.05 19.67L89.16 19.94L89.26 20.21L89.35 20.48L89.42 20.76L89.49 21.05L89.53 21.34L89.57 21.64L89.59 21.93L89.6 22.24L89.6 87.74L89.59 88.04L89.57 88.34L89.53 88.63L89.49 88.92L89.42 89.21L89.35 89.49L89.26 89.77L89.16 90.04L89.05 90.3L88.93 90.56L88.79 90.81L88.65 91.05L88.49 91.29L88.32 91.52L88.15 91.74L87.96 91.95L87.77 92.16L87.56 92.35L87.35 92.54L87.13 92.71L86.9 92.88L86.66 93.04L86.42 93.18L86.17 93.32L85.91 93.44L85.65 93.55L85.38 93.65L85.1 93.74L84.82 93.81L84.54 93.87L84.25 93.92L83.95 93.96L83.65 93.98L83.35 93.99L82.85 93.99L82.55 93.98L82.25 93.96L81.95 93.92L81.66 93.87L81.37 93.81L81.09 93.74L80.82 93.65L80.55 93.55L80.28 93.44L80.03 93.32L79.78 93.18L79.53 93.04L79.3 92.88L79.07 92.71L78.85 92.54L78.63 92.35L78.43 92.16L78.23 91.95L78.05 91.74L77.87 91.52L77.71 91.29L77.55 91.05L77.4 90.81L77.27 90.56L77.15 90.3L77.03 90.04L76.94 89.77L76.85 89.49L76.77 89.21L76.71 88.92L76.66 88.63L76.63 88.34L76.61 88.04L76.6 87.74L76.6 22.24L76.61 21.93L76.63 21.64L76.66 21.34L76.71 21.05L76.77 20.76L76.85 20.48L76.94 20.21L77.03 19.94L77.15 19.67L77.27 19.42L77.4 19.16L77.55 18.92L77.71 18.68L77.87 18.46L78.05 18.23L78.23 18.02L78.43 17.82L78.63 17.62L78.85 17.44L79.07 17.26L79.3 17.09L79.53 16.94L79.78 16.79L80.03 16.66L80.28 16.54L80.55 16.42L80.82 16.32L81.09 16.24L81.37 16.16L81.66 16.1L81.95 16.05L82.25 16.02L82.55 15.99L82.85 15.99L83.35 15.99L83.65 15.99L83.95 16.02ZM80.12 74.39L79.71 74.85L79.44 75.42L79.35 76.09L79.74 77.82L80.67 79.18L81.78 80.15L82.71 80.75L83.1 80.99L83.49 80.75L84.42 80.15L85.53 79.18L86.46 77.82L86.85 76.09L86.75 75.42L86.49 74.85L86.08 74.39L85.57 74.09L84.97 73.99L84.38 74.08L83.87 74.35L83.46 74.77L83.19 75.32L83.1 75.97L83 75.32L82.74 74.77L82.33 74.35L81.82 74.08L81.22 73.99L80.63 74.09L80.12 74.39Z" id="ebGrdSVl4" fill="white" fill-opacity="1" filter="url(#shadow4994697)"></path></g><use xlink:href="#cMcsMHRtC" opacity="1" fill="#c8c8c8" fill-opacity="1"></use></g><g><g><filter id="shadow4163672" x="105.95" y="168.15" width="35" height="63.5" filterUnits="userSpaceOnUse" primitiveUnits="userSpaceOnUse"><feFlood></feFlood><feComposite in2="SourceAlpha" operator="in"></feComposite><feGaussianBlur stdDeviation="1"></feGaussianBlur><feOffset dx="0" dy="0" result="afterOffset"></feOffset><feFlood flood-color="#000000" flood-opacity="0.5"></feFlood><feComposite in2="afterOffset" operator="in"></feComposite><feMorphology operator="dilate" radius="0"></feMorphology><feComposite in2="SourceAlpha" operator="out"></feComposite></filter><path d="M133.95 192.57C133.95 182.95 129.25 175.15 123.45 175.15C117.65 175.15 112.95 182.95 112.95 192.57C112.95 202.19 117.65 209.99 123.45 224.65C129.25 209.99 133.95 202.19 133.95 192.57Z" id="aElLVR1Qm" fill="white" fill-opacity="1" filter="url(#shadow4163672)"></path></g><use xlink:href="#cSyFYTaLf" opacity="1" fill="#f0e5e5" fill-opacity="1"></use></g><g><use xlink:href="#d1B7q150bR" opacity="1" fill="#ffffff" fill-opacity="0.17"></use></g><g><g><filter id="shadow11357799" x="108.95" y="4.83" width="29" height="162.12" filterUnits="userSpaceOnUse" primitiveUnits="userSpaceOnUse"><feFlood></feFlood><feComposite in2="SourceAlpha" operator="in"></feComposite><feGaussianBlur stdDeviation="1"></feGaussianBlur><feOffset dx="0" dy="0" result="afterOffset"></feOffset><feFlood flood-color="#000000" flood-opacity="0.5"></feFlood><feComposite in2="afterOffset" operator="in"></feComposite><feMorphology operator="dilate" radius="0"></feMorphology><feComposite in2="SourceAlpha" operator="out"></feComposite></filter><path d="M125.5 11.85L125.74 11.88L125.97 11.91L126.21 11.95L126.44 12.01L126.66 12.07L126.89 12.14L127.11 12.21L127.32 12.3L127.53 12.39L127.74 12.5L127.94 12.61L128.14 12.72L128.33 12.85L128.52 12.98L128.7 13.12L128.88 13.26L129.05 13.42L129.21 13.57L129.37 13.74L129.52 13.91L129.67 14.08L129.8 14.27L129.94 14.45L130.06 14.64L130.18 14.84L130.29 15.04L130.39 15.25L130.48 15.46L130.57 15.68L130.65 15.9L130.72 16.12L130.78 16.35L130.83 16.58L130.87 16.81L130.91 17.05L130.93 17.29L130.95 17.53L130.95 17.77L130.95 159.51L130.95 159.75L130.93 159.95L115.97 159.95L115.95 159.75L115.95 159.51L115.95 17.77L115.95 17.53L115.97 17.29L115.99 17.05L116.03 16.81L116.07 16.58L116.12 16.35L116.18 16.12L116.25 15.9L116.33 15.68L116.42 15.46L116.51 15.25L116.61 15.04L116.72 14.84L116.84 14.64L116.96 14.45L117.1 14.27L117.23 14.08L117.38 13.91L117.53 13.74L117.69 13.57L117.85 13.42L118.02 13.26L118.2 13.12L118.38 12.98L118.57 12.85L118.76 12.72L118.96 12.61L119.16 12.5L119.37 12.39L119.58 12.3L119.79 12.21L120.01 12.14L120.24 12.07L120.46 12.01L120.69 11.95L120.93 11.91L121.16 11.88L121.4 11.85L121.65 11.84L121.89 11.83L125.01 11.83L125.25 11.84L125.5 11.85Z" id="fn5ndALS4" fill="white" fill-opacity="1" filter="url(#shadow11357799)"></path></g><use xlink:href="#d3tYYugtIm" opacity="1" fill="#e9b55f" fill-opacity="1"></use></g><g><g><filter id="shadow8138110" x="108.95" y="152.95" width="29" height="33" filterUnits="userSpaceOnUse" primitiveUnits="userSpaceOnUse"><feFlood></feFlood><feComposite in2="SourceAlpha" operator="in"></feComposite><feGaussianBlur stdDeviation="1"></feGaussianBlur><feOffset dx="0" dy="0" result="afterOffset"></feOffset><feFlood flood-color="#000000" flood-opacity="0.5"></feFlood><feComposite in2="afterOffset" operator="in"></feComposite><feMorphology operator="dilate" radius="0"></feMorphology><feComposite in2="SourceAlpha" operator="out"></feComposite></filter><path d="M115.95 159.95L130.95 159.95L130.95 178.95L115.95 178.95L115.95 159.95Z" id="dsvDsjc14" fill="white" fill-opacity="1" filter="url(#shadow8138110)"></path></g><use xlink:href="#aZTdrvn9P" opacity="1" fill="#c8c8c8" fill-opacity="1"></use></g><g><use xlink:href="#deWocCY02" opacity="1" fill="#ffffff" fill-opacity="0.27"></use></g><g><use xlink:href="#d1qqwKVqz" opacity="1" fill="#ffffff" fill-opacity="0.27"></use></g><g><use xlink:href="#f58t6azUI" opacity="1" fill="#c8c8c8" fill-opacity="0.98"></use></g><g><use xlink:href="#b240EGjNox" opacity="1" fill="#ffffff" fill-opacity="0.37"></use></g><g><use xlink:href="#b8id0XnIa" opacity="1" fill="#5d5d5d" fill-opacity="0.98"></use></g><g><g><filter id="shadow4672573" x="152.39" y="13.89" width="27" height="82.19" filterUnits="userSpaceOnUse" primitiveUnits="userSpaceOnUse"><feFlood></feFlood><feComposite in2="SourceAlpha" operator="in"></feComposite><feGaussianBlur stdDeviation="1"></feGaussianBlur><feOffset dx="0" dy="0" result="afterOffset"></feOffset><feFlood flood-color="#000000" flood-opacity="0.5"></feFlood><feComposite in2="afterOffset" operator="in"></feComposite><feMorphology operator="dilate" radius="0"></feMorphology><feComposite in2="SourceAlpha" operator="out"></feComposite></filter><path d="M169.39 20.89C171.05 20.89 172.39 22.23 172.39 23.89C172.39 36.93 172.39 73.04 172.39 86.08C172.39 87.74 171.05 89.08 169.39 89.08C167.39 89.08 164.39 89.08 162.39 89.08C160.73 89.08 159.39 87.74 159.39 86.08C159.39 73.04 159.39 36.93 159.39 23.89C159.39 22.23 160.73 20.89 162.39 20.89C164.39 20.89 167.39 20.89 169.39 20.89Z" id="bPhbyV54P" fill="white" fill-opacity="1" filter="url(#shadow4672573)"></path></g><use xlink:href="#c7atBY9qQi" opacity="1" fill="#606060" fill-opacity="1"></use></g><g><use xlink:href="#cpwH4PTVB" opacity="1" fill="#ffffff" fill-opacity="0.16"></use></g><g><use xlink:href="#bYo5YGqia" opacity="1" fill="#b6aeae" fill-opacity="0.36"></use></g><g><use xlink:href="#asEJb2DI0" opacity="1" fill="#ffffff" fill-opacity="0.21"></use></g></g></g></svg>