<?xml version="1.0" encoding="UTF-8" standalone="no"?>
<!DOCTYPE svg PUBLIC "-//W3C//DTD SVG 1.1//EN" "http://www.w3.org/Graphics/SVG/1.1/DTD/svg11.dtd">
<svg version="1.1" xmlns="http://www.w3.org/2000/svg" xmlns:xlink="http://www.w3.org/1999/xlink" preserveAspectRatio="xMidYMid meet" viewBox="0 0 200 200" width="200" height="200"><defs><path d="M111.54 18.75L23.08 18.75L23.08 181.25L176.92 181.25L176.92 62.5L200 62.5L200 200L0 200L0 0L111.54 0L111.54 18.75ZM126.92 51.63L126.92 0L200 51.63L126.92 51.63Z" id="a8E3nuIo2"></path><path d="M99.63 62.38L99.73 62.39L99.83 62.4L99.92 62.42L99.95 62.41L100.08 62.39L100.22 62.38L100.35 62.37L100.49 62.37L159.65 62.37L159.78 62.37L159.92 62.38L160.05 62.39L160.18 62.41L160.31 62.44L160.44 62.47L160.57 62.5L160.69 62.54L160.81 62.58L160.93 62.63L161.05 62.68L161.16 62.74L161.28 62.8L161.39 62.86L161.49 62.93L161.6 63.01L161.7 63.08L161.79 63.16L161.89 63.25L161.98 63.34L162.07 63.43L162.15 63.52L162.23 63.62L162.31 63.72L162.38 63.82L162.45 63.93L162.52 64.04L162.58 64.15L162.64 64.27L162.69 64.39L162.74 64.51L162.78 64.63L162.82 64.75L162.85 64.88L162.88 65.01L162.9 65.14L162.92 65.27L162.94 65.4L162.95 65.53L162.95 65.67L162.95 92.63L142.67 166.22L117.46 166.22L98.31 96.72L77.64 96.72L77.64 88.89L77.64 88.72L77.62 88.55L77.6 88.38L77.57 88.22L77.53 88.06L77.48 87.91L77.42 87.76L77.36 87.61L77.28 87.47L77.2 87.33L77.12 87.2L77.02 87.07L76.92 86.94L76.82 86.82L76.71 86.71L76.59 86.61L76.46 86.51L76.34 86.41L76.2 86.33L76.06 86.25L75.92 86.17L75.77 86.11L75.62 86.05L75.47 86L75.31 85.96L75.15 85.93L74.98 85.91L74.81 85.89L74.64 85.89L62.23 85.89L62.06 85.89L61.9 85.91L61.73 85.93L61.57 85.96L61.41 86L61.26 86.05L61.1 86.11L60.96 86.17L60.81 86.25L60.68 86.33L60.54 86.41L60.41 86.51L60.29 86.61L60.17 86.71L60.06 86.82L59.95 86.94L59.85 87.07L59.76 87.2L59.67 87.33L59.59 87.47L59.52 87.61L59.46 87.76L59.4 87.91L59.35 88.06L59.31 88.22L59.28 88.38L59.26 88.55L59.24 88.72L59.24 88.89L59.24 141.24L59.24 141.41L59.26 141.58L59.28 141.74L59.31 141.91L59.35 142.06L59.4 142.22L59.46 142.37L59.52 142.52L59.59 142.66L59.67 142.8L59.76 142.93L59.85 143.06L59.95 143.19L60.06 143.3L60.17 143.42L60.29 143.52L60.41 143.62L60.54 143.72L60.68 143.8L60.81 143.88L60.96 143.95L61.1 144.02L61.26 144.08L61.41 144.12L61.57 144.17L61.73 144.2L61.9 144.22L62.06 144.23L62.23 144.24L74.64 144.24L74.81 144.23L74.98 144.22L75.15 144.2L75.31 144.17L75.47 144.12L75.62 144.08L75.77 144.02L75.92 143.95L76.06 143.88L76.2 143.8L76.34 143.72L76.46 143.62L76.59 143.52L76.71 143.42L76.82 143.3L76.92 143.19L77.02 143.06L77.12 142.93L77.2 142.8L77.28 142.66L77.36 142.52L77.42 142.37L77.48 142.22L77.53 142.06L77.57 141.91L77.6 141.74L77.62 141.58L77.64 141.41L77.64 141.24L77.64 133.6L101.88 133.6L101.88 163.77L101.88 163.87L101.87 163.97L101.86 164.07L101.85 164.17L101.83 164.27L101.81 164.36L101.79 164.46L101.76 164.55L101.72 164.64L101.69 164.73L101.65 164.81L101.61 164.9L101.56 164.98L101.51 165.06L101.46 165.14L101.41 165.22L101.35 165.29L101.29 165.37L101.23 165.44L101.16 165.51L101.1 165.57L101.03 165.63L100.95 165.69L100.88 165.75L100.8 165.8L100.72 165.86L100.64 165.9L100.56 165.95L100.47 165.99L100.39 166.03L100.3 166.07L100.21 166.1L100.11 166.13L100.02 166.15L99.93 166.17L99.83 166.19L99.73 166.2L99.63 166.21L99.53 166.22L99.43 166.22L38.57 166.22L38.47 166.22L38.37 166.21L38.27 166.2L38.17 166.19L38.07 166.17L37.98 166.15L37.89 166.13L37.79 166.1L37.7 166.07L37.61 166.03L37.53 165.99L37.44 165.95L37.36 165.9L37.28 165.86L37.2 165.8L37.12 165.75L37.05 165.69L36.97 165.63L36.9 165.57L36.84 165.51L36.77 165.44L36.71 165.37L36.65 165.29L36.59 165.22L36.54 165.14L36.49 165.06L36.44 164.98L36.39 164.9L36.35 164.81L36.31 164.73L36.27 164.64L36.24 164.55L36.21 164.46L36.19 164.36L36.17 164.27L36.15 164.17L36.14 164.07L36.13 163.97L36.12 163.87L36.12 163.77L36.12 64.82L36.12 64.72L36.13 64.62L36.14 64.52L36.15 64.42L36.17 64.33L36.19 64.23L36.21 64.14L36.24 64.05L36.27 63.95L36.31 63.87L36.35 63.78L36.39 63.69L36.44 63.61L36.49 63.53L36.54 63.45L36.59 63.37L36.65 63.3L36.71 63.22L36.77 63.15L36.84 63.09L36.9 63.02L36.97 62.96L37.05 62.9L37.12 62.84L37.2 62.79L37.28 62.74L37.36 62.69L37.44 62.64L37.53 62.6L37.61 62.56L37.7 62.53L37.79 62.49L37.89 62.47L37.98 62.44L38.07 62.42L38.17 62.4L38.27 62.39L38.37 62.38L38.47 62.37L38.57 62.37L99.43 62.37L99.53 62.37L99.63 62.38ZM123.39 88.85L131.06 115.34L138.72 88.85L146.38 62.37L115.73 62.37L123.39 88.85Z" id="fr2aLTbsx"></path></defs><g><g><g><use xlink:href="#a8E3nuIo2" opacity="1" fill="#2f2f2f" fill-opacity="1"></use></g><g><use xlink:href="#fr2aLTbsx" opacity="1" fill="#2f2f2f" fill-opacity="1"></use></g></g></g></svg>