<?xml version="1.0" encoding="UTF-8" standalone="no"?>
<!DOCTYPE svg PUBLIC "-//W3C//DTD SVG 1.1//EN" "http://www.w3.org/Graphics/SVG/1.1/DTD/svg11.dtd">
<svg version="1.1" xmlns="http://www.w3.org/2000/svg" xmlns:xlink="http://www.w3.org/1999/xlink" preserveAspectRatio="xMidYMid meet" viewBox="0 0 256 256" width="256" height="256"><defs><path d="M192.75 0C196.14 0 198.9 2.75 198.9 6.15C198.9 13 198.9 27.4 198.9 34.25C198.9 37.64 196.14 40.4 192.75 40.4C165.62 40.4 90.38 40.4 63.25 40.4C59.86 40.4 57.1 37.64 57.1 34.25C57.1 27.4 57.1 13 57.1 6.15C57.1 2.75 59.86 0 63.25 0C90.38 0 165.62 0 192.75 0Z" id="c43TkDHgiR"></path><path d="M192.75 55.62C196.14 55.62 198.9 58.37 198.9 61.77C198.9 68.62 198.9 83.02 198.9 89.87C198.9 93.26 196.14 96.02 192.75 96.02C165.62 96.02 90.38 96.02 63.25 96.02C59.86 96.02 57.1 93.26 57.1 89.87C57.1 83.02 57.1 68.62 57.1 61.77C57.1 58.37 59.86 55.62 63.25 55.62C90.38 55.62 165.62 55.62 192.75 55.62Z" id="i1ufk8Hb4n"></path><path d="M254.42 113.32L254.58 113.52L254.74 113.72L254.89 113.93L255.03 114.15L255.16 114.36L255.28 114.59L255.39 114.81L255.49 115.04L255.59 115.27L255.67 115.5L255.75 115.74L255.82 115.98L255.88 116.22L255.92 116.46L255.96 116.7L256 116.95L256.02 117.19L256.03 117.44L256.04 117.68L256.03 117.93L256.02 118.17L256 118.42L255.96 118.66L255.92 118.91L255.88 119.15L255.82 119.39L255.75 119.63L255.67 119.86L255.59 120.1L255.49 120.33L255.39 120.55L255.28 120.78L255.16 121L255.03 121.22L254.89 121.43L254.74 121.64L254.58 121.85L254.42 122.05L254.24 122.24L132.24 253.51L132.06 253.69L131.88 253.87L131.7 254.03L131.51 254.18L131.31 254.32L131.11 254.46L130.91 254.58L130.7 254.7L130.49 254.8L130.27 254.9L130.05 254.99L129.83 255.07L129.61 255.14L129.38 255.2L129.15 255.25L128.93 255.29L128.69 255.32L128.46 255.34L128.23 255.36L128 255.36L127.77 255.36L127.54 255.34L127.31 255.32L127.07 255.29L126.85 255.25L126.62 255.2L126.39 255.14L126.17 255.07L125.95 254.99L125.73 254.9L125.51 254.8L125.3 254.7L125.09 254.58L124.89 254.46L124.69 254.32L124.49 254.18L124.3 254.03L124.12 253.87L123.94 253.69L123.76 253.51L1.76 122.24L1.58 122.05L1.42 121.85L1.26 121.64L1.11 121.43L0.97 121.22L0.84 121L0.72 120.78L0.61 120.55L0.51 120.33L0.41 120.1L0.33 119.86L0.25 119.63L0.18 119.39L0.12 119.15L0.08 118.91L0.04 118.66L0 118.42L-0.02 118.17L-0.03 117.93L-0.04 117.68L-0.03 117.44L-0.02 117.19L0 116.95L0.04 116.7L0.08 116.46L0.12 116.22L0.18 115.98L0.25 115.74L0.33 115.5L0.41 115.27L0.51 115.04L0.61 114.81L0.72 114.59L0.84 114.36L0.97 114.15L1.11 113.93L1.26 113.72L1.42 113.52L1.58 113.32L1.76 113.12L1.85 113.02L254.15 113.02L254.24 113.12L254.42 113.32Z" id="aDQGd0CpG"></path></defs><g><g><g><use xlink:href="#c43TkDHgiR" opacity="1" fill="#57a2ef" fill-opacity="1"></use></g><g><use xlink:href="#i1ufk8Hb4n" opacity="1" fill="#57a2ef" fill-opacity="1"></use></g><g><use xlink:href="#aDQGd0CpG" opacity="1" fill="#57a2ef" fill-opacity="1"></use></g></g></g></svg>