<?xml version="1.0" encoding="UTF-8" standalone="no"?>
<!DOCTYPE svg PUBLIC "-//W3C//DTD SVG 1.1//EN" "http://www.w3.org/Graphics/SVG/1.1/DTD/svg11.dtd">
<svg version="1.1" xmlns="http://www.w3.org/2000/svg" xmlns:xlink="http://www.w3.org/1999/xlink" preserveAspectRatio="xMidYMid meet" viewBox="0 0 1200 150" width="1200" height="150"><defs><path d="M528.27 19.71L530.12 19.91L531.95 20.18L533.76 20.52L535.54 20.94L537.3 21.43L539.02 21.99L540.72 22.61L542.39 23.31L544.02 24.06L545.62 24.88L547.18 25.76L548.71 26.71L550.2 27.71L551.64 28.76L553.05 29.88L554.41 31.04L555.73 32.26L557 33.53L558.23 34.85L559.4 36.22L560.53 37.63L561.6 39.09L562.62 40.59L563.58 42.14L564.49 43.72L565.34 45.34L566.13 47L566.86 48.7L567.53 50.42L568.13 52.19L568.67 53.98L569.14 55.8L569.54 57.65L569.87 59.52L570.13 61.42L570.26 62.74L570.8 62.63L572.11 62.47L573.45 62.41L574.79 62.47L576.09 62.63L577.36 62.89L578.59 63.26L579.78 63.71L580.91 64.25L581.99 64.88L583.01 65.59L583.97 66.37L584.85 67.23L585.67 68.15L586.4 69.13L587.05 70.17L587.62 71.26L588.09 72.4L588.46 73.56L588.81 73.58L592.46 73.86L596.06 74.25L599.61 74.75L603.12 75.35L606.58 76.06L609.97 76.87L613.31 77.77L615.73 78.51L615.5 78.06L615.03 76.92L614.65 75.74L614.38 74.52L614.21 73.26L614.15 71.97L614.21 70.68L614.38 69.42L614.65 68.2L615.03 67.01L615.5 65.87L616.06 64.78L616.72 63.74L617.45 62.76L618.26 61.84L619.15 60.99L620.11 60.2L621.13 59.5L622.21 58.87L623.34 58.32L624.52 57.87L625.75 57.51L627.02 57.24L628.33 57.08L629.67 57.03L631.01 57.08L632.31 57.24L633.58 57.51L634.81 57.87L634.89 57.9L634.99 57.57L635.59 55.81L636.26 54.08L636.99 52.39L637.78 50.73L638.63 49.11L639.54 47.52L640.5 45.98L641.52 44.48L642.59 43.02L643.72 41.61L644.89 40.24L646.12 38.92L647.39 37.65L648.71 36.43L650.07 35.26L651.47 34.15L652.92 33.09L654.41 32.09L655.94 31.15L657.5 30.27L659.1 29.45L660.73 28.69L662.4 28L664.09 27.38L665.82 26.82L667.58 26.33L669.36 25.91L671.17 25.57L673 25.3L674.85 25.1L676.73 24.98L678.62 24.94L680.51 24.98L682.39 25.1L684.24 25.3L686.07 25.57L687.88 25.91L689.66 26.33L691.42 26.82L693.15 27.38L694.84 28L696.51 28.69L698.14 29.45L699.74 30.27L701.31 31.15L702.83 32.09L704.32 33.09L705.77 34.15L707.17 35.26L708.54 36.43L709.85 37.65L711.12 38.92L712.35 40.24L713.52 41.61L714.65 43.02L715.72 44.48L716.74 45.98L717.71 47.52L718.61 49.11L719.46 50.73L720.25 52.39L720.98 54.08L721.65 55.81L722.25 57.57L722.79 59.37L723.26 61.19L723.66 63.04L724 64.91L724.26 66.81L724.45 68.73L724.56 70.68L724.6 72.64L724.56 74.61L724.45 76.55L724.44 76.66L724.66 76.94L725.74 78.4L726.76 79.9L727.72 81.45L728.63 83.03L729.48 84.65L730.27 86.31L730.51 86.88L730.55 86.85L731.63 86.22L732.77 85.68L733.95 85.22L735.18 84.86L736.45 84.6L737.76 84.44L739.09 84.38L740.43 84.44L741.74 84.6L743.01 84.86L744.24 85.22L745.42 85.68L746.56 86.22L747.64 86.85L748.66 87.56L749.61 88.34L750.5 89.2L751.31 90.12L752.05 91.1L752.7 92.14L753.26 93.23L753.74 94.37L754.11 95.55L754.39 96.78L754.56 98.04L754.61 99.32L754.61 99.36L755.92 99.38L759.61 99.55L763.26 99.84L766.86 100.23L770.42 100.73L773.93 101.33L777.38 102.04L780.78 102.84L784.12 103.75L786.75 104.55L787.52 103.58L788.7 102.21L789.92 100.89L791.2 99.62L792.51 98.4L793.88 97.23L795.28 96.12L796.73 95.06L798.22 94.06L799.74 93.12L801.31 92.24L802.91 91.42L804.54 90.66L806.21 89.97L807.9 89.34L809.63 88.79L811.38 88.3L812.12 88.13L811.85 86.93L811.68 85.67L811.62 84.38L811.68 83.09L811.85 81.84L812.12 80.61L812.5 79.43L812.97 78.29L813.54 77.2L814.19 76.16L814.92 75.17L815.74 74.25L816.62 73.4L817.58 72.62L818.6 71.91L819.68 71.28L820.81 70.74L822 70.28L823.23 69.92L824.5 69.66L825.8 69.49L827.14 69.44L828.48 69.49L829.79 69.66L831.06 69.92L832.29 70.28L833.47 70.74L834.6 71.28L835.68 71.91L836.7 72.62L837.66 73.4L838.55 74.25L839.36 75.17L840.09 76.16L840.75 77.2L841.31 78.29L841.78 79.43L842.16 80.61L842.43 81.84L842.6 83.09L842.66 84.38L842.6 85.67L842.43 86.93L842.16 88.15L841.78 89.34L841.31 90.48L841.04 91L841.95 91.42L843.55 92.24L845.11 93.12L846.64 94.06L848.13 95.06L849.57 96.12L850.98 97.23L852.34 98.4L853.66 99.62L854.93 100.89L856.16 102.21L857.33 103.58L858.46 104.99L859.53 106.45L860.55 107.95L860.78 108.31L862.01 107.46L863.68 106.42L865.37 105.49L867.1 104.66L868.86 103.93L870.64 103.3L872.45 102.79L874.28 102.38L876.13 102.09L878.01 101.91L879.9 101.85L881.79 101.91L883.67 102.09L885.52 102.38L887.35 102.79L889.16 103.3L890.94 103.93L892.7 104.66L894.43 105.49L896.12 106.42L896.59 106.71L897.18 105.6L898.35 103.56L899.58 101.59L900.85 99.69L902.17 97.87L903.53 96.12L904.94 94.46L906.38 92.88L907.87 91.39L909.4 89.98L910.96 88.66L912.56 87.44L914.19 86.31L915.86 85.27L917.56 84.34L919.28 83.51L921.04 82.78L922.82 82.15L924.63 81.64L926.46 81.23L928.31 80.94L930.19 80.76L932.08 80.7L933.98 80.76L935.85 80.94L937.71 81.23L939.54 81.64L941.34 82.15L943.13 82.78L944.88 83.51L946.61 84.34L948.31 85.27L949.97 86.31L951.61 87.44L953.2 88.66L954.77 89.98L956.29 91.39L957.78 92.88L959.23 94.46L960.64 96.12L962 97.87L963.32 99.69L964.59 101.59L965.81 103.56L966.99 105.6L968.11 107.71L969.18 109.89L970.2 112.14L971.17 114.44L972.08 116.81L972.23 117.26L973.54 116.45L975.1 115.57L976.7 114.75L978.33 114L980 113.3L981.7 112.68L983.42 112.12L985.18 111.63L986.96 111.21L988.77 110.87L990.6 110.6L992.45 110.4L994.33 110.28L996.22 110.24L998.12 110.28L999.99 110.4L1001.84 110.6L1003.67 110.87L1005.48 111.21L1007.26 111.63L1009.02 112.12L1010.75 112.68L1012.44 113.3L1014.11 114L1015.74 114.75L1017.16 115.48L1017.14 114.96L1017.2 113.67L1017.37 112.41L1017.64 111.19L1018.02 110L1018.49 108.86L1019.05 107.77L1019.7 106.73L1020.44 105.75L1021.25 104.83L1022.14 103.97L1023.1 103.19L1024.12 102.48L1025.19 101.86L1026.33 101.31L1027.51 100.86L1028.74 100.49L1030.01 100.23L1031.32 100.07L1032.66 100.01L1034 100.07L1035.3 100.23L1036.57 100.49L1037.8 100.86L1038.99 101.31L1040.12 101.86L1041.2 102.48L1042.22 103.19L1043.18 103.97L1044.06 104.83L1044.88 105.75L1045.61 106.73L1046.26 107.77L1046.83 108.86L1047.3 110L1047.68 111.19L1047.95 112.41L1048.12 113.67L1048.13 113.89L1050.28 112.64L1053.13 111.11L1056.06 109.66L1059.06 108.3L1062.14 107.03L1065.28 105.84L1068.5 104.75L1071.77 103.75L1072.52 103.55L1072.29 103.39L1071.34 102.61L1070.45 101.75L1069.64 100.83L1068.9 99.85L1068.25 98.81L1067.68 97.72L1067.21 96.58L1066.84 95.39L1066.56 94.17L1066.39 92.91L1066.34 91.62L1066.39 90.34L1066.56 89.08L1066.84 87.85L1067.21 86.67L1067.68 85.53L1068.25 84.44L1068.9 83.4L1069.64 82.42L1070.45 81.5L1071.34 80.64L1072.29 79.86L1073.31 79.15L1074.39 78.52L1075.52 77.98L1076.71 77.52L1077.94 77.16L1079.21 76.9L1080.52 76.74L1081.85 76.68L1083.19 76.74L1084.5 76.9L1085.77 77.16L1087 77.52L1088.18 77.98L1089.32 78.52L1090.4 79.15L1091.42 79.86L1092.37 80.64L1093.26 81.5L1094.07 82.42L1094.81 83.4L1095.46 84.44L1096.02 85.53L1096.5 86.67L1096.87 87.85L1097.15 89.08L1097.31 90.34L1097.37 91.62L1097.31 92.91L1097.15 94.17L1096.87 95.39L1096.5 96.58L1096.02 97.72L1095.46 98.81L1094.93 99.66L1096.28 99.55L1099.97 99.38L1103.69 99.32L1107.42 99.38L1111.11 99.55L1114.75 99.84L1117.84 100.17L1118.25 99.38L1118.9 98.34L1119.64 97.36L1120.45 96.44L1121.34 95.58L1122.29 94.8L1123.31 94.09L1124.39 93.46L1125.52 92.92L1126.71 92.47L1127.94 92.1L1129.21 91.84L1130.52 91.68L1131.85 91.62L1133.19 91.68L1134.5 91.84L1135.34 92.02L1135.47 91.68L1136.2 89.99L1136.99 88.33L1137.84 86.71L1138.75 85.13L1139.71 83.58L1140.73 82.08L1141.8 80.62L1142.93 79.21L1144.1 77.84L1145.33 76.52L1146.6 75.25L1147.92 74.03L1149.28 72.86L1150.68 71.75L1152.13 70.69L1153.62 69.69L1155.15 68.75L1156.71 67.87L1158.31 67.05L1159.94 66.29L1161.61 65.6L1163.3 64.98L1165.03 64.42L1166.79 63.93L1168.57 63.51L1170.38 63.17L1172.21 62.9L1174.06 62.7L1175.94 62.58L1177.83 62.54L1179.72 62.58L1181.6 62.7L1183.45 62.9L1185.28 63.17L1187.09 63.51L1188.87 63.93L1190.63 64.42L1192.36 64.98L1194.05 65.6L1195.72 66.29L1197.35 67.05L1198.95 67.87L1200.52 68.75L1202.04 69.69L1203.53 70.69L1204.98 71.75L1206.38 72.86L1207.74 74.03L1209.06 75.25L1210.33 76.52L1211.56 77.84L1212.73 79.21L1213.86 80.62L1214.93 82.08L1215.95 83.58L1216.91 85.13L1217.82 86.71L1218.67 88.33L1219.46 89.99L1220.19 91.68L1220.86 93.41L1221.46 95.17L1222 96.97L1222.47 98.79L1222.87 100.64L1223.21 102.51L1223.47 104.41L1223.65 106.33L1223.77 108.28L1223.81 110.24L1223.77 112.21L1223.65 114.15L1223.47 116.08L1223.21 117.98L1222.87 119.85L1222.47 121.7L1222 123.52L1221.46 125.31L1220.86 127.08L1220.19 128.8L1219.46 130.5L1218.67 132.16L1217.82 133.78L1216.91 135.36L1215.95 136.91L1214.93 138.41L1213.86 139.87L1212.73 141.28L1211.56 142.65L1210.33 143.97L1209.06 145.24L1207.74 146.46L1206.38 147.62L1204.98 148.74L1203.53 149.79L1202.04 150.79L1200.52 151.74L1198.95 152.62L1197.35 153.44L1195.72 154.19L1194.05 154.89L1192.56 155.44L1192.97 157.11L1193.48 159.86L1193.85 162.64L1194.08 165.45L1194.15 168.29L1194.08 171.13L1193.85 173.94L1193.48 176.72L1192.97 179.47L1192.31 182.18L1191.52 184.86L1190.6 187.49L1189.54 190.08L1188.35 192.62L1187.04 195.12L1185.6 197.57L1184.05 199.97L1182.38 202.32L1180.59 204.61L1178.69 206.84L1176.69 209.01L1174.58 211.12L1172.37 213.16L1170.05 215.14L1167.64 217.05L1165.14 218.88L1162.55 220.65L1159.87 222.33L1157.1 223.94L1154.25 225.47L1151.33 226.92L1148.33 228.28L1145.25 229.55L1142.1 230.74L1138.89 231.83L1135.61 232.83L1132.27 233.74L1128.87 234.54L1125.42 235.25L1121.91 235.85L1118.36 236.35L1114.75 236.74L1111.11 237.03L1107.42 237.2L1103.69 237.26L1099.97 237.2L1096.28 237.03L1092.63 236.74L1089.03 236.35L1085.47 235.85L1081.96 235.25L1078.51 234.54L1075.11 233.74L1071.77 232.83L1068.5 231.83L1065.28 230.74L1062.14 229.55L1059.06 228.28L1056.06 226.92L1053.13 225.47L1050.28 223.94L1047.52 222.33L1044.84 220.65L1042.24 218.88L1039.74 217.05L1037.33 215.14L1035.02 213.16L1032.81 211.12L1030.7 209.01L1028.69 206.84L1026.79 204.61L1025.01 202.32L1023.34 199.97L1021.79 197.58L1020.43 198.5L1018.91 199.44L1017.34 200.32L1015.74 201.14L1014.11 201.9L1012.44 202.59L1010.75 203.21L1009.02 203.77L1007.26 204.26L1005.48 204.68L1003.67 205.02L1001.84 205.29L999.99 205.49L998.12 205.61L996.22 205.65L994.33 205.61L992.45 205.49L990.6 205.29L988.77 205.02L986.96 204.68L985.18 204.26L983.42 203.77L981.7 203.21L980 202.59L978.33 201.9L976.7 201.14L975.1 200.32L973.54 199.44L972.01 198.5L970.52 197.5L969.08 196.44L968.31 195.83L968.11 196.22L966.99 198.34L965.81 200.38L964.59 202.35L963.32 204.25L962 206.07L960.64 207.81L959.23 209.48L957.78 211.05L956.29 212.55L954.77 213.96L953.2 215.27L951.61 216.5L949.97 217.63L948.31 218.66L946.61 219.6L944.88 220.43L943.13 221.16L941.34 221.78L939.54 222.3L937.71 222.7L935.85 223L933.98 223.17L932.08 223.23L930.19 223.17L928.31 223L926.46 222.7L924.63 222.3L922.82 221.78L921.04 221.16L919.28 220.43L917.56 219.6L915.86 218.66L915.4 218.37L914.8 219.49L913.63 221.53L912.4 223.5L911.13 225.4L909.81 227.22L908.45 228.96L907.05 230.62L905.6 232.2L904.11 233.7L902.58 235.11L901.02 236.42L899.42 237.65L897.79 238.78L896.12 239.81L894.43 240.75L892.7 241.58L890.94 242.31L889.16 242.93L887.35 243.45L885.52 243.85L883.67 244.15L881.79 244.32L879.9 244.38L878.01 244.32L876.13 244.15L874.28 243.85L872.45 243.45L870.64 242.93L868.86 242.31L867.1 241.58L865.37 240.75L863.68 239.81L862.01 238.78L860.38 237.65L858.78 236.42L857.21 235.11L855.69 233.7L854.2 232.2L852.75 230.62L851.35 228.96L849.99 227.22L848.67 225.4L847.4 223.5L846.17 221.53L845 219.49L843.87 217.37L842.8 215.19L841.78 212.95L840.81 210.65L839.91 208.28L839.06 205.86L838.27 203.38L837.54 200.85L836.87 198.26L836.27 195.63L835.99 194.27L835.54 195.12L834.11 197.57L832.55 199.97L830.88 202.32L829.1 204.61L827.2 206.84L825.19 209.01L823.08 211.12L820.87 213.16L818.56 215.14L816.15 217.05L813.65 218.88L811.05 220.65L808.37 222.33L805.61 223.94L802.76 225.47L799.83 226.92L796.83 228.28L793.75 229.55L790.61 230.74L787.4 231.83L784.12 232.83L780.78 233.74L777.38 234.54L773.93 235.25L770.42 235.85L766.86 236.35L763.26 236.74L759.61 237.03L755.92 237.2L752.2 237.26L748.47 237.2L744.78 237.03L741.14 236.74L737.53 236.35L733.98 235.85L730.47 235.25L727.02 234.54L723.62 233.74L720.28 232.83L717 231.83L713.79 230.74L710.64 229.55L707.57 228.28L704.56 226.92L701.64 225.47L698.79 223.94L696.02 222.33L693.34 220.65L690.75 218.88L688.25 217.05L685.84 215.14L683.52 213.16L681.31 211.12L679.2 209.01L677.2 206.84L675.3 204.61L674.56 203.66L672.29 204.88L669.36 206.33L666.36 207.69L663.28 208.96L660.13 210.15L656.92 211.24L653.64 212.24L650.3 213.15L646.91 213.95L643.45 214.66L639.95 215.26L636.39 215.76L632.79 216.16L629.14 216.44L625.45 216.61L621.72 216.67L618 216.61L614.31 216.44L610.66 216.16L607.06 215.76L603.5 215.26L600 214.66L596.54 213.95L593.14 213.15L589.81 212.24L586.53 211.24L586.3 211.17L585.12 211.22L581.39 211.28L577.67 211.22L573.98 211.05L570.33 210.77L566.73 210.38L563.17 209.88L559.67 209.27L556.21 208.57L552.81 207.76L549.47 206.86L546.2 205.86L542.98 204.76L539.84 203.58L536.76 202.3L533.96 201.03L532.83 202.96L531.28 205.36L529.6 207.71L527.82 209.99L525.92 212.23L523.92 214.4L521.81 216.51L519.59 218.55L517.28 220.53L514.87 222.43L512.37 224.27L509.78 226.03L507.1 227.72L504.33 229.33L501.48 230.86L498.56 232.3L495.55 233.67L492.48 234.94L489.33 236.13L486.12 237.22L482.84 238.22L479.5 239.13L476.1 239.93L472.65 240.64L469.14 241.24L465.58 241.74L461.98 242.13L458.33 242.41L454.65 242.59L450.92 242.64L447.19 242.59L443.5 242.41L439.86 242.13L436.25 241.74L432.7 241.24L429.19 240.64L425.74 239.93L422.34 239.13L419 238.22L415.72 237.22L412.51 236.13L409.36 234.94L406.29 233.67L403.28 232.3L400.36 230.86L397.51 229.33L394.74 227.72L392.06 226.03L389.47 224.27L386.97 222.43L384.56 220.53L382.25 218.55L380.03 216.51L377.92 214.4L375.92 212.23L374.02 209.99L372.23 207.71L370.56 205.36L369.01 202.96L367.57 200.51L367.12 199.66L366.85 201.02L366.25 203.65L365.58 206.23L364.85 208.77L364.06 211.24L363.21 213.67L362.3 216.03L361.34 218.34L360.32 220.58L359.25 222.76L358.12 224.87L356.95 226.92L355.72 228.89L354.45 230.79L353.13 232.61L351.77 234.35L350.36 236.01L348.92 237.59L347.43 239.09L345.9 240.49L344.34 241.81L342.74 243.04L341.11 244.17L339.44 245.2L337.74 246.13L336.02 246.97L334.26 247.7L332.48 248.32L330.67 248.84L328.84 249.24L326.99 249.53L325.11 249.71L323.22 249.77L321.32 249.71L319.45 249.53L317.6 249.24L315.76 248.84L313.96 248.32L312.18 247.7L310.42 246.97L308.69 246.13L307 245.2L305.33 244.17L303.7 243.04L302.1 241.81L300.53 240.49L299.01 239.09L297.52 237.59L296.07 236.01L294.67 234.35L293.3 232.61L291.99 230.79L290.71 228.89L289.49 226.92L288.31 224.87L287.72 223.76L287.26 224.05L285.56 224.99L283.83 225.82L282.08 226.55L280.3 227.17L278.49 227.69L276.66 228.09L274.8 228.38L272.93 228.56L271.03 228.62L269.14 228.56L267.27 228.38L265.41 228.09L263.58 227.69L261.77 227.17L259.99 226.55L258.24 225.82L256.51 224.99L254.81 224.05L253.15 223.02L251.51 221.89L249.91 220.66L248.35 219.34L246.82 217.94L245.34 216.44L243.89 214.86L242.48 213.2L241.12 211.46L239.8 209.64L238.53 207.74L237.31 205.77L236.13 203.72L235.01 201.61L234.81 201.22L234.04 201.83L232.6 202.88L231.11 203.88L229.58 204.83L228.02 205.71L226.42 206.53L224.79 207.28L223.12 207.98L221.42 208.6L219.7 209.16L217.94 209.65L216.16 210.06L214.35 210.41L212.52 210.68L210.67 210.88L208.79 210.99L206.9 211.03L205 210.99L203.13 210.88L201.27 210.68L199.44 210.41L197.64 210.06L195.85 209.65L194.1 209.16L192.37 208.6L190.67 207.98L189.01 207.28L187.37 206.53L185.77 205.71L184.21 204.83L182.69 203.88L181.33 202.97L179.78 205.36L178.11 207.71L176.32 209.99L174.43 212.23L172.42 214.4L170.31 216.51L168.1 218.55L165.79 220.53L163.38 222.43L160.88 224.27L158.28 226.03L155.6 227.72L152.84 229.33L149.99 230.86L147.06 232.3L144.06 233.67L140.98 234.94L137.84 236.13L134.62 237.22L131.34 238.22L128 239.13L124.61 239.93L121.15 240.64L117.65 241.24L114.09 241.74L110.49 242.13L106.84 242.41L103.15 242.59L99.43 242.64L95.7 242.59L92.01 242.41L88.36 242.13L84.76 241.74L81.2 241.24L77.7 240.64L74.24 239.93L70.85 239.13L67.51 238.22L64.23 237.22L61.01 236.13L57.87 234.94L54.79 233.67L51.79 232.3L48.86 230.86L46.02 229.33L43.25 227.72L40.57 226.03L37.98 224.27L35.47 222.43L33.06 220.53L30.75 218.55L28.54 216.51L26.43 214.4L24.42 212.23L22.53 209.99L20.74 207.71L19.07 205.36L17.51 202.96L16.08 200.51L14.77 198.01L13.58 195.47L12.52 192.88L11.6 190.24L10.8 187.57L10.15 184.86L9.64 182.11L9.27 179.33L9.04 176.52L8.97 173.68L9.04 170.84L9.27 168.03L9.64 165.24L10.15 162.5L10.55 160.82L9.06 160.27L7.4 159.58L5.76 158.83L4.17 158.01L2.6 157.12L1.08 156.18L-0.41 155.18L-1.86 154.12L-3.26 153.01L-4.63 151.84L-5.95 150.63L-7.22 149.36L-8.44 148.04L-9.62 146.67L-10.74 145.25L-11.81 143.8L-12.83 142.29L-13.8 140.75L-14.7 139.17L-15.55 137.55L-16.34 135.89L-17.07 134.19L-17.74 132.46L-18.34 130.7L-18.88 128.91L-19.35 127.09L-19.75 125.24L-20.09 123.37L-20.35 121.47L-20.54 119.54L-20.65 117.6L-20.69 115.63L-20.65 113.67L-20.54 111.72L-20.35 109.8L-20.09 107.9L-19.75 106.02L-19.35 104.17L-18.88 102.35L-18.34 100.56L-17.74 98.8L-17.07 97.07L-16.34 95.38L-15.55 93.72L-14.7 92.1L-13.8 90.51L-12.83 88.97L-11.81 87.47L-10.74 86.01L-9.62 84.6L-8.44 83.23L-7.22 81.91L-5.95 80.64L-4.63 79.42L-3.26 78.25L-1.86 77.14L-0.41 76.08L1.08 75.08L2.6 74.14L4.17 73.26L5.76 72.44L7.4 71.68L9.06 70.99L10.76 70.36L12.49 69.81L14.24 69.32L16.03 68.9L17.83 68.56L19.67 68.28L21.52 68.09L23.39 67.97L25.29 67.93L27.18 67.97L29.06 68.09L30.91 68.28L32.74 68.56L34.55 68.9L36.33 69.32L38.09 69.81L39.81 70.36L41.51 70.99L43.18 71.68L44.81 72.44L46.41 73.26L47.97 74.14L49.5 75.08L50.99 76.08L52.43 77.14L53.84 78.25L55.2 79.42L56.52 80.64L57.79 81.91L59.02 83.23L60.19 84.6L61.32 86.01L62.39 87.47L63.41 88.97L64.37 90.51L65.28 92.1L66.13 93.72L66.92 95.38L67.65 97.07L67.78 97.4L68.62 97.23L69.93 97.07L71.26 97.01L72.6 97.07L73.91 97.23L75.18 97.49L76.41 97.85L77.59 98.31L78.73 98.85L79.81 99.48L80.83 100.19L81.78 100.97L82.67 101.83L83.48 102.75L84.22 103.73L84.87 104.77L85.28 105.56L88.36 105.22L92.01 104.94L95.7 104.77L99.43 104.71L103.15 104.77L106.84 104.94L108.19 105.05L107.66 104.2L107.09 103.11L106.62 101.97L106.25 100.78L105.97 99.56L105.8 98.3L105.75 97.01L105.8 95.72L105.97 94.46L106.25 93.24L106.62 92.06L107.09 90.92L107.66 89.82L108.31 88.79L109.05 87.8L109.86 86.88L110.75 86.03L111.7 85.25L112.72 84.54L113.8 83.91L114.94 83.37L116.12 82.91L117.35 82.55L118.62 82.29L119.93 82.12L121.26 82.07L122.6 82.12L123.91 82.29L125.18 82.55L126.41 82.91L127.59 83.37L128.73 83.91L129.81 84.54L130.83 85.25L131.27 85.61L131.3 85.19L131.57 83.9L132.01 82.68L132.6 81.55L133.32 80.52L134.17 79.61L135.13 78.84L136.19 78.21L137.34 77.75L138.55 77.46L139.83 77.36L141.1 77.46L142.32 77.75L143.46 78.21L144.52 78.84L145.48 79.61L146.33 80.52L147.06 81.55L147.65 82.68L148.08 83.9L148.35 85.19L148.45 86.55L148.35 87.91L148.08 89.21L147.65 90.43L147.06 91.56L146.33 92.58L145.48 93.49L144.52 94.26L143.46 94.89L142.32 95.36L141.1 95.65L139.83 95.75L138.55 95.65L137.34 95.36L136.64 95.07L136.72 95.72L136.78 97.01L136.72 98.3L136.56 99.56L136.28 100.78L135.91 101.97L135.43 103.11L134.87 104.2L134.22 105.24L133.48 106.22L132.67 107.14L131.78 107.99L130.83 108.78L130.6 108.93L131.34 109.14L134.62 110.14L137.84 111.23L140.98 112.42L144.06 113.69L147.06 115.05L149.99 116.5L152.84 118.03L154.99 119.28L155 119.06L155.17 117.8L155.44 116.57L155.82 115.39L156.29 114.25L156.85 113.16L157.51 112.12L158.24 111.14L159.06 110.22L159.94 109.36L160.9 108.58L161.92 107.87L163 107.24L164.13 106.7L165.31 106.24L166.54 105.88L167.82 105.62L169.12 105.46L170.46 105.4L171.8 105.46L173.1 105.62L174.37 105.88L175.6 106.24L176.79 106.7L177.92 107.24L179 107.87L180.02 108.58L180.98 109.36L181.86 110.22L182.68 111.14L183.41 112.12L184.07 113.16L184.63 114.25L185.1 115.39L185.48 116.57L185.75 117.8L185.92 119.06L185.98 120.34L185.95 120.87L187.37 120.14L189.01 119.38L190.67 118.69L192.37 118.07L194.1 117.51L195.85 117.02L197.64 116.6L199.44 116.26L201.27 115.99L203.13 115.79L205 115.67L206.9 115.63L208.79 115.67L210.67 115.79L212.52 115.99L214.35 116.26L216.16 116.6L217.94 117.02L219.7 117.51L221.42 118.07L223.12 118.69L224.79 119.38L226.42 120.14L228.02 120.96L229.58 121.84L230.88 122.65L231.04 122.19L231.95 119.83L232.91 117.52L233.93 115.28L235.01 113.1L236.13 110.99L237.31 108.95L238.53 106.97L239.8 105.08L241.12 103.26L242.48 101.51L243.89 99.85L245.34 98.27L246.82 96.78L248.35 95.37L249.91 94.05L251.51 92.83L253.15 91.7L254.81 90.66L256.51 89.73L258.24 88.89L259.99 88.16L261.77 87.54L263.58 87.03L265.41 86.62L267.27 86.33L269.14 86.15L271.03 86.09L272.93 86.15L274.8 86.33L276.66 86.62L278.49 87.03L280.3 87.54L282.08 88.16L283.83 88.89L285.56 89.73L287.26 90.66L288.92 91.7L290.56 92.83L292.16 94.05L293.72 95.37L295.25 96.78L296.73 98.27L298.18 99.85L299.59 101.51L300.95 103.26L302.27 105.08L303.54 106.97L304.76 108.95L305.94 110.99L306.53 112.1L307 111.81L308.69 110.88L310.42 110.04L312.18 109.31L313.96 108.69L315.76 108.17L317.6 107.77L319.45 107.48L321.32 107.3L323.22 107.24L325.11 107.3L326.99 107.48L328.84 107.77L330.67 108.17L332.48 108.69L334.26 109.31L336.02 110.04L337.74 110.88L339.44 111.81L341.11 112.85L342.34 113.7L342.57 113.34L343.59 111.84L344.66 110.38L345.79 108.96L346.96 107.6L348.19 106.28L349.46 105.01L350.78 103.79L352.14 102.62L353.54 101.51L354.99 100.45L356.48 99.45L358 98.51L359.57 97.63L361.17 96.81L362.08 96.39L361.81 95.86L361.33 94.72L360.96 93.54L360.68 92.32L360.52 91.06L360.46 89.77L360.52 88.48L360.68 87.22L360.96 86L361.33 84.82L361.81 83.68L362.37 82.58L363.02 81.54L363.76 80.56L364.57 79.64L365.46 78.79L366.41 78L367.43 77.3L368.51 76.67L369.65 76.12L370.83 75.67L372.06 75.31L373.33 75.04L374.64 74.88L375.98 74.83L377.32 74.88L378.62 75.04L379.89 75.31L381.12 75.67L382.31 76.12L383.44 76.67L384.52 77.3L385.54 78L386.49 78.79L387.38 79.64L388.19 80.56L388.93 81.54L389.58 82.58L390.15 83.68L390.62 84.82L391 86L391.27 87.22L391.44 88.48L391.49 89.77L391.44 91.06L391.27 92.32L391 93.52L391.73 93.69L393.49 94.17L395.22 94.73L396.91 95.36L398.58 96.05L400.21 96.81L401.81 97.63L403.37 98.51L404.9 99.45L406.39 100.45L407.84 101.51L409.24 102.62L410.6 103.79L411.92 105.01L413.19 106.28L414.42 107.6L415.59 108.96L416.37 109.94L419 109.14L422.34 108.23L425.74 107.42L429.19 106.72L432.7 106.11L436.25 105.62L439.86 105.22L443.5 104.94L447.19 104.77L448.51 104.75L448.51 104.71L448.56 103.42L448.73 102.17L449 100.94L449.38 99.76L449.85 98.62L450.42 97.53L451.07 96.49L451.81 95.5L452.62 94.58L453.51 93.73L454.46 92.95L455.48 92.24L456.56 91.61L457.69 91.07L458.88 90.61L460.11 90.25L461.38 89.99L462.68 89.83L464.02 89.77L465.36 89.83L466.67 89.99L467.94 90.25L469.17 90.61L470.35 91.07L471.49 91.61L472.57 92.24L472.61 92.27L472.85 91.7L473.64 90.04L474.49 88.42L475.4 86.83L476.36 85.29L477.38 83.79L478.45 82.33L479.58 80.92L480.23 80.16L479.86 78.71L479.45 76.86L479.12 74.99L478.86 73.09L478.67 71.17L478.56 69.22L478.52 67.26L478.56 65.29L478.67 63.35L478.86 61.42L479.12 59.52L479.45 57.65L479.86 55.8L480.33 53.98L480.87 52.19L481.47 50.42L482.14 48.7L482.86 47L483.66 45.34L484.5 43.72L485.41 42.14L486.38 40.59L487.4 39.09L488.47 37.63L489.59 36.22L490.77 34.85L491.99 33.53L493.26 32.26L494.58 31.04L495.95 29.88L497.35 28.76L498.8 27.71L500.29 26.71L501.81 25.76L503.38 24.88L504.97 24.06L506.61 23.31L508.27 22.61L509.97 21.99L511.7 21.43L513.45 20.94L515.24 20.52L517.04 20.18L518.87 19.91L520.73 19.71L522.6 19.59L524.5 19.55L526.39 19.59L528.27 19.71ZM432.83 77.75L433.98 78.21L435.04 78.84L436 79.61L436.85 80.52L437.58 81.55L438.16 82.68L438.6 83.9L438.87 85.19L438.97 86.55L438.87 87.91L438.6 89.21L438.16 90.43L437.58 91.56L436.85 92.58L436 93.49L435.04 94.26L433.98 94.89L432.83 95.36L431.62 95.65L430.34 95.75L429.07 95.65L427.86 95.36L426.71 94.89L425.65 94.26L424.69 93.49L423.84 92.58L423.11 91.56L422.53 90.43L422.09 89.21L421.82 87.91L421.72 86.55L421.82 85.19L422.09 83.9L422.53 82.68L423.11 81.55L423.84 80.52L424.69 79.61L425.65 78.84L426.71 78.21L427.86 77.75L429.07 77.46L430.34 77.36L431.62 77.46L432.83 77.75ZM212.18 56.42L213.46 56.69L214.69 57.05L215.87 57.5L217 58.05L218.08 58.68L219.1 59.38L220.06 60.17L220.94 61.02L221.76 61.94L222.49 62.92L223.15 63.96L223.71 65.05L224.18 66.2L224.56 67.38L224.83 68.6L225 69.86L225.06 71.15L225 72.44L224.83 73.7L224.56 74.92L224.18 76.1L223.71 77.24L223.15 78.34L222.49 79.38L221.76 80.36L220.94 81.28L220.06 82.13L219.1 82.91L218.08 83.62L217 84.25L215.87 84.79L214.69 85.25L213.46 85.61L212.18 85.88L210.88 86.04L209.54 86.09L208.2 86.04L206.9 85.88L205.63 85.61L204.4 85.25L203.21 84.79L202.08 84.25L201 83.62L199.98 82.91L199.02 82.13L198.14 81.28L197.32 80.36L196.59 79.38L195.93 78.34L195.37 77.24L194.9 76.1L194.52 74.92L194.25 73.7L194.08 72.44L194.02 71.15L194.08 69.86L194.25 68.6L194.52 67.38L194.9 66.2L195.37 65.05L195.93 63.96L196.59 62.92L197.32 61.94L198.14 61.02L199.02 60.17L199.98 59.38L201 58.68L202.08 58.05L203.21 57.5L204.4 57.05L205.63 56.69L206.9 56.42L208.2 56.26L209.54 56.21L210.88 56.26L212.18 56.42ZM1127.01 66.19L1128.16 66.66L1129.22 67.29L1130.18 68.06L1131.03 68.97L1131.76 69.99L1132.34 71.12L1132.78 72.35L1133.05 73.64L1133.15 75L1133.05 76.36L1132.78 77.65L1132.34 78.88L1131.76 80.01L1131.03 81.03L1130.18 81.94L1129.22 82.71L1128.16 83.34L1127.01 83.81L1125.8 84.1L1124.53 84.2L1123.25 84.1L1122.04 83.81L1120.89 83.34L1119.83 82.71L1118.87 81.94L1118.02 81.03L1117.29 80.01L1116.71 78.88L1116.27 77.65L1116 76.36L1115.91 75L1116 73.64L1116.27 72.35L1116.71 71.12L1117.29 69.99L1118.02 68.97L1118.87 68.06L1119.83 67.29L1120.89 66.66L1122.04 66.19L1123.25 65.9L1124.53 65.8L1125.8 65.9L1127.01 66.19ZM996.22 51.04L997.49 51.3L998.72 51.66L999.91 52.12L1001.04 52.66L1002.12 53.29L1003.14 54L1004.1 54.78L1004.98 55.63L1005.8 56.55L1006.53 57.54L1007.18 58.57L1007.75 59.67L1008.22 60.81L1008.6 61.99L1008.87 63.21L1009.04 64.47L1009.09 65.76L1009.04 67.05L1008.87 68.31L1008.6 69.53L1008.22 70.72L1007.75 71.86L1007.18 72.95L1006.53 73.99L1005.8 74.97L1004.98 75.89L1004.1 76.74L1003.14 77.53L1002.12 78.23L1001.04 78.86L999.91 79.41L998.72 79.86L997.49 80.22L996.22 80.49L994.92 80.65L993.58 80.7L992.24 80.65L990.93 80.49L989.66 80.22L988.43 79.86L987.25 79.41L986.11 78.86L985.04 78.23L984.02 77.53L983.06 76.74L982.17 75.89L981.36 74.97L980.62 73.99L979.97 72.95L979.41 71.86L978.94 70.72L978.56 69.53L978.29 68.31L978.12 67.05L978.06 65.76L978.12 64.47L978.29 63.21L978.56 61.99L978.94 60.81L979.41 59.67L979.97 58.57L980.62 57.54L981.36 56.55L982.17 55.63L983.06 54.78L984.02 54L985.04 53.29L986.11 52.66L987.25 52.12L988.43 51.66L989.66 51.3L990.93 51.04L992.24 50.87L993.58 50.82L994.92 50.87L996.22 51.04ZM745.05 51.34L746.19 51.8L747.25 52.43L748.21 53.2L749.06 54.11L749.79 55.14L750.38 56.27L750.81 57.49L751.08 58.79L751.18 60.14L751.08 61.5L750.81 62.8L750.38 64.02L749.79 65.15L749.06 66.18L748.21 67.08L747.25 67.86L746.19 68.48L745.05 68.95L743.83 69.24L742.56 69.34L741.28 69.24L740.07 68.95L738.92 68.48L737.86 67.86L736.9 67.08L736.05 66.18L735.33 65.15L734.74 64.02L734.3 62.8L734.03 61.5L733.94 60.14L734.03 58.79L734.3 57.49L734.74 56.27L735.33 55.14L736.05 54.11L736.9 53.2L737.86 52.43L738.92 51.8L740.07 51.34L741.28 51.05L742.56 50.95L743.83 51.05L745.05 51.34ZM794.11 19.94L795.26 20.41L796.32 21.04L797.28 21.81L798.13 22.72L798.85 23.74L799.44 24.87L799.88 26.1L800.15 27.39L800.24 28.75L800.15 30.11L799.88 31.4L799.44 32.63L798.85 33.76L798.13 34.78L797.28 35.69L796.32 36.46L795.26 37.09L794.11 37.56L792.9 37.85L791.62 37.95L790.35 37.85L789.13 37.56L787.99 37.09L786.93 36.46L785.97 35.69L785.12 34.78L784.39 33.76L783.8 32.63L783.37 31.4L783.1 30.11L783 28.75L783.1 27.39L783.37 26.1L783.8 24.87L784.39 23.74L785.12 22.72L785.97 21.81L786.93 21.04L787.99 20.41L789.13 19.94L790.35 19.65L791.62 19.55L792.9 19.65L794.11 19.94Z" id="bt3xJ1wGf"></path></defs><g><g><g><g><filter id="shadow13323127" x="-35.69" y="4.55" width="1274.5" height="261.22" filterUnits="userSpaceOnUse" primitiveUnits="userSpaceOnUse"><feFlood></feFlood><feComposite in2="SourceAlpha" operator="in"></feComposite><feGaussianBlur stdDeviation="2"></feGaussianBlur><feOffset dx="0" dy="-1" result="afterOffset"></feOffset><feFlood flood-color="#000000" flood-opacity="0.5"></feFlood><feComposite in2="afterOffset" operator="in"></feComposite><feMorphology operator="dilate" radius="1"></feMorphology><feComposite in2="SourceAlpha" operator="out"></feComposite></filter><path d="M528.27 19.71L530.12 19.91L531.95 20.18L533.76 20.52L535.54 20.94L537.3 21.43L539.02 21.99L540.72 22.61L542.39 23.31L544.02 24.06L545.62 24.88L547.18 25.76L548.71 26.71L550.2 27.71L551.64 28.76L553.05 29.88L554.41 31.04L555.73 32.26L557 33.53L558.23 34.85L559.4 36.22L560.53 37.63L561.6 39.09L562.62 40.59L563.58 42.14L564.49 43.72L565.34 45.34L566.13 47L566.86 48.7L567.53 50.42L568.13 52.19L568.67 53.98L569.14 55.8L569.54 57.65L569.87 59.52L570.13 61.42L570.26 62.74L570.8 62.63L572.11 62.47L573.45 62.41L574.79 62.47L576.09 62.63L577.36 62.89L578.59 63.26L579.78 63.71L580.91 64.25L581.99 64.88L583.01 65.59L583.97 66.37L584.85 67.23L585.67 68.15L586.4 69.13L587.05 70.17L587.62 71.26L588.09 72.4L588.46 73.56L588.81 73.58L592.46 73.86L596.06 74.25L599.61 74.75L603.12 75.35L606.58 76.06L609.97 76.87L613.31 77.77L615.73 78.51L615.5 78.06L615.03 76.92L614.65 75.74L614.38 74.52L614.21 73.26L614.15 71.97L614.21 70.68L614.38 69.42L614.65 68.2L615.03 67.01L615.5 65.87L616.06 64.78L616.72 63.74L617.45 62.76L618.26 61.84L619.15 60.99L620.11 60.2L621.13 59.5L622.21 58.87L623.34 58.32L624.52 57.87L625.75 57.51L627.02 57.24L628.33 57.08L629.67 57.03L631.01 57.08L632.31 57.24L633.58 57.51L634.81 57.87L634.89 57.9L634.99 57.57L635.59 55.81L636.26 54.08L636.99 52.39L637.78 50.73L638.63 49.11L639.54 47.52L640.5 45.98L641.52 44.48L642.59 43.02L643.72 41.61L644.89 40.24L646.12 38.92L647.39 37.65L648.71 36.43L650.07 35.26L651.47 34.15L652.92 33.09L654.41 32.09L655.94 31.15L657.5 30.27L659.1 29.45L660.73 28.69L662.4 28L664.09 27.38L665.82 26.82L667.58 26.33L669.36 25.91L671.17 25.57L673 25.3L674.85 25.1L676.73 24.98L678.62 24.94L680.51 24.98L682.39 25.1L684.24 25.3L686.07 25.57L687.88 25.91L689.66 26.33L691.42 26.82L693.15 27.38L694.84 28L696.51 28.69L698.14 29.45L699.74 30.27L701.31 31.15L702.83 32.09L704.32 33.09L705.77 34.15L707.17 35.26L708.54 36.43L709.85 37.65L711.12 38.92L712.35 40.24L713.52 41.61L714.65 43.02L715.72 44.48L716.74 45.98L717.71 47.52L718.61 49.11L719.46 50.73L720.25 52.39L720.98 54.08L721.65 55.81L722.25 57.57L722.79 59.37L723.26 61.19L723.66 63.04L724 64.91L724.26 66.81L724.45 68.73L724.56 70.68L724.6 72.64L724.56 74.61L724.45 76.55L724.44 76.66L724.66 76.94L725.74 78.4L726.76 79.9L727.72 81.45L728.63 83.03L729.48 84.65L730.27 86.31L730.51 86.88L730.55 86.85L731.63 86.22L732.77 85.68L733.95 85.22L735.18 84.86L736.45 84.6L737.76 84.44L739.09 84.38L740.43 84.44L741.74 84.6L743.01 84.86L744.24 85.22L745.42 85.68L746.56 86.22L747.64 86.85L748.66 87.56L749.61 88.34L750.5 89.2L751.31 90.12L752.05 91.1L752.7 92.14L753.26 93.23L753.74 94.37L754.11 95.55L754.39 96.78L754.56 98.04L754.61 99.32L754.61 99.36L755.92 99.38L759.61 99.55L763.26 99.84L766.86 100.23L770.42 100.73L773.93 101.33L777.38 102.04L780.78 102.84L784.12 103.75L786.75 104.55L787.52 103.58L788.7 102.21L789.92 100.89L791.2 99.62L792.51 98.4L793.88 97.23L795.28 96.12L796.73 95.06L798.22 94.06L799.74 93.12L801.31 92.24L802.91 91.42L804.54 90.66L806.21 89.97L807.9 89.34L809.63 88.79L811.38 88.3L812.12 88.13L811.85 86.93L811.68 85.67L811.62 84.38L811.68 83.09L811.85 81.84L812.12 80.61L812.5 79.43L812.97 78.29L813.54 77.2L814.19 76.16L814.92 75.17L815.74 74.25L816.62 73.4L817.58 72.62L818.6 71.91L819.68 71.28L820.81 70.74L822 70.28L823.23 69.92L824.5 69.66L825.8 69.49L827.14 69.44L828.48 69.49L829.79 69.66L831.06 69.92L832.29 70.28L833.47 70.74L834.6 71.28L835.68 71.91L836.7 72.62L837.66 73.4L838.55 74.25L839.36 75.17L840.09 76.16L840.75 77.2L841.31 78.29L841.78 79.43L842.16 80.61L842.43 81.84L842.6 83.09L842.66 84.38L842.6 85.67L842.43 86.93L842.16 88.15L841.78 89.34L841.31 90.48L841.04 91L841.95 91.42L843.55 92.24L845.11 93.12L846.64 94.06L848.13 95.06L849.57 96.12L850.98 97.23L852.34 98.4L853.66 99.62L854.93 100.89L856.16 102.21L857.33 103.58L858.46 104.99L859.53 106.45L860.55 107.95L860.78 108.31L862.01 107.46L863.68 106.42L865.37 105.49L867.1 104.66L868.86 103.93L870.64 103.3L872.45 102.79L874.28 102.38L876.13 102.09L878.01 101.91L879.9 101.85L881.79 101.91L883.67 102.09L885.52 102.38L887.35 102.79L889.16 103.3L890.94 103.93L892.7 104.66L894.43 105.49L896.12 106.42L896.59 106.71L897.18 105.6L898.35 103.56L899.58 101.59L900.85 99.69L902.17 97.87L903.53 96.12L904.94 94.46L906.38 92.88L907.87 91.39L909.4 89.98L910.96 88.66L912.56 87.44L914.19 86.31L915.86 85.27L917.56 84.34L919.28 83.51L921.04 82.78L922.82 82.15L924.63 81.64L926.46 81.23L928.31 80.94L930.19 80.76L932.08 80.7L933.98 80.76L935.85 80.94L937.71 81.23L939.54 81.64L941.34 82.15L943.13 82.78L944.88 83.51L946.61 84.34L948.31 85.27L949.97 86.31L951.61 87.44L953.2 88.66L954.77 89.98L956.29 91.39L957.78 92.88L959.23 94.46L960.64 96.12L962 97.87L963.32 99.69L964.59 101.59L965.81 103.56L966.99 105.6L968.11 107.71L969.18 109.89L970.2 112.14L971.17 114.44L972.08 116.81L972.23 117.26L973.54 116.45L975.1 115.57L976.7 114.75L978.33 114L980 113.3L981.7 112.68L983.42 112.12L985.18 111.63L986.96 111.21L988.77 110.87L990.6 110.6L992.45 110.4L994.33 110.28L996.22 110.24L998.12 110.28L999.99 110.4L1001.84 110.6L1003.67 110.87L1005.48 111.21L1007.26 111.63L1009.02 112.12L1010.75 112.68L1012.44 113.3L1014.11 114L1015.74 114.75L1017.16 115.48L1017.14 114.96L1017.2 113.67L1017.37 112.41L1017.64 111.19L1018.02 110L1018.49 108.86L1019.05 107.77L1019.7 106.73L1020.44 105.75L1021.25 104.83L1022.14 103.97L1023.1 103.19L1024.12 102.48L1025.19 101.86L1026.33 101.31L1027.51 100.86L1028.74 100.49L1030.01 100.23L1031.32 100.07L1032.66 100.01L1034 100.07L1035.3 100.23L1036.57 100.49L1037.8 100.86L1038.99 101.31L1040.12 101.86L1041.2 102.48L1042.22 103.19L1043.18 103.97L1044.06 104.83L1044.88 105.75L1045.61 106.73L1046.26 107.77L1046.83 108.86L1047.3 110L1047.68 111.19L1047.95 112.41L1048.12 113.67L1048.13 113.89L1050.28 112.64L1053.13 111.11L1056.06 109.66L1059.06 108.3L1062.14 107.03L1065.28 105.84L1068.5 104.75L1071.77 103.75L1072.52 103.55L1072.29 103.39L1071.34 102.61L1070.45 101.75L1069.64 100.83L1068.9 99.85L1068.25 98.81L1067.68 97.72L1067.21 96.58L1066.84 95.39L1066.56 94.17L1066.39 92.91L1066.34 91.62L1066.39 90.34L1066.56 89.08L1066.84 87.85L1067.21 86.67L1067.68 85.53L1068.25 84.44L1068.9 83.4L1069.64 82.42L1070.45 81.5L1071.34 80.64L1072.29 79.86L1073.31 79.15L1074.39 78.52L1075.52 77.98L1076.71 77.52L1077.94 77.16L1079.21 76.9L1080.52 76.74L1081.85 76.68L1083.19 76.74L1084.5 76.9L1085.77 77.16L1087 77.52L1088.18 77.98L1089.32 78.52L1090.4 79.15L1091.42 79.86L1092.37 80.64L1093.26 81.5L1094.07 82.42L1094.81 83.4L1095.46 84.44L1096.02 85.53L1096.5 86.67L1096.87 87.85L1097.15 89.08L1097.31 90.34L1097.37 91.62L1097.31 92.91L1097.15 94.17L1096.87 95.39L1096.5 96.58L1096.02 97.72L1095.46 98.81L1094.93 99.66L1096.28 99.55L1099.97 99.38L1103.69 99.32L1107.42 99.38L1111.11 99.55L1114.75 99.84L1117.84 100.17L1118.25 99.38L1118.9 98.34L1119.64 97.36L1120.45 96.44L1121.34 95.58L1122.29 94.8L1123.31 94.09L1124.39 93.46L1125.52 92.92L1126.71 92.47L1127.94 92.1L1129.21 91.84L1130.52 91.68L1131.85 91.62L1133.19 91.68L1134.5 91.84L1135.34 92.02L1135.47 91.68L1136.2 89.99L1136.99 88.33L1137.84 86.71L1138.75 85.13L1139.71 83.58L1140.73 82.08L1141.8 80.62L1142.93 79.21L1144.1 77.84L1145.33 76.52L1146.6 75.25L1147.92 74.03L1149.28 72.86L1150.68 71.75L1152.13 70.69L1153.62 69.69L1155.15 68.75L1156.71 67.87L1158.31 67.05L1159.94 66.29L1161.61 65.6L1163.3 64.98L1165.03 64.42L1166.79 63.93L1168.57 63.51L1170.38 63.17L1172.21 62.9L1174.06 62.7L1175.94 62.58L1177.83 62.54L1179.72 62.58L1181.6 62.7L1183.45 62.9L1185.28 63.17L1187.09 63.51L1188.87 63.93L1190.63 64.42L1192.36 64.98L1194.05 65.6L1195.72 66.29L1197.35 67.05L1198.95 67.87L1200.52 68.75L1202.04 69.69L1203.53 70.69L1204.98 71.75L1206.38 72.86L1207.74 74.03L1209.06 75.25L1210.33 76.52L1211.56 77.84L1212.73 79.21L1213.86 80.62L1214.93 82.08L1215.95 83.58L1216.91 85.13L1217.82 86.71L1218.67 88.33L1219.46 89.99L1220.19 91.68L1220.86 93.41L1221.46 95.17L1222 96.97L1222.47 98.79L1222.87 100.64L1223.21 102.51L1223.47 104.41L1223.65 106.33L1223.77 108.28L1223.81 110.24L1223.77 112.21L1223.65 114.15L1223.47 116.08L1223.21 117.98L1222.87 119.85L1222.47 121.7L1222 123.52L1221.46 125.31L1220.86 127.08L1220.19 128.8L1219.46 130.5L1218.67 132.16L1217.82 133.78L1216.91 135.36L1215.95 136.91L1214.93 138.41L1213.86 139.87L1212.73 141.28L1211.56 142.65L1210.33 143.97L1209.06 145.24L1207.74 146.46L1206.38 147.62L1204.98 148.74L1203.53 149.79L1202.04 150.79L1200.52 151.74L1198.95 152.62L1197.35 153.44L1195.72 154.19L1194.05 154.89L1192.56 155.44L1192.97 157.11L1193.48 159.86L1193.85 162.64L1194.08 165.45L1194.15 168.29L1194.08 171.13L1193.85 173.94L1193.48 176.72L1192.97 179.47L1192.31 182.18L1191.52 184.86L1190.6 187.49L1189.54 190.08L1188.35 192.62L1187.04 195.12L1185.6 197.57L1184.05 199.97L1182.38 202.32L1180.59 204.61L1178.69 206.84L1176.69 209.01L1174.58 211.12L1172.37 213.16L1170.05 215.14L1167.64 217.05L1165.14 218.88L1162.55 220.65L1159.87 222.33L1157.1 223.94L1154.25 225.47L1151.33 226.92L1148.33 228.28L1145.25 229.55L1142.1 230.74L1138.89 231.83L1135.61 232.83L1132.27 233.74L1128.87 234.54L1125.42 235.25L1121.91 235.85L1118.36 236.35L1114.75 236.74L1111.11 237.03L1107.42 237.2L1103.69 237.26L1099.97 237.2L1096.28 237.03L1092.63 236.74L1089.03 236.35L1085.47 235.85L1081.96 235.25L1078.51 234.54L1075.11 233.74L1071.77 232.83L1068.5 231.83L1065.28 230.74L1062.14 229.55L1059.06 228.28L1056.06 226.92L1053.13 225.47L1050.28 223.94L1047.52 222.33L1044.84 220.65L1042.24 218.88L1039.74 217.05L1037.33 215.14L1035.02 213.16L1032.81 211.12L1030.7 209.01L1028.69 206.84L1026.79 204.61L1025.01 202.32L1023.34 199.97L1021.79 197.58L1020.43 198.5L1018.91 199.44L1017.34 200.32L1015.74 201.14L1014.11 201.9L1012.44 202.59L1010.75 203.21L1009.02 203.77L1007.26 204.26L1005.48 204.68L1003.67 205.02L1001.84 205.29L999.99 205.49L998.12 205.61L996.22 205.65L994.33 205.61L992.45 205.49L990.6 205.29L988.77 205.02L986.96 204.68L985.18 204.26L983.42 203.77L981.7 203.21L980 202.59L978.33 201.9L976.7 201.14L975.1 200.32L973.54 199.44L972.01 198.5L970.52 197.5L969.08 196.44L968.31 195.83L968.11 196.22L966.99 198.34L965.81 200.38L964.59 202.35L963.32 204.25L962 206.07L960.64 207.81L959.23 209.48L957.78 211.05L956.29 212.55L954.77 213.96L953.2 215.27L951.61 216.5L949.97 217.63L948.31 218.66L946.61 219.6L944.88 220.43L943.13 221.16L941.34 221.78L939.54 222.3L937.71 222.7L935.85 223L933.98 223.17L932.08 223.23L930.19 223.17L928.31 223L926.46 222.7L924.63 222.3L922.82 221.78L921.04 221.16L919.28 220.43L917.56 219.6L915.86 218.66L915.4 218.37L914.8 219.49L913.63 221.53L912.4 223.5L911.13 225.4L909.81 227.22L908.45 228.96L907.05 230.62L905.6 232.2L904.11 233.7L902.58 235.11L901.02 236.42L899.42 237.65L897.79 238.78L896.12 239.81L894.43 240.75L892.7 241.58L890.94 242.31L889.16 242.93L887.35 243.45L885.52 243.85L883.67 244.15L881.79 244.32L879.9 244.38L878.01 244.32L876.13 244.15L874.28 243.85L872.45 243.45L870.64 242.93L868.86 242.31L867.1 241.58L865.37 240.75L863.68 239.81L862.01 238.78L860.38 237.65L858.78 236.42L857.21 235.11L855.69 233.7L854.2 232.2L852.75 230.62L851.35 228.96L849.99 227.22L848.67 225.4L847.4 223.5L846.17 221.53L845 219.49L843.87 217.37L842.8 215.19L841.78 212.95L840.81 210.65L839.91 208.28L839.06 205.86L838.27 203.38L837.54 200.85L836.87 198.26L836.27 195.63L835.99 194.27L835.54 195.12L834.11 197.57L832.55 199.97L830.88 202.32L829.1 204.61L827.2 206.84L825.19 209.01L823.08 211.12L820.87 213.16L818.56 215.14L816.15 217.05L813.65 218.88L811.05 220.65L808.37 222.33L805.61 223.94L802.76 225.47L799.83 226.92L796.83 228.28L793.75 229.55L790.61 230.74L787.4 231.83L784.12 232.83L780.78 233.74L777.38 234.54L773.93 235.25L770.42 235.85L766.86 236.35L763.26 236.74L759.61 237.03L755.92 237.2L752.2 237.26L748.47 237.2L744.78 237.03L741.14 236.74L737.53 236.35L733.98 235.85L730.47 235.25L727.02 234.54L723.62 233.74L720.28 232.83L717 231.83L713.79 230.74L710.64 229.55L707.57 228.28L704.56 226.92L701.64 225.47L698.79 223.94L696.02 222.33L693.34 220.65L690.75 218.88L688.25 217.05L685.84 215.14L683.52 213.16L681.31 211.12L679.2 209.01L677.2 206.84L675.3 204.61L674.56 203.66L672.29 204.88L669.36 206.33L666.36 207.69L663.28 208.96L660.13 210.15L656.92 211.24L653.64 212.24L650.3 213.15L646.91 213.95L643.45 214.66L639.95 215.26L636.39 215.76L632.79 216.16L629.14 216.44L625.45 216.61L621.72 216.67L618 216.61L614.31 216.44L610.66 216.16L607.06 215.76L603.5 215.26L600 214.66L596.54 213.95L593.14 213.15L589.81 212.24L586.53 211.24L586.3 211.17L585.12 211.22L581.39 211.28L577.67 211.22L573.98 211.05L570.33 210.77L566.73 210.38L563.17 209.88L559.67 209.27L556.21 208.57L552.81 207.76L549.47 206.86L546.2 205.86L542.98 204.76L539.84 203.58L536.76 202.3L533.96 201.03L532.83 202.96L531.28 205.36L529.6 207.71L527.82 209.99L525.92 212.23L523.92 214.4L521.81 216.51L519.59 218.55L517.28 220.53L514.87 222.43L512.37 224.27L509.78 226.03L507.1 227.72L504.33 229.33L501.48 230.86L498.56 232.3L495.55 233.67L492.48 234.94L489.33 236.13L486.12 237.22L482.84 238.22L479.5 239.13L476.1 239.93L472.65 240.64L469.14 241.24L465.58 241.74L461.98 242.13L458.33 242.41L454.65 242.59L450.92 242.64L447.19 242.59L443.5 242.41L439.86 242.13L436.25 241.74L432.7 241.24L429.19 240.64L425.74 239.93L422.34 239.13L419 238.22L415.72 237.22L412.51 236.13L409.36 234.94L406.29 233.67L403.28 232.3L400.36 230.86L397.51 229.33L394.74 227.72L392.06 226.03L389.47 224.27L386.97 222.43L384.56 220.53L382.25 218.55L380.03 216.51L377.92 214.4L375.92 212.23L374.02 209.99L372.23 207.71L370.56 205.36L369.01 202.96L367.57 200.51L367.12 199.66L366.85 201.02L366.25 203.65L365.58 206.23L364.85 208.77L364.06 211.24L363.21 213.67L362.3 216.03L361.34 218.34L360.32 220.58L359.25 222.76L358.12 224.87L356.95 226.92L355.72 228.89L354.45 230.79L353.13 232.61L351.77 234.35L350.36 236.01L348.92 237.59L347.43 239.09L345.9 240.49L344.34 241.81L342.74 243.04L341.11 244.17L339.44 245.2L337.74 246.13L336.02 246.97L334.26 247.7L332.48 248.32L330.67 248.84L328.84 249.24L326.99 249.53L325.11 249.71L323.22 249.77L321.32 249.71L319.45 249.53L317.6 249.24L315.76 248.84L313.96 248.32L312.18 247.7L310.42 246.97L308.69 246.13L307 245.2L305.33 244.17L303.7 243.04L302.1 241.81L300.53 240.49L299.01 239.09L297.52 237.59L296.07 236.01L294.67 234.35L293.3 232.61L291.99 230.79L290.71 228.89L289.49 226.92L288.31 224.87L287.72 223.76L287.26 224.05L285.56 224.99L283.83 225.82L282.08 226.55L280.3 227.17L278.49 227.69L276.66 228.09L274.8 228.38L272.93 228.56L271.03 228.62L269.14 228.56L267.27 228.38L265.41 228.09L263.58 227.69L261.77 227.17L259.99 226.55L258.24 225.82L256.51 224.99L254.81 224.05L253.15 223.02L251.51 221.89L249.91 220.66L248.35 219.34L246.82 217.94L245.34 216.44L243.89 214.86L242.48 213.2L241.12 211.46L239.8 209.64L238.53 207.74L237.31 205.77L236.13 203.72L235.01 201.61L234.81 201.22L234.04 201.83L232.6 202.88L231.11 203.88L229.58 204.83L228.02 205.71L226.42 206.53L224.79 207.28L223.12 207.98L221.42 208.6L219.7 209.16L217.94 209.65L216.16 210.06L214.35 210.41L212.52 210.68L210.67 210.88L208.79 210.99L206.9 211.03L205 210.99L203.13 210.88L201.27 210.68L199.44 210.41L197.64 210.06L195.85 209.65L194.1 209.16L192.37 208.6L190.67 207.98L189.01 207.28L187.37 206.53L185.77 205.71L184.21 204.83L182.69 203.88L181.33 202.97L179.78 205.36L178.11 207.71L176.32 209.99L174.43 212.23L172.42 214.4L170.31 216.51L168.1 218.55L165.79 220.53L163.38 222.43L160.88 224.27L158.28 226.03L155.6 227.72L152.84 229.33L149.99 230.86L147.06 232.3L144.06 233.67L140.98 234.94L137.84 236.13L134.62 237.22L131.34 238.22L128 239.13L124.61 239.93L121.15 240.64L117.65 241.24L114.09 241.74L110.49 242.13L106.84 242.41L103.15 242.59L99.43 242.64L95.7 242.59L92.01 242.41L88.36 242.13L84.76 241.74L81.2 241.24L77.7 240.64L74.24 239.93L70.85 239.13L67.51 238.22L64.23 237.22L61.01 236.13L57.87 234.94L54.79 233.67L51.79 232.3L48.86 230.86L46.02 229.33L43.25 227.72L40.57 226.03L37.98 224.27L35.47 222.43L33.06 220.53L30.75 218.55L28.54 216.51L26.43 214.4L24.42 212.23L22.53 209.99L20.74 207.71L19.07 205.36L17.51 202.96L16.08 200.51L14.77 198.01L13.58 195.47L12.52 192.88L11.6 190.24L10.8 187.57L10.15 184.86L9.64 182.11L9.27 179.33L9.04 176.52L8.97 173.68L9.04 170.84L9.27 168.03L9.64 165.24L10.15 162.5L10.55 160.82L9.06 160.27L7.4 159.58L5.76 158.83L4.17 158.01L2.6 157.12L1.08 156.18L-0.41 155.18L-1.86 154.12L-3.26 153.01L-4.63 151.84L-5.95 150.63L-7.22 149.36L-8.44 148.04L-9.62 146.67L-10.74 145.25L-11.81 143.8L-12.83 142.29L-13.8 140.75L-14.7 139.17L-15.55 137.55L-16.34 135.89L-17.07 134.19L-17.74 132.46L-18.34 130.7L-18.88 128.91L-19.35 127.09L-19.75 125.24L-20.09 123.37L-20.35 121.47L-20.54 119.54L-20.65 117.6L-20.69 115.63L-20.65 113.67L-20.54 111.72L-20.35 109.8L-20.09 107.9L-19.75 106.02L-19.35 104.17L-18.88 102.35L-18.34 100.56L-17.74 98.8L-17.07 97.07L-16.34 95.38L-15.55 93.72L-14.7 92.1L-13.8 90.51L-12.83 88.97L-11.81 87.47L-10.74 86.01L-9.62 84.6L-8.44 83.23L-7.22 81.91L-5.95 80.64L-4.63 79.42L-3.26 78.25L-1.86 77.14L-0.41 76.08L1.08 75.08L2.6 74.14L4.17 73.26L5.76 72.44L7.4 71.68L9.06 70.99L10.76 70.36L12.49 69.81L14.24 69.32L16.03 68.9L17.83 68.56L19.67 68.28L21.52 68.09L23.39 67.97L25.29 67.93L27.18 67.97L29.06 68.09L30.91 68.28L32.74 68.56L34.55 68.9L36.33 69.32L38.09 69.81L39.81 70.36L41.51 70.99L43.18 71.68L44.81 72.44L46.41 73.26L47.97 74.14L49.5 75.08L50.99 76.08L52.43 77.14L53.84 78.25L55.2 79.42L56.52 80.64L57.79 81.91L59.02 83.23L60.19 84.6L61.32 86.01L62.39 87.47L63.41 88.97L64.37 90.51L65.28 92.1L66.13 93.72L66.92 95.38L67.65 97.07L67.78 97.4L68.62 97.23L69.93 97.07L71.26 97.01L72.6 97.07L73.91 97.23L75.18 97.49L76.41 97.85L77.59 98.31L78.73 98.85L79.81 99.48L80.83 100.19L81.78 100.97L82.67 101.83L83.48 102.75L84.22 103.73L84.87 104.77L85.28 105.56L88.36 105.22L92.01 104.94L95.7 104.77L99.43 104.71L103.15 104.77L106.84 104.94L108.19 105.05L107.66 104.2L107.09 103.11L106.62 101.97L106.25 100.78L105.97 99.56L105.8 98.3L105.75 97.01L105.8 95.72L105.97 94.46L106.25 93.24L106.62 92.06L107.09 90.92L107.66 89.82L108.31 88.79L109.05 87.8L109.86 86.88L110.75 86.03L111.7 85.25L112.72 84.54L113.8 83.91L114.94 83.37L116.12 82.91L117.35 82.55L118.62 82.29L119.93 82.12L121.26 82.07L122.6 82.12L123.91 82.29L125.18 82.55L126.41 82.91L127.59 83.37L128.73 83.91L129.81 84.54L130.83 85.25L131.27 85.61L131.3 85.19L131.57 83.9L132.01 82.68L132.6 81.55L133.32 80.52L134.17 79.61L135.13 78.84L136.19 78.21L137.34 77.75L138.55 77.46L139.83 77.36L141.1 77.46L142.32 77.75L143.46 78.21L144.52 78.84L145.48 79.61L146.33 80.52L147.06 81.55L147.65 82.68L148.08 83.9L148.35 85.19L148.45 86.55L148.35 87.91L148.08 89.21L147.65 90.43L147.06 91.56L146.33 92.58L145.48 93.49L144.52 94.26L143.46 94.89L142.32 95.36L141.1 95.65L139.83 95.75L138.55 95.65L137.34 95.36L136.64 95.07L136.72 95.72L136.78 97.01L136.72 98.3L136.56 99.56L136.28 100.78L135.91 101.97L135.43 103.11L134.87 104.2L134.22 105.24L133.48 106.22L132.67 107.14L131.78 107.99L130.83 108.78L130.6 108.93L131.34 109.14L134.62 110.14L137.84 111.23L140.98 112.42L144.06 113.69L147.06 115.05L149.99 116.5L152.84 118.03L154.99 119.28L155 119.06L155.17 117.8L155.44 116.57L155.82 115.39L156.29 114.25L156.85 113.16L157.51 112.12L158.24 111.14L159.06 110.22L159.94 109.36L160.9 108.58L161.92 107.87L163 107.24L164.13 106.7L165.31 106.24L166.54 105.88L167.82 105.62L169.12 105.46L170.46 105.4L171.8 105.46L173.1 105.62L174.37 105.88L175.6 106.24L176.79 106.7L177.92 107.24L179 107.87L180.02 108.58L180.98 109.36L181.86 110.22L182.68 111.14L183.41 112.12L184.07 113.16L184.63 114.25L185.1 115.39L185.48 116.57L185.75 117.8L185.92 119.06L185.98 120.34L185.95 120.87L187.37 120.14L189.01 119.38L190.67 118.69L192.37 118.07L194.1 117.51L195.85 117.02L197.64 116.6L199.44 116.26L201.27 115.99L203.13 115.79L205 115.67L206.9 115.63L208.79 115.67L210.67 115.79L212.52 115.99L214.35 116.26L216.16 116.6L217.94 117.02L219.7 117.51L221.42 118.07L223.12 118.69L224.79 119.38L226.42 120.14L228.02 120.96L229.58 121.84L230.88 122.65L231.04 122.19L231.95 119.83L232.91 117.52L233.93 115.28L235.01 113.1L236.13 110.99L237.31 108.95L238.53 106.97L239.8 105.08L241.12 103.26L242.48 101.51L243.89 99.85L245.34 98.27L246.82 96.78L248.35 95.37L249.91 94.05L251.51 92.83L253.15 91.7L254.81 90.66L256.51 89.73L258.24 88.89L259.99 88.16L261.77 87.54L263.58 87.03L265.41 86.62L267.27 86.33L269.14 86.15L271.03 86.09L272.93 86.15L274.8 86.33L276.66 86.62L278.49 87.03L280.3 87.54L282.08 88.16L283.83 88.89L285.56 89.73L287.26 90.66L288.92 91.7L290.56 92.83L292.16 94.05L293.72 95.37L295.25 96.78L296.73 98.27L298.18 99.85L299.59 101.51L300.95 103.26L302.27 105.08L303.54 106.97L304.76 108.95L305.94 110.99L306.53 112.1L307 111.81L308.69 110.88L310.42 110.04L312.18 109.31L313.96 108.69L315.76 108.17L317.6 107.77L319.45 107.48L321.32 107.3L323.22 107.24L325.11 107.3L326.99 107.48L328.84 107.77L330.67 108.17L332.48 108.69L334.26 109.31L336.02 110.04L337.74 110.88L339.44 111.81L341.11 112.85L342.34 113.7L342.57 113.34L343.59 111.84L344.66 110.38L345.79 108.96L346.96 107.6L348.19 106.28L349.46 105.01L350.78 103.79L352.14 102.62L353.54 101.51L354.99 100.45L356.48 99.45L358 98.51L359.57 97.63L361.17 96.81L362.08 96.39L361.81 95.86L361.33 94.72L360.96 93.54L360.68 92.32L360.52 91.06L360.46 89.77L360.52 88.48L360.68 87.22L360.96 86L361.33 84.82L361.81 83.68L362.37 82.58L363.02 81.54L363.76 80.56L364.57 79.64L365.46 78.79L366.41 78L367.43 77.3L368.51 76.67L369.65 76.12L370.83 75.67L372.06 75.31L373.33 75.04L374.64 74.88L375.98 74.83L377.32 74.88L378.62 75.04L379.89 75.31L381.12 75.67L382.31 76.12L383.44 76.67L384.52 77.3L385.54 78L386.49 78.79L387.38 79.64L388.19 80.56L388.93 81.54L389.58 82.58L390.15 83.68L390.62 84.82L391 86L391.27 87.22L391.44 88.48L391.49 89.77L391.44 91.06L391.27 92.32L391 93.52L391.73 93.69L393.49 94.17L395.22 94.73L396.91 95.36L398.58 96.05L400.21 96.81L401.81 97.63L403.37 98.51L404.9 99.45L406.39 100.45L407.84 101.51L409.24 102.62L410.6 103.79L411.92 105.01L413.19 106.28L414.42 107.6L415.59 108.96L416.37 109.94L419 109.14L422.34 108.23L425.74 107.42L429.19 106.72L432.7 106.11L436.25 105.62L439.86 105.22L443.5 104.94L447.19 104.77L448.51 104.75L448.51 104.71L448.56 103.42L448.73 102.17L449 100.94L449.38 99.76L449.85 98.62L450.42 97.53L451.07 96.49L451.81 95.5L452.62 94.58L453.51 93.73L454.46 92.95L455.48 92.24L456.56 91.61L457.69 91.07L458.88 90.61L460.11 90.25L461.38 89.99L462.68 89.83L464.02 89.77L465.36 89.83L466.67 89.99L467.94 90.25L469.17 90.61L470.35 91.07L471.49 91.61L472.57 92.24L472.61 92.27L472.85 91.7L473.64 90.04L474.49 88.42L475.4 86.83L476.36 85.29L477.38 83.79L478.45 82.33L479.58 80.92L480.23 80.16L479.86 78.71L479.45 76.86L479.12 74.99L478.86 73.09L478.67 71.17L478.56 69.22L478.52 67.26L478.56 65.29L478.67 63.35L478.86 61.42L479.12 59.52L479.45 57.65L479.86 55.8L480.33 53.98L480.87 52.19L481.47 50.42L482.14 48.7L482.86 47L483.66 45.34L484.5 43.72L485.41 42.14L486.38 40.59L487.4 39.09L488.47 37.63L489.59 36.22L490.77 34.85L491.99 33.53L493.26 32.26L494.58 31.04L495.95 29.88L497.35 28.76L498.8 27.71L500.29 26.71L501.81 25.76L503.38 24.88L504.97 24.06L506.61 23.31L508.27 22.61L509.97 21.99L511.7 21.43L513.45 20.94L515.24 20.52L517.04 20.18L518.87 19.91L520.73 19.71L522.6 19.59L524.5 19.55L526.39 19.59L528.27 19.71ZM432.83 77.75L433.98 78.21L435.04 78.84L436 79.61L436.85 80.52L437.58 81.55L438.16 82.68L438.6 83.9L438.87 85.19L438.97 86.55L438.87 87.91L438.6 89.21L438.16 90.43L437.58 91.56L436.85 92.58L436 93.49L435.04 94.26L433.98 94.89L432.83 95.36L431.62 95.65L430.34 95.75L429.07 95.65L427.86 95.36L426.71 94.89L425.65 94.26L424.69 93.49L423.84 92.58L423.11 91.56L422.53 90.43L422.09 89.21L421.82 87.91L421.72 86.55L421.82 85.19L422.09 83.9L422.53 82.68L423.11 81.55L423.84 80.52L424.69 79.61L425.65 78.84L426.71 78.21L427.86 77.75L429.07 77.46L430.34 77.36L431.62 77.46L432.83 77.75ZM212.18 56.42L213.46 56.69L214.69 57.05L215.87 57.5L217 58.05L218.08 58.68L219.1 59.38L220.06 60.17L220.94 61.02L221.76 61.94L222.49 62.92L223.15 63.96L223.71 65.05L224.18 66.2L224.56 67.38L224.83 68.6L225 69.86L225.06 71.15L225 72.44L224.83 73.7L224.56 74.92L224.18 76.1L223.71 77.24L223.15 78.34L222.49 79.38L221.76 80.36L220.94 81.28L220.06 82.13L219.1 82.91L218.08 83.62L217 84.25L215.87 84.79L214.69 85.25L213.46 85.61L212.18 85.88L210.88 86.04L209.54 86.09L208.2 86.04L206.9 85.88L205.63 85.61L204.4 85.25L203.21 84.79L202.08 84.25L201 83.62L199.98 82.91L199.02 82.13L198.14 81.28L197.32 80.36L196.59 79.38L195.93 78.34L195.37 77.24L194.9 76.1L194.52 74.92L194.25 73.7L194.08 72.44L194.02 71.15L194.08 69.86L194.25 68.6L194.52 67.38L194.9 66.2L195.37 65.05L195.93 63.96L196.59 62.92L197.32 61.94L198.14 61.02L199.02 60.17L199.98 59.38L201 58.68L202.08 58.05L203.21 57.5L204.4 57.05L205.63 56.69L206.9 56.42L208.2 56.26L209.54 56.21L210.88 56.26L212.18 56.42ZM1127.01 66.19L1128.16 66.66L1129.22 67.29L1130.18 68.06L1131.03 68.97L1131.76 69.99L1132.34 71.12L1132.78 72.35L1133.05 73.64L1133.15 75L1133.05 76.36L1132.78 77.65L1132.34 78.88L1131.76 80.01L1131.03 81.03L1130.18 81.94L1129.22 82.71L1128.16 83.34L1127.01 83.81L1125.8 84.1L1124.53 84.2L1123.25 84.1L1122.04 83.81L1120.89 83.34L1119.83 82.71L1118.87 81.94L1118.02 81.03L1117.29 80.01L1116.71 78.88L1116.27 77.65L1116 76.36L1115.91 75L1116 73.64L1116.27 72.35L1116.71 71.12L1117.29 69.99L1118.02 68.97L1118.87 68.06L1119.83 67.29L1120.89 66.66L1122.04 66.19L1123.25 65.9L1124.53 65.8L1125.8 65.9L1127.01 66.19ZM996.22 51.04L997.49 51.3L998.72 51.66L999.91 52.12L1001.04 52.66L1002.12 53.29L1003.14 54L1004.1 54.78L1004.98 55.63L1005.8 56.55L1006.53 57.54L1007.18 58.57L1007.75 59.67L1008.22 60.81L1008.6 61.99L1008.87 63.21L1009.04 64.47L1009.09 65.76L1009.04 67.05L1008.87 68.31L1008.6 69.53L1008.22 70.72L1007.75 71.86L1007.18 72.95L1006.53 73.99L1005.8 74.97L1004.98 75.89L1004.1 76.74L1003.14 77.53L1002.12 78.23L1001.04 78.86L999.91 79.41L998.72 79.86L997.49 80.22L996.22 80.49L994.92 80.65L993.58 80.7L992.24 80.65L990.93 80.49L989.66 80.22L988.43 79.86L987.25 79.41L986.11 78.86L985.04 78.23L984.02 77.53L983.06 76.74L982.17 75.89L981.36 74.97L980.62 73.99L979.97 72.95L979.41 71.86L978.94 70.72L978.56 69.53L978.29 68.31L978.12 67.05L978.06 65.76L978.12 64.47L978.29 63.21L978.56 61.99L978.94 60.81L979.41 59.67L979.97 58.57L980.62 57.54L981.36 56.55L982.17 55.63L983.06 54.78L984.02 54L985.04 53.29L986.11 52.66L987.25 52.12L988.43 51.66L989.66 51.3L990.93 51.04L992.24 50.87L993.58 50.82L994.92 50.87L996.22 51.04ZM745.05 51.34L746.19 51.8L747.25 52.43L748.21 53.2L749.06 54.11L749.79 55.14L750.38 56.27L750.81 57.49L751.08 58.79L751.18 60.14L751.08 61.5L750.81 62.8L750.38 64.02L749.79 65.15L749.06 66.18L748.21 67.08L747.25 67.86L746.19 68.48L745.05 68.95L743.83 69.24L742.56 69.34L741.28 69.24L740.07 68.95L738.92 68.48L737.86 67.86L736.9 67.08L736.05 66.18L735.33 65.15L734.74 64.02L734.3 62.8L734.03 61.5L733.94 60.14L734.03 58.79L734.3 57.49L734.74 56.27L735.33 55.14L736.05 54.11L736.9 53.2L737.86 52.43L738.92 51.8L740.07 51.34L741.28 51.05L742.56 50.95L743.83 51.05L745.05 51.34ZM794.11 19.94L795.26 20.41L796.32 21.04L797.28 21.81L798.13 22.72L798.85 23.74L799.44 24.87L799.88 26.1L800.15 27.39L800.24 28.75L800.15 30.11L799.88 31.4L799.44 32.63L798.85 33.76L798.13 34.78L797.28 35.69L796.32 36.46L795.26 37.09L794.11 37.56L792.9 37.85L791.62 37.95L790.35 37.85L789.13 37.56L787.99 37.09L786.93 36.46L785.97 35.69L785.12 34.78L784.39 33.76L783.8 32.63L783.37 31.4L783.1 30.11L783 28.75L783.1 27.39L783.37 26.1L783.8 24.87L784.39 23.74L785.12 22.72L785.97 21.81L786.93 21.04L787.99 20.41L789.13 19.94L790.35 19.65L791.62 19.55L792.9 19.65L794.11 19.94Z" id="b3HLcgKVNV" fill="white" fill-opacity="1" filter="url(#shadow13323127)"></path></g><use xlink:href="#bt3xJ1wGf" opacity="1" fill="#171717" fill-opacity="1"></use></g></g></g></svg>