<?xml version="1.0" encoding="UTF-8" standalone="no"?>
<!DOCTYPE svg PUBLIC "-//W3C//DTD SVG 1.1//EN" "http://www.w3.org/Graphics/SVG/1.1/DTD/svg11.dtd">
<svg version="1.1" xmlns="http://www.w3.org/2000/svg" xmlns:xlink="http://www.w3.org/1999/xlink" preserveAspectRatio="xMidYMid meet" viewBox="0 0 200 200" width="200" height="200"><defs><path d="M108.2 0.33L112.23 0.74L116.21 1.31L120.14 2.03L124.02 2.91L127.84 3.93L131.59 5.1L135.29 6.41L138.91 7.86L142.46 9.45L145.94 11.17L149.34 13.02L152.66 14.99L155.89 17.09L159.04 19.3L162.1 21.64L165.06 24.08L167.93 26.64L170.7 29.3L173.36 32.07L175.92 34.94L178.36 37.9L180.7 40.96L182.91 44.11L185.01 47.34L186.98 50.66L188.83 54.06L190.55 57.54L192.14 61.09L193.59 64.71L194.9 68.41L196.07 72.16L197.09 75.98L197.97 79.86L198.69 83.79L199.26 87.77L199.67 91.8L199.92 95.88L200 100L199.92 104.12L199.67 108.2L199.26 112.23L198.69 116.21L197.97 120.14L197.09 124.02L196.07 127.84L194.9 131.59L193.59 135.29L192.14 138.91L190.55 142.46L188.83 145.94L186.98 149.34L185.01 152.66L182.91 155.89L180.7 159.04L178.36 162.1L175.92 165.06L173.36 167.93L170.7 170.7L167.93 173.36L165.06 175.92L162.1 178.36L159.04 180.7L155.89 182.91L152.66 185.01L149.34 186.98L145.94 188.83L142.46 190.55L138.91 192.14L135.29 193.59L131.59 194.9L127.84 196.07L124.02 197.09L120.14 197.97L116.21 198.69L112.23 199.26L108.2 199.67L104.12 199.92L100 200L95.88 199.92L91.8 199.67L87.77 199.26L83.79 198.69L79.86 197.97L75.98 197.09L72.16 196.07L68.41 194.9L64.71 193.59L61.09 192.14L57.54 190.55L54.06 188.83L50.66 186.98L47.34 185.01L44.11 182.91L40.96 180.7L37.9 178.36L34.94 175.92L32.07 173.36L29.3 170.7L26.64 167.93L24.08 165.06L21.64 162.1L19.3 159.04L17.09 155.89L14.99 152.66L13.02 149.34L11.17 145.94L9.45 142.46L7.86 138.91L6.41 135.29L5.1 131.59L3.93 127.84L2.91 124.02L2.03 120.14L1.31 116.21L0.74 112.23L0.33 108.2L0.08 104.12L0 100L0.08 95.88L0.33 91.8L0.74 87.77L1.31 83.79L2.03 79.86L2.91 75.98L3.93 72.16L5.1 68.41L6.41 64.71L7.86 61.09L9.45 57.54L11.17 54.06L13.02 50.66L14.99 47.34L17.09 44.11L19.3 40.96L21.64 37.9L24.08 34.94L26.64 32.07L29.3 29.3L32.07 26.64L34.94 24.08L37.9 21.64L40.96 19.3L44.11 17.09L47.34 14.99L50.66 13.02L54.06 11.17L57.54 9.45L61.09 7.86L64.71 6.41L68.41 5.1L72.16 3.93L75.98 2.91L79.86 2.03L83.79 1.31L87.77 0.74L91.8 0.33L95.88 0.08L100 0L104.12 0.08L108.2 0.33ZM27.65 137.15L81.06 137.15L81.06 118.74L45.77 118.74L45.77 106.53L69.45 106.53L69.45 88.11L45.77 88.11L45.77 77.39L81.06 77.39L81.06 58.98L27.65 58.98L27.65 137.15ZM90.3 136.98L175.63 136.98L175.63 59.17L90.3 59.17L90.3 136.98ZM104.54 118.6L104.54 84.95L132.42 111.04L132.53 110.74L160.93 84.16L160.93 118.6L104.54 118.6ZM112.35 77.28L152.28 77.28L132.31 95.97L112.35 77.28Z" id="cuczdDqGr"></path></defs><g><g><g><use xlink:href="#cuczdDqGr" opacity="1" fill="#424242" fill-opacity="1"></use></g></g></g></svg>