<?xml version="1.0" encoding="UTF-8" standalone="no"?>
<!DOCTYPE svg PUBLIC "-//W3C//DTD SVG 1.1//EN" "http://www.w3.org/Graphics/SVG/1.1/DTD/svg11.dtd">
<svg version="1.1" xmlns="http://www.w3.org/2000/svg" xmlns:xlink="http://www.w3.org/1999/xlink" preserveAspectRatio="xMidYMid meet" viewBox="0 0 195 188" width="195" height="188"><defs><path d="M129.36 65.32L193.06 79.9L142.74 121.63L148.57 186.76L93.36 151.77L33.26 177.45L49.46 114.1L6.49 64.84L71.7 60.66L105.24 4.55L129.36 65.32Z" id="azaqZKOM"></path><path d="M121.41 70.7L173.58 78.29L135.83 115.11L144.74 167.11L98.08 142.56L51.42 167.11L60.33 115.11L22.58 78.29L74.75 70.7L98.08 23.4L121.41 70.7Z" id="h2oeuiAHi9"></path><path d="M118.55 76.42L160.87 85.51L127.92 113.6L132.36 156.7L95.48 134.01L55.89 151.56L66.06 109.45L37.15 77.2L80.32 73.85L102.03 36.37L118.55 76.42Z" id="aPiIQtxqo"></path><path d="M100.04 61.19L100.07 61.2L100.1 61.22L100.12 61.23L100.15 61.26L100.17 61.28L100.18 61.31L100.19 61.34L101.76 66.51L101.76 66.54L101.77 66.57L101.76 66.61L101.76 66.64L101.75 66.67L101.73 66.69L101.71 66.72L101.69 66.74L101.67 66.76L101.64 66.78L101.61 66.79L93.9 69.12L101.91 95.62L101.94 95.75L101.96 95.88L101.96 96.01L101.94 96.14L101.92 96.27L101.87 96.39L101.82 96.5L101.75 96.61L101.68 96.71L101.59 96.81L101.49 96.89L101.38 96.96L101.26 97.02L101.13 97.07L97.91 98.04L97.78 98.07L97.65 98.09L97.52 98.09L97.39 98.07L97.26 98.05L97.14 98.01L97.03 97.95L96.92 97.89L96.82 97.81L96.72 97.72L96.64 97.62L96.57 97.51L96.51 97.39L96.46 97.26L88.45 70.76L80.75 73.09L80.71 73.1L80.68 73.1L80.65 73.1L80.62 73.09L80.59 73.08L80.56 73.07L80.54 73.05L80.52 73.03L80.5 73L80.48 72.97L80.47 72.94L78.91 67.77L78.9 67.74L78.9 67.71L78.9 67.68L78.91 67.65L78.92 67.62L78.93 67.59L78.95 67.56L78.97 67.54L79 67.52L79.02 67.51L79.06 67.49L99.92 61.19L99.95 61.18L99.98 61.18L100.01 61.18L100.04 61.19Z" id="a2d3Y5Axz"></path><path d="M115.36 82.65C116.88 82.19 118.48 83.05 118.94 84.57C121.71 93.73 129.19 118.46 131.96 127.62C132.42 129.14 131.56 130.74 130.04 131.2C121.92 133.66 100.33 140.18 92.22 142.63C90.7 143.09 89.09 142.23 88.63 140.71C85.86 131.55 78.39 106.82 75.62 97.66C75.16 96.14 76.02 94.53 77.54 94.07C85.66 91.62 107.25 85.1 115.36 82.65Z" id="g5jTCJmawq"></path><path d="M111.94 55.69C112.93 55.4 113.97 55.95 114.27 56.94C114.71 58.38 115.47 60.91 115.91 62.35C116.21 63.34 115.65 64.38 114.66 64.68C110.98 65.79 101.75 68.58 98.07 69.69C97.08 69.99 96.04 69.43 95.74 68.44C95.31 67 94.54 64.47 94.11 63.03C93.81 62.05 94.37 61 95.35 60.71C99.03 59.6 108.27 56.8 111.94 55.69Z" id="c1BWQiHVYT"></path><path d="M82 64.56C82.98 64.27 84.03 64.82 84.32 65.81C84.76 67.25 85.52 69.78 85.96 71.22C86.26 72.21 85.7 73.25 84.71 73.55C81.04 74.66 71.8 77.45 68.12 78.56C67.14 78.86 66.09 78.3 65.8 77.31C65.36 75.87 64.6 73.34 64.16 71.9C63.86 70.92 64.42 69.87 65.41 69.58C69.08 68.47 78.32 65.67 82 64.56Z" id="c1OG05VhtH"></path><path d="M95.26 94.42L95.46 94.51L95.64 94.63L95.79 94.78L95.92 94.96L96 95.17L96.98 98.42L97.03 98.64L97.03 98.86L96.98 99.07L96.9 99.27L96.78 99.45L96.63 99.6L96.45 99.73L96.24 99.81L93.22 100.72L95.34 107.71L95.37 107.9L95.35 108.09L95.28 108.26L95.18 108.41L95.03 108.53L94.86 108.61L88.48 110.53L88.29 110.56L88.11 110.54L87.94 110.48L87.79 110.37L87.67 110.23L87.59 110.05L85.48 103.06L82.47 103.97L82.24 104.02L82.02 104.02L81.81 103.97L81.61 103.89L81.43 103.77L81.28 103.62L81.16 103.43L81.07 103.23L80.09 99.98L80.04 99.76L80.05 99.54L80.09 99.32L80.17 99.13L80.29 98.95L80.44 98.79L80.63 98.67L80.84 98.58L94.61 94.42L94.83 94.38L95.05 94.38L95.26 94.42Z" id="bdNZDDF8C"></path><path d="M111.65 106.47L111.75 106.57L111.82 106.72L114.25 114.76L114.27 114.91L114.24 115.06L114.17 115.2L114.06 115.3L113.92 115.37L109.53 116.7L109.38 116.72L109.23 116.69L109.09 116.62L108.99 116.51L108.92 116.37L108.45 114.82L102.64 113.36L103.93 117.64L103.96 117.83L103.94 118.01L103.88 118.19L103.77 118.34L103.63 118.45L103.45 118.53L97.08 120.46L96.89 120.49L96.7 120.47L96.53 120.41L96.38 120.3L96.27 120.16L96.19 119.98L93.89 112.37L93.85 112.18L93.87 111.99L93.94 111.82L94.05 111.67L94.19 111.55L94.36 111.48L100.74 109.55L100.93 109.52L101.11 109.54L101.28 109.6L101.43 109.71L101.55 109.85L101.62 110L107.44 111.47L106.49 108.33L106.47 108.17L106.5 108.02L106.57 107.89L106.68 107.78L106.82 107.71L111.21 106.39L111.36 106.37L111.51 106.39L111.65 106.47Z" id="a3ULC2vA74"></path><path d="M124.75 115.97L124.93 116.09L125.09 116.24L125.21 116.42L125.3 116.63L126.28 119.88L126.32 120.1L126.32 120.32L126.27 120.53L126.19 120.73L126.07 120.91L125.92 121.06L125.74 121.19L125.53 121.27L122.52 122.19L124.63 129.18L124.66 129.37L124.64 129.55L124.57 129.72L124.47 129.87L124.33 129.99L124.15 130.07L117.78 132L117.59 132.03L117.4 132.01L117.23 131.94L117.08 131.83L116.96 131.69L116.88 131.52L114.77 124.53L111.76 125.44L111.53 125.48L111.31 125.48L111.1 125.43L110.9 125.35L110.73 125.23L110.57 125.08L110.45 124.9L110.36 124.69L109.38 121.44L109.34 121.22L109.34 121L109.38 120.79L109.46 120.59L109.58 120.41L109.74 120.25L109.92 120.13L110.13 120.04L123.9 115.88L124.12 115.84L124.34 115.84L124.55 115.89L124.55 115.89L124.75 115.97Z" id="a2Hr54zocT"></path></defs><g><g><g><g><filter id="shadow9334109" x="-1.51" y="-3.45" width="202.57" height="198.21" filterUnits="userSpaceOnUse" primitiveUnits="userSpaceOnUse"><feFlood></feFlood><feComposite in2="SourceAlpha" operator="in"></feComposite><feGaussianBlur stdDeviation="1"></feGaussianBlur><feOffset dx="0" dy="0" result="afterOffset"></feOffset><feFlood flood-color="#000000" flood-opacity="0.25"></feFlood><feComposite in2="afterOffset" operator="in"></feComposite><feMorphology operator="dilate" radius="1"></feMorphology><feComposite in2="SourceAlpha" operator="out"></feComposite></filter><path d="M129.36 65.32L193.06 79.9L142.74 121.63L148.57 186.76L93.36 151.77L33.26 177.45L49.46 114.1L6.49 64.84L71.7 60.66L105.24 4.55L129.36 65.32Z" id="b3pn1cqvZ1" fill="white" fill-opacity="1" filter="url(#shadow9334109)"></path></g><use xlink:href="#azaqZKOM" opacity="1" fill="#f5ef90" fill-opacity="0.47"></use></g><g><g><filter id="shadow15013728" x="10.58" y="11.4" width="175" height="167.71" filterUnits="userSpaceOnUse" primitiveUnits="userSpaceOnUse"><feFlood></feFlood><feComposite in2="SourceAlpha" operator="in"></feComposite><feGaussianBlur stdDeviation="1.73"></feGaussianBlur><feOffset dx="0" dy="0" result="afterOffset"></feOffset><feFlood flood-color="#000000" flood-opacity="0.25"></feFlood><feComposite in2="afterOffset" operator="in"></feComposite><feMorphology operator="dilate" radius="1"></feMorphology><feComposite in2="SourceAlpha" operator="out"></feComposite></filter><path d="M121.41 70.7L173.58 78.29L135.83 115.11L144.74 167.11L98.08 142.56L51.42 167.11L60.33 115.11L22.58 78.29L74.75 70.7L98.08 23.4L121.41 70.7Z" id="f1O8PlOZ66" fill="white" fill-opacity="1" filter="url(#shadow15013728)"></path></g><use xlink:href="#h2oeuiAHi9" opacity="1" fill="#f8c148" fill-opacity="0.43"></use></g><g><g><filter id="shadow266976" x="25.15" y="24.37" width="147.72" height="144.32" filterUnits="userSpaceOnUse" primitiveUnits="userSpaceOnUse"><feFlood></feFlood><feComposite in2="SourceAlpha" operator="in"></feComposite><feGaussianBlur stdDeviation="1.73"></feGaussianBlur><feOffset dx="0" dy="0" result="afterOffset"></feOffset><feFlood flood-color="#000000" flood-opacity="0.25"></feFlood><feComposite in2="afterOffset" operator="in"></feComposite><feMorphology operator="dilate" radius="1"></feMorphology><feComposite in2="SourceAlpha" operator="out"></feComposite></filter><path d="M118.55 76.42L160.87 85.51L127.92 113.6L132.36 156.7L95.48 134.01L55.89 151.56L66.06 109.45L37.15 77.2L80.32 73.85L102.03 36.37L118.55 76.42Z" id="a7xRexFEve" fill="white" fill-opacity="1" filter="url(#shadow266976)"></path></g><use xlink:href="#aPiIQtxqo" opacity="1" fill="#f87d48" fill-opacity="0.46"></use></g><g><g><filter id="shadow6834988" x="69.9" y="52.18" width="41.06" height="54.91" filterUnits="userSpaceOnUse" primitiveUnits="userSpaceOnUse"><feFlood></feFlood><feComposite in2="SourceAlpha" operator="in"></feComposite><feGaussianBlur stdDeviation="1.41"></feGaussianBlur><feOffset dx="0" dy="0" result="afterOffset"></feOffset><feFlood flood-color="#fde364" flood-opacity="0.28"></feFlood><feComposite in2="afterOffset" operator="in"></feComposite><feMorphology operator="dilate" radius="0"></feMorphology><feComposite in2="SourceAlpha" operator="out"></feComposite></filter><path d="M100.04 61.19L100.07 61.2L100.1 61.22L100.12 61.23L100.15 61.26L100.17 61.28L100.18 61.31L100.19 61.34L101.76 66.51L101.76 66.54L101.77 66.57L101.76 66.61L101.76 66.64L101.75 66.67L101.73 66.69L101.71 66.72L101.69 66.74L101.67 66.76L101.64 66.78L101.61 66.79L93.9 69.12L101.91 95.62L101.94 95.75L101.96 95.88L101.96 96.01L101.94 96.14L101.92 96.27L101.87 96.39L101.82 96.5L101.75 96.61L101.68 96.71L101.59 96.81L101.49 96.89L101.38 96.96L101.26 97.02L101.13 97.07L97.91 98.04L97.78 98.07L97.65 98.09L97.52 98.09L97.39 98.07L97.26 98.05L97.14 98.01L97.03 97.95L96.92 97.89L96.82 97.81L96.72 97.72L96.64 97.62L96.57 97.51L96.51 97.39L96.46 97.26L88.45 70.76L80.75 73.09L80.71 73.1L80.68 73.1L80.65 73.1L80.62 73.09L80.59 73.08L80.56 73.07L80.54 73.05L80.52 73.03L80.5 73L80.48 72.97L80.47 72.94L78.91 67.77L78.9 67.74L78.9 67.71L78.9 67.68L78.91 67.65L78.92 67.62L78.93 67.59L78.95 67.56L78.97 67.54L79 67.52L79.02 67.51L79.06 67.49L99.92 61.19L99.95 61.18L99.98 61.18L100.01 61.18L100.04 61.19Z" id="adnKI2ChX" fill="white" fill-opacity="1" filter="url(#shadow6834988)"></path></g><use xlink:href="#a2d3Y5Axz" opacity="1" fill="#7a7a7a" fill-opacity="1"></use></g><g><g><filter id="shadow1097787" x="66.5" y="73.52" width="74.58" height="78.23" filterUnits="userSpaceOnUse" primitiveUnits="userSpaceOnUse"><feFlood></feFlood><feComposite in2="SourceAlpha" operator="in"></feComposite><feGaussianBlur stdDeviation="1.41"></feGaussianBlur><feOffset dx="0" dy="0" result="afterOffset"></feOffset><feFlood flood-color="#fde364" flood-opacity="0.28"></feFlood><feComposite in2="afterOffset" operator="in"></feComposite><feMorphology operator="dilate" radius="0"></feMorphology><feComposite in2="SourceAlpha" operator="out"></feComposite></filter><path d="M115.36 82.65C116.88 82.19 118.48 83.05 118.94 84.57C121.71 93.73 129.19 118.46 131.96 127.62C132.42 129.14 131.56 130.74 130.04 131.2C121.92 133.66 100.33 140.18 92.22 142.63C90.7 143.09 89.09 142.23 88.63 140.71C85.86 131.55 78.39 106.82 75.62 97.66C75.16 96.14 76.02 94.53 77.54 94.07C85.66 91.62 107.25 85.1 115.36 82.65Z" id="a2EmIQJvt" fill="white" fill-opacity="1" filter="url(#shadow1097787)"></path></g><use xlink:href="#g5jTCJmawq" opacity="1" fill="#ee6262" fill-opacity="1"></use></g><g><g><filter id="shadow4093117" x="85.03" y="46.61" width="39.96" height="32.16" filterUnits="userSpaceOnUse" primitiveUnits="userSpaceOnUse"><feFlood></feFlood><feComposite in2="SourceAlpha" operator="in"></feComposite><feGaussianBlur stdDeviation="1.41"></feGaussianBlur><feOffset dx="0" dy="0" result="afterOffset"></feOffset><feFlood flood-color="#fde364" flood-opacity="0.28"></feFlood><feComposite in2="afterOffset" operator="in"></feComposite><feMorphology operator="dilate" radius="0"></feMorphology><feComposite in2="SourceAlpha" operator="out"></feComposite></filter><path d="M111.94 55.69C112.93 55.4 113.97 55.95 114.27 56.94C114.71 58.38 115.47 60.91 115.91 62.35C116.21 63.34 115.65 64.38 114.66 64.68C110.98 65.79 101.75 68.58 98.07 69.69C97.08 69.99 96.04 69.43 95.74 68.44C95.31 67 94.54 64.47 94.11 63.03C93.81 62.05 94.37 61 95.35 60.71C99.03 59.6 108.27 56.8 111.94 55.69Z" id="gFhmjvPq6" fill="white" fill-opacity="1" filter="url(#shadow4093117)"></path></g><use xlink:href="#c1BWQiHVYT" opacity="1" fill="#4d4b4b" fill-opacity="1"></use></g><g><g><filter id="shadow10222587" x="55.08" y="55.48" width="39.96" height="32.16" filterUnits="userSpaceOnUse" primitiveUnits="userSpaceOnUse"><feFlood></feFlood><feComposite in2="SourceAlpha" operator="in"></feComposite><feGaussianBlur stdDeviation="1.41"></feGaussianBlur><feOffset dx="0" dy="0" result="afterOffset"></feOffset><feFlood flood-color="#fde364" flood-opacity="0.28"></feFlood><feComposite in2="afterOffset" operator="in"></feComposite><feMorphology operator="dilate" radius="0"></feMorphology><feComposite in2="SourceAlpha" operator="out"></feComposite></filter><path d="M82 64.56C82.98 64.27 84.03 64.82 84.32 65.81C84.76 67.25 85.52 69.78 85.96 71.22C86.26 72.21 85.7 73.25 84.71 73.55C81.04 74.66 71.8 77.45 68.12 78.56C67.14 78.86 66.09 78.3 65.8 77.31C65.36 75.87 64.6 73.34 64.16 71.9C63.86 70.92 64.42 69.87 65.41 69.58C69.08 68.47 78.32 65.67 82 64.56Z" id="cj4SJylPf" fill="white" fill-opacity="1" filter="url(#shadow10222587)"></path></g><use xlink:href="#c1OG05VhtH" opacity="1" fill="#4d4b4b" fill-opacity="1"></use></g><g><g><filter id="shadow15564660" x="73.04" y="87.38" width="30.98" height="30.19" filterUnits="userSpaceOnUse" primitiveUnits="userSpaceOnUse"><feFlood></feFlood><feComposite in2="SourceAlpha" operator="in"></feComposite><feGaussianBlur stdDeviation="1"></feGaussianBlur><feOffset dx="0" dy="0" result="afterOffset"></feOffset><feFlood flood-color="#000000" flood-opacity="0.5"></feFlood><feComposite in2="afterOffset" operator="in"></feComposite><feMorphology operator="dilate" radius="0"></feMorphology><feComposite in2="SourceAlpha" operator="out"></feComposite></filter><path d="M95.26 94.42L95.46 94.51L95.64 94.63L95.79 94.78L95.92 94.96L96 95.17L96.98 98.42L97.03 98.64L97.03 98.86L96.98 99.07L96.9 99.27L96.78 99.45L96.63 99.6L96.45 99.73L96.24 99.81L93.22 100.72L95.34 107.71L95.37 107.9L95.35 108.09L95.28 108.26L95.18 108.41L95.03 108.53L94.86 108.61L88.48 110.53L88.29 110.56L88.11 110.54L87.94 110.48L87.79 110.37L87.67 110.23L87.59 110.05L85.48 103.06L82.47 103.97L82.24 104.02L82.02 104.02L81.81 103.97L81.61 103.89L81.43 103.77L81.28 103.62L81.16 103.43L81.07 103.23L80.09 99.98L80.04 99.76L80.05 99.54L80.09 99.32L80.17 99.13L80.29 98.95L80.44 98.79L80.63 98.67L80.84 98.58L94.61 94.42L94.83 94.38L95.05 94.38L95.26 94.42Z" id="c4NaRtutrr" fill="white" fill-opacity="1" filter="url(#shadow15564660)"></path></g><use xlink:href="#bdNZDDF8C" opacity="1" fill="#4d4b4b" fill-opacity="1"></use></g><g><g><filter id="shadow4547324" x="86.85" y="99.37" width="34.42" height="28.12" filterUnits="userSpaceOnUse" primitiveUnits="userSpaceOnUse"><feFlood></feFlood><feComposite in2="SourceAlpha" operator="in"></feComposite><feGaussianBlur stdDeviation="1"></feGaussianBlur><feOffset dx="0" dy="0" result="afterOffset"></feOffset><feFlood flood-color="#000000" flood-opacity="0.5"></feFlood><feComposite in2="afterOffset" operator="in"></feComposite><feMorphology operator="dilate" radius="0"></feMorphology><feComposite in2="SourceAlpha" operator="out"></feComposite></filter><path d="M111.65 106.47L111.75 106.57L111.82 106.72L114.25 114.76L114.27 114.91L114.24 115.06L114.17 115.2L114.06 115.3L113.92 115.37L109.53 116.7L109.38 116.72L109.23 116.69L109.09 116.62L108.99 116.51L108.92 116.37L108.45 114.82L102.64 113.36L103.93 117.64L103.96 117.83L103.94 118.01L103.88 118.19L103.77 118.34L103.63 118.45L103.45 118.53L97.08 120.46L96.89 120.49L96.7 120.47L96.53 120.41L96.38 120.3L96.27 120.16L96.19 119.98L93.89 112.37L93.85 112.18L93.87 111.99L93.94 111.82L94.05 111.67L94.19 111.55L94.36 111.48L100.74 109.55L100.93 109.52L101.11 109.54L101.28 109.6L101.43 109.71L101.55 109.85L101.62 110L107.44 111.47L106.49 108.33L106.47 108.17L106.5 108.02L106.57 107.89L106.68 107.78L106.82 107.71L111.21 106.39L111.36 106.37L111.51 106.39L111.65 106.47Z" id="a8jFM1RyZ" fill="white" fill-opacity="1" filter="url(#shadow4547324)"></path></g><use xlink:href="#a3ULC2vA74" opacity="1" fill="#4d4b4b" fill-opacity="1"></use></g><g><g><filter id="shadow7167406" x="102.34" y="108.84" width="30.98" height="30.19" filterUnits="userSpaceOnUse" primitiveUnits="userSpaceOnUse"><feFlood></feFlood><feComposite in2="SourceAlpha" operator="in"></feComposite><feGaussianBlur stdDeviation="1"></feGaussianBlur><feOffset dx="0" dy="0" result="afterOffset"></feOffset><feFlood flood-color="#000000" flood-opacity="0.5"></feFlood><feComposite in2="afterOffset" operator="in"></feComposite><feMorphology operator="dilate" radius="0"></feMorphology><feComposite in2="SourceAlpha" operator="out"></feComposite></filter><path d="M124.75 115.97L124.93 116.09L125.09 116.24L125.21 116.42L125.3 116.63L126.28 119.88L126.32 120.1L126.32 120.32L126.27 120.53L126.19 120.73L126.07 120.91L125.92 121.06L125.74 121.19L125.53 121.27L122.52 122.19L124.63 129.18L124.66 129.37L124.64 129.55L124.57 129.72L124.47 129.87L124.33 129.99L124.15 130.07L117.78 132L117.59 132.03L117.4 132.01L117.23 131.94L117.08 131.83L116.96 131.69L116.88 131.52L114.77 124.53L111.76 125.44L111.53 125.48L111.31 125.48L111.1 125.43L110.9 125.35L110.73 125.23L110.57 125.08L110.45 124.9L110.36 124.69L109.38 121.44L109.34 121.22L109.34 121L109.38 120.79L109.46 120.59L109.58 120.41L109.74 120.25L109.92 120.13L110.13 120.04L123.9 115.88L124.12 115.84L124.34 115.84L124.55 115.89L124.55 115.89L124.75 115.97Z" id="aVeNHmnFp" fill="white" fill-opacity="1" filter="url(#shadow7167406)"></path></g><use xlink:href="#a2Hr54zocT" opacity="1" fill="#4d4b4b" fill-opacity="1"></use></g></g></g></svg>