<?xml version="1.0" encoding="UTF-8" standalone="no"?>
<!DOCTYPE svg PUBLIC "-//W3C//DTD SVG 1.1//EN" "http://www.w3.org/Graphics/SVG/1.1/DTD/svg11.dtd">
<svg version="1.1" xmlns="http://www.w3.org/2000/svg" xmlns:xlink="http://www.w3.org/1999/xlink" preserveAspectRatio="xMidYMid meet" viewBox="0 0 202 202" width="202" height="202"><defs><path d="M131 197.31C131 194 131 192.15 131 191.78C131 186.25 131 177.96 131 168.74C131 162.29 130.09 156.76 127.36 152.15C148.27 148.47 171 137.41 171 95.93C171 84.87 167.36 74.73 161 66.44C162.82 60.91 163.73 50.77 159.18 37.87C158.27 36.94 157.36 36.02 156.45 35.1C156.45 35.1 154.64 34.18 152.82 34.18C147.36 34.18 139.18 36.02 125.55 45.24C118.27 44.32 110.09 42.47 101 42.47C91.91 42.47 83.73 43.4 75.55 45.24C62.82 36.94 53.73 35.1 48.27 35.1C46.45 35.1 45.55 36.02 44.64 36.02C43.73 36.02 41.91 37.87 41.91 38.79C37.36 51.69 38.27 61.83 40.09 67.36C33.73 75.65 30.09 85.79 30.09 96.85C30.09 137.41 53.73 148.47 73.73 153.07C72.82 154.92 71.91 157.68 71 160.45C69.18 161.37 66.45 162.29 62.82 162.29C59.18 162.29 55.55 161.37 52.82 158.6C52.82 158.6 51.91 157.68 51.91 157.68C51.91 157.68 51.91 157.68 51.91 157.68C51 156.76 51 155.84 50.09 155.84C50.09 155.84 50.09 155.84 50.09 155.84C50.09 155.84 50.09 155.84 50.09 155.84C50 155.75 49.27 155.01 49.18 154.92C49.18 154.92 48.27 154 48.27 154C48.27 153.07 41 142.01 28.27 141.09C23.73 141.09 20.09 142.94 19.18 145.7C17.36 150.31 22.82 154 25.55 155.84C25.55 155.84 31 158.6 34.64 168.74C36.45 175.19 44.64 187.18 63.73 187.18C65.55 187.18 67.36 187.18 70.09 187.18C70.09 188.04 70.09 192.34 70.09 200.08C69.55 200.63 69.24 200.94 69.18 201C69.18 201 68.27 201 69.18 201C28.27 184.41 1 145.7 1 102.38C1 46.16 45.55 1 101 1C156.45 1 201 46.16 201 102.38C201 145.7 173.73 184.41 132.82 198.24C132.64 198.24 132.09 198.24 131.91 198.24C131.85 198.17 131.55 197.87 131 197.31Z" id="bBxH9V0wi"></path><path d="M131 197.31C131 194 131 192.15 131 191.78C131 186.25 131 177.96 131 168.74C131 162.29 130.09 156.76 127.36 152.15C148.27 148.47 171 137.41 171 95.93C171 84.87 167.36 74.73 161 66.44C162.82 60.91 163.73 50.77 159.18 37.87C158.27 36.94 157.36 36.02 156.45 35.1C156.45 35.1 154.64 34.18 152.82 34.18C147.36 34.18 139.18 36.02 125.55 45.24C118.27 44.32 110.09 42.47 101 42.47C91.91 42.47 83.73 43.4 75.55 45.24C62.82 36.94 53.73 35.1 48.27 35.1C46.45 35.1 45.55 36.02 44.64 36.02C43.73 36.02 41.91 37.87 41.91 38.79C37.36 51.69 38.27 61.83 40.09 67.36C33.73 75.65 30.09 85.79 30.09 96.85C30.09 137.41 53.73 148.47 73.73 153.07C72.82 154.92 71.91 157.68 71 160.45C69.18 161.37 66.45 162.29 62.82 162.29C59.18 162.29 55.55 161.37 52.82 158.6C52.82 158.6 51.91 157.68 51.91 157.68C51.91 157.68 51.91 157.68 51.91 157.68C51 156.76 51 155.84 50.09 155.84C50.09 155.84 50.09 155.84 50.09 155.84C50.09 155.84 50.09 155.84 50.09 155.84C50 155.75 49.27 155.01 49.18 154.92C49.18 154.92 48.27 154 48.27 154C48.27 153.07 41 142.01 28.27 141.09C23.73 141.09 20.09 142.94 19.18 145.7C17.36 150.31 22.82 154 25.55 155.84C25.55 155.84 31 158.6 34.64 168.74C36.45 175.19 44.64 187.18 63.73 187.18C65.55 187.18 67.36 187.18 70.09 187.18C70.09 188.04 70.09 192.34 70.09 200.08C69.55 200.63 69.24 200.94 69.18 201C69.18 201 68.27 201 69.18 201C28.27 184.41 1 145.7 1 102.38C1 46.16 45.55 1 101 1C156.45 1 201 46.16 201 102.38C201 145.7 173.73 184.41 132.82 198.24C132.64 198.24 132.09 198.24 131.91 198.24C131.85 198.17 131.55 197.87 131 197.31Z" id="aDdlqLqVR"></path></defs><g><g><g><use xlink:href="#bBxH9V0wi" opacity="1" fill="#2d2d2d" fill-opacity="1"></use><g><use xlink:href="#bBxH9V0wi" opacity="1" fill-opacity="0" stroke="#000000" stroke-width="1" stroke-opacity="0"></use></g></g><g><use xlink:href="#aDdlqLqVR" opacity="1" fill="#2d2d2d" fill-opacity="1"></use><g><use xlink:href="#aDdlqLqVR" opacity="1" fill-opacity="0" stroke="#000000" stroke-width="1" stroke-opacity="0"></use></g></g></g></g></svg>