<?xml version="1.0" encoding="UTF-8" standalone="no"?>
<!DOCTYPE svg PUBLIC "-//W3C//DTD SVG 1.1//EN" "http://www.w3.org/Graphics/SVG/1.1/DTD/svg11.dtd">
<svg version="1.1" xmlns="http://www.w3.org/2000/svg" xmlns:xlink="http://www.w3.org/1999/xlink" preserveAspectRatio="xMidYMid meet" viewBox="0 0 128 128" width="128" height="128"><defs><path d="M117.37 0.04L117.84 0.09L118.3 0.15L118.75 0.24L119.2 0.34L119.65 0.45L120.08 0.59L120.51 0.74L120.93 0.91L121.34 1.09L121.74 1.29L122.14 1.51L122.52 1.73L122.9 1.98L123.26 2.23L123.61 2.5L123.96 2.79L124.29 3.08L124.61 3.39L124.92 3.71L125.21 4.04L125.5 4.39L125.77 4.74L126.02 5.1L126.27 5.48L126.49 5.86L126.71 6.26L126.91 6.66L127.09 7.07L127.26 7.49L127.41 7.92L127.55 8.35L127.66 8.8L127.76 9.25L127.85 9.7L127.91 10.16L127.96 10.63L127.99 11.1L128 11.58L128 116.42L127.99 116.9L127.96 117.37L127.91 117.84L127.85 118.3L127.76 118.75L127.66 119.2L127.55 119.65L127.41 120.08L127.26 120.51L127.09 120.93L126.91 121.34L126.71 121.74L126.49 122.14L126.27 122.52L125.77 123.26L125.5 123.61L125.21 123.96L124.92 124.29L124.61 124.61L124.29 124.92L123.96 125.21L123.61 125.5L123.26 125.77L122.52 126.27L122.14 126.49L121.74 126.71L121.34 126.91L120.93 127.09L120.51 127.26L120.08 127.41L119.65 127.55L119.2 127.66L118.75 127.76L118.3 127.85L117.84 127.91L117.37 127.96L116.9 127.99L116.42 128L11.58 128L11.1 127.99L10.63 127.96L10.16 127.91L9.7 127.85L9.25 127.76L8.8 127.66L8.35 127.55L7.92 127.41L7.49 127.26L7.07 127.09L6.66 126.91L6.26 126.71L5.86 126.49L5.48 126.27L5.1 126.02L4.74 125.77L4.39 125.5L4.04 125.21L3.71 124.92L3.39 124.61L3.08 124.29L2.79 123.96L2.5 123.61L2.23 123.26L1.73 122.52L1.51 122.14L1.29 121.74L1.09 121.34L0.91 120.93L0.74 120.51L0.59 120.08L0.45 119.65L0.34 119.2L0.24 118.75L0.15 118.3L0.09 117.84L0.04 117.37L0.01 116.9L0 116.42L0 11.58L0.01 11.1L0.04 10.63L0.09 10.16L0.15 9.7L0.24 9.25L0.34 8.8L0.45 8.35L0.59 7.92L0.74 7.49L0.91 7.07L1.09 6.66L1.29 6.26L1.51 5.86L1.73 5.48L1.98 5.1L2.23 4.74L2.5 4.39L2.79 4.04L3.08 3.71L3.39 3.39L3.71 3.08L4.04 2.79L4.39 2.5L4.74 2.23L5.1 1.98L5.48 1.73L5.86 1.51L6.26 1.29L6.66 1.09L7.07 0.91L7.49 0.74L7.92 0.59L8.35 0.45L8.8 0.34L9.25 0.24L9.7 0.15L10.16 0.09L10.63 0.04L11.1 0.01L11.58 0L116.42 0L116.9 0.01L117.37 0.04ZM88.44 46.05L87.66 46.09L86.9 46.14L86.16 46.2L85.44 46.28L84.74 46.38L84.06 46.48L83.4 46.6L82.76 46.74L82.13 46.88L81.53 47.04L80.94 47.21L80.37 47.39L79.81 47.59L79.27 47.79L78.75 48.01L78.24 48.23L77.75 48.47L77.27 48.72L76.81 48.97L76.36 49.24L75.92 49.51L75.5 49.8L75.09 50.09L74.69 50.39L74.3 50.7L73.93 51.02L73.56 51.35L73.21 51.68L72.87 52.02L72.54 52.37L72.21 52.73L71.9 53.09L71.6 53.45L71.3 53.83L71.01 54.2L70.45 54.98L70.19 55.37L70.19 50L70.18 49.87L70.16 49.75L70.15 49.62L70.12 49.5L70.1 49.38L70.07 49.26L70.03 49.15L69.99 49.03L69.94 48.92L69.9 48.81L69.84 48.7L69.78 48.6L69.72 48.49L69.66 48.39L69.59 48.3L69.52 48.2L69.28 47.93L69.19 47.85L69.11 47.77L69.01 47.7L68.92 47.63L68.72 47.49L68.62 47.43L68.51 47.37L68.41 47.32L68.3 47.27L68.18 47.23L68.07 47.19L67.95 47.15L67.71 47.09L67.47 47.05L67.34 47.04L67.22 47.03L52.08 47.03L51.82 47.05L51.58 47.09L51.34 47.15L51.22 47.19L51 47.27L50.78 47.37L50.67 47.43L50.57 47.49L50.37 47.63L50.19 47.77L50.01 47.93L49.85 48.11L49.78 48.2L49.7 48.3L49.63 48.39L49.57 48.49L49.51 48.6L49.45 48.7L49.3 49.03L49.26 49.15L49.23 49.26L49.17 49.5L49.15 49.62L49.13 49.75L49.12 49.87L49.11 50L49.11 110.92L49.12 111.05L49.13 111.17L49.15 111.3L49.17 111.42L49.23 111.66L49.26 111.77L49.3 111.89L49.45 112.22L49.51 112.32L49.57 112.43L49.63 112.53L49.7 112.62L49.78 112.72L49.85 112.81L50.01 112.99L50.19 113.15L50.28 113.22L50.37 113.3L50.47 113.36L50.57 113.43L50.67 113.49L50.78 113.55L51 113.65L51.11 113.69L51.22 113.74L51.58 113.83L51.82 113.87L52.08 113.89L67.22 113.89L67.34 113.88L67.47 113.87L67.71 113.83L68.07 113.74L68.18 113.69L68.3 113.65L68.41 113.6L68.51 113.55L68.62 113.49L68.72 113.43L68.82 113.36L68.92 113.3L69.01 113.22L69.11 113.15L69.19 113.07L69.28 112.99L69.52 112.72L69.59 112.62L69.66 112.53L69.72 112.43L69.78 112.32L69.84 112.22L69.9 112.11L69.94 112L69.99 111.89L70.03 111.77L70.07 111.66L70.1 111.54L70.12 111.42L70.15 111.3L70.16 111.17L70.18 111.05L70.19 110.92L70.19 78.27L70.22 77.93L70.26 77.57L70.3 77.2L70.36 76.81L70.42 76.4L70.49 75.99L70.56 75.56L70.65 75.12L70.75 74.67L70.86 74.22L70.98 73.76L71.11 73.29L71.26 72.82L71.42 72.35L71.59 71.88L71.78 71.41L71.98 70.94L72.19 70.48L72.42 70.02L72.67 69.57L72.94 69.13L73.22 68.7L73.52 68.27L73.85 67.86L74.18 67.47L74.54 67.09L74.92 66.72L75.33 66.38L75.75 66.05L76.19 65.75L76.66 65.46L77.15 65.2L77.67 64.97L78.21 64.76L78.77 64.58L79.36 64.43L79.97 64.31L80.62 64.23L81.29 64.17L81.98 64.16L82.88 64.18L83.72 64.26L84.51 64.39L85.26 64.56L85.97 64.78L86.63 65.03L87.25 65.33L87.82 65.67L88.36 66.04L88.86 66.44L89.32 66.88L89.75 67.34L90.15 67.83L90.51 68.35L90.84 68.88L91.14 69.43L91.41 70L91.65 70.59L91.87 71.19L92.07 71.8L92.24 72.41L92.39 73.03L92.52 73.66L92.63 74.29L92.72 74.91L92.8 75.53L92.87 76.15L92.92 76.75L92.95 77.35L92.98 77.94L93 78.51L93.01 79.06L93.01 80.59L93 81.05L92.99 81.49L92.99 81.89L92.98 82.26L92.98 110.92L92.99 111.05L93 111.17L93.02 111.3L93.04 111.42L93.1 111.66L93.14 111.77L93.18 111.89L93.22 112L93.32 112.22L93.38 112.32L93.44 112.43L93.51 112.53L93.58 112.62L93.65 112.72L93.72 112.81L93.8 112.9L93.97 113.07L94.06 113.15L94.15 113.22L94.25 113.3L94.34 113.36L94.45 113.43L94.65 113.55L94.87 113.65L94.98 113.69L95.1 113.74L95.21 113.77L95.45 113.83L95.57 113.85L95.7 113.87L95.82 113.88L95.95 113.89L111.64 113.89L111.72 113.88L111.81 113.86L111.97 113.82L112.06 113.8L112.22 113.74L112.3 113.7L112.39 113.66L112.47 113.61L112.55 113.57L112.63 113.51L112.71 113.46L112.79 113.4L112.86 113.33L112.94 113.27L113.02 113.19L113.1 113.12L113.18 113.04L113.25 112.96L113.41 112.78L113.48 112.68L113.56 112.58L113.63 112.48L113.71 112.38L113.78 112.26L113.85 112.15L113.93 112.03L114 111.91L114.21 111.52L114.29 111.38L114.43 111.1L114.57 110.8L114.57 80.73L114.56 79.72L114.56 78.69L114.55 77.62L114.52 76.53L114.49 75.41L114.45 74.28L114.38 73.13L114.3 71.96L114.2 70.78L114.08 69.6L113.93 68.41L113.76 67.22L113.55 66.03L113.31 64.85L113.04 63.67L112.73 62.51L112.38 61.36L111.99 60.22L111.56 59.11L111.08 58.02L110.55 56.96L109.97 55.93L109.33 54.93L108.65 53.97L107.9 53.05L107.09 52.17L106.22 51.33L105.29 50.55L104.29 49.81L103.22 49.13L102.07 48.51L100.86 47.95L99.56 47.46L98.19 47.03L96.74 46.68L95.2 46.39L93.58 46.19L91.86 46.06L90.06 46.02L89.24 46.03L88.44 46.05ZM21.56 47.04L21.4 47.06L21.24 47.09L20.92 47.17L20.77 47.22L20.62 47.28L20.48 47.34L20.33 47.41L20.19 47.49L20.06 47.57L19.93 47.66L19.81 47.75L19.69 47.85L19.57 47.96L19.46 48.07L19.35 48.19L19.25 48.31L19.16 48.43L19.07 48.56L18.99 48.7L18.91 48.83L18.84 48.98L18.78 49.12L18.72 49.27L18.67 49.42L18.59 49.74L18.56 49.9L18.54 50.06L18.53 50.23L18.53 110.69L18.54 110.86L18.56 111.02L18.59 111.18L18.67 111.5L18.72 111.65L18.78 111.8L18.84 111.94L18.91 112.09L18.99 112.22L19.07 112.36L19.16 112.49L19.25 112.61L19.35 112.73L19.46 112.85L19.57 112.96L19.69 113.07L19.81 113.17L19.93 113.26L20.06 113.35L20.19 113.43L20.33 113.51L20.48 113.58L20.62 113.64L20.77 113.7L20.92 113.75L21.24 113.83L21.4 113.86L21.56 113.88L21.73 113.89L36.35 113.89L36.57 113.87L36.69 113.84L36.79 113.82L37.12 113.7L37.23 113.64L37.33 113.58L37.44 113.52L37.55 113.45L37.75 113.29L37.86 113.2L38.06 113L38.16 112.89L38.27 112.78L38.37 112.66L38.46 112.53L38.56 112.4L38.66 112.26L38.86 111.96L38.95 111.8L39.05 111.64L39.14 111.47L39.24 111.29L39.33 111.11L39.42 110.92L39.52 110.72L39.61 110.52L39.61 50.4L39.59 50.06L39.57 49.9L39.51 49.58L39.47 49.42L39.42 49.27L39.36 49.12L39.3 48.98L39.23 48.83L39.15 48.7L39.07 48.56L38.98 48.43L38.68 48.07L38.57 47.96L38.45 47.85L38.33 47.75L38.07 47.57L37.94 47.49L37.8 47.41L37.66 47.34L37.36 47.22L37.21 47.17L37.06 47.13L36.9 47.09L36.74 47.06L36.57 47.04L36.41 47.03L21.73 47.03L21.56 47.04ZM26.48 14.35L25.24 14.65L24.05 15.06L22.92 15.57L21.84 16.18L20.82 16.88L19.88 17.67L19.01 18.54L18.22 19.49L17.52 20.5L16.91 21.58L16.39 22.72L15.99 23.91L15.69 25.14L15.5 26.42L15.44 27.73L15.5 29.05L15.69 30.32L15.99 31.56L16.39 32.75L16.91 33.88L17.52 34.96L18.22 35.98L19.01 36.92L19.88 37.79L20.82 38.58L21.84 39.29L22.92 39.9L24.05 40.41L25.24 40.82L26.48 41.11L27.76 41.3L29.07 41.36L30.38 41.3L31.66 41.11L32.89 40.82L34.08 40.41L35.22 39.9L36.3 39.29L37.31 38.58L38.26 37.79L39.13 36.92L39.92 35.98L40.62 34.96L41.23 33.88L41.74 32.75L42.15 31.56L42.45 30.32L42.63 29.05L42.69 27.73L42.63 26.42L42.45 25.14L42.15 23.91L41.74 22.72L41.23 21.58L40.62 20.5L39.92 19.49L39.13 18.54L38.26 17.67L37.31 16.88L36.3 16.18L35.22 15.57L34.08 15.06L32.89 14.65L31.66 14.35L30.38 14.17L29.07 14.11L27.76 14.17L26.48 14.35Z" id="j2dspPp6CZ"></path></defs><g><g><g><use xlink:href="#j2dspPp6CZ" opacity="1" fill="#2d2d2d" fill-opacity="1"></use><g><use xlink:href="#j2dspPp6CZ" opacity="1" fill-opacity="0" stroke="#000000" stroke-width="1" stroke-opacity="0"></use></g></g></g></g></svg>