<?xml version="1.0" encoding="UTF-8" standalone="no"?>
<!DOCTYPE svg PUBLIC "-//W3C//DTD SVG 1.1//EN" "http://www.w3.org/Graphics/SVG/1.1/DTD/svg11.dtd">
<svg version="1.1" xmlns="http://www.w3.org/2000/svg" xmlns:xlink="http://www.w3.org/1999/xlink" preserveAspectRatio="xMidYMid meet" viewBox="0 0 1280 200" width="1280" height="200"><defs><path d="M279.61 -153.05L281.42 -152.8L283.2 -152.45L284.96 -152.01L286.7 -151.47L288.41 -150.84L290.09 -150.13L291.74 -149.33L293.36 -148.44L294.95 -147.47L296.51 -146.42L298.03 -145.29L299.52 -144.08L300.97 -142.8L302.38 -141.44L303.75 -140.02L305.07 -138.52L306.36 -136.96L306.6 -136.65L306.92 -137.05L307.8 -137.94L308.76 -138.75L309.78 -139.47L310.87 -140.1L312.02 -140.63L313.22 -141.05L314.46 -141.35L315.75 -141.54L317.07 -141.61L318.4 -141.54L319.69 -141.35L320.93 -141.05L322.13 -140.63L323.28 -140.1L324.37 -139.47L325.39 -138.75L326.35 -137.94L327.22 -137.05L328.02 -136.08L328.73 -135.03L329.35 -133.92L329.86 -132.76L330.27 -131.54L330.58 -130.27L330.76 -128.95L330.82 -127.61L330.76 -126.26L330.58 -124.95L330.27 -123.68L329.86 -122.46L329.35 -121.29L328.73 -120.18L328.02 -119.14L327.22 -118.17L326.35 -117.27L325.39 -116.46L324.37 -115.74L323.28 -115.11L322.13 -114.59L320.93 -114.17L319.69 -113.86L318.4 -113.67L317.85 -113.64L318.43 -111.41L318.96 -109.12L319.42 -106.78L319.81 -104.41L320.13 -102.01L320.39 -99.57L320.51 -97.88L321.28 -98.07L322.43 -98.24L323.61 -98.3L324.79 -98.24L325.95 -98.07L327.08 -97.79L328.17 -97.41L329.24 -96.93L330.26 -96.35L331.24 -95.68L332.18 -94.93L333.06 -94.09L333.9 -93.17L334.68 -92.18L335.41 -91.12L336.07 -90L336.66 -88.81L337.19 -87.57L337.65 -86.27L338.03 -84.92L338.22 -84.01L338.57 -83.99L342.13 -83.63L345.64 -83.12L349.1 -82.48L352.51 -81.71L355.88 -80.81L359.19 -79.77L362.44 -78.61L364.78 -77.67L364.34 -78.93L363.96 -80.27L363.66 -81.66L363.44 -83.09L363.3 -84.55L363.26 -86.05L363.29 -87.02L362.59 -87.05L361.43 -87.23L360.3 -87.5L359.21 -87.89L358.15 -88.37L357.12 -88.95L356.14 -89.61L355.21 -90.37L354.32 -91.21L353.48 -92.12L352.7 -93.12L351.98 -94.18L351.31 -95.3L350.72 -96.49L350.19 -97.73L349.74 -99.03L349.36 -100.37L349.05 -101.76L348.83 -103.19L348.7 -104.66L348.65 -106.15L348.7 -107.65L348.83 -109.12L349.05 -110.54L349.36 -111.93L349.74 -113.28L350.19 -114.58L350.72 -115.82L351.32 -117.01L351.98 -118.13L352.7 -119.19L353.48 -120.18L354.32 -121.1L355.21 -121.94L356.14 -122.69L357.12 -123.36L358.15 -123.94L359.21 -124.42L360.3 -124.81L361.43 -125.08L362.59 -125.25L363.77 -125.31L364.95 -125.25L366.1 -125.08L367.23 -124.8L368.33 -124.42L369.39 -123.94L370.41 -123.36L371.39 -122.69L372.33 -121.94L373.22 -121.1L374.05 -120.18L374.84 -119.19L375.56 -118.13L376.22 -117.01L376.82 -115.82L377.34 -114.58L377.8 -113.28L378.18 -111.93L378.48 -110.54L378.7 -109.11L378.84 -107.65L378.88 -106.15L378.85 -105.18L379.55 -105.15L380.71 -104.98L381.83 -104.7L382.93 -104.32L383.46 -104.08L383.55 -104.51L384.14 -106.76L384.79 -108.98L385.5 -111.15L386.27 -113.28L387.1 -115.36L387.98 -117.39L388.92 -119.37L389.91 -121.29L390.96 -123.16L392.05 -124.97L393.2 -126.73L394.39 -128.42L395.63 -130.05L396.91 -131.61L398.24 -133.11L399.61 -134.53L401.02 -135.89L402.47 -137.17L403.95 -138.38L405.48 -139.51L407.03 -140.56L408.63 -141.53L410.25 -142.42L411.9 -143.22L413.58 -143.93L415.29 -144.56L417.03 -145.09L418.79 -145.54L420.57 -145.88L422.38 -146.14L424.2 -146.29L426.05 -146.34L427.89 -146.29L429.72 -146.14L431.52 -145.88L433.31 -145.54L435.07 -145.09L436.8 -144.56L438.51 -143.93L440.2 -143.22L441.85 -142.42L443.47 -141.53L445.06 -140.56L446.62 -139.51L448.14 -138.38L449.63 -137.17L451.08 -135.89L452.49 -134.53L453.86 -133.1L455.18 -131.61L456.47 -130.05L457.71 -128.42L458.9 -126.72L460.04 -124.97L461.14 -123.16L462.18 -121.29L463.18 -119.36L464.11 -117.39L465 -115.36L465.83 -113.28L466.6 -111.15L467.31 -108.98L467.95 -106.76L468.54 -104.5L469.07 -102.21L469.52 -99.87L469.92 -97.5L470.24 -95.1L470.49 -92.66L470.68 -90.19L470.79 -87.7L470.83 -85.18L470.79 -82.66L470.68 -80.17L470.67 -80.04L470.89 -79.67L471.93 -77.8L472.93 -75.87L473.87 -73.9L474.75 -71.87L475.58 -69.79L476.35 -67.66L476.59 -66.92L477.32 -67.51L478.3 -68.18L479.32 -68.76L480.39 -69.24L481.48 -69.63L482.61 -69.9L483.76 -70.07L484.95 -70.13L486.13 -70.07L487.28 -69.9L488.41 -69.63L489.5 -69.24L490.57 -68.76L491.59 -68.18L492.57 -67.51L493.51 -66.76L494.4 -65.92L495.23 -65L496.01 -64.01L496.74 -62.95L497.4 -61.83L497.99 -60.64L498.17 -60.22L498.8 -61.12L500.04 -62.74L501.32 -64.31L502.65 -65.8L504.02 -67.23L505.43 -68.59L506.88 -69.87L508.36 -71.08L509.89 -72.21L511.44 -73.26L512.32 -73.79L512.29 -73.86L511.84 -75.15L511.46 -76.5L511.15 -77.89L510.93 -79.32L510.8 -80.78L510.76 -82.28L510.8 -83.77L510.93 -85.24L511.15 -86.67L511.46 -88.06L511.84 -89.4L512.29 -90.7L512.82 -91.94L513.42 -93.13L514.08 -94.26L514.8 -95.32L515.58 -96.31L516.42 -97.22L517.31 -98.06L518.24 -98.82L519.22 -99.49L520.25 -100.06L521.31 -100.55L522.41 -100.93L523.53 -101.21L524.69 -101.38L525.87 -101.43L527.05 -101.38L528.2 -101.21L529.33 -100.93L530.43 -100.55L531.49 -100.06L532.51 -99.49L533.49 -98.82L534.43 -98.06L535.32 -97.22L536.16 -96.31L536.94 -95.32L537.66 -94.26L538.32 -93.13L538.92 -91.94L539.44 -90.7L539.9 -89.4L540.28 -88.06L540.58 -86.67L540.8 -85.24L540.94 -83.77L540.98 -82.28L540.94 -80.78L540.8 -79.32L540.58 -77.89L540.49 -77.48L541.21 -77.26L542.92 -76.63L544.61 -75.91L546.26 -75.11L547.88 -74.23L549.47 -73.26L551.03 -72.2L552.55 -71.07L554.04 -69.87L555.49 -68.58L555.65 -68.43L555.63 -68.63L555.58 -70.13L555.63 -71.63L555.76 -73.09L555.98 -74.52L556.29 -75.91L556.67 -77.25L557.12 -78.55L557.65 -79.8L558.25 -80.98L558.91 -82.11L559.63 -83.17L560.41 -84.16L561.25 -85.08L562.14 -85.91L563.07 -86.67L564.05 -87.34L565.08 -87.92L566.14 -88.4L567.23 -88.78L568.36 -89.06L569.52 -89.23L570.69 -89.29L570.72 -89.53L571.08 -90.99L571.57 -92.35L572.17 -93.6L572.88 -94.74L573.69 -95.73L574.58 -96.58L575.55 -97.26L576.59 -97.77L577.68 -98.08L578.82 -98.19L579.96 -98.08L581.05 -97.77L582.09 -97.26L583.06 -96.58L583.95 -95.73L584.76 -94.74L585.47 -93.6L586.07 -92.35L586.56 -90.99L586.92 -89.53L587.14 -88L587.22 -86.4L587.14 -84.8L586.92 -83.27L586.56 -81.81L586.07 -80.45L585.47 -79.2L584.76 -78.07L584.54 -77.8L584.73 -77.25L585.11 -75.91L585.41 -74.52L585.63 -73.09L585.77 -71.63L585.81 -70.13L585.76 -68.63L585.63 -67.17L585.41 -65.74L585.11 -64.35L584.73 -63L584.35 -61.92L584.57 -61.96L588.08 -62.46L591.64 -62.83L595.23 -63.04L596.51 -63.07L596.51 -63.12L596.55 -64.61L596.69 -66.08L596.91 -67.51L597.21 -68.9L597.59 -70.24L598.04 -71.54L598.57 -72.78L599.17 -73.97L599.83 -75.1L600.55 -76.16L601.33 -77.15L602.17 -78.06L603.06 -78.9L603.99 -79.66L604.98 -80.33L606 -80.9L607.06 -81.39L608.16 -81.77L609.28 -82.05L610.44 -82.22L611.62 -82.27L612.8 -82.22L613.96 -82.05L615.08 -81.77L616.18 -81.39L617.24 -80.9L618.26 -80.33L619.25 -79.66L619.98 -79.07L620.22 -79.8L620.99 -81.93L621.82 -84.01L622.7 -86.04L623.16 -87L622.9 -87.52L622.38 -88.66L621.91 -89.82L621.48 -91L621.1 -92.2L620.77 -93.42L620.49 -94.66L620.25 -95.92L620.07 -97.19L619.93 -98.48L619.85 -99.79L619.82 -101.11L619.85 -102.43L619.93 -103.73L620.07 -105.02L620.25 -106.29L620.49 -107.55L620.77 -108.79L621.1 -110.01L621.48 -111.22L621.91 -112.4L622.38 -113.56L622.9 -114.69L623.45 -115.81L624.06 -116.9L624.7 -117.96L625.38 -118.99L626.1 -120L626.86 -120.98L627.65 -121.93L628.48 -122.84L629.35 -123.73L630.25 -124.58L631.18 -125.4L632.14 -126.18L633.14 -126.93L634.16 -127.64L635.21 -128.31L636.29 -128.94L637.39 -129.53L638.52 -130.08L639.68 -130.59L640.86 -131.05L642.06 -131.47L643.28 -131.85L644.52 -132.18L645.78 -132.46L647.06 -132.69L648.35 -132.87L649.66 -133L650.99 -133.08L652.32 -133.11L653.66 -133.08L654.99 -133L656.3 -132.87L657.59 -132.69L658.87 -132.46L660.13 -132.18L661.37 -131.85L662.59 -131.47L663.79 -131.05L664.97 -130.59L666.12 -130.08L667.25 -129.53L668.36 -128.94L669.44 -128.31L670.49 -127.64L671.51 -126.93L672.51 -126.18L673.47 -125.4L674.4 -124.58L675.3 -123.73L676.17 -122.84L677 -121.93L677.79 -120.98L678.55 -120L679.27 -118.99L679.95 -117.96L680.59 -116.9L681.19 -115.81L681.75 -114.69L682.27 -113.56L682.74 -112.4L683.17 -111.22L683.55 -110.01L683.88 -108.79L684.16 -107.55L684.4 -106.29L684.46 -105.9L684.56 -105.94L686.13 -106.44L687.74 -106.87L689.36 -107.24L691.02 -107.55L692.69 -107.79L694.38 -107.97L696.09 -108.07L697.82 -108.11L699.55 -108.07L701.27 -107.97L702.96 -107.79L704.63 -107.55L706.19 -107.26L706.37 -108.04L706.79 -109.26L707.3 -110.42L707.92 -111.53L708.63 -112.58L709.42 -113.55L710.3 -114.44L711.26 -115.25L712.28 -115.97L713.37 -116.6L714.52 -117.13L715.72 -117.55L716.96 -117.85L718.25 -118.04L719.57 -118.11L720.9 -118.04L722.19 -117.85L723.43 -117.55L724.63 -117.13L725.78 -116.6L726.87 -115.97L727.89 -115.25L728.85 -114.44L729.72 -113.55L730.52 -112.58L731.23 -111.53L731.85 -110.42L732.36 -109.26L732.77 -108.04L733.08 -106.77L733.26 -105.45L733.32 -104.11L733.26 -102.76L733.08 -101.45L732.77 -100.18L732.36 -98.96L731.85 -97.79L731.23 -96.68L730.52 -95.64L729.72 -94.67L729.06 -93.99L729.71 -93.26L730.74 -92L731.72 -90.7L732.65 -89.36L733.53 -87.99L734.36 -86.58L735.13 -85.13L735.86 -83.65L736.52 -82.14L737.08 -80.74L737.44 -81.01L738.47 -81.69L739.53 -82.31L740.62 -82.88L741.75 -83.39L742.9 -83.83L744.08 -84.21L745.29 -84.53L746.51 -84.78L747.77 -84.96L749.04 -85.07L750.33 -85.11L751.61 -85.07L752.88 -84.96L754.13 -84.78L755.36 -84.53L756.57 -84.21L757.75 -83.83L758.9 -83.39L760.03 -82.88L761.12 -82.31L762.18 -81.69L763.21 -81.01L764.2 -80.28L765.15 -79.5L766.07 -78.66L766.94 -77.78L767.77 -76.85L768.55 -75.88L769.29 -74.87L769.98 -73.81L770.61 -72.72L771.2 -71.59L771.73 -70.43L772.21 -69.23L772.63 -68.01L772.98 -66.75L773.12 -66.18L773.75 -66.16L777.82 -66.11L781.9 -66.16L785.94 -66.32L789.93 -66.58L790.8 -66.66L790.62 -67.18L790.32 -68.45L790.14 -69.76L790.07 -71.11L790.14 -72.45L790.32 -73.77L790.62 -75.04L791.04 -76.26L791.55 -77.42L792.17 -78.53L792.88 -79.58L793.67 -80.55L794.55 -81.44L795.51 -82.25L796.53 -82.97L797.62 -83.6L798.77 -84.13L799.97 -84.55L801.21 -84.85L802.5 -85.04L803.82 -85.11L805.15 -85.04L806.44 -84.85L807.68 -84.55L808.88 -84.13L809.66 -83.77L810.12 -84.75L811 -86.45L811.93 -88.1L812.91 -89.71L813.94 -91.27L815.01 -92.77L816.13 -94.22L817.29 -95.62L818.5 -96.96L819.74 -98.25L821.03 -99.47L822.35 -100.64L823.71 -101.74L825.1 -102.77L826.53 -103.74L827.99 -104.65L829.48 -105.48L831 -106.24L832.56 -106.93L834.13 -107.54L835.74 -108.08L837.36 -108.54L839.02 -108.92L840.69 -109.22L842.38 -109.43L844.09 -109.56L845.82 -109.61L847.55 -109.56L849.27 -109.43L850.96 -109.22L852.63 -108.92L854.28 -108.54L855.91 -108.08L857.52 -107.54L859.09 -106.93L860.64 -106.24L862.17 -105.48L863.66 -104.65L865.12 -103.74L866.55 -102.77L867.94 -101.74L869.3 -100.64L870.62 -99.47L871.91 -98.25L873.15 -96.96L874.36 -95.62L875.52 -94.22L876.47 -92.98L876.88 -93.58L877.67 -94.55L878.55 -95.44L879.51 -96.25L880.53 -96.97L881.62 -97.6L882.77 -98.13L883.97 -98.55L885.21 -98.85L886.5 -99.04L887.82 -99.11L889.15 -99.04L890.44 -98.85L891.68 -98.55L892.88 -98.13L894.03 -97.6L895.12 -96.97L896.14 -96.25L897.1 -95.44L897.72 -94.81L898.11 -95L899.79 -95.71L901.5 -96.34L903.23 -96.88L904.99 -97.32L906.78 -97.67L908.58 -97.92L910.41 -98.07L912.25 -98.12L914.1 -98.07L915.92 -97.92L917.73 -97.67L919.51 -97.32L921.27 -96.88L923.01 -96.34L924.72 -95.71L926.4 -95L928.05 -94.2L929.68 -93.31L931.27 -92.34L932.82 -91.29L934.35 -90.16L935.83 -88.95L937.28 -87.67L938.69 -86.31L940.06 -84.89L941.39 -83.39L942.67 -81.83L943.23 -81.1L943.27 -81.12L944.89 -82.01L946.54 -82.81L948.22 -83.53L949.93 -84.15L950.65 -84.37L950.57 -84.78L950.35 -86.21L950.21 -87.68L950.17 -89.17L950.21 -90.67L950.35 -92.13L950.57 -93.56L950.87 -94.95L951.25 -96.3L951.7 -97.6L952.23 -98.84L952.83 -100.03L953.49 -101.15L954.21 -102.21L954.99 -103.2L955.83 -104.12L956.72 -104.96L957.65 -105.71L958.64 -106.38L959.66 -106.96L960.72 -107.44L961.82 -107.82L962.94 -108.1L964.1 -108.27L965.28 -108.33L966.46 -108.27L967.62 -108.1L968.74 -107.82L969.84 -107.44L970.9 -106.96L971.92 -106.38L972.91 -105.71L973.84 -104.96L974.73 -104.12L975.57 -103.2L976.35 -102.21L977.07 -101.15L977.73 -100.03L978.33 -98.84L978.86 -97.59L979.31 -96.3L979.69 -94.95L979.99 -93.56L980.21 -92.13L980.35 -90.67L980.39 -89.17L980.35 -87.68L980.21 -86.21L979.99 -84.78L979.69 -83.39L979.31 -82.05L978.85 -80.75L978.83 -80.69L979.7 -80.15L981.26 -79.1L982.78 -77.97L984.27 -76.76L985.72 -75.48L987.13 -74.12L988.22 -72.99L988.67 -73.55L989.55 -74.44L990.51 -75.25L991.53 -75.97L992.62 -76.6L993.77 -77.13L994.97 -77.55L996.21 -77.85L997.5 -78.04L998.82 -78.11L1000.15 -78.04L1001.44 -77.85L1002.68 -77.55L1003.88 -77.13L1005.03 -76.6L1006.12 -75.97L1007.14 -75.25L1008.1 -74.44L1008.97 -73.55L1009.77 -72.58L1010.48 -71.53L1011.1 -70.42L1011.61 -69.26L1012.02 -68.04L1012.33 -66.77L1012.39 -66.34L1012.99 -66.47L1014.82 -66.7L1016.66 -66.77L1018.51 -66.7L1020.33 -66.47L1021.47 -66.23L1021.17 -66.68L1020.55 -67.79L1020.04 -68.96L1019.62 -70.18L1019.32 -71.45L1019.14 -72.76L1019.07 -74.11L1019.14 -75.45L1019.32 -76.77L1019.62 -78.04L1020.04 -79.26L1020.55 -80.42L1021.17 -81.53L1021.88 -82.58L1022.67 -83.55L1023.55 -84.44L1024.51 -85.25L1025.53 -85.97L1026.62 -86.6L1027.77 -87.13L1028.97 -87.55L1030.21 -87.85L1031.5 -88.04L1032.82 -88.11L1034.15 -88.04L1035.44 -87.85L1036.68 -87.55L1037.88 -87.13L1039.03 -86.6L1040.12 -85.97L1041.14 -85.25L1042.1 -84.44L1042.97 -83.55L1043.77 -82.58L1044.48 -81.53L1044.7 -81.15L1045.39 -81.99L1046.92 -83.68L1048.47 -85.25L1050.06 -86.7L1051.69 -88.03L1053.34 -89.23L1055.02 -90.29L1056.73 -91.23L1058.47 -92.03L1060.23 -92.69L1062.01 -93.21L1063.82 -93.58L1065.64 -93.81L1067.49 -93.89L1069.33 -93.81L1071.16 -93.58L1072.96 -93.21L1074.75 -92.69L1076.51 -92.03L1078.24 -91.23L1079.95 -90.29L1081.64 -89.22L1083.29 -88.03L1083.44 -87.91L1083.53 -87.97L1084.62 -88.6L1085.77 -89.13L1086.97 -89.55L1088.21 -89.85L1089.5 -90.04L1090.82 -90.11L1092.15 -90.04L1093.44 -89.85L1094.68 -89.55L1095.88 -89.13L1097.03 -88.6L1097.06 -88.58L1097.52 -89.73L1098.29 -91.51L1099.12 -93.25L1100 -94.95L1100.93 -96.6L1101.91 -98.21L1102.94 -99.77L1104.01 -101.27L1105.13 -102.72L1106.29 -104.12L1107.5 -105.46L1108.74 -106.75L1110.03 -107.97L1111.35 -109.14L1112.46 -110.03L1112.45 -110.08L1112.31 -111.55L1112.27 -113.04L1112.31 -114.54L1112.45 -116L1112.67 -117.43L1112.97 -118.82L1113.35 -120.17L1113.81 -121.46L1114.33 -122.71L1114.93 -123.89L1115.59 -125.02L1116.31 -126.08L1117.09 -127.07L1117.93 -127.99L1118.82 -128.83L1119.76 -129.58L1120.74 -130.25L1121.76 -130.83L1122.82 -131.31L1123.92 -131.69L1125.05 -131.97L1126.2 -132.14L1127.38 -132.2L1128.56 -132.14L1129.72 -131.97L1130.85 -131.69L1131.94 -131.31L1133 -130.83L1134.03 -130.25L1135.01 -129.58L1135.94 -128.83L1136.83 -127.99L1137.67 -127.07L1138.45 -126.08L1139.17 -125.02L1139.83 -123.89L1140.43 -122.71L1140.96 -121.46L1141.41 -120.17L1141.79 -118.82L1142.09 -117.43L1142.11 -117.31L1143.28 -117.04L1144.91 -116.58L1146.52 -116.04L1148.09 -115.43L1149.64 -114.74L1151.17 -113.98L1152.66 -113.15L1154.12 -112.24L1155.55 -111.27L1156.94 -110.24L1158.3 -109.14L1159.62 -107.97L1160.91 -106.75L1162.15 -105.46L1163.36 -104.12L1164.52 -102.72L1165.64 -101.27L1166.71 -99.77L1167.74 -98.21L1168.72 -96.6L1169.65 -94.95L1170.53 -93.25L1171.36 -91.51L1172.13 -89.73L1172.67 -88.36L1173.37 -89.32L1174.15 -90.31L1174.98 -91.24L1175.85 -92.13L1176.76 -92.96L1177.71 -93.74L1178.7 -94.46L1179.72 -95.13L1180.78 -95.73L1181.87 -96.27L1182.98 -96.74L1184.13 -97.15L1185.3 -97.49L1186.49 -97.76L1187.71 -97.95L1188.94 -98.07L1190.2 -98.11L1191.45 -98.07L1192.69 -97.95L1193.91 -97.76L1195.1 -97.49L1196.27 -97.15L1197.42 -96.74L1198.53 -96.27L1199.62 -95.73L1200.68 -95.13L1201.7 -94.46L1202.69 -93.74L1202.84 -93.62L1203.07 -93.91L1203.91 -94.83L1204.79 -95.67L1205.73 -96.42L1206.71 -97.09L1207.74 -97.67L1208.8 -98.15L1209.89 -98.53L1211.02 -98.81L1212.18 -98.98L1213.36 -99.04L1214.54 -98.98L1215.69 -98.81L1216.82 -98.53L1217.92 -98.15L1218.98 -97.67L1220 -97.09L1220.98 -96.42L1221.92 -95.67L1222.81 -94.83L1223.64 -93.91L1224.42 -92.92L1225.15 -91.86L1225.81 -90.74L1226.41 -89.55L1226.93 -88.3L1227.39 -87.01L1227.77 -85.66L1228.07 -84.27L1228.29 -82.84L1228.42 -81.38L1228.47 -79.88L1228.42 -78.39L1228.29 -76.92L1228.07 -75.49L1227.77 -74.1L1227.39 -72.76L1226.93 -71.46L1226.4 -70.22L1226.09 -69.58L1227.4 -69.72L1231 -69.93L1234.63 -70.01L1238.26 -69.93L1241.85 -69.72L1245.4 -69.35L1248.4 -68.92L1248.48 -69.15L1249.01 -70.39L1249.6 -71.58L1250.26 -72.7L1250.99 -73.76L1251.77 -74.75L1252.6 -75.67L1253.49 -76.51L1254.43 -77.26L1255.41 -77.93L1256.43 -78.51L1257.49 -78.99L1258.59 -79.37L1259.72 -79.65L1260.87 -79.82L1262.05 -79.88L1263.23 -79.82L1264.39 -79.65L1265.45 -79.39L1265.58 -79.8L1266.29 -81.98L1267.06 -84.1L1267.88 -86.18L1268.77 -88.21L1269.71 -90.19L1270.7 -92.12L1271.74 -93.99L1272.84 -95.8L1273.98 -97.55L1275.18 -99.24L1276.41 -100.87L1277.7 -102.43L1279.03 -103.93L1280.39 -105.36L1281.8 -106.71L1283.25 -108L1284.74 -109.2L1286.26 -110.33L1287.82 -111.38L1289.41 -112.35L1291.03 -113.24L1292.69 -114.04L1294.37 -114.76L1296.08 -115.38L1297.81 -115.92L1299.57 -116.36L1301.36 -116.71L1303.16 -116.96L1304.99 -117.11L1306.83 -117.16L1308.68 -117.11L1310.5 -116.96L1312.31 -116.71L1314.09 -116.36L1315.85 -115.92L1317.59 -115.38L1319.3 -114.76L1320.98 -114.04L1322.63 -113.24L1324.26 -112.35L1325.85 -111.38L1327.41 -110.33L1328.93 -109.2L1330.41 -107.99L1331.86 -106.71L1333.27 -105.36L1334.64 -103.93L1335.97 -102.43L1337.25 -100.87L1338.49 -99.24L1339.68 -97.55L1340.83 -95.8L1341.92 -93.98L1342.97 -92.11L1343.96 -90.19L1344.9 -88.21L1345.78 -86.18L1346.61 -84.1L1347.38 -81.97L1348.09 -79.8L1348.74 -77.58L1349.33 -75.33L1349.85 -73.03L1350.31 -70.7L1350.7 -68.32L1351.03 -65.92L1351.28 -63.48L1351.46 -61.02L1351.57 -58.53L1351.61 -56.01L1351.57 -53.49L1351.46 -50.99L1351.28 -48.53L1351.03 -46.09L1350.7 -43.69L1350.31 -41.32L1349.85 -38.98L1349.33 -36.69L1348.74 -34.43L1348.09 -32.21L1347.38 -30.04L1346.61 -27.91L1345.78 -25.83L1344.9 -23.8L1343.96 -21.82L1342.97 -19.9L1341.92 -18.03L1340.83 -16.22L1339.68 -14.46L1338.49 -12.77L1337.25 -11.14L1335.97 -9.58L1334.64 -8.08L1333.27 -6.66L1331.86 -5.3L1330.41 -4.02L1328.93 -2.81L1327.4 -1.68L1325.84 -0.63L1324.25 0.34L1322.63 1.23L1321.18 1.93L1321.57 4.08L1322.07 7.6L1322.44 11.16L1322.65 14.77L1322.73 18.41L1322.65 22.05L1322.43 25.66L1322.07 29.22L1321.57 32.74L1320.94 36.22L1320.16 39.65L1319.26 43.02L1318.23 46.35L1317.08 49.61L1315.8 52.81L1314.4 55.95L1312.89 59.03L1311.26 62.04L1309.52 64.97L1307.67 67.83L1305.72 70.61L1303.66 73.32L1301.51 75.94L1299.25 78.47L1296.91 80.92L1294.47 83.27L1291.95 85.53L1289.33 87.7L1286.64 89.76L1283.87 91.72L1281.02 93.57L1278.09 95.32L1275.1 96.95L1272.03 98.47L1268.9 99.87L1265.71 101.16L1262.46 102.32L1259.15 103.35L1255.78 104.25L1252.37 105.03L1248.9 105.67L1245.4 106.17L1241.84 106.53L1238.25 106.75L1234.62 106.83L1230.99 106.75L1227.4 106.53L1223.85 106.17L1220.34 105.67L1216.88 105.03L1213.46 104.25L1210.1 103.35L1206.79 102.31L1203.53 101.15L1200.34 99.87L1197.21 98.47L1194.15 96.95L1191.15 95.32L1188.23 93.57L1185.38 91.72L1182.6 89.76L1179.91 87.69L1177.3 85.53L1174.77 83.27L1172.34 80.92L1169.99 78.47L1167.74 75.93L1165.58 73.31L1163.53 70.61L1161.57 67.83L1159.73 64.97L1157.99 62.03L1156.36 59.02L1154.85 55.96L1153.53 57.13L1152.05 58.34L1150.52 59.47L1148.97 60.52L1147.37 61.49L1145.75 62.38L1144.1 63.18L1142.42 63.89L1140.71 64.52L1138.97 65.06L1137.21 65.5L1135.43 65.85L1133.62 66.1L1131.8 66.25L1129.95 66.3L1128.11 66.25L1126.28 66.1L1124.48 65.84L1122.69 65.5L1120.93 65.05L1119.2 64.52L1117.49 63.89L1115.8 63.18L1114.15 62.38L1112.53 61.49L1110.94 60.52L1109.38 59.47L1107.86 58.34L1106.37 57.13L1104.92 55.85L1103.51 54.49L1102.76 53.71L1102.57 54.22L1101.48 56.92L1100.33 59.54L1099.14 62.07L1097.9 64.5L1096.62 66.84L1095.29 69.07L1093.92 71.21L1092.51 73.23L1091.06 75.15L1089.58 76.95L1088.05 78.64L1086.5 80.21L1084.91 81.66L1083.28 82.98L1081.63 84.18L1079.95 85.25L1078.24 86.19L1076.5 86.99L1074.74 87.65L1072.96 88.17L1071.15 88.54L1069.33 88.77L1067.48 88.84L1065.64 88.77L1063.81 88.54L1062.01 88.17L1060.22 87.65L1058.46 86.99L1056.73 86.19L1055.02 85.25L1053.34 84.18L1051.68 82.98L1051.23 82.61L1050.65 84.04L1049.51 86.66L1048.32 89.18L1047.08 91.62L1045.79 93.95L1044.47 96.19L1043.1 98.32L1041.69 100.34L1040.24 102.26L1038.75 104.06L1037.23 105.75L1035.67 107.32L1034.08 108.77L1032.46 110.1L1030.81 111.3L1029.12 112.36L1027.41 113.3L1025.68 114.1L1023.92 114.76L1022.13 115.28L1020.33 115.65L1018.5 115.88L1016.66 115.96L1014.81 115.88L1012.99 115.65L1011.18 115.28L1009.4 114.76L1007.64 114.1L1005.9 113.3L1004.19 112.36L1002.51 111.3L1000.86 110.1L999.24 108.77L997.64 107.32L996.09 105.75L994.56 104.06L993.08 102.26L991.63 100.34L990.22 98.32L988.85 96.19L987.52 93.95L986.24 91.62L985 89.18L983.81 86.66L982.66 84.04L981.57 81.33L980.52 78.54L979.53 75.66L978.59 72.7L977.71 69.67L976.88 66.56L976.11 63.39L975.4 60.14L974.75 56.83L974.16 53.46L973.9 51.71L973.46 52.8L972.06 55.94L970.55 59.02L968.92 62.03L967.18 64.96L965.33 67.82L963.38 70.61L961.32 73.31L959.17 75.93L956.92 78.46L954.57 80.91L952.13 83.26L949.61 85.52L947 87.69L944.3 89.75L941.53 91.71L938.68 93.56L935.75 95.31L932.76 96.94L929.69 98.46L926.56 99.86L923.37 101.15L920.12 102.31L916.81 103.34L913.45 104.25L910.03 105.02L906.57 105.66L903.06 106.16L899.51 106.52L895.91 106.74L894.72 106.77L892.06 108.8L889.29 110.76L886.43 112.62L883.51 114.36L880.51 116L877.45 117.51L874.32 118.92L871.13 120.2L867.87 121.36L864.57 122.39L861.2 123.3L857.79 124.07L854.32 124.71L850.81 125.21L847.26 125.58L843.67 125.8L840.04 125.87L836.41 125.8L832.82 125.58L829.27 125.21L825.76 124.71L822.29 124.07L818.88 123.3L815.51 122.39L812.2 121.36L808.95 120.2L805.76 118.92L802.63 117.51L799.57 115.99L796.57 114.36L793.65 112.61L790.8 110.76L788.02 108.8L785.33 106.74L782.72 104.57L780.19 102.31L777.75 99.96L775.41 97.51L773.16 94.98L771 92.36L768.95 89.65L766.99 86.87L765.15 84.01L763.41 81.07L763.03 80.37L761.58 80.34L757.99 80.12L754.44 79.76L754.13 79.72L752.79 80.53L751.17 81.42L749.52 82.22L747.83 82.94L746.12 83.56L744.39 84.1L742.63 84.54L740.85 84.89L739.04 85.14L737.21 85.29L735.37 85.34L733.52 85.29L731.7 85.14L729.89 84.89L728.11 84.54L726.35 84.1L724.61 83.56L722.9 82.94L721.22 82.22L719.57 81.42L717.95 80.53L716.36 79.56L714.8 78.51L713.28 77.38L711.79 76.17L710.34 74.89L708.93 73.54L708.18 72.76L707.99 73.26L706.9 75.97L705.75 78.59L704.56 81.11L703.32 83.55L702.04 85.88L700.71 88.12L699.34 90.25L697.93 92.27L696.48 94.19L695 95.99L693.47 97.68L691.92 99.25L690.32 100.7L688.7 102.03L687.05 103.23L685.37 104.29L683.66 105.23L681.92 106.03L680.16 106.69L678.38 107.21L676.57 107.58L674.75 107.81L672.9 107.89L671.06 107.81L669.23 107.58L667.43 107.21L665.64 106.69L663.88 106.03L662.15 105.23L660.44 104.29L658.75 103.23L657.1 102.03L656.65 101.66L656.07 103.08L654.93 105.7L653.73 108.23L652.5 110.66L651.21 113L649.88 115.23L648.52 117.36L647.11 119.39L645.66 121.3L644.17 123.11L642.65 124.8L641.09 126.37L639.5 127.82L637.88 129.14L636.22 130.34L634.54 131.41L632.83 132.34L631.1 133.14L629.34 133.8L627.55 134.32L625.75 134.7L623.92 134.92L622.08 135L620.23 134.92L618.41 134.7L616.6 134.32L614.82 133.8L613.06 133.14L611.32 132.34L609.61 131.41L607.93 130.34L606.28 129.14L604.65 127.81L603.06 126.37L601.51 124.8L599.98 123.11L598.5 121.3L597.05 119.39L595.64 117.36L594.27 115.23L593.26 113.52L591.63 113.42L588.08 113.06L584.57 112.56L581.11 111.92L577.69 111.14L574.33 110.24L571.02 109.2L567.77 108.05L564.57 106.76L561.44 105.36L558.38 103.84L556.8 102.98L555.03 104.57L552.41 106.73L549.72 108.79L546.95 110.75L544.1 112.61L541.17 114.35L538.18 115.99L535.11 117.51L531.98 118.91L528.79 120.19L525.54 121.35L522.23 122.38L518.86 123.29L515.45 124.06L511.98 124.7L508.48 125.2L504.92 125.57L501.33 125.79L497.7 125.86L494.07 125.79L490.48 125.57L486.93 125.2L483.42 124.7L479.96 124.06L476.54 123.29L474.85 122.83L474.48 122.85L472.63 122.77L470.81 122.55L469 122.17L467.22 121.65L465.46 120.99L463.72 120.19L462.01 119.26L460.33 118.19L458.68 116.99L457.78 116.26L457.23 115.98L454.23 114.35L451.31 112.6L448.46 110.75L445.68 108.79L442.99 106.73L440.38 104.56L437.85 102.3L435.42 99.95L433.07 97.5L430.82 94.97L430.55 94.64L429.13 95.06L427.32 95.43L425.5 95.66L423.65 95.73L421.81 95.66L419.98 95.43L418.18 95.06L416.4 94.54L414.63 93.88L412.9 93.08L411.19 92.14L409.51 91.07L408.94 90.66L408.04 91.11L404.91 92.51L401.71 93.79L398.46 94.95L395.15 95.98L391.79 96.89L388.37 97.66L384.91 98.3L381.4 98.81L377.85 99.17L374.26 99.39L370.63 99.46L367 99.39L363.41 99.17L359.85 98.8L356.34 98.3L352.88 97.66L349.47 96.89L346.1 95.98L342.79 94.95L339.54 93.79L336.35 92.51L336.13 92.41L334.98 92.48L331.35 92.55L327.72 92.48L324.13 92.26L320.57 91.9L317.06 91.39L315.34 91.07L313.84 92.41L311.23 94.58L308.53 96.64L305.76 98.6L302.91 100.45L299.99 102.2L296.99 103.83L293.93 105.35L290.8 106.76L287.6 108.04L284.35 109.2L281.04 110.23L277.68 111.14L274.26 111.91L270.8 112.55L267.29 113.05L263.74 113.41L260.14 113.63L258.95 113.66L256.29 115.69L253.52 117.65L250.67 119.51L247.74 121.25L244.75 122.89L241.68 124.41L238.55 125.81L235.36 127.09L232.11 128.25L228.8 129.28L225.43 130.19L222.02 130.96L218.55 131.6L215.04 132.1L211.49 132.47L207.9 132.69L204.27 132.76L200.64 132.69L197.05 132.47L193.5 132.1L189.99 131.6L186.52 130.96L183.11 130.19L179.75 129.28L176.44 128.25L173.18 127.09L169.99 125.81L166.86 124.4L163.8 122.88L160.8 121.25L157.88 119.5L155.03 117.65L152.25 115.69L149.56 113.63L146.95 111.46L144.42 109.2L141.99 106.85L139.64 104.4L137.39 101.87L135.23 99.25L133.18 96.54L131.22 93.76L129.38 90.9L127.64 87.97L126.01 84.96L124.5 81.88L123.1 78.74L122.66 77.65L122.39 79.39L121.81 82.77L121.16 86.08L120.45 89.32L119.68 92.5L118.85 95.61L117.96 98.64L117.02 101.6L116.03 104.47L114.99 107.27L113.89 109.97L112.75 112.59L111.55 115.12L110.32 117.55L109.03 119.89L107.71 122.12L106.34 124.26L104.93 126.28L103.48 128.2L101.99 130L100.47 131.69L98.91 133.26L97.32 134.71L95.7 136.03L94.04 137.23L92.36 138.3L90.65 139.24L88.92 140.04L87.16 140.7L85.37 141.22L83.57 141.59L81.74 141.82L79.9 141.89L78.05 141.82L76.23 141.59L74.42 141.22L72.64 140.7L70.88 140.04L69.14 139.24L67.43 138.3L65.75 137.23L64.1 136.03L62.47 134.71L60.88 133.26L59.33 131.69L57.8 130L56.32 128.2L54.87 126.28L53.46 124.25L52.09 122.12L50.76 119.89L49.48 117.55L48.24 115.12L47.05 112.59L45.9 109.97L45.33 108.55L44.87 108.92L43.22 110.12L41.54 111.18L39.83 112.12L38.09 112.92L36.33 113.58L34.55 114.1L32.74 114.47L30.92 114.7L29.07 114.78L27.23 114.7L25.4 114.47L23.6 114.1L21.81 113.58L20.05 112.92L18.32 112.12L16.61 111.18L14.93 110.12L13.27 108.92L11.65 107.59L10.06 106.14L8.5 104.57L6.98 102.88L5.49 101.08L4.04 99.16L2.63 97.14L1.27 95.01L-0.06 92.77L-1.35 90.44L-2.58 88L-3.78 85.48L-4.92 82.86L-6.02 80.15L-6.21 79.64L-6.95 80.42L-8.36 81.78L-9.81 83.06L-11.3 84.27L-12.82 85.4L-14.38 86.45L-15.97 87.42L-17.59 88.31L-19.25 89.11L-20.93 89.82L-22.64 90.45L-24.37 90.99L-26.13 91.43L-27.92 91.78L-29.72 92.03L-31.55 92.18L-33.39 92.23L-35.24 92.18L-37.06 92.03L-38.87 91.78L-40.65 91.43L-42.41 90.99L-44.15 90.45L-45.86 89.82L-47.54 89.11L-49.19 88.31L-50.82 87.42L-52.41 86.45L-53.96 85.4L-55.49 84.27L-56.97 83.06L-58.29 81.89L-59.8 84.95L-61.43 87.96L-63.17 90.9L-65.02 93.76L-66.97 96.54L-69.03 99.24L-71.18 101.86L-73.43 104.4L-75.78 106.84L-78.22 109.2L-80.74 111.46L-83.35 113.62L-86.05 115.68L-88.82 117.64L-91.67 119.5L-94.6 121.24L-97.59 122.88L-100.66 124.4L-103.79 125.8L-106.98 127.08L-110.23 128.24L-113.54 129.27L-116.9 130.18L-120.32 130.95L-123.78 131.59L-127.29 132.1L-130.85 132.46L-134.44 132.68L-138.07 132.75L-141.7 132.68L-145.29 132.46L-148.84 132.09L-152.35 131.59L-155.81 130.95L-159.23 130.18L-162.59 129.27L-165.9 128.24L-169.15 127.08L-172.35 125.8L-175.48 124.39L-178.54 122.87L-181.54 121.24L-184.46 119.49L-187.31 117.64L-190.08 115.68L-192.78 113.62L-195.39 111.45L-197.91 109.19L-200.35 106.84L-202.7 104.39L-204.95 101.86L-207.11 99.24L-209.16 96.54L-211.11 93.75L-212.96 90.89L-214.7 87.96L-216.33 84.95L-217.84 81.87L-219.24 78.73L-220.52 75.53L-221.67 72.27L-222.7 68.94L-223.61 65.57L-224.38 62.14L-225.01 58.66L-225.51 55.14L-225.88 51.58L-226.09 47.97L-226.17 44.33L-226.09 40.69L-225.87 37.08L-225.51 33.52L-225.01 30L-224.62 27.85L-226.07 27.15L-227.69 26.26L-229.28 25.29L-230.84 24.24L-232.36 23.11L-233.85 21.9L-235.3 20.62L-236.71 19.26L-238.08 17.84L-239.41 16.34L-240.69 14.78L-241.93 13.15L-243.12 11.46L-244.26 9.7L-245.36 7.89L-246.4 6.02L-247.4 4.1L-248.34 2.12L-249.22 0.09L-250.05 -1.99L-250.82 -4.12L-251.53 -6.29L-252.18 -8.51L-252.76 -10.77L-253.29 -13.06L-253.75 -15.4L-254.14 -17.77L-254.46 -20.17L-254.72 -22.61L-254.9 -25.08L-255.01 -27.57L-255.05 -30.09L-255.01 -32.61L-254.9 -35.1L-254.72 -37.57L-254.46 -40L-254.14 -42.41L-253.75 -44.78L-253.29 -47.11L-252.76 -49.41L-252.18 -51.67L-251.53 -53.88L-250.82 -56.06L-250.05 -58.18L-249.22 -60.26L-248.33 -62.29L-247.4 -64.27L-246.4 -66.2L-245.36 -68.07L-244.26 -69.88L-243.12 -71.63L-241.93 -73.32L-240.69 -74.95L-239.4 -76.51L-238.08 -78.01L-236.71 -79.44L-235.3 -80.79L-233.85 -82.07L-232.36 -83.28L-230.84 -84.41L-229.28 -85.46L-227.69 -86.43L-226.07 -87.32L-224.41 -88.12L-222.73 -88.84L-221.02 -89.46L-219.29 -90L-217.53 -90.44L-215.74 -90.79L-213.94 -91.04L-212.11 -91.19L-210.27 -91.24L-208.42 -91.19L-206.6 -91.04L-204.79 -90.79L-203.01 -90.44L-201.25 -90L-199.51 -89.46L-197.8 -88.84L-196.12 -88.12L-194.47 -87.32L-192.84 -86.43L-191.25 -85.46L-189.7 -84.41L-188.17 -83.28L-186.69 -82.07L-185.24 -80.79L-183.83 -79.44L-182.46 -78.01L-181.13 -76.51L-179.85 -74.95L-178.61 -73.32L-177.42 -71.63L-176.27 -69.88L-175.18 -68.06L-174.13 -66.19L-173.14 -64.27L-172.2 -62.29L-171.32 -60.26L-170.49 -58.18L-169.72 -56.05L-169.01 -53.88L-168.89 -53.47L-167.82 -53.73L-166.67 -53.9L-165.49 -53.96L-164.31 -53.9L-163.15 -53.73L-162.03 -53.45L-160.93 -53.07L-159.87 -52.59L-158.85 -52.01L-157.86 -51.34L-156.93 -50.59L-156.04 -49.75L-155.2 -48.83L-154.42 -47.84L-153.7 -46.78L-153.04 -45.65L-152.44 -44.47L-151.91 -43.22L-151.83 -43L-148.84 -43.43L-145.28 -43.79L-141.69 -44.01L-138.06 -44.08L-134.43 -44.01L-130.84 -43.79L-129.52 -43.66L-129.84 -44.29L-130.37 -45.54L-130.82 -46.83L-131.2 -48.18L-131.51 -49.57L-131.72 -51L-131.86 -52.46L-131.9 -53.96L-131.86 -55.45L-131.72 -56.92L-131.5 -58.35L-131.2 -59.74L-130.82 -61.08L-130.37 -62.38L-129.84 -63.62L-129.24 -64.81L-128.58 -65.94L-127.86 -67L-127.08 -67.99L-126.24 -68.9L-125.35 -69.74L-124.42 -70.5L-123.43 -71.17L-122.41 -71.74L-121.35 -72.23L-120.25 -72.61L-119.13 -72.89L-117.97 -73.06L-116.79 -73.11L-115.61 -73.06L-114.45 -72.89L-113.33 -72.61L-112.23 -72.22L-111.17 -71.74L-110.15 -71.17L-109.17 -70.5L-108.23 -69.74L-107.34 -68.9L-107.05 -68.58L-107.03 -68.97L-106.81 -70.5L-106.45 -71.95L-105.96 -73.31L-105.36 -74.57L-104.65 -75.7L-103.84 -76.7L-102.95 -77.54L-101.98 -78.23L-100.94 -78.73L-99.85 -79.05L-98.71 -79.16L-97.57 -79.05L-96.48 -78.73L-95.44 -78.23L-94.47 -77.54L-93.58 -76.7L-92.78 -75.7L-92.07 -74.57L-91.46 -73.31L-90.98 -71.95L-90.62 -70.5L-90.39 -68.96L-90.32 -67.37L-90.39 -65.77L-90.62 -64.23L-90.98 -62.78L-91.46 -61.42L-92.07 -60.16L-92.78 -59.03L-93.58 -58.03L-94.48 -57.19L-95.44 -56.5L-96.48 -56L-97.57 -55.68L-98.71 -55.58L-99.85 -55.68L-100.94 -56L-101.81 -56.42L-101.72 -55.45L-101.68 -53.96L-101.72 -52.46L-101.86 -51L-102.08 -49.57L-102.38 -48.18L-102.76 -46.83L-103.22 -45.53L-103.74 -44.29L-104.34 -43.1L-105 -41.98L-105.72 -40.92L-106.51 -39.93L-107.34 -39.01L-107.7 -38.67L-106.97 -38.41L-103.78 -37.13L-100.65 -35.73L-97.59 -34.21L-94.59 -32.57L-91.67 -30.83L-88.82 -28.97L-86.04 -27.01L-83.95 -25.41L-83.95 -25.54L-83.81 -27L-83.59 -28.43L-83.29 -29.82L-82.91 -31.17L-82.45 -32.46L-81.93 -33.71L-81.33 -34.89L-80.67 -36.02L-79.95 -37.08L-79.16 -38.07L-78.33 -38.99L-77.44 -39.83L-76.5 -40.58L-75.52 -41.25L-74.5 -41.83L-73.44 -42.31L-72.34 -42.69L-72.32 -42.7L-72.38 -42.95L-72.66 -44.45L-72.88 -45.96L-73.05 -47.49L-73.14 -49.04L-73.18 -50.61L-73.14 -52.17L-73.05 -53.72L-72.88 -55.25L-72.66 -56.77L-72.38 -58.26L-72.03 -59.73L-71.63 -61.19L-71.17 -62.61L-70.66 -64.02L-70.09 -65.39L-69.47 -66.74L-68.79 -68.06L-68.07 -69.36L-67.29 -70.62L-66.47 -71.85L-65.6 -73.04L-64.68 -74.21L-63.72 -75.33L-62.72 -76.42L-61.67 -77.47L-60.59 -78.48L-59.46 -79.46L-58.3 -80.38L-57.1 -81.27L-55.86 -82.11L-54.59 -82.91L-53.29 -83.66L-51.96 -84.36L-50.59 -85.02L-49.2 -85.62L-47.77 -86.17L-46.33 -86.67L-45.92 -86.79L-45.93 -87.11L-45.88 -88.61L-45.75 -90.07L-45.53 -91.5L-45.23 -92.89L-44.85 -94.24L-44.39 -95.53L-43.86 -96.78L-43.27 -97.96L-42.6 -99.09L-41.88 -100.15L-41.1 -101.14L-40.26 -102.06L-39.38 -102.9L-38.44 -103.65L-37.46 -104.32L-36.43 -104.9L-35.37 -105.38L-34.28 -105.76L-33.15 -106.04L-31.99 -106.21L-30.81 -106.27L-29.63 -106.21L-28.48 -106.04L-27.35 -105.76L-26.25 -105.38L-25.19 -104.9L-24.17 -104.32L-23.19 -103.65L-22.25 -102.9L-21.36 -102.06L-20.53 -101.14L-19.75 -100.15L-19.02 -99.09L-18.36 -97.96L-17.77 -96.78L-17.24 -95.53L-16.78 -94.24L-16.4 -92.89L-16.1 -91.5L-15.88 -90.07L-15.75 -88.61L-15.7 -87.11L-15.75 -85.61L-15.86 -84.35L-14.56 -83.66L-13.26 -82.91L-11.99 -82.11L-10.75 -81.27L-9.55 -80.38L-8.39 -79.46L-7.26 -78.48L-7.19 -78.41L-7.08 -78.55L-6.2 -79.44L-5.24 -80.25L-4.22 -80.97L-3.13 -81.6L-1.98 -82.13L-0.78 -82.55L0.46 -82.85L1.75 -83.04L3.07 -83.11L4.4 -83.04L5.69 -82.85L6.93 -82.55L8.13 -82.13L9.28 -81.6L10.37 -80.97L11.39 -80.25L12.35 -79.44L13.22 -78.55L14.02 -77.58L14.73 -76.53L15.35 -75.42L15.86 -74.26L16.27 -73.04L16.58 -71.77L16.76 -70.45L16.82 -69.11L16.76 -67.76L16.58 -66.45L16.27 -65.18L15.86 -63.96L15.82 -63.85L16.61 -64.36L18.32 -65.3L20.06 -66.09L21.82 -66.76L23.6 -67.27L25.41 -67.65L27.23 -67.88L28.21 -67.92L28.57 -68.98L29.01 -70.13L29.51 -71.25L30.05 -72.36L30.63 -73.44L31.26 -74.5L31.33 -74.59L30.29 -75.06L29.19 -75.63L28.13 -76.26L27.12 -76.96L26.14 -77.72L25.21 -78.54L24.33 -79.41L23.5 -80.33L22.72 -81.31L22 -82.33L21.33 -83.39L20.73 -84.5L20.18 -85.65L19.71 -86.84L19.29 -88.06L18.95 -89.32L18.68 -90.6L18.48 -91.91L18.36 -93.25L18.32 -94.61L18.36 -95.97L18.48 -97.3L18.68 -98.61L18.95 -99.9L19.29 -101.15L19.71 -102.37L20.18 -103.56L20.73 -104.71L21.33 -105.82L22 -106.89L22.72 -107.91L23.5 -108.88L24.33 -109.81L25.21 -110.68L26.14 -111.49L27.12 -112.25L28.13 -112.95L29.19 -113.59L30.29 -114.16L31.42 -114.66L32.58 -115.09L33.78 -115.45L35 -115.73L36.25 -115.94L37.53 -116.06L38.82 -116.11L40.12 -116.06L41.39 -115.94L42.65 -115.73L43.87 -115.45L45.07 -115.09L46.23 -114.66L47.36 -114.16L48.46 -113.59L49.52 -112.95L50.53 -112.25L51.51 -111.49L52.44 -110.68L53.32 -109.81L54.15 -108.88L54.93 -107.91L55.65 -106.89L56.32 -105.82L56.92 -104.71L57.46 -103.56L57.94 -102.37L58.36 -101.15L58.7 -99.9L58.97 -98.61L59.16 -97.3L59.28 -95.97L59.32 -94.61L59.28 -93.25L59.16 -91.91L58.97 -90.6L58.76 -89.6L59.32 -89.61L60.18 -89.59L60.32 -89.99L61 -91.62L61.74 -93.21L62.55 -94.78L63.41 -96.31L64.33 -97.8L65.31 -99.26L66.35 -100.68L67.44 -102.05L68.58 -103.39L69.78 -104.68L71.02 -105.92L72.32 -107.12L73.66 -108.27L75.04 -109.37L76.47 -110.42L77.74 -111.28L76.9 -111.63L75.81 -112.19L74.77 -112.83L73.77 -113.54L72.82 -114.32L71.93 -115.17L71.09 -116.08L70.31 -117.05L69.6 -118.08L68.96 -119.16L68.38 -120.29L67.88 -121.47L67.46 -122.69L67.12 -123.95L66.87 -125.25L66.7 -126.57L66.62 -127.93L66.64 -129.29L66.75 -130.62L66.95 -131.93L67.24 -133.2L67.6 -134.44L68.05 -135.64L68.58 -136.79L69.17 -137.9L69.84 -138.96L70.58 -139.96L71.37 -140.91L72.23 -141.8L73.14 -142.62L74.11 -143.37L75.13 -144.05L76.19 -144.66L77.3 -145.18L78.45 -145.63L79.64 -145.99L80.86 -146.25L82.11 -146.43L83.39 -146.51L84.67 -146.48L85.93 -146.36L87.16 -146.15L88.36 -145.84L89.53 -145.45L90.66 -144.97L91.75 -144.41L92.79 -143.77L93.79 -143.06L94.74 -142.28L95.63 -141.43L96.47 -140.52L97.25 -139.55L97.96 -138.52L98.6 -137.44L99.18 -136.31L99.68 -135.13L100.1 -133.91L100.44 -132.65L100.69 -131.35L100.86 -130.03L100.94 -128.67L100.92 -127.31L100.81 -125.98L100.61 -124.67L100.32 -123.4L99.96 -122.16L99.51 -120.96L98.98 -119.81L98.43 -118.78L100.24 -118.96L102.15 -119.07L104.07 -119.11L106 -119.07L107.91 -118.96L109.79 -118.77L111.65 -118.52L113.49 -118.19L115.3 -117.8L117.09 -117.34L118.84 -116.81L120.57 -116.22L120.57 -116.27L120.87 -117.54L121.29 -118.76L121.8 -119.92L122.42 -121.03L123.13 -122.08L123.92 -123.05L124.8 -123.94L125.76 -124.75L126.78 -125.47L127.87 -126.1L129.02 -126.63L130.22 -127.05L131.46 -127.35L132.75 -127.54L134.07 -127.61L135.4 -127.54L136.69 -127.35L137.93 -127.05L139.13 -126.63L140.28 -126.1L141.37 -125.47L142.39 -124.75L143.35 -123.94L144.22 -123.05L145.02 -122.08L145.73 -121.03L146.35 -119.92L146.86 -118.76L147.27 -117.54L147.58 -116.27L147.76 -114.95L147.82 -113.61L147.76 -112.26L147.58 -110.95L147.27 -109.68L146.86 -108.46L146.35 -107.29L145.73 -106.18L145.02 -105.14L144.22 -104.17L143.35 -103.27L142.39 -102.46L141.37 -101.74L141.09 -101.58L141.8 -100.68L142.84 -99.26L143.82 -97.8L144.74 -96.31L145.6 -94.78L146.41 -93.21L147.15 -91.62L147.83 -89.99L148.44 -88.32L148.98 -86.66L149.22 -87.11L150.32 -88.92L151.46 -90.67L152.66 -92.37L153.9 -93.99L155.18 -95.56L156.51 -97.05L157.88 -98.48L159.29 -99.84L160.73 -101.12L162.22 -102.33L163.74 -103.46L165.3 -104.51L166.89 -105.48L168.51 -106.36L170.17 -107.17L171.85 -107.88L173.56 -108.51L175.29 -109.04L177.06 -109.48L178.84 -109.83L180.64 -110.08L182.47 -110.23L184.31 -110.29L186.16 -110.23L187.98 -110.08L189.79 -109.83L191.57 -109.48L193.33 -109.04L195.07 -108.51L196.78 -107.88L198.46 -107.16L200.11 -106.36L201.74 -105.48L203.33 -104.51L204.89 -103.45L206.41 -102.32L207.89 -101.12L209.34 -99.83L210.75 -98.48L212.12 -97.05L213.45 -95.56L214.73 -93.99L215.97 -92.36L217.16 -90.67L218.31 -88.92L218.33 -88.89L218.76 -89.25L219.78 -89.97L220.87 -90.6L222.02 -91.13L223.22 -91.55L224.46 -91.85L225.75 -92.04L227.07 -92.11L228.4 -92.04L229.69 -91.85L230.93 -91.55L231.17 -91.46L231.16 -92.1L231.2 -94.61L231.31 -97.11L231.49 -99.57L231.75 -102.01L232.07 -104.41L232.46 -106.78L232.92 -109.12L233.44 -111.42L234.03 -113.67L234.68 -115.89L235.39 -118.06L236.08 -119.98L235.77 -120.09L234.62 -120.61L233.53 -121.24L232.51 -121.96L231.55 -122.77L230.67 -123.67L229.88 -124.64L229.17 -125.68L228.55 -126.79L228.04 -127.96L227.62 -129.18L227.32 -130.45L227.14 -131.76L227.07 -133.11L227.14 -134.45L227.32 -135.77L227.62 -137.04L228.04 -138.26L228.55 -139.42L229.17 -140.53L229.88 -141.58L230.67 -142.55L231.55 -143.44L232.51 -144.25L233.53 -144.97L234.62 -145.6L235.77 -146.13L236.97 -146.55L238.21 -146.85L239.5 -147.04L240.82 -147.11L242.15 -147.04L243.44 -146.85L244.68 -146.55L245.88 -146.13L247.03 -145.6L248.12 -144.97L249.14 -144.25L250.1 -143.44L250.82 -142.71L250.91 -142.8L252.36 -144.08L253.85 -145.29L255.37 -146.42L256.93 -147.47L258.52 -148.44L260.14 -149.33L261.79 -150.13L263.47 -150.85L265.18 -151.47L266.92 -152.01L268.68 -152.45L270.46 -152.8L272.27 -153.05L274.1 -153.2L275.94 -153.25L277.78 -153.2L279.61 -153.05ZM5.03 -55.26L5.03 -55.25L5.18 -53.84L5.5 -54.26L6.59 -55.58L5.69 -55.36L5.03 -55.26ZM1257.15 -112.56L1258.18 -112.06L1259.15 -111.37L1260.05 -110.52L1260.85 -109.53L1261.56 -108.4L1262.17 -107.14L1262.65 -105.78L1263.01 -104.33L1263.24 -102.79L1263.31 -101.19L1263.24 -99.59L1263.01 -98.06L1262.65 -96.61L1262.17 -95.25L1261.56 -93.99L1260.85 -92.86L1260.05 -91.86L1259.15 -91.02L1258.18 -90.33L1257.15 -89.83L1256.06 -89.51L1254.92 -89.4L1253.78 -89.51L1252.69 -89.83L1251.65 -90.33L1250.68 -91.02L1249.79 -91.86L1248.98 -92.86L1248.27 -93.99L1247.67 -95.25L1247.18 -96.61L1246.82 -98.06L1246.6 -99.6L1246.52 -101.19L1246.6 -102.79L1246.82 -104.33L1247.18 -105.78L1247.67 -107.14L1248.27 -108.4L1248.98 -109.53L1249.79 -110.52L1250.68 -111.37L1251.65 -112.06L1252.69 -112.56L1253.78 -112.87L1254.92 -112.98L1256.06 -112.87L1257.15 -112.56ZM490.55 -112.57L491.59 -112.07L492.55 -111.39L493.45 -110.54L494.25 -109.54L494.96 -108.41L495.57 -107.15L496.05 -105.79L496.41 -104.34L496.64 -102.81L496.71 -101.21L496.64 -99.61L496.41 -98.07L496.05 -96.62L495.57 -95.26L494.96 -94L494.25 -92.87L493.45 -91.88L492.55 -91.03L491.58 -90.34L490.55 -89.84L489.46 -89.53L488.32 -89.42L487.18 -89.53L486.09 -89.84L485.05 -90.34L484.08 -91.03L483.19 -91.88L482.38 -92.87L481.67 -94L481.07 -95.26L480.58 -96.62L480.22 -98.07L480 -99.61L479.92 -101.21L480 -102.81L480.22 -104.34L480.58 -105.79L481.07 -107.16L481.67 -108.41L482.38 -109.54L483.19 -110.54L484.08 -111.39L485.05 -112.07L486.09 -112.57L487.18 -112.89L488.32 -113L489.46 -112.89L490.55 -112.57ZM781.44 -121.85L782.68 -121.55L783.88 -121.13L785.03 -120.6L786.12 -119.97L787.14 -119.25L788.1 -118.44L788.97 -117.55L789.77 -116.58L790.48 -115.53L791.1 -114.42L791.61 -113.26L792.02 -112.04L792.33 -110.77L792.51 -109.45L792.57 -108.11L792.51 -106.76L792.33 -105.45L792.02 -104.18L791.61 -102.96L791.1 -101.79L790.48 -100.68L789.77 -99.64L788.97 -98.67L788.1 -97.77L787.14 -96.96L786.12 -96.24L785.03 -95.61L783.88 -95.09L782.68 -94.67L781.44 -94.36L780.15 -94.17L778.82 -94.11L777.5 -94.17L776.21 -94.36L774.97 -94.67L773.77 -95.09L772.62 -95.61L771.53 -96.24L770.51 -96.96L769.55 -97.77L768.67 -98.67L767.88 -99.64L767.17 -100.68L766.55 -101.79L766.04 -102.96L765.62 -104.18L765.32 -105.45L765.14 -106.76L765.07 -108.11L765.14 -109.45L765.32 -110.77L765.62 -112.04L766.04 -113.26L766.55 -114.42L767.17 -115.53L767.88 -116.58L768.67 -117.55L769.55 -118.44L770.51 -119.25L771.53 -119.97L772.62 -120.6L773.77 -121.13L774.97 -121.55L776.21 -121.85L777.5 -122.04L778.82 -122.11L780.15 -122.04L781.44 -121.85ZM1068.44 -145.85L1069.68 -145.55L1070.88 -145.13L1072.03 -144.6L1073.12 -143.97L1074.14 -143.25L1075.1 -142.44L1075.97 -141.55L1076.77 -140.58L1077.48 -139.53L1078.1 -138.42L1078.61 -137.26L1079.02 -136.04L1079.33 -134.77L1079.51 -133.45L1079.57 -132.11L1079.51 -130.76L1079.33 -129.45L1079.02 -128.18L1078.61 -126.96L1078.1 -125.79L1077.48 -124.68L1076.77 -123.64L1075.97 -122.67L1075.1 -121.77L1074.14 -120.96L1073.12 -120.24L1072.03 -119.61L1070.88 -119.09L1069.68 -118.67L1068.44 -118.36L1067.15 -118.17L1065.82 -118.11L1064.5 -118.17L1063.21 -118.36L1061.97 -118.67L1060.77 -119.09L1059.62 -119.61L1058.53 -120.24L1057.51 -120.96L1056.55 -121.77L1055.67 -122.67L1054.88 -123.64L1054.17 -124.68L1053.55 -125.79L1053.04 -126.96L1052.62 -128.18L1052.32 -129.45L1052.14 -130.76L1052.07 -132.11L1052.14 -133.45L1052.32 -134.77L1052.62 -136.04L1053.04 -137.26L1053.55 -138.42L1054.17 -139.53L1054.88 -140.58L1055.67 -141.55L1056.55 -142.44L1057.51 -143.25L1058.53 -143.97L1059.62 -144.6L1060.77 -145.13L1061.97 -145.55L1063.21 -145.85L1064.5 -146.04L1065.82 -146.11L1067.15 -146.04L1068.44 -145.85ZM471.34 -146.4L472.38 -145.9L473.35 -145.21L474.24 -144.37L475.05 -143.37L475.76 -142.24L476.36 -140.98L476.85 -139.62L477.21 -138.17L477.43 -136.63L477.51 -135.03L477.43 -133.44L477.21 -131.9L476.85 -130.45L476.36 -129.09L475.76 -127.83L475.05 -126.7L474.24 -125.7L473.35 -124.86L472.38 -124.17L471.34 -123.67L470.25 -123.35L469.11 -123.25L467.97 -123.35L466.88 -123.67L465.84 -124.17L464.88 -124.86L463.98 -125.7L463.18 -126.7L462.47 -127.83L461.86 -129.09L461.38 -130.45L461.02 -131.9L460.79 -133.44L460.72 -135.03L460.79 -136.63L461.02 -138.17L461.38 -139.62L461.86 -140.98L462.47 -142.24L463.18 -143.37L463.98 -144.37L464.88 -145.21L465.85 -145.9L466.88 -146.4L467.97 -146.72L469.11 -146.82L470.25 -146.72L471.34 -146.4ZM538.34 -152.82L539.37 -152.32L540.34 -151.63L541.24 -150.78L542.04 -149.79L542.75 -148.66L543.36 -147.4L543.84 -146.04L544.2 -144.59L544.43 -143.05L544.5 -141.45L544.43 -139.85L544.2 -138.32L543.84 -136.87L543.36 -135.51L542.75 -134.25L542.04 -133.12L541.24 -132.12L540.34 -131.28L539.37 -130.59L538.34 -130.09L537.25 -129.77L536.11 -129.66L534.97 -129.77L533.88 -130.09L532.84 -130.59L531.87 -131.28L530.98 -132.12L530.17 -133.12L529.46 -134.25L528.86 -135.51L528.37 -136.87L528.01 -138.32L527.79 -139.86L527.71 -141.45L527.79 -143.05L528.01 -144.59L528.37 -146.04L528.86 -147.4L529.46 -148.66L530.17 -149.79L530.98 -150.79L531.87 -151.63L532.84 -152.32L533.88 -152.82L534.97 -153.14L536.11 -153.24L537.25 -153.13L538.34 -152.82ZM820.26 -150.65L821.48 -150.1L822.59 -149.37L823.58 -148.47L824.43 -147.42L825.13 -146.24L825.64 -144.95L825.96 -143.57L826.07 -142.11L825.96 -140.65L825.64 -139.26L825.13 -137.97L824.43 -136.79L823.58 -135.74L822.59 -134.84L821.48 -134.11L820.26 -133.57L818.95 -133.22L817.57 -133.11L816.2 -133.22L814.89 -133.57L813.67 -134.11L812.56 -134.84L811.57 -135.74L810.72 -136.79L810.02 -137.97L809.51 -139.26L809.19 -140.65L809.07 -142.11L809.19 -143.57L809.51 -144.95L810.02 -146.24L810.72 -147.42L811.57 -148.47L812.56 -149.37L813.67 -150.1L814.89 -150.65L816.2 -150.99L817.57 -151.11L818.95 -150.99L820.26 -150.65ZM932.44 -173.85L933.68 -173.55L934.88 -173.13L936.03 -172.6L937.12 -171.97L938.14 -171.25L939.1 -170.44L939.97 -169.55L940.77 -168.58L941.48 -167.53L942.1 -166.42L942.61 -165.26L943.02 -164.04L943.33 -162.77L943.51 -161.45L943.57 -160.11L943.51 -158.76L943.33 -157.45L943.02 -156.18L942.61 -154.96L942.1 -153.79L941.48 -152.68L940.77 -151.64L939.97 -150.67L939.1 -149.77L938.14 -148.96L937.12 -148.24L936.03 -147.61L934.88 -147.09L933.68 -146.67L932.44 -146.36L931.15 -146.17L929.82 -146.11L928.5 -146.17L927.21 -146.36L925.97 -146.67L924.77 -147.09L923.62 -147.61L922.53 -148.24L921.51 -148.96L920.55 -149.77L919.67 -150.67L918.88 -151.64L918.17 -152.68L917.55 -153.79L917.04 -154.96L916.62 -156.18L916.32 -157.45L916.14 -158.76L916.07 -160.11L916.14 -161.45L916.32 -162.77L916.62 -164.04L917.04 -165.26L917.55 -166.42L918.17 -167.53L918.88 -168.58L919.67 -169.55L920.55 -170.44L921.51 -171.25L922.53 -171.97L923.62 -172.6L924.77 -173.13L925.97 -173.55L927.21 -173.85L928.5 -174.04L929.82 -174.11L931.15 -174.04L932.44 -173.85Z" id="aUrLH5OR"></path><path d="M63.3 334.37C63.3 344.06 55.44 351.93 45.75 351.93C36.06 351.93 28.2 344.06 28.2 334.37C28.2 324.69 36.06 316.82 45.75 316.82C55.44 316.82 63.3 324.69 63.3 334.37Z" id="dE5x8A2L0"></path><path d="M249.3 426.62C249.3 436.31 241.44 444.18 231.75 444.18C222.06 444.18 214.2 436.31 214.2 426.62C214.2 416.94 222.06 409.07 231.75 409.07C241.44 409.07 249.3 416.94 249.3 426.62Z" id="b1Hw1HlhnT"></path><path d="M474.8 409.07C474.8 418.76 466.94 426.62 457.25 426.62C447.56 426.62 439.7 418.76 439.7 409.07C439.7 399.38 447.56 391.52 457.25 391.52C466.94 391.52 474.8 399.38 474.8 409.07Z" id="apfyaEOOW"></path><path d="M943.8 376.62C943.8 391.28 932.24 403.18 918 403.18C903.76 403.18 892.2 391.28 892.2 376.62C892.2 361.97 903.76 350.07 918 350.07C932.24 350.07 943.8 361.97 943.8 376.62Z" id="aQRmQ6Fo1"></path><path d="M1251.8 326.37C1251.8 336.61 1243.38 344.93 1233 344.93C1222.62 344.93 1214.2 336.61 1214.2 326.37C1214.2 316.14 1222.62 307.82 1233 307.82C1243.38 307.82 1251.8 316.14 1251.8 326.37Z" id="a1ZYW12ll1"></path></defs><g><g><g><g><filter id="shadow9191347" x="-265.05" y="-184.11" width="1626.66" height="336" filterUnits="userSpaceOnUse" primitiveUnits="userSpaceOnUse"><feFlood></feFlood><feComposite in2="SourceAlpha" operator="in"></feComposite><feGaussianBlur stdDeviation="1.41"></feGaussianBlur><feOffset dx="0" dy="0" result="afterOffset"></feOffset><feFlood flood-color="#000000" flood-opacity="0.75"></feFlood><feComposite in2="afterOffset" operator="in"></feComposite><feMorphology operator="dilate" radius="1"></feMorphology><feComposite in2="SourceAlpha" operator="out"></feComposite></filter><path d="M279.61 -153.05L281.42 -152.8L283.2 -152.45L284.96 -152.01L286.7 -151.47L288.41 -150.84L290.09 -150.13L291.74 -149.33L293.36 -148.44L294.95 -147.47L296.51 -146.42L298.03 -145.29L299.52 -144.08L300.97 -142.8L302.38 -141.44L303.75 -140.02L305.07 -138.52L306.36 -136.96L306.6 -136.65L306.92 -137.05L307.8 -137.94L308.76 -138.75L309.78 -139.47L310.87 -140.1L312.02 -140.63L313.22 -141.05L314.46 -141.35L315.75 -141.54L317.07 -141.61L318.4 -141.54L319.69 -141.35L320.93 -141.05L322.13 -140.63L323.28 -140.1L324.37 -139.47L325.39 -138.75L326.35 -137.94L327.22 -137.05L328.02 -136.08L328.73 -135.03L329.35 -133.92L329.86 -132.76L330.27 -131.54L330.58 -130.27L330.76 -128.95L330.82 -127.61L330.76 -126.26L330.58 -124.95L330.27 -123.68L329.86 -122.46L329.35 -121.29L328.73 -120.18L328.02 -119.14L327.22 -118.17L326.35 -117.27L325.39 -116.46L324.37 -115.74L323.28 -115.11L322.13 -114.59L320.93 -114.17L319.69 -113.86L318.4 -113.67L317.85 -113.64L318.43 -111.41L318.96 -109.12L319.42 -106.78L319.81 -104.41L320.13 -102.01L320.39 -99.57L320.51 -97.88L321.28 -98.07L322.43 -98.24L323.61 -98.3L324.79 -98.24L325.95 -98.07L327.08 -97.79L328.17 -97.41L329.24 -96.93L330.26 -96.35L331.24 -95.68L332.18 -94.93L333.06 -94.09L333.9 -93.17L334.68 -92.18L335.41 -91.12L336.07 -90L336.66 -88.81L337.19 -87.57L337.65 -86.27L338.03 -84.92L338.22 -84.01L338.57 -83.99L342.13 -83.63L345.64 -83.12L349.1 -82.48L352.51 -81.71L355.88 -80.81L359.19 -79.77L362.44 -78.61L364.78 -77.67L364.34 -78.93L363.96 -80.27L363.66 -81.66L363.44 -83.09L363.3 -84.55L363.26 -86.05L363.29 -87.02L362.59 -87.05L361.43 -87.23L360.3 -87.5L359.21 -87.89L358.15 -88.37L357.12 -88.95L356.14 -89.61L355.21 -90.37L354.32 -91.21L353.48 -92.12L352.7 -93.12L351.98 -94.18L351.31 -95.3L350.72 -96.49L350.19 -97.73L349.74 -99.03L349.36 -100.37L349.05 -101.76L348.83 -103.19L348.7 -104.66L348.65 -106.15L348.7 -107.65L348.83 -109.12L349.05 -110.54L349.36 -111.93L349.74 -113.28L350.19 -114.58L350.72 -115.82L351.32 -117.01L351.98 -118.13L352.7 -119.19L353.48 -120.18L354.32 -121.1L355.21 -121.94L356.14 -122.69L357.12 -123.36L358.15 -123.94L359.21 -124.42L360.3 -124.81L361.43 -125.08L362.59 -125.25L363.77 -125.31L364.95 -125.25L366.1 -125.08L367.23 -124.8L368.33 -124.42L369.39 -123.94L370.41 -123.36L371.39 -122.69L372.33 -121.94L373.22 -121.1L374.05 -120.18L374.84 -119.19L375.56 -118.13L376.22 -117.01L376.82 -115.82L377.34 -114.58L377.8 -113.28L378.18 -111.93L378.48 -110.54L378.7 -109.11L378.84 -107.65L378.88 -106.15L378.85 -105.18L379.55 -105.15L380.71 -104.98L381.83 -104.7L382.93 -104.32L383.46 -104.08L383.55 -104.51L384.14 -106.76L384.79 -108.98L385.5 -111.15L386.27 -113.28L387.1 -115.36L387.98 -117.39L388.92 -119.37L389.91 -121.29L390.96 -123.16L392.05 -124.97L393.2 -126.73L394.39 -128.42L395.63 -130.05L396.91 -131.61L398.24 -133.11L399.61 -134.53L401.02 -135.89L402.47 -137.17L403.95 -138.38L405.48 -139.51L407.03 -140.56L408.63 -141.53L410.25 -142.42L411.9 -143.22L413.58 -143.93L415.29 -144.56L417.03 -145.09L418.79 -145.54L420.57 -145.88L422.38 -146.14L424.2 -146.29L426.05 -146.34L427.89 -146.29L429.72 -146.14L431.52 -145.88L433.31 -145.54L435.07 -145.09L436.8 -144.56L438.51 -143.93L440.2 -143.22L441.85 -142.42L443.47 -141.53L445.06 -140.56L446.62 -139.51L448.14 -138.38L449.63 -137.17L451.08 -135.89L452.49 -134.53L453.86 -133.1L455.18 -131.61L456.47 -130.05L457.71 -128.42L458.9 -126.72L460.04 -124.97L461.14 -123.16L462.18 -121.29L463.18 -119.36L464.11 -117.39L465 -115.36L465.83 -113.28L466.6 -111.15L467.31 -108.98L467.95 -106.76L468.54 -104.5L469.07 -102.21L469.52 -99.87L469.92 -97.5L470.24 -95.1L470.49 -92.66L470.68 -90.19L470.79 -87.7L470.83 -85.18L470.79 -82.66L470.68 -80.17L470.67 -80.04L470.89 -79.67L471.93 -77.8L472.93 -75.87L473.87 -73.9L474.75 -71.87L475.58 -69.79L476.35 -67.66L476.59 -66.92L477.32 -67.51L478.3 -68.18L479.32 -68.76L480.39 -69.24L481.48 -69.63L482.61 -69.9L483.76 -70.07L484.95 -70.13L486.13 -70.07L487.28 -69.9L488.41 -69.63L489.5 -69.24L490.57 -68.76L491.59 -68.18L492.57 -67.51L493.51 -66.76L494.4 -65.92L495.23 -65L496.01 -64.01L496.74 -62.95L497.4 -61.83L497.99 -60.64L498.17 -60.22L498.8 -61.12L500.04 -62.74L501.32 -64.31L502.65 -65.8L504.02 -67.23L505.43 -68.59L506.88 -69.87L508.36 -71.08L509.89 -72.21L511.44 -73.26L512.32 -73.79L512.29 -73.86L511.84 -75.15L511.46 -76.5L511.15 -77.89L510.93 -79.32L510.8 -80.78L510.76 -82.28L510.8 -83.77L510.93 -85.24L511.15 -86.67L511.46 -88.06L511.84 -89.4L512.29 -90.7L512.82 -91.94L513.42 -93.13L514.08 -94.26L514.8 -95.32L515.58 -96.31L516.42 -97.22L517.31 -98.06L518.24 -98.82L519.22 -99.49L520.25 -100.06L521.31 -100.55L522.41 -100.93L523.53 -101.21L524.69 -101.38L525.87 -101.43L527.05 -101.38L528.2 -101.21L529.33 -100.93L530.43 -100.55L531.49 -100.06L532.51 -99.49L533.49 -98.82L534.43 -98.06L535.32 -97.22L536.16 -96.31L536.94 -95.32L537.66 -94.26L538.32 -93.13L538.92 -91.94L539.44 -90.7L539.9 -89.4L540.28 -88.06L540.58 -86.67L540.8 -85.24L540.94 -83.77L540.98 -82.28L540.94 -80.78L540.8 -79.32L540.58 -77.89L540.49 -77.48L541.21 -77.26L542.92 -76.63L544.61 -75.91L546.26 -75.11L547.88 -74.23L549.47 -73.26L551.03 -72.2L552.55 -71.07L554.04 -69.87L555.49 -68.58L555.65 -68.43L555.63 -68.63L555.58 -70.13L555.63 -71.63L555.76 -73.09L555.98 -74.52L556.29 -75.91L556.67 -77.25L557.12 -78.55L557.65 -79.8L558.25 -80.98L558.91 -82.11L559.63 -83.17L560.41 -84.16L561.25 -85.08L562.14 -85.91L563.07 -86.67L564.05 -87.34L565.08 -87.92L566.14 -88.4L567.23 -88.78L568.36 -89.06L569.52 -89.23L570.69 -89.29L570.72 -89.53L571.08 -90.99L571.57 -92.35L572.17 -93.6L572.88 -94.74L573.69 -95.73L574.58 -96.58L575.55 -97.26L576.59 -97.77L577.68 -98.08L578.82 -98.19L579.96 -98.08L581.05 -97.77L582.09 -97.26L583.06 -96.58L583.95 -95.73L584.76 -94.74L585.47 -93.6L586.07 -92.35L586.56 -90.99L586.92 -89.53L587.14 -88L587.22 -86.4L587.14 -84.8L586.92 -83.27L586.56 -81.81L586.07 -80.45L585.47 -79.2L584.76 -78.07L584.54 -77.8L584.73 -77.25L585.11 -75.91L585.41 -74.52L585.63 -73.09L585.77 -71.63L585.81 -70.13L585.76 -68.63L585.63 -67.17L585.41 -65.74L585.11 -64.35L584.73 -63L584.35 -61.92L584.57 -61.96L588.08 -62.46L591.64 -62.83L595.23 -63.04L596.51 -63.07L596.51 -63.12L596.55 -64.61L596.69 -66.08L596.91 -67.51L597.21 -68.9L597.59 -70.24L598.04 -71.54L598.57 -72.78L599.17 -73.97L599.83 -75.1L600.55 -76.16L601.33 -77.15L602.17 -78.06L603.06 -78.9L603.99 -79.66L604.98 -80.33L606 -80.9L607.06 -81.39L608.16 -81.77L609.28 -82.05L610.44 -82.22L611.62 -82.27L612.8 -82.22L613.96 -82.05L615.08 -81.77L616.18 -81.39L617.24 -80.9L618.26 -80.33L619.25 -79.66L619.98 -79.07L620.22 -79.8L620.99 -81.93L621.82 -84.01L622.7 -86.04L623.16 -87L622.9 -87.52L622.38 -88.66L621.91 -89.82L621.48 -91L621.1 -92.2L620.77 -93.42L620.49 -94.66L620.25 -95.92L620.07 -97.19L619.93 -98.48L619.85 -99.79L619.82 -101.11L619.85 -102.43L619.93 -103.73L620.07 -105.02L620.25 -106.29L620.49 -107.55L620.77 -108.79L621.1 -110.01L621.48 -111.22L621.91 -112.4L622.38 -113.56L622.9 -114.69L623.45 -115.81L624.06 -116.9L624.7 -117.96L625.38 -118.99L626.1 -120L626.86 -120.98L627.65 -121.93L628.48 -122.84L629.35 -123.73L630.25 -124.58L631.18 -125.4L632.14 -126.18L633.14 -126.93L634.16 -127.64L635.21 -128.31L636.29 -128.94L637.39 -129.53L638.52 -130.08L639.68 -130.59L640.86 -131.05L642.06 -131.47L643.28 -131.85L644.52 -132.18L645.78 -132.46L647.06 -132.69L648.35 -132.87L649.66 -133L650.99 -133.08L652.32 -133.11L653.66 -133.08L654.99 -133L656.3 -132.87L657.59 -132.69L658.87 -132.46L660.13 -132.18L661.37 -131.85L662.59 -131.47L663.79 -131.05L664.97 -130.59L666.12 -130.08L667.25 -129.53L668.36 -128.94L669.44 -128.31L670.49 -127.64L671.51 -126.93L672.51 -126.18L673.47 -125.4L674.4 -124.58L675.3 -123.73L676.17 -122.84L677 -121.93L677.79 -120.98L678.55 -120L679.27 -118.99L679.95 -117.96L680.59 -116.9L681.19 -115.81L681.75 -114.69L682.27 -113.56L682.74 -112.4L683.17 -111.22L683.55 -110.01L683.88 -108.79L684.16 -107.55L684.4 -106.29L684.46 -105.9L684.56 -105.94L686.13 -106.44L687.74 -106.87L689.36 -107.24L691.02 -107.55L692.69 -107.79L694.38 -107.97L696.09 -108.07L697.82 -108.11L699.55 -108.07L701.27 -107.97L702.96 -107.79L704.63 -107.55L706.19 -107.26L706.37 -108.04L706.79 -109.26L707.3 -110.42L707.92 -111.53L708.63 -112.58L709.42 -113.55L710.3 -114.44L711.26 -115.25L712.28 -115.97L713.37 -116.6L714.52 -117.13L715.72 -117.55L716.96 -117.85L718.25 -118.04L719.57 -118.11L720.9 -118.04L722.19 -117.85L723.43 -117.55L724.63 -117.13L725.78 -116.6L726.87 -115.97L727.89 -115.25L728.85 -114.44L729.72 -113.55L730.52 -112.58L731.23 -111.53L731.85 -110.42L732.36 -109.26L732.77 -108.04L733.08 -106.77L733.26 -105.45L733.32 -104.11L733.26 -102.76L733.08 -101.45L732.77 -100.18L732.36 -98.96L731.85 -97.79L731.23 -96.68L730.52 -95.64L729.72 -94.67L729.06 -93.99L729.71 -93.26L730.74 -92L731.72 -90.7L732.65 -89.36L733.53 -87.99L734.36 -86.58L735.13 -85.13L735.86 -83.65L736.52 -82.14L737.08 -80.74L737.44 -81.01L738.47 -81.69L739.53 -82.31L740.62 -82.88L741.75 -83.39L742.9 -83.83L744.08 -84.21L745.29 -84.53L746.51 -84.78L747.77 -84.96L749.04 -85.07L750.33 -85.11L751.61 -85.07L752.88 -84.96L754.13 -84.78L755.36 -84.53L756.57 -84.21L757.75 -83.83L758.9 -83.39L760.03 -82.88L761.12 -82.31L762.18 -81.69L763.21 -81.01L764.2 -80.28L765.15 -79.5L766.07 -78.66L766.94 -77.78L767.77 -76.85L768.55 -75.88L769.29 -74.87L769.98 -73.81L770.61 -72.72L771.2 -71.59L771.73 -70.43L772.21 -69.23L772.63 -68.01L772.98 -66.75L773.12 -66.18L773.75 -66.16L777.82 -66.11L781.9 -66.16L785.94 -66.32L789.93 -66.58L790.8 -66.66L790.62 -67.18L790.32 -68.45L790.14 -69.76L790.07 -71.11L790.14 -72.45L790.32 -73.77L790.62 -75.04L791.04 -76.26L791.55 -77.42L792.17 -78.53L792.88 -79.58L793.67 -80.55L794.55 -81.44L795.51 -82.25L796.53 -82.97L797.62 -83.6L798.77 -84.13L799.97 -84.55L801.21 -84.85L802.5 -85.04L803.82 -85.11L805.15 -85.04L806.44 -84.85L807.68 -84.55L808.88 -84.13L809.66 -83.77L810.12 -84.75L811 -86.45L811.93 -88.1L812.91 -89.71L813.94 -91.27L815.01 -92.77L816.13 -94.22L817.29 -95.62L818.5 -96.96L819.74 -98.25L821.03 -99.47L822.35 -100.64L823.71 -101.74L825.1 -102.77L826.53 -103.74L827.99 -104.65L829.48 -105.48L831 -106.24L832.56 -106.93L834.13 -107.54L835.74 -108.08L837.36 -108.54L839.02 -108.92L840.69 -109.22L842.38 -109.43L844.09 -109.56L845.82 -109.61L847.55 -109.56L849.27 -109.43L850.96 -109.22L852.63 -108.92L854.28 -108.54L855.91 -108.08L857.52 -107.54L859.09 -106.93L860.64 -106.24L862.17 -105.48L863.66 -104.65L865.12 -103.74L866.55 -102.77L867.94 -101.74L869.3 -100.64L870.62 -99.47L871.91 -98.25L873.15 -96.96L874.36 -95.62L875.52 -94.22L876.47 -92.98L876.88 -93.58L877.67 -94.55L878.55 -95.44L879.51 -96.25L880.53 -96.97L881.62 -97.6L882.77 -98.13L883.97 -98.55L885.21 -98.85L886.5 -99.04L887.82 -99.11L889.15 -99.04L890.44 -98.85L891.68 -98.55L892.88 -98.13L894.03 -97.6L895.12 -96.97L896.14 -96.25L897.1 -95.44L897.72 -94.81L898.11 -95L899.79 -95.71L901.5 -96.34L903.23 -96.88L904.99 -97.32L906.78 -97.67L908.58 -97.92L910.41 -98.07L912.25 -98.12L914.1 -98.07L915.92 -97.92L917.73 -97.67L919.51 -97.32L921.27 -96.88L923.01 -96.34L924.72 -95.71L926.4 -95L928.05 -94.2L929.68 -93.31L931.27 -92.34L932.82 -91.29L934.35 -90.16L935.83 -88.95L937.28 -87.67L938.69 -86.31L940.06 -84.89L941.39 -83.39L942.67 -81.83L943.23 -81.1L943.27 -81.12L944.89 -82.01L946.54 -82.81L948.22 -83.53L949.93 -84.15L950.65 -84.37L950.57 -84.78L950.35 -86.21L950.21 -87.68L950.17 -89.17L950.21 -90.67L950.35 -92.13L950.57 -93.56L950.87 -94.95L951.25 -96.3L951.7 -97.6L952.23 -98.84L952.83 -100.03L953.49 -101.15L954.21 -102.21L954.99 -103.2L955.83 -104.12L956.72 -104.96L957.65 -105.71L958.64 -106.38L959.66 -106.96L960.72 -107.44L961.82 -107.82L962.94 -108.1L964.1 -108.27L965.28 -108.33L966.46 -108.27L967.62 -108.1L968.74 -107.82L969.84 -107.44L970.9 -106.96L971.92 -106.38L972.91 -105.71L973.84 -104.96L974.73 -104.12L975.57 -103.2L976.35 -102.21L977.07 -101.15L977.73 -100.03L978.33 -98.84L978.86 -97.59L979.31 -96.3L979.69 -94.95L979.99 -93.56L980.21 -92.13L980.35 -90.67L980.39 -89.17L980.35 -87.68L980.21 -86.21L979.99 -84.78L979.69 -83.39L979.31 -82.05L978.85 -80.75L978.83 -80.69L979.7 -80.15L981.26 -79.1L982.78 -77.97L984.27 -76.76L985.72 -75.48L987.13 -74.12L988.22 -72.99L988.67 -73.55L989.55 -74.44L990.51 -75.25L991.53 -75.97L992.62 -76.6L993.77 -77.13L994.97 -77.55L996.21 -77.85L997.5 -78.04L998.82 -78.11L1000.15 -78.04L1001.44 -77.85L1002.68 -77.55L1003.88 -77.13L1005.03 -76.6L1006.12 -75.97L1007.14 -75.25L1008.1 -74.44L1008.97 -73.55L1009.77 -72.58L1010.48 -71.53L1011.1 -70.42L1011.61 -69.26L1012.02 -68.04L1012.33 -66.77L1012.39 -66.34L1012.99 -66.47L1014.82 -66.7L1016.66 -66.77L1018.51 -66.7L1020.33 -66.47L1021.47 -66.23L1021.17 -66.68L1020.55 -67.79L1020.04 -68.96L1019.62 -70.18L1019.32 -71.45L1019.14 -72.76L1019.07 -74.11L1019.14 -75.45L1019.32 -76.77L1019.62 -78.04L1020.04 -79.26L1020.55 -80.42L1021.17 -81.53L1021.88 -82.58L1022.67 -83.55L1023.55 -84.44L1024.51 -85.25L1025.53 -85.97L1026.62 -86.6L1027.77 -87.13L1028.97 -87.55L1030.21 -87.85L1031.5 -88.04L1032.82 -88.11L1034.15 -88.04L1035.44 -87.85L1036.68 -87.55L1037.88 -87.13L1039.03 -86.6L1040.12 -85.97L1041.14 -85.25L1042.1 -84.44L1042.97 -83.55L1043.77 -82.58L1044.48 -81.53L1044.7 -81.15L1045.39 -81.99L1046.92 -83.68L1048.47 -85.25L1050.06 -86.7L1051.69 -88.03L1053.34 -89.23L1055.02 -90.29L1056.73 -91.23L1058.47 -92.03L1060.23 -92.69L1062.01 -93.21L1063.82 -93.58L1065.64 -93.81L1067.49 -93.89L1069.33 -93.81L1071.16 -93.58L1072.96 -93.21L1074.75 -92.69L1076.51 -92.03L1078.24 -91.23L1079.95 -90.29L1081.64 -89.22L1083.29 -88.03L1083.44 -87.91L1083.53 -87.97L1084.62 -88.6L1085.77 -89.13L1086.97 -89.55L1088.21 -89.85L1089.5 -90.04L1090.82 -90.11L1092.15 -90.04L1093.44 -89.85L1094.68 -89.55L1095.88 -89.13L1097.03 -88.6L1097.06 -88.58L1097.52 -89.73L1098.29 -91.51L1099.12 -93.25L1100 -94.95L1100.93 -96.6L1101.91 -98.21L1102.94 -99.77L1104.01 -101.27L1105.13 -102.72L1106.29 -104.12L1107.5 -105.46L1108.74 -106.75L1110.03 -107.97L1111.35 -109.14L1112.46 -110.03L1112.45 -110.08L1112.31 -111.55L1112.27 -113.04L1112.31 -114.54L1112.45 -116L1112.67 -117.43L1112.97 -118.82L1113.35 -120.17L1113.81 -121.46L1114.33 -122.71L1114.93 -123.89L1115.59 -125.02L1116.31 -126.08L1117.09 -127.07L1117.93 -127.99L1118.82 -128.83L1119.76 -129.58L1120.74 -130.25L1121.76 -130.83L1122.82 -131.31L1123.92 -131.69L1125.05 -131.97L1126.2 -132.14L1127.38 -132.2L1128.56 -132.14L1129.72 -131.97L1130.85 -131.69L1131.94 -131.31L1133 -130.83L1134.03 -130.25L1135.01 -129.58L1135.94 -128.83L1136.83 -127.99L1137.67 -127.07L1138.45 -126.08L1139.17 -125.02L1139.83 -123.89L1140.43 -122.71L1140.96 -121.46L1141.41 -120.17L1141.79 -118.82L1142.09 -117.43L1142.11 -117.31L1143.28 -117.04L1144.91 -116.58L1146.52 -116.04L1148.09 -115.43L1149.64 -114.74L1151.17 -113.98L1152.66 -113.15L1154.12 -112.24L1155.55 -111.27L1156.94 -110.24L1158.3 -109.14L1159.62 -107.97L1160.91 -106.75L1162.15 -105.46L1163.36 -104.12L1164.52 -102.72L1165.64 -101.27L1166.71 -99.77L1167.74 -98.21L1168.72 -96.6L1169.65 -94.95L1170.53 -93.25L1171.36 -91.51L1172.13 -89.73L1172.67 -88.36L1173.37 -89.32L1174.15 -90.31L1174.98 -91.24L1175.85 -92.13L1176.76 -92.96L1177.71 -93.74L1178.7 -94.46L1179.72 -95.13L1180.78 -95.73L1181.87 -96.27L1182.98 -96.74L1184.13 -97.15L1185.3 -97.49L1186.49 -97.76L1187.71 -97.95L1188.94 -98.07L1190.2 -98.11L1191.45 -98.07L1192.69 -97.95L1193.91 -97.76L1195.1 -97.49L1196.27 -97.15L1197.42 -96.74L1198.53 -96.27L1199.62 -95.73L1200.68 -95.13L1201.7 -94.46L1202.69 -93.74L1202.84 -93.62L1203.07 -93.91L1203.91 -94.83L1204.79 -95.67L1205.73 -96.42L1206.71 -97.09L1207.74 -97.67L1208.8 -98.15L1209.89 -98.53L1211.02 -98.81L1212.18 -98.98L1213.36 -99.04L1214.54 -98.98L1215.69 -98.81L1216.82 -98.53L1217.92 -98.15L1218.98 -97.67L1220 -97.09L1220.98 -96.42L1221.92 -95.67L1222.81 -94.83L1223.64 -93.91L1224.42 -92.92L1225.15 -91.86L1225.81 -90.74L1226.41 -89.55L1226.93 -88.3L1227.39 -87.01L1227.77 -85.66L1228.07 -84.27L1228.29 -82.84L1228.42 -81.38L1228.47 -79.88L1228.42 -78.39L1228.29 -76.92L1228.07 -75.49L1227.77 -74.1L1227.39 -72.76L1226.93 -71.46L1226.4 -70.22L1226.09 -69.58L1227.4 -69.72L1231 -69.93L1234.63 -70.01L1238.26 -69.93L1241.85 -69.72L1245.4 -69.35L1248.4 -68.92L1248.48 -69.15L1249.01 -70.39L1249.6 -71.58L1250.26 -72.7L1250.99 -73.76L1251.77 -74.75L1252.6 -75.67L1253.49 -76.51L1254.43 -77.26L1255.41 -77.93L1256.43 -78.51L1257.49 -78.99L1258.59 -79.37L1259.72 -79.65L1260.87 -79.82L1262.05 -79.88L1263.23 -79.82L1264.39 -79.65L1265.45 -79.39L1265.58 -79.8L1266.29 -81.98L1267.06 -84.1L1267.88 -86.18L1268.77 -88.21L1269.71 -90.19L1270.7 -92.12L1271.74 -93.99L1272.84 -95.8L1273.98 -97.55L1275.18 -99.24L1276.41 -100.87L1277.7 -102.43L1279.03 -103.93L1280.39 -105.36L1281.8 -106.71L1283.25 -108L1284.74 -109.2L1286.26 -110.33L1287.82 -111.38L1289.41 -112.35L1291.03 -113.24L1292.69 -114.04L1294.37 -114.76L1296.08 -115.38L1297.81 -115.92L1299.57 -116.36L1301.36 -116.71L1303.16 -116.96L1304.99 -117.11L1306.83 -117.16L1308.68 -117.11L1310.5 -116.96L1312.31 -116.71L1314.09 -116.36L1315.85 -115.92L1317.59 -115.38L1319.3 -114.76L1320.98 -114.04L1322.63 -113.24L1324.26 -112.35L1325.85 -111.38L1327.41 -110.33L1328.93 -109.2L1330.41 -107.99L1331.86 -106.71L1333.27 -105.36L1334.64 -103.93L1335.97 -102.43L1337.25 -100.87L1338.49 -99.24L1339.68 -97.55L1340.83 -95.8L1341.92 -93.98L1342.97 -92.11L1343.96 -90.19L1344.9 -88.21L1345.78 -86.18L1346.61 -84.1L1347.38 -81.97L1348.09 -79.8L1348.74 -77.58L1349.33 -75.33L1349.85 -73.03L1350.31 -70.7L1350.7 -68.32L1351.03 -65.92L1351.28 -63.48L1351.46 -61.02L1351.57 -58.53L1351.61 -56.01L1351.57 -53.49L1351.46 -50.99L1351.28 -48.53L1351.03 -46.09L1350.7 -43.69L1350.31 -41.32L1349.85 -38.98L1349.33 -36.69L1348.74 -34.43L1348.09 -32.21L1347.38 -30.04L1346.61 -27.91L1345.78 -25.83L1344.9 -23.8L1343.96 -21.82L1342.97 -19.9L1341.92 -18.03L1340.83 -16.22L1339.68 -14.46L1338.49 -12.77L1337.25 -11.14L1335.97 -9.58L1334.64 -8.08L1333.27 -6.66L1331.86 -5.3L1330.41 -4.02L1328.93 -2.81L1327.4 -1.68L1325.84 -0.63L1324.25 0.34L1322.63 1.23L1321.18 1.93L1321.57 4.08L1322.07 7.6L1322.44 11.16L1322.65 14.77L1322.73 18.41L1322.65 22.05L1322.43 25.66L1322.07 29.22L1321.57 32.74L1320.94 36.22L1320.16 39.65L1319.26 43.02L1318.23 46.35L1317.08 49.61L1315.8 52.81L1314.4 55.95L1312.89 59.03L1311.26 62.04L1309.52 64.97L1307.67 67.83L1305.72 70.61L1303.66 73.32L1301.51 75.94L1299.25 78.47L1296.91 80.92L1294.47 83.27L1291.95 85.53L1289.33 87.7L1286.64 89.76L1283.87 91.72L1281.02 93.57L1278.09 95.32L1275.1 96.95L1272.03 98.47L1268.9 99.87L1265.71 101.16L1262.46 102.32L1259.15 103.35L1255.78 104.25L1252.37 105.03L1248.9 105.67L1245.4 106.17L1241.84 106.53L1238.25 106.75L1234.62 106.83L1230.99 106.75L1227.4 106.53L1223.85 106.17L1220.34 105.67L1216.88 105.03L1213.46 104.25L1210.1 103.35L1206.79 102.31L1203.53 101.15L1200.34 99.87L1197.21 98.47L1194.15 96.95L1191.15 95.32L1188.23 93.57L1185.38 91.72L1182.6 89.76L1179.91 87.69L1177.3 85.53L1174.77 83.27L1172.34 80.92L1169.99 78.47L1167.74 75.93L1165.58 73.31L1163.53 70.61L1161.57 67.83L1159.73 64.97L1157.99 62.03L1156.36 59.02L1154.85 55.96L1153.53 57.13L1152.05 58.34L1150.52 59.47L1148.97 60.52L1147.37 61.49L1145.75 62.38L1144.1 63.18L1142.42 63.89L1140.71 64.52L1138.97 65.06L1137.21 65.5L1135.43 65.85L1133.62 66.1L1131.8 66.25L1129.95 66.3L1128.11 66.25L1126.28 66.1L1124.48 65.84L1122.69 65.5L1120.93 65.05L1119.2 64.52L1117.49 63.89L1115.8 63.18L1114.15 62.38L1112.53 61.49L1110.94 60.52L1109.38 59.47L1107.86 58.34L1106.37 57.13L1104.92 55.85L1103.51 54.49L1102.76 53.71L1102.57 54.22L1101.48 56.92L1100.33 59.54L1099.14 62.07L1097.9 64.5L1096.62 66.84L1095.29 69.07L1093.92 71.21L1092.51 73.23L1091.06 75.15L1089.58 76.95L1088.05 78.64L1086.5 80.21L1084.91 81.66L1083.28 82.98L1081.63 84.18L1079.95 85.25L1078.24 86.19L1076.5 86.99L1074.74 87.65L1072.96 88.17L1071.15 88.54L1069.33 88.77L1067.48 88.84L1065.64 88.77L1063.81 88.54L1062.01 88.17L1060.22 87.65L1058.46 86.99L1056.73 86.19L1055.02 85.25L1053.34 84.18L1051.68 82.98L1051.23 82.61L1050.65 84.04L1049.51 86.66L1048.32 89.18L1047.08 91.62L1045.79 93.95L1044.47 96.19L1043.1 98.32L1041.69 100.34L1040.24 102.26L1038.75 104.06L1037.23 105.75L1035.67 107.32L1034.08 108.77L1032.46 110.1L1030.81 111.3L1029.12 112.36L1027.41 113.3L1025.68 114.1L1023.92 114.76L1022.13 115.28L1020.33 115.65L1018.5 115.88L1016.66 115.96L1014.81 115.88L1012.99 115.65L1011.18 115.28L1009.4 114.76L1007.64 114.1L1005.9 113.3L1004.19 112.36L1002.51 111.3L1000.86 110.1L999.24 108.77L997.64 107.32L996.09 105.75L994.56 104.06L993.08 102.26L991.63 100.34L990.22 98.32L988.85 96.19L987.52 93.95L986.24 91.62L985 89.18L983.81 86.66L982.66 84.04L981.57 81.33L980.52 78.54L979.53 75.66L978.59 72.7L977.71 69.67L976.88 66.56L976.11 63.39L975.4 60.14L974.75 56.83L974.16 53.46L973.9 51.71L973.46 52.8L972.06 55.94L970.55 59.02L968.92 62.03L967.18 64.96L965.33 67.82L963.38 70.61L961.32 73.31L959.17 75.93L956.92 78.46L954.57 80.91L952.13 83.26L949.61 85.52L947 87.69L944.3 89.75L941.53 91.71L938.68 93.56L935.75 95.31L932.76 96.94L929.69 98.46L926.56 99.86L923.37 101.15L920.12 102.31L916.81 103.34L913.45 104.25L910.03 105.02L906.57 105.66L903.06 106.16L899.51 106.52L895.91 106.74L894.72 106.77L892.06 108.8L889.29 110.76L886.43 112.62L883.51 114.36L880.51 116L877.45 117.51L874.32 118.92L871.13 120.2L867.87 121.36L864.57 122.39L861.2 123.3L857.79 124.07L854.32 124.71L850.81 125.21L847.26 125.58L843.67 125.8L840.04 125.87L836.41 125.8L832.82 125.58L829.27 125.21L825.76 124.71L822.29 124.07L818.88 123.3L815.51 122.39L812.2 121.36L808.95 120.2L805.76 118.92L802.63 117.51L799.57 115.99L796.57 114.36L793.65 112.61L790.8 110.76L788.02 108.8L785.33 106.74L782.72 104.57L780.19 102.31L777.75 99.96L775.41 97.51L773.16 94.98L771 92.36L768.95 89.65L766.99 86.87L765.15 84.01L763.41 81.07L763.03 80.37L761.58 80.34L757.99 80.12L754.44 79.76L754.13 79.72L752.79 80.53L751.17 81.42L749.52 82.22L747.83 82.94L746.12 83.56L744.39 84.1L742.63 84.54L740.85 84.89L739.04 85.14L737.21 85.29L735.37 85.34L733.52 85.29L731.7 85.14L729.89 84.89L728.11 84.54L726.35 84.1L724.61 83.56L722.9 82.94L721.22 82.22L719.57 81.42L717.95 80.53L716.36 79.56L714.8 78.51L713.28 77.38L711.79 76.17L710.34 74.89L708.93 73.54L708.18 72.76L707.99 73.26L706.9 75.97L705.75 78.59L704.56 81.11L703.32 83.55L702.04 85.88L700.71 88.12L699.34 90.25L697.93 92.27L696.48 94.19L695 95.99L693.47 97.68L691.92 99.25L690.32 100.7L688.7 102.03L687.05 103.23L685.37 104.29L683.66 105.23L681.92 106.03L680.16 106.69L678.38 107.21L676.57 107.58L674.75 107.81L672.9 107.89L671.06 107.81L669.23 107.58L667.43 107.21L665.64 106.69L663.88 106.03L662.15 105.23L660.44 104.29L658.75 103.23L657.1 102.03L656.65 101.66L656.07 103.08L654.93 105.7L653.73 108.23L652.5 110.66L651.21 113L649.88 115.23L648.52 117.36L647.11 119.39L645.66 121.3L644.17 123.11L642.65 124.8L641.09 126.37L639.5 127.82L637.88 129.14L636.22 130.34L634.54 131.41L632.83 132.34L631.1 133.14L629.34 133.8L627.55 134.32L625.75 134.7L623.92 134.92L622.08 135L620.23 134.92L618.41 134.7L616.6 134.32L614.82 133.8L613.06 133.14L611.32 132.34L609.61 131.41L607.93 130.34L606.28 129.14L604.65 127.81L603.06 126.37L601.51 124.8L599.98 123.11L598.5 121.3L597.05 119.39L595.64 117.36L594.27 115.23L593.26 113.52L591.63 113.42L588.08 113.06L584.57 112.56L581.11 111.92L577.69 111.14L574.33 110.24L571.02 109.2L567.77 108.05L564.57 106.76L561.44 105.36L558.38 103.84L556.8 102.98L555.03 104.57L552.41 106.73L549.72 108.79L546.95 110.75L544.1 112.61L541.17 114.35L538.18 115.99L535.11 117.51L531.98 118.91L528.79 120.19L525.54 121.35L522.23 122.38L518.86 123.29L515.45 124.06L511.98 124.7L508.48 125.2L504.92 125.57L501.33 125.79L497.7 125.86L494.07 125.79L490.48 125.57L486.93 125.2L483.42 124.7L479.96 124.06L476.54 123.29L474.85 122.83L474.48 122.85L472.63 122.77L470.81 122.55L469 122.17L467.22 121.65L465.46 120.99L463.72 120.19L462.01 119.26L460.33 118.19L458.68 116.99L457.78 116.26L457.23 115.98L454.23 114.35L451.31 112.6L448.46 110.75L445.68 108.79L442.99 106.73L440.38 104.56L437.85 102.3L435.42 99.95L433.07 97.5L430.82 94.97L430.55 94.64L429.13 95.06L427.32 95.43L425.5 95.66L423.65 95.73L421.81 95.66L419.98 95.43L418.18 95.06L416.4 94.54L414.63 93.88L412.9 93.08L411.19 92.14L409.51 91.07L408.94 90.66L408.04 91.11L404.91 92.51L401.71 93.79L398.46 94.95L395.15 95.98L391.79 96.89L388.37 97.66L384.91 98.3L381.4 98.81L377.85 99.17L374.26 99.39L370.63 99.46L367 99.39L363.41 99.17L359.85 98.8L356.34 98.3L352.88 97.66L349.47 96.89L346.1 95.98L342.79 94.95L339.54 93.79L336.35 92.51L336.13 92.41L334.98 92.48L331.35 92.55L327.72 92.48L324.13 92.26L320.57 91.9L317.06 91.39L315.34 91.07L313.84 92.41L311.23 94.58L308.53 96.64L305.76 98.6L302.91 100.45L299.99 102.2L296.99 103.83L293.93 105.35L290.8 106.76L287.6 108.04L284.35 109.2L281.04 110.23L277.68 111.14L274.26 111.91L270.8 112.55L267.29 113.05L263.74 113.41L260.14 113.63L258.95 113.66L256.29 115.69L253.52 117.65L250.67 119.51L247.74 121.25L244.75 122.89L241.68 124.41L238.55 125.81L235.36 127.09L232.11 128.25L228.8 129.28L225.43 130.19L222.02 130.96L218.55 131.6L215.04 132.1L211.49 132.47L207.9 132.69L204.27 132.76L200.64 132.69L197.05 132.47L193.5 132.1L189.99 131.6L186.52 130.96L183.11 130.19L179.75 129.28L176.44 128.25L173.18 127.09L169.99 125.81L166.86 124.4L163.8 122.88L160.8 121.25L157.88 119.5L155.03 117.65L152.25 115.69L149.56 113.63L146.95 111.46L144.42 109.2L141.99 106.85L139.64 104.4L137.39 101.87L135.23 99.25L133.18 96.54L131.22 93.76L129.38 90.9L127.64 87.97L126.01 84.96L124.5 81.88L123.1 78.74L122.66 77.65L122.39 79.39L121.81 82.77L121.16 86.08L120.45 89.32L119.68 92.5L118.85 95.61L117.96 98.64L117.02 101.6L116.03 104.47L114.99 107.27L113.89 109.97L112.75 112.59L111.55 115.12L110.32 117.55L109.03 119.89L107.71 122.12L106.34 124.26L104.93 126.28L103.48 128.2L101.99 130L100.47 131.69L98.91 133.26L97.32 134.71L95.7 136.03L94.04 137.23L92.36 138.3L90.65 139.24L88.92 140.04L87.16 140.7L85.37 141.22L83.57 141.59L81.74 141.82L79.9 141.89L78.05 141.82L76.23 141.59L74.42 141.22L72.64 140.7L70.88 140.04L69.14 139.24L67.43 138.3L65.75 137.23L64.1 136.03L62.47 134.71L60.88 133.26L59.33 131.69L57.8 130L56.32 128.2L54.87 126.28L53.46 124.25L52.09 122.12L50.76 119.89L49.48 117.55L48.24 115.12L47.05 112.59L45.9 109.97L45.33 108.55L44.87 108.92L43.22 110.12L41.54 111.18L39.83 112.12L38.09 112.92L36.33 113.58L34.55 114.1L32.74 114.47L30.92 114.7L29.07 114.78L27.23 114.7L25.4 114.47L23.6 114.1L21.81 113.58L20.05 112.92L18.32 112.12L16.61 111.18L14.93 110.12L13.27 108.92L11.65 107.59L10.06 106.14L8.5 104.57L6.98 102.88L5.49 101.08L4.04 99.16L2.63 97.14L1.27 95.01L-0.06 92.77L-1.35 90.44L-2.58 88L-3.78 85.48L-4.92 82.86L-6.02 80.15L-6.21 79.64L-6.95 80.42L-8.36 81.78L-9.81 83.06L-11.3 84.27L-12.82 85.4L-14.38 86.45L-15.97 87.42L-17.59 88.31L-19.25 89.11L-20.93 89.82L-22.64 90.45L-24.37 90.99L-26.13 91.43L-27.92 91.78L-29.72 92.03L-31.55 92.18L-33.39 92.23L-35.24 92.18L-37.06 92.03L-38.87 91.78L-40.65 91.43L-42.41 90.99L-44.15 90.45L-45.86 89.82L-47.54 89.11L-49.19 88.31L-50.82 87.42L-52.41 86.45L-53.96 85.4L-55.49 84.27L-56.97 83.06L-58.29 81.89L-59.8 84.95L-61.43 87.96L-63.17 90.9L-65.02 93.76L-66.97 96.54L-69.03 99.24L-71.18 101.86L-73.43 104.4L-75.78 106.84L-78.22 109.2L-80.74 111.46L-83.35 113.62L-86.05 115.68L-88.82 117.64L-91.67 119.5L-94.6 121.24L-97.59 122.88L-100.66 124.4L-103.79 125.8L-106.98 127.08L-110.23 128.24L-113.54 129.27L-116.9 130.18L-120.32 130.95L-123.78 131.59L-127.29 132.1L-130.85 132.46L-134.44 132.68L-138.07 132.75L-141.7 132.68L-145.29 132.46L-148.84 132.09L-152.35 131.59L-155.81 130.95L-159.23 130.18L-162.59 129.27L-165.9 128.24L-169.15 127.08L-172.35 125.8L-175.48 124.39L-178.54 122.87L-181.54 121.24L-184.46 119.49L-187.31 117.64L-190.08 115.68L-192.78 113.62L-195.39 111.45L-197.91 109.19L-200.35 106.84L-202.7 104.39L-204.95 101.86L-207.11 99.24L-209.16 96.54L-211.11 93.75L-212.96 90.89L-214.7 87.96L-216.33 84.95L-217.84 81.87L-219.24 78.73L-220.52 75.53L-221.67 72.27L-222.7 68.94L-223.61 65.57L-224.38 62.14L-225.01 58.66L-225.51 55.14L-225.88 51.58L-226.09 47.97L-226.17 44.33L-226.09 40.69L-225.87 37.08L-225.51 33.52L-225.01 30L-224.62 27.85L-226.07 27.15L-227.69 26.26L-229.28 25.29L-230.84 24.24L-232.36 23.11L-233.85 21.9L-235.3 20.62L-236.71 19.26L-238.08 17.84L-239.41 16.34L-240.69 14.78L-241.93 13.15L-243.12 11.46L-244.26 9.7L-245.36 7.89L-246.4 6.02L-247.4 4.1L-248.34 2.12L-249.22 0.09L-250.05 -1.99L-250.82 -4.12L-251.53 -6.29L-252.18 -8.51L-252.76 -10.77L-253.29 -13.06L-253.75 -15.4L-254.14 -17.77L-254.46 -20.17L-254.72 -22.61L-254.9 -25.08L-255.01 -27.57L-255.05 -30.09L-255.01 -32.61L-254.9 -35.1L-254.72 -37.57L-254.46 -40L-254.14 -42.41L-253.75 -44.78L-253.29 -47.11L-252.76 -49.41L-252.18 -51.67L-251.53 -53.88L-250.82 -56.06L-250.05 -58.18L-249.22 -60.26L-248.33 -62.29L-247.4 -64.27L-246.4 -66.2L-245.36 -68.07L-244.26 -69.88L-243.12 -71.63L-241.93 -73.32L-240.69 -74.95L-239.4 -76.51L-238.08 -78.01L-236.71 -79.44L-235.3 -80.79L-233.85 -82.07L-232.36 -83.28L-230.84 -84.41L-229.28 -85.46L-227.69 -86.43L-226.07 -87.32L-224.41 -88.12L-222.73 -88.84L-221.02 -89.46L-219.29 -90L-217.53 -90.44L-215.74 -90.79L-213.94 -91.04L-212.11 -91.19L-210.27 -91.24L-208.42 -91.19L-206.6 -91.04L-204.79 -90.79L-203.01 -90.44L-201.25 -90L-199.51 -89.46L-197.8 -88.84L-196.12 -88.12L-194.47 -87.32L-192.84 -86.43L-191.25 -85.46L-189.7 -84.41L-188.17 -83.28L-186.69 -82.07L-185.24 -80.79L-183.83 -79.44L-182.46 -78.01L-181.13 -76.51L-179.85 -74.95L-178.61 -73.32L-177.42 -71.63L-176.27 -69.88L-175.18 -68.06L-174.13 -66.19L-173.14 -64.27L-172.2 -62.29L-171.32 -60.26L-170.49 -58.18L-169.72 -56.05L-169.01 -53.88L-168.89 -53.47L-167.82 -53.73L-166.67 -53.9L-165.49 -53.96L-164.31 -53.9L-163.15 -53.73L-162.03 -53.45L-160.93 -53.07L-159.87 -52.59L-158.85 -52.01L-157.86 -51.34L-156.93 -50.59L-156.04 -49.75L-155.2 -48.83L-154.42 -47.84L-153.7 -46.78L-153.04 -45.65L-152.44 -44.47L-151.91 -43.22L-151.83 -43L-148.84 -43.43L-145.28 -43.79L-141.69 -44.01L-138.06 -44.08L-134.43 -44.01L-130.84 -43.79L-129.52 -43.66L-129.84 -44.29L-130.37 -45.54L-130.82 -46.83L-131.2 -48.18L-131.51 -49.57L-131.72 -51L-131.86 -52.46L-131.9 -53.96L-131.86 -55.45L-131.72 -56.92L-131.5 -58.35L-131.2 -59.74L-130.82 -61.08L-130.37 -62.38L-129.84 -63.62L-129.24 -64.81L-128.58 -65.94L-127.86 -67L-127.08 -67.99L-126.24 -68.9L-125.35 -69.74L-124.42 -70.5L-123.43 -71.17L-122.41 -71.74L-121.35 -72.23L-120.25 -72.61L-119.13 -72.89L-117.97 -73.06L-116.79 -73.11L-115.61 -73.06L-114.45 -72.89L-113.33 -72.61L-112.23 -72.22L-111.17 -71.74L-110.15 -71.17L-109.17 -70.5L-108.23 -69.74L-107.34 -68.9L-107.05 -68.58L-107.03 -68.97L-106.81 -70.5L-106.45 -71.95L-105.96 -73.31L-105.36 -74.57L-104.65 -75.7L-103.84 -76.7L-102.95 -77.54L-101.98 -78.23L-100.94 -78.73L-99.85 -79.05L-98.71 -79.16L-97.57 -79.05L-96.48 -78.73L-95.44 -78.23L-94.47 -77.54L-93.58 -76.7L-92.78 -75.7L-92.07 -74.57L-91.46 -73.31L-90.98 -71.95L-90.62 -70.5L-90.39 -68.96L-90.32 -67.37L-90.39 -65.77L-90.62 -64.23L-90.98 -62.78L-91.46 -61.42L-92.07 -60.16L-92.78 -59.03L-93.58 -58.03L-94.48 -57.19L-95.44 -56.5L-96.48 -56L-97.57 -55.68L-98.71 -55.58L-99.85 -55.68L-100.94 -56L-101.81 -56.42L-101.72 -55.45L-101.68 -53.96L-101.72 -52.46L-101.86 -51L-102.08 -49.57L-102.38 -48.18L-102.76 -46.83L-103.22 -45.53L-103.74 -44.29L-104.34 -43.1L-105 -41.98L-105.72 -40.92L-106.51 -39.93L-107.34 -39.01L-107.7 -38.67L-106.97 -38.41L-103.78 -37.13L-100.65 -35.73L-97.59 -34.21L-94.59 -32.57L-91.67 -30.83L-88.82 -28.97L-86.04 -27.01L-83.95 -25.41L-83.95 -25.54L-83.81 -27L-83.59 -28.43L-83.29 -29.82L-82.91 -31.17L-82.45 -32.46L-81.93 -33.71L-81.33 -34.89L-80.67 -36.02L-79.95 -37.08L-79.16 -38.07L-78.33 -38.99L-77.44 -39.83L-76.5 -40.58L-75.52 -41.25L-74.5 -41.83L-73.44 -42.31L-72.34 -42.69L-72.32 -42.7L-72.38 -42.95L-72.66 -44.45L-72.88 -45.96L-73.05 -47.49L-73.14 -49.04L-73.18 -50.61L-73.14 -52.17L-73.05 -53.72L-72.88 -55.25L-72.66 -56.77L-72.38 -58.26L-72.03 -59.73L-71.63 -61.19L-71.17 -62.61L-70.66 -64.02L-70.09 -65.39L-69.47 -66.74L-68.79 -68.06L-68.07 -69.36L-67.29 -70.62L-66.47 -71.85L-65.6 -73.04L-64.68 -74.21L-63.72 -75.33L-62.72 -76.42L-61.67 -77.47L-60.59 -78.48L-59.46 -79.46L-58.3 -80.38L-57.1 -81.27L-55.86 -82.11L-54.59 -82.91L-53.29 -83.66L-51.96 -84.36L-50.59 -85.02L-49.2 -85.62L-47.77 -86.17L-46.33 -86.67L-45.92 -86.79L-45.93 -87.11L-45.88 -88.61L-45.75 -90.07L-45.53 -91.5L-45.23 -92.89L-44.85 -94.24L-44.39 -95.53L-43.86 -96.78L-43.27 -97.96L-42.6 -99.09L-41.88 -100.15L-41.1 -101.14L-40.26 -102.06L-39.38 -102.9L-38.44 -103.65L-37.46 -104.32L-36.43 -104.9L-35.37 -105.38L-34.28 -105.76L-33.15 -106.04L-31.99 -106.21L-30.81 -106.27L-29.63 -106.21L-28.48 -106.04L-27.35 -105.76L-26.25 -105.38L-25.19 -104.9L-24.17 -104.32L-23.19 -103.65L-22.25 -102.9L-21.36 -102.06L-20.53 -101.14L-19.75 -100.15L-19.02 -99.09L-18.36 -97.96L-17.77 -96.78L-17.24 -95.53L-16.78 -94.24L-16.4 -92.89L-16.1 -91.5L-15.88 -90.07L-15.75 -88.61L-15.7 -87.11L-15.75 -85.61L-15.86 -84.35L-14.56 -83.66L-13.26 -82.91L-11.99 -82.11L-10.75 -81.27L-9.55 -80.38L-8.39 -79.46L-7.26 -78.48L-7.19 -78.41L-7.08 -78.55L-6.2 -79.44L-5.24 -80.25L-4.22 -80.97L-3.13 -81.6L-1.98 -82.13L-0.78 -82.55L0.46 -82.85L1.75 -83.04L3.07 -83.11L4.4 -83.04L5.69 -82.85L6.93 -82.55L8.13 -82.13L9.28 -81.6L10.37 -80.97L11.39 -80.25L12.35 -79.44L13.22 -78.55L14.02 -77.58L14.73 -76.53L15.35 -75.42L15.86 -74.26L16.27 -73.04L16.58 -71.77L16.76 -70.45L16.82 -69.11L16.76 -67.76L16.58 -66.45L16.27 -65.18L15.86 -63.96L15.82 -63.85L16.61 -64.36L18.32 -65.3L20.06 -66.09L21.82 -66.76L23.6 -67.27L25.41 -67.65L27.23 -67.88L28.21 -67.92L28.57 -68.98L29.01 -70.13L29.51 -71.25L30.05 -72.36L30.63 -73.44L31.26 -74.5L31.33 -74.59L30.29 -75.06L29.19 -75.63L28.13 -76.26L27.12 -76.96L26.14 -77.72L25.21 -78.54L24.33 -79.41L23.5 -80.33L22.72 -81.31L22 -82.33L21.33 -83.39L20.73 -84.5L20.18 -85.65L19.71 -86.84L19.29 -88.06L18.95 -89.32L18.68 -90.6L18.48 -91.91L18.36 -93.25L18.32 -94.61L18.36 -95.97L18.48 -97.3L18.68 -98.61L18.95 -99.9L19.29 -101.15L19.71 -102.37L20.18 -103.56L20.73 -104.71L21.33 -105.82L22 -106.89L22.72 -107.91L23.5 -108.88L24.33 -109.81L25.21 -110.68L26.14 -111.49L27.12 -112.25L28.13 -112.95L29.19 -113.59L30.29 -114.16L31.42 -114.66L32.58 -115.09L33.78 -115.45L35 -115.73L36.25 -115.94L37.53 -116.06L38.82 -116.11L40.12 -116.06L41.39 -115.94L42.65 -115.73L43.87 -115.45L45.07 -115.09L46.23 -114.66L47.36 -114.16L48.46 -113.59L49.52 -112.95L50.53 -112.25L51.51 -111.49L52.44 -110.68L53.32 -109.81L54.15 -108.88L54.93 -107.91L55.65 -106.89L56.32 -105.82L56.92 -104.71L57.46 -103.56L57.94 -102.37L58.36 -101.15L58.7 -99.9L58.97 -98.61L59.16 -97.3L59.28 -95.97L59.32 -94.61L59.28 -93.25L59.16 -91.91L58.97 -90.6L58.76 -89.6L59.32 -89.61L60.18 -89.59L60.32 -89.99L61 -91.62L61.74 -93.21L62.55 -94.78L63.41 -96.31L64.33 -97.8L65.31 -99.26L66.35 -100.68L67.44 -102.05L68.58 -103.39L69.78 -104.68L71.02 -105.92L72.32 -107.12L73.66 -108.27L75.04 -109.37L76.47 -110.42L77.74 -111.28L76.9 -111.63L75.81 -112.19L74.77 -112.83L73.77 -113.54L72.82 -114.32L71.93 -115.17L71.09 -116.08L70.31 -117.05L69.6 -118.08L68.96 -119.16L68.38 -120.29L67.88 -121.47L67.46 -122.69L67.12 -123.95L66.87 -125.25L66.7 -126.57L66.62 -127.93L66.64 -129.29L66.75 -130.62L66.95 -131.93L67.24 -133.2L67.6 -134.44L68.05 -135.64L68.58 -136.79L69.17 -137.9L69.84 -138.96L70.58 -139.96L71.37 -140.91L72.23 -141.8L73.14 -142.62L74.11 -143.37L75.13 -144.05L76.19 -144.66L77.3 -145.18L78.45 -145.63L79.64 -145.99L80.86 -146.25L82.11 -146.43L83.39 -146.51L84.67 -146.48L85.93 -146.36L87.16 -146.15L88.36 -145.84L89.53 -145.45L90.66 -144.97L91.75 -144.41L92.79 -143.77L93.79 -143.06L94.74 -142.28L95.63 -141.43L96.47 -140.52L97.25 -139.55L97.96 -138.52L98.6 -137.44L99.18 -136.31L99.68 -135.13L100.1 -133.91L100.44 -132.65L100.69 -131.35L100.86 -130.03L100.94 -128.67L100.92 -127.31L100.81 -125.98L100.61 -124.67L100.32 -123.4L99.96 -122.16L99.51 -120.96L98.98 -119.81L98.43 -118.78L100.24 -118.96L102.15 -119.07L104.07 -119.11L106 -119.07L107.91 -118.96L109.79 -118.77L111.65 -118.52L113.49 -118.19L115.3 -117.8L117.09 -117.34L118.84 -116.81L120.57 -116.22L120.57 -116.27L120.87 -117.54L121.29 -118.76L121.8 -119.92L122.42 -121.03L123.13 -122.08L123.92 -123.05L124.8 -123.94L125.76 -124.75L126.78 -125.47L127.87 -126.1L129.02 -126.63L130.22 -127.05L131.46 -127.35L132.75 -127.54L134.07 -127.61L135.4 -127.54L136.69 -127.35L137.93 -127.05L139.13 -126.63L140.28 -126.1L141.37 -125.47L142.39 -124.75L143.35 -123.94L144.22 -123.05L145.02 -122.08L145.73 -121.03L146.35 -119.92L146.86 -118.76L147.27 -117.54L147.58 -116.27L147.76 -114.95L147.82 -113.61L147.76 -112.26L147.58 -110.95L147.27 -109.68L146.86 -108.46L146.35 -107.29L145.73 -106.18L145.02 -105.14L144.22 -104.17L143.35 -103.27L142.39 -102.46L141.37 -101.74L141.09 -101.58L141.8 -100.68L142.84 -99.26L143.82 -97.8L144.74 -96.31L145.6 -94.78L146.41 -93.21L147.15 -91.62L147.83 -89.99L148.44 -88.32L148.98 -86.66L149.22 -87.11L150.32 -88.92L151.46 -90.67L152.66 -92.37L153.9 -93.99L155.18 -95.56L156.51 -97.05L157.88 -98.48L159.29 -99.84L160.73 -101.12L162.22 -102.33L163.74 -103.46L165.3 -104.51L166.89 -105.48L168.51 -106.36L170.17 -107.17L171.85 -107.88L173.56 -108.51L175.29 -109.04L177.06 -109.48L178.84 -109.83L180.64 -110.08L182.47 -110.23L184.31 -110.29L186.16 -110.23L187.98 -110.08L189.79 -109.83L191.57 -109.48L193.33 -109.04L195.07 -108.51L196.78 -107.88L198.46 -107.16L200.11 -106.36L201.74 -105.48L203.33 -104.51L204.89 -103.45L206.41 -102.32L207.89 -101.12L209.34 -99.83L210.75 -98.48L212.12 -97.05L213.45 -95.56L214.73 -93.99L215.97 -92.36L217.16 -90.67L218.31 -88.92L218.33 -88.89L218.76 -89.25L219.78 -89.97L220.87 -90.6L222.02 -91.13L223.22 -91.55L224.46 -91.85L225.75 -92.04L227.07 -92.11L228.4 -92.04L229.69 -91.85L230.93 -91.55L231.17 -91.46L231.16 -92.1L231.2 -94.61L231.31 -97.11L231.49 -99.57L231.75 -102.01L232.07 -104.41L232.46 -106.78L232.92 -109.12L233.44 -111.42L234.03 -113.67L234.68 -115.89L235.39 -118.06L236.08 -119.98L235.77 -120.09L234.62 -120.61L233.53 -121.24L232.51 -121.96L231.55 -122.77L230.67 -123.67L229.88 -124.64L229.17 -125.68L228.55 -126.79L228.04 -127.96L227.62 -129.18L227.32 -130.45L227.14 -131.76L227.07 -133.11L227.14 -134.45L227.32 -135.77L227.62 -137.04L228.04 -138.26L228.55 -139.42L229.17 -140.53L229.88 -141.58L230.67 -142.55L231.55 -143.44L232.51 -144.25L233.53 -144.97L234.62 -145.6L235.77 -146.13L236.97 -146.55L238.21 -146.85L239.5 -147.04L240.82 -147.11L242.15 -147.04L243.44 -146.85L244.68 -146.55L245.88 -146.13L247.03 -145.6L248.12 -144.97L249.14 -144.25L250.1 -143.44L250.82 -142.71L250.91 -142.8L252.36 -144.08L253.85 -145.29L255.37 -146.42L256.93 -147.47L258.52 -148.44L260.14 -149.33L261.79 -150.13L263.47 -150.85L265.18 -151.47L266.92 -152.01L268.68 -152.45L270.46 -152.8L272.27 -153.05L274.1 -153.2L275.94 -153.25L277.78 -153.2L279.61 -153.05ZM5.03 -55.26L5.03 -55.25L5.18 -53.84L5.5 -54.26L6.59 -55.58L5.69 -55.36L5.03 -55.26ZM1257.15 -112.56L1258.18 -112.06L1259.15 -111.37L1260.05 -110.52L1260.85 -109.53L1261.56 -108.4L1262.17 -107.14L1262.65 -105.78L1263.01 -104.33L1263.24 -102.79L1263.31 -101.19L1263.24 -99.59L1263.01 -98.06L1262.65 -96.61L1262.17 -95.25L1261.56 -93.99L1260.85 -92.86L1260.05 -91.86L1259.15 -91.02L1258.18 -90.33L1257.15 -89.83L1256.06 -89.51L1254.92 -89.4L1253.78 -89.51L1252.69 -89.83L1251.65 -90.33L1250.68 -91.02L1249.79 -91.86L1248.98 -92.86L1248.27 -93.99L1247.67 -95.25L1247.18 -96.61L1246.82 -98.06L1246.6 -99.6L1246.52 -101.19L1246.6 -102.79L1246.82 -104.33L1247.18 -105.78L1247.67 -107.14L1248.27 -108.4L1248.98 -109.53L1249.79 -110.52L1250.68 -111.37L1251.65 -112.06L1252.69 -112.56L1253.78 -112.87L1254.92 -112.98L1256.06 -112.87L1257.15 -112.56ZM490.55 -112.57L491.59 -112.07L492.55 -111.39L493.45 -110.54L494.25 -109.54L494.96 -108.41L495.57 -107.15L496.05 -105.79L496.41 -104.34L496.64 -102.81L496.71 -101.21L496.64 -99.61L496.41 -98.07L496.05 -96.62L495.57 -95.26L494.96 -94L494.25 -92.87L493.45 -91.88L492.55 -91.03L491.58 -90.34L490.55 -89.84L489.46 -89.53L488.32 -89.42L487.18 -89.53L486.09 -89.84L485.05 -90.34L484.08 -91.03L483.19 -91.88L482.38 -92.87L481.67 -94L481.07 -95.26L480.58 -96.62L480.22 -98.07L480 -99.61L479.92 -101.21L480 -102.81L480.22 -104.34L480.58 -105.79L481.07 -107.16L481.67 -108.41L482.38 -109.54L483.19 -110.54L484.08 -111.39L485.05 -112.07L486.09 -112.57L487.18 -112.89L488.32 -113L489.46 -112.89L490.55 -112.57ZM781.44 -121.85L782.68 -121.55L783.88 -121.13L785.03 -120.6L786.12 -119.97L787.14 -119.25L788.1 -118.44L788.97 -117.55L789.77 -116.58L790.48 -115.53L791.1 -114.42L791.61 -113.26L792.02 -112.04L792.33 -110.77L792.51 -109.45L792.57 -108.11L792.51 -106.76L792.33 -105.45L792.02 -104.18L791.61 -102.96L791.1 -101.79L790.48 -100.68L789.77 -99.64L788.97 -98.67L788.1 -97.77L787.14 -96.96L786.12 -96.24L785.03 -95.61L783.88 -95.09L782.68 -94.67L781.44 -94.36L780.15 -94.17L778.82 -94.11L777.5 -94.17L776.21 -94.36L774.97 -94.67L773.77 -95.09L772.62 -95.61L771.53 -96.24L770.51 -96.96L769.55 -97.77L768.67 -98.67L767.88 -99.64L767.17 -100.68L766.55 -101.79L766.04 -102.96L765.62 -104.18L765.32 -105.45L765.14 -106.76L765.07 -108.11L765.14 -109.45L765.32 -110.77L765.62 -112.04L766.04 -113.26L766.55 -114.42L767.17 -115.53L767.88 -116.58L768.67 -117.55L769.55 -118.44L770.51 -119.25L771.53 -119.97L772.62 -120.6L773.77 -121.13L774.97 -121.55L776.21 -121.85L777.5 -122.04L778.82 -122.11L780.15 -122.04L781.44 -121.85ZM1068.44 -145.85L1069.68 -145.55L1070.88 -145.13L1072.03 -144.6L1073.12 -143.97L1074.14 -143.25L1075.1 -142.44L1075.97 -141.55L1076.77 -140.58L1077.48 -139.53L1078.1 -138.42L1078.61 -137.26L1079.02 -136.04L1079.33 -134.77L1079.51 -133.45L1079.57 -132.11L1079.51 -130.76L1079.33 -129.45L1079.02 -128.18L1078.61 -126.96L1078.1 -125.79L1077.48 -124.68L1076.77 -123.64L1075.97 -122.67L1075.1 -121.77L1074.14 -120.96L1073.12 -120.24L1072.03 -119.61L1070.88 -119.09L1069.68 -118.67L1068.44 -118.36L1067.15 -118.17L1065.82 -118.11L1064.5 -118.17L1063.21 -118.36L1061.97 -118.67L1060.77 -119.09L1059.62 -119.61L1058.53 -120.24L1057.51 -120.96L1056.55 -121.77L1055.67 -122.67L1054.88 -123.64L1054.17 -124.68L1053.55 -125.79L1053.04 -126.96L1052.62 -128.18L1052.32 -129.45L1052.14 -130.76L1052.07 -132.11L1052.14 -133.45L1052.32 -134.77L1052.62 -136.04L1053.04 -137.26L1053.55 -138.42L1054.17 -139.53L1054.88 -140.58L1055.67 -141.55L1056.55 -142.44L1057.51 -143.25L1058.53 -143.97L1059.62 -144.6L1060.77 -145.13L1061.97 -145.55L1063.21 -145.85L1064.5 -146.04L1065.82 -146.11L1067.15 -146.04L1068.44 -145.85ZM471.34 -146.4L472.38 -145.9L473.35 -145.21L474.24 -144.37L475.05 -143.37L475.76 -142.24L476.36 -140.98L476.85 -139.62L477.21 -138.17L477.43 -136.63L477.51 -135.03L477.43 -133.44L477.21 -131.9L476.85 -130.45L476.36 -129.09L475.76 -127.83L475.05 -126.7L474.24 -125.7L473.35 -124.86L472.38 -124.17L471.34 -123.67L470.25 -123.35L469.11 -123.25L467.97 -123.35L466.88 -123.67L465.84 -124.17L464.88 -124.86L463.98 -125.7L463.18 -126.7L462.47 -127.83L461.86 -129.09L461.38 -130.45L461.02 -131.9L460.79 -133.44L460.72 -135.03L460.79 -136.63L461.02 -138.17L461.38 -139.62L461.86 -140.98L462.47 -142.24L463.18 -143.37L463.98 -144.37L464.88 -145.21L465.85 -145.9L466.88 -146.4L467.97 -146.72L469.11 -146.82L470.25 -146.72L471.34 -146.4ZM538.34 -152.82L539.37 -152.32L540.34 -151.63L541.24 -150.78L542.04 -149.79L542.75 -148.66L543.36 -147.4L543.84 -146.04L544.2 -144.59L544.43 -143.05L544.5 -141.45L544.43 -139.85L544.2 -138.32L543.84 -136.87L543.36 -135.51L542.75 -134.25L542.04 -133.12L541.24 -132.12L540.34 -131.28L539.37 -130.59L538.34 -130.09L537.25 -129.77L536.11 -129.66L534.97 -129.77L533.88 -130.09L532.84 -130.59L531.87 -131.28L530.98 -132.12L530.17 -133.12L529.46 -134.25L528.86 -135.51L528.37 -136.87L528.01 -138.32L527.79 -139.86L527.71 -141.45L527.79 -143.05L528.01 -144.59L528.37 -146.04L528.86 -147.4L529.46 -148.66L530.17 -149.79L530.98 -150.79L531.87 -151.63L532.84 -152.32L533.88 -152.82L534.97 -153.14L536.11 -153.24L537.25 -153.13L538.34 -152.82ZM820.26 -150.65L821.48 -150.1L822.59 -149.37L823.58 -148.47L824.43 -147.42L825.13 -146.24L825.64 -144.95L825.96 -143.57L826.07 -142.11L825.96 -140.65L825.64 -139.26L825.13 -137.97L824.43 -136.79L823.58 -135.74L822.59 -134.84L821.48 -134.11L820.26 -133.57L818.95 -133.22L817.57 -133.11L816.2 -133.22L814.89 -133.57L813.67 -134.11L812.56 -134.84L811.57 -135.74L810.72 -136.79L810.02 -137.97L809.51 -139.26L809.19 -140.65L809.07 -142.11L809.19 -143.57L809.51 -144.95L810.02 -146.24L810.72 -147.42L811.57 -148.47L812.56 -149.37L813.67 -150.1L814.89 -150.65L816.2 -150.99L817.57 -151.11L818.95 -150.99L820.26 -150.65ZM932.44 -173.85L933.68 -173.55L934.88 -173.13L936.03 -172.6L937.12 -171.97L938.14 -171.25L939.1 -170.44L939.97 -169.55L940.77 -168.58L941.48 -167.53L942.1 -166.42L942.61 -165.26L943.02 -164.04L943.33 -162.77L943.51 -161.45L943.57 -160.11L943.51 -158.76L943.33 -157.45L943.02 -156.18L942.61 -154.96L942.1 -153.79L941.48 -152.68L940.77 -151.64L939.97 -150.67L939.1 -149.77L938.14 -148.96L937.12 -148.24L936.03 -147.61L934.88 -147.09L933.68 -146.67L932.44 -146.36L931.15 -146.17L929.82 -146.11L928.5 -146.17L927.21 -146.36L925.97 -146.67L924.77 -147.09L923.62 -147.61L922.53 -148.24L921.51 -148.96L920.55 -149.77L919.67 -150.67L918.88 -151.64L918.17 -152.68L917.55 -153.79L917.04 -154.96L916.62 -156.18L916.32 -157.45L916.14 -158.76L916.07 -160.11L916.14 -161.45L916.32 -162.77L916.62 -164.04L917.04 -165.26L917.55 -166.42L918.17 -167.53L918.88 -168.58L919.67 -169.55L920.55 -170.44L921.51 -171.25L922.53 -171.97L923.62 -172.6L924.77 -173.13L925.97 -173.55L927.21 -173.85L928.5 -174.04L929.82 -174.11L931.15 -174.04L932.44 -173.85Z" id="bavyjw7nPk" fill="white" fill-opacity="1" filter="url(#shadow9191347)"></path></g><use xlink:href="#aUrLH5OR" opacity="1" fill="#db7923" fill-opacity="1"></use></g><g><g><filter id="shadow2981210" x="19.2" y="307.82" width="53.11" height="53.11" filterUnits="userSpaceOnUse" primitiveUnits="userSpaceOnUse"><feFlood></feFlood><feComposite in2="SourceAlpha" operator="in"></feComposite><feGaussianBlur stdDeviation="1.41"></feGaussianBlur><feOffset dx="0" dy="0" result="afterOffset"></feOffset><feFlood flood-color="#000000" flood-opacity="0.5"></feFlood><feComposite in2="afterOffset" operator="in"></feComposite><feMorphology operator="dilate" radius="0"></feMorphology><feComposite in2="SourceAlpha" operator="out"></feComposite></filter><path d="M63.3 334.37C63.3 344.06 55.44 351.93 45.75 351.93C36.06 351.93 28.2 344.06 28.2 334.37C28.2 324.69 36.06 316.82 45.75 316.82C55.44 316.82 63.3 324.69 63.3 334.37Z" id="b2DmXIvPIQ" fill="white" fill-opacity="1" filter="url(#shadow2981210)"></path></g><use xlink:href="#dE5x8A2L0" opacity="1" fill="#ff4136" fill-opacity="1"></use></g><g><g><filter id="shadow10827014" x="205.2" y="400.07" width="53.11" height="53.11" filterUnits="userSpaceOnUse" primitiveUnits="userSpaceOnUse"><feFlood></feFlood><feComposite in2="SourceAlpha" operator="in"></feComposite><feGaussianBlur stdDeviation="1.41"></feGaussianBlur><feOffset dx="0" dy="0" result="afterOffset"></feOffset><feFlood flood-color="#000000" flood-opacity="0.5"></feFlood><feComposite in2="afterOffset" operator="in"></feComposite><feMorphology operator="dilate" radius="0"></feMorphology><feComposite in2="SourceAlpha" operator="out"></feComposite></filter><path d="M249.3 426.62C249.3 436.31 241.44 444.18 231.75 444.18C222.06 444.18 214.2 436.31 214.2 426.62C214.2 416.94 222.06 409.07 231.75 409.07C241.44 409.07 249.3 416.94 249.3 426.62Z" id="a1dOHYteak" fill="white" fill-opacity="1" filter="url(#shadow10827014)"></path></g><use xlink:href="#b1Hw1HlhnT" opacity="1" fill="#ff4136" fill-opacity="1"></use></g><g><g><filter id="shadow15794404" x="430.7" y="382.52" width="53.11" height="53.11" filterUnits="userSpaceOnUse" primitiveUnits="userSpaceOnUse"><feFlood></feFlood><feComposite in2="SourceAlpha" operator="in"></feComposite><feGaussianBlur stdDeviation="1.41"></feGaussianBlur><feOffset dx="0" dy="0" result="afterOffset"></feOffset><feFlood flood-color="#000000" flood-opacity="0.5"></feFlood><feComposite in2="afterOffset" operator="in"></feComposite><feMorphology operator="dilate" radius="0"></feMorphology><feComposite in2="SourceAlpha" operator="out"></feComposite></filter><path d="M474.8 409.07C474.8 418.76 466.94 426.62 457.25 426.62C447.56 426.62 439.7 418.76 439.7 409.07C439.7 399.38 447.56 391.52 457.25 391.52C466.94 391.52 474.8 399.38 474.8 409.07Z" id="a185KX7vGS" fill="white" fill-opacity="1" filter="url(#shadow15794404)"></path></g><use xlink:href="#apfyaEOOW" opacity="1" fill="#ff4136" fill-opacity="1"></use></g><g><g><filter id="shadow3268376" x="883.2" y="341.07" width="69.61" height="71.11" filterUnits="userSpaceOnUse" primitiveUnits="userSpaceOnUse"><feFlood></feFlood><feComposite in2="SourceAlpha" operator="in"></feComposite><feGaussianBlur stdDeviation="1.41"></feGaussianBlur><feOffset dx="0" dy="0" result="afterOffset"></feOffset><feFlood flood-color="#000000" flood-opacity="0.5"></feFlood><feComposite in2="afterOffset" operator="in"></feComposite><feMorphology operator="dilate" radius="0"></feMorphology><feComposite in2="SourceAlpha" operator="out"></feComposite></filter><path d="M943.8 376.62C943.8 391.28 932.24 403.18 918 403.18C903.76 403.18 892.2 391.28 892.2 376.62C892.2 361.97 903.76 350.07 918 350.07C932.24 350.07 943.8 361.97 943.8 376.62Z" id="l2EL3mUN2" fill="white" fill-opacity="1" filter="url(#shadow3268376)"></path></g><use xlink:href="#aQRmQ6Fo1" opacity="1" fill="#ff4136" fill-opacity="1"></use></g><g><g><filter id="shadow14221759" x="1205.2" y="298.82" width="55.61" height="55.11" filterUnits="userSpaceOnUse" primitiveUnits="userSpaceOnUse"><feFlood></feFlood><feComposite in2="SourceAlpha" operator="in"></feComposite><feGaussianBlur stdDeviation="1.41"></feGaussianBlur><feOffset dx="0" dy="0" result="afterOffset"></feOffset><feFlood flood-color="#000000" flood-opacity="0.5"></feFlood><feComposite in2="afterOffset" operator="in"></feComposite><feMorphology operator="dilate" radius="0"></feMorphology><feComposite in2="SourceAlpha" operator="out"></feComposite></filter><path d="M1251.8 326.37C1251.8 336.61 1243.38 344.93 1233 344.93C1222.62 344.93 1214.2 336.61 1214.2 326.37C1214.2 316.14 1222.62 307.82 1233 307.82C1243.38 307.82 1251.8 316.14 1251.8 326.37Z" id="cdnikKx3d" fill="white" fill-opacity="1" filter="url(#shadow14221759)"></path></g><use xlink:href="#a1ZYW12ll1" opacity="1" fill="#ff4136" fill-opacity="1"></use></g></g></g></svg>