<?xml version="1.0" encoding="UTF-8" standalone="no"?>
<!DOCTYPE svg PUBLIC "-//W3C//DTD SVG 1.1//EN" "http://www.w3.org/Graphics/SVG/1.1/DTD/svg11.dtd">
<svg version="1.1" xmlns="http://www.w3.org/2000/svg" xmlns:xlink="http://www.w3.org/1999/xlink" preserveAspectRatio="xMidYMid meet" viewBox="0 0 1280 200" width="1280" height="200"><defs><path d="M347.29 29.98L349.09 30.23L350.87 30.58L352.64 31.02L354.37 31.56L356.08 32.18L357.76 32.9L359.42 33.7L361.04 34.59L362.63 35.56L364.19 36.61L365.71 37.74L367.2 38.94L368.64 40.23L370.05 41.58L371.42 43.01L372.75 44.51L374.03 46.07L374.27 46.38L374.6 45.98L375.48 45.08L376.43 44.27L377.46 43.55L378.54 42.92L379.69 42.4L380.89 41.98L382.14 41.67L383.43 41.48L384.75 41.42L386.07 41.48L387.36 41.67L388.61 41.98L389.81 42.4L390.96 42.92L392.04 43.55L393.07 44.27L394.02 45.08L394.9 45.98L395.7 46.95L396.41 47.99L397.02 49.1L397.54 50.27L397.95 51.49L398.25 52.76L398.44 54.07L398.5 55.42L398.44 56.77L398.25 58.08L397.95 59.35L397.54 60.57L397.02 61.74L396.41 62.85L395.7 63.89L394.9 64.86L394.02 65.75L393.07 66.56L392.04 67.29L390.96 67.91L389.81 68.44L388.61 68.86L387.36 69.17L386.07 69.35L385.53 69.38L386.11 71.61L386.63 73.91L387.09 76.24L387.48 78.61L387.81 81.02L388.06 83.45L388.19 85.14L388.95 84.95L390.11 84.78L391.29 84.73L392.47 84.78L393.63 84.95L394.75 85.23L395.85 85.61L396.91 86.1L397.93 86.67L398.92 87.34L399.85 88.1L400.74 88.94L401.58 89.85L402.36 90.84L403.08 91.9L403.74 93.03L404.34 94.22L404.87 95.46L405.32 96.76L405.7 98.1L405.9 99.02L406.25 99.04L409.8 99.4L413.31 99.9L416.77 100.54L420.19 101.32L423.55 102.22L426.86 103.25L430.12 104.41L432.46 105.35L432.01 104.1L431.63 102.76L431.33 101.37L431.11 99.94L430.98 98.47L430.93 96.98L430.96 96.01L430.26 95.97L429.11 95.8L427.98 95.52L426.88 95.14L425.82 94.66L424.8 94.08L423.82 93.41L422.88 92.66L421.99 91.82L421.16 90.9L420.37 89.91L419.65 88.85L418.99 87.72L418.39 86.54L417.87 85.29L417.41 84L417.03 82.65L416.73 81.26L416.51 79.83L416.38 78.37L416.33 76.87L416.38 75.38L416.51 73.91L416.73 72.48L417.03 71.09L417.41 69.75L417.87 68.45L418.39 67.21L418.99 66.02L419.65 64.89L420.38 63.83L421.16 62.84L421.99 61.93L422.88 61.09L423.82 60.33L424.8 59.66L425.82 59.09L426.88 58.6L427.98 58.22L429.11 57.94L430.26 57.77L431.44 57.71L432.62 57.77L433.78 57.94L434.91 58.22L436 58.6L437.06 59.09L438.09 59.66L439.07 60.33L440.01 61.09L440.89 61.93L441.73 62.84L442.51 63.83L443.23 64.89L443.9 66.02L444.49 67.21L445.02 68.45L445.47 69.75L445.86 71.09L446.16 72.48L446.38 73.91L446.51 75.38L446.56 76.87L446.53 77.84L447.23 77.88L448.38 78.05L449.51 78.33L450.61 78.71L451.13 78.95L451.23 78.52L451.82 76.26L452.46 74.05L453.18 71.87L453.94 69.75L454.77 67.67L455.66 65.64L456.6 63.66L457.59 61.73L458.63 59.86L459.73 58.05L460.87 56.3L462.07 54.61L463.3 52.98L464.59 51.42L465.92 49.92L467.28 48.49L468.69 47.14L470.14 45.86L471.63 44.65L473.15 43.52L474.71 42.47L476.3 41.5L477.92 40.61L479.58 39.81L481.26 39.09L482.97 38.47L484.7 37.93L486.46 37.49L488.25 37.14L490.05 36.89L491.88 36.74L493.72 36.69L495.57 36.74L497.39 36.89L499.2 37.14L500.98 37.49L502.74 37.93L504.48 38.47L506.19 39.09L507.87 39.81L509.52 40.61L511.15 41.5L512.74 42.47L514.3 43.52L515.82 44.65L517.3 45.86L518.75 47.14L520.16 48.49L521.53 49.92L522.86 51.42L524.14 52.98L525.38 54.61L526.57 56.3L527.72 58.05L528.81 59.87L529.86 61.74L530.85 63.66L531.79 65.64L532.67 67.67L533.5 69.75L534.27 71.88L534.98 74.05L535.63 76.27L536.22 78.52L536.74 80.82L537.2 83.16L537.59 85.53L537.92 87.93L538.17 90.37L538.35 92.83L538.46 95.33L538.5 97.84L538.46 100.36L538.35 102.86L538.34 102.99L538.57 103.36L539.61 105.23L540.6 107.15L541.54 109.13L542.43 111.16L543.25 113.24L544.02 115.37L544.26 116.1L545 115.51L545.98 114.84L547 114.26L548.06 113.78L549.16 113.4L550.28 113.12L551.44 112.95L552.62 112.89L553.8 112.95L554.96 113.12L556.08 113.4L557.18 113.78L558.24 114.27L559.26 114.84L560.25 115.51L561.18 116.27L562.07 117.11L562.91 118.02L563.69 119.01L564.41 120.07L565.07 121.2L565.67 122.39L565.85 122.8L566.48 121.91L567.71 120.28L569 118.72L570.32 117.22L571.69 115.8L573.1 114.44L574.55 113.16L576.04 111.95L577.56 110.82L579.12 109.77L580 109.24L579.97 109.17L579.51 107.87L579.13 106.53L578.83 105.14L578.61 103.71L578.48 102.24L578.43 100.75L578.48 99.25L578.61 97.79L578.83 96.36L579.13 94.97L579.51 93.62L579.97 92.33L580.5 91.08L581.09 89.9L581.75 88.77L582.48 87.71L583.26 86.72L584.09 85.8L584.98 84.96L585.92 84.21L586.9 83.54L587.92 82.96L588.98 82.48L590.08 82.1L591.21 81.82L592.36 81.65L593.54 81.59L594.72 81.65L595.88 81.82L597.01 82.1L598.1 82.48L599.16 82.96L600.19 83.54L601.17 84.21L602.11 84.96L602.99 85.8L603.83 86.72L604.61 87.71L605.33 88.77L606 89.9L606.59 91.08L607.12 92.33L607.58 93.62L607.96 94.97L608.26 96.36L608.48 97.79L608.61 99.25L608.66 100.75L608.61 102.25L608.48 103.71L608.26 105.14L608.17 105.55L608.89 105.77L610.6 106.4L612.28 107.11L613.93 107.91L615.56 108.8L617.15 109.77L618.7 110.82L620.23 111.95L621.71 113.16L623.16 114.44L623.32 114.6L623.31 114.39L623.26 112.9L623.31 111.4L623.44 109.93L623.66 108.51L623.96 107.12L624.34 105.77L624.8 104.47L625.32 103.23L625.92 102.04L626.58 100.92L627.31 99.86L628.09 98.87L628.92 97.95L629.81 97.11L630.75 96.36L631.73 95.69L632.75 95.11L633.81 94.63L634.91 94.25L636.04 93.97L637.19 93.8L638.36 93.74L638.4 93.49L638.76 92.04L639.25 90.68L639.85 89.42L640.56 88.29L641.37 87.29L642.26 86.45L643.23 85.76L644.26 85.26L645.36 84.94L646.5 84.84L647.63 84.94L648.73 85.26L649.76 85.76L650.73 86.45L651.62 87.29L652.43 88.29L653.14 89.42L653.74 90.68L654.23 92.04L654.59 93.49L654.81 95.03L654.89 96.62L654.81 98.22L654.59 99.76L654.23 101.21L653.74 102.57L653.14 103.83L652.43 104.96L652.21 105.23L652.4 105.77L652.79 107.12L653.09 108.51L653.31 109.94L653.44 111.4L653.49 112.9L653.44 114.39L653.31 115.86L653.09 117.29L652.78 118.68L652.4 120.02L652.02 121.11L652.25 121.07L655.76 120.56L659.31 120.2L662.9 119.98L664.18 119.96L664.18 119.91L664.23 118.41L664.36 116.95L664.58 115.52L664.88 114.13L665.26 112.78L665.72 111.49L666.25 110.24L666.84 109.05L667.5 107.93L668.23 106.87L669.01 105.88L669.85 104.96L670.73 104.12L671.67 103.37L672.65 102.7L673.67 102.12L674.74 101.64L675.83 101.26L676.96 100.98L678.12 100.81L679.3 100.75L680.48 100.81L681.63 100.98L682.76 101.26L683.86 101.64L684.92 102.12L685.94 102.7L686.92 103.37L687.65 103.96L687.89 103.22L688.66 101.1L689.49 99.02L690.37 96.99L690.83 96.03L690.57 95.51L690.06 94.37L689.58 93.21L689.16 92.03L688.78 90.83L688.45 89.61L688.16 88.36L687.93 87.11L687.74 85.83L687.61 84.54L687.53 83.24L687.5 81.92L687.53 80.6L687.61 79.3L687.74 78.01L687.93 76.73L688.16 75.47L688.45 74.23L688.78 73.01L689.16 71.81L689.58 70.63L690.06 69.47L690.57 68.33L691.13 67.22L691.73 66.13L692.37 65.07L693.05 64.03L693.77 63.03L694.53 62.05L695.33 61.1L696.16 60.18L697.02 59.3L697.92 58.44L698.85 57.63L699.82 56.84L700.81 56.1L701.83 55.39L702.89 54.72L703.96 54.08L705.07 53.49L706.2 52.94L707.35 52.44L708.53 51.97L709.73 51.55L710.95 51.18L712.19 50.85L713.45 50.57L714.73 50.34L716.03 50.16L717.34 50.03L718.66 49.95L720 49.92L721.34 49.95L722.66 50.03L723.97 50.16L725.27 50.34L726.55 50.57L727.81 50.85L729.05 51.18L730.27 51.55L731.47 51.97L732.65 52.44L733.8 52.94L734.93 53.49L736.04 54.08L737.11 54.72L738.17 55.39L739.19 56.1L740.18 56.84L741.15 57.63L742.08 58.44L742.98 59.3L743.84 60.18L744.67 61.1L745.47 62.05L746.23 63.03L746.95 64.03L747.63 65.07L748.27 66.13L748.87 67.22L749.43 68.33L749.94 69.47L750.42 70.63L750.84 71.81L751.22 73.01L751.55 74.23L751.84 75.47L752.07 76.73L752.13 77.12L752.23 77.09L753.81 76.59L755.41 76.15L757.04 75.78L758.69 75.48L760.36 75.23L762.06 75.06L763.77 74.95L765.5 74.92L767.23 74.95L768.94 75.06L770.64 75.23L772.31 75.48L773.87 75.77L774.05 74.99L774.46 73.77L774.98 72.6L775.59 71.49L776.3 70.45L777.1 69.48L777.98 68.58L778.93 67.77L779.96 67.05L781.04 66.42L782.19 65.9L783.39 65.48L784.64 65.17L785.93 64.98L787.25 64.92L788.57 64.98L789.86 65.17L791.11 65.48L792.31 65.9L793.46 66.42L794.54 67.05L795.57 67.77L796.52 68.58L797.4 69.48L798.2 70.45L798.91 71.49L799.52 72.6L800.04 73.77L800.45 74.99L800.75 76.26L800.94 77.57L801 78.92L800.94 80.27L800.75 81.58L800.45 82.85L800.04 84.07L799.52 85.24L798.91 86.35L798.2 87.39L797.4 88.36L796.74 89.03L797.38 89.77L798.41 91.03L799.39 92.33L800.32 93.66L801.2 95.04L802.03 96.45L802.81 97.89L803.53 99.37L804.2 100.88L804.75 102.28L805.12 102.01L806.14 101.33L807.2 100.71L808.3 100.15L809.42 99.64L810.58 99.19L811.76 98.81L812.96 98.5L814.19 98.25L815.44 98.07L816.71 97.96L818 97.92L819.29 97.96L820.56 98.07L821.81 98.25L823.04 98.5L824.24 98.81L825.42 99.19L826.58 99.64L827.7 100.15L828.8 100.71L829.86 101.33L830.88 102.01L831.88 102.75L832.83 103.53L833.74 104.36L834.61 105.24L835.44 106.17L836.23 107.14L836.96 108.16L837.65 109.21L838.29 110.31L838.88 111.43L839.41 112.6L839.88 113.79L840.3 115.02L840.66 116.28L840.79 116.84L841.42 116.87L845.5 116.92L849.58 116.87L853.61 116.71L857.61 116.44L858.47 116.36L858.3 115.85L858 114.58L857.81 113.27L857.75 111.92L857.81 110.57L858 109.26L858.3 107.99L858.71 106.77L859.23 105.6L859.84 104.49L860.55 103.45L861.35 102.48L862.23 101.58L863.18 100.77L864.21 100.05L865.29 99.42L866.44 98.9L867.64 98.48L868.89 98.17L870.18 97.98L871.5 97.92L872.82 97.98L874.11 98.17L875.36 98.48L876.56 98.9L877.33 99.25L877.8 98.27L878.68 96.57L879.61 94.92L880.59 93.32L881.62 91.76L882.69 90.26L883.81 88.8L884.97 87.41L886.17 86.06L887.42 84.78L888.7 83.55L890.02 82.39L891.38 81.29L892.78 80.25L894.21 79.28L895.67 78.38L897.16 77.55L898.68 76.79L900.23 76.1L901.81 75.48L903.41 74.95L905.04 74.49L906.69 74.11L908.36 73.81L910.06 73.59L911.77 73.46L913.5 73.42L915.23 73.46L916.94 73.59L918.64 73.81L920.31 74.11L921.96 74.49L923.59 74.95L925.19 75.48L926.77 76.1L928.32 76.79L929.84 77.55L931.33 78.38L932.79 79.28L934.22 80.25L935.62 81.29L936.98 82.39L938.3 83.55L939.58 84.78L940.83 86.06L942.03 87.41L943.19 88.8L944.15 90.05L944.55 89.45L945.35 88.48L946.23 87.58L947.18 86.77L948.21 86.05L949.29 85.42L950.44 84.9L951.64 84.48L952.89 84.17L954.18 83.98L955.5 83.92L956.82 83.98L958.11 84.17L959.36 84.48L960.56 84.9L961.71 85.42L962.79 86.05L963.82 86.77L964.77 87.58L965.39 88.22L965.78 88.03L967.46 87.31L969.17 86.69L970.91 86.15L972.67 85.71L974.45 85.36L976.26 85.11L978.08 84.96L979.93 84.91L981.77 84.96L983.6 85.11L985.4 85.36L987.19 85.71L988.95 86.15L990.68 86.69L992.39 87.31L994.08 88.03L995.73 88.83L997.35 89.72L998.94 90.69L1000.5 91.74L1002.02 92.87L1003.51 94.08L1004.96 95.36L1006.37 96.71L1007.74 98.14L1009.06 99.64L1010.35 101.2L1010.9 101.93L1010.94 101.9L1012.56 101.02L1014.22 100.21L1015.9 99.5L1017.61 98.87L1018.33 98.65L1018.24 98.24L1018.02 96.81L1017.89 95.35L1017.84 93.85L1017.89 92.36L1018.02 90.89L1018.24 89.46L1018.54 88.07L1018.92 86.73L1019.38 85.43L1019.91 84.19L1020.5 83L1021.16 81.87L1021.89 80.81L1022.67 79.82L1023.5 78.91L1024.39 78.07L1025.33 77.31L1026.31 76.64L1027.33 76.07L1028.4 75.58L1029.49 75.2L1030.62 74.92L1031.77 74.75L1032.96 74.7L1034.14 74.75L1035.29 74.92L1036.42 75.2L1037.51 75.58L1038.58 76.07L1039.6 76.64L1040.58 77.31L1041.52 78.07L1042.41 78.91L1043.24 79.82L1044.02 80.81L1044.75 81.87L1045.41 83L1046 84.19L1046.53 85.43L1046.99 86.73L1047.37 88.07L1047.67 89.46L1047.89 90.89L1048.02 92.36L1048.07 93.85L1048.02 95.35L1047.89 96.81L1047.67 98.24L1047.37 99.63L1046.99 100.98L1046.53 102.28L1046.5 102.34L1047.38 102.87L1048.94 103.93L1050.46 105.06L1051.94 106.26L1053.39 107.55L1054.8 108.9L1055.89 110.04L1056.35 109.48L1057.23 108.58L1058.18 107.77L1059.21 107.05L1060.29 106.42L1061.44 105.9L1062.64 105.48L1063.89 105.17L1065.18 104.98L1066.5 104.92L1067.82 104.98L1069.11 105.17L1070.36 105.48L1071.56 105.9L1072.71 106.42L1073.79 107.05L1074.82 107.77L1075.77 108.58L1076.65 109.48L1077.45 110.45L1078.16 111.49L1078.77 112.6L1079.29 113.77L1079.7 114.99L1080 116.26L1080.06 116.68L1080.67 116.56L1082.49 116.33L1084.34 116.25L1086.18 116.33L1088.01 116.56L1089.15 116.79L1088.84 116.35L1088.23 115.24L1087.71 114.07L1087.3 112.85L1087 111.58L1086.81 110.27L1086.75 108.92L1086.81 107.57L1087 106.26L1087.3 104.99L1087.71 103.77L1088.23 102.6L1088.84 101.49L1089.55 100.45L1090.35 99.48L1091.23 98.58L1092.18 97.77L1093.21 97.05L1094.29 96.42L1095.44 95.9L1096.64 95.48L1097.89 95.17L1099.18 94.98L1100.5 94.92L1101.82 94.98L1103.11 95.17L1104.36 95.48L1105.56 95.9L1106.71 96.42L1107.79 97.05L1108.82 97.77L1109.77 98.58L1110.65 99.48L1111.45 100.45L1112.16 101.49L1112.37 101.88L1113.07 101.03L1114.59 99.34L1116.15 97.77L1117.74 96.32L1119.36 95L1121.02 93.8L1122.7 92.73L1124.41 91.8L1126.14 91L1127.9 90.34L1129.69 89.82L1131.49 89.44L1133.32 89.22L1135.16 89.14L1137.01 89.22L1138.83 89.44L1140.64 89.82L1142.42 90.34L1144.18 91L1145.92 91.8L1147.63 92.73L1149.31 93.8L1150.96 95L1151.11 95.12L1151.21 95.05L1152.29 94.42L1153.44 93.9L1154.64 93.48L1155.89 93.17L1157.18 92.98L1158.5 92.92L1159.82 92.98L1161.11 93.17L1162.36 93.48L1163.56 93.9L1164.71 94.42L1164.74 94.44L1165.19 93.3L1165.97 91.52L1166.8 89.77L1167.68 88.07L1168.61 86.42L1169.59 84.82L1170.62 83.26L1171.69 81.76L1172.81 80.3L1173.97 78.91L1175.17 77.56L1176.42 76.28L1177.7 75.05L1179.02 73.89L1180.13 72.99L1180.12 72.95L1179.99 71.48L1179.94 69.98L1179.99 68.49L1180.12 67.02L1180.34 65.59L1180.64 64.2L1181.03 62.86L1181.48 61.56L1182.01 60.32L1182.6 59.13L1183.27 58.01L1183.99 56.95L1184.77 55.95L1185.61 55.04L1186.49 54.2L1187.43 53.44L1188.41 52.78L1189.44 52.2L1190.5 51.72L1191.59 51.33L1192.72 51.06L1193.88 50.89L1195.06 50.83L1196.24 50.89L1197.39 51.06L1198.52 51.33L1199.62 51.72L1200.68 52.2L1201.7 52.78L1202.68 53.44L1203.62 54.2L1204.51 55.04L1205.34 55.96L1206.12 56.95L1206.85 58.01L1207.51 59.13L1208.11 60.32L1208.63 61.56L1209.09 62.86L1209.47 64.21L1209.77 65.59L1209.79 65.72L1210.96 65.99L1212.59 66.45L1214.19 66.98L1215.77 67.6L1217.32 68.29L1218.84 69.05L1220.33 69.88L1221.79 70.78L1223.22 71.75L1224.62 72.79L1225.98 73.89L1227.3 75.05L1228.58 76.28L1229.83 77.56L1231.03 78.91L1232.19 80.3L1233.31 81.76L1234.38 83.26L1235.41 84.82L1236.39 86.42L1237.32 88.07L1238.2 89.77L1239.03 91.52L1239.81 93.3L1240.35 94.67L1241.04 93.7L1241.82 92.72L1242.65 91.78L1243.52 90.9L1244.44 90.06L1245.39 89.28L1246.37 88.56L1247.4 87.9L1248.45 87.3L1249.54 86.76L1250.66 86.28L1251.8 85.87L1252.97 85.54L1254.17 85.27L1255.38 85.08L1256.62 84.96L1257.88 84.92L1259.13 84.96L1260.37 85.08L1261.58 85.27L1262.78 85.54L1263.95 85.87L1265.09 86.28L1266.21 86.76L1267.3 87.3L1268.35 87.9L1269.38 88.56L1270.36 89.28L1270.51 89.41L1270.75 89.11L1271.58 88.2L1272.47 87.36L1273.41 86.6L1274.39 85.93L1275.41 85.36L1276.47 84.88L1277.57 84.49L1278.7 84.21L1279.85 84.04L1281.03 83.99L1282.21 84.04L1283.37 84.21L1284.5 84.49L1285.59 84.88L1286.65 85.36L1287.68 85.94L1288.66 86.6L1289.59 87.36L1290.48 88.2L1291.32 89.11L1292.1 90.1L1292.82 91.17L1293.48 92.29L1294.08 93.48L1294.61 94.72L1295.06 96.02L1295.44 97.36L1295.75 98.75L1295.97 100.18L1296.1 101.65L1296.14 103.14L1296.1 104.64L1295.96 106.11L1295.75 107.53L1295.44 108.92L1295.06 110.27L1294.61 111.57L1294.08 112.81L1293.76 113.45L1295.08 113.31L1298.67 113.09L1302.3 113.02L1305.93 113.09L1309.52 113.31L1313.08 113.67L1316.08 114.1L1316.15 113.88L1316.68 112.64L1317.28 111.45L1317.94 110.32L1318.66 109.26L1319.44 108.27L1320.28 107.36L1321.17 106.52L1322.1 105.76L1323.09 105.09L1324.11 104.52L1325.17 104.03L1326.27 103.65L1327.39 103.37L1328.55 103.2L1329.73 103.14L1330.91 103.2L1332.07 103.37L1333.13 103.64L1333.25 103.22L1333.96 101.05L1334.73 98.92L1335.56 96.84L1336.44 94.81L1337.38 92.84L1338.37 90.91L1339.42 89.04L1340.51 87.23L1341.66 85.47L1342.85 83.78L1344.09 82.15L1345.37 80.59L1346.7 79.1L1348.07 77.67L1349.48 76.31L1350.93 75.03L1352.42 73.82L1353.94 72.69L1355.5 71.64L1357.09 70.67L1358.71 69.79L1360.36 68.98L1362.04 68.27L1363.75 67.64L1365.49 67.11L1367.25 66.66L1369.03 66.32L1370.84 66.07L1372.67 65.91L1374.51 65.86L1376.35 65.91L1378.18 66.07L1379.99 66.32L1381.77 66.66L1383.53 67.11L1385.27 67.64L1386.97 68.27L1388.66 68.98L1390.31 69.79L1391.93 70.67L1393.52 71.64L1395.08 72.69L1396.6 73.82L1398.09 75.03L1399.54 76.31L1400.95 77.67L1402.32 79.1L1403.64 80.59L1404.93 82.16L1406.17 83.78L1407.36 85.48L1408.5 87.23L1409.6 89.04L1410.64 90.91L1411.64 92.84L1412.58 94.82L1413.46 96.85L1414.29 98.93L1415.06 101.05L1415.77 103.22L1416.42 105.44L1417 107.7L1417.53 110L1417.99 112.33L1418.38 114.7L1418.7 117.11L1418.96 119.54L1419.14 122.01L1419.25 124.5L1419.29 127.02L1419.25 129.54L1419.14 132.03L1418.96 134.5L1418.7 136.93L1418.38 139.34L1417.98 141.71L1417.53 144.04L1417 146.34L1416.41 148.6L1415.77 150.81L1415.05 152.99L1414.29 155.11L1413.46 157.19L1412.57 159.22L1411.63 161.2L1410.64 163.13L1409.6 165L1408.5 166.81L1407.36 168.56L1406.16 170.25L1404.93 171.88L1403.64 173.45L1402.31 174.94L1400.95 176.37L1399.54 177.72L1398.09 179.01L1396.6 180.21L1395.08 181.34L1393.52 182.4L1391.93 183.37L1390.31 184.25L1388.86 184.96L1389.25 187.1L1389.75 190.63L1390.11 194.19L1390.33 197.79L1390.4 201.44L1390.33 205.08L1390.11 208.68L1389.75 212.25L1389.25 215.77L1388.61 219.25L1387.84 222.67L1386.94 226.05L1385.91 229.37L1384.75 232.64L1383.47 235.84L1382.08 238.98L1380.56 242.06L1378.93 245.06L1377.19 248L1375.35 250.86L1373.39 253.64L1371.34 256.34L1369.18 258.96L1366.93 261.5L1364.58 263.94L1362.15 266.3L1359.62 268.56L1357.01 270.72L1354.32 272.78L1351.54 274.74L1348.69 276.6L1345.77 278.34L1342.77 279.98L1339.71 281.5L1336.58 282.9L1333.38 284.18L1330.13 285.34L1326.82 286.38L1323.46 287.28L1320.04 288.05L1316.58 288.69L1313.07 289.2L1309.52 289.56L1305.93 289.78L1302.3 289.85L1298.67 289.78L1295.08 289.56L1291.52 289.2L1288.01 288.69L1284.55 288.05L1281.14 287.28L1277.77 286.37L1274.46 285.34L1271.21 284.18L1268.02 282.9L1264.89 281.5L1261.82 279.98L1258.83 278.34L1255.9 276.6L1253.05 274.74L1250.28 272.78L1247.59 270.72L1244.97 268.56L1242.45 266.3L1240.01 263.94L1237.67 261.5L1235.41 258.96L1233.26 256.34L1231.2 253.64L1229.25 250.85L1227.4 247.99L1225.66 245.06L1224.04 242.05L1222.53 238.99L1221.21 240.16L1219.72 241.36L1218.2 242.49L1216.64 243.55L1215.05 244.52L1213.43 245.4L1211.77 246.21L1210.09 246.92L1208.38 247.55L1206.65 248.08L1204.89 248.52L1203.1 248.87L1201.3 249.12L1199.47 249.27L1197.63 249.32L1195.78 249.27L1193.96 249.12L1192.15 248.87L1190.37 248.52L1188.61 248.08L1186.87 247.55L1185.16 246.92L1183.48 246.2L1181.83 245.4L1180.2 244.52L1178.61 243.54L1177.06 242.49L1175.53 241.36L1174.05 240.16L1172.6 238.87L1171.19 237.52L1170.44 236.74L1170.25 237.24L1169.15 239.95L1168.01 242.57L1166.82 245.1L1165.58 247.53L1164.29 249.87L1162.97 252.1L1161.6 254.23L1160.19 256.26L1158.74 258.17L1157.25 259.98L1155.73 261.67L1154.17 263.24L1152.58 264.69L1150.96 266.01L1149.31 267.21L1147.62 268.28L1145.91 269.21L1144.18 270.01L1142.42 270.67L1140.63 271.19L1138.83 271.57L1137 271.79L1135.16 271.87L1133.31 271.79L1131.49 271.57L1129.68 271.19L1127.9 270.67L1126.14 270.01L1124.4 269.21L1122.69 268.28L1121.01 267.21L1119.36 266.01L1118.91 265.64L1118.33 267.06L1117.18 269.68L1115.99 272.21L1114.75 274.64L1113.47 276.98L1112.14 279.21L1110.77 281.35L1109.36 283.37L1107.91 285.29L1106.43 287.09L1104.91 288.78L1103.35 290.35L1101.76 291.8L1100.13 293.12L1098.48 294.32L1096.8 295.39L1095.09 296.33L1093.35 297.13L1091.59 297.79L1089.81 298.31L1088 298.68L1086.18 298.91L1084.33 298.98L1082.49 298.91L1080.66 298.68L1078.86 298.3L1077.07 297.79L1075.31 297.12L1073.58 296.32L1071.87 295.39L1070.19 294.32L1068.53 293.12L1066.91 291.8L1065.32 290.35L1063.76 288.78L1062.24 287.09L1060.75 285.29L1059.3 283.37L1057.89 281.34L1056.53 279.21L1055.2 276.98L1053.92 274.64L1052.68 272.21L1051.48 269.68L1050.34 267.06L1049.24 264.35L1048.2 261.56L1047.21 258.68L1046.27 255.73L1045.38 252.7L1044.56 249.59L1043.79 246.41L1043.08 243.17L1042.43 239.86L1041.84 236.48L1041.57 234.73L1041.14 235.83L1039.74 238.97L1038.22 242.05L1036.6 245.05L1034.86 247.99L1033.01 250.85L1031.06 253.63L1029 256.33L1026.84 258.95L1024.59 261.49L1022.25 263.94L1019.81 266.29L1017.28 268.55L1014.67 270.71L1011.98 272.78L1009.2 274.74L1006.35 276.59L1003.43 278.33L1000.43 279.97L997.37 281.49L994.24 282.89L991.05 284.17L987.79 285.33L984.48 286.37L981.12 287.27L977.71 288.05L974.24 288.68L970.73 289.19L967.18 289.55L963.59 289.77L962.39 289.79L959.73 291.83L956.96 293.79L954.11 295.64L951.19 297.39L948.19 299.02L945.13 300.54L942 301.94L938.8 303.23L935.55 304.39L932.24 305.42L928.88 306.32L925.46 307.1L922 307.74L918.49 308.24L914.94 308.6L911.34 308.82L907.72 308.9L904.09 308.82L900.49 308.6L896.94 308.24L893.43 307.74L889.97 307.1L886.55 306.32L883.19 305.42L879.88 304.38L876.63 303.22L873.44 301.94L870.31 300.54L867.24 299.02L864.25 297.38L861.32 295.64L858.47 293.79L855.7 291.83L853 289.76L850.39 287.6L847.87 285.34L845.43 282.98L843.08 280.54L840.83 278L838.68 275.38L836.62 272.68L834.67 269.9L832.82 267.04L831.08 264.1L830.7 263.4L829.26 263.37L825.66 263.15L822.11 262.79L821.81 262.74L820.47 263.56L818.85 264.45L817.19 265.25L815.51 265.96L813.8 266.59L812.06 267.12L810.3 267.57L808.52 267.91L806.72 268.17L804.89 268.32L803.04 268.37L801.2 268.32L799.37 268.16L797.57 267.91L795.79 267.57L794.02 267.12L792.29 266.59L790.58 265.96L788.9 265.25L787.24 264.45L785.62 263.56L784.03 262.59L782.47 261.54L780.95 260.41L779.46 259.2L778.02 257.92L776.61 256.56L775.86 255.78L775.67 256.29L774.57 258.99L773.43 261.61L772.24 264.14L771 266.57L769.71 268.91L768.39 271.14L767.02 273.28L765.61 275.3L764.16 277.22L762.67 279.02L761.15 280.71L759.59 282.28L758 283.73L756.38 285.05L754.72 286.25L753.04 287.32L751.33 288.26L749.6 289.06L747.84 289.72L746.05 290.24L744.25 290.61L742.42 290.84L740.58 290.91L738.73 290.84L736.91 290.61L735.1 290.23L733.32 289.72L731.56 289.05L729.82 288.26L728.11 287.32L726.43 286.25L724.78 285.05L724.32 284.68L723.75 286.11L722.6 288.73L721.41 291.25L720.17 293.69L718.89 296.02L717.56 298.26L716.19 300.39L714.78 302.41L713.33 304.33L711.85 306.13L710.32 307.82L708.77 309.39L707.18 310.84L705.55 312.17L703.9 313.37L702.22 314.43L700.51 315.37L698.77 316.17L697.01 316.83L695.23 317.35L693.42 317.72L691.6 317.95L689.75 318.03L687.91 317.95L686.08 317.72L684.28 317.35L682.49 316.83L680.73 316.17L679 315.37L677.29 314.43L675.6 313.36L673.95 312.17L672.33 310.84L670.74 309.39L669.18 307.82L667.66 306.13L666.17 304.33L664.72 302.41L663.31 300.39L661.94 298.26L660.93 296.55L659.31 296.45L655.75 296.09L652.25 295.58L648.78 294.94L645.37 294.17L642 293.26L638.69 292.23L635.44 291.07L632.25 289.79L629.12 288.39L626.05 286.87L624.48 286.01L622.7 287.59L620.09 289.76L617.4 291.82L614.62 293.78L611.77 295.63L608.85 297.38L605.85 299.01L602.79 300.53L599.66 301.93L596.46 303.22L593.21 304.38L589.9 305.41L586.54 306.32L583.12 307.09L579.66 307.73L576.15 308.23L572.6 308.59L569.01 308.81L565.38 308.89L561.75 308.81L558.16 308.59L554.6 308.23L551.09 307.73L547.63 307.09L544.22 306.31L542.53 305.86L542.15 305.88L540.31 305.8L538.48 305.57L536.68 305.2L534.89 304.68L533.13 304.02L531.4 303.22L529.69 302.28L528.01 301.21L526.35 300.02L525.46 299.29L524.9 299.01L521.91 297.38L518.98 295.63L516.13 293.78L513.36 291.82L510.67 289.75L508.05 287.59L505.53 285.33L503.09 282.98L500.75 280.53L498.49 277.99L498.23 277.67L496.81 278.08L495 278.46L493.17 278.68L491.33 278.76L489.49 278.68L487.66 278.46L485.85 278.08L484.07 277.56L482.31 276.9L480.57 276.1L478.86 275.17L477.18 274.1L476.61 273.69L475.71 274.13L472.58 275.53L469.39 276.82L466.14 277.98L462.83 279.01L459.46 279.92L456.05 280.69L452.59 281.33L449.08 281.83L445.52 282.19L441.93 282.41L438.3 282.49L434.67 282.41L431.08 282.19L427.53 281.83L424.02 281.33L420.56 280.69L417.14 279.91L413.78 279.01L410.47 277.98L407.22 276.82L404.02 275.53L403.8 275.43L402.65 275.5L399.02 275.58L395.39 275.5L391.8 275.28L388.25 274.92L384.74 274.42L383.01 274.1L381.51 275.44L378.9 277.6L376.21 279.67L373.44 281.63L370.59 283.48L367.66 285.23L364.67 286.86L361.6 288.38L358.47 289.78L355.28 291.06L352.03 292.22L348.72 293.26L345.35 294.16L341.94 294.94L338.47 295.58L334.96 296.08L331.41 296.44L327.82 296.66L326.62 296.68L323.97 298.72L321.19 300.68L318.34 302.53L315.42 304.28L312.42 305.91L309.36 307.43L306.23 308.83L303.03 310.12L299.78 311.28L296.47 312.31L293.11 313.21L289.69 313.99L286.23 314.63L282.72 315.13L279.17 315.49L275.58 315.71L271.95 315.79L268.32 315.71L264.73 315.49L261.17 315.13L257.66 314.63L254.2 313.99L250.79 313.21L247.42 312.31L244.11 311.27L240.86 310.11L237.67 308.83L234.54 307.43L231.47 305.91L228.48 304.28L225.55 302.53L222.7 300.68L219.93 298.72L217.23 296.65L214.62 294.49L212.1 292.23L209.66 289.88L207.32 287.43L205.06 284.89L202.91 282.27L200.85 279.57L198.9 276.79L197.05 273.93L195.31 270.99L193.68 267.98L192.17 264.91L190.77 261.77L190.34 260.67L190.07 262.42L189.48 265.79L188.83 269.1L188.12 272.35L187.35 275.53L186.52 278.63L185.64 281.67L184.7 284.62L183.71 287.5L182.66 290.29L181.57 293L180.42 295.62L179.23 298.15L177.99 300.58L176.71 302.92L175.38 305.15L174.01 307.28L172.6 309.31L171.15 311.22L169.67 313.03L168.14 314.72L166.59 316.29L165 317.73L163.37 319.06L161.72 320.26L160.04 321.33L158.33 322.26L156.59 323.06L154.83 323.72L153.05 324.24L151.24 324.62L149.42 324.84L147.57 324.92L145.73 324.84L143.9 324.62L142.1 324.24L140.31 323.72L138.55 323.06L136.82 322.26L135.11 321.33L133.42 320.26L131.77 319.06L130.15 317.73L128.56 316.28L127 314.71L125.48 313.03L123.99 311.22L122.54 309.31L121.13 307.28L119.76 305.15L118.44 302.91L117.15 300.58L115.92 298.15L114.72 295.62L113.58 293L113 291.57L112.55 291.94L110.9 293.14L109.21 294.21L107.5 295.15L105.77 295.95L104.01 296.61L102.22 297.13L100.42 297.5L98.59 297.73L96.75 297.8L94.9 297.73L93.08 297.5L91.27 297.13L89.49 296.61L87.73 295.95L85.99 295.15L84.28 294.21L82.6 293.14L80.95 291.94L79.33 290.62L77.73 289.17L76.18 287.6L74.65 285.91L73.17 284.11L71.72 282.19L70.31 280.16L68.94 278.03L67.61 275.8L66.33 273.46L65.09 271.03L63.9 268.5L62.75 265.88L61.66 263.17L61.47 262.67L60.72 263.45L59.31 264.81L57.86 266.09L56.38 267.29L54.85 268.43L53.3 269.48L51.7 270.45L50.08 271.33L48.43 272.14L46.75 272.85L45.04 273.48L43.3 274.01L41.54 274.45L39.76 274.8L37.95 275.05L36.13 275.2L34.28 275.25L32.44 275.2L30.61 275.05L28.81 274.8L27.02 274.45L25.26 274.01L23.53 273.48L21.82 272.85L20.13 272.13L18.48 271.33L16.86 270.45L15.27 269.48L13.71 268.42L12.19 267.29L10.7 266.09L9.38 264.92L7.87 267.98L6.25 270.99L4.51 273.92L2.66 276.78L0.7 279.57L-1.35 282.27L-3.51 284.89L-5.76 287.42L-8.1 289.87L-10.54 292.22L-13.07 294.48L-15.68 296.65L-18.37 298.71L-21.15 300.67L-24 302.52L-26.92 304.27L-29.92 305.9L-32.98 307.42L-36.11 308.82L-39.3 310.11L-42.56 311.27L-45.87 312.3L-49.23 313.21L-52.64 313.98L-56.11 314.62L-59.62 315.12L-63.17 315.48L-66.76 315.7L-70.39 315.78L-74.02 315.7L-77.61 315.48L-81.16 315.12L-84.67 314.62L-88.14 313.98L-91.55 313.2L-94.92 312.3L-98.23 311.27L-101.48 310.11L-104.67 308.82L-107.8 307.42L-110.87 305.9L-113.86 304.27L-116.79 302.52L-119.64 300.67L-122.41 298.71L-125.1 296.64L-127.71 294.48L-130.24 292.22L-132.68 289.87L-135.02 287.42L-137.27 284.89L-139.43 282.26L-141.49 279.56L-143.44 276.78L-145.29 273.92L-147.02 270.98L-148.65 267.98L-150.17 264.9L-151.56 261.76L-152.84 258.56L-154 255.29L-155.03 251.97L-155.93 248.59L-156.7 245.17L-157.34 241.69L-157.84 238.17L-158.2 234.6L-158.42 231L-158.49 227.36L-158.42 223.71L-158.2 220.11L-157.84 216.54L-157.34 213.02L-156.94 210.88L-158.4 210.17L-160.02 209.29L-161.61 208.32L-163.17 207.26L-164.69 206.13L-166.18 204.93L-167.62 203.64L-169.03 202.29L-170.4 200.86L-171.73 199.37L-173.01 197.8L-174.25 196.17L-175.44 194.48L-176.59 192.73L-177.68 190.92L-178.73 189.05L-179.72 187.12L-180.66 185.14L-181.54 183.11L-182.37 181.03L-183.14 178.91L-183.85 176.73L-184.5 174.52L-185.09 172.26L-185.61 169.96L-186.07 167.63L-186.46 165.26L-186.79 162.85L-187.04 160.42L-187.22 157.95L-187.34 155.46L-187.37 152.94L-187.34 150.42L-187.22 147.93L-187.04 145.46L-186.79 143.02L-186.46 140.62L-186.07 138.25L-185.61 135.91L-185.09 133.62L-184.5 131.36L-183.85 129.14L-183.14 126.97L-182.37 124.84L-181.54 122.76L-180.66 120.73L-179.72 118.76L-178.73 116.83L-177.68 114.96L-176.59 113.15L-175.44 111.4L-174.25 109.7L-173.01 108.08L-171.73 106.51L-170.4 105.02L-169.03 103.59L-167.62 102.23L-166.17 100.95L-164.69 99.74L-163.16 98.61L-161.61 97.56L-160.01 96.59L-158.39 95.71L-156.74 94.9L-155.06 94.19L-153.35 93.56L-151.61 93.03L-149.85 92.59L-148.07 92.24L-146.26 91.99L-144.44 91.84L-142.59 91.78L-140.75 91.84L-138.92 91.99L-137.12 92.24L-135.33 92.59L-133.57 93.03L-131.84 93.56L-130.13 94.19L-128.44 94.9L-126.79 95.71L-125.17 96.59L-123.58 97.56L-122.02 98.62L-120.5 99.75L-119.01 100.95L-117.56 102.24L-116.15 103.59L-114.78 105.02L-113.46 106.51L-112.17 108.08L-110.93 109.71L-109.74 111.4L-108.6 113.15L-107.5 114.96L-106.46 116.83L-105.47 118.76L-104.53 120.74L-103.64 122.77L-102.81 124.85L-102.04 126.97L-101.33 129.15L-101.21 129.56L-100.15 129.3L-98.99 129.13L-97.81 129.07L-96.63 129.13L-95.48 129.3L-94.35 129.57L-93.25 129.96L-92.19 130.44L-91.17 131.02L-90.19 131.69L-89.25 132.44L-88.36 133.28L-87.53 134.2L-86.75 135.19L-86.02 136.25L-85.36 137.37L-84.77 138.56L-84.24 139.8L-84.16 140.03L-81.16 139.6L-77.61 139.24L-74.02 139.02L-70.39 138.94L-66.76 139.02L-63.16 139.24L-61.85 139.37L-62.16 138.73L-62.69 137.49L-63.15 136.19L-63.53 134.85L-63.83 133.46L-64.05 132.03L-64.18 130.57L-64.23 129.07L-64.18 127.57L-64.05 126.11L-63.83 124.68L-63.53 123.29L-63.15 121.94L-62.69 120.65L-62.16 119.4L-61.57 118.22L-60.91 117.09L-60.18 116.03L-59.4 115.04L-58.57 114.12L-57.68 113.28L-56.74 112.53L-55.76 111.86L-54.74 111.28L-53.67 110.8L-52.58 110.42L-51.45 110.14L-50.3 109.97L-49.12 109.91L-47.94 109.97L-46.78 110.14L-45.65 110.42L-44.56 110.8L-43.49 111.28L-42.47 111.86L-41.49 112.53L-40.55 113.29L-39.67 114.12L-39.37 114.44L-39.36 114.06L-39.13 112.53L-38.77 111.07L-38.28 109.71L-37.68 108.46L-36.97 107.33L-36.16 106.33L-35.27 105.48L-34.3 104.8L-33.27 104.29L-32.17 103.98L-31.04 103.87L-29.9 103.98L-28.8 104.29L-27.77 104.8L-26.8 105.48L-25.91 106.33L-25.1 107.33L-24.39 108.46L-23.79 109.71L-23.3 111.07L-22.94 112.53L-22.72 114.06L-22.64 115.66L-22.72 117.26L-22.94 118.79L-23.3 120.25L-23.79 121.61L-24.39 122.86L-25.1 123.99L-25.91 124.99L-26.8 125.84L-27.77 126.52L-28.81 127.03L-29.9 127.34L-31.04 127.45L-32.17 127.34L-33.27 127.03L-34.14 126.6L-34.05 127.57L-34 129.07L-34.05 130.57L-34.18 132.03L-34.4 133.46L-34.7 134.85L-35.08 136.19L-35.54 137.49L-36.07 138.74L-36.66 139.92L-37.33 141.05L-38.05 142.11L-38.83 143.1L-39.67 144.02L-40.02 144.35L-39.3 144.61L-36.11 145.9L-32.98 147.3L-29.91 148.82L-26.92 150.45L-23.99 152.2L-21.14 154.05L-18.37 156.01L-16.27 157.62L-16.27 157.49L-16.14 156.02L-15.92 154.59L-15.61 153.21L-15.23 151.86L-14.78 150.56L-14.25 149.32L-13.65 148.13L-12.99 147.01L-12.27 145.95L-11.49 144.96L-10.65 144.04L-9.76 143.2L-8.83 142.44L-7.85 141.78L-6.82 141.2L-5.76 140.72L-4.67 140.33L-4.64 140.33L-4.7 140.07L-4.99 138.58L-5.21 137.07L-5.37 135.53L-5.47 133.98L-5.5 132.42L-5.47 130.85L-5.37 129.3L-5.21 127.77L-4.99 126.26L-4.7 124.76L-4.36 123.29L-3.96 121.84L-3.5 120.41L-2.98 119.01L-2.41 117.63L-1.79 116.28L-1.12 114.96L-0.39 113.67L0.38 112.41L1.21 111.18L2.08 109.98L2.99 108.82L3.95 107.69L4.96 106.61L6 105.55L7.09 104.54L8.21 103.57L9.38 102.64L10.58 101.75L11.81 100.91L13.08 100.12L14.38 99.37L15.72 98.66L17.08 98.01L18.48 97.41L19.9 96.86L21.35 96.36L21.76 96.23L21.75 95.91L21.79 94.42L21.93 92.95L22.15 91.52L22.45 90.14L22.83 88.79L23.29 87.49L23.81 86.25L24.41 85.06L25.07 83.94L25.79 82.88L26.58 81.89L27.41 80.97L28.3 80.13L29.24 79.37L30.22 78.71L31.24 78.13L32.3 77.65L33.4 77.26L34.53 76.99L35.68 76.82L36.86 76.76L38.04 76.82L39.2 76.99L40.33 77.26L41.42 77.65L42.48 78.13L43.51 78.71L44.49 79.38L45.42 80.13L46.31 80.97L47.15 81.89L47.93 82.88L48.65 83.94L49.31 85.06L49.91 86.25L50.44 87.49L50.89 88.79L51.27 90.14L51.57 91.53L51.79 92.95L51.93 94.42L51.97 95.92L51.93 97.41L51.81 98.68L53.12 99.37L54.42 100.12L55.69 100.91L56.92 101.75L58.12 102.64L59.29 103.57L60.41 104.54L60.49 104.61L60.6 104.48L61.48 103.58L62.43 102.77L63.46 102.05L64.54 101.42L65.69 100.9L66.89 100.48L68.14 100.17L69.43 99.98L70.75 99.92L72.07 99.98L73.36 100.17L74.61 100.48L75.81 100.9L76.96 101.42L78.04 102.05L79.07 102.77L80.02 103.58L80.9 104.48L81.7 105.45L82.41 106.49L83.02 107.6L83.54 108.77L83.95 109.99L84.25 111.26L84.44 112.57L84.5 113.92L84.44 115.27L84.25 116.58L83.95 117.85L83.54 119.07L83.49 119.17L84.29 118.67L86 117.73L87.73 116.93L89.49 116.27L91.28 115.75L93.08 115.38L94.91 115.15L95.88 115.11L96.24 114.05L96.69 112.9L97.18 111.77L97.72 110.67L98.31 109.59L98.94 108.53L99 108.43L97.96 107.97L96.87 107.4L95.81 106.76L94.79 106.06L93.82 105.31L92.89 104.49L92.01 103.62L91.18 102.69L90.4 101.72L89.67 100.7L89.01 99.63L88.4 98.52L87.86 97.37L87.38 96.19L86.97 94.96L86.63 93.71L86.36 92.43L86.16 91.11L86.04 89.78L86 88.42L86.04 87.06L86.16 85.72L86.36 84.41L86.63 83.13L86.97 81.87L87.38 80.65L87.86 79.46L88.4 78.32L89.01 77.21L89.67 76.14L90.4 75.12L91.18 74.14L92.01 73.22L92.89 72.35L93.82 71.53L94.79 70.77L95.81 70.07L96.87 69.44L97.96 68.87L99.09 68.37L100.26 67.94L101.45 67.58L102.68 67.29L103.93 67.09L105.2 66.96L106.5 66.92L107.8 66.96L109.07 67.09L110.32 67.29L111.55 67.58L112.74 67.94L113.91 68.37L115.04 68.87L116.13 69.44L117.19 70.07L118.21 70.77L119.18 71.53L120.11 72.35L120.99 73.22L121.82 74.14L122.6 75.12L123.33 76.14L123.99 77.21L124.6 78.32L125.14 79.46L125.62 80.65L126.03 81.87L126.37 83.13L126.64 84.41L126.84 85.72L126.96 87.06L127 88.42L126.96 89.78L126.84 91.11L126.64 92.43L126.43 93.43L127 93.42L127.85 93.44L128 93.04L128.68 91.41L129.42 89.81L130.22 88.25L131.09 86.72L132.01 85.22L132.99 83.77L134.03 82.35L135.12 80.97L136.26 79.64L137.45 78.35L138.7 77.11L139.99 75.91L141.33 74.76L142.72 73.66L144.15 72.61L145.42 71.75L144.58 71.39L143.49 70.83L142.44 70.2L141.44 69.49L140.5 68.71L139.6 67.86L138.76 66.95L137.99 65.97L137.28 64.95L136.63 63.86L136.06 62.73L135.56 61.55L135.14 60.33L134.8 59.07L134.54 57.78L134.37 56.45L134.3 55.09L134.31 53.74L134.43 52.4L134.63 51.1L134.91 49.82L135.28 48.59L135.73 47.39L136.25 46.23L136.85 45.13L137.52 44.07L138.25 43.06L139.05 42.12L139.91 41.23L140.82 40.41L141.79 39.66L142.8 38.97L143.87 38.37L144.98 37.84L146.13 37.4L147.31 37.04L148.53 36.77L149.79 36.6L151.06 36.52L152.34 36.54L153.6 36.66L154.83 36.88L156.03 37.19L157.2 37.58L158.33 38.06L159.42 38.62L160.47 39.25L161.47 39.97L162.41 40.75L163.31 41.59L164.15 42.51L164.92 43.48L165.63 44.51L166.28 45.59L166.85 46.72L167.35 47.9L167.77 49.12L168.11 50.38L168.37 51.67L168.54 53L168.61 54.36L168.6 55.72L168.48 57.05L168.29 58.36L168 59.63L167.63 60.87L167.18 62.06L166.66 63.22L166.1 64.25L167.92 64.07L169.82 63.96L171.75 63.92L173.68 63.96L175.58 64.07L177.47 64.25L179.33 64.51L181.17 64.83L182.98 65.23L184.76 65.69L186.52 66.21L188.24 66.8L188.25 66.76L188.55 65.49L188.96 64.27L189.48 63.1L190.09 61.99L190.8 60.95L191.6 59.98L192.48 59.08L193.43 58.27L194.46 57.55L195.54 56.92L196.69 56.4L197.89 55.98L199.14 55.67L200.43 55.48L201.75 55.42L203.07 55.48L204.36 55.67L205.61 55.98L206.81 56.4L207.96 56.92L209.04 57.55L210.07 58.27L211.02 59.08L211.9 59.98L212.7 60.95L213.41 61.99L214.02 63.1L214.54 64.27L214.95 65.49L215.25 66.76L215.44 68.07L215.5 69.42L215.44 70.77L215.25 72.08L214.95 73.35L214.54 74.57L214.02 75.74L213.41 76.85L212.7 77.89L211.9 78.86L211.02 79.75L210.07 80.56L209.04 81.29L208.76 81.45L209.47 82.35L210.51 83.77L211.49 85.22L212.41 86.72L213.28 88.25L214.08 89.81L214.82 91.41L215.5 93.04L216.11 94.7L216.65 96.36L216.9 95.92L217.99 94.11L219.14 92.35L220.33 90.66L221.57 89.03L222.85 87.47L224.18 85.97L225.55 84.55L226.96 83.19L228.41 81.91L229.9 80.7L231.42 79.57L232.98 78.52L234.57 77.55L236.19 76.66L237.84 75.86L239.52 75.15L241.23 74.52L242.97 73.98L244.73 73.54L246.51 73.19L248.32 72.94L250.15 72.79L251.99 72.74L253.83 72.79L255.66 72.94L257.47 73.19L259.25 73.54L261.01 73.98L262.75 74.52L264.46 75.15L266.14 75.86L267.79 76.66L269.41 77.55L271 78.52L272.56 79.57L274.08 80.7L275.57 81.91L277.02 83.19L278.43 84.55L279.8 85.97L281.12 87.47L282.41 89.03L283.65 90.66L284.84 92.35L285.98 94.11L286 94.14L286.43 93.77L287.46 93.05L288.54 92.42L289.69 91.9L290.89 91.48L292.14 91.17L293.43 90.98L294.75 90.92L296.07 90.98L297.36 91.17L298.61 91.48L298.84 91.56L298.83 90.93L298.87 88.41L298.98 85.92L299.17 83.45L299.42 81.02L299.75 78.61L300.14 76.24L300.6 73.91L301.12 71.61L301.71 69.35L302.36 67.14L303.07 64.96L303.76 63.05L303.44 62.94L302.29 62.41L301.21 61.79L300.18 61.06L299.23 60.25L298.35 59.36L297.55 58.39L296.84 57.35L296.23 56.24L295.71 55.07L295.3 53.85L295 52.58L294.81 51.27L294.75 49.92L294.81 48.57L295 47.26L295.3 45.99L295.71 44.77L296.23 43.6L296.84 42.49L297.55 41.45L298.35 40.48L299.23 39.58L300.18 38.77L301.21 38.05L302.29 37.42L303.44 36.9L304.64 36.48L305.89 36.17L307.18 35.98L308.5 35.92L309.82 35.98L311.11 36.17L312.36 36.48L313.56 36.9L314.71 37.42L315.79 38.05L316.82 38.77L317.77 39.58L318.49 40.32L318.59 40.23L320.03 38.94L321.52 37.74L323.04 36.61L324.6 35.55L326.19 34.58L327.81 33.7L329.47 32.9L331.15 32.18L332.86 31.55L334.6 31.02L336.36 30.58L338.14 30.23L339.95 29.98L341.77 29.83L343.62 29.78L345.46 29.83L347.29 29.98ZM72.71 127.76L72.71 127.77L72.86 129.19L73.17 128.77L74.27 127.44L73.36 127.67L72.71 127.76ZM1324.82 70.46L1325.86 70.97L1326.83 71.65L1327.72 72.5L1328.53 73.5L1329.24 74.63L1329.84 75.88L1330.33 77.25L1330.69 78.7L1330.91 80.23L1330.99 81.83L1330.91 83.43L1330.69 84.97L1330.33 86.42L1329.84 87.78L1329.24 89.03L1328.53 90.17L1327.72 91.16L1326.83 92.01L1325.86 92.69L1324.82 93.2L1323.73 93.51L1322.59 93.62L1321.45 93.51L1320.36 93.2L1319.33 92.69L1318.36 92.01L1317.46 91.16L1316.66 90.17L1315.95 89.03L1315.34 87.78L1314.86 86.42L1314.5 84.96L1314.27 83.43L1314.2 81.83L1314.27 80.23L1314.5 78.7L1314.86 77.25L1315.34 75.88L1315.95 74.63L1316.66 73.5L1317.46 72.5L1318.36 71.65L1319.33 70.97L1320.36 70.46L1321.45 70.15L1322.59 70.04L1323.73 70.15L1324.82 70.46ZM558.23 70.45L559.26 70.96L560.23 71.64L561.12 72.49L561.93 73.48L562.64 74.62L563.24 75.87L563.73 77.23L564.09 78.69L564.31 80.22L564.39 81.82L564.31 83.42L564.09 84.95L563.73 86.41L563.24 87.77L562.64 89.02L561.93 90.15L561.12 91.15L560.23 92L559.26 92.68L558.22 93.19L557.13 93.5L555.99 93.61L554.85 93.5L553.76 93.19L552.73 92.68L551.76 92L550.86 91.15L550.06 90.15L549.35 89.02L548.74 87.77L548.26 86.41L547.9 84.95L547.67 83.42L547.6 81.82L547.67 80.22L547.9 78.69L548.26 77.23L548.74 75.87L549.35 74.62L550.06 73.48L550.86 72.49L551.76 71.64L552.73 70.96L553.76 70.45L554.86 70.14L555.99 70.03L557.13 70.14L558.23 70.45ZM849.11 61.17L850.36 61.48L851.56 61.9L852.71 62.42L853.79 63.05L854.82 63.77L855.77 64.58L856.65 65.48L857.45 66.45L858.16 67.49L858.77 68.6L859.29 69.77L859.7 70.99L860 72.26L860.19 73.57L860.25 74.92L860.19 76.27L860 77.58L859.7 78.85L859.29 80.07L858.77 81.24L858.16 82.35L857.45 83.39L856.65 84.36L855.77 85.25L854.82 86.06L853.79 86.79L852.71 87.41L851.56 87.94L850.36 88.36L849.11 88.67L847.82 88.85L846.5 88.92L845.18 88.85L843.89 88.67L842.64 88.36L841.44 87.94L840.29 87.41L839.21 86.79L838.18 86.06L837.23 85.25L836.35 84.36L835.55 83.39L834.84 82.35L834.23 81.24L833.71 80.07L833.3 78.85L833 77.58L832.81 76.27L832.75 74.92L832.81 73.57L833 72.26L833.3 70.99L833.71 69.77L834.23 68.6L834.84 67.49L835.55 66.45L836.35 65.48L837.23 64.58L838.18 63.77L839.21 63.05L840.29 62.42L841.44 61.9L842.64 61.48L843.89 61.17L845.18 60.98L846.5 60.92L847.82 60.98L849.11 61.17ZM1136.11 37.17L1137.36 37.48L1138.56 37.9L1139.71 38.42L1140.79 39.05L1141.82 39.77L1142.77 40.58L1143.65 41.48L1144.45 42.45L1145.16 43.49L1145.77 44.6L1146.29 45.77L1146.7 46.99L1147 48.26L1147.19 49.57L1147.25 50.92L1147.19 52.27L1147 53.58L1146.7 54.85L1146.29 56.07L1145.77 57.24L1145.16 58.35L1144.45 59.39L1143.65 60.36L1142.77 61.25L1141.82 62.06L1140.79 62.79L1139.71 63.41L1138.56 63.94L1137.36 64.36L1136.11 64.67L1134.82 64.85L1133.5 64.92L1132.18 64.85L1130.89 64.67L1129.64 64.36L1128.44 63.94L1127.29 63.41L1126.21 62.79L1125.18 62.06L1124.23 61.25L1123.35 60.36L1122.55 59.39L1121.84 58.35L1121.23 57.24L1120.71 56.07L1120.3 54.85L1120 53.58L1119.81 52.27L1119.75 50.92L1119.81 49.57L1120 48.26L1120.3 46.99L1120.71 45.77L1121.23 44.6L1121.84 43.49L1122.55 42.45L1123.35 41.48L1124.23 40.58L1125.18 39.77L1126.21 39.05L1127.29 38.42L1128.44 37.9L1129.64 37.48L1130.89 37.17L1132.18 36.98L1133.5 36.92L1134.82 36.98L1136.11 37.17ZM539.02 36.62L540.05 37.13L541.02 37.81L541.92 38.66L542.72 39.66L543.43 40.79L544.04 42.04L544.52 43.4L544.88 44.86L545.11 46.39L545.18 47.99L545.11 49.59L544.88 51.12L544.52 52.58L544.04 53.94L543.43 55.19L542.72 56.33L541.92 57.32L541.02 58.17L540.05 58.85L539.02 59.36L537.93 59.67L536.79 59.78L535.65 59.67L534.56 59.36L533.52 58.85L532.55 58.17L531.66 57.32L530.85 56.33L530.14 55.19L529.54 53.94L529.05 52.58L528.69 51.12L528.47 49.59L528.39 47.99L528.47 46.39L528.69 44.86L529.05 43.4L529.54 42.04L530.14 40.79L530.85 39.66L531.66 38.66L532.55 37.81L533.52 37.13L534.56 36.62L535.65 36.31L536.79 36.2L537.93 36.31L539.02 36.62ZM606.01 30.2L607.05 30.71L608.02 31.39L608.91 32.24L609.72 33.24L610.43 34.37L611.03 35.62L611.52 36.99L611.88 38.44L612.1 39.97L612.18 41.57L612.1 43.17L611.88 44.7L611.52 46.16L611.03 47.52L610.43 48.77L609.72 49.91L608.91 50.9L608.02 51.75L607.05 52.43L606.01 52.94L604.92 53.25L603.78 53.36L602.64 53.25L601.55 52.94L600.52 52.43L599.55 51.75L598.65 50.9L597.85 49.91L597.14 48.77L596.53 47.52L596.05 46.16L595.69 44.7L595.46 43.17L595.39 41.57L595.46 39.97L595.69 38.44L596.05 36.99L596.53 35.62L597.14 34.37L597.85 33.24L598.65 32.24L599.55 31.39L600.52 30.71L601.55 30.2L602.64 29.89L603.78 29.78L604.92 29.89L606.01 30.2ZM887.94 32.38L889.15 32.92L890.27 33.66L891.26 34.56L892.11 35.61L892.8 36.78L893.32 38.08L893.64 39.46L893.75 40.92L893.64 42.38L893.32 43.76L892.8 45.05L892.11 46.23L891.26 47.28L890.27 48.18L889.15 48.91L887.94 49.46L886.63 49.8L885.25 49.92L883.87 49.8L882.56 49.46L881.35 48.91L880.23 48.18L879.24 47.28L878.39 46.23L877.7 45.05L877.18 43.76L876.86 42.38L876.75 40.92L876.86 39.46L877.18 38.08L877.7 36.78L878.39 35.61L879.24 34.56L880.23 33.66L881.35 32.92L882.56 32.38L883.87 32.04L885.25 31.92L886.63 32.04L887.94 32.38ZM1000.11 9.17L1001.36 9.48L1002.56 9.9L1003.71 10.42L1004.79 11.05L1005.82 11.77L1006.77 12.58L1007.65 13.48L1008.45 14.45L1009.16 15.49L1009.77 16.6L1010.29 17.77L1010.7 18.99L1011 20.26L1011.19 21.57L1011.25 22.92L1011.19 24.27L1011 25.58L1010.7 26.85L1010.29 28.07L1009.77 29.24L1009.16 30.35L1008.45 31.39L1007.65 32.36L1006.77 33.25L1005.82 34.06L1004.79 34.79L1003.71 35.41L1002.56 35.94L1001.36 36.36L1000.11 36.67L998.82 36.85L997.5 36.92L996.18 36.85L994.89 36.67L993.64 36.36L992.44 35.94L991.29 35.41L990.21 34.79L989.18 34.06L988.23 33.25L987.35 32.36L986.55 31.39L985.84 30.35L985.23 29.24L984.71 28.07L984.3 26.85L984 25.58L983.81 24.27L983.75 22.92L983.81 21.57L984 20.26L984.3 18.99L984.71 17.77L985.23 16.6L985.84 15.49L986.55 14.45L987.35 13.48L988.23 12.58L989.18 11.77L990.21 11.05L991.29 10.42L992.44 9.9L993.64 9.48L994.89 9.17L996.18 8.98L997.5 8.92L998.82 8.98L1000.11 9.17Z" id="a344d1UGgs"></path></defs><g><g><g><g><filter id="shadow8863654" x="-194.37" y="1.92" width="1620.66" height="330" filterUnits="userSpaceOnUse" primitiveUnits="userSpaceOnUse"><feFlood></feFlood><feComposite in2="SourceAlpha" operator="in"></feComposite><feGaussianBlur stdDeviation="1"></feGaussianBlur><feOffset dx="0" dy="0" result="afterOffset"></feOffset><feFlood flood-color="#000000" flood-opacity="0.5"></feFlood><feComposite in2="afterOffset" operator="in"></feComposite><feMorphology operator="dilate" radius="0"></feMorphology><feComposite in2="SourceAlpha" operator="out"></feComposite></filter><path d="M347.29 29.98L349.09 30.23L350.87 30.58L352.64 31.02L354.37 31.56L356.08 32.18L357.76 32.9L359.42 33.7L361.04 34.59L362.63 35.56L364.19 36.61L365.71 37.74L367.2 38.94L368.64 40.23L370.05 41.58L371.42 43.01L372.75 44.51L374.03 46.07L374.27 46.38L374.6 45.98L375.48 45.08L376.43 44.27L377.46 43.55L378.54 42.92L379.69 42.4L380.89 41.98L382.14 41.67L383.43 41.48L384.75 41.42L386.07 41.48L387.36 41.67L388.61 41.98L389.81 42.4L390.96 42.92L392.04 43.55L393.07 44.27L394.02 45.08L394.9 45.98L395.7 46.95L396.41 47.99L397.02 49.1L397.54 50.27L397.95 51.49L398.25 52.76L398.44 54.07L398.5 55.42L398.44 56.77L398.25 58.08L397.95 59.35L397.54 60.57L397.02 61.74L396.41 62.85L395.7 63.89L394.9 64.86L394.02 65.75L393.07 66.56L392.04 67.29L390.96 67.91L389.81 68.44L388.61 68.86L387.36 69.17L386.07 69.35L385.53 69.38L386.11 71.61L386.63 73.91L387.09 76.24L387.48 78.61L387.81 81.02L388.06 83.45L388.19 85.14L388.95 84.95L390.11 84.78L391.29 84.73L392.47 84.78L393.63 84.95L394.75 85.23L395.85 85.61L396.91 86.1L397.93 86.67L398.92 87.34L399.85 88.1L400.74 88.94L401.58 89.85L402.36 90.84L403.08 91.9L403.74 93.03L404.34 94.22L404.87 95.46L405.32 96.76L405.7 98.1L405.9 99.02L406.25 99.04L409.8 99.4L413.31 99.9L416.77 100.54L420.19 101.32L423.55 102.22L426.86 103.25L430.12 104.41L432.46 105.35L432.01 104.1L431.63 102.76L431.33 101.37L431.11 99.94L430.98 98.47L430.93 96.98L430.96 96.01L430.26 95.97L429.11 95.8L427.98 95.52L426.88 95.14L425.82 94.66L424.8 94.08L423.82 93.41L422.88 92.66L421.99 91.82L421.16 90.9L420.37 89.91L419.65 88.85L418.99 87.72L418.39 86.54L417.87 85.29L417.41 84L417.03 82.65L416.73 81.26L416.51 79.83L416.38 78.37L416.33 76.87L416.38 75.38L416.51 73.91L416.73 72.48L417.03 71.09L417.41 69.75L417.87 68.45L418.39 67.21L418.99 66.02L419.65 64.89L420.38 63.83L421.16 62.84L421.99 61.93L422.88 61.09L423.82 60.33L424.8 59.66L425.82 59.09L426.88 58.6L427.98 58.22L429.11 57.94L430.26 57.77L431.44 57.71L432.62 57.77L433.78 57.94L434.91 58.22L436 58.6L437.06 59.09L438.09 59.66L439.07 60.33L440.01 61.09L440.89 61.93L441.73 62.84L442.51 63.83L443.23 64.89L443.9 66.02L444.49 67.21L445.02 68.45L445.47 69.75L445.86 71.09L446.16 72.48L446.38 73.91L446.51 75.38L446.56 76.87L446.53 77.84L447.23 77.88L448.38 78.05L449.51 78.33L450.61 78.71L451.13 78.95L451.23 78.52L451.82 76.26L452.46 74.05L453.18 71.87L453.94 69.75L454.77 67.67L455.66 65.64L456.6 63.66L457.59 61.73L458.63 59.86L459.73 58.05L460.87 56.3L462.07 54.61L463.3 52.98L464.59 51.42L465.92 49.92L467.28 48.49L468.69 47.14L470.14 45.86L471.63 44.65L473.15 43.52L474.71 42.47L476.3 41.5L477.92 40.61L479.58 39.81L481.26 39.09L482.97 38.47L484.7 37.93L486.46 37.49L488.25 37.14L490.05 36.89L491.88 36.74L493.72 36.69L495.57 36.74L497.39 36.89L499.2 37.14L500.98 37.49L502.74 37.93L504.48 38.47L506.19 39.09L507.87 39.81L509.52 40.61L511.15 41.5L512.74 42.47L514.3 43.52L515.82 44.65L517.3 45.86L518.75 47.14L520.16 48.49L521.53 49.92L522.86 51.42L524.14 52.98L525.38 54.61L526.57 56.3L527.72 58.05L528.81 59.87L529.86 61.74L530.85 63.66L531.79 65.64L532.67 67.67L533.5 69.75L534.27 71.88L534.98 74.05L535.63 76.27L536.22 78.52L536.74 80.82L537.2 83.16L537.59 85.53L537.92 87.93L538.17 90.37L538.35 92.83L538.46 95.33L538.5 97.84L538.46 100.36L538.35 102.86L538.34 102.99L538.57 103.36L539.61 105.23L540.6 107.15L541.54 109.13L542.43 111.16L543.25 113.24L544.02 115.37L544.26 116.1L545 115.51L545.98 114.84L547 114.26L548.06 113.78L549.16 113.4L550.28 113.12L551.44 112.95L552.62 112.89L553.8 112.95L554.96 113.12L556.08 113.4L557.18 113.78L558.24 114.27L559.26 114.84L560.25 115.51L561.18 116.27L562.07 117.11L562.91 118.02L563.69 119.01L564.41 120.07L565.07 121.2L565.67 122.39L565.85 122.8L566.48 121.91L567.71 120.28L569 118.72L570.32 117.22L571.69 115.8L573.1 114.44L574.55 113.16L576.04 111.95L577.56 110.82L579.12 109.77L580 109.24L579.97 109.17L579.51 107.87L579.13 106.53L578.83 105.14L578.61 103.71L578.48 102.24L578.43 100.75L578.48 99.25L578.61 97.79L578.83 96.36L579.13 94.97L579.51 93.62L579.97 92.33L580.5 91.08L581.09 89.9L581.75 88.77L582.48 87.71L583.26 86.72L584.09 85.8L584.98 84.96L585.92 84.21L586.9 83.54L587.92 82.96L588.98 82.48L590.08 82.1L591.21 81.82L592.36 81.65L593.54 81.59L594.72 81.65L595.88 81.82L597.01 82.1L598.1 82.48L599.16 82.96L600.19 83.54L601.17 84.21L602.11 84.96L602.99 85.8L603.83 86.72L604.61 87.71L605.33 88.77L606 89.9L606.59 91.08L607.12 92.33L607.58 93.62L607.96 94.97L608.26 96.36L608.48 97.79L608.61 99.25L608.66 100.75L608.61 102.25L608.48 103.71L608.26 105.14L608.17 105.55L608.89 105.77L610.6 106.4L612.28 107.11L613.93 107.91L615.56 108.8L617.15 109.77L618.7 110.82L620.23 111.95L621.71 113.16L623.16 114.44L623.32 114.6L623.31 114.39L623.26 112.9L623.31 111.4L623.44 109.93L623.66 108.51L623.96 107.12L624.34 105.77L624.8 104.47L625.32 103.23L625.92 102.04L626.58 100.92L627.31 99.86L628.09 98.87L628.92 97.95L629.81 97.11L630.75 96.36L631.73 95.69L632.75 95.11L633.81 94.63L634.91 94.25L636.04 93.97L637.19 93.8L638.36 93.74L638.4 93.49L638.76 92.04L639.25 90.68L639.85 89.42L640.56 88.29L641.37 87.29L642.26 86.45L643.23 85.76L644.26 85.26L645.36 84.94L646.5 84.84L647.63 84.94L648.73 85.26L649.76 85.76L650.73 86.45L651.62 87.29L652.43 88.29L653.14 89.42L653.74 90.68L654.23 92.04L654.59 93.49L654.81 95.03L654.89 96.62L654.81 98.22L654.59 99.76L654.23 101.21L653.74 102.57L653.14 103.83L652.43 104.96L652.21 105.23L652.4 105.77L652.79 107.12L653.09 108.51L653.31 109.94L653.44 111.4L653.49 112.9L653.44 114.39L653.31 115.86L653.09 117.29L652.78 118.68L652.4 120.02L652.02 121.11L652.25 121.07L655.76 120.56L659.31 120.2L662.9 119.98L664.18 119.96L664.18 119.91L664.23 118.41L664.36 116.95L664.58 115.52L664.88 114.13L665.26 112.78L665.72 111.49L666.25 110.24L666.84 109.05L667.5 107.93L668.23 106.87L669.01 105.88L669.85 104.96L670.73 104.12L671.67 103.37L672.65 102.7L673.67 102.12L674.74 101.64L675.83 101.26L676.96 100.98L678.12 100.81L679.3 100.75L680.48 100.81L681.63 100.98L682.76 101.26L683.86 101.64L684.92 102.12L685.94 102.7L686.92 103.37L687.65 103.96L687.89 103.22L688.66 101.1L689.49 99.02L690.37 96.99L690.83 96.03L690.57 95.51L690.06 94.37L689.58 93.21L689.16 92.03L688.78 90.83L688.45 89.61L688.16 88.36L687.93 87.11L687.74 85.83L687.61 84.54L687.53 83.24L687.5 81.92L687.53 80.6L687.61 79.3L687.74 78.01L687.93 76.73L688.16 75.47L688.45 74.23L688.78 73.01L689.16 71.81L689.58 70.63L690.06 69.47L690.57 68.33L691.13 67.22L691.73 66.13L692.37 65.07L693.05 64.03L693.77 63.03L694.53 62.05L695.33 61.1L696.16 60.18L697.02 59.3L697.92 58.44L698.85 57.63L699.82 56.84L700.81 56.1L701.83 55.39L702.89 54.72L703.96 54.08L705.07 53.49L706.2 52.94L707.35 52.44L708.53 51.97L709.73 51.55L710.95 51.18L712.19 50.85L713.45 50.57L714.73 50.34L716.03 50.16L717.34 50.03L718.66 49.95L720 49.92L721.34 49.95L722.66 50.03L723.97 50.16L725.27 50.34L726.55 50.57L727.81 50.85L729.05 51.18L730.27 51.55L731.47 51.97L732.65 52.44L733.8 52.94L734.93 53.49L736.04 54.08L737.11 54.72L738.17 55.39L739.19 56.1L740.18 56.84L741.15 57.63L742.08 58.44L742.98 59.3L743.84 60.18L744.67 61.1L745.47 62.05L746.23 63.03L746.95 64.03L747.63 65.07L748.27 66.13L748.87 67.22L749.43 68.33L749.94 69.47L750.42 70.63L750.84 71.81L751.22 73.01L751.55 74.23L751.84 75.47L752.07 76.73L752.13 77.12L752.23 77.09L753.81 76.59L755.41 76.15L757.04 75.78L758.69 75.48L760.36 75.23L762.06 75.06L763.77 74.95L765.5 74.92L767.23 74.95L768.94 75.06L770.64 75.23L772.31 75.48L773.87 75.77L774.05 74.99L774.46 73.77L774.98 72.6L775.59 71.49L776.3 70.45L777.1 69.48L777.98 68.58L778.93 67.77L779.96 67.05L781.04 66.42L782.19 65.9L783.39 65.48L784.64 65.17L785.93 64.98L787.25 64.92L788.57 64.98L789.86 65.17L791.11 65.48L792.31 65.9L793.46 66.42L794.54 67.05L795.57 67.77L796.52 68.58L797.4 69.48L798.2 70.45L798.91 71.49L799.52 72.6L800.04 73.77L800.45 74.99L800.75 76.26L800.94 77.57L801 78.92L800.94 80.27L800.75 81.58L800.45 82.85L800.04 84.07L799.52 85.24L798.91 86.35L798.2 87.39L797.4 88.36L796.74 89.03L797.38 89.77L798.41 91.03L799.39 92.33L800.32 93.66L801.2 95.04L802.03 96.45L802.81 97.89L803.53 99.37L804.2 100.88L804.75 102.28L805.12 102.01L806.14 101.33L807.2 100.71L808.3 100.15L809.42 99.64L810.58 99.19L811.76 98.81L812.96 98.5L814.19 98.25L815.44 98.07L816.71 97.96L818 97.92L819.29 97.96L820.56 98.07L821.81 98.25L823.04 98.5L824.24 98.81L825.42 99.19L826.58 99.64L827.7 100.15L828.8 100.71L829.86 101.33L830.88 102.01L831.88 102.75L832.83 103.53L833.74 104.36L834.61 105.24L835.44 106.17L836.23 107.14L836.96 108.16L837.65 109.21L838.29 110.31L838.88 111.43L839.41 112.6L839.88 113.79L840.3 115.02L840.66 116.28L840.79 116.84L841.42 116.87L845.5 116.92L849.58 116.87L853.61 116.71L857.61 116.44L858.47 116.36L858.3 115.85L858 114.58L857.81 113.27L857.75 111.92L857.81 110.57L858 109.26L858.3 107.99L858.71 106.77L859.23 105.6L859.84 104.49L860.55 103.45L861.35 102.48L862.23 101.58L863.18 100.77L864.21 100.05L865.29 99.42L866.44 98.9L867.64 98.48L868.89 98.17L870.18 97.98L871.5 97.92L872.82 97.98L874.11 98.17L875.36 98.48L876.56 98.9L877.33 99.25L877.8 98.27L878.68 96.57L879.61 94.92L880.59 93.32L881.62 91.76L882.69 90.26L883.81 88.8L884.97 87.41L886.17 86.06L887.42 84.78L888.7 83.55L890.02 82.39L891.38 81.29L892.78 80.25L894.21 79.28L895.67 78.38L897.16 77.55L898.68 76.79L900.23 76.1L901.81 75.48L903.41 74.95L905.04 74.49L906.69 74.11L908.36 73.81L910.06 73.59L911.77 73.46L913.5 73.42L915.23 73.46L916.94 73.59L918.64 73.81L920.31 74.11L921.96 74.49L923.59 74.95L925.19 75.48L926.77 76.1L928.32 76.79L929.84 77.55L931.33 78.38L932.79 79.28L934.22 80.25L935.62 81.29L936.98 82.39L938.3 83.55L939.58 84.78L940.83 86.06L942.03 87.41L943.19 88.8L944.15 90.05L944.55 89.45L945.35 88.48L946.23 87.58L947.18 86.77L948.21 86.05L949.29 85.42L950.44 84.9L951.64 84.48L952.89 84.17L954.18 83.98L955.5 83.92L956.82 83.98L958.11 84.17L959.36 84.48L960.56 84.9L961.71 85.42L962.79 86.05L963.82 86.77L964.77 87.58L965.39 88.22L965.78 88.03L967.46 87.31L969.17 86.69L970.91 86.15L972.67 85.71L974.45 85.36L976.26 85.11L978.08 84.96L979.93 84.91L981.77 84.96L983.6 85.11L985.4 85.36L987.19 85.71L988.95 86.15L990.68 86.69L992.39 87.31L994.08 88.03L995.73 88.83L997.35 89.72L998.94 90.69L1000.5 91.74L1002.02 92.87L1003.51 94.08L1004.96 95.36L1006.37 96.71L1007.74 98.14L1009.06 99.64L1010.35 101.2L1010.9 101.93L1010.94 101.9L1012.56 101.02L1014.22 100.21L1015.9 99.5L1017.61 98.87L1018.33 98.65L1018.24 98.24L1018.02 96.81L1017.89 95.35L1017.84 93.85L1017.89 92.36L1018.02 90.89L1018.24 89.46L1018.54 88.07L1018.92 86.73L1019.38 85.43L1019.91 84.19L1020.5 83L1021.16 81.87L1021.89 80.81L1022.67 79.82L1023.5 78.91L1024.39 78.07L1025.33 77.31L1026.31 76.64L1027.33 76.07L1028.4 75.58L1029.49 75.2L1030.62 74.92L1031.77 74.75L1032.96 74.7L1034.14 74.75L1035.29 74.92L1036.42 75.2L1037.51 75.58L1038.58 76.07L1039.6 76.64L1040.58 77.31L1041.52 78.07L1042.41 78.91L1043.24 79.82L1044.02 80.81L1044.75 81.87L1045.41 83L1046 84.19L1046.53 85.43L1046.99 86.73L1047.37 88.07L1047.67 89.46L1047.89 90.89L1048.02 92.36L1048.07 93.85L1048.02 95.35L1047.89 96.81L1047.67 98.24L1047.37 99.63L1046.99 100.98L1046.53 102.28L1046.5 102.34L1047.38 102.87L1048.94 103.93L1050.46 105.06L1051.94 106.26L1053.39 107.55L1054.8 108.9L1055.89 110.04L1056.35 109.48L1057.23 108.58L1058.18 107.77L1059.21 107.05L1060.29 106.42L1061.44 105.9L1062.64 105.48L1063.89 105.17L1065.18 104.98L1066.5 104.92L1067.82 104.98L1069.11 105.17L1070.36 105.48L1071.56 105.9L1072.71 106.42L1073.79 107.05L1074.82 107.77L1075.77 108.58L1076.65 109.48L1077.45 110.45L1078.16 111.49L1078.77 112.6L1079.29 113.77L1079.7 114.99L1080 116.26L1080.06 116.68L1080.67 116.56L1082.49 116.33L1084.34 116.25L1086.18 116.33L1088.01 116.56L1089.15 116.79L1088.84 116.35L1088.23 115.24L1087.71 114.07L1087.3 112.85L1087 111.58L1086.81 110.27L1086.75 108.92L1086.81 107.57L1087 106.26L1087.3 104.99L1087.71 103.77L1088.23 102.6L1088.84 101.49L1089.55 100.45L1090.35 99.48L1091.23 98.58L1092.18 97.77L1093.21 97.05L1094.29 96.42L1095.44 95.9L1096.64 95.48L1097.89 95.17L1099.18 94.98L1100.5 94.92L1101.82 94.98L1103.11 95.17L1104.36 95.48L1105.56 95.9L1106.71 96.42L1107.79 97.05L1108.82 97.77L1109.77 98.58L1110.65 99.48L1111.45 100.45L1112.16 101.49L1112.37 101.88L1113.07 101.03L1114.59 99.34L1116.15 97.77L1117.74 96.32L1119.36 95L1121.02 93.8L1122.7 92.73L1124.41 91.8L1126.14 91L1127.9 90.34L1129.69 89.82L1131.49 89.44L1133.32 89.22L1135.16 89.14L1137.01 89.22L1138.83 89.44L1140.64 89.82L1142.42 90.34L1144.18 91L1145.92 91.8L1147.63 92.73L1149.31 93.8L1150.96 95L1151.11 95.12L1151.21 95.05L1152.29 94.42L1153.44 93.9L1154.64 93.48L1155.89 93.17L1157.18 92.98L1158.5 92.92L1159.82 92.98L1161.11 93.17L1162.36 93.48L1163.56 93.9L1164.71 94.42L1164.74 94.44L1165.19 93.3L1165.97 91.52L1166.8 89.77L1167.68 88.07L1168.61 86.42L1169.59 84.82L1170.62 83.26L1171.69 81.76L1172.81 80.3L1173.97 78.91L1175.17 77.56L1176.42 76.28L1177.7 75.05L1179.02 73.89L1180.13 72.99L1180.12 72.95L1179.99 71.48L1179.94 69.98L1179.99 68.49L1180.12 67.02L1180.34 65.59L1180.64 64.2L1181.03 62.86L1181.48 61.56L1182.01 60.32L1182.6 59.13L1183.27 58.01L1183.99 56.95L1184.77 55.95L1185.61 55.04L1186.49 54.2L1187.43 53.44L1188.41 52.78L1189.44 52.2L1190.5 51.72L1191.59 51.33L1192.72 51.06L1193.88 50.89L1195.06 50.83L1196.24 50.89L1197.39 51.06L1198.52 51.33L1199.62 51.72L1200.68 52.2L1201.7 52.78L1202.68 53.44L1203.62 54.2L1204.51 55.04L1205.34 55.96L1206.12 56.95L1206.85 58.01L1207.51 59.13L1208.11 60.32L1208.63 61.56L1209.09 62.86L1209.47 64.21L1209.77 65.59L1209.79 65.72L1210.96 65.99L1212.59 66.45L1214.19 66.98L1215.77 67.6L1217.32 68.29L1218.84 69.05L1220.33 69.88L1221.79 70.78L1223.22 71.75L1224.62 72.79L1225.98 73.89L1227.3 75.05L1228.58 76.28L1229.83 77.56L1231.03 78.91L1232.19 80.3L1233.31 81.76L1234.38 83.26L1235.41 84.82L1236.39 86.42L1237.32 88.07L1238.2 89.77L1239.03 91.52L1239.81 93.3L1240.35 94.67L1241.04 93.7L1241.82 92.72L1242.65 91.78L1243.52 90.9L1244.44 90.06L1245.39 89.28L1246.37 88.56L1247.4 87.9L1248.45 87.3L1249.54 86.76L1250.66 86.28L1251.8 85.87L1252.97 85.54L1254.17 85.27L1255.38 85.08L1256.62 84.96L1257.88 84.92L1259.13 84.96L1260.37 85.08L1261.58 85.27L1262.78 85.54L1263.95 85.87L1265.09 86.28L1266.21 86.76L1267.3 87.3L1268.35 87.9L1269.38 88.56L1270.36 89.28L1270.51 89.41L1270.75 89.11L1271.58 88.2L1272.47 87.36L1273.41 86.6L1274.39 85.93L1275.41 85.36L1276.47 84.88L1277.57 84.49L1278.7 84.21L1279.85 84.04L1281.03 83.99L1282.21 84.04L1283.37 84.21L1284.5 84.49L1285.59 84.88L1286.65 85.36L1287.68 85.94L1288.66 86.6L1289.59 87.36L1290.48 88.2L1291.32 89.11L1292.1 90.1L1292.82 91.17L1293.48 92.29L1294.08 93.48L1294.61 94.72L1295.06 96.02L1295.44 97.36L1295.75 98.75L1295.97 100.18L1296.1 101.65L1296.14 103.14L1296.1 104.64L1295.96 106.11L1295.75 107.53L1295.44 108.92L1295.06 110.27L1294.61 111.57L1294.08 112.81L1293.76 113.45L1295.08 113.31L1298.67 113.09L1302.3 113.02L1305.93 113.09L1309.52 113.31L1313.08 113.67L1316.08 114.1L1316.15 113.88L1316.68 112.64L1317.28 111.45L1317.94 110.32L1318.66 109.26L1319.44 108.27L1320.28 107.36L1321.17 106.52L1322.1 105.76L1323.09 105.09L1324.11 104.52L1325.17 104.03L1326.27 103.65L1327.39 103.37L1328.55 103.2L1329.73 103.14L1330.91 103.2L1332.07 103.37L1333.13 103.64L1333.25 103.22L1333.96 101.05L1334.73 98.92L1335.56 96.84L1336.44 94.81L1337.38 92.84L1338.37 90.91L1339.42 89.04L1340.51 87.23L1341.66 85.47L1342.85 83.78L1344.09 82.15L1345.37 80.59L1346.7 79.1L1348.07 77.67L1349.48 76.31L1350.93 75.03L1352.42 73.82L1353.94 72.69L1355.5 71.64L1357.09 70.67L1358.71 69.79L1360.36 68.98L1362.04 68.27L1363.75 67.64L1365.49 67.11L1367.25 66.66L1369.03 66.32L1370.84 66.07L1372.67 65.91L1374.51 65.86L1376.35 65.91L1378.18 66.07L1379.99 66.32L1381.77 66.66L1383.53 67.11L1385.27 67.64L1386.97 68.27L1388.66 68.98L1390.31 69.79L1391.93 70.67L1393.52 71.64L1395.08 72.69L1396.6 73.82L1398.09 75.03L1399.54 76.31L1400.95 77.67L1402.32 79.1L1403.64 80.59L1404.93 82.16L1406.17 83.78L1407.36 85.48L1408.5 87.23L1409.6 89.04L1410.64 90.91L1411.64 92.84L1412.58 94.82L1413.46 96.85L1414.29 98.93L1415.06 101.05L1415.77 103.22L1416.42 105.44L1417 107.7L1417.53 110L1417.99 112.33L1418.38 114.7L1418.7 117.11L1418.96 119.54L1419.14 122.01L1419.25 124.5L1419.29 127.02L1419.25 129.54L1419.14 132.03L1418.96 134.5L1418.7 136.93L1418.38 139.34L1417.98 141.71L1417.53 144.04L1417 146.34L1416.41 148.6L1415.77 150.81L1415.05 152.99L1414.29 155.11L1413.46 157.19L1412.57 159.22L1411.63 161.2L1410.64 163.13L1409.6 165L1408.5 166.81L1407.36 168.56L1406.16 170.25L1404.93 171.88L1403.64 173.45L1402.31 174.94L1400.95 176.37L1399.54 177.72L1398.09 179.01L1396.6 180.21L1395.08 181.34L1393.52 182.4L1391.93 183.37L1390.31 184.25L1388.86 184.96L1389.25 187.1L1389.75 190.63L1390.11 194.19L1390.33 197.79L1390.4 201.44L1390.33 205.08L1390.11 208.68L1389.75 212.25L1389.25 215.77L1388.61 219.25L1387.84 222.67L1386.94 226.05L1385.91 229.37L1384.75 232.64L1383.47 235.84L1382.08 238.98L1380.56 242.06L1378.93 245.06L1377.19 248L1375.35 250.86L1373.39 253.64L1371.34 256.34L1369.18 258.96L1366.93 261.5L1364.58 263.94L1362.15 266.3L1359.62 268.56L1357.01 270.72L1354.32 272.78L1351.54 274.74L1348.69 276.6L1345.77 278.34L1342.77 279.98L1339.71 281.5L1336.58 282.9L1333.38 284.18L1330.13 285.34L1326.82 286.38L1323.46 287.28L1320.04 288.05L1316.58 288.69L1313.07 289.2L1309.52 289.56L1305.93 289.78L1302.3 289.85L1298.67 289.78L1295.08 289.56L1291.52 289.2L1288.01 288.69L1284.55 288.05L1281.14 287.28L1277.77 286.37L1274.46 285.34L1271.21 284.18L1268.02 282.9L1264.89 281.5L1261.82 279.98L1258.83 278.34L1255.9 276.6L1253.05 274.74L1250.28 272.78L1247.59 270.72L1244.97 268.56L1242.45 266.3L1240.01 263.94L1237.67 261.5L1235.41 258.96L1233.26 256.34L1231.2 253.64L1229.25 250.85L1227.4 247.99L1225.66 245.06L1224.04 242.05L1222.53 238.99L1221.21 240.16L1219.72 241.36L1218.2 242.49L1216.64 243.55L1215.05 244.52L1213.43 245.4L1211.77 246.21L1210.09 246.92L1208.38 247.55L1206.65 248.08L1204.89 248.52L1203.1 248.87L1201.3 249.12L1199.47 249.27L1197.63 249.32L1195.78 249.27L1193.96 249.12L1192.15 248.87L1190.37 248.52L1188.61 248.08L1186.87 247.55L1185.16 246.92L1183.48 246.2L1181.83 245.4L1180.2 244.52L1178.61 243.54L1177.06 242.49L1175.53 241.36L1174.05 240.16L1172.6 238.87L1171.19 237.52L1170.44 236.74L1170.25 237.24L1169.15 239.95L1168.01 242.57L1166.82 245.1L1165.58 247.53L1164.29 249.87L1162.97 252.1L1161.6 254.23L1160.19 256.26L1158.74 258.17L1157.25 259.98L1155.73 261.67L1154.17 263.24L1152.58 264.69L1150.96 266.01L1149.31 267.21L1147.62 268.28L1145.91 269.21L1144.18 270.01L1142.42 270.67L1140.63 271.19L1138.83 271.57L1137 271.79L1135.16 271.87L1133.31 271.79L1131.49 271.57L1129.68 271.19L1127.9 270.67L1126.14 270.01L1124.4 269.21L1122.69 268.28L1121.01 267.21L1119.36 266.01L1118.91 265.64L1118.33 267.06L1117.18 269.68L1115.99 272.21L1114.75 274.64L1113.47 276.98L1112.14 279.21L1110.77 281.35L1109.36 283.37L1107.91 285.29L1106.43 287.09L1104.91 288.78L1103.35 290.35L1101.76 291.8L1100.13 293.12L1098.48 294.32L1096.8 295.39L1095.09 296.33L1093.35 297.13L1091.59 297.79L1089.81 298.31L1088 298.68L1086.18 298.91L1084.33 298.98L1082.49 298.91L1080.66 298.68L1078.86 298.3L1077.07 297.79L1075.31 297.12L1073.58 296.32L1071.87 295.39L1070.19 294.32L1068.53 293.12L1066.91 291.8L1065.32 290.35L1063.76 288.78L1062.24 287.09L1060.75 285.29L1059.3 283.37L1057.89 281.34L1056.53 279.21L1055.2 276.98L1053.92 274.64L1052.68 272.21L1051.48 269.68L1050.34 267.06L1049.24 264.35L1048.2 261.56L1047.21 258.68L1046.27 255.73L1045.38 252.7L1044.56 249.59L1043.79 246.41L1043.08 243.17L1042.43 239.86L1041.84 236.48L1041.57 234.73L1041.14 235.83L1039.74 238.97L1038.22 242.05L1036.6 245.05L1034.86 247.99L1033.01 250.85L1031.06 253.63L1029 256.33L1026.84 258.95L1024.59 261.49L1022.25 263.94L1019.81 266.29L1017.28 268.55L1014.67 270.71L1011.98 272.78L1009.2 274.74L1006.35 276.59L1003.43 278.33L1000.43 279.97L997.37 281.49L994.24 282.89L991.05 284.17L987.79 285.33L984.48 286.37L981.12 287.27L977.71 288.05L974.24 288.68L970.73 289.19L967.18 289.55L963.59 289.77L962.39 289.79L959.73 291.83L956.96 293.79L954.11 295.64L951.19 297.39L948.19 299.02L945.13 300.54L942 301.94L938.8 303.23L935.55 304.39L932.24 305.42L928.88 306.32L925.46 307.1L922 307.74L918.49 308.24L914.94 308.6L911.34 308.82L907.72 308.9L904.09 308.82L900.49 308.6L896.94 308.24L893.43 307.74L889.97 307.1L886.55 306.32L883.19 305.42L879.88 304.38L876.63 303.22L873.44 301.94L870.31 300.54L867.24 299.02L864.25 297.38L861.32 295.64L858.47 293.79L855.7 291.83L853 289.76L850.39 287.6L847.87 285.34L845.43 282.98L843.08 280.54L840.83 278L838.68 275.38L836.62 272.68L834.67 269.9L832.82 267.04L831.08 264.1L830.7 263.4L829.26 263.37L825.66 263.15L822.11 262.79L821.81 262.74L820.47 263.56L818.85 264.45L817.19 265.25L815.51 265.96L813.8 266.59L812.06 267.12L810.3 267.57L808.52 267.91L806.72 268.17L804.89 268.32L803.04 268.37L801.2 268.32L799.37 268.16L797.57 267.91L795.79 267.57L794.02 267.12L792.29 266.59L790.58 265.96L788.9 265.25L787.24 264.45L785.62 263.56L784.03 262.59L782.47 261.54L780.95 260.41L779.46 259.2L778.02 257.92L776.61 256.56L775.86 255.78L775.67 256.29L774.57 258.99L773.43 261.61L772.24 264.14L771 266.57L769.71 268.91L768.39 271.14L767.02 273.28L765.61 275.3L764.16 277.22L762.67 279.02L761.15 280.71L759.59 282.28L758 283.73L756.38 285.05L754.72 286.25L753.04 287.32L751.33 288.26L749.6 289.06L747.84 289.72L746.05 290.24L744.25 290.61L742.42 290.84L740.58 290.91L738.73 290.84L736.91 290.61L735.1 290.23L733.32 289.72L731.56 289.05L729.82 288.26L728.11 287.32L726.43 286.25L724.78 285.05L724.32 284.68L723.75 286.11L722.6 288.73L721.41 291.25L720.17 293.69L718.89 296.02L717.56 298.26L716.19 300.39L714.78 302.41L713.33 304.33L711.85 306.13L710.32 307.82L708.77 309.39L707.18 310.84L705.55 312.17L703.9 313.37L702.22 314.43L700.51 315.37L698.77 316.17L697.01 316.83L695.23 317.35L693.42 317.72L691.6 317.95L689.75 318.03L687.91 317.95L686.08 317.72L684.28 317.35L682.49 316.83L680.73 316.17L679 315.37L677.29 314.43L675.6 313.36L673.95 312.17L672.33 310.84L670.74 309.39L669.18 307.82L667.66 306.13L666.17 304.33L664.72 302.41L663.31 300.39L661.94 298.26L660.93 296.55L659.31 296.45L655.75 296.09L652.25 295.58L648.78 294.94L645.37 294.17L642 293.26L638.69 292.23L635.44 291.07L632.25 289.79L629.12 288.39L626.05 286.87L624.48 286.01L622.7 287.59L620.09 289.76L617.4 291.82L614.62 293.78L611.77 295.63L608.85 297.38L605.85 299.01L602.79 300.53L599.66 301.93L596.46 303.22L593.21 304.38L589.9 305.41L586.54 306.32L583.12 307.09L579.66 307.73L576.15 308.23L572.6 308.59L569.01 308.81L565.38 308.89L561.75 308.81L558.16 308.59L554.6 308.23L551.09 307.73L547.63 307.09L544.22 306.31L542.53 305.86L542.15 305.88L540.31 305.8L538.48 305.57L536.68 305.2L534.89 304.68L533.13 304.02L531.4 303.22L529.69 302.28L528.01 301.21L526.35 300.02L525.46 299.29L524.9 299.01L521.91 297.38L518.98 295.63L516.13 293.78L513.36 291.82L510.67 289.75L508.05 287.59L505.53 285.33L503.09 282.98L500.75 280.53L498.49 277.99L498.23 277.67L496.81 278.08L495 278.46L493.17 278.68L491.33 278.76L489.49 278.68L487.66 278.46L485.85 278.08L484.07 277.56L482.31 276.9L480.57 276.1L478.86 275.17L477.18 274.1L476.61 273.69L475.71 274.13L472.58 275.53L469.39 276.82L466.14 277.98L462.83 279.01L459.46 279.92L456.05 280.69L452.59 281.33L449.08 281.83L445.52 282.19L441.93 282.41L438.3 282.49L434.67 282.41L431.08 282.19L427.53 281.83L424.02 281.33L420.56 280.69L417.14 279.91L413.78 279.01L410.47 277.98L407.22 276.82L404.02 275.53L403.8 275.43L402.65 275.5L399.02 275.58L395.39 275.5L391.8 275.28L388.25 274.92L384.74 274.42L383.01 274.1L381.51 275.44L378.9 277.6L376.21 279.67L373.44 281.63L370.59 283.48L367.66 285.23L364.67 286.86L361.6 288.38L358.47 289.78L355.28 291.06L352.03 292.22L348.72 293.26L345.35 294.16L341.94 294.94L338.47 295.58L334.96 296.08L331.41 296.44L327.82 296.66L326.62 296.68L323.97 298.72L321.19 300.68L318.34 302.53L315.42 304.28L312.42 305.91L309.36 307.43L306.23 308.83L303.03 310.12L299.78 311.28L296.47 312.31L293.11 313.21L289.69 313.99L286.23 314.63L282.72 315.13L279.17 315.49L275.58 315.71L271.95 315.79L268.32 315.71L264.73 315.49L261.17 315.13L257.66 314.63L254.2 313.99L250.79 313.21L247.42 312.31L244.11 311.27L240.86 310.11L237.67 308.83L234.54 307.43L231.47 305.91L228.48 304.28L225.55 302.53L222.7 300.68L219.93 298.72L217.23 296.65L214.62 294.49L212.1 292.23L209.66 289.88L207.32 287.43L205.06 284.89L202.91 282.27L200.85 279.57L198.9 276.79L197.05 273.93L195.31 270.99L193.68 267.98L192.17 264.91L190.77 261.77L190.34 260.67L190.07 262.42L189.48 265.79L188.83 269.1L188.12 272.35L187.35 275.53L186.52 278.63L185.64 281.67L184.7 284.62L183.71 287.5L182.66 290.29L181.57 293L180.42 295.62L179.23 298.15L177.99 300.58L176.71 302.92L175.38 305.15L174.01 307.28L172.6 309.31L171.15 311.22L169.67 313.03L168.14 314.72L166.59 316.29L165 317.73L163.37 319.06L161.72 320.26L160.04 321.33L158.33 322.26L156.59 323.06L154.83 323.72L153.05 324.24L151.24 324.62L149.42 324.84L147.57 324.92L145.73 324.84L143.9 324.62L142.1 324.24L140.31 323.72L138.55 323.06L136.82 322.26L135.11 321.33L133.42 320.26L131.77 319.06L130.15 317.73L128.56 316.28L127 314.71L125.48 313.03L123.99 311.22L122.54 309.31L121.13 307.28L119.76 305.15L118.44 302.91L117.15 300.58L115.92 298.15L114.72 295.62L113.58 293L113 291.57L112.55 291.94L110.9 293.14L109.21 294.21L107.5 295.15L105.77 295.95L104.01 296.61L102.22 297.13L100.42 297.5L98.59 297.73L96.75 297.8L94.9 297.73L93.08 297.5L91.27 297.13L89.49 296.61L87.73 295.95L85.99 295.15L84.28 294.21L82.6 293.14L80.95 291.94L79.33 290.62L77.73 289.17L76.18 287.6L74.65 285.91L73.17 284.11L71.72 282.19L70.31 280.16L68.94 278.03L67.61 275.8L66.33 273.46L65.09 271.03L63.9 268.5L62.75 265.88L61.66 263.17L61.47 262.67L60.72 263.45L59.31 264.81L57.86 266.09L56.38 267.29L54.85 268.43L53.3 269.48L51.7 270.45L50.08 271.33L48.43 272.14L46.75 272.85L45.04 273.48L43.3 274.01L41.54 274.45L39.76 274.8L37.95 275.05L36.13 275.2L34.28 275.25L32.44 275.2L30.61 275.05L28.81 274.8L27.02 274.45L25.26 274.01L23.53 273.48L21.82 272.85L20.13 272.13L18.48 271.33L16.86 270.45L15.27 269.48L13.71 268.42L12.19 267.29L10.7 266.09L9.38 264.92L7.87 267.98L6.25 270.99L4.51 273.92L2.66 276.78L0.7 279.57L-1.35 282.27L-3.51 284.89L-5.76 287.42L-8.1 289.87L-10.54 292.22L-13.07 294.48L-15.68 296.65L-18.37 298.71L-21.15 300.67L-24 302.52L-26.92 304.27L-29.92 305.9L-32.98 307.42L-36.11 308.82L-39.3 310.11L-42.56 311.27L-45.87 312.3L-49.23 313.21L-52.64 313.98L-56.11 314.62L-59.62 315.12L-63.17 315.48L-66.76 315.7L-70.39 315.78L-74.02 315.7L-77.61 315.48L-81.16 315.12L-84.67 314.62L-88.14 313.98L-91.55 313.2L-94.92 312.3L-98.23 311.27L-101.48 310.11L-104.67 308.82L-107.8 307.42L-110.87 305.9L-113.86 304.27L-116.79 302.52L-119.64 300.67L-122.41 298.71L-125.1 296.64L-127.71 294.48L-130.24 292.22L-132.68 289.87L-135.02 287.42L-137.27 284.89L-139.43 282.26L-141.49 279.56L-143.44 276.78L-145.29 273.92L-147.02 270.98L-148.65 267.98L-150.17 264.9L-151.56 261.76L-152.84 258.56L-154 255.29L-155.03 251.97L-155.93 248.59L-156.7 245.17L-157.34 241.69L-157.84 238.17L-158.2 234.6L-158.42 231L-158.49 227.36L-158.42 223.71L-158.2 220.11L-157.84 216.54L-157.34 213.02L-156.94 210.88L-158.4 210.17L-160.02 209.29L-161.61 208.32L-163.17 207.26L-164.69 206.13L-166.18 204.93L-167.62 203.64L-169.03 202.29L-170.4 200.86L-171.73 199.37L-173.01 197.8L-174.25 196.17L-175.44 194.48L-176.59 192.73L-177.68 190.92L-178.73 189.05L-179.72 187.12L-180.66 185.14L-181.54 183.11L-182.37 181.03L-183.14 178.91L-183.85 176.73L-184.5 174.52L-185.09 172.26L-185.61 169.96L-186.07 167.63L-186.46 165.26L-186.79 162.85L-187.04 160.42L-187.22 157.95L-187.34 155.46L-187.37 152.94L-187.34 150.42L-187.22 147.93L-187.04 145.46L-186.79 143.02L-186.46 140.62L-186.07 138.25L-185.61 135.91L-185.09 133.62L-184.5 131.36L-183.85 129.14L-183.14 126.97L-182.37 124.84L-181.54 122.76L-180.66 120.73L-179.72 118.76L-178.73 116.83L-177.68 114.96L-176.59 113.15L-175.44 111.4L-174.25 109.7L-173.01 108.08L-171.73 106.51L-170.4 105.02L-169.03 103.59L-167.62 102.23L-166.17 100.95L-164.69 99.74L-163.16 98.61L-161.61 97.56L-160.01 96.59L-158.39 95.71L-156.74 94.9L-155.06 94.19L-153.35 93.56L-151.61 93.03L-149.85 92.59L-148.07 92.24L-146.26 91.99L-144.44 91.84L-142.59 91.78L-140.75 91.84L-138.92 91.99L-137.12 92.24L-135.33 92.59L-133.57 93.03L-131.84 93.56L-130.13 94.19L-128.44 94.9L-126.79 95.71L-125.17 96.59L-123.58 97.56L-122.02 98.62L-120.5 99.75L-119.01 100.95L-117.56 102.24L-116.15 103.59L-114.78 105.02L-113.46 106.51L-112.17 108.08L-110.93 109.71L-109.74 111.4L-108.6 113.15L-107.5 114.96L-106.46 116.83L-105.47 118.76L-104.53 120.74L-103.64 122.77L-102.81 124.85L-102.04 126.97L-101.33 129.15L-101.21 129.56L-100.15 129.3L-98.99 129.13L-97.81 129.07L-96.63 129.13L-95.48 129.3L-94.35 129.57L-93.25 129.96L-92.19 130.44L-91.17 131.02L-90.19 131.69L-89.25 132.44L-88.36 133.28L-87.53 134.2L-86.75 135.19L-86.02 136.25L-85.36 137.37L-84.77 138.56L-84.24 139.8L-84.16 140.03L-81.16 139.6L-77.61 139.24L-74.02 139.02L-70.39 138.94L-66.76 139.02L-63.16 139.24L-61.85 139.37L-62.16 138.73L-62.69 137.49L-63.15 136.19L-63.53 134.85L-63.83 133.46L-64.05 132.03L-64.18 130.57L-64.23 129.07L-64.18 127.57L-64.05 126.11L-63.83 124.68L-63.53 123.29L-63.15 121.94L-62.69 120.65L-62.16 119.4L-61.57 118.22L-60.91 117.09L-60.18 116.03L-59.4 115.04L-58.57 114.12L-57.68 113.28L-56.74 112.53L-55.76 111.86L-54.74 111.28L-53.67 110.8L-52.58 110.42L-51.45 110.14L-50.3 109.97L-49.12 109.91L-47.94 109.97L-46.78 110.14L-45.65 110.42L-44.56 110.8L-43.49 111.28L-42.47 111.86L-41.49 112.53L-40.55 113.29L-39.67 114.12L-39.37 114.44L-39.36 114.06L-39.13 112.53L-38.77 111.07L-38.28 109.71L-37.68 108.46L-36.97 107.33L-36.16 106.33L-35.27 105.48L-34.3 104.8L-33.27 104.29L-32.17 103.98L-31.04 103.87L-29.9 103.98L-28.8 104.29L-27.77 104.8L-26.8 105.48L-25.91 106.33L-25.1 107.33L-24.39 108.46L-23.79 109.71L-23.3 111.07L-22.94 112.53L-22.72 114.06L-22.64 115.66L-22.72 117.26L-22.94 118.79L-23.3 120.25L-23.79 121.61L-24.39 122.86L-25.1 123.99L-25.91 124.99L-26.8 125.84L-27.77 126.52L-28.81 127.03L-29.9 127.34L-31.04 127.45L-32.17 127.34L-33.27 127.03L-34.14 126.6L-34.05 127.57L-34 129.07L-34.05 130.57L-34.18 132.03L-34.4 133.46L-34.7 134.85L-35.08 136.19L-35.54 137.49L-36.07 138.74L-36.66 139.92L-37.33 141.05L-38.05 142.11L-38.83 143.1L-39.67 144.02L-40.02 144.35L-39.3 144.61L-36.11 145.9L-32.98 147.3L-29.91 148.82L-26.92 150.45L-23.99 152.2L-21.14 154.05L-18.37 156.01L-16.27 157.62L-16.27 157.49L-16.14 156.02L-15.92 154.59L-15.61 153.21L-15.23 151.86L-14.78 150.56L-14.25 149.32L-13.65 148.13L-12.99 147.01L-12.27 145.95L-11.49 144.96L-10.65 144.04L-9.76 143.2L-8.83 142.44L-7.85 141.78L-6.82 141.2L-5.76 140.72L-4.67 140.33L-4.64 140.33L-4.7 140.07L-4.99 138.58L-5.21 137.07L-5.37 135.53L-5.47 133.98L-5.5 132.42L-5.47 130.85L-5.37 129.3L-5.21 127.77L-4.99 126.26L-4.7 124.76L-4.36 123.29L-3.96 121.84L-3.5 120.41L-2.98 119.01L-2.41 117.63L-1.79 116.28L-1.12 114.96L-0.39 113.67L0.38 112.41L1.21 111.18L2.08 109.98L2.99 108.82L3.95 107.69L4.96 106.61L6 105.55L7.09 104.54L8.21 103.57L9.38 102.64L10.58 101.75L11.81 100.91L13.08 100.12L14.38 99.37L15.72 98.66L17.08 98.01L18.48 97.41L19.9 96.86L21.35 96.36L21.76 96.23L21.75 95.91L21.79 94.42L21.93 92.95L22.15 91.52L22.45 90.14L22.83 88.79L23.29 87.49L23.81 86.25L24.41 85.06L25.07 83.94L25.79 82.88L26.58 81.89L27.41 80.97L28.3 80.13L29.24 79.37L30.22 78.71L31.24 78.13L32.3 77.65L33.4 77.26L34.53 76.99L35.68 76.82L36.86 76.76L38.04 76.82L39.2 76.99L40.33 77.26L41.42 77.65L42.48 78.13L43.51 78.71L44.49 79.38L45.42 80.13L46.31 80.97L47.15 81.89L47.93 82.88L48.65 83.94L49.31 85.06L49.91 86.25L50.44 87.49L50.89 88.79L51.27 90.14L51.57 91.53L51.79 92.95L51.93 94.42L51.97 95.92L51.93 97.41L51.81 98.68L53.12 99.37L54.42 100.12L55.69 100.91L56.92 101.75L58.12 102.64L59.29 103.57L60.41 104.54L60.49 104.61L60.6 104.48L61.48 103.58L62.43 102.77L63.46 102.05L64.54 101.42L65.69 100.9L66.89 100.48L68.14 100.17L69.43 99.98L70.75 99.92L72.07 99.98L73.36 100.17L74.61 100.48L75.81 100.9L76.96 101.42L78.04 102.05L79.07 102.77L80.02 103.58L80.9 104.48L81.7 105.45L82.41 106.49L83.02 107.6L83.54 108.77L83.95 109.99L84.25 111.26L84.44 112.57L84.5 113.92L84.44 115.27L84.25 116.58L83.95 117.85L83.54 119.07L83.49 119.17L84.29 118.67L86 117.73L87.73 116.93L89.49 116.27L91.28 115.75L93.08 115.38L94.91 115.15L95.88 115.11L96.24 114.05L96.69 112.9L97.18 111.77L97.72 110.67L98.31 109.59L98.94 108.53L99 108.43L97.96 107.97L96.87 107.4L95.81 106.76L94.79 106.06L93.82 105.31L92.89 104.49L92.01 103.62L91.18 102.69L90.4 101.72L89.67 100.7L89.01 99.63L88.4 98.52L87.86 97.37L87.38 96.19L86.97 94.96L86.63 93.71L86.36 92.43L86.16 91.11L86.04 89.78L86 88.42L86.04 87.06L86.16 85.72L86.36 84.41L86.63 83.13L86.97 81.87L87.38 80.65L87.86 79.46L88.4 78.32L89.01 77.21L89.67 76.14L90.4 75.12L91.18 74.14L92.01 73.22L92.89 72.35L93.82 71.53L94.79 70.77L95.81 70.07L96.87 69.44L97.96 68.87L99.09 68.37L100.26 67.94L101.45 67.58L102.68 67.29L103.93 67.09L105.2 66.96L106.5 66.92L107.8 66.96L109.07 67.09L110.32 67.29L111.55 67.58L112.74 67.94L113.91 68.37L115.04 68.87L116.13 69.44L117.19 70.07L118.21 70.77L119.18 71.53L120.11 72.35L120.99 73.22L121.82 74.14L122.6 75.12L123.33 76.14L123.99 77.21L124.6 78.32L125.14 79.46L125.62 80.65L126.03 81.87L126.37 83.13L126.64 84.41L126.84 85.72L126.96 87.06L127 88.42L126.96 89.78L126.84 91.11L126.64 92.43L126.43 93.43L127 93.42L127.85 93.44L128 93.04L128.68 91.41L129.42 89.81L130.22 88.25L131.09 86.72L132.01 85.22L132.99 83.77L134.03 82.35L135.12 80.97L136.26 79.64L137.45 78.35L138.7 77.11L139.99 75.91L141.33 74.76L142.72 73.66L144.15 72.61L145.42 71.75L144.58 71.39L143.49 70.83L142.44 70.2L141.44 69.49L140.5 68.71L139.6 67.86L138.76 66.95L137.99 65.97L137.28 64.95L136.63 63.86L136.06 62.73L135.56 61.55L135.14 60.33L134.8 59.07L134.54 57.78L134.37 56.45L134.3 55.09L134.31 53.74L134.43 52.4L134.63 51.1L134.91 49.82L135.28 48.59L135.73 47.39L136.25 46.23L136.85 45.13L137.52 44.07L138.25 43.06L139.05 42.12L139.91 41.23L140.82 40.41L141.79 39.66L142.8 38.97L143.87 38.37L144.98 37.84L146.13 37.4L147.31 37.04L148.53 36.77L149.79 36.6L151.06 36.52L152.34 36.54L153.6 36.66L154.83 36.88L156.03 37.19L157.2 37.58L158.33 38.06L159.42 38.62L160.47 39.25L161.47 39.97L162.41 40.75L163.31 41.59L164.15 42.51L164.92 43.48L165.63 44.51L166.28 45.59L166.85 46.72L167.35 47.9L167.77 49.12L168.11 50.38L168.37 51.67L168.54 53L168.61 54.36L168.6 55.72L168.48 57.05L168.29 58.36L168 59.63L167.63 60.87L167.18 62.06L166.66 63.22L166.1 64.25L167.92 64.07L169.82 63.96L171.75 63.92L173.68 63.96L175.58 64.07L177.47 64.25L179.33 64.51L181.17 64.83L182.98 65.23L184.76 65.69L186.52 66.21L188.24 66.8L188.25 66.76L188.55 65.49L188.96 64.27L189.48 63.1L190.09 61.99L190.8 60.95L191.6 59.98L192.48 59.08L193.43 58.27L194.46 57.55L195.54 56.92L196.69 56.4L197.89 55.98L199.14 55.67L200.43 55.48L201.75 55.42L203.07 55.48L204.36 55.67L205.61 55.98L206.81 56.4L207.96 56.92L209.04 57.55L210.07 58.27L211.02 59.08L211.9 59.98L212.7 60.95L213.41 61.99L214.02 63.1L214.54 64.27L214.95 65.49L215.25 66.76L215.44 68.07L215.5 69.42L215.44 70.77L215.25 72.08L214.95 73.35L214.54 74.57L214.02 75.74L213.41 76.85L212.7 77.89L211.9 78.86L211.02 79.75L210.07 80.56L209.04 81.29L208.76 81.45L209.47 82.35L210.51 83.77L211.49 85.22L212.41 86.72L213.28 88.25L214.08 89.81L214.82 91.41L215.5 93.04L216.11 94.7L216.65 96.36L216.9 95.92L217.99 94.11L219.14 92.35L220.33 90.66L221.57 89.03L222.85 87.47L224.18 85.97L225.55 84.55L226.96 83.19L228.41 81.91L229.9 80.7L231.42 79.57L232.98 78.52L234.57 77.55L236.19 76.66L237.84 75.86L239.52 75.15L241.23 74.52L242.97 73.98L244.73 73.54L246.51 73.19L248.32 72.94L250.15 72.79L251.99 72.74L253.83 72.79L255.66 72.94L257.47 73.19L259.25 73.54L261.01 73.98L262.75 74.52L264.46 75.15L266.14 75.86L267.79 76.66L269.41 77.55L271 78.52L272.56 79.57L274.08 80.7L275.57 81.91L277.02 83.19L278.43 84.55L279.8 85.97L281.12 87.47L282.41 89.03L283.65 90.66L284.84 92.35L285.98 94.11L286 94.14L286.43 93.77L287.46 93.05L288.54 92.42L289.69 91.9L290.89 91.48L292.14 91.17L293.43 90.98L294.75 90.92L296.07 90.98L297.36 91.17L298.61 91.48L298.84 91.56L298.83 90.93L298.87 88.41L298.98 85.92L299.17 83.45L299.42 81.02L299.75 78.61L300.14 76.24L300.6 73.91L301.12 71.61L301.71 69.35L302.36 67.14L303.07 64.96L303.76 63.05L303.44 62.94L302.29 62.41L301.21 61.79L300.18 61.06L299.23 60.25L298.35 59.36L297.55 58.39L296.84 57.35L296.23 56.24L295.71 55.07L295.3 53.85L295 52.58L294.81 51.27L294.75 49.92L294.81 48.57L295 47.26L295.3 45.99L295.71 44.77L296.23 43.6L296.84 42.49L297.55 41.45L298.35 40.48L299.23 39.58L300.18 38.77L301.21 38.05L302.29 37.42L303.44 36.9L304.64 36.48L305.89 36.17L307.18 35.98L308.5 35.92L309.82 35.98L311.11 36.17L312.36 36.48L313.56 36.9L314.71 37.42L315.79 38.05L316.82 38.77L317.77 39.58L318.49 40.32L318.59 40.23L320.03 38.94L321.52 37.74L323.04 36.61L324.6 35.55L326.19 34.58L327.81 33.7L329.47 32.9L331.15 32.18L332.86 31.55L334.6 31.02L336.36 30.58L338.14 30.23L339.95 29.98L341.77 29.83L343.62 29.78L345.46 29.83L347.29 29.98ZM72.71 127.76L72.71 127.77L72.86 129.19L73.17 128.77L74.27 127.44L73.36 127.67L72.71 127.76ZM1324.82 70.46L1325.86 70.97L1326.83 71.65L1327.72 72.5L1328.53 73.5L1329.24 74.63L1329.84 75.88L1330.33 77.25L1330.69 78.7L1330.91 80.23L1330.99 81.83L1330.91 83.43L1330.69 84.97L1330.33 86.42L1329.84 87.78L1329.24 89.03L1328.53 90.17L1327.72 91.16L1326.83 92.01L1325.86 92.69L1324.82 93.2L1323.73 93.51L1322.59 93.62L1321.45 93.51L1320.36 93.2L1319.33 92.69L1318.36 92.01L1317.46 91.16L1316.66 90.17L1315.95 89.03L1315.34 87.78L1314.86 86.42L1314.5 84.96L1314.27 83.43L1314.2 81.83L1314.27 80.23L1314.5 78.7L1314.86 77.25L1315.34 75.88L1315.95 74.63L1316.66 73.5L1317.46 72.5L1318.36 71.65L1319.33 70.97L1320.36 70.46L1321.45 70.15L1322.59 70.04L1323.73 70.15L1324.82 70.46ZM558.23 70.45L559.26 70.96L560.23 71.64L561.12 72.49L561.93 73.48L562.64 74.62L563.24 75.87L563.73 77.23L564.09 78.69L564.31 80.22L564.39 81.82L564.31 83.42L564.09 84.95L563.73 86.41L563.24 87.77L562.64 89.02L561.93 90.15L561.12 91.15L560.23 92L559.26 92.68L558.22 93.19L557.13 93.5L555.99 93.61L554.85 93.5L553.76 93.19L552.73 92.68L551.76 92L550.86 91.15L550.06 90.15L549.35 89.02L548.74 87.77L548.26 86.41L547.9 84.95L547.67 83.42L547.6 81.82L547.67 80.22L547.9 78.69L548.26 77.23L548.74 75.87L549.35 74.62L550.06 73.48L550.86 72.49L551.76 71.64L552.73 70.96L553.76 70.45L554.86 70.14L555.99 70.03L557.13 70.14L558.23 70.45ZM849.11 61.17L850.36 61.48L851.56 61.9L852.71 62.42L853.79 63.05L854.82 63.77L855.77 64.58L856.65 65.48L857.45 66.45L858.16 67.49L858.77 68.6L859.29 69.77L859.7 70.99L860 72.26L860.19 73.57L860.25 74.92L860.19 76.27L860 77.58L859.7 78.85L859.29 80.07L858.77 81.24L858.16 82.35L857.45 83.39L856.65 84.36L855.77 85.25L854.82 86.06L853.79 86.79L852.71 87.41L851.56 87.94L850.36 88.36L849.11 88.67L847.82 88.85L846.5 88.92L845.18 88.85L843.89 88.67L842.64 88.36L841.44 87.94L840.29 87.41L839.21 86.79L838.18 86.06L837.23 85.25L836.35 84.36L835.55 83.39L834.84 82.35L834.23 81.24L833.71 80.07L833.3 78.85L833 77.58L832.81 76.27L832.75 74.92L832.81 73.57L833 72.26L833.3 70.99L833.71 69.77L834.23 68.6L834.84 67.49L835.55 66.45L836.35 65.48L837.23 64.58L838.18 63.77L839.21 63.05L840.29 62.42L841.44 61.9L842.64 61.48L843.89 61.17L845.18 60.98L846.5 60.92L847.82 60.98L849.11 61.17ZM1136.11 37.17L1137.36 37.48L1138.56 37.9L1139.71 38.42L1140.79 39.05L1141.82 39.77L1142.77 40.58L1143.65 41.48L1144.45 42.45L1145.16 43.49L1145.77 44.6L1146.29 45.77L1146.7 46.99L1147 48.26L1147.19 49.57L1147.25 50.92L1147.19 52.27L1147 53.58L1146.7 54.85L1146.29 56.07L1145.77 57.24L1145.16 58.35L1144.45 59.39L1143.65 60.36L1142.77 61.25L1141.82 62.06L1140.79 62.79L1139.71 63.41L1138.56 63.94L1137.36 64.36L1136.11 64.67L1134.82 64.85L1133.5 64.92L1132.18 64.85L1130.89 64.67L1129.64 64.36L1128.44 63.94L1127.29 63.41L1126.21 62.79L1125.18 62.06L1124.23 61.25L1123.35 60.36L1122.55 59.39L1121.84 58.35L1121.23 57.24L1120.71 56.07L1120.3 54.85L1120 53.58L1119.81 52.27L1119.75 50.92L1119.81 49.57L1120 48.26L1120.3 46.99L1120.71 45.77L1121.23 44.6L1121.84 43.49L1122.55 42.45L1123.35 41.48L1124.23 40.58L1125.18 39.77L1126.21 39.05L1127.29 38.42L1128.44 37.9L1129.64 37.48L1130.89 37.17L1132.18 36.98L1133.5 36.92L1134.82 36.98L1136.11 37.17ZM539.02 36.62L540.05 37.13L541.02 37.81L541.92 38.66L542.72 39.66L543.43 40.79L544.04 42.04L544.52 43.4L544.88 44.86L545.11 46.39L545.18 47.99L545.11 49.59L544.88 51.12L544.52 52.58L544.04 53.94L543.43 55.19L542.72 56.33L541.92 57.32L541.02 58.17L540.05 58.85L539.02 59.36L537.93 59.67L536.79 59.78L535.65 59.67L534.56 59.36L533.52 58.85L532.55 58.17L531.66 57.32L530.85 56.33L530.14 55.19L529.54 53.94L529.05 52.58L528.69 51.12L528.47 49.59L528.39 47.99L528.47 46.39L528.69 44.86L529.05 43.4L529.54 42.04L530.14 40.79L530.85 39.66L531.66 38.66L532.55 37.81L533.52 37.13L534.56 36.62L535.65 36.31L536.79 36.2L537.93 36.31L539.02 36.62ZM606.01 30.2L607.05 30.71L608.02 31.39L608.91 32.24L609.72 33.24L610.43 34.37L611.03 35.62L611.52 36.99L611.88 38.44L612.1 39.97L612.18 41.57L612.1 43.17L611.88 44.7L611.52 46.16L611.03 47.52L610.43 48.77L609.72 49.91L608.91 50.9L608.02 51.75L607.05 52.43L606.01 52.94L604.92 53.25L603.78 53.36L602.64 53.25L601.55 52.94L600.52 52.43L599.55 51.75L598.65 50.9L597.85 49.91L597.14 48.77L596.53 47.52L596.05 46.16L595.69 44.7L595.46 43.17L595.39 41.57L595.46 39.97L595.69 38.44L596.05 36.99L596.53 35.62L597.14 34.37L597.85 33.24L598.65 32.24L599.55 31.39L600.52 30.71L601.55 30.2L602.64 29.89L603.78 29.78L604.92 29.89L606.01 30.2ZM887.94 32.38L889.15 32.92L890.27 33.66L891.26 34.56L892.11 35.61L892.8 36.78L893.32 38.08L893.64 39.46L893.75 40.92L893.64 42.38L893.32 43.76L892.8 45.05L892.11 46.23L891.26 47.28L890.27 48.18L889.15 48.91L887.94 49.46L886.63 49.8L885.25 49.92L883.87 49.8L882.56 49.46L881.35 48.91L880.23 48.18L879.24 47.28L878.39 46.23L877.7 45.05L877.18 43.76L876.86 42.38L876.75 40.92L876.86 39.46L877.18 38.08L877.7 36.78L878.39 35.61L879.24 34.56L880.23 33.66L881.35 32.92L882.56 32.38L883.87 32.04L885.25 31.92L886.63 32.04L887.94 32.38ZM1000.11 9.17L1001.36 9.48L1002.56 9.9L1003.71 10.42L1004.79 11.05L1005.82 11.77L1006.77 12.58L1007.65 13.48L1008.45 14.45L1009.16 15.49L1009.77 16.6L1010.29 17.77L1010.7 18.99L1011 20.26L1011.19 21.57L1011.25 22.92L1011.19 24.27L1011 25.58L1010.7 26.85L1010.29 28.07L1009.77 29.24L1009.16 30.35L1008.45 31.39L1007.65 32.36L1006.77 33.25L1005.82 34.06L1004.79 34.79L1003.71 35.41L1002.56 35.94L1001.36 36.36L1000.11 36.67L998.82 36.85L997.5 36.92L996.18 36.85L994.89 36.67L993.64 36.36L992.44 35.94L991.29 35.41L990.21 34.79L989.18 34.06L988.23 33.25L987.35 32.36L986.55 31.39L985.84 30.35L985.23 29.24L984.71 28.07L984.3 26.85L984 25.58L983.81 24.27L983.75 22.92L983.81 21.57L984 20.26L984.3 18.99L984.71 17.77L985.23 16.6L985.84 15.49L986.55 14.45L987.35 13.48L988.23 12.58L989.18 11.77L990.21 11.05L991.29 10.42L992.44 9.9L993.64 9.48L994.89 9.17L996.18 8.98L997.5 8.92L998.82 8.98L1000.11 9.17Z" id="aMDuoDIQg" fill="white" fill-opacity="1" filter="url(#shadow8863654)"></path></g><use xlink:href="#a344d1UGgs" opacity="1" fill="#db7923" fill-opacity="1"></use></g></g></g></svg>