<?xml version="1.0" encoding="UTF-8" standalone="no"?>
<!DOCTYPE svg PUBLIC "-//W3C//DTD SVG 1.1//EN" "http://www.w3.org/Graphics/SVG/1.1/DTD/svg11.dtd">
<svg version="1.1" xmlns="http://www.w3.org/2000/svg" xmlns:xlink="http://www.w3.org/1999/xlink" preserveAspectRatio="xMidYMid meet" viewBox="0 0 1280 200" width="1280" height="200"><defs><path d="M279.61 -154.8L281.42 -154.55L283.2 -154.2L284.96 -153.76L286.7 -153.23L288.41 -152.6L290.09 -151.88L291.74 -151.08L293.36 -150.2L294.95 -149.23L296.51 -148.17L298.03 -147.04L299.52 -145.84L300.97 -144.55L302.38 -143.2L303.75 -141.77L305.07 -140.28L306.36 -138.71L306.6 -138.4L306.92 -138.8L307.8 -139.7L308.76 -140.51L309.78 -141.23L310.87 -141.86L312.02 -142.38L313.22 -142.8L314.46 -143.11L315.75 -143.3L317.07 -143.36L318.4 -143.3L319.69 -143.11L320.93 -142.8L322.13 -142.38L323.28 -141.86L324.37 -141.23L325.39 -140.51L326.35 -139.7L327.22 -138.8L328.02 -137.83L328.73 -136.79L329.35 -135.68L329.86 -134.51L330.27 -133.29L330.58 -132.02L330.76 -130.71L330.82 -129.36L330.76 -128.01L330.58 -126.7L330.27 -125.43L329.86 -124.21L329.35 -123.04L328.73 -121.94L328.02 -120.89L327.22 -119.92L326.35 -119.03L325.39 -118.22L324.37 -117.49L323.28 -116.87L322.13 -116.34L320.93 -115.92L319.69 -115.61L318.4 -115.43L317.85 -115.4L318.43 -113.17L318.96 -110.87L319.42 -108.54L319.81 -106.17L320.13 -103.76L320.39 -101.33L320.51 -99.64L321.28 -99.83L322.43 -100L323.61 -100.06L324.79 -100L325.95 -99.83L327.08 -99.55L328.17 -99.17L329.24 -98.69L330.26 -98.11L331.24 -97.44L332.18 -96.68L333.06 -95.85L333.9 -94.93L334.68 -93.94L335.41 -92.88L336.07 -91.75L336.66 -90.56L337.19 -89.32L337.65 -88.02L338.03 -86.68L338.22 -85.77L338.57 -85.74L342.13 -85.38L345.64 -84.88L349.1 -84.24L352.51 -83.47L355.88 -82.56L359.19 -81.53L362.44 -80.37L364.78 -79.43L364.34 -80.68L363.96 -82.03L363.66 -83.42L363.44 -84.84L363.3 -86.31L363.26 -87.81L363.29 -88.78L362.59 -88.81L361.43 -88.98L360.3 -89.26L359.21 -89.64L358.15 -90.12L357.12 -90.7L356.14 -91.37L355.21 -92.13L354.32 -92.96L353.48 -93.88L352.7 -94.87L351.98 -95.93L351.31 -97.06L350.72 -98.24L350.19 -99.49L349.74 -100.79L349.36 -102.13L349.05 -103.52L348.83 -104.95L348.7 -106.41L348.65 -107.91L348.7 -109.41L348.83 -110.87L349.05 -112.3L349.36 -113.69L349.74 -115.03L350.19 -116.33L350.72 -117.58L351.32 -118.76L351.98 -119.89L352.7 -120.95L353.48 -121.94L354.32 -122.86L355.21 -123.69L356.14 -124.45L357.12 -125.12L358.15 -125.7L359.21 -126.18L360.3 -126.56L361.43 -126.84L362.59 -127.01L363.77 -127.07L364.95 -127.01L366.1 -126.84L367.23 -126.56L368.33 -126.18L369.39 -125.7L370.41 -125.12L371.39 -124.45L372.33 -123.69L373.22 -122.86L374.05 -121.94L374.84 -120.95L375.56 -119.89L376.22 -118.76L376.82 -117.57L377.34 -116.33L377.8 -115.03L378.18 -113.69L378.48 -112.3L378.7 -110.87L378.84 -109.41L378.88 -107.91L378.85 -106.94L379.55 -106.9L380.71 -106.73L381.83 -106.46L382.93 -106.07L383.46 -105.84L383.55 -106.26L384.14 -108.52L384.79 -110.73L385.5 -112.91L386.27 -115.03L387.1 -117.11L387.98 -119.14L388.92 -121.12L389.91 -123.05L390.96 -124.92L392.05 -126.73L393.2 -128.48L394.39 -130.17L395.63 -131.8L396.91 -133.37L398.24 -134.86L399.61 -136.29L401.02 -137.64L402.47 -138.93L403.95 -140.13L405.48 -141.26L407.03 -142.31L408.63 -143.28L410.25 -144.17L411.9 -144.97L413.58 -145.69L415.29 -146.32L417.03 -146.85L418.79 -147.29L420.57 -147.64L422.38 -147.89L424.2 -148.04L426.05 -148.09L427.89 -148.04L429.72 -147.89L431.52 -147.64L433.31 -147.29L435.07 -146.85L436.8 -146.31L438.51 -145.69L440.2 -144.97L441.85 -144.17L443.47 -143.28L445.06 -142.31L446.62 -141.26L448.14 -140.13L449.63 -138.92L451.08 -137.64L452.49 -136.29L453.86 -134.86L455.18 -133.36L456.47 -131.8L457.71 -130.17L458.9 -128.48L460.04 -126.73L461.14 -124.91L462.18 -123.04L463.18 -121.12L464.11 -119.14L465 -117.11L465.83 -115.03L466.6 -112.9L467.31 -110.73L467.95 -108.52L468.54 -106.26L469.07 -103.96L469.52 -101.63L469.92 -99.26L470.24 -96.85L470.49 -94.42L470.68 -91.95L470.79 -89.46L470.83 -86.94L470.79 -84.42L470.68 -81.92L470.67 -81.79L470.89 -81.42L471.93 -79.55L472.93 -77.63L473.87 -75.65L474.75 -73.62L475.58 -71.54L476.35 -69.41L476.59 -68.68L477.32 -69.27L478.3 -69.94L479.32 -70.52L480.39 -71L481.48 -71.38L482.61 -71.66L483.76 -71.83L484.95 -71.89L486.13 -71.83L487.28 -71.66L488.41 -71.38L489.5 -71L490.57 -70.52L491.59 -69.94L492.57 -69.27L493.51 -68.51L494.4 -67.68L495.23 -66.76L496.01 -65.77L496.74 -64.71L497.4 -63.58L497.99 -62.4L498.17 -61.98L498.8 -62.87L500.04 -64.5L501.32 -66.06L502.65 -67.56L504.02 -68.99L505.43 -70.34L506.88 -71.62L508.36 -72.83L509.89 -73.96L511.44 -75.01L512.32 -75.55L512.29 -75.61L511.84 -76.91L511.46 -78.25L511.15 -79.64L510.93 -81.07L510.8 -82.54L510.76 -84.03L510.8 -85.53L510.93 -86.99L511.15 -88.42L511.46 -89.81L511.84 -91.16L512.29 -92.45L512.82 -93.7L513.42 -94.89L514.08 -96.01L514.8 -97.07L515.58 -98.06L516.42 -98.98L517.31 -99.82L518.24 -100.57L519.22 -101.24L520.25 -101.82L521.31 -102.3L522.41 -102.68L523.53 -102.96L524.69 -103.13L525.87 -103.19L527.05 -103.13L528.2 -102.96L529.33 -102.68L530.43 -102.3L531.49 -101.82L532.51 -101.24L533.49 -100.57L534.43 -99.82L535.32 -98.98L536.16 -98.06L536.94 -97.07L537.66 -96.01L538.32 -94.89L538.92 -93.7L539.44 -92.45L539.9 -91.16L540.28 -89.81L540.58 -88.42L540.8 -86.99L540.94 -85.53L540.98 -84.03L540.94 -82.54L540.8 -81.07L540.58 -79.64L540.49 -79.23L541.21 -79.01L542.92 -78.39L544.61 -77.67L546.26 -76.87L547.88 -75.98L549.47 -75.01L551.03 -73.96L552.55 -72.83L554.04 -71.62L555.49 -70.34L555.65 -70.18L555.63 -70.39L555.58 -71.89L555.63 -73.38L555.76 -74.85L555.98 -76.28L556.29 -77.66L556.67 -79.01L557.12 -80.31L557.65 -81.55L558.25 -82.74L558.91 -83.86L559.63 -84.92L560.41 -85.91L561.25 -86.83L562.14 -87.67L563.07 -88.43L564.05 -89.09L565.08 -89.67L566.14 -90.15L567.23 -90.54L568.36 -90.81L569.52 -90.98L570.69 -91.04L570.72 -91.29L571.08 -92.74L571.57 -94.11L572.17 -95.36L572.88 -96.49L573.69 -97.49L574.58 -98.34L575.55 -99.02L576.59 -99.52L577.68 -99.84L578.82 -99.95L579.96 -99.84L581.05 -99.52L582.09 -99.02L583.06 -98.34L583.95 -97.49L584.76 -96.49L585.47 -95.36L586.07 -94.11L586.56 -92.74L586.92 -91.29L587.14 -89.76L587.22 -88.16L587.14 -86.56L586.92 -85.02L586.56 -83.57L586.07 -82.21L585.47 -80.95L584.76 -79.82L584.54 -79.55L584.73 -79.01L585.11 -77.66L585.41 -76.27L585.63 -74.85L585.77 -73.38L585.81 -71.88L585.76 -70.39L585.63 -68.92L585.41 -67.49L585.11 -66.1L584.73 -64.76L584.35 -63.67L584.57 -63.72L588.08 -64.22L591.64 -64.58L595.23 -64.8L596.51 -64.83L596.51 -64.87L596.55 -66.37L596.69 -67.83L596.91 -69.26L597.21 -70.65L597.59 -72L598.04 -73.3L598.57 -74.54L599.17 -75.73L599.83 -76.85L600.55 -77.91L601.33 -78.9L602.17 -79.82L603.06 -80.66L603.99 -81.41L604.98 -82.08L606 -82.66L607.06 -83.14L608.16 -83.52L609.28 -83.8L610.44 -83.97L611.62 -84.03L612.8 -83.97L613.96 -83.8L615.08 -83.52L616.18 -83.14L617.24 -82.66L618.26 -82.08L619.25 -81.41L619.98 -80.82L620.22 -81.56L620.99 -83.68L621.82 -85.76L622.7 -87.79L623.16 -88.76L622.9 -89.27L622.38 -90.41L621.91 -91.57L621.48 -92.75L621.1 -93.95L620.77 -95.18L620.49 -96.42L620.25 -97.67L620.07 -98.95L619.93 -100.24L619.85 -101.54L619.82 -102.86L619.85 -104.18L619.93 -105.49L620.07 -106.78L620.25 -108.05L620.49 -109.31L620.77 -110.55L621.1 -111.77L621.48 -112.97L621.91 -114.15L622.38 -115.31L622.9 -116.45L623.45 -117.56L624.06 -118.65L624.7 -119.71L625.38 -120.75L626.1 -121.76L626.86 -122.73L627.65 -123.68L628.48 -124.6L629.35 -125.49L630.25 -126.34L631.18 -127.16L632.14 -127.94L633.14 -128.68L634.16 -129.39L635.21 -130.07L636.29 -130.7L637.39 -131.29L638.52 -131.84L639.68 -132.35L640.86 -132.81L642.06 -133.23L643.28 -133.6L644.52 -133.93L645.78 -134.21L647.06 -134.44L648.35 -134.63L649.66 -134.76L650.99 -134.84L652.32 -134.86L653.66 -134.84L654.99 -134.76L656.3 -134.63L657.59 -134.44L658.87 -134.21L660.13 -133.93L661.37 -133.6L662.59 -133.23L663.79 -132.81L664.97 -132.35L666.12 -131.84L667.25 -131.29L668.36 -130.7L669.44 -130.07L670.49 -129.39L671.51 -128.68L672.51 -127.94L673.47 -127.16L674.4 -126.34L675.3 -125.49L676.17 -124.6L677 -123.68L677.79 -122.73L678.55 -121.76L679.27 -120.75L679.95 -119.71L680.59 -118.65L681.19 -117.56L681.75 -116.45L682.27 -115.31L682.74 -114.15L683.17 -112.97L683.55 -111.77L683.88 -110.55L684.16 -109.31L684.4 -108.05L684.46 -107.66L684.56 -107.69L686.13 -108.19L687.74 -108.63L689.36 -109L691.02 -109.31L692.69 -109.55L694.38 -109.72L696.09 -109.83L697.82 -109.86L699.55 -109.83L701.27 -109.72L702.96 -109.55L704.63 -109.31L706.19 -109.02L706.37 -109.79L706.79 -111.01L707.3 -112.18L707.92 -113.29L708.63 -114.33L709.42 -115.3L710.3 -116.2L711.26 -117.01L712.28 -117.73L713.37 -118.36L714.52 -118.88L715.72 -119.3L716.96 -119.61L718.25 -119.8L719.57 -119.86L720.9 -119.8L722.19 -119.61L723.43 -119.3L724.63 -118.88L725.78 -118.36L726.87 -117.73L727.89 -117.01L728.85 -116.2L729.72 -115.3L730.52 -114.33L731.23 -113.29L731.85 -112.18L732.36 -111.01L732.77 -109.79L733.08 -108.52L733.26 -107.21L733.32 -105.86L733.26 -104.51L733.08 -103.2L732.77 -101.93L732.36 -100.71L731.85 -99.54L731.23 -98.44L730.52 -97.39L729.72 -96.42L729.06 -95.75L729.71 -95.01L730.74 -93.75L731.72 -92.46L732.65 -91.12L733.53 -89.74L734.36 -88.33L735.13 -86.89L735.86 -85.41L736.52 -83.9L737.08 -82.5L737.44 -82.77L738.47 -83.45L739.53 -84.07L740.62 -84.64L741.75 -85.14L742.9 -85.59L744.08 -85.97L745.29 -86.29L746.51 -86.53L747.77 -86.72L749.04 -86.83L750.33 -86.86L751.61 -86.83L752.88 -86.72L754.13 -86.53L755.36 -86.29L756.57 -85.97L757.75 -85.59L758.9 -85.14L760.03 -84.64L761.12 -84.07L762.18 -83.45L763.21 -82.77L764.2 -82.04L765.15 -81.25L766.07 -80.42L766.94 -79.54L767.77 -78.61L768.55 -77.64L769.29 -76.62L769.98 -75.57L770.61 -74.48L771.2 -73.35L771.73 -72.18L772.21 -70.99L772.63 -69.76L772.98 -68.51L773.12 -67.94L773.75 -67.92L777.82 -67.86L781.9 -67.92L785.94 -68.07L789.93 -68.34L790.8 -68.42L790.62 -68.93L790.32 -70.2L790.14 -71.51L790.07 -72.86L790.14 -74.21L790.32 -75.52L790.62 -76.79L791.04 -78.01L791.55 -79.18L792.17 -80.29L792.88 -81.33L793.67 -82.3L794.55 -83.2L795.51 -84.01L796.53 -84.73L797.62 -85.36L798.77 -85.88L799.97 -86.3L801.21 -86.61L802.5 -86.8L803.82 -86.86L805.15 -86.8L806.44 -86.61L807.68 -86.3L808.88 -85.88L809.66 -85.53L810.12 -86.51L811 -88.21L811.93 -89.86L812.91 -91.46L813.94 -93.02L815.01 -94.53L816.13 -95.98L817.29 -97.38L818.5 -98.72L819.74 -100L821.03 -101.23L822.35 -102.39L823.71 -103.49L825.1 -104.53L826.53 -105.5L827.99 -106.4L829.48 -107.23L831 -108L832.56 -108.68L834.13 -109.3L835.74 -109.84L837.36 -110.29L839.02 -110.67L840.69 -110.97L842.38 -111.19L844.09 -111.32L845.82 -111.36L847.55 -111.32L849.27 -111.19L850.96 -110.97L852.63 -110.67L854.28 -110.29L855.91 -109.84L857.52 -109.3L859.09 -108.68L860.64 -108L862.17 -107.23L863.66 -106.4L865.12 -105.5L866.55 -104.53L867.94 -103.49L869.3 -102.39L870.62 -101.23L871.91 -100L873.15 -98.72L874.36 -97.38L875.52 -95.98L876.47 -94.74L876.88 -95.33L877.67 -96.3L878.55 -97.2L879.51 -98.01L880.53 -98.73L881.62 -99.36L882.77 -99.88L883.97 -100.3L885.21 -100.61L886.5 -100.8L887.82 -100.86L889.15 -100.8L890.44 -100.61L891.68 -100.3L892.88 -99.88L894.03 -99.36L895.12 -98.73L896.14 -98.01L897.1 -97.2L897.72 -96.57L898.11 -96.75L899.79 -97.47L901.5 -98.1L903.23 -98.63L904.99 -99.07L906.78 -99.42L908.58 -99.67L910.41 -99.82L912.25 -99.87L914.1 -99.82L915.92 -99.67L917.73 -99.42L919.51 -99.07L921.27 -98.63L923.01 -98.1L924.72 -97.47L926.4 -96.75L928.05 -95.95L929.68 -95.06L931.27 -94.09L932.82 -93.04L934.35 -91.91L935.83 -90.71L937.28 -89.42L938.69 -88.07L940.06 -86.64L941.39 -85.14L942.67 -83.58L943.23 -82.85L943.27 -82.88L944.89 -83.76L946.54 -84.57L948.22 -85.28L949.93 -85.91L950.65 -86.13L950.57 -86.54L950.35 -87.97L950.21 -89.43L950.17 -90.93L950.21 -92.42L950.35 -93.89L950.57 -95.32L950.87 -96.71L951.25 -98.05L951.7 -99.35L952.23 -100.59L952.83 -101.78L953.49 -102.91L954.21 -103.97L954.99 -104.96L955.83 -105.87L956.72 -106.71L957.65 -107.47L958.64 -108.14L959.66 -108.71L960.72 -109.2L961.82 -109.58L962.94 -109.86L964.1 -110.03L965.28 -110.09L966.46 -110.03L967.62 -109.86L968.74 -109.58L969.84 -109.2L970.9 -108.71L971.92 -108.14L972.91 -107.47L973.84 -106.71L974.73 -105.87L975.57 -104.96L976.35 -103.97L977.07 -102.91L977.73 -101.78L978.33 -100.59L978.86 -99.35L979.31 -98.05L979.69 -96.71L979.99 -95.32L980.21 -93.89L980.35 -92.42L980.39 -90.93L980.35 -89.43L980.21 -87.97L979.99 -86.54L979.69 -85.15L979.31 -83.8L978.85 -82.51L978.83 -82.44L979.7 -81.91L981.26 -80.86L982.78 -79.73L984.27 -78.52L985.72 -77.24L987.13 -75.88L988.22 -74.74L988.67 -75.3L989.55 -76.2L990.51 -77.01L991.53 -77.73L992.62 -78.36L993.77 -78.88L994.97 -79.3L996.21 -79.61L997.5 -79.8L998.82 -79.86L1000.15 -79.8L1001.44 -79.61L1002.68 -79.3L1003.88 -78.88L1005.03 -78.36L1006.12 -77.73L1007.14 -77.01L1008.1 -76.2L1008.97 -75.3L1009.77 -74.33L1010.48 -73.29L1011.1 -72.18L1011.61 -71.01L1012.02 -69.79L1012.33 -68.52L1012.39 -68.1L1012.99 -68.22L1014.82 -68.45L1016.66 -68.53L1018.51 -68.45L1020.33 -68.22L1021.47 -67.99L1021.17 -68.44L1020.55 -69.54L1020.04 -70.71L1019.62 -71.93L1019.32 -73.2L1019.14 -74.51L1019.07 -75.86L1019.14 -77.21L1019.32 -78.52L1019.62 -79.79L1020.04 -81.01L1020.55 -82.18L1021.17 -83.29L1021.88 -84.33L1022.67 -85.3L1023.55 -86.2L1024.51 -87.01L1025.53 -87.73L1026.62 -88.36L1027.77 -88.88L1028.97 -89.3L1030.21 -89.61L1031.5 -89.8L1032.82 -89.86L1034.15 -89.8L1035.44 -89.61L1036.68 -89.3L1037.88 -88.88L1039.03 -88.36L1040.12 -87.73L1041.14 -87.01L1042.1 -86.2L1042.97 -85.3L1043.77 -84.33L1044.48 -83.29L1044.7 -82.9L1045.39 -83.75L1046.92 -85.44L1048.47 -87.01L1050.06 -88.46L1051.69 -89.78L1053.34 -90.98L1055.02 -92.05L1056.73 -92.98L1058.47 -93.78L1060.23 -94.44L1062.01 -94.96L1063.82 -95.34L1065.64 -95.56L1067.49 -95.64L1069.33 -95.56L1071.16 -95.34L1072.96 -94.96L1074.75 -94.44L1076.51 -93.78L1078.24 -92.98L1079.95 -92.05L1081.64 -90.98L1083.29 -89.78L1083.44 -89.66L1083.53 -89.73L1084.62 -90.36L1085.77 -90.88L1086.97 -91.3L1088.21 -91.61L1089.5 -91.8L1090.82 -91.86L1092.15 -91.8L1093.44 -91.61L1094.68 -91.3L1095.88 -90.88L1097.03 -90.36L1097.06 -90.34L1097.52 -91.48L1098.29 -93.27L1099.12 -95.01L1100 -96.71L1100.93 -98.36L1101.91 -99.96L1102.94 -101.52L1104.01 -103.03L1105.13 -104.48L1106.29 -105.88L1107.5 -107.22L1108.74 -108.5L1110.03 -109.73L1111.35 -110.89L1112.46 -111.79L1112.45 -111.84L1112.31 -113.3L1112.27 -114.8L1112.31 -116.29L1112.45 -117.76L1112.67 -119.19L1112.97 -120.58L1113.35 -121.92L1113.81 -123.22L1114.33 -124.46L1114.93 -125.65L1115.59 -126.78L1116.31 -127.84L1117.09 -128.83L1117.93 -129.74L1118.82 -130.58L1119.76 -131.34L1120.74 -132.01L1121.76 -132.58L1122.82 -133.07L1123.92 -133.45L1125.05 -133.73L1126.2 -133.9L1127.38 -133.95L1128.56 -133.9L1129.72 -133.73L1130.85 -133.45L1131.94 -133.06L1133 -132.58L1134.03 -132.01L1135.01 -131.34L1135.94 -130.58L1136.83 -129.74L1137.67 -128.83L1138.45 -127.84L1139.17 -126.78L1139.83 -125.65L1140.43 -124.46L1140.96 -123.22L1141.41 -121.92L1141.79 -120.58L1142.09 -119.19L1142.11 -119.06L1143.28 -118.79L1144.91 -118.34L1146.52 -117.8L1148.09 -117.18L1149.64 -116.5L1151.17 -115.73L1152.66 -114.9L1154.12 -114L1155.55 -113.03L1156.94 -111.99L1158.3 -110.89L1159.62 -109.73L1160.91 -108.5L1162.15 -107.22L1163.36 -105.88L1164.52 -104.48L1165.64 -103.03L1166.71 -101.52L1167.74 -99.96L1168.72 -98.36L1169.65 -96.71L1170.53 -95.01L1171.36 -93.27L1172.13 -91.48L1172.67 -90.11L1173.37 -91.08L1174.15 -92.06L1174.98 -93L1175.85 -93.88L1176.76 -94.72L1177.71 -95.5L1178.7 -96.22L1179.72 -96.88L1180.78 -97.49L1181.87 -98.03L1182.98 -98.5L1184.13 -98.91L1185.3 -99.25L1186.49 -99.51L1187.71 -99.71L1188.94 -99.82L1190.2 -99.86L1191.45 -99.82L1192.69 -99.71L1193.91 -99.51L1195.1 -99.25L1196.27 -98.91L1197.42 -98.5L1198.53 -98.03L1199.62 -97.49L1200.68 -96.88L1201.7 -96.22L1202.69 -95.5L1202.84 -95.37L1203.07 -95.67L1203.91 -96.58L1204.79 -97.42L1205.73 -98.18L1206.71 -98.85L1207.74 -99.42L1208.8 -99.91L1209.89 -100.29L1211.02 -100.57L1212.18 -100.74L1213.36 -100.79L1214.54 -100.74L1215.69 -100.57L1216.82 -100.29L1217.92 -99.91L1218.98 -99.42L1220 -98.85L1220.98 -98.18L1221.92 -97.42L1222.81 -96.58L1223.64 -95.67L1224.42 -94.68L1225.15 -93.62L1225.81 -92.49L1226.41 -91.3L1226.93 -90.06L1227.39 -88.76L1227.77 -87.42L1228.07 -86.03L1228.29 -84.6L1228.42 -83.13L1228.47 -81.64L1228.42 -80.14L1228.29 -78.68L1228.07 -77.25L1227.77 -75.86L1227.39 -74.51L1226.93 -73.22L1226.4 -71.97L1226.09 -71.34L1227.4 -71.47L1231 -71.69L1234.63 -71.76L1238.26 -71.69L1241.85 -71.47L1245.4 -71.11L1248.4 -70.68L1248.48 -70.9L1249.01 -72.15L1249.6 -73.33L1250.26 -74.46L1250.99 -75.52L1251.77 -76.51L1252.6 -77.43L1253.49 -78.26L1254.43 -79.02L1255.41 -79.69L1256.43 -80.27L1257.49 -80.75L1258.59 -81.13L1259.72 -81.41L1260.87 -81.58L1262.05 -81.64L1263.23 -81.58L1264.39 -81.41L1265.45 -81.15L1265.58 -81.56L1266.29 -83.73L1267.06 -85.86L1267.88 -87.94L1268.77 -89.97L1269.71 -91.95L1270.7 -93.87L1271.74 -95.74L1272.84 -97.55L1273.98 -99.31L1275.18 -101L1276.41 -102.63L1277.7 -104.19L1279.03 -105.69L1280.39 -107.11L1281.8 -108.47L1283.25 -109.75L1284.74 -110.96L1286.26 -112.09L1287.82 -113.14L1289.41 -114.11L1291.03 -115L1292.69 -115.8L1294.37 -116.51L1296.08 -117.14L1297.81 -117.67L1299.57 -118.12L1301.36 -118.46L1303.16 -118.72L1304.99 -118.87L1306.83 -118.92L1308.68 -118.87L1310.5 -118.71L1312.31 -118.46L1314.09 -118.12L1315.85 -117.67L1317.59 -117.14L1319.3 -116.51L1320.98 -115.8L1322.63 -115L1324.26 -114.11L1325.85 -113.14L1327.41 -112.09L1328.93 -110.96L1330.41 -109.75L1331.86 -108.47L1333.27 -107.11L1334.64 -105.68L1335.97 -104.19L1337.25 -102.63L1338.49 -101L1339.68 -99.3L1340.83 -97.55L1341.92 -95.74L1342.97 -93.87L1343.96 -91.94L1344.9 -89.97L1345.78 -87.94L1346.61 -85.86L1347.38 -83.73L1348.09 -81.56L1348.74 -79.34L1349.33 -77.08L1349.85 -74.79L1350.31 -72.45L1350.7 -70.08L1351.03 -67.68L1351.28 -65.24L1351.46 -62.77L1351.57 -60.28L1351.61 -57.76L1351.57 -55.24L1351.46 -52.75L1351.28 -50.28L1351.03 -47.85L1350.7 -45.44L1350.31 -43.07L1349.85 -40.74L1349.33 -38.44L1348.74 -36.18L1348.09 -33.97L1347.38 -31.79L1346.61 -29.67L1345.78 -27.59L1344.9 -25.56L1343.96 -23.58L1342.97 -21.65L1341.92 -19.78L1340.83 -17.97L1339.68 -16.22L1338.49 -14.53L1337.25 -12.9L1335.97 -11.34L1334.64 -9.84L1333.27 -8.41L1331.86 -7.06L1330.41 -5.77L1328.93 -4.57L1327.4 -3.44L1325.84 -2.39L1324.25 -1.42L1322.63 -0.53L1321.18 0.18L1321.57 2.32L1322.07 5.84L1322.44 9.41L1322.65 13.01L1322.73 16.66L1322.65 20.3L1322.43 23.9L1322.07 27.47L1321.57 30.99L1320.94 34.47L1320.16 37.89L1319.26 41.27L1318.23 44.59L1317.08 47.85L1315.8 51.06L1314.4 54.2L1312.89 57.27L1311.26 60.28L1309.52 63.22L1307.67 66.08L1305.72 68.86L1303.66 71.56L1301.51 74.18L1299.25 76.72L1296.91 79.16L1294.47 81.52L1291.95 83.78L1289.33 85.94L1286.64 88L1283.87 89.96L1281.02 91.82L1278.09 93.56L1275.1 95.2L1272.03 96.72L1268.9 98.12L1265.71 99.4L1262.46 100.56L1259.15 101.59L1255.78 102.5L1252.37 103.27L1248.9 103.91L1245.4 104.42L1241.84 104.78L1238.25 105L1234.62 105.07L1230.99 105L1227.4 104.78L1223.85 104.41L1220.34 103.91L1216.88 103.27L1213.46 102.5L1210.1 101.59L1206.79 100.56L1203.53 99.4L1200.34 98.12L1197.21 96.71L1194.15 95.19L1191.15 93.56L1188.23 91.81L1185.38 89.96L1182.6 88L1179.91 85.94L1177.3 83.77L1174.77 81.51L1172.34 79.16L1169.99 76.71L1167.74 74.18L1165.58 71.56L1163.53 68.86L1161.57 66.07L1159.73 63.21L1157.99 60.28L1156.36 57.27L1154.85 54.21L1153.53 55.38L1152.05 56.58L1150.52 57.71L1148.97 58.76L1147.37 59.73L1145.75 60.62L1144.1 61.42L1142.42 62.14L1140.71 62.76L1138.97 63.3L1137.21 63.74L1135.43 64.09L1133.62 64.34L1131.8 64.49L1129.95 64.54L1128.11 64.49L1126.28 64.34L1124.48 64.09L1122.69 63.74L1120.93 63.3L1119.2 62.76L1117.49 62.14L1115.8 61.42L1114.15 60.62L1112.53 59.73L1110.94 58.76L1109.38 57.71L1107.86 56.58L1106.37 55.37L1104.92 54.09L1103.51 52.74L1102.76 51.96L1102.57 52.46L1101.48 55.17L1100.33 57.79L1099.14 60.32L1097.9 62.75L1096.62 65.08L1095.29 67.32L1093.92 69.45L1092.51 71.48L1091.06 73.39L1089.58 75.2L1088.05 76.88L1086.5 78.45L1084.91 79.9L1083.28 81.23L1081.63 82.43L1079.95 83.5L1078.24 84.43L1076.5 85.23L1074.74 85.89L1072.96 86.41L1071.15 86.78L1069.33 87.01L1067.48 87.09L1065.64 87.01L1063.81 86.78L1062.01 86.41L1060.22 85.89L1058.46 85.23L1056.73 84.43L1055.02 83.49L1053.34 82.43L1051.68 81.23L1051.23 80.86L1050.65 82.28L1049.51 84.9L1048.32 87.43L1047.08 89.86L1045.79 92.2L1044.47 94.43L1043.1 96.56L1041.69 98.59L1040.24 100.51L1038.75 102.31L1037.23 104L1035.67 105.57L1034.08 107.02L1032.46 108.34L1030.81 109.54L1029.12 110.61L1027.41 111.54L1025.68 112.34L1023.92 113L1022.13 113.52L1020.33 113.9L1018.5 114.13L1016.66 114.2L1014.81 114.12L1012.99 113.9L1011.18 113.52L1009.4 113L1007.64 112.34L1005.9 111.54L1004.19 110.61L1002.51 109.54L1000.86 108.34L999.24 107.02L997.64 105.57L996.09 104L994.56 102.31L993.08 100.5L991.63 98.59L990.22 96.56L988.85 94.43L987.52 92.2L986.24 89.86L985 87.43L983.81 84.9L982.66 82.28L981.57 79.57L980.52 76.78L979.53 73.9L978.59 70.95L977.71 67.91L976.88 64.81L976.11 61.63L975.4 58.38L974.75 55.07L974.16 51.7L973.9 49.95L973.46 51.05L972.06 54.19L970.55 57.26L968.92 60.27L967.18 63.21L965.33 66.07L963.38 68.85L961.32 71.55L959.17 74.17L956.92 76.71L954.57 79.15L952.13 81.51L949.61 83.77L947 85.93L944.3 87.99L941.53 89.95L938.68 91.81L935.75 93.55L932.76 95.19L929.69 96.71L926.56 98.11L923.37 99.39L920.12 100.55L916.81 101.59L913.45 102.49L910.03 103.26L906.57 103.9L903.06 104.41L899.51 104.77L895.91 104.99L894.72 105.01L892.06 107.05L889.29 109.01L886.43 110.86L883.51 112.61L880.51 114.24L877.45 115.76L874.32 117.16L871.13 118.44L867.87 119.6L864.57 120.64L861.2 121.54L857.79 122.32L854.32 122.96L850.81 123.46L847.26 123.82L843.67 124.04L840.04 124.11L836.41 124.04L832.82 123.82L829.27 123.46L825.76 122.96L822.29 122.32L818.88 121.54L815.51 120.64L812.2 119.6L808.95 118.44L805.76 117.16L802.63 115.76L799.57 114.24L796.57 112.6L793.65 110.86L790.8 109L788.02 107.04L785.33 104.98L782.72 102.82L780.19 100.56L777.75 98.2L775.41 95.76L773.16 93.22L771 90.6L768.95 87.9L766.99 85.12L765.15 82.25L763.41 79.32L763.03 78.62L761.58 78.59L757.99 78.37L754.44 78.01L754.13 77.96L752.79 78.78L751.17 79.67L749.52 80.47L747.83 81.18L746.12 81.81L744.39 82.34L742.63 82.79L740.85 83.13L739.04 83.38L737.21 83.54L735.37 83.59L733.52 83.54L731.7 83.38L729.89 83.13L728.11 82.79L726.35 82.34L724.61 81.81L722.9 81.18L721.22 80.47L719.57 79.66L717.95 78.78L716.36 77.81L714.8 76.76L713.28 75.63L711.79 74.42L710.34 73.14L708.93 71.78L708.18 71L707.99 71.51L706.9 74.21L705.75 76.83L704.56 79.36L703.32 81.79L702.04 84.13L700.71 86.36L699.34 88.49L697.93 90.52L696.48 92.44L695 94.24L693.47 95.93L691.92 97.5L690.32 98.95L688.7 100.27L687.05 101.47L685.37 102.54L683.66 103.47L681.92 104.27L680.16 104.93L678.38 105.45L676.57 105.83L674.75 106.06L672.9 106.13L671.06 106.06L669.23 105.83L667.43 105.45L665.64 104.93L663.88 104.27L662.15 103.47L660.44 102.54L658.75 101.47L657.1 100.27L656.65 99.9L656.07 101.33L654.93 103.95L653.73 106.47L652.5 108.91L651.21 111.24L649.88 113.48L648.52 115.61L647.11 117.63L645.66 119.55L644.17 121.35L642.65 123.04L641.09 124.61L639.5 126.06L637.88 127.39L636.22 128.58L634.54 129.65L632.83 130.59L631.1 131.39L629.34 132.05L627.55 132.57L625.75 132.94L623.92 133.17L622.08 133.24L620.23 133.17L618.41 132.94L616.6 132.57L614.82 132.05L613.06 131.39L611.32 130.59L609.61 129.65L607.93 128.58L606.28 127.38L604.65 126.06L603.06 124.61L601.51 123.04L599.98 121.35L598.5 119.55L597.05 117.63L595.64 115.61L594.27 113.47L593.26 111.77L591.63 111.67L588.08 111.31L584.57 110.8L581.11 110.16L577.69 109.39L574.33 108.48L571.02 107.45L567.77 106.29L564.57 105.01L561.44 103.6L558.38 102.08L556.8 101.22L555.03 102.81L552.41 104.97L549.72 107.04L546.95 109L544.1 110.85L541.17 112.6L538.18 114.23L535.11 115.75L531.98 117.15L528.79 118.44L525.54 119.59L522.23 120.63L518.86 121.53L515.45 122.31L511.98 122.95L508.48 123.45L504.92 123.81L501.33 124.03L497.7 124.1L494.07 124.03L490.48 123.81L486.93 123.45L483.42 122.95L479.96 122.31L476.54 121.53L474.85 121.08L474.48 121.09L472.63 121.02L470.81 120.79L469 120.42L467.22 119.9L465.46 119.24L463.72 118.44L462.01 117.5L460.33 116.43L458.68 115.23L457.78 114.5L457.23 114.23L454.23 112.59L451.31 110.85L448.46 108.99L445.68 107.03L442.99 104.97L440.38 102.81L437.85 100.55L435.42 98.19L433.07 95.75L430.82 93.21L430.55 92.89L429.13 93.3L427.32 93.68L425.5 93.9L423.65 93.98L421.81 93.9L419.98 93.68L418.18 93.3L416.4 92.78L414.63 92.12L412.9 91.32L411.19 90.39L409.51 89.32L408.94 88.9L408.04 89.35L404.91 90.75L401.71 92.04L398.46 93.2L395.15 94.23L391.79 95.13L388.37 95.91L384.91 96.55L381.4 97.05L377.85 97.41L374.26 97.63L370.63 97.71L367 97.63L363.41 97.41L359.85 97.05L356.34 96.55L352.88 95.91L349.47 95.13L346.1 94.23L342.79 93.19L339.54 92.03L336.35 90.75L336.13 90.65L334.98 90.72L331.35 90.8L327.72 90.72L324.13 90.5L320.57 90.14L317.06 89.64L315.34 89.32L313.84 90.66L311.23 92.82L308.53 94.88L305.76 96.84L302.91 98.7L299.99 100.44L296.99 102.08L293.93 103.6L290.8 105L287.6 106.28L284.35 107.44L281.04 108.48L277.68 109.38L274.26 110.15L270.8 110.79L267.29 111.3L263.74 111.66L260.14 111.88L258.95 111.9L256.29 113.94L253.52 115.9L250.67 117.75L247.74 119.5L244.75 121.13L241.68 122.65L238.55 124.05L235.36 125.34L232.11 126.49L228.8 127.53L225.43 128.43L222.02 129.21L218.55 129.85L215.04 130.35L211.49 130.71L207.9 130.93L204.27 131L200.64 130.93L197.05 130.71L193.5 130.35L189.99 129.85L186.52 129.21L183.11 128.43L179.75 127.53L176.44 126.49L173.18 125.33L169.99 124.05L166.86 122.65L163.8 121.13L160.8 119.49L157.88 117.75L155.03 115.89L152.25 113.93L149.56 111.87L146.95 109.71L144.42 107.45L141.99 105.09L139.64 102.65L137.39 100.11L135.23 97.49L133.18 94.79L131.22 92.01L129.38 89.15L127.64 86.21L126.01 83.2L124.5 80.13L123.1 76.99L122.66 75.89L122.39 77.64L121.81 81.01L121.16 84.32L120.45 87.57L119.68 90.75L118.85 93.85L117.96 96.89L117.02 99.84L116.03 102.72L114.99 105.51L113.89 108.22L112.75 110.84L111.55 113.37L110.32 115.8L109.03 118.13L107.71 120.37L106.34 122.5L104.93 124.53L103.48 126.44L101.99 128.25L100.47 129.93L98.91 131.5L97.32 132.95L95.7 134.28L94.04 135.48L92.36 136.55L90.65 137.48L88.92 138.28L87.16 138.94L85.37 139.46L83.57 139.83L81.74 140.06L79.9 140.14L78.05 140.06L76.23 139.83L74.42 139.46L72.64 138.94L70.88 138.28L69.14 137.48L67.43 136.54L65.75 135.48L64.1 134.28L62.47 132.95L60.88 131.5L59.33 129.93L57.8 128.24L56.32 126.44L54.87 124.52L53.46 122.5L52.09 120.37L50.76 118.13L49.48 115.8L48.24 113.36L47.05 110.84L45.9 108.22L45.33 106.79L44.87 107.16L43.22 108.36L41.54 109.43L39.83 110.36L38.09 111.16L36.33 111.83L34.55 112.34L32.74 112.72L30.92 112.95L29.07 113.02L27.23 112.95L25.4 112.72L23.6 112.34L21.81 111.82L20.05 111.16L18.32 110.36L16.61 109.43L14.93 108.36L13.27 107.16L11.65 105.84L10.06 104.39L8.5 102.82L6.98 101.13L5.49 99.32L4.04 97.41L2.63 95.38L1.27 93.25L-0.06 91.02L-1.35 88.68L-2.58 86.25L-3.78 83.72L-4.92 81.1L-6.02 78.39L-6.21 77.89L-6.95 78.67L-8.36 80.02L-9.81 81.31L-11.3 82.51L-12.82 83.64L-14.38 84.69L-15.97 85.66L-17.59 86.55L-19.25 87.35L-20.93 88.07L-22.64 88.7L-24.37 89.23L-26.13 89.67L-27.92 90.02L-29.72 90.27L-31.55 90.42L-33.39 90.47L-35.24 90.42L-37.06 90.27L-38.87 90.02L-40.65 89.67L-42.41 89.23L-44.15 88.69L-45.86 88.07L-47.54 87.35L-49.19 86.55L-50.82 85.66L-52.41 84.69L-53.96 83.64L-55.49 82.51L-56.97 81.31L-58.29 80.14L-59.8 83.2L-61.43 86.21L-63.17 89.14L-65.02 92L-66.97 94.78L-69.03 97.49L-71.18 100.11L-73.43 102.64L-75.78 105.09L-78.22 107.44L-80.74 109.7L-83.35 111.87L-86.05 113.93L-88.82 115.89L-91.67 117.74L-94.6 119.49L-97.59 121.12L-100.66 122.64L-103.79 124.04L-106.98 125.33L-110.23 126.49L-113.54 127.52L-116.9 128.42L-120.32 129.2L-123.78 129.84L-127.29 130.34L-130.85 130.7L-134.44 130.92L-138.07 131L-141.7 130.92L-145.29 130.7L-148.84 130.34L-152.35 129.84L-155.81 129.2L-159.23 128.42L-162.59 127.52L-165.9 126.48L-169.15 125.32L-172.35 124.04L-175.48 122.64L-178.54 121.12L-181.54 119.48L-184.46 117.74L-187.31 115.89L-190.08 113.93L-192.78 111.86L-195.39 109.7L-197.91 107.44L-200.35 105.08L-202.7 102.64L-204.95 100.1L-207.11 97.48L-209.16 94.78L-211.11 92L-212.96 89.14L-214.7 86.2L-216.33 83.19L-217.84 80.12L-219.24 76.98L-220.52 73.77L-221.67 70.51L-222.7 67.19L-223.61 63.81L-224.38 60.39L-225.01 56.91L-225.51 53.39L-225.88 49.82L-226.09 46.22L-226.17 42.58L-226.09 38.93L-225.87 35.33L-225.51 31.76L-225.01 28.24L-224.62 26.1L-226.07 25.39L-227.69 24.5L-229.28 23.53L-230.84 22.48L-232.36 21.35L-233.85 20.14L-235.3 18.86L-236.71 17.51L-238.08 16.08L-239.41 14.58L-240.69 13.02L-241.93 11.39L-243.12 9.7L-244.26 7.95L-245.36 6.13L-246.4 4.26L-247.4 2.34L-248.34 0.36L-249.22 -1.67L-250.05 -3.75L-250.82 -5.88L-251.53 -8.05L-252.18 -10.26L-252.76 -12.52L-253.29 -14.82L-253.75 -17.15L-254.14 -19.52L-254.46 -21.93L-254.72 -24.36L-254.9 -26.83L-255.01 -29.32L-255.05 -31.84L-255.01 -34.36L-254.9 -36.86L-254.72 -39.32L-254.46 -41.76L-254.14 -44.16L-253.75 -46.53L-253.29 -48.87L-252.76 -51.16L-252.18 -53.42L-251.53 -55.64L-250.82 -57.81L-250.05 -59.94L-249.22 -62.02L-248.33 -64.05L-247.4 -66.03L-246.4 -67.95L-245.36 -69.82L-244.26 -71.63L-243.12 -73.39L-241.93 -75.08L-240.69 -76.71L-239.4 -78.27L-238.08 -79.77L-236.71 -81.19L-235.3 -82.55L-233.85 -83.83L-232.36 -85.04L-230.84 -86.17L-229.28 -87.22L-227.69 -88.19L-226.07 -89.08L-224.41 -89.88L-222.73 -90.59L-221.02 -91.22L-219.29 -91.75L-217.53 -92.2L-215.74 -92.54L-213.94 -92.79L-212.11 -92.95L-210.27 -93L-208.42 -92.95L-206.6 -92.79L-204.79 -92.54L-203.01 -92.2L-201.25 -91.75L-199.51 -91.22L-197.8 -90.59L-196.12 -89.88L-194.47 -89.07L-192.84 -88.19L-191.25 -87.22L-189.7 -86.17L-188.17 -85.04L-186.69 -83.83L-185.24 -82.55L-183.83 -81.19L-182.46 -79.76L-181.13 -78.27L-179.85 -76.7L-178.61 -75.08L-177.42 -73.38L-176.27 -71.63L-175.18 -69.82L-174.13 -67.95L-173.14 -66.02L-172.2 -64.04L-171.32 -62.01L-170.49 -59.94L-169.72 -57.81L-169.01 -55.64L-168.89 -55.22L-167.82 -55.49L-166.67 -55.66L-165.49 -55.71L-164.31 -55.66L-163.15 -55.49L-162.03 -55.21L-160.93 -54.82L-159.87 -54.34L-158.85 -53.76L-157.86 -53.1L-156.93 -52.34L-156.04 -51.5L-155.2 -50.59L-154.42 -49.6L-153.7 -48.53L-153.04 -47.41L-152.44 -46.22L-151.91 -44.98L-151.83 -44.75L-148.84 -45.18L-145.28 -45.55L-141.69 -45.77L-138.06 -45.84L-134.43 -45.77L-130.84 -45.55L-129.52 -45.41L-129.84 -46.05L-130.37 -47.29L-130.82 -48.59L-131.2 -49.93L-131.51 -51.32L-131.72 -52.75L-131.86 -54.22L-131.9 -55.71L-131.86 -57.21L-131.72 -58.67L-131.5 -60.1L-131.2 -61.49L-130.82 -62.84L-130.37 -64.13L-129.84 -65.38L-129.24 -66.57L-128.58 -67.69L-127.86 -68.75L-127.08 -69.74L-126.24 -70.66L-125.35 -71.5L-124.42 -72.25L-123.43 -72.92L-122.41 -73.5L-121.35 -73.98L-120.25 -74.36L-119.13 -74.64L-117.97 -74.81L-116.79 -74.87L-115.61 -74.81L-114.45 -74.64L-113.33 -74.36L-112.23 -73.98L-111.17 -73.5L-110.15 -72.92L-109.17 -72.25L-108.23 -71.5L-107.34 -70.66L-107.05 -70.34L-107.03 -70.72L-106.81 -72.25L-106.45 -73.71L-105.96 -75.07L-105.36 -76.32L-104.65 -77.46L-103.84 -78.45L-102.95 -79.3L-101.98 -79.98L-100.94 -80.49L-99.85 -80.8L-98.71 -80.91L-97.57 -80.8L-96.48 -80.49L-95.44 -79.98L-94.47 -79.3L-93.58 -78.45L-92.78 -77.46L-92.07 -76.32L-91.46 -75.07L-90.98 -73.71L-90.62 -72.25L-90.39 -70.72L-90.32 -69.12L-90.39 -67.52L-90.62 -65.99L-90.98 -64.53L-91.46 -63.17L-92.07 -61.92L-92.78 -60.79L-93.58 -59.79L-94.48 -58.94L-95.44 -58.26L-96.48 -57.75L-97.57 -57.44L-98.71 -57.33L-99.85 -57.44L-100.94 -57.75L-101.81 -58.18L-101.72 -57.21L-101.68 -55.71L-101.72 -54.22L-101.86 -52.75L-102.08 -51.32L-102.38 -49.93L-102.76 -48.59L-103.22 -47.29L-103.74 -46.05L-104.34 -44.86L-105 -43.73L-105.72 -42.67L-106.51 -41.68L-107.34 -40.77L-107.7 -40.43L-106.97 -40.17L-103.78 -38.89L-100.65 -37.48L-97.59 -35.96L-94.59 -34.33L-91.67 -32.58L-88.82 -30.73L-86.04 -28.77L-83.95 -27.16L-83.95 -27.29L-83.81 -28.76L-83.59 -30.19L-83.29 -31.58L-82.91 -32.92L-82.45 -34.22L-81.93 -35.46L-81.33 -36.65L-80.67 -37.78L-79.95 -38.84L-79.16 -39.83L-78.33 -40.74L-77.44 -41.58L-76.5 -42.34L-75.52 -43.01L-74.5 -43.58L-73.44 -44.06L-72.34 -44.45L-72.32 -44.45L-72.38 -44.71L-72.66 -46.2L-72.88 -47.72L-73.05 -49.25L-73.14 -50.8L-73.18 -52.36L-73.14 -53.93L-73.05 -55.48L-72.88 -57.01L-72.66 -58.52L-72.38 -60.02L-72.03 -61.49L-71.63 -62.94L-71.17 -64.37L-70.66 -65.77L-70.09 -67.15L-69.47 -68.5L-68.79 -69.82L-68.07 -71.11L-67.29 -72.37L-66.47 -73.6L-65.6 -74.8L-64.68 -75.96L-63.72 -77.09L-62.72 -78.18L-61.67 -79.23L-60.59 -80.24L-59.46 -81.21L-58.3 -82.14L-57.1 -83.03L-55.86 -83.87L-54.59 -84.67L-53.29 -85.42L-51.96 -86.12L-50.59 -86.77L-49.2 -87.37L-47.77 -87.93L-46.33 -88.42L-45.92 -88.55L-45.93 -88.87L-45.88 -90.36L-45.75 -91.83L-45.53 -93.26L-45.23 -94.65L-44.85 -95.99L-44.39 -97.29L-43.86 -98.53L-43.27 -99.72L-42.6 -100.85L-41.88 -101.91L-41.1 -102.9L-40.26 -103.81L-39.38 -104.65L-38.44 -105.41L-37.46 -106.07L-36.43 -106.65L-35.37 -107.13L-34.28 -107.52L-33.15 -107.8L-31.99 -107.97L-30.81 -108.02L-29.63 -107.97L-28.48 -107.8L-27.35 -107.52L-26.25 -107.13L-25.19 -106.65L-24.17 -106.07L-23.19 -105.41L-22.25 -104.65L-21.36 -103.81L-20.53 -102.9L-19.75 -101.9L-19.02 -100.84L-18.36 -99.72L-17.77 -98.53L-17.24 -97.29L-16.78 -95.99L-16.4 -94.65L-16.1 -93.26L-15.88 -91.83L-15.75 -90.36L-15.7 -88.87L-15.75 -87.37L-15.86 -86.1L-14.56 -85.42L-13.26 -84.67L-11.99 -83.87L-10.75 -83.03L-9.55 -82.14L-8.39 -81.21L-7.26 -80.24L-7.19 -80.17L-7.08 -80.3L-6.2 -81.2L-5.24 -82.01L-4.22 -82.73L-3.13 -83.36L-1.98 -83.88L-0.78 -84.3L0.46 -84.61L1.75 -84.8L3.07 -84.86L4.4 -84.8L5.69 -84.61L6.93 -84.3L8.13 -83.88L9.28 -83.36L10.37 -82.73L11.39 -82.01L12.35 -81.2L13.22 -80.3L14.02 -79.33L14.73 -78.29L15.35 -77.18L15.86 -76.01L16.27 -74.79L16.58 -73.52L16.76 -72.21L16.82 -70.86L16.76 -69.51L16.58 -68.2L16.27 -66.93L15.86 -65.71L15.82 -65.61L16.61 -66.12L18.32 -67.05L20.06 -67.85L21.82 -68.51L23.6 -69.03L25.41 -69.4L27.23 -69.63L28.21 -69.67L28.57 -70.73L29.01 -71.88L29.51 -73.01L30.05 -74.11L30.63 -75.2L31.26 -76.25L31.33 -76.35L30.29 -76.81L29.19 -77.38L28.13 -78.02L27.12 -78.72L26.14 -79.48L25.21 -80.29L24.33 -81.16L23.5 -82.09L22.72 -83.06L22 -84.08L21.33 -85.15L20.73 -86.26L20.18 -87.41L19.71 -88.59L19.29 -89.82L18.95 -91.07L18.68 -92.36L18.48 -93.67L18.36 -95L18.32 -96.36L18.36 -97.72L18.48 -99.06L18.68 -100.37L18.95 -101.65L19.29 -102.91L19.71 -104.13L20.18 -105.32L20.73 -106.47L21.33 -107.58L22 -108.64L22.72 -109.66L23.5 -110.64L24.33 -111.56L25.21 -112.43L26.14 -113.25L27.12 -114.01L28.13 -114.71L29.19 -115.34L30.29 -115.91L31.42 -116.41L32.58 -116.85L33.78 -117.21L35 -117.49L36.25 -117.69L37.53 -117.82L38.82 -117.86L40.12 -117.82L41.39 -117.69L42.65 -117.49L43.87 -117.21L45.07 -116.85L46.23 -116.41L47.36 -115.91L48.46 -115.34L49.52 -114.71L50.53 -114.01L51.51 -113.25L52.44 -112.43L53.32 -111.56L54.15 -110.64L54.93 -109.66L55.65 -108.64L56.32 -107.58L56.92 -106.47L57.46 -105.32L57.94 -104.13L58.36 -102.91L58.7 -101.65L58.97 -100.37L59.16 -99.06L59.28 -97.72L59.32 -96.36L59.28 -95L59.16 -93.67L58.97 -92.36L58.76 -91.35L59.32 -91.36L60.18 -91.35L60.32 -91.74L61 -93.37L61.74 -94.97L62.55 -96.54L63.41 -98.07L64.33 -99.56L65.31 -101.01L66.35 -102.43L67.44 -103.81L68.58 -105.14L69.78 -106.43L71.02 -107.68L72.32 -108.87L73.66 -110.02L75.04 -111.13L76.47 -112.18L77.74 -113.03L76.9 -113.39L75.81 -113.95L74.77 -114.58L73.77 -115.29L72.82 -116.08L71.93 -116.92L71.09 -117.84L70.31 -118.81L69.6 -119.84L68.96 -120.92L68.38 -122.05L67.88 -123.23L67.46 -124.45L67.12 -125.71L66.87 -127L66.7 -128.33L66.62 -129.69L66.64 -131.05L66.75 -132.38L66.95 -133.68L67.24 -134.96L67.6 -136.2L68.05 -137.39L68.58 -138.55L69.17 -139.66L69.84 -140.71L70.58 -141.72L71.37 -142.67L72.23 -143.55L73.14 -144.37L74.11 -145.13L75.13 -145.81L76.19 -146.41L77.3 -146.94L78.45 -147.38L79.64 -147.74L80.86 -148.01L82.11 -148.18L83.39 -148.26L84.67 -148.24L85.93 -148.12L87.16 -147.9L88.36 -147.6L89.53 -147.2L90.66 -146.72L91.75 -146.16L92.79 -145.53L93.79 -144.82L94.74 -144.03L95.63 -143.19L96.47 -142.27L97.25 -141.3L97.96 -140.27L98.6 -139.19L99.18 -138.06L99.68 -136.88L100.1 -135.66L100.44 -134.4L100.69 -133.11L100.86 -131.78L100.94 -130.42L100.92 -129.07L100.81 -127.73L100.61 -126.43L100.32 -125.15L99.96 -123.92L99.51 -122.72L98.98 -121.56L98.43 -120.54L100.24 -120.71L102.15 -120.82L104.07 -120.86L106 -120.82L107.91 -120.71L109.79 -120.53L111.65 -120.27L113.49 -119.95L115.3 -119.55L117.09 -119.09L118.84 -118.57L120.57 -117.98L120.57 -118.02L120.87 -119.29L121.29 -120.51L121.8 -121.68L122.42 -122.79L123.13 -123.83L123.92 -124.8L124.8 -125.7L125.76 -126.51L126.78 -127.23L127.87 -127.86L129.02 -128.38L130.22 -128.8L131.46 -129.11L132.75 -129.3L134.07 -129.36L135.4 -129.3L136.69 -129.11L137.93 -128.8L139.13 -128.38L140.28 -127.86L141.37 -127.23L142.39 -126.51L143.35 -125.7L144.22 -124.8L145.02 -123.83L145.73 -122.79L146.35 -121.68L146.86 -120.51L147.27 -119.29L147.58 -118.02L147.76 -116.71L147.82 -115.36L147.76 -114.01L147.58 -112.7L147.27 -111.43L146.86 -110.21L146.35 -109.04L145.73 -107.94L145.02 -106.89L144.22 -105.92L143.35 -105.03L142.39 -104.22L141.37 -103.49L141.09 -103.33L141.8 -102.43L142.84 -101.01L143.82 -99.56L144.74 -98.07L145.6 -96.54L146.41 -94.97L147.15 -93.37L147.83 -91.74L148.44 -90.08L148.98 -88.42L149.22 -88.86L150.32 -90.68L151.46 -92.43L152.66 -94.12L153.9 -95.75L155.18 -97.31L156.51 -98.81L157.88 -100.24L159.29 -101.59L160.73 -102.87L162.22 -104.08L163.74 -105.21L165.3 -106.26L166.89 -107.23L168.51 -108.12L170.17 -108.92L171.85 -109.64L173.56 -110.26L175.29 -110.8L177.06 -111.24L178.84 -111.59L180.64 -111.84L182.47 -111.99L184.31 -112.04L186.16 -111.99L187.98 -111.84L189.79 -111.59L191.57 -111.24L193.33 -110.8L195.07 -110.26L196.78 -109.64L198.46 -108.92L200.11 -108.12L201.74 -107.23L203.33 -106.26L204.89 -105.21L206.41 -104.08L207.89 -102.87L209.34 -101.59L210.75 -100.23L212.12 -98.81L213.45 -97.31L214.73 -95.75L215.97 -94.12L217.16 -92.43L218.31 -90.67L218.33 -90.64L218.76 -91.01L219.78 -91.73L220.87 -92.36L222.02 -92.88L223.22 -93.3L224.46 -93.61L225.75 -93.8L227.07 -93.86L228.4 -93.8L229.69 -93.61L230.93 -93.3L231.17 -93.22L231.16 -93.85L231.2 -96.37L231.31 -98.86L231.49 -101.33L231.75 -103.77L232.07 -106.17L232.46 -108.54L232.92 -110.87L233.44 -113.17L234.03 -115.43L234.68 -117.65L235.39 -119.82L236.08 -121.73L235.77 -121.84L234.62 -122.37L233.53 -122.99L232.51 -123.72L231.55 -124.53L230.67 -125.42L229.88 -126.39L229.17 -127.44L228.55 -128.54L228.04 -129.71L227.62 -130.93L227.32 -132.2L227.14 -133.51L227.07 -134.86L227.14 -136.21L227.32 -137.52L227.62 -138.79L228.04 -140.01L228.55 -141.18L229.17 -142.29L229.88 -143.33L230.67 -144.3L231.55 -145.2L232.51 -146.01L233.53 -146.73L234.62 -147.36L235.77 -147.88L236.97 -148.3L238.21 -148.61L239.5 -148.8L240.82 -148.86L242.15 -148.8L243.44 -148.61L244.68 -148.3L245.88 -147.88L247.03 -147.36L248.12 -146.73L249.14 -146.01L250.1 -145.2L250.82 -144.46L250.91 -144.56L252.36 -145.84L253.85 -147.05L255.37 -148.18L256.93 -149.23L258.52 -150.2L260.14 -151.08L261.79 -151.89L263.47 -152.6L265.18 -153.23L266.92 -153.76L268.68 -154.2L270.46 -154.55L272.27 -154.8L274.1 -154.95L275.94 -155.01L277.78 -154.95L279.61 -154.8ZM5.03 -57.02L5.03 -57.01L5.18 -55.59L5.5 -56.01L6.59 -57.34L5.69 -57.11L5.03 -57.02ZM1257.15 -114.32L1258.18 -113.81L1259.15 -113.13L1260.05 -112.28L1260.85 -111.28L1261.56 -110.15L1262.17 -108.9L1262.65 -107.54L1263.01 -106.08L1263.24 -104.55L1263.31 -102.95L1263.24 -101.35L1263.01 -99.82L1262.65 -98.36L1262.17 -97L1261.56 -95.75L1260.85 -94.61L1260.05 -93.62L1259.15 -92.77L1258.18 -92.09L1257.15 -91.58L1256.06 -91.27L1254.92 -91.16L1253.78 -91.27L1252.69 -91.58L1251.65 -92.09L1250.68 -92.77L1249.79 -93.62L1248.98 -94.61L1248.27 -95.75L1247.67 -97L1247.18 -98.36L1246.82 -99.82L1246.6 -101.35L1246.52 -102.95L1246.6 -104.55L1246.82 -106.08L1247.18 -107.54L1247.67 -108.9L1248.27 -110.15L1248.98 -111.28L1249.79 -112.28L1250.68 -113.13L1251.65 -113.81L1252.69 -114.32L1253.78 -114.63L1254.92 -114.74L1256.06 -114.63L1257.15 -114.32ZM490.55 -114.33L491.59 -113.82L492.55 -113.14L493.45 -112.29L494.25 -111.3L494.96 -110.16L495.57 -108.91L496.05 -107.55L496.41 -106.09L496.64 -104.56L496.71 -102.96L496.64 -101.36L496.41 -99.83L496.05 -98.37L495.57 -97.01L494.96 -95.76L494.25 -94.63L493.45 -93.63L492.55 -92.78L491.58 -92.1L490.55 -91.59L489.46 -91.28L488.32 -91.17L487.18 -91.28L486.09 -91.59L485.05 -92.1L484.08 -92.78L483.19 -93.63L482.38 -94.63L481.67 -95.76L481.07 -97.01L480.58 -98.38L480.22 -99.83L480 -101.36L479.92 -102.96L480 -104.56L480.22 -106.09L480.58 -107.55L481.07 -108.91L481.67 -110.16L482.38 -111.3L483.19 -112.29L484.08 -113.14L485.05 -113.82L486.09 -114.33L487.18 -114.64L488.32 -114.75L489.46 -114.64L490.55 -114.33ZM781.44 -123.61L782.68 -123.3L783.88 -122.88L785.03 -122.36L786.12 -121.73L787.14 -121.01L788.1 -120.2L788.97 -119.3L789.77 -118.33L790.48 -117.29L791.1 -116.18L791.61 -115.01L792.02 -113.79L792.33 -112.52L792.51 -111.21L792.57 -109.86L792.51 -108.51L792.33 -107.2L792.02 -105.93L791.61 -104.71L791.1 -103.54L790.48 -102.44L789.77 -101.39L788.97 -100.42L788.1 -99.53L787.14 -98.72L786.12 -97.99L785.03 -97.37L783.88 -96.84L782.68 -96.42L781.44 -96.11L780.15 -95.93L778.82 -95.86L777.5 -95.93L776.21 -96.11L774.97 -96.42L773.77 -96.84L772.62 -97.37L771.53 -97.99L770.51 -98.72L769.55 -99.53L768.67 -100.42L767.88 -101.39L767.17 -102.44L766.55 -103.54L766.04 -104.71L765.62 -105.93L765.32 -107.2L765.14 -108.51L765.07 -109.86L765.14 -111.21L765.32 -112.52L765.62 -113.79L766.04 -115.01L766.55 -116.18L767.17 -117.29L767.88 -118.33L768.67 -119.3L769.55 -120.2L770.51 -121.01L771.53 -121.73L772.62 -122.36L773.77 -122.88L774.97 -123.3L776.21 -123.61L777.5 -123.8L778.82 -123.86L780.15 -123.8L781.44 -123.61ZM1068.44 -147.61L1069.68 -147.3L1070.88 -146.88L1072.03 -146.36L1073.12 -145.73L1074.14 -145.01L1075.1 -144.2L1075.97 -143.3L1076.77 -142.33L1077.48 -141.29L1078.1 -140.18L1078.61 -139.01L1079.02 -137.79L1079.33 -136.52L1079.51 -135.21L1079.57 -133.86L1079.51 -132.51L1079.33 -131.2L1079.02 -129.93L1078.61 -128.71L1078.1 -127.54L1077.48 -126.44L1076.77 -125.39L1075.97 -124.42L1075.1 -123.53L1074.14 -122.72L1073.12 -121.99L1072.03 -121.37L1070.88 -120.84L1069.68 -120.42L1068.44 -120.11L1067.15 -119.93L1065.82 -119.86L1064.5 -119.93L1063.21 -120.11L1061.97 -120.42L1060.77 -120.84L1059.62 -121.37L1058.53 -121.99L1057.51 -122.72L1056.55 -123.53L1055.67 -124.42L1054.88 -125.39L1054.17 -126.44L1053.55 -127.54L1053.04 -128.71L1052.62 -129.93L1052.32 -131.2L1052.14 -132.51L1052.07 -133.86L1052.14 -135.21L1052.32 -136.52L1052.62 -137.79L1053.04 -139.01L1053.55 -140.18L1054.17 -141.29L1054.88 -142.33L1055.67 -143.3L1056.55 -144.2L1057.51 -145.01L1058.53 -145.73L1059.62 -146.36L1060.77 -146.88L1061.97 -147.3L1063.21 -147.61L1064.5 -147.8L1065.82 -147.86L1067.15 -147.8L1068.44 -147.61ZM471.34 -148.16L472.38 -147.65L473.35 -146.97L474.24 -146.12L475.05 -145.12L475.76 -143.99L476.36 -142.74L476.85 -141.38L477.21 -139.92L477.43 -138.39L477.51 -136.79L477.43 -135.19L477.21 -133.66L476.85 -132.2L476.36 -130.84L475.76 -129.59L475.05 -128.46L474.24 -127.46L473.35 -126.61L472.38 -125.93L471.34 -125.42L470.25 -125.11L469.11 -125L467.97 -125.11L466.88 -125.42L465.84 -125.93L464.88 -126.61L463.98 -127.46L463.18 -128.46L462.47 -129.59L461.86 -130.84L461.38 -132.2L461.02 -133.66L460.79 -135.19L460.72 -136.79L460.79 -138.39L461.02 -139.92L461.38 -141.38L461.86 -142.74L462.47 -143.99L463.18 -145.12L463.98 -146.12L464.88 -146.97L465.85 -147.65L466.88 -148.16L467.97 -148.47L469.11 -148.58L470.25 -148.47L471.34 -148.16ZM538.34 -154.58L539.37 -154.07L540.34 -153.39L541.24 -152.54L542.04 -151.54L542.75 -150.41L543.36 -149.16L543.84 -147.8L544.2 -146.34L544.43 -144.81L544.5 -143.21L544.43 -141.61L544.2 -140.08L543.84 -138.62L543.36 -137.26L542.75 -136.01L542.04 -134.87L541.24 -133.88L540.34 -133.03L539.37 -132.35L538.34 -131.84L537.25 -131.53L536.11 -131.42L534.97 -131.53L533.88 -131.84L532.84 -132.35L531.87 -133.03L530.98 -133.88L530.17 -134.87L529.46 -136.01L528.86 -137.26L528.37 -138.62L528.01 -140.08L527.79 -141.61L527.71 -143.21L527.79 -144.81L528.01 -146.34L528.37 -147.8L528.86 -149.16L529.46 -150.41L530.17 -151.54L530.98 -152.54L531.87 -153.39L532.84 -154.07L533.88 -154.58L534.97 -154.89L536.11 -155L537.25 -154.89L538.34 -154.58ZM820.26 -152.4L821.48 -151.86L822.59 -151.12L823.58 -150.23L824.43 -149.18L825.13 -148L825.64 -146.71L825.96 -145.32L826.07 -143.86L825.96 -142.4L825.64 -141.02L825.13 -139.73L824.43 -138.55L823.58 -137.5L822.59 -136.6L821.48 -135.87L820.26 -135.32L818.95 -134.98L817.57 -134.86L816.2 -134.98L814.89 -135.32L813.67 -135.87L812.56 -136.6L811.57 -137.5L810.72 -138.55L810.02 -139.73L809.51 -141.02L809.19 -142.4L809.07 -143.86L809.19 -145.32L809.51 -146.71L810.02 -148L810.72 -149.18L811.57 -150.23L812.56 -151.12L813.67 -151.86L814.89 -152.4L816.2 -152.74L817.57 -152.86L818.95 -152.74L820.26 -152.4ZM932.44 -175.61L933.68 -175.3L934.88 -174.88L936.03 -174.36L937.12 -173.73L938.14 -173.01L939.1 -172.2L939.97 -171.3L940.77 -170.33L941.48 -169.29L942.1 -168.18L942.61 -167.01L943.02 -165.79L943.33 -164.52L943.51 -163.21L943.57 -161.86L943.51 -160.51L943.33 -159.2L943.02 -157.93L942.61 -156.71L942.1 -155.54L941.48 -154.44L940.77 -153.39L939.97 -152.42L939.1 -151.53L938.14 -150.72L937.12 -149.99L936.03 -149.37L934.88 -148.84L933.68 -148.42L932.44 -148.11L931.15 -147.93L929.82 -147.86L928.5 -147.93L927.21 -148.11L925.97 -148.42L924.77 -148.84L923.62 -149.37L922.53 -149.99L921.51 -150.72L920.55 -151.53L919.67 -152.42L918.88 -153.39L918.17 -154.44L917.55 -155.54L917.04 -156.71L916.62 -157.93L916.32 -159.2L916.14 -160.51L916.07 -161.86L916.14 -163.21L916.32 -164.52L916.62 -165.79L917.04 -167.01L917.55 -168.18L918.17 -169.29L918.88 -170.33L919.67 -171.3L920.55 -172.2L921.51 -173.01L922.53 -173.73L923.62 -174.36L924.77 -174.88L925.97 -175.3L927.21 -175.61L928.5 -175.8L929.82 -175.86L931.15 -175.8L932.44 -175.61Z" id="a1U95AHLKs"></path><path d="M63.3 334.37C63.3 344.06 55.44 351.93 45.75 351.93C36.06 351.93 28.2 344.06 28.2 334.37C28.2 324.69 36.06 316.82 45.75 316.82C55.44 316.82 63.3 324.69 63.3 334.37Z" id="dE5x8A2L0"></path><path d="M249.3 426.62C249.3 436.31 241.44 444.18 231.75 444.18C222.06 444.18 214.2 436.31 214.2 426.62C214.2 416.94 222.06 409.07 231.75 409.07C241.44 409.07 249.3 416.94 249.3 426.62Z" id="b1Hw1HlhnT"></path><path d="M474.8 409.07C474.8 418.76 466.94 426.62 457.25 426.62C447.56 426.62 439.7 418.76 439.7 409.07C439.7 399.38 447.56 391.52 457.25 391.52C466.94 391.52 474.8 399.38 474.8 409.07Z" id="apfyaEOOW"></path><path d="M943.8 376.62C943.8 391.28 932.24 403.18 918 403.18C903.76 403.18 892.2 391.28 892.2 376.62C892.2 361.97 903.76 350.07 918 350.07C932.24 350.07 943.8 361.97 943.8 376.62Z" id="aQRmQ6Fo1"></path><path d="M1251.8 326.37C1251.8 336.61 1243.38 344.93 1233 344.93C1222.62 344.93 1214.2 336.61 1214.2 326.37C1214.2 316.14 1222.62 307.82 1233 307.82C1243.38 307.82 1251.8 316.14 1251.8 326.37Z" id="a1ZYW12ll1"></path></defs><g><g><g><g><filter id="shadow5680771" x="-265.05" y="-185.86" width="1626.66" height="336" filterUnits="userSpaceOnUse" primitiveUnits="userSpaceOnUse"><feFlood></feFlood><feComposite in2="SourceAlpha" operator="in"></feComposite><feGaussianBlur stdDeviation="1.41"></feGaussianBlur><feOffset dx="0" dy="0" result="afterOffset"></feOffset><feFlood flood-color="#000000" flood-opacity="0.75"></feFlood><feComposite in2="afterOffset" operator="in"></feComposite><feMorphology operator="dilate" radius="1"></feMorphology><feComposite in2="SourceAlpha" operator="out"></feComposite></filter><path d="M279.61 -154.8L281.42 -154.55L283.2 -154.2L284.96 -153.76L286.7 -153.23L288.41 -152.6L290.09 -151.88L291.74 -151.08L293.36 -150.2L294.95 -149.23L296.51 -148.17L298.03 -147.04L299.52 -145.84L300.97 -144.55L302.38 -143.2L303.75 -141.77L305.07 -140.28L306.36 -138.71L306.6 -138.4L306.92 -138.8L307.8 -139.7L308.76 -140.51L309.78 -141.23L310.87 -141.86L312.02 -142.38L313.22 -142.8L314.46 -143.11L315.75 -143.3L317.07 -143.36L318.4 -143.3L319.69 -143.11L320.93 -142.8L322.13 -142.38L323.28 -141.86L324.37 -141.23L325.39 -140.51L326.35 -139.7L327.22 -138.8L328.02 -137.83L328.73 -136.79L329.35 -135.68L329.86 -134.51L330.27 -133.29L330.58 -132.02L330.76 -130.71L330.82 -129.36L330.76 -128.01L330.58 -126.7L330.27 -125.43L329.86 -124.21L329.35 -123.04L328.73 -121.94L328.02 -120.89L327.22 -119.92L326.35 -119.03L325.39 -118.22L324.37 -117.49L323.28 -116.87L322.13 -116.34L320.93 -115.92L319.69 -115.61L318.4 -115.43L317.85 -115.4L318.43 -113.17L318.96 -110.87L319.42 -108.54L319.81 -106.17L320.13 -103.76L320.39 -101.33L320.51 -99.64L321.28 -99.83L322.43 -100L323.61 -100.06L324.79 -100L325.95 -99.83L327.08 -99.55L328.17 -99.17L329.24 -98.69L330.26 -98.11L331.24 -97.44L332.18 -96.68L333.06 -95.85L333.9 -94.93L334.68 -93.94L335.41 -92.88L336.07 -91.75L336.66 -90.56L337.19 -89.32L337.65 -88.02L338.03 -86.68L338.22 -85.77L338.57 -85.74L342.13 -85.38L345.64 -84.88L349.1 -84.24L352.51 -83.47L355.88 -82.56L359.19 -81.53L362.44 -80.37L364.78 -79.43L364.34 -80.68L363.96 -82.03L363.66 -83.42L363.44 -84.84L363.3 -86.31L363.26 -87.81L363.29 -88.78L362.59 -88.81L361.43 -88.98L360.3 -89.26L359.21 -89.64L358.15 -90.12L357.12 -90.7L356.14 -91.37L355.21 -92.13L354.32 -92.96L353.48 -93.88L352.7 -94.87L351.98 -95.93L351.31 -97.06L350.72 -98.24L350.19 -99.49L349.74 -100.79L349.36 -102.13L349.05 -103.52L348.83 -104.95L348.7 -106.41L348.65 -107.91L348.7 -109.41L348.83 -110.87L349.05 -112.3L349.36 -113.69L349.74 -115.03L350.19 -116.33L350.72 -117.58L351.32 -118.76L351.98 -119.89L352.7 -120.95L353.48 -121.94L354.32 -122.86L355.21 -123.69L356.14 -124.45L357.12 -125.12L358.15 -125.7L359.21 -126.18L360.3 -126.56L361.43 -126.84L362.59 -127.01L363.77 -127.07L364.95 -127.01L366.1 -126.84L367.23 -126.56L368.33 -126.18L369.39 -125.7L370.41 -125.12L371.39 -124.45L372.33 -123.69L373.22 -122.86L374.05 -121.94L374.84 -120.95L375.56 -119.89L376.22 -118.76L376.82 -117.57L377.34 -116.33L377.8 -115.03L378.18 -113.69L378.48 -112.3L378.7 -110.87L378.84 -109.41L378.88 -107.91L378.85 -106.94L379.55 -106.9L380.71 -106.73L381.83 -106.46L382.93 -106.07L383.46 -105.84L383.55 -106.26L384.14 -108.52L384.79 -110.73L385.5 -112.91L386.27 -115.03L387.1 -117.11L387.98 -119.14L388.92 -121.12L389.91 -123.05L390.96 -124.92L392.05 -126.73L393.2 -128.48L394.39 -130.17L395.63 -131.8L396.91 -133.37L398.24 -134.86L399.61 -136.29L401.02 -137.64L402.47 -138.93L403.95 -140.13L405.48 -141.26L407.03 -142.31L408.63 -143.28L410.25 -144.17L411.9 -144.97L413.58 -145.69L415.29 -146.32L417.03 -146.85L418.79 -147.29L420.57 -147.64L422.38 -147.89L424.2 -148.04L426.05 -148.09L427.89 -148.04L429.72 -147.89L431.52 -147.64L433.31 -147.29L435.07 -146.85L436.8 -146.31L438.51 -145.69L440.2 -144.97L441.85 -144.17L443.47 -143.28L445.06 -142.31L446.62 -141.26L448.14 -140.13L449.63 -138.92L451.08 -137.64L452.49 -136.29L453.86 -134.86L455.18 -133.36L456.47 -131.8L457.71 -130.17L458.9 -128.48L460.04 -126.73L461.14 -124.91L462.18 -123.04L463.18 -121.12L464.11 -119.14L465 -117.11L465.83 -115.03L466.6 -112.9L467.31 -110.73L467.95 -108.52L468.54 -106.26L469.07 -103.96L469.52 -101.63L469.92 -99.26L470.24 -96.85L470.49 -94.42L470.68 -91.95L470.79 -89.46L470.83 -86.94L470.79 -84.42L470.68 -81.92L470.67 -81.79L470.89 -81.42L471.93 -79.55L472.93 -77.63L473.87 -75.65L474.75 -73.62L475.58 -71.54L476.35 -69.41L476.59 -68.68L477.32 -69.27L478.3 -69.94L479.32 -70.52L480.39 -71L481.48 -71.38L482.61 -71.66L483.76 -71.83L484.95 -71.89L486.13 -71.83L487.28 -71.66L488.41 -71.38L489.5 -71L490.57 -70.52L491.59 -69.94L492.57 -69.27L493.51 -68.51L494.4 -67.68L495.23 -66.76L496.01 -65.77L496.74 -64.71L497.4 -63.58L497.99 -62.4L498.17 -61.98L498.8 -62.87L500.04 -64.5L501.32 -66.06L502.65 -67.56L504.02 -68.99L505.43 -70.34L506.88 -71.62L508.36 -72.83L509.89 -73.96L511.44 -75.01L512.32 -75.55L512.29 -75.61L511.84 -76.91L511.46 -78.25L511.15 -79.64L510.93 -81.07L510.8 -82.54L510.76 -84.03L510.8 -85.53L510.93 -86.99L511.15 -88.42L511.46 -89.81L511.84 -91.16L512.29 -92.45L512.82 -93.7L513.42 -94.89L514.08 -96.01L514.8 -97.07L515.58 -98.06L516.42 -98.98L517.31 -99.82L518.24 -100.57L519.22 -101.24L520.25 -101.82L521.31 -102.3L522.41 -102.68L523.53 -102.96L524.69 -103.13L525.87 -103.19L527.05 -103.13L528.2 -102.96L529.33 -102.68L530.43 -102.3L531.49 -101.82L532.51 -101.24L533.49 -100.57L534.43 -99.82L535.32 -98.98L536.16 -98.06L536.94 -97.07L537.66 -96.01L538.32 -94.89L538.92 -93.7L539.44 -92.45L539.9 -91.16L540.28 -89.81L540.58 -88.42L540.8 -86.99L540.94 -85.53L540.98 -84.03L540.94 -82.54L540.8 -81.07L540.58 -79.64L540.49 -79.23L541.21 -79.01L542.92 -78.39L544.61 -77.67L546.26 -76.87L547.88 -75.98L549.47 -75.01L551.03 -73.96L552.55 -72.83L554.04 -71.62L555.49 -70.34L555.65 -70.18L555.63 -70.39L555.58 -71.89L555.63 -73.38L555.76 -74.85L555.98 -76.28L556.29 -77.66L556.67 -79.01L557.12 -80.31L557.65 -81.55L558.25 -82.74L558.91 -83.86L559.63 -84.92L560.41 -85.91L561.25 -86.83L562.14 -87.67L563.07 -88.43L564.05 -89.09L565.08 -89.67L566.14 -90.15L567.23 -90.54L568.36 -90.81L569.52 -90.98L570.69 -91.04L570.72 -91.29L571.08 -92.74L571.57 -94.11L572.17 -95.36L572.88 -96.49L573.69 -97.49L574.58 -98.34L575.55 -99.02L576.59 -99.52L577.68 -99.84L578.82 -99.95L579.96 -99.84L581.05 -99.52L582.09 -99.02L583.06 -98.34L583.95 -97.49L584.76 -96.49L585.47 -95.36L586.07 -94.11L586.56 -92.74L586.92 -91.29L587.14 -89.76L587.22 -88.16L587.14 -86.56L586.92 -85.02L586.56 -83.57L586.07 -82.21L585.47 -80.95L584.76 -79.82L584.54 -79.55L584.73 -79.01L585.11 -77.66L585.41 -76.27L585.63 -74.85L585.77 -73.38L585.81 -71.88L585.76 -70.39L585.63 -68.92L585.41 -67.49L585.11 -66.1L584.73 -64.76L584.35 -63.67L584.57 -63.72L588.08 -64.22L591.64 -64.58L595.23 -64.8L596.51 -64.83L596.51 -64.87L596.55 -66.37L596.69 -67.83L596.91 -69.26L597.21 -70.65L597.59 -72L598.04 -73.3L598.57 -74.54L599.17 -75.73L599.83 -76.85L600.55 -77.91L601.33 -78.9L602.17 -79.82L603.06 -80.66L603.99 -81.41L604.98 -82.08L606 -82.66L607.06 -83.14L608.16 -83.52L609.28 -83.8L610.44 -83.97L611.62 -84.03L612.8 -83.97L613.96 -83.8L615.08 -83.52L616.18 -83.14L617.24 -82.66L618.26 -82.08L619.25 -81.41L619.98 -80.82L620.22 -81.56L620.99 -83.68L621.82 -85.76L622.7 -87.79L623.16 -88.76L622.9 -89.27L622.38 -90.41L621.91 -91.57L621.48 -92.75L621.1 -93.95L620.77 -95.18L620.49 -96.42L620.25 -97.67L620.07 -98.95L619.93 -100.24L619.85 -101.54L619.82 -102.86L619.85 -104.18L619.93 -105.49L620.07 -106.78L620.25 -108.05L620.49 -109.31L620.77 -110.55L621.1 -111.77L621.48 -112.97L621.91 -114.15L622.38 -115.31L622.9 -116.45L623.45 -117.56L624.06 -118.65L624.7 -119.71L625.38 -120.75L626.1 -121.76L626.86 -122.73L627.65 -123.68L628.48 -124.6L629.35 -125.49L630.25 -126.34L631.18 -127.16L632.14 -127.94L633.14 -128.68L634.16 -129.39L635.21 -130.07L636.29 -130.7L637.39 -131.29L638.52 -131.84L639.68 -132.35L640.86 -132.81L642.06 -133.23L643.28 -133.6L644.52 -133.93L645.78 -134.21L647.06 -134.44L648.35 -134.63L649.66 -134.76L650.99 -134.84L652.32 -134.86L653.66 -134.84L654.99 -134.76L656.3 -134.63L657.59 -134.44L658.87 -134.21L660.13 -133.93L661.37 -133.6L662.59 -133.23L663.79 -132.81L664.97 -132.35L666.12 -131.84L667.25 -131.29L668.36 -130.7L669.44 -130.07L670.49 -129.39L671.51 -128.68L672.51 -127.94L673.47 -127.16L674.4 -126.34L675.3 -125.49L676.17 -124.6L677 -123.68L677.79 -122.73L678.55 -121.76L679.27 -120.75L679.95 -119.71L680.59 -118.65L681.19 -117.56L681.75 -116.45L682.27 -115.31L682.74 -114.15L683.17 -112.97L683.55 -111.77L683.88 -110.55L684.16 -109.31L684.4 -108.05L684.46 -107.66L684.56 -107.69L686.13 -108.19L687.74 -108.63L689.36 -109L691.02 -109.31L692.69 -109.55L694.38 -109.72L696.09 -109.83L697.82 -109.86L699.55 -109.83L701.27 -109.72L702.96 -109.55L704.63 -109.31L706.19 -109.02L706.37 -109.79L706.79 -111.01L707.3 -112.18L707.92 -113.29L708.63 -114.33L709.42 -115.3L710.3 -116.2L711.26 -117.01L712.28 -117.73L713.37 -118.36L714.52 -118.88L715.72 -119.3L716.96 -119.61L718.25 -119.8L719.57 -119.86L720.9 -119.8L722.19 -119.61L723.43 -119.3L724.63 -118.88L725.78 -118.36L726.87 -117.73L727.89 -117.01L728.85 -116.2L729.72 -115.3L730.52 -114.33L731.23 -113.29L731.85 -112.18L732.36 -111.01L732.77 -109.79L733.08 -108.52L733.26 -107.21L733.32 -105.86L733.26 -104.51L733.08 -103.2L732.77 -101.93L732.36 -100.71L731.85 -99.54L731.23 -98.44L730.52 -97.39L729.72 -96.42L729.06 -95.75L729.71 -95.01L730.74 -93.75L731.72 -92.46L732.65 -91.12L733.53 -89.74L734.36 -88.33L735.13 -86.89L735.86 -85.41L736.52 -83.9L737.08 -82.5L737.44 -82.77L738.47 -83.45L739.53 -84.07L740.62 -84.64L741.75 -85.14L742.9 -85.59L744.08 -85.97L745.29 -86.29L746.51 -86.53L747.77 -86.72L749.04 -86.83L750.33 -86.86L751.61 -86.83L752.88 -86.72L754.13 -86.53L755.36 -86.29L756.57 -85.97L757.75 -85.59L758.9 -85.14L760.03 -84.64L761.12 -84.07L762.18 -83.45L763.21 -82.77L764.2 -82.04L765.15 -81.25L766.07 -80.42L766.94 -79.54L767.77 -78.61L768.55 -77.64L769.29 -76.62L769.98 -75.57L770.61 -74.48L771.2 -73.35L771.73 -72.18L772.21 -70.99L772.63 -69.76L772.98 -68.51L773.12 -67.94L773.75 -67.92L777.82 -67.86L781.9 -67.92L785.94 -68.07L789.93 -68.34L790.8 -68.42L790.62 -68.93L790.32 -70.2L790.14 -71.51L790.07 -72.86L790.14 -74.21L790.32 -75.52L790.62 -76.79L791.04 -78.01L791.55 -79.18L792.17 -80.29L792.88 -81.33L793.67 -82.3L794.55 -83.2L795.51 -84.01L796.53 -84.73L797.62 -85.36L798.77 -85.88L799.97 -86.3L801.21 -86.61L802.5 -86.8L803.82 -86.86L805.15 -86.8L806.44 -86.61L807.68 -86.3L808.88 -85.88L809.66 -85.53L810.12 -86.51L811 -88.21L811.93 -89.86L812.91 -91.46L813.94 -93.02L815.01 -94.53L816.13 -95.98L817.29 -97.38L818.5 -98.72L819.74 -100L821.03 -101.23L822.35 -102.39L823.71 -103.49L825.1 -104.53L826.53 -105.5L827.99 -106.4L829.48 -107.23L831 -108L832.56 -108.68L834.13 -109.3L835.74 -109.84L837.36 -110.29L839.02 -110.67L840.69 -110.97L842.38 -111.19L844.09 -111.32L845.82 -111.36L847.55 -111.32L849.27 -111.19L850.96 -110.97L852.63 -110.67L854.28 -110.29L855.91 -109.84L857.52 -109.3L859.09 -108.68L860.64 -108L862.17 -107.23L863.66 -106.4L865.12 -105.5L866.55 -104.53L867.94 -103.49L869.3 -102.39L870.62 -101.23L871.91 -100L873.15 -98.72L874.36 -97.38L875.52 -95.98L876.47 -94.74L876.88 -95.33L877.67 -96.3L878.55 -97.2L879.51 -98.01L880.53 -98.73L881.62 -99.36L882.77 -99.88L883.97 -100.3L885.21 -100.61L886.5 -100.8L887.82 -100.86L889.15 -100.8L890.44 -100.61L891.68 -100.3L892.88 -99.88L894.03 -99.36L895.12 -98.73L896.14 -98.01L897.1 -97.2L897.72 -96.57L898.11 -96.75L899.79 -97.47L901.5 -98.1L903.23 -98.63L904.99 -99.07L906.78 -99.42L908.58 -99.67L910.41 -99.82L912.25 -99.87L914.1 -99.82L915.92 -99.67L917.73 -99.42L919.51 -99.07L921.27 -98.63L923.01 -98.1L924.72 -97.47L926.4 -96.75L928.05 -95.95L929.68 -95.06L931.27 -94.09L932.82 -93.04L934.35 -91.91L935.83 -90.71L937.28 -89.42L938.69 -88.07L940.06 -86.64L941.39 -85.14L942.67 -83.58L943.23 -82.85L943.27 -82.88L944.89 -83.76L946.54 -84.57L948.22 -85.28L949.93 -85.91L950.65 -86.13L950.57 -86.54L950.35 -87.97L950.21 -89.43L950.17 -90.93L950.21 -92.42L950.35 -93.89L950.57 -95.32L950.87 -96.71L951.25 -98.05L951.7 -99.35L952.23 -100.59L952.83 -101.78L953.49 -102.91L954.21 -103.97L954.99 -104.96L955.83 -105.87L956.72 -106.71L957.65 -107.47L958.64 -108.14L959.66 -108.71L960.72 -109.2L961.82 -109.58L962.94 -109.86L964.1 -110.03L965.28 -110.09L966.46 -110.03L967.62 -109.86L968.74 -109.58L969.84 -109.2L970.9 -108.71L971.92 -108.14L972.91 -107.47L973.84 -106.71L974.73 -105.87L975.57 -104.96L976.35 -103.97L977.07 -102.91L977.73 -101.78L978.33 -100.59L978.86 -99.35L979.31 -98.05L979.69 -96.71L979.99 -95.32L980.21 -93.89L980.35 -92.42L980.39 -90.93L980.35 -89.43L980.21 -87.97L979.99 -86.54L979.69 -85.15L979.31 -83.8L978.85 -82.51L978.83 -82.44L979.7 -81.91L981.26 -80.86L982.78 -79.73L984.27 -78.52L985.72 -77.24L987.13 -75.88L988.22 -74.74L988.67 -75.3L989.55 -76.2L990.51 -77.01L991.53 -77.73L992.62 -78.36L993.77 -78.88L994.97 -79.3L996.21 -79.61L997.5 -79.8L998.82 -79.86L1000.15 -79.8L1001.44 -79.61L1002.68 -79.3L1003.88 -78.88L1005.03 -78.36L1006.12 -77.73L1007.14 -77.01L1008.1 -76.2L1008.97 -75.3L1009.77 -74.33L1010.48 -73.29L1011.1 -72.18L1011.61 -71.01L1012.02 -69.79L1012.33 -68.52L1012.39 -68.1L1012.99 -68.22L1014.82 -68.45L1016.66 -68.53L1018.51 -68.45L1020.33 -68.22L1021.47 -67.99L1021.17 -68.44L1020.55 -69.54L1020.04 -70.71L1019.62 -71.93L1019.32 -73.2L1019.14 -74.51L1019.07 -75.86L1019.14 -77.21L1019.32 -78.52L1019.62 -79.79L1020.04 -81.01L1020.55 -82.18L1021.17 -83.29L1021.88 -84.33L1022.67 -85.3L1023.55 -86.2L1024.51 -87.01L1025.53 -87.73L1026.62 -88.36L1027.77 -88.88L1028.97 -89.3L1030.21 -89.61L1031.5 -89.8L1032.82 -89.86L1034.15 -89.8L1035.44 -89.61L1036.68 -89.3L1037.88 -88.88L1039.03 -88.36L1040.12 -87.73L1041.14 -87.01L1042.1 -86.2L1042.97 -85.3L1043.77 -84.33L1044.48 -83.29L1044.7 -82.9L1045.39 -83.75L1046.92 -85.44L1048.47 -87.01L1050.06 -88.46L1051.69 -89.78L1053.34 -90.98L1055.02 -92.05L1056.73 -92.98L1058.47 -93.78L1060.23 -94.44L1062.01 -94.96L1063.82 -95.34L1065.64 -95.56L1067.49 -95.64L1069.33 -95.56L1071.16 -95.34L1072.96 -94.96L1074.75 -94.44L1076.51 -93.78L1078.24 -92.98L1079.95 -92.05L1081.64 -90.98L1083.29 -89.78L1083.44 -89.66L1083.53 -89.73L1084.62 -90.36L1085.77 -90.88L1086.97 -91.3L1088.21 -91.61L1089.5 -91.8L1090.82 -91.86L1092.15 -91.8L1093.44 -91.61L1094.68 -91.3L1095.88 -90.88L1097.03 -90.36L1097.06 -90.34L1097.52 -91.48L1098.29 -93.27L1099.12 -95.01L1100 -96.71L1100.93 -98.36L1101.91 -99.96L1102.94 -101.52L1104.01 -103.03L1105.13 -104.48L1106.29 -105.88L1107.5 -107.22L1108.74 -108.5L1110.03 -109.73L1111.35 -110.89L1112.46 -111.79L1112.45 -111.84L1112.31 -113.3L1112.27 -114.8L1112.31 -116.29L1112.45 -117.76L1112.67 -119.19L1112.97 -120.58L1113.35 -121.92L1113.81 -123.22L1114.33 -124.46L1114.93 -125.65L1115.59 -126.78L1116.31 -127.84L1117.09 -128.83L1117.93 -129.74L1118.82 -130.58L1119.76 -131.34L1120.74 -132.01L1121.76 -132.58L1122.82 -133.07L1123.92 -133.45L1125.05 -133.73L1126.2 -133.9L1127.38 -133.95L1128.56 -133.9L1129.72 -133.73L1130.85 -133.45L1131.94 -133.06L1133 -132.58L1134.03 -132.01L1135.01 -131.34L1135.94 -130.58L1136.83 -129.74L1137.67 -128.83L1138.45 -127.84L1139.17 -126.78L1139.83 -125.65L1140.43 -124.46L1140.96 -123.22L1141.41 -121.92L1141.79 -120.58L1142.09 -119.19L1142.11 -119.06L1143.28 -118.79L1144.91 -118.34L1146.52 -117.8L1148.09 -117.18L1149.64 -116.5L1151.17 -115.73L1152.66 -114.9L1154.12 -114L1155.55 -113.03L1156.94 -111.99L1158.3 -110.89L1159.62 -109.73L1160.91 -108.5L1162.15 -107.22L1163.36 -105.88L1164.52 -104.48L1165.64 -103.03L1166.71 -101.52L1167.74 -99.96L1168.72 -98.36L1169.65 -96.71L1170.53 -95.01L1171.36 -93.27L1172.13 -91.48L1172.67 -90.11L1173.37 -91.08L1174.15 -92.06L1174.98 -93L1175.85 -93.88L1176.76 -94.72L1177.71 -95.5L1178.7 -96.22L1179.72 -96.88L1180.78 -97.49L1181.87 -98.03L1182.98 -98.5L1184.13 -98.91L1185.3 -99.25L1186.49 -99.51L1187.71 -99.71L1188.94 -99.82L1190.2 -99.86L1191.45 -99.82L1192.69 -99.71L1193.91 -99.51L1195.1 -99.25L1196.27 -98.91L1197.42 -98.5L1198.53 -98.03L1199.62 -97.49L1200.68 -96.88L1201.7 -96.22L1202.69 -95.5L1202.84 -95.37L1203.07 -95.67L1203.91 -96.58L1204.79 -97.42L1205.73 -98.18L1206.71 -98.85L1207.74 -99.42L1208.8 -99.91L1209.89 -100.29L1211.02 -100.57L1212.18 -100.74L1213.36 -100.79L1214.54 -100.74L1215.69 -100.57L1216.82 -100.29L1217.92 -99.91L1218.98 -99.42L1220 -98.85L1220.98 -98.18L1221.92 -97.42L1222.81 -96.58L1223.64 -95.67L1224.42 -94.68L1225.15 -93.62L1225.81 -92.49L1226.41 -91.3L1226.93 -90.06L1227.39 -88.76L1227.77 -87.42L1228.07 -86.03L1228.29 -84.6L1228.42 -83.13L1228.47 -81.64L1228.42 -80.14L1228.29 -78.68L1228.07 -77.25L1227.77 -75.86L1227.39 -74.51L1226.93 -73.22L1226.4 -71.97L1226.09 -71.34L1227.4 -71.47L1231 -71.69L1234.63 -71.76L1238.26 -71.69L1241.85 -71.47L1245.4 -71.11L1248.4 -70.68L1248.48 -70.9L1249.01 -72.15L1249.6 -73.33L1250.26 -74.46L1250.99 -75.52L1251.77 -76.51L1252.6 -77.43L1253.49 -78.26L1254.43 -79.02L1255.41 -79.69L1256.43 -80.27L1257.49 -80.75L1258.59 -81.13L1259.72 -81.41L1260.87 -81.58L1262.05 -81.64L1263.23 -81.58L1264.39 -81.41L1265.45 -81.15L1265.58 -81.56L1266.29 -83.73L1267.06 -85.86L1267.88 -87.94L1268.77 -89.97L1269.71 -91.95L1270.7 -93.87L1271.74 -95.74L1272.84 -97.55L1273.98 -99.31L1275.18 -101L1276.41 -102.63L1277.7 -104.19L1279.03 -105.69L1280.39 -107.11L1281.8 -108.47L1283.25 -109.75L1284.74 -110.96L1286.26 -112.09L1287.82 -113.14L1289.41 -114.11L1291.03 -115L1292.69 -115.8L1294.37 -116.51L1296.08 -117.14L1297.81 -117.67L1299.57 -118.12L1301.36 -118.46L1303.16 -118.72L1304.99 -118.87L1306.83 -118.92L1308.68 -118.87L1310.5 -118.71L1312.31 -118.46L1314.09 -118.12L1315.85 -117.67L1317.59 -117.14L1319.3 -116.51L1320.98 -115.8L1322.63 -115L1324.26 -114.11L1325.85 -113.14L1327.41 -112.09L1328.93 -110.96L1330.41 -109.75L1331.86 -108.47L1333.27 -107.11L1334.64 -105.68L1335.97 -104.19L1337.25 -102.63L1338.49 -101L1339.68 -99.3L1340.83 -97.55L1341.92 -95.74L1342.97 -93.87L1343.96 -91.94L1344.9 -89.97L1345.78 -87.94L1346.61 -85.86L1347.38 -83.73L1348.09 -81.56L1348.74 -79.34L1349.33 -77.08L1349.85 -74.79L1350.31 -72.45L1350.7 -70.08L1351.03 -67.68L1351.28 -65.24L1351.46 -62.77L1351.57 -60.28L1351.61 -57.76L1351.57 -55.24L1351.46 -52.75L1351.28 -50.28L1351.03 -47.85L1350.7 -45.44L1350.31 -43.07L1349.85 -40.74L1349.33 -38.44L1348.74 -36.18L1348.09 -33.97L1347.38 -31.79L1346.61 -29.67L1345.78 -27.59L1344.9 -25.56L1343.96 -23.58L1342.97 -21.65L1341.92 -19.78L1340.83 -17.97L1339.68 -16.22L1338.49 -14.53L1337.25 -12.9L1335.97 -11.34L1334.64 -9.84L1333.27 -8.41L1331.86 -7.06L1330.41 -5.77L1328.93 -4.57L1327.4 -3.44L1325.84 -2.39L1324.25 -1.42L1322.63 -0.53L1321.18 0.18L1321.57 2.32L1322.07 5.84L1322.44 9.41L1322.65 13.01L1322.73 16.66L1322.65 20.3L1322.43 23.9L1322.07 27.47L1321.57 30.99L1320.94 34.47L1320.16 37.89L1319.26 41.27L1318.23 44.59L1317.08 47.85L1315.8 51.06L1314.4 54.2L1312.89 57.27L1311.26 60.28L1309.52 63.22L1307.67 66.08L1305.72 68.86L1303.66 71.56L1301.51 74.18L1299.25 76.72L1296.91 79.16L1294.47 81.52L1291.95 83.78L1289.33 85.94L1286.64 88L1283.87 89.96L1281.02 91.82L1278.09 93.56L1275.1 95.2L1272.03 96.72L1268.9 98.12L1265.71 99.4L1262.46 100.56L1259.15 101.59L1255.78 102.5L1252.37 103.27L1248.9 103.91L1245.4 104.42L1241.84 104.78L1238.25 105L1234.62 105.07L1230.99 105L1227.4 104.78L1223.85 104.41L1220.34 103.91L1216.88 103.27L1213.46 102.5L1210.1 101.59L1206.79 100.56L1203.53 99.4L1200.34 98.12L1197.21 96.71L1194.15 95.19L1191.15 93.56L1188.23 91.81L1185.38 89.96L1182.6 88L1179.91 85.94L1177.3 83.77L1174.77 81.51L1172.34 79.16L1169.99 76.71L1167.74 74.18L1165.58 71.56L1163.53 68.86L1161.57 66.07L1159.73 63.21L1157.99 60.28L1156.36 57.27L1154.85 54.21L1153.53 55.38L1152.05 56.58L1150.52 57.71L1148.97 58.76L1147.37 59.73L1145.75 60.62L1144.1 61.42L1142.42 62.14L1140.71 62.76L1138.97 63.3L1137.21 63.74L1135.43 64.09L1133.62 64.34L1131.8 64.49L1129.95 64.54L1128.11 64.49L1126.28 64.34L1124.48 64.09L1122.69 63.74L1120.93 63.3L1119.2 62.76L1117.49 62.14L1115.8 61.42L1114.15 60.62L1112.53 59.73L1110.94 58.76L1109.38 57.71L1107.86 56.58L1106.37 55.37L1104.92 54.09L1103.51 52.74L1102.76 51.96L1102.57 52.46L1101.48 55.17L1100.33 57.79L1099.14 60.32L1097.9 62.75L1096.62 65.08L1095.29 67.32L1093.92 69.45L1092.51 71.48L1091.06 73.39L1089.58 75.2L1088.05 76.88L1086.5 78.45L1084.91 79.9L1083.28 81.23L1081.63 82.43L1079.95 83.5L1078.24 84.43L1076.5 85.23L1074.74 85.89L1072.96 86.41L1071.15 86.78L1069.33 87.01L1067.48 87.09L1065.64 87.01L1063.81 86.78L1062.01 86.41L1060.22 85.89L1058.46 85.23L1056.73 84.43L1055.02 83.49L1053.34 82.43L1051.68 81.23L1051.23 80.86L1050.65 82.28L1049.51 84.9L1048.32 87.43L1047.08 89.86L1045.79 92.2L1044.47 94.43L1043.1 96.56L1041.69 98.59L1040.24 100.51L1038.75 102.31L1037.23 104L1035.67 105.57L1034.08 107.02L1032.46 108.34L1030.81 109.54L1029.12 110.61L1027.41 111.54L1025.68 112.34L1023.92 113L1022.13 113.52L1020.33 113.9L1018.5 114.13L1016.66 114.2L1014.81 114.12L1012.99 113.9L1011.18 113.52L1009.4 113L1007.64 112.34L1005.9 111.54L1004.19 110.61L1002.51 109.54L1000.86 108.34L999.24 107.02L997.64 105.57L996.09 104L994.56 102.31L993.08 100.5L991.63 98.59L990.22 96.56L988.85 94.43L987.52 92.2L986.24 89.86L985 87.43L983.81 84.9L982.66 82.28L981.57 79.57L980.52 76.78L979.53 73.9L978.59 70.95L977.71 67.91L976.88 64.81L976.11 61.63L975.4 58.38L974.75 55.07L974.16 51.7L973.9 49.95L973.46 51.05L972.06 54.19L970.55 57.26L968.92 60.27L967.18 63.21L965.33 66.07L963.38 68.85L961.32 71.55L959.17 74.17L956.92 76.71L954.57 79.15L952.13 81.51L949.61 83.77L947 85.93L944.3 87.99L941.53 89.95L938.68 91.81L935.75 93.55L932.76 95.19L929.69 96.71L926.56 98.11L923.37 99.39L920.12 100.55L916.81 101.59L913.45 102.49L910.03 103.26L906.57 103.9L903.06 104.41L899.51 104.77L895.91 104.99L894.72 105.01L892.06 107.05L889.29 109.01L886.43 110.86L883.51 112.61L880.51 114.24L877.45 115.76L874.32 117.16L871.13 118.44L867.87 119.6L864.57 120.64L861.2 121.54L857.79 122.32L854.32 122.96L850.81 123.46L847.26 123.82L843.67 124.04L840.04 124.11L836.41 124.04L832.82 123.82L829.27 123.46L825.76 122.96L822.29 122.32L818.88 121.54L815.51 120.64L812.2 119.6L808.95 118.44L805.76 117.16L802.63 115.76L799.57 114.24L796.57 112.6L793.65 110.86L790.8 109L788.02 107.04L785.33 104.98L782.72 102.82L780.19 100.56L777.75 98.2L775.41 95.76L773.16 93.22L771 90.6L768.95 87.9L766.99 85.12L765.15 82.25L763.41 79.32L763.03 78.62L761.58 78.59L757.99 78.37L754.44 78.01L754.13 77.96L752.79 78.78L751.17 79.67L749.52 80.47L747.83 81.18L746.12 81.81L744.39 82.34L742.63 82.79L740.85 83.13L739.04 83.38L737.21 83.54L735.37 83.59L733.52 83.54L731.7 83.38L729.89 83.13L728.11 82.79L726.35 82.34L724.61 81.81L722.9 81.18L721.22 80.47L719.57 79.66L717.95 78.78L716.36 77.81L714.8 76.76L713.28 75.63L711.79 74.42L710.34 73.14L708.93 71.78L708.18 71L707.99 71.51L706.9 74.21L705.75 76.83L704.56 79.36L703.32 81.79L702.04 84.13L700.71 86.36L699.34 88.49L697.93 90.52L696.48 92.44L695 94.24L693.47 95.93L691.92 97.5L690.32 98.95L688.7 100.27L687.05 101.47L685.37 102.54L683.66 103.47L681.92 104.27L680.16 104.93L678.38 105.45L676.57 105.83L674.75 106.06L672.9 106.13L671.06 106.06L669.23 105.83L667.43 105.45L665.64 104.93L663.88 104.27L662.15 103.47L660.44 102.54L658.75 101.47L657.1 100.27L656.65 99.9L656.07 101.33L654.93 103.95L653.73 106.47L652.5 108.91L651.21 111.24L649.88 113.48L648.52 115.61L647.11 117.63L645.66 119.55L644.17 121.35L642.65 123.04L641.09 124.61L639.5 126.06L637.88 127.39L636.22 128.58L634.54 129.65L632.83 130.59L631.1 131.39L629.34 132.05L627.55 132.57L625.75 132.94L623.92 133.17L622.08 133.24L620.23 133.17L618.41 132.94L616.6 132.57L614.82 132.05L613.06 131.39L611.32 130.59L609.61 129.65L607.93 128.58L606.28 127.38L604.65 126.06L603.06 124.61L601.51 123.04L599.98 121.35L598.5 119.55L597.05 117.63L595.64 115.61L594.27 113.47L593.26 111.77L591.63 111.67L588.08 111.31L584.57 110.8L581.11 110.16L577.69 109.39L574.33 108.48L571.02 107.45L567.77 106.29L564.57 105.01L561.44 103.6L558.38 102.08L556.8 101.22L555.03 102.81L552.41 104.97L549.72 107.04L546.95 109L544.1 110.85L541.17 112.6L538.18 114.23L535.11 115.75L531.98 117.15L528.79 118.44L525.54 119.59L522.23 120.63L518.86 121.53L515.45 122.31L511.98 122.95L508.48 123.45L504.92 123.81L501.33 124.03L497.7 124.1L494.07 124.03L490.48 123.81L486.93 123.45L483.42 122.95L479.96 122.31L476.54 121.53L474.85 121.08L474.48 121.09L472.63 121.02L470.81 120.79L469 120.42L467.22 119.9L465.46 119.24L463.72 118.44L462.01 117.5L460.33 116.43L458.68 115.23L457.78 114.5L457.23 114.23L454.23 112.59L451.31 110.85L448.46 108.99L445.68 107.03L442.99 104.97L440.38 102.81L437.85 100.55L435.42 98.19L433.07 95.75L430.82 93.21L430.55 92.89L429.13 93.3L427.32 93.68L425.5 93.9L423.65 93.98L421.81 93.9L419.98 93.68L418.18 93.3L416.4 92.78L414.63 92.12L412.9 91.32L411.19 90.39L409.51 89.32L408.94 88.9L408.04 89.35L404.91 90.75L401.71 92.04L398.46 93.2L395.15 94.23L391.79 95.13L388.37 95.91L384.91 96.55L381.4 97.05L377.85 97.41L374.26 97.63L370.63 97.71L367 97.63L363.41 97.41L359.85 97.05L356.34 96.55L352.88 95.91L349.47 95.13L346.1 94.23L342.79 93.19L339.54 92.03L336.35 90.75L336.13 90.65L334.98 90.72L331.35 90.8L327.72 90.72L324.13 90.5L320.57 90.14L317.06 89.64L315.34 89.32L313.84 90.66L311.23 92.82L308.53 94.88L305.76 96.84L302.91 98.7L299.99 100.44L296.99 102.08L293.93 103.6L290.8 105L287.6 106.28L284.35 107.44L281.04 108.48L277.68 109.38L274.26 110.15L270.8 110.79L267.29 111.3L263.74 111.66L260.14 111.88L258.95 111.9L256.29 113.94L253.52 115.9L250.67 117.75L247.74 119.5L244.75 121.13L241.68 122.65L238.55 124.05L235.36 125.34L232.11 126.49L228.8 127.53L225.43 128.43L222.02 129.21L218.55 129.85L215.04 130.35L211.49 130.71L207.9 130.93L204.27 131L200.64 130.93L197.05 130.71L193.5 130.35L189.99 129.85L186.52 129.21L183.11 128.43L179.75 127.53L176.44 126.49L173.18 125.33L169.99 124.05L166.86 122.65L163.8 121.13L160.8 119.49L157.88 117.75L155.03 115.89L152.25 113.93L149.56 111.87L146.95 109.71L144.42 107.45L141.99 105.09L139.64 102.65L137.39 100.11L135.23 97.49L133.18 94.79L131.22 92.01L129.38 89.15L127.64 86.21L126.01 83.2L124.5 80.13L123.1 76.99L122.66 75.89L122.39 77.64L121.81 81.01L121.16 84.32L120.45 87.57L119.68 90.75L118.85 93.85L117.96 96.89L117.02 99.84L116.03 102.72L114.99 105.51L113.89 108.22L112.75 110.84L111.55 113.37L110.32 115.8L109.03 118.13L107.71 120.37L106.34 122.5L104.93 124.53L103.48 126.44L101.99 128.25L100.47 129.93L98.91 131.5L97.32 132.95L95.7 134.28L94.04 135.48L92.36 136.55L90.65 137.48L88.92 138.28L87.16 138.94L85.37 139.46L83.57 139.83L81.74 140.06L79.9 140.14L78.05 140.06L76.23 139.83L74.42 139.46L72.64 138.94L70.88 138.28L69.14 137.48L67.43 136.54L65.75 135.48L64.1 134.28L62.47 132.95L60.88 131.5L59.33 129.93L57.8 128.24L56.32 126.44L54.87 124.52L53.46 122.5L52.09 120.37L50.76 118.13L49.48 115.8L48.24 113.36L47.05 110.84L45.9 108.22L45.33 106.79L44.87 107.16L43.22 108.36L41.54 109.43L39.83 110.36L38.09 111.16L36.33 111.83L34.55 112.34L32.74 112.72L30.92 112.95L29.07 113.02L27.23 112.95L25.4 112.72L23.6 112.34L21.81 111.82L20.05 111.16L18.32 110.36L16.61 109.43L14.93 108.36L13.27 107.16L11.65 105.84L10.06 104.39L8.5 102.82L6.98 101.13L5.49 99.32L4.04 97.41L2.63 95.38L1.27 93.25L-0.06 91.02L-1.35 88.68L-2.58 86.25L-3.78 83.72L-4.92 81.1L-6.02 78.39L-6.21 77.89L-6.95 78.67L-8.36 80.02L-9.81 81.31L-11.3 82.51L-12.82 83.64L-14.38 84.69L-15.97 85.66L-17.59 86.55L-19.25 87.35L-20.93 88.07L-22.64 88.7L-24.37 89.23L-26.13 89.67L-27.92 90.02L-29.72 90.27L-31.55 90.42L-33.39 90.47L-35.24 90.42L-37.06 90.27L-38.87 90.02L-40.65 89.67L-42.41 89.23L-44.15 88.69L-45.86 88.07L-47.54 87.35L-49.19 86.55L-50.82 85.66L-52.41 84.69L-53.96 83.64L-55.49 82.51L-56.97 81.31L-58.29 80.14L-59.8 83.2L-61.43 86.21L-63.17 89.14L-65.02 92L-66.97 94.78L-69.03 97.49L-71.18 100.11L-73.43 102.64L-75.78 105.09L-78.22 107.44L-80.74 109.7L-83.35 111.87L-86.05 113.93L-88.82 115.89L-91.67 117.74L-94.6 119.49L-97.59 121.12L-100.66 122.64L-103.79 124.04L-106.98 125.33L-110.23 126.49L-113.54 127.52L-116.9 128.42L-120.32 129.2L-123.78 129.84L-127.29 130.34L-130.85 130.7L-134.44 130.92L-138.07 131L-141.7 130.92L-145.29 130.7L-148.84 130.34L-152.35 129.84L-155.81 129.2L-159.23 128.42L-162.59 127.52L-165.9 126.48L-169.15 125.32L-172.35 124.04L-175.48 122.64L-178.54 121.12L-181.54 119.48L-184.46 117.74L-187.31 115.89L-190.08 113.93L-192.78 111.86L-195.39 109.7L-197.91 107.44L-200.35 105.08L-202.7 102.64L-204.95 100.1L-207.11 97.48L-209.16 94.78L-211.11 92L-212.96 89.14L-214.7 86.2L-216.33 83.19L-217.84 80.12L-219.24 76.98L-220.52 73.77L-221.67 70.51L-222.7 67.19L-223.61 63.81L-224.38 60.39L-225.01 56.91L-225.51 53.39L-225.88 49.82L-226.09 46.22L-226.17 42.58L-226.09 38.93L-225.87 35.33L-225.51 31.76L-225.01 28.24L-224.62 26.1L-226.07 25.39L-227.69 24.5L-229.28 23.53L-230.84 22.48L-232.36 21.35L-233.85 20.14L-235.3 18.86L-236.71 17.51L-238.08 16.08L-239.41 14.58L-240.69 13.02L-241.93 11.39L-243.12 9.7L-244.26 7.95L-245.36 6.13L-246.4 4.26L-247.4 2.34L-248.34 0.36L-249.22 -1.67L-250.05 -3.75L-250.82 -5.88L-251.53 -8.05L-252.18 -10.26L-252.76 -12.52L-253.29 -14.82L-253.75 -17.15L-254.14 -19.52L-254.46 -21.93L-254.72 -24.36L-254.9 -26.83L-255.01 -29.32L-255.05 -31.84L-255.01 -34.36L-254.9 -36.86L-254.72 -39.32L-254.46 -41.76L-254.14 -44.16L-253.75 -46.53L-253.29 -48.87L-252.76 -51.16L-252.18 -53.42L-251.53 -55.64L-250.82 -57.81L-250.05 -59.94L-249.22 -62.02L-248.33 -64.05L-247.4 -66.03L-246.4 -67.95L-245.36 -69.82L-244.26 -71.63L-243.12 -73.39L-241.93 -75.08L-240.69 -76.71L-239.4 -78.27L-238.08 -79.77L-236.71 -81.19L-235.3 -82.55L-233.85 -83.83L-232.36 -85.04L-230.84 -86.17L-229.28 -87.22L-227.69 -88.19L-226.07 -89.08L-224.41 -89.88L-222.73 -90.59L-221.02 -91.22L-219.29 -91.75L-217.53 -92.2L-215.74 -92.54L-213.94 -92.79L-212.11 -92.95L-210.27 -93L-208.42 -92.95L-206.6 -92.79L-204.79 -92.54L-203.01 -92.2L-201.25 -91.75L-199.51 -91.22L-197.8 -90.59L-196.12 -89.88L-194.47 -89.07L-192.84 -88.19L-191.25 -87.22L-189.7 -86.17L-188.17 -85.04L-186.69 -83.83L-185.24 -82.55L-183.83 -81.19L-182.46 -79.76L-181.13 -78.27L-179.85 -76.7L-178.61 -75.08L-177.42 -73.38L-176.27 -71.63L-175.18 -69.82L-174.13 -67.95L-173.14 -66.02L-172.2 -64.04L-171.32 -62.01L-170.49 -59.94L-169.72 -57.81L-169.01 -55.64L-168.89 -55.22L-167.82 -55.49L-166.67 -55.66L-165.49 -55.71L-164.31 -55.66L-163.15 -55.49L-162.03 -55.21L-160.93 -54.82L-159.87 -54.34L-158.85 -53.76L-157.86 -53.1L-156.93 -52.34L-156.04 -51.5L-155.2 -50.59L-154.42 -49.6L-153.7 -48.53L-153.04 -47.41L-152.44 -46.22L-151.91 -44.98L-151.83 -44.75L-148.84 -45.18L-145.28 -45.55L-141.69 -45.77L-138.06 -45.84L-134.43 -45.77L-130.84 -45.55L-129.52 -45.41L-129.84 -46.05L-130.37 -47.29L-130.82 -48.59L-131.2 -49.93L-131.51 -51.32L-131.72 -52.75L-131.86 -54.22L-131.9 -55.71L-131.86 -57.21L-131.72 -58.67L-131.5 -60.1L-131.2 -61.49L-130.82 -62.84L-130.37 -64.13L-129.84 -65.38L-129.24 -66.57L-128.58 -67.69L-127.86 -68.75L-127.08 -69.74L-126.24 -70.66L-125.35 -71.5L-124.42 -72.25L-123.43 -72.92L-122.41 -73.5L-121.35 -73.98L-120.25 -74.36L-119.13 -74.64L-117.97 -74.81L-116.79 -74.87L-115.61 -74.81L-114.45 -74.64L-113.33 -74.36L-112.23 -73.98L-111.17 -73.5L-110.15 -72.92L-109.17 -72.25L-108.23 -71.5L-107.34 -70.66L-107.05 -70.34L-107.03 -70.72L-106.81 -72.25L-106.45 -73.71L-105.96 -75.07L-105.36 -76.32L-104.65 -77.46L-103.84 -78.45L-102.95 -79.3L-101.98 -79.98L-100.94 -80.49L-99.85 -80.8L-98.71 -80.91L-97.57 -80.8L-96.48 -80.49L-95.44 -79.98L-94.47 -79.3L-93.58 -78.45L-92.78 -77.46L-92.07 -76.32L-91.46 -75.07L-90.98 -73.71L-90.62 -72.25L-90.39 -70.72L-90.32 -69.12L-90.39 -67.52L-90.62 -65.99L-90.98 -64.53L-91.46 -63.17L-92.07 -61.92L-92.78 -60.79L-93.58 -59.79L-94.48 -58.94L-95.44 -58.26L-96.48 -57.75L-97.57 -57.44L-98.71 -57.33L-99.85 -57.44L-100.94 -57.75L-101.81 -58.18L-101.72 -57.21L-101.68 -55.71L-101.72 -54.22L-101.86 -52.75L-102.08 -51.32L-102.38 -49.93L-102.76 -48.59L-103.22 -47.29L-103.74 -46.05L-104.34 -44.86L-105 -43.73L-105.72 -42.67L-106.51 -41.68L-107.34 -40.77L-107.7 -40.43L-106.97 -40.17L-103.78 -38.89L-100.65 -37.48L-97.59 -35.96L-94.59 -34.33L-91.67 -32.58L-88.82 -30.73L-86.04 -28.77L-83.95 -27.16L-83.95 -27.29L-83.81 -28.76L-83.59 -30.19L-83.29 -31.58L-82.91 -32.92L-82.45 -34.22L-81.93 -35.46L-81.33 -36.65L-80.67 -37.78L-79.95 -38.84L-79.16 -39.83L-78.33 -40.74L-77.44 -41.58L-76.5 -42.34L-75.52 -43.01L-74.5 -43.58L-73.44 -44.06L-72.34 -44.45L-72.32 -44.45L-72.38 -44.71L-72.66 -46.2L-72.88 -47.72L-73.05 -49.25L-73.14 -50.8L-73.18 -52.36L-73.14 -53.93L-73.05 -55.48L-72.88 -57.01L-72.66 -58.52L-72.38 -60.02L-72.03 -61.49L-71.63 -62.94L-71.17 -64.37L-70.66 -65.77L-70.09 -67.15L-69.47 -68.5L-68.79 -69.82L-68.07 -71.11L-67.29 -72.37L-66.47 -73.6L-65.6 -74.8L-64.68 -75.96L-63.72 -77.09L-62.72 -78.18L-61.67 -79.23L-60.59 -80.24L-59.46 -81.21L-58.3 -82.14L-57.1 -83.03L-55.86 -83.87L-54.59 -84.67L-53.29 -85.42L-51.96 -86.12L-50.59 -86.77L-49.2 -87.37L-47.77 -87.93L-46.33 -88.42L-45.92 -88.55L-45.93 -88.87L-45.88 -90.36L-45.75 -91.83L-45.53 -93.26L-45.23 -94.65L-44.85 -95.99L-44.39 -97.29L-43.86 -98.53L-43.27 -99.72L-42.6 -100.85L-41.88 -101.91L-41.1 -102.9L-40.26 -103.81L-39.38 -104.65L-38.44 -105.41L-37.46 -106.07L-36.43 -106.65L-35.37 -107.13L-34.28 -107.52L-33.15 -107.8L-31.99 -107.97L-30.81 -108.02L-29.63 -107.97L-28.48 -107.8L-27.35 -107.52L-26.25 -107.13L-25.19 -106.65L-24.17 -106.07L-23.19 -105.41L-22.25 -104.65L-21.36 -103.81L-20.53 -102.9L-19.75 -101.9L-19.02 -100.84L-18.36 -99.72L-17.77 -98.53L-17.24 -97.29L-16.78 -95.99L-16.4 -94.65L-16.1 -93.26L-15.88 -91.83L-15.75 -90.36L-15.7 -88.87L-15.75 -87.37L-15.86 -86.1L-14.56 -85.42L-13.26 -84.67L-11.99 -83.87L-10.75 -83.03L-9.55 -82.14L-8.39 -81.21L-7.26 -80.24L-7.19 -80.17L-7.08 -80.3L-6.2 -81.2L-5.24 -82.01L-4.22 -82.73L-3.13 -83.36L-1.98 -83.88L-0.78 -84.3L0.46 -84.61L1.75 -84.8L3.07 -84.86L4.4 -84.8L5.69 -84.61L6.93 -84.3L8.13 -83.88L9.28 -83.36L10.37 -82.73L11.39 -82.01L12.35 -81.2L13.22 -80.3L14.02 -79.33L14.73 -78.29L15.35 -77.18L15.86 -76.01L16.27 -74.79L16.58 -73.52L16.76 -72.21L16.82 -70.86L16.76 -69.51L16.58 -68.2L16.27 -66.93L15.86 -65.71L15.82 -65.61L16.61 -66.12L18.32 -67.05L20.06 -67.85L21.82 -68.51L23.6 -69.03L25.41 -69.4L27.23 -69.63L28.21 -69.67L28.57 -70.73L29.01 -71.88L29.51 -73.01L30.05 -74.11L30.63 -75.2L31.26 -76.25L31.33 -76.35L30.29 -76.81L29.19 -77.38L28.13 -78.02L27.12 -78.72L26.14 -79.48L25.21 -80.29L24.33 -81.16L23.5 -82.09L22.72 -83.06L22 -84.08L21.33 -85.15L20.73 -86.26L20.18 -87.41L19.71 -88.59L19.29 -89.82L18.95 -91.07L18.68 -92.36L18.48 -93.67L18.36 -95L18.32 -96.36L18.36 -97.72L18.48 -99.06L18.68 -100.37L18.95 -101.65L19.29 -102.91L19.71 -104.13L20.18 -105.32L20.73 -106.47L21.33 -107.58L22 -108.64L22.72 -109.66L23.5 -110.64L24.33 -111.56L25.21 -112.43L26.14 -113.25L27.12 -114.01L28.13 -114.71L29.19 -115.34L30.29 -115.91L31.42 -116.41L32.58 -116.85L33.78 -117.21L35 -117.49L36.25 -117.69L37.53 -117.82L38.82 -117.86L40.12 -117.82L41.39 -117.69L42.65 -117.49L43.87 -117.21L45.07 -116.85L46.23 -116.41L47.36 -115.91L48.46 -115.34L49.52 -114.71L50.53 -114.01L51.51 -113.25L52.44 -112.43L53.32 -111.56L54.15 -110.64L54.93 -109.66L55.65 -108.64L56.32 -107.58L56.92 -106.47L57.46 -105.32L57.94 -104.13L58.36 -102.91L58.7 -101.65L58.97 -100.37L59.16 -99.06L59.28 -97.72L59.32 -96.36L59.28 -95L59.16 -93.67L58.97 -92.36L58.76 -91.35L59.32 -91.36L60.18 -91.35L60.32 -91.74L61 -93.37L61.74 -94.97L62.55 -96.54L63.41 -98.07L64.33 -99.56L65.31 -101.01L66.35 -102.43L67.44 -103.81L68.58 -105.14L69.78 -106.43L71.02 -107.68L72.32 -108.87L73.66 -110.02L75.04 -111.13L76.47 -112.18L77.74 -113.03L76.9 -113.39L75.81 -113.95L74.77 -114.58L73.77 -115.29L72.82 -116.08L71.93 -116.92L71.09 -117.84L70.31 -118.81L69.6 -119.84L68.96 -120.92L68.38 -122.05L67.88 -123.23L67.46 -124.45L67.12 -125.71L66.87 -127L66.7 -128.33L66.62 -129.69L66.64 -131.05L66.75 -132.38L66.95 -133.68L67.24 -134.96L67.6 -136.2L68.05 -137.39L68.58 -138.55L69.17 -139.66L69.84 -140.71L70.58 -141.72L71.37 -142.67L72.23 -143.55L73.14 -144.37L74.11 -145.13L75.13 -145.81L76.19 -146.41L77.3 -146.94L78.45 -147.38L79.64 -147.74L80.86 -148.01L82.11 -148.18L83.39 -148.26L84.67 -148.24L85.93 -148.12L87.16 -147.9L88.36 -147.6L89.53 -147.2L90.66 -146.72L91.75 -146.16L92.79 -145.53L93.79 -144.82L94.74 -144.03L95.63 -143.19L96.47 -142.27L97.25 -141.3L97.96 -140.27L98.6 -139.19L99.18 -138.06L99.68 -136.88L100.1 -135.66L100.44 -134.4L100.69 -133.11L100.86 -131.78L100.94 -130.42L100.92 -129.07L100.81 -127.73L100.61 -126.43L100.32 -125.15L99.96 -123.92L99.51 -122.72L98.98 -121.56L98.43 -120.54L100.24 -120.71L102.15 -120.82L104.07 -120.86L106 -120.82L107.91 -120.71L109.79 -120.53L111.65 -120.27L113.49 -119.95L115.3 -119.55L117.09 -119.09L118.84 -118.57L120.57 -117.98L120.57 -118.02L120.87 -119.29L121.29 -120.51L121.8 -121.68L122.42 -122.79L123.13 -123.83L123.92 -124.8L124.8 -125.7L125.76 -126.51L126.78 -127.23L127.87 -127.86L129.02 -128.38L130.22 -128.8L131.46 -129.11L132.75 -129.3L134.07 -129.36L135.4 -129.3L136.69 -129.11L137.93 -128.8L139.13 -128.38L140.28 -127.86L141.37 -127.23L142.39 -126.51L143.35 -125.7L144.22 -124.8L145.02 -123.83L145.73 -122.79L146.35 -121.68L146.86 -120.51L147.27 -119.29L147.58 -118.02L147.76 -116.71L147.82 -115.36L147.76 -114.01L147.58 -112.7L147.27 -111.43L146.86 -110.21L146.35 -109.04L145.73 -107.94L145.02 -106.89L144.22 -105.92L143.35 -105.03L142.39 -104.22L141.37 -103.49L141.09 -103.33L141.8 -102.43L142.84 -101.01L143.82 -99.56L144.74 -98.07L145.6 -96.54L146.41 -94.97L147.15 -93.37L147.83 -91.74L148.44 -90.08L148.98 -88.42L149.22 -88.86L150.32 -90.68L151.46 -92.43L152.66 -94.12L153.9 -95.75L155.18 -97.31L156.51 -98.81L157.88 -100.24L159.29 -101.59L160.73 -102.87L162.22 -104.08L163.74 -105.21L165.3 -106.26L166.89 -107.23L168.51 -108.12L170.17 -108.92L171.85 -109.64L173.56 -110.26L175.29 -110.8L177.06 -111.24L178.84 -111.59L180.64 -111.84L182.47 -111.99L184.31 -112.04L186.16 -111.99L187.98 -111.84L189.79 -111.59L191.57 -111.24L193.33 -110.8L195.07 -110.26L196.78 -109.64L198.46 -108.92L200.11 -108.12L201.74 -107.23L203.33 -106.26L204.89 -105.21L206.41 -104.08L207.89 -102.87L209.34 -101.59L210.75 -100.23L212.12 -98.81L213.45 -97.31L214.73 -95.75L215.97 -94.12L217.16 -92.43L218.31 -90.67L218.33 -90.64L218.76 -91.01L219.78 -91.73L220.87 -92.36L222.02 -92.88L223.22 -93.3L224.46 -93.61L225.75 -93.8L227.07 -93.86L228.4 -93.8L229.69 -93.61L230.93 -93.3L231.17 -93.22L231.16 -93.85L231.2 -96.37L231.31 -98.86L231.49 -101.33L231.75 -103.77L232.07 -106.17L232.46 -108.54L232.92 -110.87L233.44 -113.17L234.03 -115.43L234.68 -117.65L235.39 -119.82L236.08 -121.73L235.77 -121.84L234.62 -122.37L233.53 -122.99L232.51 -123.72L231.55 -124.53L230.67 -125.42L229.88 -126.39L229.17 -127.44L228.55 -128.54L228.04 -129.71L227.62 -130.93L227.32 -132.2L227.14 -133.51L227.07 -134.86L227.14 -136.21L227.32 -137.52L227.62 -138.79L228.04 -140.01L228.55 -141.18L229.17 -142.29L229.88 -143.33L230.67 -144.3L231.55 -145.2L232.51 -146.01L233.53 -146.73L234.62 -147.36L235.77 -147.88L236.97 -148.3L238.21 -148.61L239.5 -148.8L240.82 -148.86L242.15 -148.8L243.44 -148.61L244.68 -148.3L245.88 -147.88L247.03 -147.36L248.12 -146.73L249.14 -146.01L250.1 -145.2L250.82 -144.46L250.91 -144.56L252.36 -145.84L253.85 -147.05L255.37 -148.18L256.93 -149.23L258.52 -150.2L260.14 -151.08L261.79 -151.89L263.47 -152.6L265.18 -153.23L266.92 -153.76L268.68 -154.2L270.46 -154.55L272.27 -154.8L274.1 -154.95L275.94 -155.01L277.78 -154.95L279.61 -154.8ZM5.03 -57.02L5.03 -57.01L5.18 -55.59L5.5 -56.01L6.59 -57.34L5.69 -57.11L5.03 -57.02ZM1257.15 -114.32L1258.18 -113.81L1259.15 -113.13L1260.05 -112.28L1260.85 -111.28L1261.56 -110.15L1262.17 -108.9L1262.65 -107.54L1263.01 -106.08L1263.24 -104.55L1263.31 -102.95L1263.24 -101.35L1263.01 -99.82L1262.65 -98.36L1262.17 -97L1261.56 -95.75L1260.85 -94.61L1260.05 -93.62L1259.15 -92.77L1258.18 -92.09L1257.15 -91.58L1256.06 -91.27L1254.92 -91.16L1253.78 -91.27L1252.69 -91.58L1251.65 -92.09L1250.68 -92.77L1249.79 -93.62L1248.98 -94.61L1248.27 -95.75L1247.67 -97L1247.18 -98.36L1246.82 -99.82L1246.6 -101.35L1246.52 -102.95L1246.6 -104.55L1246.82 -106.08L1247.18 -107.54L1247.67 -108.9L1248.27 -110.15L1248.98 -111.28L1249.79 -112.28L1250.68 -113.13L1251.65 -113.81L1252.69 -114.32L1253.78 -114.63L1254.92 -114.74L1256.06 -114.63L1257.15 -114.32ZM490.55 -114.33L491.59 -113.82L492.55 -113.14L493.45 -112.29L494.25 -111.3L494.96 -110.16L495.57 -108.91L496.05 -107.55L496.41 -106.09L496.64 -104.56L496.71 -102.96L496.64 -101.36L496.41 -99.83L496.05 -98.37L495.57 -97.01L494.96 -95.76L494.25 -94.63L493.45 -93.63L492.55 -92.78L491.58 -92.1L490.55 -91.59L489.46 -91.28L488.32 -91.17L487.18 -91.28L486.09 -91.59L485.05 -92.1L484.08 -92.78L483.19 -93.63L482.38 -94.63L481.67 -95.76L481.07 -97.01L480.58 -98.38L480.22 -99.83L480 -101.36L479.92 -102.96L480 -104.56L480.22 -106.09L480.58 -107.55L481.07 -108.91L481.67 -110.16L482.38 -111.3L483.19 -112.29L484.08 -113.14L485.05 -113.82L486.09 -114.33L487.18 -114.64L488.32 -114.75L489.46 -114.64L490.55 -114.33ZM781.44 -123.61L782.68 -123.3L783.88 -122.88L785.03 -122.36L786.12 -121.73L787.14 -121.01L788.1 -120.2L788.97 -119.3L789.77 -118.33L790.48 -117.29L791.1 -116.18L791.61 -115.01L792.02 -113.79L792.33 -112.52L792.51 -111.21L792.57 -109.86L792.51 -108.51L792.33 -107.2L792.02 -105.93L791.61 -104.71L791.1 -103.54L790.48 -102.44L789.77 -101.39L788.97 -100.42L788.1 -99.53L787.14 -98.72L786.12 -97.99L785.03 -97.37L783.88 -96.84L782.68 -96.42L781.44 -96.11L780.15 -95.93L778.82 -95.86L777.5 -95.93L776.21 -96.11L774.97 -96.42L773.77 -96.84L772.62 -97.37L771.53 -97.99L770.51 -98.72L769.55 -99.53L768.67 -100.42L767.88 -101.39L767.17 -102.44L766.55 -103.54L766.04 -104.71L765.62 -105.93L765.32 -107.2L765.14 -108.51L765.07 -109.86L765.14 -111.21L765.32 -112.52L765.62 -113.79L766.04 -115.01L766.55 -116.18L767.17 -117.29L767.88 -118.33L768.67 -119.3L769.55 -120.2L770.51 -121.01L771.53 -121.73L772.62 -122.36L773.77 -122.88L774.97 -123.3L776.21 -123.61L777.5 -123.8L778.82 -123.86L780.15 -123.8L781.44 -123.61ZM1068.44 -147.61L1069.68 -147.3L1070.88 -146.88L1072.03 -146.36L1073.12 -145.73L1074.14 -145.01L1075.1 -144.2L1075.97 -143.3L1076.77 -142.33L1077.48 -141.29L1078.1 -140.18L1078.61 -139.01L1079.02 -137.79L1079.33 -136.52L1079.51 -135.21L1079.57 -133.86L1079.51 -132.51L1079.33 -131.2L1079.02 -129.93L1078.61 -128.71L1078.1 -127.54L1077.48 -126.44L1076.77 -125.39L1075.97 -124.42L1075.1 -123.53L1074.14 -122.72L1073.12 -121.99L1072.03 -121.37L1070.88 -120.84L1069.68 -120.42L1068.44 -120.11L1067.15 -119.93L1065.82 -119.86L1064.5 -119.93L1063.21 -120.11L1061.97 -120.42L1060.77 -120.84L1059.62 -121.37L1058.53 -121.99L1057.51 -122.72L1056.55 -123.53L1055.67 -124.42L1054.88 -125.39L1054.17 -126.44L1053.55 -127.54L1053.04 -128.71L1052.62 -129.93L1052.32 -131.2L1052.14 -132.51L1052.07 -133.86L1052.14 -135.21L1052.32 -136.52L1052.62 -137.79L1053.04 -139.01L1053.55 -140.18L1054.17 -141.29L1054.88 -142.33L1055.67 -143.3L1056.55 -144.2L1057.51 -145.01L1058.53 -145.73L1059.62 -146.36L1060.77 -146.88L1061.97 -147.3L1063.21 -147.61L1064.5 -147.8L1065.82 -147.86L1067.15 -147.8L1068.44 -147.61ZM471.34 -148.16L472.38 -147.65L473.35 -146.97L474.24 -146.12L475.05 -145.12L475.76 -143.99L476.36 -142.74L476.85 -141.38L477.21 -139.92L477.43 -138.39L477.51 -136.79L477.43 -135.19L477.21 -133.66L476.85 -132.2L476.36 -130.84L475.76 -129.59L475.05 -128.46L474.24 -127.46L473.35 -126.61L472.38 -125.93L471.34 -125.42L470.25 -125.11L469.11 -125L467.97 -125.11L466.88 -125.42L465.84 -125.93L464.88 -126.61L463.98 -127.46L463.18 -128.46L462.47 -129.59L461.86 -130.84L461.38 -132.2L461.02 -133.66L460.79 -135.19L460.72 -136.79L460.79 -138.39L461.02 -139.92L461.38 -141.38L461.86 -142.74L462.47 -143.99L463.18 -145.12L463.98 -146.12L464.88 -146.97L465.85 -147.65L466.88 -148.16L467.97 -148.47L469.11 -148.58L470.25 -148.47L471.34 -148.16ZM538.34 -154.58L539.37 -154.07L540.34 -153.39L541.24 -152.54L542.04 -151.54L542.75 -150.41L543.36 -149.16L543.84 -147.8L544.2 -146.34L544.43 -144.81L544.5 -143.21L544.43 -141.61L544.2 -140.08L543.84 -138.62L543.36 -137.26L542.75 -136.01L542.04 -134.87L541.24 -133.88L540.34 -133.03L539.37 -132.35L538.34 -131.84L537.25 -131.53L536.11 -131.42L534.97 -131.53L533.88 -131.84L532.84 -132.35L531.87 -133.03L530.98 -133.88L530.17 -134.87L529.46 -136.01L528.86 -137.26L528.37 -138.62L528.01 -140.08L527.79 -141.61L527.71 -143.21L527.79 -144.81L528.01 -146.34L528.37 -147.8L528.86 -149.16L529.46 -150.41L530.17 -151.54L530.98 -152.54L531.87 -153.39L532.84 -154.07L533.88 -154.58L534.97 -154.89L536.11 -155L537.25 -154.89L538.34 -154.58ZM820.26 -152.4L821.48 -151.86L822.59 -151.12L823.58 -150.23L824.43 -149.18L825.13 -148L825.64 -146.71L825.96 -145.32L826.07 -143.86L825.96 -142.4L825.64 -141.02L825.13 -139.73L824.43 -138.55L823.58 -137.5L822.59 -136.6L821.48 -135.87L820.26 -135.32L818.95 -134.98L817.57 -134.86L816.2 -134.98L814.89 -135.32L813.67 -135.87L812.56 -136.6L811.57 -137.5L810.72 -138.55L810.02 -139.73L809.51 -141.02L809.19 -142.4L809.07 -143.86L809.19 -145.32L809.51 -146.71L810.02 -148L810.72 -149.18L811.57 -150.23L812.56 -151.12L813.67 -151.86L814.89 -152.4L816.2 -152.74L817.57 -152.86L818.95 -152.74L820.26 -152.4ZM932.44 -175.61L933.68 -175.3L934.88 -174.88L936.03 -174.36L937.12 -173.73L938.14 -173.01L939.1 -172.2L939.97 -171.3L940.77 -170.33L941.48 -169.29L942.1 -168.18L942.61 -167.01L943.02 -165.79L943.33 -164.52L943.51 -163.21L943.57 -161.86L943.51 -160.51L943.33 -159.2L943.02 -157.93L942.61 -156.71L942.1 -155.54L941.48 -154.44L940.77 -153.39L939.97 -152.42L939.1 -151.53L938.14 -150.72L937.12 -149.99L936.03 -149.37L934.88 -148.84L933.68 -148.42L932.44 -148.11L931.15 -147.93L929.82 -147.86L928.5 -147.93L927.21 -148.11L925.97 -148.42L924.77 -148.84L923.62 -149.37L922.53 -149.99L921.51 -150.72L920.55 -151.53L919.67 -152.42L918.88 -153.39L918.17 -154.44L917.55 -155.54L917.04 -156.71L916.62 -157.93L916.32 -159.2L916.14 -160.51L916.07 -161.86L916.14 -163.21L916.32 -164.52L916.62 -165.79L917.04 -167.01L917.55 -168.18L918.17 -169.29L918.88 -170.33L919.67 -171.3L920.55 -172.2L921.51 -173.01L922.53 -173.73L923.62 -174.36L924.77 -174.88L925.97 -175.3L927.21 -175.61L928.5 -175.8L929.82 -175.86L931.15 -175.8L932.44 -175.61Z" id="c9D7toDh0" fill="white" fill-opacity="1" filter="url(#shadow5680771)"></path></g><use xlink:href="#a1U95AHLKs" opacity="1" fill="#ff4136" fill-opacity="1"></use></g><g><g><filter id="shadow2981210" x="19.2" y="307.82" width="53.11" height="53.11" filterUnits="userSpaceOnUse" primitiveUnits="userSpaceOnUse"><feFlood></feFlood><feComposite in2="SourceAlpha" operator="in"></feComposite><feGaussianBlur stdDeviation="1.41"></feGaussianBlur><feOffset dx="0" dy="0" result="afterOffset"></feOffset><feFlood flood-color="#000000" flood-opacity="0.5"></feFlood><feComposite in2="afterOffset" operator="in"></feComposite><feMorphology operator="dilate" radius="0"></feMorphology><feComposite in2="SourceAlpha" operator="out"></feComposite></filter><path d="M63.3 334.37C63.3 344.06 55.44 351.93 45.75 351.93C36.06 351.93 28.2 344.06 28.2 334.37C28.2 324.69 36.06 316.82 45.75 316.82C55.44 316.82 63.3 324.69 63.3 334.37Z" id="b2DmXIvPIQ" fill="white" fill-opacity="1" filter="url(#shadow2981210)"></path></g><use xlink:href="#dE5x8A2L0" opacity="1" fill="#ff4136" fill-opacity="1"></use></g><g><g><filter id="shadow10827014" x="205.2" y="400.07" width="53.11" height="53.11" filterUnits="userSpaceOnUse" primitiveUnits="userSpaceOnUse"><feFlood></feFlood><feComposite in2="SourceAlpha" operator="in"></feComposite><feGaussianBlur stdDeviation="1.41"></feGaussianBlur><feOffset dx="0" dy="0" result="afterOffset"></feOffset><feFlood flood-color="#000000" flood-opacity="0.5"></feFlood><feComposite in2="afterOffset" operator="in"></feComposite><feMorphology operator="dilate" radius="0"></feMorphology><feComposite in2="SourceAlpha" operator="out"></feComposite></filter><path d="M249.3 426.62C249.3 436.31 241.44 444.18 231.75 444.18C222.06 444.18 214.2 436.31 214.2 426.62C214.2 416.94 222.06 409.07 231.75 409.07C241.44 409.07 249.3 416.94 249.3 426.62Z" id="a1dOHYteak" fill="white" fill-opacity="1" filter="url(#shadow10827014)"></path></g><use xlink:href="#b1Hw1HlhnT" opacity="1" fill="#ff4136" fill-opacity="1"></use></g><g><g><filter id="shadow15794404" x="430.7" y="382.52" width="53.11" height="53.11" filterUnits="userSpaceOnUse" primitiveUnits="userSpaceOnUse"><feFlood></feFlood><feComposite in2="SourceAlpha" operator="in"></feComposite><feGaussianBlur stdDeviation="1.41"></feGaussianBlur><feOffset dx="0" dy="0" result="afterOffset"></feOffset><feFlood flood-color="#000000" flood-opacity="0.5"></feFlood><feComposite in2="afterOffset" operator="in"></feComposite><feMorphology operator="dilate" radius="0"></feMorphology><feComposite in2="SourceAlpha" operator="out"></feComposite></filter><path d="M474.8 409.07C474.8 418.76 466.94 426.62 457.25 426.62C447.56 426.62 439.7 418.76 439.7 409.07C439.7 399.38 447.56 391.52 457.25 391.52C466.94 391.52 474.8 399.38 474.8 409.07Z" id="a185KX7vGS" fill="white" fill-opacity="1" filter="url(#shadow15794404)"></path></g><use xlink:href="#apfyaEOOW" opacity="1" fill="#ff4136" fill-opacity="1"></use></g><g><g><filter id="shadow3268376" x="883.2" y="341.07" width="69.61" height="71.11" filterUnits="userSpaceOnUse" primitiveUnits="userSpaceOnUse"><feFlood></feFlood><feComposite in2="SourceAlpha" operator="in"></feComposite><feGaussianBlur stdDeviation="1.41"></feGaussianBlur><feOffset dx="0" dy="0" result="afterOffset"></feOffset><feFlood flood-color="#000000" flood-opacity="0.5"></feFlood><feComposite in2="afterOffset" operator="in"></feComposite><feMorphology operator="dilate" radius="0"></feMorphology><feComposite in2="SourceAlpha" operator="out"></feComposite></filter><path d="M943.8 376.62C943.8 391.28 932.24 403.18 918 403.18C903.76 403.18 892.2 391.28 892.2 376.62C892.2 361.97 903.76 350.07 918 350.07C932.24 350.07 943.8 361.97 943.8 376.62Z" id="l2EL3mUN2" fill="white" fill-opacity="1" filter="url(#shadow3268376)"></path></g><use xlink:href="#aQRmQ6Fo1" opacity="1" fill="#ff4136" fill-opacity="1"></use></g><g><g><filter id="shadow14221759" x="1205.2" y="298.82" width="55.61" height="55.11" filterUnits="userSpaceOnUse" primitiveUnits="userSpaceOnUse"><feFlood></feFlood><feComposite in2="SourceAlpha" operator="in"></feComposite><feGaussianBlur stdDeviation="1.41"></feGaussianBlur><feOffset dx="0" dy="0" result="afterOffset"></feOffset><feFlood flood-color="#000000" flood-opacity="0.5"></feFlood><feComposite in2="afterOffset" operator="in"></feComposite><feMorphology operator="dilate" radius="0"></feMorphology><feComposite in2="SourceAlpha" operator="out"></feComposite></filter><path d="M1251.8 326.37C1251.8 336.61 1243.38 344.93 1233 344.93C1222.62 344.93 1214.2 336.61 1214.2 326.37C1214.2 316.14 1222.62 307.82 1233 307.82C1243.38 307.82 1251.8 316.14 1251.8 326.37Z" id="cdnikKx3d" fill="white" fill-opacity="1" filter="url(#shadow14221759)"></path></g><use xlink:href="#a1ZYW12ll1" opacity="1" fill="#ff4136" fill-opacity="1"></use></g></g></g></svg>