<?xml version="1.0" encoding="UTF-8" standalone="no"?>
<!DOCTYPE svg PUBLIC "-//W3C//DTD SVG 1.1//EN" "http://www.w3.org/Graphics/SVG/1.1/DTD/svg11.dtd">
<svg version="1.1" xmlns="http://www.w3.org/2000/svg" xmlns:xlink="http://www.w3.org/1999/xlink" preserveAspectRatio="xMidYMid meet" viewBox="0 0 200 227" width="200" height="227"><defs><path d="M175.8 8.12C180.98 8.12 185.17 12.32 185.17 17.49C185.17 37.08 185.17 86.48 185.17 106.08C185.17 111.25 180.98 115.45 175.8 115.45C143.67 115.45 56.67 115.45 24.55 115.45C19.37 115.45 15.17 111.25 15.17 106.08C15.17 86.48 15.17 37.08 15.17 17.49C15.17 12.32 19.37 8.12 24.55 8.12C56.67 8.12 143.67 8.12 175.8 8.12Z" id="akjetTSsJ"></path><mask id="maskf1SaskNU2D" x="13.17" y="6.12" width="174" height="111.33" maskUnits="userSpaceOnUse"><rect x="13.17" y="6.12" width="174" height="111.33" fill="white"></rect><use xlink:href="#akjetTSsJ" opacity="1" fill="black"></use></mask><path d="" id="aQfbfvVL"></path><path d="M27.17 17.08L171.67 17.08L171.67 74.99L27.17 74.99L27.17 17.08Z" id="d4IdQ5xklF"></path><path d="M55.91 25.14L57.14 25.3L58.35 25.53L59.55 25.84L60.73 26.23L61.9 26.69L63.04 27.23L64.15 27.84L65.23 28.53L66.27 29.3L67.28 30.15L68.23 31.06L69.11 32.02L69.91 33.02L70.64 34.05L71.3 35.13L71.89 36.24L72.4 37.37L72.84 38.53L73.2 39.71L73.49 40.91L73.71 42.12L73.85 43.34L73.91 44.57L73.9 45.8L73.82 47.03L73.66 48.25L73.43 49.46L73.12 50.66L72.73 51.85L72.27 53.01L71.73 54.15L71.11 55.26L70.42 56.34L69.65 57.39L68.81 58.39L67.9 59.34L66.94 60.22L65.94 61.02L64.9 61.76L63.83 62.41L62.72 63L61.59 63.51L60.43 63.95L59.24 64.31L58.05 64.6L56.84 64.82L55.61 64.96L54.39 65.03L53.16 65.02L51.93 64.93L50.71 64.77L49.5 64.54L48.3 64.23L47.11 63.84L45.95 63.38L44.81 62.84L43.7 62.23L42.62 61.53L41.57 60.77L40.56 59.92L39.61 59.01L38.74 58.05L37.93 57.05L37.2 56.01L36.54 54.94L35.96 53.83L35.45 52.7L35.01 51.54L34.64 50.36L34.35 49.16L34.14 47.95L34 46.73L33.93 45.5L33.94 44.27L34.02 43.04L34.18 41.82L34.42 40.61L34.73 39.41L35.11 38.22L35.58 37.06L36.12 35.92L36.73 34.81L37.42 33.73L38.19 32.68L39.04 31.68L39.95 30.73L40.9 29.85L41.9 29.05L42.94 28.31L44.02 27.66L45.12 27.07L46.26 26.56L47.42 26.12L48.6 25.76L49.8 25.47L51.01 25.25L52.23 25.11L53.46 25.04L54.69 25.05L55.91 25.14ZM51.84 30.18L50.58 30.41L49.34 30.75L48.13 31.2L46.95 31.75L45.82 32.41L44.74 33.17L43.72 34.04L42.76 35.02L41.89 36.07L41.14 37.18L40.5 38.34L39.96 39.54L39.54 40.77L39.23 42.02L39.03 43.29L38.93 44.56L38.95 45.84L39.07 47.12L39.3 48.38L39.64 49.62L40.09 50.83L40.64 52.01L41.3 53.14L42.06 54.22L42.93 55.24L43.9 56.2L44.96 57.06L46.07 57.82L47.23 58.46L48.42 58.99L49.65 59.42L50.91 59.73L52.17 59.93L53.45 60.02L54.73 60.01L56.01 59.89L57.27 59.66L58.51 59.32L59.72 58.87L60.89 58.32L62.03 57.66L63.11 56.9L64.13 56.03L65.09 55.05L65.95 54L66.71 52.89L67.35 51.73L67.88 50.53L68.3 49.3L68.62 48.05L68.82 46.78L68.91 45.5L68.9 44.23L68.77 42.95L68.54 41.69L68.21 40.45L67.76 39.24L67.21 38.06L66.55 36.93L65.79 35.85L64.92 34.83L63.94 33.87L62.88 33.01L61.77 32.25L60.62 31.61L59.42 31.08L58.19 30.65L56.94 30.34L55.67 30.14L54.39 30.04L53.11 30.06L51.84 30.18Z" id="a9aO12oZ0A"></path><path d="M41.89 36.07L41.14 37.18L40.5 38.34L39.96 39.54L39.54 40.77L39.23 42.02L39.03 43.29L38.93 44.56L38.95 45.84L39.07 47.12L39.3 48.38L39.64 49.62L40.09 50.83L40.64 52.01L41.3 53.14L42.06 54.22L42.93 55.24L43.9 56.2L40.56 59.92L40.56 59.92L39.61 59.01L38.74 58.05L37.93 57.05L37.2 56.01L36.54 54.94L35.96 53.83L35.45 52.7L35.01 51.54L34.64 50.36L34.35 49.16L34.14 47.95L34 46.73L33.93 45.5L33.94 44.27L34.02 43.04L34.18 41.82L34.42 40.61L34.73 39.41L35.11 38.22L35.58 37.06L36.12 35.92L36.73 34.81L37.42 33.73L38.19 32.68L39.04 31.68L42.76 35.02L41.89 36.07Z" id="g3p438gUi4"></path><path d="M61.77 32.25L60.62 31.61L59.42 31.08L58.19 30.65L56.94 30.34L55.67 30.14L54.39 30.04L53.11 30.06L51.84 30.18L50.58 30.41L49.34 30.75L48.13 31.2L46.95 31.75L45.82 32.41L44.74 33.17L43.72 34.04L42.76 35.02L42.76 35.02L39.04 31.68L39.04 31.68L39.95 30.73L40.9 29.85L41.9 29.05L42.94 28.31L44.02 27.66L45.12 27.07L46.26 26.56L47.42 26.12L48.6 25.76L49.8 25.47L51.01 25.25L52.23 25.11L53.46 25.04L54.69 25.05L55.91 25.14L57.14 25.3L58.35 25.53L59.55 25.84L60.73 26.23L61.9 26.69L63.04 27.23L64.15 27.84L65.23 28.53L66.27 29.3L67.28 30.15L67.28 30.15L68.23 31.06L69.11 32.02L69.91 33.02L70.64 34.05L71.3 35.13L71.89 36.24L72.4 37.37L72.84 38.53L73.2 39.71L73.49 40.91L73.71 42.12L73.85 43.34L73.91 44.57L73.9 45.8L73.82 47.03L73.66 48.25L73.43 49.46L73.12 50.66L72.73 51.85L72.27 53.01L71.73 54.15L71.11 55.26L70.42 56.34L69.65 57.39L68.81 58.39L68.81 58.39L65.09 55.05L65.09 55.05L65.95 54L66.71 52.89L67.35 51.73L67.88 50.53L68.3 49.3L68.62 48.05L68.82 46.78L68.91 45.5L68.9 44.23L68.77 42.95L68.54 41.69L68.21 40.45L67.76 39.24L67.21 38.06L66.55 36.93L65.79 35.85L64.92 34.83L63.94 33.87L63.94 33.87L62.88 33.01L61.77 32.25Z" id="h2RmlTbOMo"></path><path d="M27.17 90.46L171.67 90.46L171.67 106.79L27.17 106.79L27.17 90.46Z" id="b1J8FdK3us"></path><path d="M66.93 80.74C68.11 80.74 69.07 81.7 69.07 82.88C69.07 83.55 69.07 83.42 69.07 84.1C69.07 85.28 68.11 86.24 66.93 86.24C63.22 86.24 54.27 86.24 50.56 86.24C49.38 86.24 48.42 85.28 48.42 84.1C48.42 83.42 48.42 83.55 48.42 82.88C48.42 81.7 49.38 80.74 50.56 80.74C54.27 80.74 63.22 80.74 66.93 80.74Z" id="b1uE6POQXC"></path><path d="M162.53 80.74C163.71 80.74 164.67 81.7 164.67 82.88C164.67 83.55 164.67 83.42 164.67 84.1C164.67 85.28 163.71 86.24 162.53 86.24C158.83 86.24 149.87 86.24 146.17 86.24C144.99 86.24 144.03 85.28 144.03 84.1C144.03 83.42 144.03 83.55 144.03 82.88C144.03 81.7 144.99 80.74 146.17 80.74C149.87 80.74 158.83 80.74 162.53 80.74Z" id="boyLDZoEH"></path><path d="M66.93 95.87C68.11 95.87 69.07 96.83 69.07 98.01C69.07 98.69 69.07 98.56 69.07 99.23C69.07 100.41 68.11 101.37 66.93 101.37C63.22 101.37 54.27 101.37 50.56 101.37C49.38 101.37 48.42 100.41 48.42 99.23C48.42 98.56 48.42 98.69 48.42 98.01C48.42 96.83 49.38 95.87 50.56 95.87C54.27 95.87 63.22 95.87 66.93 95.87Z" id="a1UdMD5Oi4"></path><path d="M162.53 95.87C163.71 95.87 164.67 96.83 164.67 98.01C164.67 98.69 164.67 98.56 164.67 99.23C164.67 100.41 163.71 101.37 162.53 101.37C158.83 101.37 149.87 101.37 146.17 101.37C144.99 101.37 144.03 100.41 144.03 99.23C144.03 98.56 144.03 98.69 144.03 98.01C144.03 96.83 144.99 95.87 146.17 95.87C149.87 95.87 158.83 95.87 162.53 95.87Z" id="a1nR8kuYIr"></path><path d="M32.42 95.37L38.87 95.37L38.87 101.87L32.42 101.87L32.42 95.37Z" id="cUKpUPzAo"></path><path d="M32.42 80.7L38.87 80.7L38.87 87.2L32.42 87.2L32.42 80.7Z" id="c2MWwkXS4U"></path><path d="M81.17 53.7L107.67 53.7L107.67 65.03L81.17 65.03L81.17 53.7Z" id="dMXD6390"></path><path d="M109.67 25.03L136.17 25.03L136.17 65.03L109.67 65.03L109.67 25.03Z" id="clrbXpAL1"></path><path d="M138.17 53.7L164.67 53.7L164.67 65.03L138.17 65.03L138.17 53.7Z" id="a1FSdahQJ6"></path><path d="M176.94 8.19L177.32 8.24L177.69 8.31L178.05 8.39L178.41 8.49L178.76 8.6L179.11 8.72L179.45 8.85L179.78 9L180.11 9.16L180.42 9.34L180.74 9.52L181.04 9.72L181.33 9.93L181.62 10.15L181.9 10.37L182.17 10.61L182.43 10.86L182.68 11.12L182.92 11.39L183.15 11.67L183.36 11.96L183.57 12.25L183.77 12.55L183.95 12.87L184.13 13.18L184.29 13.51L184.44 13.84L184.57 14.18L184.69 14.53L184.8 14.88L184.9 15.24L184.98 15.6L185.05 15.97L185.1 16.35L185.14 16.72L185.16 17.11L185.17 17.49L185.17 106.08L185.16 106.46L185.14 106.85L185.1 107.22L185.05 107.6L184.98 107.97L184.9 108.33L184.8 108.69L184.69 109.04L184.57 109.39L184.44 109.73L184.29 110.06L184.13 110.38L183.95 110.7L183.77 111.01L183.57 111.32L183.36 111.61L183.15 111.9L182.92 112.18L182.68 112.45L182.43 112.71L182.17 112.95L181.9 113.19L181.62 113.42L181.33 113.64L181.04 113.85L180.74 114.05L180.42 114.23L180.11 114.4L179.78 114.57L179.45 114.71L179.11 114.85L178.76 114.97L178.41 115.08L178.05 115.18L177.69 115.26L177.32 115.33L176.94 115.38L176.57 115.42L176.18 115.44L175.8 115.45L82.33 115.45L132.47 8.12L175.8 8.12L176.18 8.13L176.57 8.15L176.57 8.15L176.94 8.19Z" id="i9Monjny8"></path><path d="M185.17 122.23L185.16 122.42L185.14 122.61L185.11 122.8L185.08 122.98L185.04 123.16L184.99 123.34L184.94 123.51L184.87 123.68L184.81 123.85L184.73 124.02L184.65 124.18L184.57 124.34L184.47 124.49L184.38 124.64L184.27 124.79L184.16 124.93L184.05 125.07L183.93 125.21L183.81 125.33L183.68 125.46L183.55 125.58L183.41 125.69L183.26 125.8L183.12 125.9L182.97 126L182.81 126.09L182.65 126.18L182.49 126.26L182.33 126.33L182.16 126.4L181.99 126.46L181.81 126.52L181.63 126.56L181.45 126.6L181.27 126.64L181.08 126.66L180.9 126.68L180.71 126.7L180.51 126.7L19.83 126.7L19.64 126.7L19.45 126.68L19.26 126.66L19.08 126.64L18.89 126.6L18.71 126.56L18.53 126.52L18.36 126.46L18.19 126.4L18.02 126.33L17.85 126.26L17.69 126.18L17.53 126.09L17.38 126L17.23 125.9L17.08 125.8L16.94 125.69L16.8 125.58L16.67 125.46L16.54 125.33L16.41 125.21L16.29 125.07L16.18 124.93L16.07 124.79L15.97 124.64L15.87 124.49L15.78 124.34L15.69 124.18L15.61 124.02L15.54 123.85L15.47 123.68L15.41 123.51L15.36 123.34L15.31 123.16L15.27 122.98L15.23 122.8L15.21 122.61L15.19 122.42L15.18 122.23L15.17 122.04L15.17 116.95L185.17 116.95L185.17 122.04L185.17 122.23Z" id="gZ7DwjbR"></path><mask id="maskc5CmzKqfbT" x="13.17" y="114.95" width="174" height="13.75" maskUnits="userSpaceOnUse"><rect x="13.17" y="114.95" width="174" height="13.75" fill="white"></rect><use xlink:href="#gZ7DwjbR" opacity="1" fill="black"></use></mask><path d="M118.96 117.55L118.58 118.09L118.17 118.6L117.72 119.08L117.25 119.52L116.74 119.94L116.2 120.31L115.64 120.65L115.05 120.95L114.44 121.21L113.8 121.43L113.15 121.6L112.48 121.72L111.8 121.8L111.1 121.82L89.25 121.82L88.55 121.8L87.86 121.72L87.19 121.6L86.54 121.43L85.91 121.21L85.3 120.95L84.71 120.65L84.14 120.31L83.61 119.94L83.1 119.52L82.62 119.08L82.17 118.6L81.76 118.09L81.38 117.55L81.05 116.99L81.02 116.95L119.32 116.95L119.3 116.99L118.96 117.55Z" id="d2l0Gw7Fzg"></path><path d="M186.8 136.81L187.09 136.83L187.38 136.86L187.67 136.9L187.95 136.95L188.23 137.01L188.5 137.08L188.77 137.17L189.03 137.26L189.29 137.37L189.55 137.48L189.8 137.6L190.04 137.73L190.28 137.88L190.51 138.03L190.74 138.19L190.96 138.35L191.17 138.53L191.37 138.71L191.57 138.9L191.76 139.1L191.95 139.31L192.12 139.52L192.29 139.74L192.45 139.96L192.6 140.19L192.74 140.43L192.87 140.68L193 140.93L193.11 141.18L193.21 141.44L193.31 141.71L193.39 141.97L193.46 142.25L193.53 142.53L193.58 142.81L193.62 143.09L193.65 143.38L193.67 143.68L193.67 143.97L193.67 145.14L193.67 146.38L193.67 147.71L193.67 149.1L193.67 150.57L193.67 152.1L193.67 153.69L193.67 155.33L193.67 157.03L193.67 158.77L193.67 160.56L193.67 162.38L193.67 164.24L193.67 166.13L193.67 168.04L193.67 169.97L193.67 171.93L193.67 173.89L193.67 175.86L193.67 177.84L193.67 179.82L193.67 181.79L193.67 183.76L193.67 185.71L193.67 187.65L193.67 189.56L193.67 191.45L193.67 193.31L193.67 195.13L193.67 196.91L193.67 198.66L193.67 200.35L193.67 202L193.67 203.59L193.67 205.12L193.67 206.58L193.67 207.98L193.67 209.3L193.67 210.55L193.67 211.71L193.67 212.01L193.65 212.3L193.62 212.59L193.58 212.88L193.53 213.16L193.46 213.44L193.39 213.71L193.31 213.98L193.21 214.24L193.11 214.5L193 214.76L192.87 215.01L192.74 215.25L192.6 215.49L192.45 215.72L192.29 215.95L192.12 216.17L191.95 216.38L191.76 216.58L191.57 216.78L191.37 216.97L191.17 217.16L190.96 217.33L190.74 217.5L190.51 217.66L190.28 217.81L190.04 217.95L189.8 218.08L189.55 218.21L189.29 218.32L189.03 218.42L188.77 218.52L188.5 218.6L188.23 218.67L187.95 218.74L187.67 218.79L187.38 218.83L187.09 218.86L186.8 218.88L186.5 218.88L184.58 218.88L182.51 218.88L180.3 218.88L177.96 218.88L175.49 218.88L172.9 218.88L170.2 218.88L167.4 218.88L164.5 218.88L161.52 218.88L158.46 218.88L155.33 218.88L152.14 218.88L148.89 218.88L145.59 218.88L142.25 218.88L138.89 218.88L135.49 218.88L132.09 218.88L128.67 218.88L125.26 218.88L121.85 218.88L118.46 218.88L115.09 218.88L111.76 218.88L108.46 218.88L105.21 218.88L102.02 218.88L98.88 218.88L95.82 218.88L92.84 218.88L89.95 218.88L87.14 218.88L84.45 218.88L81.86 218.88L79.39 218.88L77.04 218.88L74.83 218.88L72.76 218.88L70.84 218.88L70.55 218.88L70.25 218.86L69.96 218.83L69.68 218.79L69.4 218.74L69.12 218.67L68.85 218.6L68.58 218.52L68.31 218.42L68.05 218.32L67.8 218.21L67.55 218.08L67.3 217.95L67.07 217.81L66.83 217.66L66.61 217.5L66.39 217.33L66.18 217.16L65.97 216.97L65.77 216.78L65.58 216.58L65.4 216.38L65.22 216.17L65.06 215.95L64.9 215.72L64.75 215.49L64.61 215.25L64.47 215.01L64.35 214.76L64.24 214.5L64.13 214.24L64.04 213.98L63.95 213.71L63.88 213.44L63.82 213.16L63.77 212.88L63.73 212.59L63.7 212.3L63.68 212.01L63.67 211.71L63.67 210.55L63.67 209.3L63.67 207.98L63.67 206.58L63.67 205.12L63.67 203.59L63.67 202L63.67 200.35L63.67 198.66L63.67 196.91L63.67 195.13L63.67 193.31L63.67 191.45L63.67 189.56L63.67 187.65L63.67 185.71L63.67 183.76L63.67 181.79L63.67 179.82L63.67 177.84L63.67 175.86L63.67 173.89L63.67 171.93L63.67 169.97L63.67 168.04L63.67 166.13L63.67 164.24L63.67 162.38L63.67 160.56L63.67 158.77L63.67 157.03L63.67 155.33L63.67 153.69L63.67 152.1L63.67 150.57L63.67 149.1L63.67 147.71L63.67 146.38L63.67 145.14L63.67 143.97L63.68 143.68L63.7 143.38L63.73 143.09L63.77 142.81L63.82 142.53L63.88 142.25L63.95 141.97L64.04 141.71L64.13 141.44L64.24 141.18L64.35 140.93L64.47 140.68L64.61 140.43L64.75 140.19L64.9 139.96L65.06 139.74L65.22 139.52L65.4 139.31L65.58 139.1L65.77 138.9L65.97 138.71L66.18 138.53L66.39 138.35L66.61 138.19L66.83 138.03L67.07 137.88L67.3 137.73L67.55 137.6L67.8 137.48L68.05 137.37L68.31 137.26L68.58 137.17L68.85 137.08L69.12 137.01L69.4 136.95L69.68 136.9L69.96 136.86L70.25 136.83L70.55 136.81L70.84 136.8L72.76 136.8L74.83 136.8L77.04 136.8L79.39 136.8L81.86 136.8L84.45 136.8L87.14 136.8L89.95 136.8L92.84 136.8L95.82 136.8L98.88 136.8L102.02 136.8L105.21 136.8L108.46 136.8L111.76 136.8L115.09 136.8L118.46 136.8L121.85 136.8L125.26 136.8L128.67 136.8L132.09 136.8L135.49 136.8L138.89 136.8L142.25 136.8L145.59 136.8L148.89 136.8L152.14 136.8L155.33 136.8L158.46 136.8L161.52 136.8L164.5 136.8L167.4 136.8L170.2 136.8L172.9 136.8L175.49 136.8L177.96 136.8L180.3 136.8L182.51 136.8L184.58 136.8L186.5 136.8L186.5 136.8L186.8 136.81Z" id="h1w2AXAPRl"></path><mask id="maskayMubGMi0" x="61.67" y="134.8" width="134" height="86.08" maskUnits="userSpaceOnUse"><rect x="61.67" y="134.8" width="134" height="86.08" fill="white"></rect><use xlink:href="#h1w2AXAPRl" opacity="1" fill="black"></use></mask><path d="M71.89 142.71L113.95 142.71L113.95 212.83L71.89 212.83L71.89 142.71Z" id="a1TaI1Cwat"></path><path d="M95.06 149.91L96.28 150.14L97.48 150.47L98.66 150.91L99.81 151.44L100.92 152.07L101.99 152.81L103.01 153.65L103.95 154.57L104.8 155.56L105.55 156.59L106.21 157.68L106.77 158.81L107.23 159.97L107.59 161.16L107.85 162.37L108.02 163.59L108.09 164.83L108.05 166.06L107.92 167.29L107.69 168.52L107.36 169.72L106.92 170.9L106.39 172.05L105.75 173.16L105.02 174.23L104.18 175.25L103.26 176.19L102.27 177.04L101.23 177.79L100.15 178.45L99.02 179L97.86 179.46L96.67 179.83L95.46 180.09L94.24 180.26L93 180.32L91.77 180.29L90.53 180.16L89.31 179.93L88.11 179.59L86.93 179.16L85.78 178.63L84.67 177.99L83.6 177.25L82.58 176.42L81.64 175.49L80.79 174.51L80.04 173.47L79.38 172.39L78.82 171.26L78.36 170.1L78 168.91L77.74 167.7L77.57 166.48L77.51 165.24L77.54 164L77.67 162.77L77.9 161.55L78.23 160.35L78.67 159.17L79.2 158.02L79.84 156.91L80.57 155.84L81.41 154.82L82.34 153.87L83.32 153.03L84.36 152.27L85.44 151.62L86.57 151.06L87.73 150.6L88.92 150.24L90.13 149.98L91.35 149.81L92.59 149.74L93.82 149.78L95.06 149.91ZM89.69 153.99L88.5 154.4L87.34 154.94L86.24 155.62L85.21 156.43L84.26 157.37L83.42 158.42L82.73 159.53L82.17 160.7L81.76 161.9L81.48 163.14L81.34 164.39L81.34 165.65L81.48 166.9L81.75 168.13L82.16 169.33L82.7 170.49L83.38 171.59L84.19 172.62L85.13 173.57L86.18 174.41L87.29 175.1L88.46 175.65L89.67 176.07L90.9 176.35L92.16 176.48L93.41 176.49L94.67 176.35L95.9 176.08L97.1 175.67L98.25 175.13L99.35 174.45L100.38 173.64L101.33 172.69L102.17 171.65L102.86 170.54L103.42 169.37L103.83 168.16L104.11 166.93L104.25 165.67L104.25 164.41L104.11 163.16L103.84 161.93L103.43 160.73L102.89 159.58L102.21 158.48L101.4 157.45L100.46 156.5L99.41 155.66L98.3 154.97L97.13 154.41L95.92 154L94.69 153.72L93.44 153.58L92.18 153.58L90.93 153.72L89.69 153.99Z" id="n1f5hZW8pi"></path><path d="M83.42 158.42L82.73 159.53L82.17 160.7L81.76 161.9L81.48 163.14L81.34 164.39L81.34 165.65L81.48 166.9L81.75 168.13L82.16 169.33L82.7 170.49L83.38 171.59L84.19 172.62L85.13 173.57L82.58 176.42L81.64 175.49L80.79 174.51L80.04 173.47L79.38 172.39L78.82 171.26L78.36 170.1L78 168.91L77.74 167.7L77.57 166.48L77.51 165.24L77.54 164L77.67 162.77L77.9 161.55L78.23 160.35L78.67 159.17L79.2 158.02L79.84 156.91L80.57 155.84L81.41 154.82L84.26 157.37L83.42 158.42Z" id="a4bwCXU5U"></path><path d="M97.13 154.41L95.92 154L94.69 153.72L93.44 153.58L92.18 153.58L90.93 153.72L89.69 153.99L88.5 154.4L87.34 154.94L86.24 155.62L85.21 156.43L84.26 157.37L81.41 154.82L81.41 154.82L82.34 153.87L83.32 153.03L84.36 152.27L85.44 151.62L86.57 151.06L87.73 150.6L88.92 150.24L90.13 149.98L91.35 149.81L92.59 149.74L93.82 149.78L95.06 149.91L96.28 150.14L97.48 150.47L98.66 150.91L99.81 151.44L100.92 152.07L101.99 152.81L103.01 153.65L103.01 153.65L103.95 154.57L104.8 155.56L105.55 156.59L106.21 157.68L106.77 158.81L107.23 159.97L107.59 161.16L107.85 162.37L108.02 163.59L108.09 164.83L108.05 166.06L107.92 167.29L107.69 168.52L107.36 169.72L106.92 170.9L106.39 172.05L105.75 173.16L105.02 174.23L104.18 175.25L101.33 172.7L101.33 172.69L102.17 171.65L102.86 170.54L103.42 169.37L103.83 168.16L104.11 166.93L104.25 165.67L104.25 164.41L104.11 163.16L103.84 161.93L103.43 160.73L102.89 159.58L102.21 158.48L101.4 157.45L100.46 156.5L100.46 156.5L99.41 155.66L98.3 154.97L97.13 154.41Z" id="aOJvC2F"></path><path d="M78.04 201.06L86.78 201.06L86.78 206.58L78.04 206.58L78.04 201.06Z" id="aH9lMClpc"></path><path d="M87.44 187.08L96.17 187.08L96.17 206.58L87.44 206.58L87.44 187.08Z" id="ffbiI67dE"></path><path d="M96.83 201.06L105.57 201.06L105.57 206.58L96.83 206.58L96.83 201.06Z" id="b25fC47h3"></path><path d="M120.83 204.16L180.1 204.16L180.1 212.83L120.83 212.83L120.83 204.16Z" id="aUgodcFWb"></path><path d="M148.83 206.39C149.73 206.39 150.47 207.13 150.47 208.03C150.47 208.55 150.47 208.45 150.47 208.96C150.47 209.87 149.73 210.6 148.83 210.6C146 210.6 139.15 210.6 136.32 210.6C135.41 210.6 134.68 209.87 134.68 208.96C134.68 208.45 134.68 208.55 134.68 208.03C134.68 207.13 135.41 206.39 136.32 206.39C139.15 206.39 146 206.39 148.83 206.39Z" id="fV2rc9VOm"></path><path d="M174.37 206.39C175.27 206.39 176 207.13 176 208.03C176 208.55 176 208.45 176 208.96C176 209.87 175.27 210.6 174.37 210.6C171.54 210.6 164.68 210.6 161.86 210.6C160.95 210.6 160.22 209.87 160.22 208.96C160.22 208.45 160.22 208.55 160.22 208.03C160.22 207.13 160.95 206.39 161.86 206.39C164.68 206.39 171.54 206.39 174.37 206.39Z" id="b5okhIssm7"></path><path d="M123.74 206.01L128.67 206.01L128.67 210.98L123.74 210.98L123.74 206.01Z" id="bVAf6QMzD"></path><path d="M120.83 192.5L180.1 192.5L180.1 201.17L120.83 201.17L120.83 192.5Z" id="bki98NsEJ"></path><path d="M148.83 194.73C149.73 194.73 150.47 195.47 150.47 196.37C150.47 196.89 150.47 196.79 150.47 197.3C150.47 198.21 149.73 198.94 148.83 198.94C146 198.94 139.15 198.94 136.32 198.94C135.41 198.94 134.68 198.21 134.68 197.3C134.68 196.79 134.68 196.89 134.68 196.37C134.68 195.47 135.41 194.73 136.32 194.73C139.15 194.73 146 194.73 148.83 194.73Z" id="a7NZdQEka"></path><path d="M174.37 194.73C175.27 194.73 176 195.47 176 196.37C176 196.89 176 196.79 176 197.3C176 198.21 175.27 198.94 174.37 198.94C171.54 198.94 164.68 198.94 161.86 198.94C160.95 198.94 160.22 198.21 160.22 197.3C160.22 196.79 160.22 196.89 160.22 196.37C160.22 195.47 160.95 194.73 161.86 194.73C164.68 194.73 171.54 194.73 174.37 194.73Z" id="a2jN0Cwso3"></path><path d="M123.74 194.35L128.67 194.35L128.67 199.32L123.74 199.32L123.74 194.35Z" id="bjpPzmCo"></path><path d="M120.83 180.33L180.1 180.33L180.1 189L120.83 189L120.83 180.33Z" id="efNVwBZL"></path><path d="M148.83 182.56C149.73 182.56 150.47 183.3 150.47 184.2C150.47 184.72 150.47 184.62 150.47 185.13C150.47 186.04 149.73 186.77 148.83 186.77C146 186.77 139.15 186.77 136.32 186.77C135.41 186.77 134.68 186.04 134.68 185.13C134.68 184.62 134.68 184.72 134.68 184.2C134.68 183.3 135.41 182.56 136.32 182.56C139.15 182.56 146 182.56 148.83 182.56Z" id="c8Mvs76q6"></path><path d="M174.37 182.56C175.27 182.56 176 183.3 176 184.2C176 184.72 176 184.62 176 185.13C176 186.04 175.27 186.77 174.37 186.77C171.54 186.77 164.68 186.77 161.86 186.77C160.95 186.77 160.22 186.04 160.22 185.13C160.22 184.62 160.22 184.72 160.22 184.2C160.22 183.3 160.95 182.56 161.86 182.56C164.68 182.56 171.54 182.56 174.37 182.56Z" id="e2PAMaE6nX"></path><path d="M123.74 182.18L128.67 182.18L128.67 187.15L123.74 187.15L123.74 182.18Z" id="a1r8aMi7zF"></path><path d="M120.83 167.75L180.1 167.75L180.1 176.42L120.83 176.42L120.83 167.75Z" id="baI0DjbjEy"></path><path d="M148.83 169.98C149.73 169.98 150.47 170.72 150.47 171.62C150.47 172.14 150.47 172.04 150.47 172.55C150.47 173.46 149.73 174.19 148.83 174.19C146 174.19 139.15 174.19 136.32 174.19C135.41 174.19 134.68 173.46 134.68 172.55C134.68 172.04 134.68 172.14 134.68 171.62C134.68 170.72 135.41 169.98 136.32 169.98C139.15 169.98 146 169.98 148.83 169.98Z" id="a19S0ZJa8M"></path><path d="M174.37 169.98C175.27 169.98 176 170.72 176 171.62C176 172.14 176 172.04 176 172.55C176 173.46 175.27 174.19 174.37 174.19C171.54 174.19 164.68 174.19 161.86 174.19C160.95 174.19 160.22 173.46 160.22 172.55C160.22 172.04 160.22 172.14 160.22 171.62C160.22 170.72 160.95 169.98 161.86 169.98C164.68 169.98 171.54 169.98 174.37 169.98Z" id="bZu8DvB8A"></path><path d="M123.74 169.6L128.67 169.6L128.67 174.57L123.74 174.57L123.74 169.6Z" id="jJ6WBumJC"></path><path d="M120.83 154.82L180.1 154.82L180.1 163.49L120.83 163.49L120.83 154.82Z" id="a2gyRrmc4A"></path><path d="M148.83 157.05C149.73 157.05 150.47 157.79 150.47 158.69C150.47 159.21 150.47 159.11 150.47 159.62C150.47 160.53 149.73 161.26 148.83 161.26C146 161.26 139.15 161.26 136.32 161.26C135.41 161.26 134.68 160.53 134.68 159.62C134.68 159.11 134.68 159.21 134.68 158.69C134.68 157.79 135.41 157.05 136.32 157.05C139.15 157.05 146 157.05 148.83 157.05Z" id="cf1xDIkz6"></path><path d="M174.37 157.05C175.27 157.05 176 157.79 176 158.69C176 159.21 176 159.11 176 159.62C176 160.53 175.27 161.26 174.37 161.26C171.54 161.26 164.68 161.26 161.86 161.26C160.95 161.26 160.22 160.53 160.22 159.62C160.22 159.11 160.22 159.21 160.22 158.69C160.22 157.79 160.95 157.05 161.86 157.05C164.68 157.05 171.54 157.05 174.37 157.05Z" id="g8JNR9ahEW"></path><path d="M123.74 156.67L128.67 156.67L128.67 161.64L123.74 161.64L123.74 156.67Z" id="fGnXaDMjs"></path><path d="M148.83 145.54C149.73 145.54 150.47 146.27 150.47 147.18C150.47 147.69 150.47 147.59 150.47 148.11C150.47 149.01 149.73 149.75 148.83 149.75C146 149.75 139.15 149.75 136.32 149.75C135.41 149.75 134.68 149.01 134.68 148.11C134.68 147.59 134.68 147.69 134.68 147.18C134.68 146.27 135.41 145.54 136.32 145.54C139.15 145.54 146 145.54 148.83 145.54Z" id="bcPh2WZh"></path><path d="M174.37 145.53C175.27 145.53 176 146.27 176 147.17C176 147.68 176 147.59 176 148.1C176 149.01 175.27 149.74 174.37 149.74C171.54 149.74 164.68 149.74 161.86 149.74C160.95 149.74 160.22 149.01 160.22 148.1C160.22 147.59 160.22 147.68 160.22 147.17C160.22 146.27 160.95 145.53 161.86 145.53C164.68 145.53 171.54 145.53 174.37 145.53Z" id="frZJXF1vJ"></path><path d="M123.74 145.16L128.67 145.16L128.67 150.13L123.74 150.13L123.74 145.16Z" id="fUeOfAen"></path><path d="M187.38 136.86L187.67 136.9L187.95 136.95L188.23 137.01L188.5 137.08L188.77 137.17L189.03 137.26L189.29 137.37L189.55 137.48L189.8 137.6L190.04 137.73L190.28 137.88L190.51 138.03L190.74 138.19L190.96 138.35L191.17 138.53L191.37 138.71L191.57 138.9L191.76 139.1L191.95 139.31L192.12 139.52L192.29 139.74L192.45 139.96L192.6 140.19L192.74 140.43L192.87 140.68L193 140.93L193.11 141.18L193.21 141.44L193.31 141.71L193.39 141.97L193.46 142.25L193.53 142.53L193.58 142.81L193.62 143.09L193.65 143.38L193.67 143.68L193.67 143.97L193.67 211.71L193.67 212.01L193.65 212.3L193.62 212.59L193.58 212.88L193.53 213.16L193.46 213.44L193.39 213.71L193.31 213.98L193.21 214.24L193.11 214.5L193 214.76L192.87 215.01L192.74 215.25L192.6 215.49L192.45 215.72L192.29 215.95L192.12 216.17L191.95 216.38L191.76 216.58L191.57 216.78L191.37 216.97L191.17 217.16L190.96 217.33L190.74 217.5L190.51 217.66L190.28 217.81L190.04 217.95L189.8 218.08L189.55 218.21L189.29 218.32L189.03 218.42L188.77 218.52L188.5 218.6L188.23 218.67L187.95 218.74L187.67 218.79L187.38 218.83L187.09 218.86L186.8 218.88L186.5 218.88L115.02 218.88L153.37 136.8L186.5 136.8L186.8 136.81L187.09 136.83L187.09 136.83L187.38 136.86Z" id="a3DdNx2wX"></path><path d="M190.66 178.26C190.66 180.47 188.86 182.26 186.66 182.26C184.45 182.26 182.66 180.47 182.66 178.26C182.66 176.05 184.45 174.26 186.66 174.26C188.86 174.26 190.66 176.05 190.66 178.26Z" id="e4L1qa2ej0"></path><path d="M50.64 136.8L50.73 136.81L50.83 136.82L50.92 136.83L51.01 136.85L51.09 136.87L51.18 136.89L51.27 136.92L51.35 136.95L51.43 136.98L51.51 137.02L51.59 137.06L51.67 137.1L51.75 137.14L51.82 137.19L51.89 137.24L51.96 137.29L52.03 137.35L52.09 137.41L52.16 137.47L52.22 137.53L52.28 137.6L52.33 137.66L52.38 137.73L52.43 137.81L52.48 137.88L52.53 137.95L52.57 138.03L52.61 138.11L52.64 138.19L52.68 138.27L52.71 138.36L52.73 138.44L52.76 138.53L52.78 138.62L52.79 138.71L52.81 138.8L52.82 138.89L52.82 138.98L52.82 139.08L52.82 140.2L52.82 141.41L52.82 142.71L52.82 144.09L52.82 145.55L52.82 147.09L52.82 148.7L52.82 150.36L52.82 152.09L52.82 153.87L52.82 155.71L52.82 157.58L52.82 159.5L52.82 161.45L52.82 163.43L52.82 165.43L52.82 167.45L52.82 169.49L52.82 171.54L52.82 173.59L52.82 175.65L52.82 177.69L52.82 179.73L52.82 181.75L52.82 183.76L52.82 185.74L52.82 187.69L52.82 189.6L52.82 191.48L52.82 193.31L52.82 195.09L52.82 196.82L52.82 198.49L52.82 200.09L52.82 201.63L52.82 203.09L52.82 204.48L52.82 205.78L52.82 206.99L52.82 208.11L52.82 208.2L52.82 208.29L52.81 208.38L52.79 208.48L52.78 208.56L52.76 208.65L52.73 208.74L52.71 208.83L52.68 208.91L52.64 208.99L52.61 209.07L52.57 209.15L52.53 209.23L52.48 209.31L52.43 209.38L52.38 209.45L52.33 209.52L52.28 209.59L52.22 209.65L52.16 209.72L52.09 209.78L52.03 209.83L51.96 209.89L51.89 209.94L51.82 209.99L51.75 210.04L51.67 210.09L51.59 210.13L51.51 210.17L51.43 210.2L51.35 210.24L51.27 210.27L51.18 210.29L51.09 210.32L51.01 210.34L50.92 210.35L50.83 210.37L50.73 210.37L50.64 210.38L50.55 210.38L49.94 210.38L49.28 210.38L48.58 210.38L47.83 210.38L47.05 210.38L46.23 210.38L45.37 210.38L44.48 210.38L43.56 210.38L42.62 210.38L41.65 210.38L40.65 210.38L39.64 210.38L38.61 210.38L37.56 210.38L36.5 210.38L35.43 210.38L34.35 210.38L33.27 210.38L32.19 210.38L31.1 210.38L30.02 210.38L28.95 210.38L27.88 210.38L26.82 210.38L25.77 210.38L24.74 210.38L23.73 210.38L22.73 210.38L21.76 210.38L20.81 210.38L19.89 210.38L19 210.38L18.15 210.38L17.33 210.38L16.54 210.38L15.8 210.38L15.09 210.38L14.44 210.38L13.83 210.38L13.73 210.38L13.64 210.37L13.55 210.37L13.46 210.35L13.37 210.34L13.28 210.32L13.19 210.29L13.11 210.27L13.02 210.24L12.94 210.2L12.86 210.17L12.78 210.13L12.7 210.09L12.63 210.04L12.56 209.99L12.48 209.94L12.41 209.89L12.35 209.83L12.28 209.78L12.22 209.72L12.16 209.65L12.1 209.59L12.04 209.52L11.99 209.45L11.94 209.38L11.89 209.31L11.85 209.23L11.81 209.15L11.77 209.07L11.73 208.99L11.7 208.91L11.67 208.83L11.64 208.74L11.62 208.65L11.6 208.56L11.58 208.48L11.57 208.38L11.56 208.29L11.55 208.2L11.55 208.11L11.55 206.99L11.55 205.78L11.55 204.48L11.55 203.09L11.55 201.63L11.55 200.09L11.55 198.49L11.55 196.82L11.55 195.09L11.55 193.31L11.55 191.48L11.55 189.6L11.55 187.69L11.55 185.74L11.55 183.76L11.55 181.75L11.55 179.73L11.55 177.69L11.55 175.65L11.55 173.59L11.55 171.54L11.55 169.49L11.55 167.45L11.55 165.43L11.55 163.43L11.55 161.45L11.55 159.5L11.55 157.58L11.55 155.71L11.55 153.87L11.55 152.09L11.55 150.36L11.55 148.7L11.55 147.09L11.55 145.55L11.55 144.09L11.55 142.71L11.55 141.41L11.55 140.2L11.55 139.08L11.55 138.98L11.56 138.89L11.57 138.8L11.58 138.71L11.6 138.62L11.62 138.53L11.64 138.44L11.67 138.36L11.7 138.27L11.73 138.19L11.77 138.11L11.81 138.03L11.85 137.95L11.89 137.88L11.94 137.81L11.99 137.73L12.04 137.66L12.1 137.6L12.16 137.53L12.22 137.47L12.28 137.41L12.35 137.35L12.41 137.29L12.48 137.24L12.56 137.19L12.63 137.14L12.7 137.1L12.78 137.06L12.86 137.02L12.94 136.98L13.02 136.95L13.11 136.92L13.19 136.89L13.28 136.87L13.37 136.85L13.46 136.83L13.55 136.82L13.64 136.81L13.73 136.8L13.83 136.8L14.44 136.8L15.09 136.8L15.8 136.8L16.54 136.8L17.33 136.8L18.15 136.8L19 136.8L19.89 136.8L20.81 136.8L21.76 136.8L22.73 136.8L23.73 136.8L24.74 136.8L25.77 136.8L26.82 136.8L27.88 136.8L28.95 136.8L30.02 136.8L31.1 136.8L32.19 136.8L33.27 136.8L34.35 136.8L35.43 136.8L36.5 136.8L37.56 136.8L38.61 136.8L39.64 136.8L40.65 136.8L41.65 136.8L42.62 136.8L43.56 136.8L44.48 136.8L45.37 136.8L46.23 136.8L47.05 136.8L47.83 136.8L48.58 136.8L49.28 136.8L49.94 136.8L50.55 136.8L50.55 136.8L50.64 136.8Z" id="aD8Lq1Ozv"></path><mask id="maskh1vwHzPTAj" x="9.55" y="134.8" width="45.27" height="77.58" maskUnits="userSpaceOnUse"><rect x="9.55" y="134.8" width="45.27" height="77.58" fill="white"></rect><use xlink:href="#aD8Lq1Ozv" opacity="1" fill="black"></use></mask><path d="M36.19 203.26C36.19 205.47 34.4 207.26 32.19 207.26C29.98 207.26 28.19 205.47 28.19 203.26C28.19 201.05 29.98 199.26 32.19 199.26C34.4 199.26 36.19 201.05 36.19 203.26Z" id="f8b07k0Ksx"></path><path d="M25.9 141.57L25.9 143.4L16.69 143.4L16.69 141.57L25.9 141.57Z" id="cMWRT0kcS"></path><path d="M49.19 144.86L49.19 146.69L16.69 146.69L16.69 144.86L49.19 144.86Z" id="aLugd05OW"></path><path d="M25.9 148.4L25.9 150.24L16.69 150.24L16.69 148.4L25.9 148.4Z" id="h1mtaA2Jtc"></path><path d="M12.02 138.6L53.29 138.6L53.29 152.96L12.02 152.96L12.02 138.6Z" id="apP4mvybB"></path><path d="M11.55 156.97L52.82 156.97L52.82 196.97L11.55 196.97L11.55 156.97Z" id="aMyBjzCPq"></path><path d="M20.72 160.04C21.09 160.04 21.39 160.34 21.39 160.71C21.39 161.68 21.39 163.9 21.39 164.87C21.39 165.24 21.09 165.54 20.72 165.54C19.56 165.54 16.76 165.54 15.61 165.54C15.24 165.54 14.94 165.24 14.94 164.87C14.94 163.9 14.94 161.68 14.94 160.71C14.94 160.34 15.24 160.04 15.61 160.04C16.76 160.04 19.56 160.04 20.72 160.04Z" id="d2jSgP1T"></path><path d="M47.53 160.04C48.92 160.04 50.04 161.16 50.04 162.54C50.04 163.14 50.04 162.44 50.04 163.03C50.04 164.42 48.92 165.54 47.53 165.54C43.21 165.54 32.73 165.54 28.4 165.54C27.02 165.54 25.9 164.42 25.9 163.03C25.9 162.44 25.9 163.14 25.9 162.54C25.9 161.16 27.02 160.04 28.4 160.04C32.73 160.04 43.21 160.04 47.53 160.04Z" id="g2XOaL1ZsT"></path><path d="M20.72 168.09C21.09 168.09 21.39 168.39 21.39 168.76C21.39 169.73 21.39 171.96 21.39 172.92C21.39 173.29 21.09 173.59 20.72 173.59C19.56 173.59 16.76 173.59 15.61 173.59C15.24 173.59 14.94 173.29 14.94 172.92C14.94 171.96 14.94 169.73 14.94 168.76C14.94 168.39 15.24 168.09 15.61 168.09C16.76 168.09 19.56 168.09 20.72 168.09Z" id="d1ctlgXY8X"></path><path d="M47.53 168.09C48.92 168.09 50.04 169.21 50.04 170.6C50.04 171.2 50.04 170.49 50.04 171.09C50.04 172.47 48.92 173.59 47.53 173.59C43.21 173.59 32.73 173.59 28.4 173.59C27.02 173.59 25.9 172.47 25.9 171.09C25.9 170.49 25.9 171.2 25.9 170.6C25.9 169.21 27.02 168.09 28.4 168.09C32.73 168.09 43.21 168.09 47.53 168.09Z" id="k1aSMqcosd"></path><path d="M20.72 176.97C21.09 176.97 21.39 177.27 21.39 177.64C21.39 178.61 21.39 180.84 21.39 181.8C21.39 182.17 21.09 182.47 20.72 182.47C19.56 182.47 16.76 182.47 15.61 182.47C15.24 182.47 14.94 182.17 14.94 181.8C14.94 180.84 14.94 178.61 14.94 177.64C14.94 177.27 15.24 176.97 15.61 176.97C16.76 176.97 19.56 176.97 20.72 176.97Z" id="a2MSwUeJCw"></path><path d="M47.53 176.97C48.92 176.97 50.04 178.09 50.04 179.48C50.04 180.08 50.04 179.37 50.04 179.97C50.04 181.35 48.92 182.47 47.53 182.47C43.21 182.47 32.73 182.47 28.4 182.47C27.02 182.47 25.9 181.35 25.9 179.97C25.9 179.37 25.9 180.08 25.9 179.48C25.9 178.09 27.02 176.97 28.4 176.97C32.73 176.97 43.21 176.97 47.53 176.97Z" id="aYWc0ALlb"></path><path d="M20.72 185.85C21.09 185.85 21.39 186.15 21.39 186.52C21.39 187.48 21.39 189.71 21.39 190.68C21.39 191.05 21.09 191.35 20.72 191.35C19.56 191.35 16.76 191.35 15.61 191.35C15.24 191.35 14.94 191.05 14.94 190.68C14.94 189.71 14.94 187.48 14.94 186.52C14.94 186.15 15.24 185.85 15.61 185.85C16.76 185.85 19.56 185.85 20.72 185.85Z" id="bH4HbPW2x"></path><path d="M47.53 185.85C48.92 185.85 50.04 186.97 50.04 188.35C50.04 188.95 50.04 188.24 50.04 188.84C50.04 190.22 48.92 191.35 47.53 191.35C43.21 191.35 32.73 191.35 28.4 191.35C27.02 191.35 25.9 190.22 25.9 188.84C25.9 188.24 25.9 188.95 25.9 188.35C25.9 186.97 27.02 185.85 28.4 185.85C32.73 185.85 43.21 185.85 47.53 185.85Z" id="a1O05P0lu"></path><path d="M50.57 136.81L50.66 136.82L50.75 136.83L50.84 136.85L50.93 136.87L51.02 136.89L51.1 136.92L51.19 136.95L51.27 136.98L51.35 137.02L51.43 137.06L51.51 137.1L51.58 137.14L51.66 137.19L51.73 137.24L51.8 137.29L51.87 137.35L51.93 137.41L51.99 137.47L52.06 137.53L52.11 137.6L52.17 137.66L52.22 137.73L52.27 137.81L52.32 137.88L52.37 137.95L52.41 138.03L52.45 138.11L52.48 138.19L52.52 138.27L52.55 138.36L52.57 138.44L52.6 138.53L52.62 138.62L52.63 138.71L52.64 138.8L52.65 138.89L52.66 138.98L52.66 139.08L52.66 208.11L52.66 208.2L52.65 208.29L52.64 208.38L52.63 208.47L52.62 208.56L52.6 208.65L52.57 208.74L52.55 208.83L52.52 208.91L52.48 208.99L52.45 209.07L52.41 209.15L52.37 209.23L52.32 209.3L52.27 209.38L52.22 209.45L52.17 209.52L52.11 209.59L52.06 209.65L51.99 209.72L51.93 209.78L51.87 209.83L51.8 209.89L51.73 209.94L51.66 209.99L51.58 210.04L51.51 210.09L51.43 210.13L51.35 210.17L51.27 210.2L51.19 210.24L51.1 210.27L51.02 210.29L50.93 210.32L50.84 210.34L50.75 210.35L50.66 210.36L50.57 210.37L50.48 210.38L50.39 210.38L18.94 210.38L50.39 136.8L50.48 136.8L50.57 136.81Z" id="hJ7n7rXSY"></path></defs><g><g><g><use xlink:href="#akjetTSsJ" opacity="1" fill="#2d2d2d" fill-opacity="1"></use><g mask="url(#maskf1SaskNU2D)"><use xlink:href="#akjetTSsJ" opacity="1" fill-opacity="0" stroke="#b7b7b7" stroke-width="2" stroke-opacity="1"></use></g></g><g><g><use xlink:href="#aQfbfvVL" opacity="1" fill-opacity="0" stroke="#000000" stroke-width="0" stroke-opacity="0"></use></g></g><g><use xlink:href="#d4IdQ5xklF" opacity="1" fill="#ffffff" fill-opacity="0.11"></use></g><g><use xlink:href="#a9aO12oZ0A" opacity="1" fill="#f25d5b" fill-opacity="1"></use></g><g><use xlink:href="#g3p438gUi4" opacity="1" fill="#f0ad2b" fill-opacity="1"></use></g><g><use xlink:href="#h2RmlTbOMo" opacity="1" fill="#86dd60" fill-opacity="1"></use></g><g><use xlink:href="#b1J8FdK3us" opacity="1" fill="#ffffff" fill-opacity="0.11"></use></g><g><use xlink:href="#b1uE6POQXC" opacity="1" fill="#898787" fill-opacity="1"></use></g><g><use xlink:href="#boyLDZoEH" opacity="1" fill="#898787" fill-opacity="1"></use></g><g><use xlink:href="#a1UdMD5Oi4" opacity="1" fill="#e6e6e6" fill-opacity="1"></use></g><g><use xlink:href="#a1nR8kuYIr" opacity="1" fill="#e6e6e6" fill-opacity="1"></use></g><g><use xlink:href="#cUKpUPzAo" opacity="1" fill="#e6e6e6" fill-opacity="1"></use></g><g><use xlink:href="#c2MWwkXS4U" opacity="1" fill="#898787" fill-opacity="1"></use></g><g><use xlink:href="#dMXD6390" opacity="1" fill="#f25d5b" fill-opacity="1"></use></g><g><use xlink:href="#clrbXpAL1" opacity="1" fill="#86dd60" fill-opacity="1"></use></g><g><use xlink:href="#a1FSdahQJ6" opacity="1" fill="#f0ad2b" fill-opacity="1"></use></g><g><use xlink:href="#i9Monjny8" opacity="1" fill="#ffffff" fill-opacity="0.28"></use></g><g><use xlink:href="#gZ7DwjbR" opacity="1" fill="#e6e6e6" fill-opacity="0.52"></use><g mask="url(#maskc5CmzKqfbT)"><use xlink:href="#gZ7DwjbR" opacity="1" fill-opacity="0" stroke="#c7c7c7" stroke-width="2" stroke-opacity="1"></use></g></g><g><use xlink:href="#d2l0Gw7Fzg" opacity="1" fill="#c7c7c7" fill-opacity="1"></use></g><g><use xlink:href="#h1w2AXAPRl" opacity="1" fill="#2d2d2d" fill-opacity="1"></use><g mask="url(#maskayMubGMi0)"><use xlink:href="#h1w2AXAPRl" opacity="1" fill-opacity="0" stroke="#b7b7b7" stroke-width="2" stroke-opacity="1"></use></g></g><g><use xlink:href="#a1TaI1Cwat" opacity="1" fill="#ffffff" fill-opacity="0.11"></use></g><g><use xlink:href="#n1f5hZW8pi" opacity="1" fill="#f25d5b" fill-opacity="1"></use></g><g><use xlink:href="#a4bwCXU5U" opacity="1" fill="#f0ad2b" fill-opacity="1"></use></g><g><use xlink:href="#aOJvC2F" opacity="1" fill="#86dd60" fill-opacity="1"></use></g><g><use xlink:href="#aH9lMClpc" opacity="1" fill="#f25d5b" fill-opacity="1"></use></g><g><use xlink:href="#ffbiI67dE" opacity="1" fill="#86dd60" fill-opacity="1"></use></g><g><use xlink:href="#b25fC47h3" opacity="1" fill="#f0ad2b" fill-opacity="1"></use></g><g><use xlink:href="#aUgodcFWb" opacity="1" fill="#ffffff" fill-opacity="0.11"></use></g><g><use xlink:href="#fV2rc9VOm" opacity="1" fill="#e6e6e6" fill-opacity="1"></use></g><g><use xlink:href="#b5okhIssm7" opacity="1" fill="#e6e6e6" fill-opacity="1"></use></g><g><use xlink:href="#bVAf6QMzD" opacity="1" fill="#e6e6e6" fill-opacity="1"></use></g><g><use xlink:href="#bki98NsEJ" opacity="1" fill="#ffffff" fill-opacity="0.11"></use></g><g><use xlink:href="#a7NZdQEka" opacity="1" fill="#e6e6e6" fill-opacity="1"></use></g><g><use xlink:href="#a2jN0Cwso3" opacity="1" fill="#e6e6e6" fill-opacity="1"></use></g><g><use xlink:href="#bjpPzmCo" opacity="1" fill="#e6e6e6" fill-opacity="1"></use></g><g><use xlink:href="#efNVwBZL" opacity="1" fill="#ffffff" fill-opacity="0.11"></use></g><g><use xlink:href="#c8Mvs76q6" opacity="1" fill="#e6e6e6" fill-opacity="1"></use></g><g><use xlink:href="#e2PAMaE6nX" opacity="1" fill="#e6e6e6" fill-opacity="1"></use></g><g><use xlink:href="#a1r8aMi7zF" opacity="1" fill="#e6e6e6" fill-opacity="1"></use></g><g><use xlink:href="#baI0DjbjEy" opacity="1" fill="#ffffff" fill-opacity="0.11"></use></g><g><use xlink:href="#a19S0ZJa8M" opacity="1" fill="#e6e6e6" fill-opacity="1"></use></g><g><use xlink:href="#bZu8DvB8A" opacity="1" fill="#e6e6e6" fill-opacity="1"></use></g><g><use xlink:href="#jJ6WBumJC" opacity="1" fill="#e6e6e6" fill-opacity="1"></use></g><g><use xlink:href="#a2gyRrmc4A" opacity="1" fill="#ffffff" fill-opacity="0.11"></use></g><g><use xlink:href="#cf1xDIkz6" opacity="1" fill="#e6e6e6" fill-opacity="1"></use></g><g><use xlink:href="#g8JNR9ahEW" opacity="1" fill="#e6e6e6" fill-opacity="1"></use></g><g><use xlink:href="#fGnXaDMjs" opacity="1" fill="#e6e6e6" fill-opacity="1"></use></g><g><use xlink:href="#bcPh2WZh" opacity="1" fill="#898787" fill-opacity="1"></use></g><g><use xlink:href="#frZJXF1vJ" opacity="1" fill="#898787" fill-opacity="1"></use></g><g><use xlink:href="#fUeOfAen" opacity="1" fill="#898787" fill-opacity="1"></use></g><g><use xlink:href="#a3DdNx2wX" opacity="1" fill="#ffffff" fill-opacity="0.28"></use></g><g><use xlink:href="#e4L1qa2ej0" opacity="1" fill="#ffffff" fill-opacity="0.18"></use></g><g><use xlink:href="#aD8Lq1Ozv" opacity="1" fill="#2d2d2d" fill-opacity="1"></use><g mask="url(#maskh1vwHzPTAj)"><use xlink:href="#aD8Lq1Ozv" opacity="1" fill-opacity="0" stroke="#b7b7b7" stroke-width="2" stroke-opacity="1"></use></g></g><g><use xlink:href="#f8b07k0Ksx" opacity="1" fill="#ffffff" fill-opacity="0.18"></use></g><g><use xlink:href="#cMWRT0kcS" opacity="1" fill="#f25d5b" fill-opacity="1"></use></g><g><use xlink:href="#aLugd05OW" opacity="1" fill="#86dd60" fill-opacity="1"></use></g><g><use xlink:href="#h1mtaA2Jtc" opacity="1" fill="#f0ad2b" fill-opacity="1"></use></g><g><use xlink:href="#apP4mvybB" opacity="1" fill="#ffffff" fill-opacity="0.11"></use></g><g><use xlink:href="#aMyBjzCPq" opacity="1" fill="#ffffff" fill-opacity="0.11"></use></g><g><use xlink:href="#d2jSgP1T" opacity="1" fill="#898787" fill-opacity="1"></use></g><g><use xlink:href="#g2XOaL1ZsT" opacity="1" fill="#898787" fill-opacity="1"></use></g><g><use xlink:href="#d1ctlgXY8X" opacity="1" fill="#898787" fill-opacity="1"></use></g><g><use xlink:href="#k1aSMqcosd" opacity="1" fill="#898787" fill-opacity="1"></use></g><g><use xlink:href="#a2MSwUeJCw" opacity="1" fill="#898787" fill-opacity="1"></use></g><g><use xlink:href="#aYWc0ALlb" opacity="1" fill="#898787" fill-opacity="1"></use></g><g><use xlink:href="#bH4HbPW2x" opacity="1" fill="#898787" fill-opacity="1"></use></g><g><use xlink:href="#a1O05P0lu" opacity="1" fill="#898787" fill-opacity="1"></use></g><g><use xlink:href="#hJ7n7rXSY" opacity="1" fill="#ffffff" fill-opacity="0.17"></use></g></g></g></svg>