<?xml version="1.0" encoding="UTF-8" standalone="no"?>
<!DOCTYPE svg PUBLIC "-//W3C//DTD SVG 1.1//EN" "http://www.w3.org/Graphics/SVG/1.1/DTD/svg11.dtd">
<svg version="1.1" xmlns="http://www.w3.org/2000/svg" xmlns:xlink="http://www.w3.org/1999/xlink" preserveAspectRatio="xMidYMid meet" viewBox="0 0 512 512" width="512" height="512"><defs><path d="M183.4 15.14L184.09 15.21L184.77 15.31L185.44 15.43L186.1 15.58L186.75 15.76L187.39 15.96L188.02 16.18L188.64 16.43L189.25 16.7L189.84 16.99L190.42 17.31L190.99 17.64L191.54 18L192.07 18.38L192.59 18.77L193.1 19.19L193.59 19.63L194.06 20.08L194.51 20.55L194.95 21.04L195.37 21.55L195.76 22.07L196.14 22.6L196.5 23.16L196.84 23.72L197.15 24.3L197.44 24.89L197.71 25.5L197.96 26.12L198.18 26.75L198.38 27.39L198.56 28.04L198.71 28.7L198.83 29.37L198.93 30.05L199 30.74L199.04 31.43L199.05 32.14L199.04 32.84L199 33.54L198.93 34.22L198.83 34.9L198.71 35.57L198.56 36.23L198.38 36.89L198.18 37.53L197.96 38.16L197.71 38.77L197.44 39.38L197.15 39.97L196.84 40.55L196.5 41.12L196.14 41.67L195.76 42.21L195.37 42.73L194.95 43.23L194.51 43.72L194.06 44.19L193.59 44.65L193.1 45.08L192.59 45.5L192.07 45.9L191.54 46.27L190.99 46.63L190.42 46.97L189.84 47.28L189.25 47.58L188.64 47.85L188.02 48.09L187.39 48.32L186.75 48.52L186.1 48.69L185.44 48.84L184.77 48.96L184.09 49.06L183.4 49.13L182.71 49.17L182 49.19L180.76 49.19L180.76 184.22L185.09 185.76L189.9 187.68L194.6 189.79L199.21 192.06L203.72 194.51L208.12 197.13L212.4 199.91L216.57 202.84L220.62 205.94L224.55 209.18L228.35 212.56L232.02 216.09L235.54 219.76L238.93 223.56L242.17 227.48L245.26 231.53L248.2 235.71L250.98 239.99L253.6 244.39L256.04 248.9L258.32 253.5L260.42 258.21L262.35 263.01L264.08 267.9L265.63 272.88L266.99 277.94L268.15 283.08L269.11 288.29L269.86 293.56L270.4 298.91L270.73 304.31L270.84 309.77L270.73 315.23L270.4 320.63L269.86 325.97L269.11 331.25L268.15 336.46L266.99 341.59L265.63 346.65L264.08 351.63L262.35 356.52L260.42 361.32L258.32 366.03L256.04 370.64L253.6 375.14L250.98 379.54L248.2 383.83L245.26 388L242.17 392.05L238.93 395.98L235.54 399.78L232.02 403.44L228.35 406.97L224.55 410.36L220.62 413.6L216.57 416.69L212.4 419.63L208.12 422.4L203.72 425.02L199.21 427.47L194.6 429.75L189.9 431.85L185.09 433.77L180.2 435.51L175.23 437.06L170.17 438.41L165.03 439.57L159.82 440.53L154.54 441.29L149.2 441.83L143.8 442.16L138.34 442.27L132.88 442.16L127.48 441.83L122.14 441.29L116.86 440.53L111.65 439.57L106.51 438.41L101.45 437.06L96.48 435.51L91.59 433.77L86.78 431.85L82.08 429.75L77.47 427.47L72.96 425.02L68.56 422.4L64.28 419.63L60.11 416.69L56.05 413.6L52.13 410.36L48.33 406.97L44.66 403.44L41.14 399.78L37.75 395.98L34.51 392.05L31.42 388L28.48 383.83L25.7 379.54L23.08 375.14L20.63 370.64L18.36 366.03L16.26 361.32L14.33 356.52L12.6 351.63L11.05 346.65L9.69 341.59L8.53 336.46L7.57 331.25L6.82 325.97L6.28 320.63L5.95 315.23L5.84 309.77L5.95 304.31L6.28 298.91L6.82 293.56L7.57 288.29L8.53 283.08L9.69 277.94L11.05 272.88L12.6 267.9L14.33 263.01L16.26 258.21L18.36 253.5L20.63 248.9L23.08 244.39L25.7 239.99L28.48 235.71L31.42 231.53L34.51 227.48L37.75 223.56L41.14 219.76L44.66 216.09L48.33 212.56L52.13 209.18L56.05 205.94L60.11 202.84L64.28 199.91L68.56 197.13L72.96 194.51L77.47 192.06L82.08 189.79L86.78 187.68L91.59 185.76L95.92 184.22L95.92 49.19L94.68 49.19L93.97 49.17L93.28 49.13L92.59 49.06L91.91 48.96L91.24 48.84L90.58 48.69L89.93 48.52L89.29 48.32L88.66 48.09L88.04 47.85L87.43 47.58L86.84 47.28L86.26 46.97L85.69 46.63L85.14 46.27L84.61 45.9L84.08 45.5L83.58 45.08L83.09 44.65L82.62 44.19L82.17 43.72L81.73 43.23L81.31 42.73L80.92 42.21L80.54 41.67L80.18 41.12L79.84 40.55L79.53 39.97L79.24 39.38L78.97 38.77L78.72 38.16L78.5 37.53L78.3 36.89L78.12 36.23L77.97 35.57L77.85 34.9L77.75 34.22L77.68 33.54L77.64 32.84L77.63 32.14L77.64 31.43L77.68 30.74L77.75 30.05L77.85 29.37L77.97 28.7L78.12 28.04L78.3 27.39L78.5 26.75L78.72 26.12L78.97 25.5L79.24 24.89L79.53 24.3L79.84 23.72L80.18 23.16L80.54 22.6L80.92 22.07L81.31 21.55L81.73 21.04L82.17 20.55L82.62 20.08L83.09 19.63L83.58 19.19L84.08 18.77L84.61 18.38L85.14 18L85.69 17.64L86.26 17.31L86.84 16.99L87.43 16.7L88.04 16.43L88.66 16.18L89.29 15.96L89.93 15.76L90.58 15.58L91.24 15.43L91.91 15.31L92.59 15.21L93.28 15.14L93.97 15.1L94.68 15.09L182 15.09L182.71 15.1L183.4 15.14Z" id="a3JLOhUKLV"></path><path d="M255.63 314.4L256.32 314.47L257.01 314.57L257.69 314.69L258.36 314.84L259.02 315.02L259.66 315.22L260.3 315.45L260.93 315.7L261.54 315.97L262.14 316.27L262.72 316.58L263.3 316.92L263.85 317.29L264.4 317.67L264.92 318.07L265.43 318.49L265.93 318.93L266.41 319.39L266.86 319.87L267.31 320.36L267.73 320.87L268.13 321.4L268.51 321.94L268.87 322.5L269.21 323.07L269.53 323.66L269.83 324.26L270.1 324.87L270.35 325.5L270.58 326.13L270.78 326.78L270.85 327.03L270.24 331.25L269.27 336.46L268.1 341.59L266.74 346.65L265.17 351.63L263.42 356.52L261.48 361.32L259.37 366.03L257.07 370.64L254.6 375.14L251.97 379.54L249.16 383.83L246.2 388L243.09 392.05L239.82 395.98L236.41 399.78L232.85 403.44L229.15 406.97L225.33 410.36L221.37 413.6L217.28 416.69L213.08 419.63L208.76 422.4L204.32 425.02L199.78 427.47L195.14 429.75L190.39 431.85L185.55 433.77L180.62 435.51L175.6 437.06L170.5 438.41L165.33 439.57L160.07 440.53L154.75 441.29L149.37 441.83L143.92 442.16L138.42 442.27L132.92 442.16L127.47 441.83L122.09 441.29L116.77 440.53L111.52 439.57L106.34 438.41L101.24 437.06L96.22 435.51L91.29 433.77L86.45 431.85L81.71 429.75L77.06 427.47L72.52 425.02L68.09 422.4L63.76 419.63L59.56 416.69L55.48 413.6L51.52 410.36L47.69 406.97L43.99 403.44L40.44 399.78L37.02 395.98L33.76 392.05L30.64 388L27.68 383.83L24.88 379.54L22.24 375.14L19.77 370.64L17.48 366.03L15.36 361.32L13.42 356.52L11.67 351.63L10.11 346.65L8.74 341.59L7.57 336.46L6.6 331.25L5.85 325.97L5.83 325.85L5.96 325.5L6.21 324.87L6.48 324.26L6.78 323.66L7.1 323.07L7.44 322.5L7.8 321.94L8.18 321.4L8.58 320.87L9.01 320.36L9.45 319.87L9.9 319.39L10.38 318.93L10.88 318.49L11.39 318.07L11.91 317.67L12.46 317.29L13.01 316.92L13.59 316.58L14.17 316.27L14.77 315.97L15.39 315.7L16.01 315.45L16.65 315.22L17.29 315.02L17.95 314.84L18.62 314.69L19.3 314.57L19.99 314.47L20.68 314.4L21.39 314.36L22.1 314.34L254.21 314.34L254.92 314.36L255.63 314.4Z" id="iurhzLh5q"></path><path d="M108.4 360.08C108.4 373.4 97.59 384.2 84.28 384.2C70.97 384.2 60.16 373.4 60.16 360.08C60.16 346.77 70.97 335.96 84.28 335.96C97.59 335.96 108.4 346.77 108.4 360.08Z" id="e1J1hGVwP4"></path><path d="M223.86 318.05C223.86 331.36 213.05 342.17 199.74 342.17C186.43 342.17 175.62 331.36 175.62 318.05C175.62 304.74 186.43 293.93 199.74 293.93C213.05 293.93 223.86 304.74 223.86 318.05Z" id="a3orrYaJNB"></path><path d="M199.74 394.23C199.74 403.03 192.6 410.16 183.81 410.16C175.02 410.16 167.88 403.03 167.88 394.23C167.88 385.44 175.02 378.3 183.81 378.3C192.6 378.3 199.74 385.44 199.74 394.23Z" id="d199X7MKUY"></path><path d="M199.85 108.45L200.3 108.49L200.75 108.56L201.19 108.64L201.62 108.74L202.05 108.85L202.46 108.98L202.88 109.13L203.28 109.29L203.68 109.47L204.06 109.66L204.44 109.86L204.81 110.08L205.17 110.32L205.53 110.56L205.87 110.82L206.2 111.1L206.52 111.38L206.83 111.68L207.12 111.99L207.41 112.31L207.68 112.64L207.94 112.98L208.19 113.33L208.42 113.69L208.64 114.06L208.85 114.44L209.04 114.83L209.22 115.22L209.38 115.63L209.52 116.04L209.65 116.46L209.77 116.88L209.86 117.32L209.95 117.75L210.01 118.2L210.05 118.65L210.08 119.1L210.09 119.56L210.08 120.02L210.05 120.48L210.01 120.93L209.95 121.37L209.86 121.81L209.77 122.24L209.65 122.67L209.52 123.09L209.38 123.5L209.22 123.9L209.04 124.3L208.85 124.69L208.64 125.07L208.42 125.44L208.19 125.8L207.94 126.15L207.68 126.49L207.41 126.82L207.12 127.14L206.83 127.45L206.52 127.75L206.2 128.03L205.87 128.3L205.53 128.56L205.17 128.81L204.81 129.04L204.44 129.26L204.06 129.47L203.68 129.66L203.28 129.84L202.88 130L202.46 130.15L202.05 130.28L201.62 130.39L201.19 130.49L200.75 130.57L200.3 130.63L199.85 130.68L199.4 130.71L198.94 130.72L189.43 130.72L189.43 411.74L188.49 411.74L188.45 413.05L188.34 414.34L188.15 415.62L187.89 416.86L187.57 418.09L187.17 419.28L186.72 420.45L186.19 421.59L185.61 422.69L184.97 423.76L184.28 424.79L183.52 425.78L182.72 426.74L181.87 427.65L180.96 428.51L180.01 429.33L179.02 430.1L177.98 430.82L176.91 431.49L175.79 432.1L174.64 432.66L173.45 433.16L172.24 433.6L170.99 433.98L169.71 434.29L168.41 434.54L167.08 434.71L165.74 434.82L164.37 434.86L163 434.82L161.65 434.71L160.33 434.54L159.03 434.29L157.75 433.98L156.5 433.6L155.28 433.16L154.1 432.66L152.95 432.1L151.83 431.49L150.76 430.82L149.72 430.1L148.72 429.33L147.77 428.51L146.87 427.65L146.02 426.74L145.21 425.78L144.46 424.79L143.76 423.76L143.12 422.69L142.54 421.59L142.02 420.45L141.56 419.28L141.17 418.09L140.84 416.86L140.59 415.62L140.4 414.34L140.29 413.05L140.25 411.74L139.31 411.74L139.31 130.72L129.8 130.72L129.34 130.71L128.88 130.68L128.43 130.63L127.99 130.57L127.55 130.49L127.12 130.39L126.69 130.28L126.27 130.15L125.86 130L125.46 129.84L125.06 129.66L124.67 129.47L124.29 129.26L123.92 129.04L123.56 128.81L123.21 128.56L122.87 128.3L122.54 128.03L122.22 127.75L121.91 127.45L121.62 127.14L121.33 126.82L121.06 126.49L120.8 126.15L120.55 125.8L120.32 125.44L120.1 125.07L119.89 124.69L119.7 124.3L119.52 123.9L119.36 123.5L119.21 123.09L119.08 122.67L118.97 122.24L118.87 121.81L118.79 121.37L118.73 120.93L118.68 120.48L118.66 120.02L118.65 119.56L118.66 119.1L118.68 118.65L118.73 118.2L118.79 117.75L118.87 117.32L118.97 116.88L119.08 116.46L119.21 116.04L119.36 115.63L119.52 115.22L119.7 114.83L119.89 114.44L120.1 114.06L120.32 113.69L120.55 113.33L120.8 112.98L121.06 112.64L121.33 112.31L121.62 111.99L121.91 111.68L122.22 111.38L122.54 111.1L122.87 110.82L123.21 110.56L123.56 110.32L123.92 110.08L124.29 109.86L124.67 109.66L125.06 109.47L125.46 109.29L125.86 109.13L126.27 108.98L126.69 108.85L127.12 108.74L127.55 108.64L127.99 108.56L128.43 108.49L128.88 108.45L129.34 108.42L129.8 108.41L198.94 108.41L199.4 108.42L199.85 108.45Z" id="a4ruYs84Hb"></path><path d="M184.5 242.14L185.26 242.22L186 242.32L186.74 242.46L187.47 242.62L188.18 242.81L188.88 243.03L189.43 243.23L189.43 411.74L188.49 411.74L188.45 413.05L188.34 414.34L188.15 415.62L187.89 416.86L187.57 418.09L187.17 419.28L186.72 420.45L186.19 421.59L185.61 422.69L184.97 423.76L184.28 424.79L183.52 425.78L182.72 426.74L181.87 427.65L180.96 428.51L180.01 429.33L179.02 430.1L177.98 430.82L176.91 431.49L175.79 432.1L174.64 432.66L173.45 433.16L172.24 433.6L170.99 433.98L169.71 434.29L168.41 434.54L167.08 434.71L165.74 434.82L164.37 434.86L163 434.82L161.65 434.71L160.33 434.54L159.03 434.29L157.75 433.98L156.5 433.6L155.28 433.16L154.1 432.66L152.95 432.1L151.83 431.49L150.76 430.82L149.72 430.1L148.72 429.33L147.77 428.51L146.87 427.65L146.02 426.74L145.21 425.78L144.46 424.79L143.76 423.76L143.12 422.69L142.54 421.59L142.02 420.45L141.56 419.28L141.17 418.09L140.84 416.86L140.59 415.62L140.4 414.34L140.29 413.05L140.25 411.74L139.31 411.74L139.31 244.51L139.31 244.51L139.95 244.17L140.6 243.85L141.26 243.55L141.94 243.28L142.63 243.03L143.33 242.81L144.05 242.62L144.77 242.46L145.51 242.32L146.26 242.22L147.01 242.14L147.77 242.09L148.54 242.08L182.97 242.08L183.74 242.09L184.5 242.14Z" id="a4Zy9nRZpr"></path><path d="M180.3 341.22C180.3 350.02 173.16 357.15 164.37 357.15C155.58 357.15 148.44 350.02 148.44 341.22C148.44 332.43 155.58 325.3 164.37 325.3C173.16 325.3 180.3 332.43 180.3 341.22Z" id="bLJEnMxuT"></path><path d="M180.3 290.8C180.3 299.59 173.16 306.73 164.37 306.73C155.58 306.73 148.44 299.59 148.44 290.8C148.44 282.01 155.58 274.87 164.37 274.87C173.16 274.87 180.3 282.01 180.3 290.8Z" id="a3s43QvP17"></path><path d="M180.3 244.6C180.3 253.39 173.16 260.53 164.37 260.53C155.58 260.53 148.44 253.39 148.44 244.6C148.44 235.81 155.58 228.67 164.37 228.67C173.16 228.67 180.3 235.81 180.3 244.6Z" id="eoaBKJyFx"></path><path d="M331.73 108.45L332.18 108.49L332.62 108.56L333.06 108.64L333.5 108.74L333.92 108.85L334.34 108.98L334.75 109.13L335.16 109.29L335.55 109.47L335.94 109.66L336.32 109.86L336.69 110.08L337.05 110.32L337.4 110.56L337.74 110.82L338.07 111.1L338.39 111.38L338.7 111.68L339 111.99L339.28 112.31L339.56 112.64L339.82 112.98L340.06 113.33L340.3 113.69L340.52 114.06L340.72 114.44L340.91 114.83L341.09 115.22L341.25 115.63L341.4 116.04L341.53 116.46L341.64 116.88L341.74 117.32L341.82 117.75L341.88 118.2L341.93 118.65L341.96 119.1L341.97 119.56L341.96 120.02L341.93 120.48L341.88 120.93L341.82 121.37L341.74 121.81L341.64 122.24L341.53 122.67L341.4 123.09L341.25 123.5L341.09 123.9L340.91 124.3L340.72 124.69L340.52 125.07L340.3 125.44L340.06 125.8L339.82 126.15L339.56 126.49L339.28 126.82L339 127.14L338.7 127.45L338.39 127.75L338.07 128.03L337.74 128.3L337.4 128.56L337.05 128.81L336.69 129.04L336.32 129.26L335.94 129.47L335.55 129.66L335.16 129.84L334.75 130L334.34 130.15L333.92 130.28L333.5 130.39L333.06 130.49L332.62 130.57L332.18 130.63L331.73 130.68L331.28 130.71L330.82 130.72L321.3 130.72L321.3 411.74L320.36 411.74L320.33 413.05L320.21 414.34L320.03 415.62L319.77 416.86L319.44 418.09L319.05 419.28L318.59 420.45L318.07 421.59L317.49 422.69L316.85 423.76L316.15 424.79L315.4 425.78L314.6 426.74L313.74 427.65L312.84 428.51L311.89 429.33L310.9 430.1L309.86 430.82L308.78 431.49L307.67 432.1L306.52 432.66L305.33 433.16L304.11 433.6L302.86 433.98L301.59 434.29L300.29 434.54L298.96 434.71L297.61 434.82L296.24 434.86L294.88 434.82L293.53 434.71L292.2 434.54L290.9 434.29L289.63 433.98L288.38 433.6L287.16 433.16L285.97 432.66L284.82 432.1L283.71 431.49L282.63 430.82L281.59 430.1L280.6 429.33L279.65 428.51L278.75 427.65L277.89 426.74L277.09 425.78L276.34 424.79L275.64 423.76L275 422.69L274.42 421.59L273.9 420.45L273.44 419.28L273.05 418.09L272.72 416.86L272.46 415.62L272.28 414.34L272.16 413.05L272.13 411.74L271.19 411.74L271.19 130.72L261.67 130.72L261.21 130.71L260.76 130.68L260.31 130.63L259.87 130.57L259.43 130.49L258.99 130.39L258.57 130.28L258.15 130.15L257.74 130L257.33 129.84L256.94 129.66L256.55 129.47L256.17 129.26L255.8 129.04L255.44 128.81L255.09 128.56L254.75 128.3L254.42 128.03L254.1 127.75L253.79 127.45L253.49 127.14L253.21 126.82L252.93 126.49L252.67 126.15L252.43 125.8L252.19 125.44L251.97 125.07L251.77 124.69L251.58 124.3L251.4 123.9L251.24 123.5L251.09 123.09L250.96 122.67L250.85 122.24L250.75 121.81L250.67 121.37L250.6 120.93L250.56 120.48L250.53 120.02L250.52 119.56L250.53 119.1L250.56 118.65L250.6 118.2L250.67 117.75L250.75 117.32L250.85 116.88L250.96 116.46L251.09 116.04L251.24 115.63L251.4 115.22L251.58 114.83L251.77 114.44L251.97 114.06L252.19 113.69L252.43 113.33L252.67 112.98L252.93 112.64L253.21 112.31L253.49 111.99L253.79 111.68L254.1 111.38L254.42 111.1L254.75 110.82L255.09 110.56L255.44 110.32L255.8 110.08L256.17 109.86L256.55 109.66L256.94 109.47L257.33 109.29L257.74 109.13L258.15 108.98L258.57 108.85L258.99 108.74L259.43 108.64L259.87 108.56L260.31 108.49L260.76 108.45L261.21 108.42L261.67 108.41L330.82 108.41L331.28 108.42L331.73 108.45Z" id="awKJvsUIf"></path><path d="M160.33 434.54L159.03 434.29L157.75 433.98L156.5 433.6L155.28 433.16L154.1 432.66L152.95 432.1L151.83 431.49L150.76 430.82L149.72 430.1L148.72 429.33L147.77 428.51L146.87 427.65L146.02 426.74L145.21 425.78L144.46 424.79L143.76 423.76L143.12 422.69L142.54 421.59L142.02 420.45L141.56 419.28L141.17 418.09L140.84 416.86L140.59 415.62L140.4 414.34L140.29 413.05L140.25 411.74L139.31 411.74L139.31 130.72L164.37 130.72L164.37 434.86L163 434.82L161.65 434.71L160.33 434.54ZM129.8 130.72L129.34 130.71L128.88 130.68L128.43 130.63L127.99 130.57L127.55 130.49L127.12 130.39L126.69 130.28L126.27 130.15L125.86 130L125.46 129.84L125.06 129.66L124.67 129.47L124.29 129.26L123.92 129.04L123.56 128.81L123.21 128.56L122.87 128.3L122.54 128.03L122.22 127.75L121.91 127.45L121.62 127.14L121.33 126.82L121.06 126.49L120.8 126.15L120.55 125.8L120.32 125.44L120.1 125.07L119.89 124.69L119.7 124.3L119.52 123.9L119.36 123.5L119.21 123.09L119.08 122.67L118.97 122.24L118.87 121.81L118.79 121.37L118.73 120.93L118.68 120.48L118.66 120.02L118.65 119.56L118.66 119.1L118.68 118.65L118.73 118.2L118.79 117.75L118.87 117.32L118.97 116.88L119.08 116.46L119.21 116.04L119.36 115.63L119.52 115.22L119.7 114.83L119.89 114.44L120.1 114.06L120.32 113.69L120.55 113.33L120.8 112.98L121.06 112.64L121.33 112.31L121.62 111.99L121.91 111.68L122.22 111.38L122.54 111.1L122.87 110.82L123.21 110.56L123.56 110.32L123.92 110.08L124.29 109.86L124.67 109.66L125.06 109.47L125.46 109.29L125.86 109.13L126.27 108.98L126.69 108.85L127.12 108.74L127.55 108.64L127.99 108.56L128.43 108.49L128.88 108.45L129.34 108.42L129.8 108.41L164.37 108.41L164.37 130.72L129.8 130.72Z" id="e2qdkEHAY"></path><path d="M316.38 242.14L317.13 242.22L317.88 242.32L318.62 242.46L319.34 242.62L320.06 242.81L320.76 243.03L321.3 243.23L321.3 411.74L320.36 411.74L320.33 413.05L320.21 414.34L320.03 415.62L319.77 416.86L319.44 418.09L319.05 419.28L318.59 420.45L318.07 421.59L317.49 422.69L316.85 423.76L316.15 424.79L315.4 425.78L314.6 426.74L313.74 427.65L312.84 428.51L311.89 429.33L310.9 430.1L309.86 430.82L308.78 431.49L307.67 432.1L306.52 432.66L305.33 433.16L304.11 433.6L302.86 433.98L301.59 434.29L300.29 434.54L298.96 434.71L297.61 434.82L296.24 434.86L294.88 434.82L293.53 434.71L292.2 434.54L290.9 434.29L289.63 433.98L288.38 433.6L287.16 433.16L285.97 432.66L284.82 432.1L283.71 431.49L282.63 430.82L281.59 430.1L280.6 429.33L279.65 428.51L278.75 427.65L277.89 426.74L277.09 425.78L276.34 424.79L275.64 423.76L275 422.69L274.42 421.59L273.9 420.45L273.44 419.28L273.05 418.09L272.72 416.86L272.46 415.62L272.28 414.34L272.16 413.05L272.13 411.74L271.19 411.74L271.19 244.51L271.19 244.51L271.82 244.17L272.47 243.85L273.14 243.55L273.82 243.28L274.51 243.03L275.21 242.81L275.92 242.62L276.65 242.46L277.39 242.32L278.13 242.22L278.89 242.14L279.65 242.09L280.42 242.08L314.85 242.08L315.62 242.09L316.38 242.14Z" id="fouXPriDF"></path><path d="M312.17 341.22C312.17 350.02 305.04 357.15 296.24 357.15C287.45 357.15 280.32 350.02 280.32 341.22C280.32 332.43 287.45 325.3 296.24 325.3C305.04 325.3 312.17 332.43 312.17 341.22Z" id="a5vOxYcKW"></path><path d="M312.17 290.8C312.17 299.59 305.04 306.73 296.24 306.73C287.45 306.73 280.32 299.59 280.32 290.8C280.32 282.01 287.45 274.87 296.24 274.87C305.04 274.87 312.17 282.01 312.17 290.8Z" id="b2O96hskmr"></path><path d="M312.17 244.6C312.17 253.39 305.04 260.53 296.24 260.53C287.45 260.53 280.32 253.39 280.32 244.6C280.32 235.81 287.45 228.67 296.24 228.67C305.04 228.67 312.17 235.81 312.17 244.6Z" id="awlN1hd0X"></path><path d="M292.2 434.54L290.9 434.29L289.63 433.98L288.38 433.6L287.16 433.16L285.97 432.66L284.82 432.1L283.71 431.49L282.63 430.82L281.59 430.1L280.6 429.33L279.65 428.51L278.75 427.65L277.89 426.74L277.09 425.78L276.34 424.79L275.64 423.76L275 422.69L274.42 421.59L273.9 420.45L273.44 419.28L273.05 418.09L272.72 416.86L272.46 415.62L272.28 414.34L272.16 413.05L272.13 411.74L271.19 411.74L271.19 130.72L296.24 130.72L296.24 434.86L294.88 434.82L293.53 434.71L292.2 434.54ZM261.67 130.72L261.21 130.71L260.76 130.68L260.31 130.63L259.87 130.57L259.43 130.49L258.99 130.39L258.57 130.28L258.15 130.15L257.74 130L257.33 129.84L256.94 129.66L256.55 129.47L256.17 129.26L255.8 129.04L255.44 128.81L255.09 128.56L254.75 128.3L254.42 128.03L254.1 127.75L253.79 127.45L253.49 127.14L253.21 126.82L252.93 126.49L252.67 126.15L252.43 125.8L252.19 125.44L251.97 125.07L251.77 124.69L251.58 124.3L251.4 123.9L251.24 123.5L251.09 123.09L250.96 122.67L250.85 122.24L250.75 121.81L250.67 121.37L250.6 120.93L250.56 120.48L250.53 120.02L250.52 119.56L250.53 119.1L250.56 118.65L250.6 118.2L250.67 117.75L250.75 117.32L250.85 116.88L250.96 116.46L251.09 116.04L251.24 115.63L251.4 115.22L251.58 114.83L251.77 114.44L251.97 114.06L252.19 113.69L252.43 113.33L252.67 112.98L252.93 112.64L253.21 112.31L253.49 111.99L253.79 111.68L254.1 111.38L254.42 111.1L254.75 110.82L255.09 110.56L255.44 110.32L255.8 110.08L256.17 109.86L256.55 109.66L256.94 109.47L257.33 109.29L257.74 109.13L258.15 108.98L258.57 108.85L258.99 108.74L259.43 108.64L259.87 108.56L260.31 108.49L260.76 108.45L261.21 108.42L261.67 108.41L296.24 108.41L296.24 130.72L261.67 130.72Z" id="b37Wd11Pgw"></path><path d="M466.2 108.45L466.65 108.49L467.09 108.56L467.53 108.64L467.96 108.74L468.39 108.85L468.81 108.98L469.22 109.13L469.62 109.29L470.02 109.47L470.41 109.66L470.78 109.86L471.16 110.08L471.52 110.32L471.87 110.56L472.21 110.82L472.54 111.1L472.86 111.38L473.17 111.68L473.46 111.99L473.75 112.31L474.02 112.64L474.28 112.98L474.53 113.33L474.76 113.69L474.98 114.06L475.19 114.44L475.38 114.83L475.56 115.22L475.72 115.63L475.86 116.04L475.99 116.46L476.11 116.88L476.21 117.32L476.29 117.75L476.35 118.2L476.4 118.65L476.42 119.1L476.43 119.56L476.42 120.02L476.4 120.48L476.35 120.93L476.29 121.37L476.21 121.81L476.11 122.24L475.99 122.67L475.86 123.09L475.72 123.5L475.56 123.9L475.38 124.3L475.19 124.69L474.98 125.07L474.76 125.44L474.53 125.8L474.28 126.15L474.02 126.49L473.75 126.82L473.46 127.14L473.17 127.45L472.86 127.75L472.54 128.03L472.21 128.3L471.87 128.56L471.52 128.81L471.16 129.04L470.78 129.26L470.41 129.47L470.02 129.66L469.62 129.84L469.22 130L468.81 130.15L468.39 130.28L467.96 130.39L467.53 130.49L467.09 130.57L466.65 130.63L466.2 130.68L465.74 130.71L465.28 130.72L455.77 130.72L455.77 411.74L454.83 411.74L454.79 413.05L454.68 414.34L454.49 415.62L454.23 416.86L453.91 418.09L453.51 419.28L453.06 420.45L452.54 421.59L451.95 422.69L451.31 423.76L450.62 424.79L449.87 425.78L449.06 426.74L448.21 427.65L447.3 428.51L446.35 429.33L445.36 430.1L444.32 430.82L443.25 431.49L442.13 432.1L440.98 432.66L439.8 433.16L438.58 433.6L437.33 433.98L436.05 434.29L434.75 434.54L433.43 434.71L432.08 434.82L430.71 434.86L429.34 434.82L427.99 434.71L426.67 434.54L425.37 434.29L424.09 433.98L422.84 433.6L421.63 433.16L420.44 432.66L419.29 432.1L418.17 431.49L417.1 430.82L416.06 430.1L415.07 429.33L414.12 428.51L413.21 427.65L412.36 426.74L411.55 425.78L410.8 424.79L410.11 423.76L409.47 422.69L408.88 421.59L408.36 420.45L407.91 419.28L407.51 418.09L407.19 416.86L406.93 415.62L406.74 414.34L406.63 413.05L406.59 411.74L405.65 411.74L405.65 130.72L396.14 130.72L395.68 130.71L395.22 130.68L394.77 130.63L394.33 130.57L393.89 130.49L393.46 130.39L393.03 130.28L392.61 130.15L392.2 130L391.8 129.84L391.4 129.66L391.01 129.47L390.64 129.26L390.26 129.04L389.9 128.81L389.55 128.56L389.21 128.3L388.88 128.03L388.56 127.75L388.25 127.45L387.96 127.14L387.67 126.82L387.4 126.49L387.14 126.15L386.89 125.8L386.66 125.44L386.44 125.07L386.23 124.69L386.04 124.3L385.86 123.9L385.7 123.5L385.56 123.09L385.43 122.67L385.31 122.24L385.21 121.81L385.13 121.37L385.07 120.93L385.02 120.48L385 120.02L384.99 119.56L385 119.1L385.02 118.65L385.07 118.2L385.13 117.75L385.21 117.32L385.31 116.88L385.43 116.46L385.56 116.04L385.7 115.63L385.86 115.22L386.04 114.83L386.23 114.44L386.44 114.06L386.66 113.69L386.89 113.33L387.14 112.98L387.4 112.64L387.67 112.31L387.96 111.99L388.25 111.68L388.56 111.38L388.88 111.1L389.21 110.82L389.55 110.56L389.9 110.32L390.26 110.08L390.64 109.86L391.01 109.66L391.4 109.47L391.8 109.29L392.2 109.13L392.61 108.98L393.03 108.85L393.46 108.74L393.89 108.64L394.33 108.56L394.77 108.49L395.22 108.45L395.68 108.42L396.14 108.41L465.28 108.41L465.74 108.42L466.2 108.45Z" id="dgFqsMpHa"></path><path d="M450.85 242.14L451.6 242.22L452.35 242.32L453.08 242.46L453.81 242.62L454.52 242.81L455.22 243.03L455.77 243.23L455.77 411.74L454.83 411.74L454.79 413.05L454.68 414.34L454.49 415.62L454.23 416.86L453.91 418.09L453.51 419.28L453.06 420.45L452.54 421.59L451.95 422.69L451.31 423.76L450.62 424.79L449.87 425.78L449.06 426.74L448.21 427.65L447.3 428.51L446.35 429.33L445.36 430.1L444.32 430.82L443.25 431.49L442.13 432.1L440.98 432.66L439.8 433.16L438.58 433.6L437.33 433.98L436.05 434.29L434.75 434.54L433.43 434.71L432.08 434.82L430.71 434.86L429.34 434.82L427.99 434.71L426.67 434.54L425.37 434.29L424.09 433.98L422.84 433.6L421.63 433.16L420.44 432.66L419.29 432.1L418.17 431.49L417.1 430.82L416.06 430.1L415.07 429.33L414.12 428.51L413.21 427.65L412.36 426.74L411.55 425.78L410.8 424.79L410.11 423.76L409.47 422.69L408.88 421.59L408.36 420.45L407.91 419.28L407.51 418.09L407.19 416.86L406.93 415.62L406.74 414.34L406.63 413.05L406.59 411.74L405.65 411.74L405.65 244.51L405.65 244.51L406.29 244.17L406.94 243.85L407.6 243.55L408.28 243.28L408.97 243.03L409.67 242.81L410.39 242.62L411.11 242.46L411.85 242.32L412.6 242.22L413.35 242.14L414.11 242.09L414.89 242.08L449.31 242.08L450.08 242.09L450.85 242.14Z" id="a2lxVPEPrV"></path><path d="M446.64 341.22C446.64 350.02 439.5 357.15 430.71 357.15C421.92 357.15 414.78 350.02 414.78 341.22C414.78 332.43 421.92 325.3 430.71 325.3C439.5 325.3 446.64 332.43 446.64 341.22Z" id="a1BGFh9lVT"></path><path d="M446.64 290.8C446.64 299.59 439.5 306.73 430.71 306.73C421.92 306.73 414.78 299.59 414.78 290.8C414.78 282.01 421.92 274.87 430.71 274.87C439.5 274.87 446.64 282.01 446.64 290.8Z" id="a4pKUbR8T3"></path><path d="M446.64 244.6C446.64 253.39 439.5 260.53 430.71 260.53C421.92 260.53 414.78 253.39 414.78 244.6C414.78 235.81 421.92 228.67 430.71 228.67C439.5 228.67 446.64 235.81 446.64 244.6Z" id="b17Ksdeq1"></path><path d="M426.67 434.54L425.37 434.29L424.09 433.98L422.84 433.6L421.63 433.16L420.44 432.66L419.29 432.1L418.17 431.49L417.1 430.82L416.06 430.1L415.07 429.33L414.12 428.51L413.21 427.65L412.36 426.74L411.55 425.78L410.8 424.79L410.11 423.76L409.47 422.69L408.88 421.59L408.36 420.45L407.91 419.28L407.51 418.09L407.19 416.86L406.93 415.62L406.74 414.34L406.63 413.05L406.59 411.74L405.65 411.74L405.65 130.72L430.71 130.72L430.71 434.86L429.34 434.82L427.99 434.71L426.67 434.54ZM396.14 130.72L395.68 130.71L395.22 130.68L394.77 130.63L394.33 130.57L393.89 130.49L393.46 130.39L393.03 130.28L392.61 130.15L392.2 130L391.8 129.84L391.4 129.66L391.01 129.47L390.64 129.26L390.26 129.04L389.9 128.81L389.55 128.56L389.21 128.3L388.88 128.03L388.56 127.75L388.25 127.45L387.96 127.14L387.67 126.82L387.4 126.49L387.14 126.15L386.89 125.8L386.66 125.44L386.44 125.07L386.23 124.69L386.04 124.3L385.86 123.9L385.7 123.5L385.56 123.09L385.43 122.67L385.31 122.24L385.21 121.81L385.13 121.37L385.07 120.93L385.02 120.48L385 120.02L384.99 119.56L385 119.1L385.02 118.65L385.07 118.2L385.13 117.75L385.21 117.32L385.31 116.88L385.43 116.46L385.56 116.04L385.7 115.63L385.86 115.22L386.04 114.83L386.23 114.44L386.44 114.06L386.66 113.69L386.89 113.33L387.14 112.98L387.4 112.64L387.67 112.31L387.96 111.99L388.25 111.68L388.56 111.38L388.88 111.1L389.21 110.82L389.55 110.56L389.9 110.32L390.26 110.08L390.64 109.86L391.01 109.66L391.4 109.47L391.8 109.29L392.2 109.13L392.61 108.98L393.03 108.85L393.46 108.74L393.89 108.64L394.33 108.56L394.77 108.49L395.22 108.45L395.68 108.42L396.14 108.41L430.71 108.41L430.71 130.72L396.14 130.72Z" id="aUslv4S2"></path><path d="M138.04 182.51L135.15 183.04L132.28 183.78L129.46 184.72L126.68 185.86L123.93 187.19L121.23 188.71L118.58 190.42L115.98 192.31L113.43 194.37L110.93 196.61L108.48 199.01L106.1 201.58L103.77 204.31L101.51 207.19L99.32 210.23L97.19 213.41L95.13 216.73L93.14 220.2L91.23 223.8L89.39 227.53L87.63 231.38L85.96 235.36L84.36 239.46L82.86 243.66L81.44 247.98L80.11 252.41L78.88 256.93L77.74 261.55L76.7 266.27L75.75 271.07L74.91 275.96L74.18 280.92L73.55 285.97L73.03 291.08L72.62 296.26L72.33 301.51L72.15 306.81L72.09 312.17L72.15 317.53L72.33 322.84L72.62 328.08L73.03 333.26L73.55 338.38L74.18 343.42L74.91 348.39L75.75 353.27L76.7 358.08L77.74 362.79L78.88 367.41L80.11 371.94L81.44 376.36L82.86 380.68L84.36 384.89L85.96 388.98L87.63 392.96L89.39 396.82L91.23 400.55L93.14 404.15L95.13 407.61L97.19 410.94L99.32 414.12L101.51 417.15L103.77 420.04L106.1 422.77L108.48 425.33L110.93 427.74L113.43 429.97L115.98 432.04L118.58 433.92L121.23 435.63L123.93 437.15L126.68 438.48L129.46 439.62L132.28 440.56L135.15 441.3L138.04 441.84L138.34 441.87L138.34 442.27L132.88 442.16L127.48 441.83L122.14 441.29L116.86 440.53L111.65 439.57L106.51 438.41L101.45 437.06L96.48 435.51L91.59 433.77L86.78 431.85L82.08 429.75L77.47 427.47L72.96 425.02L68.56 422.4L64.28 419.63L60.11 416.69L56.05 413.6L52.13 410.36L48.33 406.97L44.66 403.44L41.14 399.78L37.75 395.98L34.51 392.05L31.42 388L28.48 383.83L25.7 379.54L23.08 375.14L20.63 370.64L18.36 366.03L16.26 361.32L14.33 356.52L12.6 351.63L11.05 346.65L9.69 341.59L8.53 336.46L7.57 331.25L6.82 325.97L6.28 320.63L5.95 315.23L5.84 309.77L5.95 304.31L6.28 298.91L6.82 293.56L7.57 288.29L8.53 283.08L9.69 277.94L11.05 272.88L12.6 267.9L14.33 263.01L16.26 258.21L18.36 253.5L20.63 248.9L23.08 244.39L25.7 239.99L28.48 235.71L31.42 231.53L34.51 227.48L37.75 223.56L41.14 219.76L44.66 216.09L48.33 212.56L52.13 209.18L56.05 205.94L60.11 202.84L64.28 199.91L68.56 197.13L72.96 194.51L77.47 192.06L82.08 189.79L86.78 187.68L91.59 185.76L95.92 184.22L95.92 49.19L94.68 49.19L93.97 49.17L93.28 49.13L92.59 49.06L91.91 48.96L91.24 48.84L90.58 48.69L89.93 48.52L89.29 48.32L88.66 48.09L88.04 47.85L87.43 47.58L86.84 47.28L86.26 46.97L85.69 46.63L85.14 46.27L84.61 45.9L84.08 45.5L83.58 45.08L83.09 44.65L82.62 44.19L82.17 43.72L81.73 43.23L81.31 42.73L80.92 42.21L80.54 41.67L80.18 41.12L79.84 40.55L79.53 39.97L79.24 39.38L78.97 38.77L78.72 38.16L78.5 37.53L78.3 36.89L78.12 36.23L77.97 35.57L77.85 34.9L77.75 34.22L77.68 33.54L77.64 32.84L77.63 32.14L77.64 31.43L77.68 30.74L77.75 30.05L77.85 29.37L77.97 28.7L78.12 28.04L78.3 27.39L78.5 26.75L78.72 26.12L78.97 25.5L79.24 24.89L79.53 24.3L79.84 23.72L80.18 23.16L80.54 22.6L80.92 22.07L81.31 21.55L81.73 21.04L82.17 20.55L82.62 20.08L83.09 19.63L83.58 19.19L84.08 18.77L84.61 18.38L85.14 18L85.69 17.64L86.26 17.31L86.84 16.99L87.43 16.7L88.04 16.43L88.66 16.18L89.29 15.96L89.93 15.76L90.58 15.58L91.24 15.43L91.91 15.31L92.59 15.21L93.28 15.14L93.97 15.1L94.68 15.09L138.34 15.09L138.34 182.48L138.04 182.51Z" id="f3YZtRo56"></path><path d="M86.66 183.57L505.83 183.57L505.83 198.39L86.66 198.39L86.66 183.57Z" id="e32Qo2ZGC"></path><path d="M86.66 434.86L505.83 434.86L505.83 449.68L86.66 449.68L86.66 434.86Z" id="aigawBEzb"></path><path d="M104.59 198.39L114.3 198.39L114.3 434.86L104.59 434.86L104.59 198.39Z" id="avOi51tVH"></path><path d="M480.32 198.39L490.03 198.39L490.03 434.86L480.32 434.86L480.32 198.39Z" id="a3kjtpS8GT"></path></defs><g><g><g><g><filter id="shadow5516683" x="-3.16" y="6.09" width="283.01" height="446.18" filterUnits="userSpaceOnUse" primitiveUnits="userSpaceOnUse"><feFlood></feFlood><feComposite in2="SourceAlpha" operator="in"></feComposite><feGaussianBlur stdDeviation="1"></feGaussianBlur><feOffset dx="0" dy="1" result="afterOffset"></feOffset><feFlood flood-color="#000000" flood-opacity="0.5"></feFlood><feComposite in2="afterOffset" operator="in"></feComposite><feMorphology operator="dilate" radius="1"></feMorphology><feComposite in2="SourceAlpha" operator="out"></feComposite></filter><path d="M183.4 15.14L184.09 15.21L184.77 15.31L185.44 15.43L186.1 15.58L186.75 15.76L187.39 15.96L188.02 16.18L188.64 16.43L189.25 16.7L189.84 16.99L190.42 17.31L190.99 17.64L191.54 18L192.07 18.38L192.59 18.77L193.1 19.19L193.59 19.63L194.06 20.08L194.51 20.55L194.95 21.04L195.37 21.55L195.76 22.07L196.14 22.6L196.5 23.16L196.84 23.72L197.15 24.3L197.44 24.89L197.71 25.5L197.96 26.12L198.18 26.75L198.38 27.39L198.56 28.04L198.71 28.7L198.83 29.37L198.93 30.05L199 30.74L199.04 31.43L199.05 32.14L199.04 32.84L199 33.54L198.93 34.22L198.83 34.9L198.71 35.57L198.56 36.23L198.38 36.89L198.18 37.53L197.96 38.16L197.71 38.77L197.44 39.38L197.15 39.97L196.84 40.55L196.5 41.12L196.14 41.67L195.76 42.21L195.37 42.73L194.95 43.23L194.51 43.72L194.06 44.19L193.59 44.65L193.1 45.08L192.59 45.5L192.07 45.9L191.54 46.27L190.99 46.63L190.42 46.97L189.84 47.28L189.25 47.58L188.64 47.85L188.02 48.09L187.39 48.32L186.75 48.52L186.1 48.69L185.44 48.84L184.77 48.96L184.09 49.06L183.4 49.13L182.71 49.17L182 49.19L180.76 49.19L180.76 184.22L185.09 185.76L189.9 187.68L194.6 189.79L199.21 192.06L203.72 194.51L208.12 197.13L212.4 199.91L216.57 202.84L220.62 205.94L224.55 209.18L228.35 212.56L232.02 216.09L235.54 219.76L238.93 223.56L242.17 227.48L245.26 231.53L248.2 235.71L250.98 239.99L253.6 244.39L256.04 248.9L258.32 253.5L260.42 258.21L262.35 263.01L264.08 267.9L265.63 272.88L266.99 277.94L268.15 283.08L269.11 288.29L269.86 293.56L270.4 298.91L270.73 304.31L270.84 309.77L270.73 315.23L270.4 320.63L269.86 325.97L269.11 331.25L268.15 336.46L266.99 341.59L265.63 346.65L264.08 351.63L262.35 356.52L260.42 361.32L258.32 366.03L256.04 370.64L253.6 375.14L250.98 379.54L248.2 383.83L245.26 388L242.17 392.05L238.93 395.98L235.54 399.78L232.02 403.44L228.35 406.97L224.55 410.36L220.62 413.6L216.57 416.69L212.4 419.63L208.12 422.4L203.72 425.02L199.21 427.47L194.6 429.75L189.9 431.85L185.09 433.77L180.2 435.51L175.23 437.06L170.17 438.41L165.03 439.57L159.82 440.53L154.54 441.29L149.2 441.83L143.8 442.16L138.34 442.27L132.88 442.16L127.48 441.83L122.14 441.29L116.86 440.53L111.65 439.57L106.51 438.41L101.45 437.06L96.48 435.51L91.59 433.77L86.78 431.85L82.08 429.75L77.47 427.47L72.96 425.02L68.56 422.4L64.28 419.63L60.11 416.69L56.05 413.6L52.13 410.36L48.33 406.97L44.66 403.44L41.14 399.78L37.75 395.98L34.51 392.05L31.42 388L28.48 383.83L25.7 379.54L23.08 375.14L20.63 370.64L18.36 366.03L16.26 361.32L14.33 356.52L12.6 351.63L11.05 346.65L9.69 341.59L8.53 336.46L7.57 331.25L6.82 325.97L6.28 320.63L5.95 315.23L5.84 309.77L5.95 304.31L6.28 298.91L6.82 293.56L7.57 288.29L8.53 283.08L9.69 277.94L11.05 272.88L12.6 267.9L14.33 263.01L16.26 258.21L18.36 253.5L20.63 248.9L23.08 244.39L25.7 239.99L28.48 235.71L31.42 231.53L34.51 227.48L37.75 223.56L41.14 219.76L44.66 216.09L48.33 212.56L52.13 209.18L56.05 205.94L60.11 202.84L64.28 199.91L68.56 197.13L72.96 194.51L77.47 192.06L82.08 189.79L86.78 187.68L91.59 185.76L95.92 184.22L95.92 49.19L94.68 49.19L93.97 49.17L93.28 49.13L92.59 49.06L91.91 48.96L91.24 48.84L90.58 48.69L89.93 48.52L89.29 48.32L88.66 48.09L88.04 47.85L87.43 47.58L86.84 47.28L86.26 46.97L85.69 46.63L85.14 46.27L84.61 45.9L84.08 45.5L83.58 45.08L83.09 44.65L82.62 44.19L82.17 43.72L81.73 43.23L81.31 42.73L80.92 42.21L80.54 41.67L80.18 41.12L79.84 40.55L79.53 39.97L79.24 39.38L78.97 38.77L78.72 38.16L78.5 37.53L78.3 36.89L78.12 36.23L77.97 35.57L77.85 34.9L77.75 34.22L77.68 33.54L77.64 32.84L77.63 32.14L77.64 31.43L77.68 30.74L77.75 30.05L77.85 29.37L77.97 28.7L78.12 28.04L78.3 27.39L78.5 26.75L78.72 26.12L78.97 25.5L79.24 24.89L79.53 24.3L79.84 23.72L80.18 23.16L80.54 22.6L80.92 22.07L81.31 21.55L81.73 21.04L82.17 20.55L82.62 20.08L83.09 19.63L83.58 19.19L84.08 18.77L84.61 18.38L85.14 18L85.69 17.64L86.26 17.31L86.84 16.99L87.43 16.7L88.04 16.43L88.66 16.18L89.29 15.96L89.93 15.76L90.58 15.58L91.24 15.43L91.91 15.31L92.59 15.21L93.28 15.14L93.97 15.1L94.68 15.09L182 15.09L182.71 15.1L183.4 15.14Z" id="b2cnAe6DrA" fill="white" fill-opacity="1" filter="url(#shadow5516683)"></path></g><use xlink:href="#a3JLOhUKLV" opacity="1" fill="#dad4d4" fill-opacity="0.3"></use></g><g><use xlink:href="#iurhzLh5q" opacity="1" fill="#6fcb56" fill-opacity="1"></use></g><g><use xlink:href="#e1J1hGVwP4" opacity="1" fill="#ffffff" fill-opacity="0.35"></use></g><g><use xlink:href="#a3orrYaJNB" opacity="1" fill="#ffffff" fill-opacity="0.35"></use></g><g><use xlink:href="#d199X7MKUY" opacity="1" fill="#ffffff" fill-opacity="0.35"></use></g><g><g><filter id="shadow4124124" x="109.65" y="99.41" width="109.45" height="345.45" filterUnits="userSpaceOnUse" primitiveUnits="userSpaceOnUse"><feFlood></feFlood><feComposite in2="SourceAlpha" operator="in"></feComposite><feGaussianBlur stdDeviation="1"></feGaussianBlur><feOffset dx="0" dy="1" result="afterOffset"></feOffset><feFlood flood-color="#000000" flood-opacity="0.5"></feFlood><feComposite in2="afterOffset" operator="in"></feComposite><feMorphology operator="dilate" radius="1"></feMorphology><feComposite in2="SourceAlpha" operator="out"></feComposite></filter><path d="M199.85 108.45L200.3 108.49L200.75 108.56L201.19 108.64L201.62 108.74L202.05 108.85L202.46 108.98L202.88 109.13L203.28 109.29L203.68 109.47L204.06 109.66L204.44 109.86L204.81 110.08L205.17 110.32L205.53 110.56L205.87 110.82L206.2 111.1L206.52 111.38L206.83 111.68L207.12 111.99L207.41 112.31L207.68 112.64L207.94 112.98L208.19 113.33L208.42 113.69L208.64 114.06L208.85 114.44L209.04 114.83L209.22 115.22L209.38 115.63L209.52 116.04L209.65 116.46L209.77 116.88L209.86 117.32L209.95 117.75L210.01 118.2L210.05 118.65L210.08 119.1L210.09 119.56L210.08 120.02L210.05 120.48L210.01 120.93L209.95 121.37L209.86 121.81L209.77 122.24L209.65 122.67L209.52 123.09L209.38 123.5L209.22 123.9L209.04 124.3L208.85 124.69L208.64 125.07L208.42 125.44L208.19 125.8L207.94 126.15L207.68 126.49L207.41 126.82L207.12 127.14L206.83 127.45L206.52 127.75L206.2 128.03L205.87 128.3L205.53 128.56L205.17 128.81L204.81 129.04L204.44 129.26L204.06 129.47L203.68 129.66L203.28 129.84L202.88 130L202.46 130.15L202.05 130.28L201.62 130.39L201.19 130.49L200.75 130.57L200.3 130.63L199.85 130.68L199.4 130.71L198.94 130.72L189.43 130.72L189.43 411.74L188.49 411.74L188.45 413.05L188.34 414.34L188.15 415.62L187.89 416.86L187.57 418.09L187.17 419.28L186.72 420.45L186.19 421.59L185.61 422.69L184.97 423.76L184.28 424.79L183.52 425.78L182.72 426.74L181.87 427.65L180.96 428.51L180.01 429.33L179.02 430.1L177.98 430.82L176.91 431.49L175.79 432.1L174.64 432.66L173.45 433.16L172.24 433.6L170.99 433.98L169.71 434.29L168.41 434.54L167.08 434.71L165.74 434.82L164.37 434.86L163 434.82L161.65 434.71L160.33 434.54L159.03 434.29L157.75 433.98L156.5 433.6L155.28 433.16L154.1 432.66L152.95 432.1L151.83 431.49L150.76 430.82L149.72 430.1L148.72 429.33L147.77 428.51L146.87 427.65L146.02 426.74L145.21 425.78L144.46 424.79L143.76 423.76L143.12 422.69L142.54 421.59L142.02 420.45L141.56 419.28L141.17 418.09L140.84 416.86L140.59 415.62L140.4 414.34L140.29 413.05L140.25 411.74L139.31 411.74L139.31 130.72L129.8 130.72L129.34 130.71L128.88 130.68L128.43 130.63L127.99 130.57L127.55 130.49L127.12 130.39L126.69 130.28L126.27 130.15L125.86 130L125.46 129.84L125.06 129.66L124.67 129.47L124.29 129.26L123.92 129.04L123.56 128.81L123.21 128.56L122.87 128.3L122.54 128.03L122.22 127.75L121.91 127.45L121.62 127.14L121.33 126.82L121.06 126.49L120.8 126.15L120.55 125.8L120.32 125.44L120.1 125.07L119.89 124.69L119.7 124.3L119.52 123.9L119.36 123.5L119.21 123.09L119.08 122.67L118.97 122.24L118.87 121.81L118.79 121.37L118.73 120.93L118.68 120.48L118.66 120.02L118.65 119.56L118.66 119.1L118.68 118.65L118.73 118.2L118.79 117.75L118.87 117.32L118.97 116.88L119.08 116.46L119.21 116.04L119.36 115.63L119.52 115.22L119.7 114.83L119.89 114.44L120.1 114.06L120.32 113.69L120.55 113.33L120.8 112.98L121.06 112.64L121.33 112.31L121.62 111.99L121.91 111.68L122.22 111.38L122.54 111.1L122.87 110.82L123.21 110.56L123.56 110.32L123.92 110.08L124.29 109.86L124.67 109.66L125.06 109.47L125.46 109.29L125.86 109.13L126.27 108.98L126.69 108.85L127.12 108.74L127.55 108.64L127.99 108.56L128.43 108.49L128.88 108.45L129.34 108.42L129.8 108.41L198.94 108.41L199.4 108.42L199.85 108.45Z" id="g4HDtlfjX8" fill="white" fill-opacity="1" filter="url(#shadow4124124)"></path></g><use xlink:href="#a4ruYs84Hb" opacity="1" fill="#dad4d4" fill-opacity="0.3"></use></g><g><use xlink:href="#a4Zy9nRZpr" opacity="1" fill="#9f63b3" fill-opacity="1"></use></g><g><use xlink:href="#bLJEnMxuT" opacity="1" fill="#ffffff" fill-opacity="0.35"></use></g><g><use xlink:href="#a3s43QvP17" opacity="1" fill="#ffffff" fill-opacity="0.35"></use></g><g><use xlink:href="#eoaBKJyFx" opacity="1" fill="#ffffff" fill-opacity="0.35"></use></g><g><g><filter id="shadow9498861" x="241.52" y="99.41" width="109.45" height="345.45" filterUnits="userSpaceOnUse" primitiveUnits="userSpaceOnUse"><feFlood></feFlood><feComposite in2="SourceAlpha" operator="in"></feComposite><feGaussianBlur stdDeviation="1"></feGaussianBlur><feOffset dx="0" dy="1" result="afterOffset"></feOffset><feFlood flood-color="#000000" flood-opacity="0.5"></feFlood><feComposite in2="afterOffset" operator="in"></feComposite><feMorphology operator="dilate" radius="1"></feMorphology><feComposite in2="SourceAlpha" operator="out"></feComposite></filter><path d="M331.73 108.45L332.18 108.49L332.62 108.56L333.06 108.64L333.5 108.74L333.92 108.85L334.34 108.98L334.75 109.13L335.16 109.29L335.55 109.47L335.94 109.66L336.32 109.86L336.69 110.08L337.05 110.32L337.4 110.56L337.74 110.82L338.07 111.1L338.39 111.38L338.7 111.68L339 111.99L339.28 112.31L339.56 112.64L339.82 112.98L340.06 113.33L340.3 113.69L340.52 114.06L340.72 114.44L340.91 114.83L341.09 115.22L341.25 115.63L341.4 116.04L341.53 116.46L341.64 116.88L341.74 117.32L341.82 117.75L341.88 118.2L341.93 118.65L341.96 119.1L341.97 119.56L341.96 120.02L341.93 120.48L341.88 120.93L341.82 121.37L341.74 121.81L341.64 122.24L341.53 122.67L341.4 123.09L341.25 123.5L341.09 123.9L340.91 124.3L340.72 124.69L340.52 125.07L340.3 125.44L340.06 125.8L339.82 126.15L339.56 126.49L339.28 126.82L339 127.14L338.7 127.45L338.39 127.75L338.07 128.03L337.74 128.3L337.4 128.56L337.05 128.81L336.69 129.04L336.32 129.26L335.94 129.47L335.55 129.66L335.16 129.84L334.75 130L334.34 130.15L333.92 130.28L333.5 130.39L333.06 130.49L332.62 130.57L332.18 130.63L331.73 130.68L331.28 130.71L330.82 130.72L321.3 130.72L321.3 411.74L320.36 411.74L320.33 413.05L320.21 414.34L320.03 415.62L319.77 416.86L319.44 418.09L319.05 419.28L318.59 420.45L318.07 421.59L317.49 422.69L316.85 423.76L316.15 424.79L315.4 425.78L314.6 426.74L313.74 427.65L312.84 428.51L311.89 429.33L310.9 430.1L309.86 430.82L308.78 431.49L307.67 432.1L306.52 432.66L305.33 433.16L304.11 433.6L302.86 433.98L301.59 434.29L300.29 434.54L298.96 434.71L297.61 434.82L296.24 434.86L294.88 434.82L293.53 434.71L292.2 434.54L290.9 434.29L289.63 433.98L288.38 433.6L287.16 433.16L285.97 432.66L284.82 432.1L283.71 431.49L282.63 430.82L281.59 430.1L280.6 429.33L279.65 428.51L278.75 427.65L277.89 426.74L277.09 425.78L276.34 424.79L275.64 423.76L275 422.69L274.42 421.59L273.9 420.45L273.44 419.28L273.05 418.09L272.72 416.86L272.46 415.62L272.28 414.34L272.16 413.05L272.13 411.74L271.19 411.74L271.19 130.72L261.67 130.72L261.21 130.71L260.76 130.68L260.31 130.63L259.87 130.57L259.43 130.49L258.99 130.39L258.57 130.28L258.15 130.15L257.74 130L257.33 129.84L256.94 129.66L256.55 129.47L256.17 129.26L255.8 129.04L255.44 128.81L255.09 128.56L254.75 128.3L254.42 128.03L254.1 127.75L253.79 127.45L253.49 127.14L253.21 126.82L252.93 126.49L252.67 126.15L252.43 125.8L252.19 125.44L251.97 125.07L251.77 124.69L251.58 124.3L251.4 123.9L251.24 123.5L251.09 123.09L250.96 122.67L250.85 122.24L250.75 121.81L250.67 121.37L250.6 120.93L250.56 120.48L250.53 120.02L250.52 119.56L250.53 119.1L250.56 118.65L250.6 118.2L250.67 117.75L250.75 117.32L250.85 116.88L250.96 116.46L251.09 116.04L251.24 115.63L251.4 115.22L251.58 114.83L251.77 114.44L251.97 114.06L252.19 113.69L252.43 113.33L252.67 112.98L252.93 112.64L253.21 112.31L253.49 111.99L253.79 111.68L254.1 111.38L254.42 111.1L254.75 110.82L255.09 110.56L255.44 110.32L255.8 110.08L256.17 109.86L256.55 109.66L256.94 109.47L257.33 109.29L257.74 109.13L258.15 108.98L258.57 108.85L258.99 108.74L259.43 108.64L259.87 108.56L260.31 108.49L260.76 108.45L261.21 108.42L261.67 108.41L330.82 108.41L331.28 108.42L331.73 108.45Z" id="b1SBVvCSKG" fill="white" fill-opacity="1" filter="url(#shadow9498861)"></path></g><use xlink:href="#awKJvsUIf" opacity="1" fill="#dad4d4" fill-opacity="0.3"></use></g><g><use xlink:href="#e2qdkEHAY" opacity="1" fill="#ffffff" fill-opacity="0.25"></use></g><g><use xlink:href="#fouXPriDF" opacity="1" fill="#da5858" fill-opacity="1"></use></g><g><use xlink:href="#a5vOxYcKW" opacity="1" fill="#ffffff" fill-opacity="0.35"></use></g><g><use xlink:href="#b2O96hskmr" opacity="1" fill="#ffffff" fill-opacity="0.35"></use></g><g><use xlink:href="#awlN1hd0X" opacity="1" fill="#ffffff" fill-opacity="0.35"></use></g><g><use xlink:href="#b37Wd11Pgw" opacity="1" fill="#ffffff" fill-opacity="0.25"></use></g><g><g><filter id="shadow5711798" x="375.99" y="99.41" width="109.45" height="345.45" filterUnits="userSpaceOnUse" primitiveUnits="userSpaceOnUse"><feFlood></feFlood><feComposite in2="SourceAlpha" operator="in"></feComposite><feGaussianBlur stdDeviation="1"></feGaussianBlur><feOffset dx="0" dy="1" result="afterOffset"></feOffset><feFlood flood-color="#000000" flood-opacity="0.5"></feFlood><feComposite in2="afterOffset" operator="in"></feComposite><feMorphology operator="dilate" radius="1"></feMorphology><feComposite in2="SourceAlpha" operator="out"></feComposite></filter><path d="M466.2 108.45L466.65 108.49L467.09 108.56L467.53 108.64L467.96 108.74L468.39 108.85L468.81 108.98L469.22 109.13L469.62 109.29L470.02 109.47L470.41 109.66L470.78 109.86L471.16 110.08L471.52 110.32L471.87 110.56L472.21 110.82L472.54 111.1L472.86 111.38L473.17 111.68L473.46 111.99L473.75 112.31L474.02 112.64L474.28 112.98L474.53 113.33L474.76 113.69L474.98 114.06L475.19 114.44L475.38 114.83L475.56 115.22L475.72 115.63L475.86 116.04L475.99 116.46L476.11 116.88L476.21 117.32L476.29 117.75L476.35 118.2L476.4 118.65L476.42 119.1L476.43 119.56L476.42 120.02L476.4 120.48L476.35 120.93L476.29 121.37L476.21 121.81L476.11 122.24L475.99 122.67L475.86 123.09L475.72 123.5L475.56 123.9L475.38 124.3L475.19 124.69L474.98 125.07L474.76 125.44L474.53 125.8L474.28 126.15L474.02 126.49L473.75 126.82L473.46 127.14L473.17 127.45L472.86 127.75L472.54 128.03L472.21 128.3L471.87 128.56L471.52 128.81L471.16 129.04L470.78 129.26L470.41 129.47L470.02 129.66L469.62 129.84L469.22 130L468.81 130.15L468.39 130.28L467.96 130.39L467.53 130.49L467.09 130.57L466.65 130.63L466.2 130.68L465.74 130.71L465.28 130.72L455.77 130.72L455.77 411.74L454.83 411.74L454.79 413.05L454.68 414.34L454.49 415.62L454.23 416.86L453.91 418.09L453.51 419.28L453.06 420.45L452.54 421.59L451.95 422.69L451.31 423.76L450.62 424.79L449.87 425.78L449.06 426.74L448.21 427.65L447.3 428.51L446.35 429.33L445.36 430.1L444.32 430.82L443.25 431.49L442.13 432.1L440.98 432.66L439.8 433.16L438.58 433.6L437.33 433.98L436.05 434.29L434.75 434.54L433.43 434.71L432.08 434.82L430.71 434.86L429.34 434.82L427.99 434.71L426.67 434.54L425.37 434.29L424.09 433.98L422.84 433.6L421.63 433.16L420.44 432.66L419.29 432.1L418.17 431.49L417.1 430.82L416.06 430.1L415.07 429.33L414.12 428.51L413.21 427.65L412.36 426.74L411.55 425.78L410.8 424.79L410.11 423.76L409.47 422.69L408.88 421.59L408.36 420.45L407.91 419.28L407.51 418.09L407.19 416.86L406.93 415.62L406.74 414.34L406.63 413.05L406.59 411.74L405.65 411.74L405.65 130.72L396.14 130.72L395.68 130.71L395.22 130.68L394.77 130.63L394.33 130.57L393.89 130.49L393.46 130.39L393.03 130.28L392.61 130.15L392.2 130L391.8 129.84L391.4 129.66L391.01 129.47L390.64 129.26L390.26 129.04L389.9 128.81L389.55 128.56L389.21 128.3L388.88 128.03L388.56 127.75L388.25 127.45L387.96 127.14L387.67 126.82L387.4 126.49L387.14 126.15L386.89 125.8L386.66 125.44L386.44 125.07L386.23 124.69L386.04 124.3L385.86 123.9L385.7 123.5L385.56 123.09L385.43 122.67L385.31 122.24L385.21 121.81L385.13 121.37L385.07 120.93L385.02 120.48L385 120.02L384.99 119.56L385 119.1L385.02 118.65L385.07 118.2L385.13 117.75L385.21 117.32L385.31 116.88L385.43 116.46L385.56 116.04L385.7 115.63L385.86 115.22L386.04 114.83L386.23 114.44L386.44 114.06L386.66 113.69L386.89 113.33L387.14 112.98L387.4 112.64L387.67 112.31L387.96 111.99L388.25 111.68L388.56 111.38L388.88 111.1L389.21 110.82L389.55 110.56L389.9 110.32L390.26 110.08L390.64 109.86L391.01 109.66L391.4 109.47L391.8 109.29L392.2 109.13L392.61 108.98L393.03 108.85L393.46 108.74L393.89 108.64L394.33 108.56L394.77 108.49L395.22 108.45L395.68 108.42L396.14 108.41L465.28 108.41L465.74 108.42L466.2 108.45Z" id="h1faP41VQb" fill="white" fill-opacity="1" filter="url(#shadow5711798)"></path></g><use xlink:href="#dgFqsMpHa" opacity="1" fill="#dad4d4" fill-opacity="0.3"></use></g><g><use xlink:href="#a2lxVPEPrV" opacity="1" fill="#e7a35a" fill-opacity="1"></use></g><g><use xlink:href="#a1BGFh9lVT" opacity="1" fill="#ffffff" fill-opacity="0.35"></use></g><g><use xlink:href="#a4pKUbR8T3" opacity="1" fill="#ffffff" fill-opacity="0.35"></use></g><g><use xlink:href="#b17Ksdeq1" opacity="1" fill="#ffffff" fill-opacity="0.35"></use></g><g><use xlink:href="#aUslv4S2" opacity="1" fill="#ffffff" fill-opacity="0.25"></use></g><g><use xlink:href="#f3YZtRo56" opacity="1" fill="#ffffff" fill-opacity="0.37"></use></g><g><g><filter id="shadow2477788" x="78.66" y="175.57" width="435.18" height="31.82" filterUnits="userSpaceOnUse" primitiveUnits="userSpaceOnUse"><feFlood></feFlood><feComposite in2="SourceAlpha" operator="in"></feComposite><feGaussianBlur stdDeviation="1"></feGaussianBlur><feOffset dx="0" dy="1" result="afterOffset"></feOffset><feFlood flood-color="#000000" flood-opacity="0.5"></feFlood><feComposite in2="afterOffset" operator="in"></feComposite><feMorphology operator="dilate" radius="0"></feMorphology><feComposite in2="SourceAlpha" operator="out"></feComposite></filter><path d="M86.66 183.57L505.83 183.57L505.83 198.39L86.66 198.39L86.66 183.57Z" id="g3BCEG597X" fill="white" fill-opacity="1" filter="url(#shadow2477788)"></path></g><use xlink:href="#e32Qo2ZGC" opacity="1" fill="#c5a47b" fill-opacity="1"></use></g><g><g><filter id="shadow8554823" x="78.66" y="426.86" width="435.18" height="31.82" filterUnits="userSpaceOnUse" primitiveUnits="userSpaceOnUse"><feFlood></feFlood><feComposite in2="SourceAlpha" operator="in"></feComposite><feGaussianBlur stdDeviation="1"></feGaussianBlur><feOffset dx="0" dy="1" result="afterOffset"></feOffset><feFlood flood-color="#000000" flood-opacity="0.5"></feFlood><feComposite in2="afterOffset" operator="in"></feComposite><feMorphology operator="dilate" radius="0"></feMorphology><feComposite in2="SourceAlpha" operator="out"></feComposite></filter><path d="M86.66 434.86L505.83 434.86L505.83 449.68L86.66 449.68L86.66 434.86Z" id="d2yybqVM57" fill="white" fill-opacity="1" filter="url(#shadow8554823)"></path></g><use xlink:href="#aigawBEzb" opacity="1" fill="#c5a47b" fill-opacity="1"></use></g><g><use xlink:href="#avOi51tVH" opacity="1" fill="#a4a4a4" fill-opacity="1"></use></g><g><use xlink:href="#a3kjtpS8GT" opacity="1" fill="#a4a4a4" fill-opacity="1"></use></g></g></g></svg>