<?xml version="1.0" encoding="UTF-8" standalone="no"?>
<!DOCTYPE svg PUBLIC "-//W3C//DTD SVG 1.1//EN" "http://www.w3.org/Graphics/SVG/1.1/DTD/svg11.dtd">
<svg version="1.1" xmlns="http://www.w3.org/2000/svg" xmlns:xlink="http://www.w3.org/1999/xlink" preserveAspectRatio="xMidYMid meet" viewBox="0 0 128 128" width="128" height="128"><defs><path d="M124.14 0.03L124.32 0.06L124.49 0.09L124.66 0.13L124.83 0.17L124.99 0.22L125.16 0.28L125.31 0.35L125.47 0.42L125.62 0.49L125.77 0.57L125.92 0.66L126.06 0.75L126.2 0.85L126.33 0.95L126.46 1.06L126.59 1.17L126.71 1.29L126.83 1.41L126.94 1.54L127.05 1.67L127.15 1.8L127.25 1.94L127.34 2.08L127.43 2.23L127.51 2.38L127.58 2.53L127.65 2.69L127.72 2.84L127.78 3.01L127.83 3.17L127.87 3.34L127.91 3.51L127.94 3.68L127.97 3.86L127.99 4.04L128 4.22L128 4.4L128 123.6L128 123.78L127.99 123.96L127.97 124.14L127.94 124.32L127.91 124.49L127.87 124.66L127.83 124.83L127.78 124.99L127.72 125.16L127.65 125.31L127.58 125.47L127.51 125.62L127.43 125.77L127.34 125.92L127.25 126.06L127.15 126.2L127.05 126.33L126.94 126.46L126.83 126.59L126.71 126.71L126.59 126.83L126.46 126.94L126.33 127.05L126.2 127.15L126.06 127.25L125.92 127.34L125.77 127.43L125.62 127.51L125.47 127.58L125.31 127.65L125.16 127.72L124.99 127.78L124.83 127.83L124.66 127.87L124.49 127.91L124.32 127.94L124.14 127.97L123.96 127.99L123.78 128L123.6 128L4.4 128L4.22 128L4.04 127.99L3.86 127.97L3.68 127.94L3.51 127.91L3.34 127.87L3.17 127.83L3.01 127.78L2.84 127.72L2.69 127.65L2.53 127.58L2.38 127.51L2.23 127.43L2.08 127.34L1.94 127.25L1.8 127.15L1.67 127.05L1.54 126.94L1.41 126.83L1.29 126.71L1.17 126.59L1.06 126.46L0.95 126.33L0.85 126.2L0.75 126.06L0.66 125.92L0.57 125.77L0.49 125.62L0.42 125.47L0.35 125.31L0.28 125.16L0.22 124.99L0.17 124.83L0.13 124.66L0.09 124.49L0.06 124.32L0.03 124.14L0.01 123.96L0 123.78L0 123.6L0 4.4L0 4.22L0.01 4.04L0.03 3.86L0.06 3.68L0.09 3.51L0.13 3.34L0.17 3.17L0.22 3.01L0.28 2.84L0.35 2.69L0.42 2.53L0.49 2.38L0.57 2.23L0.66 2.08L0.75 1.94L0.85 1.8L0.95 1.67L1.06 1.54L1.17 1.41L1.29 1.29L1.41 1.17L1.54 1.06L1.67 0.95L1.8 0.85L1.94 0.75L2.08 0.66L2.23 0.57L2.38 0.49L2.53 0.42L2.69 0.35L2.84 0.28L3.01 0.22L3.17 0.17L3.34 0.13L3.51 0.09L3.68 0.06L3.86 0.03L4.04 0.01L4.22 0L4.4 0L123.6 0L123.78 0L123.96 0.01L123.96 0.01L124.14 0.03ZM99.19 115.69L99.19 79.47L90.17 79.47L90.17 106.66L26.77 106.66L26.77 79.47L17.75 79.47L17.75 115.69L17.75 115.69L99.19 115.69ZM82.9 77.25L38.61 67.99L36.73 76.89L81.03 86.15L81.03 86.15L82.9 77.25ZM86.61 67.27L44.63 50.36L41.22 58.8L83.2 75.71L83.2 75.71L86.61 67.27ZM92.57 58.73L55.87 32.25L50.54 39.63L87.24 66.11L87.24 66.11L92.57 58.73ZM100.55 51.28L70.78 17.2L63.92 23.17L93.68 57.26L93.68 57.26L100.55 51.28ZM110.25 46.53L91.16 5.5L82.9 9.33L102 50.36L102 50.36L110.25 46.53Z" id="a1vEHdadrZ"></path></defs><g><g><g><use xlink:href="#a1vEHdadrZ" opacity="1" fill="#2d2d2d" fill-opacity="1"></use></g></g></g></svg>